<?xml version="1.0" encoding="utf-8"?>
<!-- Generator: Adobe Illustrator 15.1.0, SVG Export Plug-In  -->
<!DOCTYPE svg PUBLIC "-//W3C//DTD SVG 1.1//EN" "http://www.w3.org/Graphics/SVG/1.1/DTD/svg11.dtd" [
	<!ENTITY ns_flows "http://ns.adobe.com/Flows/1.0/">
]>
<svg version="1.1"
	 xmlns="http://www.w3.org/2000/svg" xmlns:xlink="http://www.w3.org/1999/xlink" xmlns:a="http://ns.adobe.com/AdobeSVGViewerExtensions/3.0/"
	 x="0px" y="0px" width="100px" height="24px" viewBox="-0.25 22.066 100 24" enable-background="new -0.25 22.066 100 24"
	 xml:space="preserve">
<defs>
</defs>
<g>
	<g>
		<path d="M75.035,42.405c-4.59,0.206-8.809-0.444-12.846-2.744c-5.157-2.939-10.004-12.112-1.536-14.387
			c2.989-0.803,6.713-0.125,8.679,2.479c2.32,3.073-0.332,7.348-2.322,9.636c-3.302,3.794-8.749,4.561-13.449,4.823
			c-1.442,0.081-1.45,2.331,0,2.25c7.605-0.424,14.568-2.65,17.955-9.991c3.394-7.355-3.269-12.137-9.971-11.609
			c-6.194,0.488-9.738,6.223-6.836,11.916c3.879,7.604,12.266,10.236,20.326,9.875C76.48,44.59,76.486,42.34,75.035,42.405
			L75.035,42.405z"/>
	</g>
</g>
<g>
	<g>
		<path d="M94.76,42.69c-4.59,0.206-8.81-0.443-12.846-2.744c-5.156-2.939-10.005-12.112-1.536-14.387
			c2.989-0.803,6.714-0.125,8.679,2.479c2.32,3.073-0.332,7.348-2.322,9.636c-3.301,3.794-8.75,4.562-13.449,4.824
			c-1.442,0.081-1.449,2.331,0,2.25c7.607-0.425,14.568-2.65,17.955-9.991c3.395-7.355-3.269-12.137-9.971-11.609
			c-6.193,0.488-9.739,6.223-6.836,11.916c3.879,7.604,12.266,10.236,20.326,9.875C96.205,44.875,96.211,42.625,94.76,42.69
			L94.76,42.69z"/>
	</g>
</g>
<g>
	<path d="M1.506,27.57h14.205v2.167H9.783v14.862H7.337V29.737H1.506V27.57z"/>
	<path d="M22.223,37.475l-1.85-1.124c-1.161-0.709-1.986-1.406-2.478-2.092c-0.491-0.686-0.736-1.475-0.736-2.367
		c0-1.339,0.465-2.426,1.394-3.262c0.93-0.836,2.137-1.254,3.621-1.254c1.42,0,2.723,0.399,3.907,1.196v2.763
		c-1.226-1.179-2.544-1.768-3.956-1.768c-0.795,0-1.448,0.184-1.959,0.552c-0.512,0.368-0.768,0.839-0.768,1.413
		c0,0.509,0.188,0.986,0.565,1.431c0.376,0.445,0.982,0.912,1.816,1.4l1.859,1.1c2.074,1.239,3.111,2.816,3.111,4.731
		c0,1.363-0.457,2.471-1.369,3.323c-0.913,0.852-2.1,1.278-3.561,1.278c-1.68,0-3.21-0.516-4.589-1.549v-3.092
		c1.314,1.666,2.836,2.498,4.564,2.498c0.763,0,1.397-0.212,1.905-0.637c0.507-0.424,0.761-0.956,0.761-1.595
		C24.463,39.385,23.716,38.403,22.223,37.475z"/>
	<path d="M41.261,27.595h2.446v9.652c0,1.307-0.096,2.292-0.286,2.958s-0.426,1.219-0.706,1.662
		c-0.279,0.442-0.623,0.838-1.028,1.187c-1.347,1.161-3.108,1.741-5.283,1.741c-2.215,0-3.992-0.576-5.331-1.729
		c-0.405-0.357-0.748-0.756-1.028-1.199s-0.512-0.984-0.694-1.625c-0.182-0.641-0.273-1.647-0.273-3.019v-9.628h2.446v9.652
		c0,1.599,0.183,2.71,0.548,3.335s0.921,1.125,1.668,1.503c0.746,0.377,1.627,0.566,2.642,0.566c1.444,0,2.62-0.377,3.529-1.132
		c0.479-0.406,0.823-0.884,1.035-1.436c0.211-0.552,0.316-1.498,0.316-2.836V27.595z"/>
</g>
<g>
	<path d="M1.139,3.936h14.205v2.167H9.416v14.862H6.97V6.102H1.139V3.936z"/>
	<path d="M21.855,13.84l-1.85-1.124c-1.161-0.709-1.986-1.406-2.478-2.092c-0.491-0.686-0.736-1.475-0.736-2.367
		c0-1.339,0.465-2.426,1.394-3.262c0.93-0.836,2.137-1.254,3.621-1.254c1.42,0,2.723,0.399,3.907,1.196V7.7
		c-1.226-1.179-2.544-1.768-3.956-1.768c-0.795,0-1.448,0.184-1.959,0.552c-0.512,0.368-0.768,0.839-0.768,1.413
		c0,0.509,0.188,0.986,0.565,1.431c0.376,0.445,0.982,0.912,1.816,1.4l1.859,1.1c2.074,1.239,3.111,2.816,3.111,4.731
		c0,1.363-0.457,2.471-1.369,3.323c-0.913,0.852-2.1,1.278-3.561,1.278c-1.68,0-3.21-0.516-4.589-1.549v-3.092
		c1.314,1.666,2.836,2.498,4.564,2.498c0.763,0,1.397-0.212,1.905-0.637c0.507-0.424,0.761-0.956,0.761-1.595
		C24.096,15.75,23.349,14.769,21.855,13.84z"/>
	<path d="M40.894,3.96h2.446v9.652c0,1.307-0.096,2.292-0.286,2.958s-0.426,1.219-0.706,1.662c-0.279,0.442-0.623,0.838-1.028,1.187
		c-1.347,1.161-3.108,1.741-5.283,1.741c-2.215,0-3.992-0.576-5.331-1.729c-0.405-0.357-0.748-0.756-1.028-1.199
		s-0.512-0.984-0.694-1.625c-0.182-0.641-0.273-1.647-0.273-3.019V3.96h2.446v9.652c0,1.599,0.183,2.71,0.548,3.335
		s0.921,1.125,1.668,1.503c0.746,0.377,1.627,0.566,2.642,0.566c1.444,0,2.62-0.377,3.529-1.132
		c0.479-0.406,0.823-0.884,1.035-1.436c0.211-0.552,0.316-1.498,0.316-2.836V3.96z"/>
	<path d="M51.82,21.184l4.896-17.467h1.757L53.59,21.184H51.82z"/>
	<path d="M66.904,3.96h11.004l-7.695,17.204l-2.176-0.917l6.218-13.961h-7.351V3.96z"/>
	<path d="M83.29,18.615h6.474v2.349H79.003v-0.17l1.022-1.205c1.599-1.98,2.871-3.66,3.816-5.039s1.563-2.422,1.851-3.128
		c0.287-0.706,0.432-1.404,0.432-2.094c0-0.957-0.271-1.726-0.815-2.307c-0.544-0.58-1.266-0.87-2.167-0.87
		c-0.682,0-1.353,0.201-2.014,0.603c-0.662,0.402-1.256,0.968-1.784,1.698V5.36c1.323-1.079,2.687-1.619,4.09-1.619
		c1.485,0,2.709,0.495,3.67,1.485c0.962,0.99,1.442,2.248,1.442,3.773c0,0.682-0.119,1.411-0.358,2.186s-0.663,1.668-1.271,2.678
		s-1.643,2.388-3.103,4.133L83.29,18.615z"/>
	<path d="M96.945,3.741c1.559,0,2.847,0.818,3.865,2.453c1.019,1.635,1.527,3.711,1.527,6.226c0,2.581-0.509,4.678-1.527,6.293
		c-1.019,1.615-2.339,2.422-3.962,2.422c-1.647,0-2.971-0.791-3.969-2.374s-1.497-3.68-1.497-6.293c0-2.581,0.516-4.68,1.546-6.299
		C93.959,4.55,95.298,3.741,96.945,3.741z M96.97,6.054h-0.121c-0.934,0-1.674,0.574-2.222,1.722
		c-0.548,1.148-0.821,2.704-0.821,4.668c0,2.013,0.268,3.591,0.803,4.735c0.536,1.145,1.274,1.716,2.216,1.716
		s1.684-0.572,2.228-1.716c0.543-1.144,0.815-2.698,0.815-4.662c0-1.972-0.262-3.542-0.785-4.711S97.854,6.054,96.97,6.054z"/>
	<path d="M104.626,6.188c0-0.925,0.333-1.718,0.998-2.38c0.665-0.661,1.465-0.992,2.397-0.992c0.926,0,1.717,0.331,2.374,0.992
		c0.657,0.662,0.986,1.455,0.986,2.38c0,0.933-0.329,1.73-0.986,2.392c-0.657,0.662-1.448,0.992-2.374,0.992
		c-0.933,0-1.732-0.331-2.397-0.992C104.959,7.918,104.626,7.121,104.626,6.188z M105.953,6.188c0,0.568,0.202,1.055,0.608,1.46
		c0.405,0.406,0.893,0.609,1.46,0.609c0.561,0,1.039-0.203,1.437-0.609s0.597-0.893,0.597-1.46s-0.197-1.051-0.591-1.449
		c-0.394-0.397-0.874-0.596-1.442-0.596c-0.576,0-1.064,0.199-1.466,0.596C106.153,5.137,105.953,5.62,105.953,6.188z"/>
</g>
<rect id="_x3C_Slice_x3E__118_" y="22.066" fill="none" width="99.75" height="24"/>
</svg>
