<?xml version="1.0" encoding="utf-8"?>
<!-- Generator: Adobe Illustrator 15.1.0, SVG Export Plug-In  -->
<!DOCTYPE svg PUBLIC "-//W3C//DTD SVG 1.1//EN" "http://www.w3.org/Graphics/SVG/1.1/DTD/svg11.dtd" [
	<!ENTITY ns_flows "http://ns.adobe.com/Flows/1.0/">
]>
<svg version="1.1"
	 xmlns="http://www.w3.org/2000/svg" xmlns:xlink="http://www.w3.org/1999/xlink" xmlns:a="http://ns.adobe.com/AdobeSVGViewerExtensions/3.0/"
	 x="0px" y="0px" width="83px" height="26px" viewBox="-0.252 -0.688 83 26" enable-background="new -0.252 -0.688 83 26"
	 xml:space="preserve">
<defs>
</defs>
<g>
	<g>
		<path d="M56.98,13.182c2.027-0.047,3.922,0.143,5.879,0.682c2.365,0.652,8.191,6.27,2.742,7.714
			c-2.879,0.763-7.358-0.926-3.703-5.558c0.639-0.81,1.699-1.448,2.506-2.078c5.067-3.956,10.259-7.806,15.75-11.157
			c1.235-0.754,0.105-2.701-1.137-1.942c-5.9,3.602-11.434,7.784-16.878,12.035c-3.321,2.593-6.228,8.198-0.954,10.486
			c3.258,1.414,7.977,0.489,9.112-3.17c2.112-6.806-9.071-9.36-13.317-9.261C55.531,10.966,55.529,13.216,56.98,13.182L56.98,13.182
			z"/>
	</g>
</g>
<rect id="_x3C_Slice_x3E__118_" fill="none" width="81.776" height="24.938"/>
<g>
	<path d="M51.479,12.631h-9.186v-1.594h9.186V12.631z M51.479,16.854h-9.186V15.26h9.186V16.854z"/>
</g>
<g>
	<g>
		<path d="M2.873,22.592C3.211,14.239,9.029,7.789,17.365,6.773c8.489-1.034,15.504,6.877,17.548,14.337
			c0.383,1.397,2.554,0.803,2.17-0.599C34.504,11.098,26.121,3.458,16.001,4.69C6.996,5.787,0.973,13.942,0.623,22.592
			C0.564,24.043,2.814,24.038,2.873,22.592L2.873,22.592z"/>
	</g>
</g>
<g>
	<g>
		<path d="M37.212,22.521c0.052-2.44,0.714-4.749,1.474-7.051c0.304-0.921-1.145-1.313-1.447-0.398
			c-0.803,2.43-1.473,4.875-1.526,7.449C35.691,23.488,37.191,23.486,37.212,22.521L37.212,22.521z"/>
	</g>
</g>
<g>
	<g>
		<path d="M36.992,22.282c-2.141-1.972-3.379-4.63-6.152-5.867c-0.875-0.391-1.639,0.901-0.756,1.295
			c2.635,1.176,3.809,3.755,5.848,5.633C36.642,23.997,37.705,22.938,36.992,22.282L36.992,22.282z"/>
	</g>
</g>
</svg>
