<?xml version="1.0" encoding="utf-8"?>
<!-- Generator: Adobe Illustrator 15.1.0, SVG Export Plug-In  -->
<!DOCTYPE svg PUBLIC "-//W3C//DTD SVG 1.1//EN" "http://www.w3.org/Graphics/SVG/1.1/DTD/svg11.dtd" [
	<!ENTITY ns_flows "http://ns.adobe.com/Flows/1.0/">
]>
<svg version="1.1"
	 xmlns="http://www.w3.org/2000/svg" xmlns:xlink="http://www.w3.org/1999/xlink" xmlns:a="http://ns.adobe.com/AdobeSVGViewerExtensions/3.0/"
	 x="0px" y="0px" width="64px" height="24px" viewBox="-0.688 -0.813 64 24" enable-background="new -0.688 -0.813 64 24"
	 xml:space="preserve">
<defs>
</defs>
<g>
	<g>
		<path d="M1.313,2.344c4.925-0.213,9.723,0.442,14.205,2.571c7.053,3.35,10.888,13.884,0.377,15.08
			c-2.75,0.313-5.688-0.493-7.772-2.311c-3.903-3.403,0.683-9.369,3.495-11.467c4.035-3.008,9.766-3.521,14.609-3.705
			c1.446-0.055,1.451-2.305,0-2.25C18.625,0.55,10.344,2.063,6.076,9.031c-4.478,7.313,1.438,12.81,8.611,13.24
			c7.998,0.48,12.523-6.121,8.785-13.102C19.425,1.608,9.039-0.24,1.313,0.094C-0.133,0.157-0.139,2.407,1.313,2.344L1.313,2.344z"
			/>
	</g>
</g>
<g>
	<g>
		<path d="M47.031,2.081c2.569,6.25,5.139,12.499,7.707,18.749c0.544,1.322,2.722,0.744,2.17-0.599
			c-2.569-6.25-5.139-12.499-7.707-18.749C48.657,0.16,46.48,0.738,47.031,2.081L47.031,2.081z"/>
	</g>
</g>
<g>
	<g>
		<path d="M56.908,20.83c1.852-6.25,3.702-12.5,5.554-18.749c0.413-1.395-1.759-1.986-2.17-0.599
			c-1.851,6.25-3.702,12.5-5.554,18.749C54.325,21.626,56.497,22.217,56.908,20.83L56.908,20.83z"/>
	</g>
</g>
<g>
	<g>
		<path d="M24.064,2.637c5.095-0.207,9.877,0.422,14.455,2.786c4.941,2.551,11.42,11.252,2.879,14.334
			c-2.354,0.849-5.07,0.646-7.455,0.112c-6.101-1.369-4.537-7.966-1.672-11.44c3.749-4.543,10.396-5.322,15.845-5.598
			c1.444-0.073,1.45-2.323,0-2.25c-7.358,0.372-17.327,2.291-20.107,10.396c-2.745,8.003,3.859,12.005,11.164,11.483
			c6.3-0.45,10.996-5.925,7.54-12.063c-4.527-8.039-14.021-10.36-22.648-10.01C22.619,0.445,22.613,2.696,24.064,2.637L24.064,2.637
			z"/>
	</g>
</g>
<rect id="_x3C_Slice_x3E__118_" fill="none" width="62.813" height="22.75"/>
</svg>
