<?xml version="1.0" encoding="utf-8"?>
<!-- Generator: Adobe Illustrator 15.1.0, SVG Export Plug-In  -->
<!DOCTYPE svg PUBLIC "-//W3C//DTD SVG 1.1//EN" "http://www.w3.org/Graphics/SVG/1.1/DTD/svg11.dtd" [
	<!ENTITY ns_flows "http://ns.adobe.com/Flows/1.0/">
]>
<svg version="1.1"
	 xmlns="http://www.w3.org/2000/svg" xmlns:xlink="http://www.w3.org/1999/xlink" xmlns:a="http://ns.adobe.com/AdobeSVGViewerExtensions/3.0/"
	 x="0px" y="0px" width="64px" height="19px" viewBox="-0.963 23.808 64 19" enable-background="new -0.963 23.808 64 19"
	 xml:space="preserve">
<defs>
</defs>
<g>
	<path d="M0.426,3.936h14.205v2.167H8.703v14.862H6.257V6.102H0.426V3.936z"/>
	<path d="M21.143,13.84l-1.85-1.124c-1.161-0.709-1.986-1.406-2.478-2.092c-0.491-0.686-0.736-1.475-0.736-2.367
		c0-1.339,0.465-2.426,1.394-3.262c0.93-0.836,2.137-1.254,3.621-1.254c1.42,0,2.723,0.399,3.907,1.196V7.7
		c-1.226-1.179-2.544-1.768-3.956-1.768c-0.795,0-1.448,0.184-1.959,0.552c-0.512,0.368-0.768,0.839-0.768,1.413
		c0,0.509,0.188,0.986,0.565,1.431c0.376,0.445,0.982,0.912,1.816,1.4l1.859,1.1c2.074,1.239,3.111,2.816,3.111,4.731
		c0,1.363-0.457,2.471-1.369,3.323c-0.913,0.852-2.1,1.278-3.561,1.278c-1.68,0-3.21-0.516-4.589-1.549v-3.092
		c1.314,1.666,2.836,2.498,4.564,2.498c0.763,0,1.397-0.212,1.905-0.637c0.507-0.424,0.761-0.956,0.761-1.595
		C23.383,15.75,22.636,14.769,21.143,13.84z"/>
	<path d="M40.181,3.96h2.446v9.652c0,1.307-0.096,2.292-0.286,2.958s-0.426,1.219-0.706,1.662c-0.279,0.442-0.623,0.838-1.028,1.187
		c-1.347,1.161-3.108,1.741-5.283,1.741c-2.215,0-3.992-0.576-5.331-1.729c-0.405-0.357-0.748-0.756-1.028-1.199
		s-0.512-0.984-0.694-1.625c-0.182-0.641-0.273-1.647-0.273-3.019V3.96h2.446v9.652c0,1.599,0.183,2.71,0.548,3.335
		s0.921,1.125,1.668,1.503c0.746,0.377,1.627,0.566,2.642,0.566c1.444,0,2.62-0.377,3.529-1.132
		c0.479-0.406,0.823-0.884,1.035-1.436c0.211-0.552,0.316-1.498,0.316-2.836V3.96z"/>
</g>
<g>
	<path d="M0.426,25.177h14.205v2.167H8.703v14.862H6.257V27.344H0.426V25.177z"/>
	<path d="M21.143,35.082l-1.85-1.124c-1.161-0.709-1.986-1.406-2.478-2.092c-0.491-0.686-0.736-1.475-0.736-2.367
		c0-1.339,0.465-2.426,1.394-3.262c0.93-0.836,2.137-1.254,3.621-1.254c1.42,0,2.723,0.399,3.907,1.196v2.763
		c-1.226-1.179-2.544-1.768-3.956-1.768c-0.795,0-1.448,0.184-1.959,0.552c-0.512,0.368-0.768,0.839-0.768,1.413
		c0,0.509,0.188,0.986,0.565,1.431c0.376,0.445,0.982,0.912,1.816,1.4l1.859,1.1c2.074,1.239,3.111,2.816,3.111,4.731
		c0,1.363-0.457,2.471-1.369,3.323c-0.913,0.852-2.1,1.278-3.561,1.278c-1.68,0-3.21-0.516-4.589-1.549V37.76
		c1.314,1.666,2.836,2.498,4.564,2.498c0.763,0,1.397-0.212,1.905-0.637c0.507-0.424,0.761-0.956,0.761-1.595
		C23.383,36.992,22.636,36.01,21.143,35.082z"/>
	<path d="M40.181,25.202h2.446v9.652c0,1.307-0.096,2.292-0.286,2.958s-0.426,1.219-0.706,1.662
		c-0.279,0.442-0.623,0.838-1.028,1.187c-1.347,1.161-3.108,1.741-5.283,1.741c-2.215,0-3.992-0.576-5.331-1.729
		c-0.405-0.357-0.748-0.756-1.028-1.199s-0.512-0.984-0.694-1.625c-0.182-0.641-0.273-1.647-0.273-3.019v-9.628h2.446v9.652
		c0,1.599,0.183,2.71,0.548,3.335s0.921,1.125,1.668,1.503c0.746,0.377,1.627,0.566,2.642,0.566c1.444,0,2.62-0.377,3.529-1.132
		c0.479-0.406,0.823-0.884,1.035-1.436c0.211-0.552,0.316-1.498,0.316-2.836V25.202z"/>
	<path d="M59.957,25.202h2.425l-7.189,17.078h-0.552l-7.328-17.078h2.45l5.115,11.941L59.957,25.202z"/>
</g>
<g>
	<path d="M0.426,45.927h14.205v2.167H8.703v14.862H6.257V48.094H0.426V45.927z"/>
	<path d="M21.143,55.832l-1.85-1.124c-1.161-0.709-1.986-1.406-2.478-2.092c-0.491-0.686-0.736-1.475-0.736-2.367
		c0-1.339,0.465-2.426,1.394-3.262c0.93-0.836,2.137-1.254,3.621-1.254c1.42,0,2.723,0.399,3.907,1.196v2.763
		c-1.226-1.179-2.544-1.768-3.956-1.768c-0.795,0-1.448,0.184-1.959,0.552c-0.512,0.368-0.768,0.839-0.768,1.413
		c0,0.509,0.188,0.986,0.565,1.431c0.376,0.445,0.982,0.912,1.816,1.4l1.859,1.1c2.074,1.239,3.111,2.816,3.111,4.731
		c0,1.363-0.457,2.471-1.369,3.323c-0.913,0.852-2.1,1.278-3.561,1.278c-1.68,0-3.21-0.516-4.589-1.549V58.51
		c1.314,1.666,2.836,2.498,4.564,2.498c0.763,0,1.397-0.212,1.905-0.637c0.507-0.424,0.761-0.956,0.761-1.595
		C23.383,57.742,22.636,56.76,21.143,55.832z"/>
	<path d="M40.181,45.952h2.446v9.652c0,1.307-0.096,2.292-0.286,2.958s-0.426,1.219-0.706,1.662
		c-0.279,0.442-0.623,0.838-1.028,1.187c-1.347,1.161-3.108,1.741-5.283,1.741c-2.215,0-3.992-0.576-5.331-1.729
		c-0.405-0.357-0.748-0.756-1.028-1.199s-0.512-0.984-0.694-1.625c-0.182-0.641-0.273-1.647-0.273-3.019v-9.628h2.446v9.652
		c0,1.599,0.183,2.71,0.548,3.335s0.921,1.125,1.668,1.503c0.746,0.377,1.627,0.566,2.642,0.566c1.444,0,2.62-0.377,3.529-1.132
		c0.479-0.406,0.823-0.884,1.035-1.436c0.211-0.552,0.316-1.498,0.316-2.836V45.952z"/>
	<path d="M51.107,63.175l4.896-17.467h1.757l-4.883,17.467H51.107z"/>
</g>
<rect id="_x3C_Slice_x3E__118_" y="24.183" fill="none" width="62.787" height="18.625"/>
</svg>
