<?xml version="1.0" encoding="utf-8"?>
<!-- Generator: Adobe Illustrator 15.1.0, SVG Export Plug-In  -->
<!DOCTYPE svg PUBLIC "-//W3C//DTD SVG 1.1//EN" "http://www.w3.org/Graphics/SVG/1.1/DTD/svg11.dtd" [
	<!ENTITY ns_flows "http://ns.adobe.com/Flows/1.0/">
]>
<svg version="1.1"
	 xmlns="http://www.w3.org/2000/svg" xmlns:xlink="http://www.w3.org/1999/xlink" xmlns:a="http://ns.adobe.com/AdobeSVGViewerExtensions/3.0/"
	 x="0px" y="0px" width="113px" height="24px" viewBox="4.56 26.264 113 24" enable-background="new 4.56 26.264 113 24"
	 xml:space="preserve">
<defs>
</defs>
<g>
	<path d="M6.953,11.068H7.1c1.063,0,1.872-0.219,2.428-0.657c0.557-0.438,0.834-1.075,0.834-1.911c0-0.754-0.27-1.367-0.81-1.838
		C9.013,6.191,8.305,5.956,7.428,5.956c-0.884,0-1.866,0.276-2.945,0.828V4.459c0.99-0.495,2.069-0.743,3.238-0.743
		c1.565,0,2.801,0.41,3.706,1.229c0.904,0.819,1.357,1.938,1.357,3.357c0,0.86-0.175,1.583-0.523,2.171
		c-0.35,0.588-0.905,1.093-1.668,1.514c0.665,0.26,1.152,0.579,1.461,0.956c0.309,0.378,0.548,0.834,0.718,1.371
		c0.171,0.536,0.256,1.104,0.256,1.705c0,1.486-0.495,2.714-1.485,3.685s-2.239,1.456-3.749,1.456c-1.29,0-2.536-0.313-3.736-0.938
		v-2.653c1.282,0.803,2.527,1.205,3.736,1.205c0.82,0,1.479-0.244,1.979-0.73s0.748-1.132,0.748-1.935
		c0-0.674-0.207-1.262-0.62-1.765c-0.244-0.284-0.514-0.493-0.81-0.627c-0.297-0.134-0.936-0.262-1.917-0.383l-0.22-0.024V11.068z"
		/>
	<path d="M22.582,3.911l0.243-0.17l1.473,1.85C23,6.429,21.923,7.343,21.066,8.335c-0.856,0.992-1.516,2.159-1.978,3.5
		c0.9-0.463,1.797-0.694,2.689-0.694c1.339,0,2.467,0.475,3.384,1.424c0.917,0.95,1.376,2.114,1.376,3.494
		c0,1.42-0.499,2.625-1.497,3.615c-0.998,0.99-2.212,1.485-3.64,1.485c-1.599,0-2.891-0.562-3.877-1.686
		c-0.985-1.124-1.479-2.594-1.479-4.412c0-1.363,0.253-2.721,0.761-4.072c0.507-1.351,1.237-2.617,2.19-3.798
		C19.951,6.011,21.146,4.917,22.582,3.911z M18.565,14.355c-0.065,0.381-0.098,0.808-0.098,1.278c0,0.958,0.278,1.745,0.834,2.361
		c0.556,0.617,1.268,0.925,2.136,0.925c0.779,0,1.423-0.264,1.93-0.791s0.761-1.193,0.761-1.997c0-0.819-0.27-1.483-0.81-1.99
		c-0.54-0.507-1.252-0.761-2.136-0.761c-0.455,0-0.866,0.069-1.236,0.207C19.577,13.726,19.117,13.982,18.565,14.355z"/>
	<path d="M33.72,3.741c1.559,0,2.847,0.818,3.865,2.453c1.019,1.635,1.527,3.711,1.527,6.226c0,2.581-0.509,4.678-1.527,6.293
		c-1.019,1.615-2.339,2.422-3.962,2.422c-1.647,0-2.971-0.791-3.969-2.374s-1.497-3.68-1.497-6.293c0-2.581,0.516-4.68,1.546-6.299
		C30.733,4.55,32.072,3.741,33.72,3.741z M33.744,6.054h-0.121c-0.934,0-1.674,0.574-2.222,1.722
		c-0.548,1.148-0.821,2.704-0.821,4.668c0,2.013,0.268,3.591,0.803,4.735c0.536,1.145,1.274,1.716,2.216,1.716
		s1.684-0.572,2.228-1.716c0.543-1.144,0.815-2.698,0.815-4.662c0-1.972-0.262-3.542-0.785-4.711S34.629,6.054,33.744,6.054z"/>
	<path d="M41.4,6.188c0-0.925,0.333-1.718,0.998-2.38c0.665-0.661,1.465-0.992,2.397-0.992c0.926,0,1.717,0.331,2.374,0.992
		c0.657,0.662,0.986,1.455,0.986,2.38c0,0.933-0.329,1.73-0.986,2.392c-0.657,0.662-1.448,0.992-2.374,0.992
		c-0.933,0-1.732-0.331-2.397-0.992C41.733,7.918,41.4,7.121,41.4,6.188z M42.728,6.188c0,0.568,0.202,1.055,0.608,1.46
		c0.405,0.406,0.893,0.609,1.46,0.609c0.561,0,1.039-0.203,1.437-0.609s0.597-0.893,0.597-1.46s-0.197-1.051-0.591-1.449
		c-0.394-0.397-0.874-0.596-1.442-0.596c-0.576,0-1.064,0.199-1.466,0.596C42.928,5.137,42.728,5.62,42.728,6.188z"/>
</g>
<g>
	<path d="M116.917,3.96h2.435v17.004h-2.435V3.96z"/>
	<path d="M125.534,8.521c0-1.33,0.5-2.459,1.498-3.387c0.998-0.929,2.219-1.393,3.663-1.393c1.42,0,2.619,0.46,3.598,1.381
		c0.978,0.92,1.466,2.054,1.466,3.399c0,1.517-0.705,2.77-2.117,3.759c1.574,0.909,2.361,2.249,2.361,4.019
		c0,1.405-0.512,2.566-1.534,3.484s-2.313,1.376-3.87,1.376c-1.542,0-2.837-0.469-3.883-1.407c-1.047-0.938-1.57-2.097-1.57-3.478
		c0-1.73,0.803-3.062,2.41-3.995c-0.723-0.584-1.24-1.166-1.553-1.746S125.534,9.283,125.534,8.521z M133.544,16.4v-0.244
		c0-0.779-0.278-1.414-0.834-1.905c-0.556-0.491-1.276-0.736-2.16-0.736c-0.868,0-1.576,0.248-2.124,0.742
		c-0.548,0.495-0.822,1.136-0.822,1.923s0.28,1.428,0.84,1.923c0.561,0.495,1.286,0.742,2.18,0.742c0.852,0,1.552-0.227,2.1-0.682
		C133.271,17.71,133.544,17.122,133.544,16.4z M133.337,8.598c0-0.738-0.254-1.347-0.761-1.826c-0.507-0.479-1.15-0.718-1.93-0.718
		c-0.787,0-1.432,0.235-1.935,0.706c-0.504,0.471-0.755,1.076-0.755,1.814c0,0.706,0.266,1.311,0.797,1.813
		c0.531,0.503,1.171,0.755,1.917,0.755c0.738,0,1.367-0.25,1.887-0.749S133.337,9.295,133.337,8.598z"/>
	<path d="M143.136,3.741c1.559,0,2.847,0.818,3.865,2.453c1.019,1.635,1.527,3.711,1.527,6.226c0,2.581-0.509,4.678-1.527,6.293
		c-1.019,1.615-2.339,2.422-3.962,2.422c-1.647,0-2.971-0.791-3.969-2.374s-1.497-3.68-1.497-6.293c0-2.581,0.516-4.68,1.546-6.299
		C140.149,4.55,141.488,3.741,143.136,3.741z M143.16,6.054h-0.121c-0.934,0-1.674,0.574-2.222,1.722
		c-0.548,1.148-0.821,2.704-0.821,4.668c0,2.013,0.268,3.591,0.803,4.735c0.536,1.145,1.274,1.716,2.216,1.716
		s1.684-0.572,2.228-1.716c0.543-1.144,0.815-2.698,0.815-4.662c0-1.972-0.262-3.542-0.785-4.711S144.045,6.054,143.16,6.054z"/>
	<path d="M150.816,6.188c0-0.925,0.333-1.718,0.998-2.38c0.665-0.661,1.465-0.992,2.397-0.992c0.926,0,1.717,0.331,2.374,0.992
		c0.657,0.662,0.986,1.455,0.986,2.38c0,0.933-0.329,1.73-0.986,2.392c-0.657,0.662-1.448,0.992-2.374,0.992
		c-0.933,0-1.732-0.331-2.397-0.992C151.149,7.918,150.816,7.121,150.816,6.188z M152.144,6.188c0,0.568,0.202,1.055,0.608,1.46
		c0.405,0.406,0.893,0.609,1.46,0.609c0.561,0,1.039-0.203,1.437-0.609s0.597-0.893,0.597-1.46s-0.197-1.051-0.591-1.449
		c-0.394-0.397-0.874-0.596-1.442-0.596c-0.576,0-1.064,0.199-1.466,0.596C152.344,5.137,152.144,5.62,152.144,6.188z"/>
</g>
<g>
	<path d="M5.039,30.016h2.435V47.02H5.039V30.016z"/>
	<path d="M13.656,34.577c0-1.33,0.5-2.459,1.498-3.387c0.998-0.929,2.219-1.393,3.663-1.393c1.42,0,2.619,0.46,3.598,1.381
		c0.978,0.92,1.466,2.054,1.466,3.399c0,1.517-0.705,2.77-2.117,3.759c1.574,0.909,2.361,2.249,2.361,4.019
		c0,1.405-0.512,2.566-1.534,3.484s-2.313,1.376-3.87,1.376c-1.542,0-2.837-0.469-3.883-1.407c-1.047-0.938-1.57-2.097-1.57-3.478
		c0-1.73,0.803-3.062,2.41-3.995c-0.723-0.584-1.24-1.166-1.553-1.746S13.656,35.339,13.656,34.577z M21.666,42.456v-0.244
		c0-0.779-0.278-1.414-0.834-1.905c-0.556-0.491-1.276-0.736-2.16-0.736c-0.868,0-1.576,0.248-2.124,0.742
		c-0.548,0.495-0.822,1.136-0.822,1.923s0.28,1.428,0.84,1.923c0.561,0.495,1.286,0.742,2.18,0.742c0.852,0,1.552-0.227,2.1-0.682
		C21.393,43.766,21.666,43.178,21.666,42.456z M21.459,34.653c0-0.738-0.254-1.347-0.761-1.826c-0.507-0.479-1.15-0.718-1.93-0.718
		c-0.787,0-1.432,0.235-1.935,0.706c-0.504,0.471-0.755,1.076-0.755,1.814c0,0.706,0.266,1.311,0.797,1.813
		c0.531,0.503,1.171,0.755,1.917,0.755c0.738,0,1.367-0.25,1.887-0.749S21.459,35.351,21.459,34.653z"/>
	<path d="M31.258,29.796c1.559,0,2.847,0.818,3.865,2.453c1.019,1.635,1.527,3.711,1.527,6.226c0,2.581-0.509,4.678-1.527,6.293
		c-1.019,1.615-2.339,2.422-3.962,2.422c-1.647,0-2.971-0.791-3.969-2.374s-1.497-3.68-1.497-6.293c0-2.581,0.516-4.68,1.546-6.299
		C28.271,30.606,29.61,29.796,31.258,29.796z M31.282,32.109h-0.121c-0.934,0-1.674,0.574-2.222,1.722
		c-0.548,1.148-0.821,2.704-0.821,4.668c0,2.013,0.268,3.591,0.803,4.735c0.536,1.145,1.274,1.716,2.216,1.716
		s1.684-0.572,2.228-1.716c0.543-1.144,0.815-2.698,0.815-4.662c0-1.972-0.262-3.542-0.785-4.711S32.167,32.109,31.282,32.109z"/>
	<path d="M38.938,32.243c0-0.925,0.333-1.718,0.998-2.38c0.665-0.661,1.465-0.992,2.397-0.992c0.926,0,1.717,0.331,2.374,0.992
		c0.657,0.662,0.986,1.455,0.986,2.38c0,0.933-0.329,1.73-0.986,2.392c-0.657,0.662-1.448,0.992-2.374,0.992
		c-0.933,0-1.732-0.331-2.397-0.992C39.271,33.974,38.938,33.176,38.938,32.243z M40.266,32.243c0,0.568,0.202,1.055,0.608,1.46
		c0.405,0.406,0.893,0.609,1.46,0.609c0.561,0,1.039-0.203,1.437-0.609s0.597-0.893,0.597-1.46s-0.197-1.051-0.591-1.449
		c-0.394-0.397-0.874-0.596-1.442-0.596c-0.576,0-1.064,0.199-1.466,0.596C40.466,31.192,40.266,31.675,40.266,32.243z"/>
</g>
<g>
	<g>
		<path d="M55.65,29.088c4.925-0.213,9.724,0.442,14.204,2.571c7.055,3.35,10.889,13.884,0.378,15.08
			c-2.751,0.313-5.688-0.493-7.772-2.311c-3.902-3.403,0.683-9.369,3.496-11.467c4.034-3.008,9.765-3.521,14.608-3.705
			c1.446-0.055,1.452-2.305,0-2.25c-7.602,0.287-15.884,1.801-20.149,8.769c-4.479,7.313,1.438,12.81,8.609,13.24
			c7.998,0.48,12.523-6.121,8.787-13.101c-4.049-7.563-14.435-9.41-22.161-9.076C54.205,26.9,54.199,29.15,55.65,29.088
			L55.65,29.088z"/>
	</g>
</g>
<g>
	<g>
		<path d="M101.369,28.824c2.569,6.25,5.138,12.499,7.707,18.749c0.544,1.322,2.722,0.744,2.17-0.599
			c-2.569-6.25-5.138-12.499-7.707-18.749C102.995,26.903,100.817,27.481,101.369,28.824L101.369,28.824z"/>
	</g>
</g>
<g>
	<g>
		<path d="M111.246,47.573c1.851-6.25,3.702-12.5,5.554-18.749c0.413-1.395-1.759-1.986-2.17-0.599
			c-1.852,6.25-3.702,12.5-5.554,18.749C108.663,48.37,110.835,48.961,111.246,47.573L111.246,47.573z"/>
	</g>
</g>
<g>
	<g>
		<path d="M78.402,29.38c5.095-0.207,9.876,0.422,14.454,2.786c4.941,2.551,11.421,11.252,2.879,14.334
			c-2.353,0.849-5.07,0.646-7.454,0.112c-6.101-1.369-4.538-7.966-1.671-11.44c3.748-4.543,10.396-5.322,15.844-5.598
			c1.443-0.073,1.451-2.323,0-2.25c-7.357,0.372-17.327,2.291-20.107,10.396c-2.746,8.004,3.859,12.005,11.164,11.483
			c6.301-0.45,10.996-5.925,7.539-12.063c-4.527-8.039-14.02-10.36-22.647-10.01C76.956,27.189,76.95,29.439,78.402,29.38
			L78.402,29.38z"/>
	</g>
</g>
<rect id="_x3C_Slice_x3E__118_" x="4.56" y="26.452" fill="none" width="112.5" height="23"/>
</svg>
