<?xml version="1.0" encoding="utf-8"?>
<!-- Generator: Adobe Illustrator 15.1.0, SVG Export Plug-In  -->
<!DOCTYPE svg PUBLIC "-//W3C//DTD SVG 1.1//EN" "http://www.w3.org/Graphics/SVG/1.1/DTD/svg11.dtd" [
	<!ENTITY ns_flows "http://ns.adobe.com/Flows/1.0/">
]>
<svg version="1.1"
	 xmlns="http://www.w3.org/2000/svg" xmlns:xlink="http://www.w3.org/1999/xlink" xmlns:a="http://ns.adobe.com/AdobeSVGViewerExtensions/3.0/"
	 x="0px" y="0px" width="94px" height="27px" viewBox="0.598 25.583 94 27" enable-background="new 0.598 25.583 94 27"
	 xml:space="preserve">
<defs>
</defs>
<g>
	<path d="M5.039,7.477h2.435v17.004H5.039V7.477z"/>
	<path d="M13.656,12.038c0-1.33,0.5-2.459,1.498-3.387c0.998-0.929,2.219-1.393,3.663-1.393c1.42,0,2.619,0.46,3.598,1.381
		c0.978,0.92,1.466,2.054,1.466,3.399c0,1.517-0.705,2.77-2.117,3.759c1.574,0.909,2.361,2.249,2.361,4.019
		c0,1.405-0.512,2.566-1.534,3.484s-2.313,1.376-3.87,1.376c-1.542,0-2.837-0.469-3.883-1.407c-1.047-0.938-1.57-2.097-1.57-3.478
		c0-1.73,0.803-3.062,2.41-3.995c-0.723-0.584-1.24-1.166-1.553-1.746S13.656,12.8,13.656,12.038z M21.666,19.917v-0.244
		c0-0.779-0.278-1.414-0.834-1.905c-0.556-0.491-1.276-0.736-2.16-0.736c-0.868,0-1.576,0.248-2.124,0.742
		c-0.548,0.495-0.822,1.136-0.822,1.923s0.28,1.428,0.84,1.923c0.561,0.495,1.286,0.742,2.18,0.742c0.852,0,1.552-0.227,2.1-0.682
		C21.393,21.227,21.666,20.639,21.666,19.917z M21.459,12.114c0-0.738-0.254-1.347-0.761-1.826c-0.507-0.479-1.15-0.718-1.93-0.718
		c-0.787,0-1.432,0.235-1.935,0.706c-0.504,0.471-0.755,1.076-0.755,1.814c0,0.706,0.266,1.311,0.797,1.813
		c0.531,0.503,1.171,0.755,1.917,0.755c0.738,0,1.367-0.25,1.887-0.749S21.459,12.812,21.459,12.114z"/>
	<path d="M31.258,7.257c1.559,0,2.847,0.818,3.865,2.453c1.019,1.635,1.527,3.711,1.527,6.226c0,2.581-0.509,4.678-1.527,6.293
		c-1.019,1.615-2.339,2.422-3.962,2.422c-1.647,0-2.971-0.791-3.969-2.374s-1.497-3.68-1.497-6.293c0-2.581,0.516-4.68,1.546-6.299
		C28.271,8.067,29.61,7.257,31.258,7.257z M31.282,9.57h-0.121c-0.934,0-1.674,0.574-2.222,1.722
		c-0.548,1.148-0.821,2.704-0.821,4.668c0,2.013,0.268,3.591,0.803,4.735c0.536,1.145,1.274,1.716,2.216,1.716
		s1.684-0.572,2.228-1.716c0.543-1.144,0.815-2.698,0.815-4.662c0-1.972-0.262-3.542-0.785-4.711S32.167,9.57,31.282,9.57z"/>
	<path d="M38.938,9.704c0-0.925,0.333-1.718,0.998-2.38c0.665-0.661,1.465-0.992,2.397-0.992c0.926,0,1.717,0.331,2.374,0.992
		c0.657,0.662,0.986,1.455,0.986,2.38c0,0.933-0.329,1.73-0.986,2.392c-0.657,0.662-1.448,0.992-2.374,0.992
		c-0.933,0-1.732-0.331-2.397-0.992C39.271,11.435,38.938,10.637,38.938,9.704z M40.266,9.704c0,0.568,0.202,1.055,0.608,1.46
		c0.405,0.406,0.893,0.609,1.46,0.609c0.561,0,1.039-0.203,1.437-0.609s0.597-0.893,0.597-1.46s-0.197-1.051-0.591-1.449
		c-0.394-0.397-0.874-0.596-1.442-0.596c-0.576,0-1.064,0.199-1.466,0.596C40.466,8.653,40.266,9.136,40.266,9.704z"/>
</g>
<g>
	<path d="M53.077,33.253h2.435v17.004h-2.435V33.253z"/>
	<path d="M61.694,37.814c0-1.33,0.5-2.459,1.498-3.387c0.998-0.929,2.219-1.393,3.663-1.393c1.42,0,2.619,0.46,3.598,1.381
		c0.978,0.92,1.466,2.054,1.466,3.399c0,1.517-0.705,2.77-2.117,3.759c1.574,0.909,2.361,2.249,2.361,4.019
		c0,1.405-0.512,2.566-1.534,3.484s-2.313,1.376-3.87,1.376c-1.542,0-2.837-0.469-3.883-1.407c-1.047-0.938-1.57-2.097-1.57-3.478
		c0-1.73,0.803-3.062,2.41-3.995c-0.723-0.584-1.24-1.166-1.553-1.746S61.694,38.576,61.694,37.814z M69.704,45.693v-0.244
		c0-0.779-0.278-1.414-0.834-1.905c-0.556-0.491-1.276-0.736-2.16-0.736c-0.868,0-1.576,0.248-2.124,0.742
		c-0.548,0.495-0.822,1.136-0.822,1.923s0.28,1.428,0.84,1.923c0.561,0.495,1.286,0.742,2.18,0.742c0.852,0,1.552-0.227,2.1-0.682
		C69.431,47.003,69.704,46.415,69.704,45.693z M69.497,37.891c0-0.738-0.254-1.347-0.761-1.826c-0.507-0.479-1.15-0.718-1.93-0.718
		c-0.787,0-1.432,0.235-1.935,0.706c-0.504,0.471-0.755,1.076-0.755,1.814c0,0.706,0.266,1.311,0.797,1.813
		c0.531,0.503,1.171,0.755,1.917,0.755c0.738,0,1.367-0.25,1.887-0.749S69.497,38.588,69.497,37.891z"/>
	<path d="M79.296,33.034c1.559,0,2.847,0.818,3.865,2.453c1.019,1.635,1.527,3.711,1.527,6.226c0,2.581-0.509,4.678-1.527,6.293
		c-1.019,1.615-2.339,2.422-3.962,2.422c-1.647,0-2.971-0.791-3.969-2.374s-1.497-3.68-1.497-6.293c0-2.581,0.516-4.68,1.546-6.299
		C76.31,33.843,77.648,33.034,79.296,33.034z M79.32,35.347h-0.121c-0.934,0-1.674,0.574-2.222,1.722
		c-0.548,1.148-0.821,2.704-0.821,4.668c0,2.013,0.268,3.591,0.803,4.735c0.536,1.145,1.274,1.716,2.216,1.716
		s1.684-0.572,2.228-1.716c0.543-1.144,0.815-2.698,0.815-4.662c0-1.972-0.262-3.542-0.785-4.711S80.205,35.347,79.32,35.347z"/>
	<path d="M86.977,35.48c0-0.925,0.333-1.718,0.998-2.38c0.665-0.661,1.465-0.992,2.397-0.992c0.926,0,1.717,0.331,2.374,0.992
		c0.657,0.662,0.986,1.455,0.986,2.38c0,0.933-0.329,1.73-0.986,2.392c-0.657,0.662-1.448,0.992-2.374,0.992
		c-0.933,0-1.732-0.331-2.397-0.992C87.31,37.211,86.977,36.414,86.977,35.48z M88.304,35.48c0,0.568,0.202,1.055,0.608,1.46
		c0.405,0.406,0.893,0.609,1.46,0.609c0.561,0,1.039-0.203,1.437-0.609s0.597-0.893,0.597-1.46s-0.197-1.051-0.591-1.449
		c-0.394-0.397-0.874-0.596-1.442-0.596c-0.576,0-1.064,0.199-1.466,0.596C88.504,34.43,88.304,34.913,88.304,35.48z"/>
</g>
<g>
	<g>
		<path d="M51.982,13.644c2.872-0.125,5.683,0.238,8.299,1.48c3.771,1.791,6.329,7.545,0.453,8.214
			c-1.528,0.174-3.185-0.24-4.348-1.255c-2.068-1.803,0.542-5.083,2.009-6.177c2.363-1.761,5.707-2.056,8.543-2.163
			c1.446-0.055,1.452-2.305,0-2.25c-4.73,0.179-9.832,1.158-12.484,5.487c-2.875,4.693,0.924,8.347,5.555,8.624
			c5.153,0.308,8.059-4.067,5.664-8.541c-2.506-4.68-8.894-5.878-13.69-5.67C50.537,11.457,50.531,13.707,51.982,13.644
			L51.982,13.644z"/>
	</g>
</g>
<g>
	<g>
		<path d="M66.938,13.756c2.229-0.053,4.314,0.157,6.467,0.75c2.666,0.735,9.121,7.034,3.004,8.656
			c-3.226,0.855-8.266-1.066-4.16-6.267c0.7-0.887,1.861-1.586,2.745-2.276c5.556-4.338,11.249-8.561,17.271-12.236
			C93.5,1.628,92.37-0.318,91.128,0.44C84.674,4.38,78.62,8.955,72.665,13.604c-3.583,2.798-6.779,8.837-1.067,11.316
			c3.504,1.521,8.601,0.528,9.823-3.408c2.288-7.373-9.908-10.115-14.482-10.007C65.489,11.54,65.487,13.79,66.938,13.756
			L66.938,13.756z"/>
	</g>
</g>
<g>
	<g>
		<path d="M3.085,39.816c2.872-0.125,5.683,0.238,8.299,1.48c3.771,1.791,6.329,7.545,0.453,8.214
			c-1.528,0.174-3.185-0.24-4.348-1.255c-2.068-1.803,0.542-5.083,2.009-6.177c2.363-1.761,5.707-2.056,8.543-2.163
			c1.446-0.055,1.451-2.305,0-2.25c-4.73,0.179-9.832,1.158-12.484,5.487c-2.875,4.693,0.924,8.347,5.555,8.624
			c5.154,0.308,8.059-4.067,5.664-8.541c-2.506-4.68-8.894-5.878-13.69-5.67C1.641,37.629,1.634,39.879,3.085,39.816L3.085,39.816z"
			/>
	</g>
</g>
<g>
	<g>
		<path d="M18.041,39.928c2.229-0.053,4.314,0.157,6.467,0.75c2.666,0.735,9.121,7.034,3.004,8.656
			c-3.227,0.855-8.266-1.066-4.16-6.267c0.7-0.887,1.861-1.586,2.745-2.276c5.556-4.338,11.249-8.561,17.271-12.236
			c1.235-0.754,0.105-2.701-1.137-1.942c-6.454,3.94-12.508,8.514-18.463,13.164c-3.583,2.798-6.779,8.837-1.067,11.316
			c3.504,1.521,8.601,0.528,9.823-3.408c2.288-7.373-9.908-10.115-14.482-10.007C16.592,37.712,16.59,39.962,18.041,39.928
			L18.041,39.928z"/>
	</g>
</g>
<rect id="_x3C_Slice_x3E__119_" x="4.431" fill="none" width="88.585" height="26.167"/>
<rect id="_x3C_Slice_x3E__118_" x="0.931" y="26.167" fill="none" width="93.667" height="25.938"/>
</svg>
