<?xml version="1.0" encoding="utf-8"?>
<!-- Generator: Adobe Illustrator 15.1.0, SVG Export Plug-In  -->
<!DOCTYPE svg PUBLIC "-//W3C//DTD SVG 1.1//EN" "http://www.w3.org/Graphics/SVG/1.1/DTD/svg11.dtd" [
	<!ENTITY ns_flows "http://ns.adobe.com/Flows/1.0/">
]>
<svg version="1.1"
	 xmlns="http://www.w3.org/2000/svg" xmlns:xlink="http://www.w3.org/1999/xlink" xmlns:a="http://ns.adobe.com/AdobeSVGViewerExtensions/3.0/"
	 x="0px" y="0px" width="88px" height="27px" viewBox="-0.037 25.417 88 27" enable-background="new -0.037 25.417 88 27"
	 xml:space="preserve">
<defs>
</defs>
<g>
	<path d="M43.946,6.212h7.547v2.167h-5.331v4.297c0.17-0.016,0.345-0.024,0.523-0.024c1.646,0,3.002,0.501,4.065,1.503
		c1.063,1.002,1.594,2.278,1.594,3.828c0,1.599-0.525,2.899-1.576,3.901c-1.051,1.002-2.412,1.503-4.083,1.503
		c-1.38,0-2.719-0.333-4.018-0.998v-2.507c1.226,0.795,2.423,1.193,3.591,1.193c1.022,0,1.881-0.298,2.574-0.895
		c0.694-0.596,1.041-1.329,1.041-2.197c0-0.901-0.377-1.653-1.132-2.258s-1.696-0.907-2.824-0.907c-0.966,0-1.623,0.082-1.972,0.244
		V6.212z"/>
	<path d="M62.739,5.993h0.999v9.543h1.898v2.069h-1.898v5.611h-2.374v-5.611h-7.193v-1.047L62.739,5.993z M61.364,15.536v-4.929
		l-3.935,4.929H61.364z"/>
	<path d="M72.685,5.993c1.559,0,2.847,0.818,3.865,2.453c1.019,1.635,1.527,3.711,1.527,6.226c0,2.581-0.509,4.678-1.527,6.293
		c-1.019,1.615-2.339,2.422-3.962,2.422c-1.647,0-2.971-0.791-3.969-2.374s-1.497-3.68-1.497-6.293c0-2.581,0.516-4.68,1.546-6.299
		C69.698,6.803,71.037,5.993,72.685,5.993z M72.709,8.306h-0.121c-0.934,0-1.674,0.574-2.222,1.722
		c-0.548,1.148-0.821,2.704-0.821,4.668c0,2.013,0.268,3.591,0.803,4.735c0.536,1.145,1.274,1.716,2.216,1.716
		s1.684-0.572,2.228-1.716c0.543-1.144,0.815-2.698,0.815-4.662c0-1.972-0.262-3.542-0.785-4.711S73.594,8.306,72.709,8.306z"/>
	<path d="M80.365,8.44c0-0.925,0.333-1.718,0.998-2.38c0.665-0.661,1.465-0.992,2.397-0.992c0.926,0,1.717,0.331,2.374,0.992
		c0.657,0.662,0.986,1.455,0.986,2.38c0,0.933-0.329,1.73-0.986,2.392c-0.657,0.662-1.448,0.992-2.374,0.992
		c-0.933,0-1.732-0.331-2.397-0.992C80.698,10.17,80.365,9.373,80.365,8.44z M81.692,8.44c0,0.568,0.202,1.055,0.608,1.46
		c0.405,0.406,0.893,0.609,1.46,0.609c0.561,0,1.039-0.203,1.437-0.609s0.597-0.893,0.597-1.46s-0.197-1.051-0.591-1.449
		c-0.394-0.397-0.874-0.596-1.442-0.596c-0.576,0-1.064,0.199-1.466,0.596C81.893,7.389,81.692,7.872,81.692,8.44z"/>
</g>
<g>
	<path d="M46.089,50.698l-1.497-1.765c1.258-0.795,2.356-1.759,3.299-2.891c0.94-1.132,1.569-2.294,1.886-3.487
		c-0.771,0.479-1.676,0.718-2.714,0.718c-1.299,0-2.412-0.482-3.341-1.448c-0.93-0.966-1.395-2.126-1.395-3.481
		c0-1.412,0.495-2.608,1.485-3.59s2.199-1.473,3.627-1.473c1.607,0,2.922,0.581,3.944,1.741c1.022,1.161,1.533,2.649,1.533,4.467
		c0,2.061-0.641,4.145-1.923,6.25C49.712,47.843,48.077,49.497,46.089,50.698z M50.252,40.132c0.097-0.649,0.146-1.071,0.146-1.266
		c0-0.981-0.273-1.785-0.821-2.41c-0.548-0.625-1.252-0.938-2.112-0.938c-0.787,0-1.438,0.266-1.953,0.797
		c-0.516,0.532-0.773,1.199-0.773,2.002c0,0.738,0.28,1.375,0.84,1.911c0.561,0.536,1.229,0.804,2.009,0.804
		C48.494,41.033,49.383,40.733,50.252,40.132z"/>
	<path d="M60.22,33.279c1.559,0,2.847,0.818,3.865,2.453c1.019,1.635,1.527,3.711,1.527,6.226c0,2.581-0.509,4.678-1.527,6.293
		c-1.019,1.615-2.339,2.422-3.962,2.422c-1.647,0-2.971-0.791-3.969-2.374s-1.497-3.68-1.497-6.293c0-2.581,0.516-4.68,1.546-6.299
		C57.233,34.089,58.572,33.279,60.22,33.279z M60.244,35.592h-0.121c-0.934,0-1.674,0.574-2.222,1.722
		c-0.548,1.148-0.821,2.704-0.821,4.668c0,2.013,0.268,3.591,0.803,4.735c0.536,1.145,1.274,1.716,2.216,1.716
		s1.684-0.572,2.228-1.716c0.543-1.144,0.815-2.698,0.815-4.662c0-1.972-0.262-3.542-0.785-4.711S61.129,35.592,60.244,35.592z"/>
	<path d="M72.685,33.279c1.559,0,2.847,0.818,3.865,2.453c1.019,1.635,1.527,3.711,1.527,6.226c0,2.581-0.509,4.678-1.527,6.293
		c-1.019,1.615-2.339,2.422-3.962,2.422c-1.647,0-2.971-0.791-3.969-2.374s-1.497-3.68-1.497-6.293c0-2.581,0.516-4.68,1.546-6.299
		C69.698,34.089,71.037,33.279,72.685,33.279z M72.709,35.592h-0.121c-0.934,0-1.674,0.574-2.222,1.722
		c-0.548,1.148-0.821,2.704-0.821,4.668c0,2.013,0.268,3.591,0.803,4.735c0.536,1.145,1.274,1.716,2.216,1.716
		s1.684-0.572,2.228-1.716c0.543-1.144,0.815-2.698,0.815-4.662c0-1.972-0.262-3.542-0.785-4.711S73.594,35.592,72.709,35.592z"/>
	<path d="M80.365,35.726c0-0.925,0.333-1.718,0.998-2.38c0.665-0.661,1.465-0.992,2.397-0.992c0.926,0,1.717,0.331,2.374,0.992
		c0.657,0.662,0.986,1.455,0.986,2.38c0,0.933-0.329,1.73-0.986,2.392c-0.657,0.662-1.448,0.992-2.374,0.992
		c-0.933,0-1.732-0.331-2.397-0.992C80.698,37.457,80.365,36.659,80.365,35.726z M81.692,35.726c0,0.568,0.202,1.055,0.608,1.46
		c0.405,0.406,0.893,0.609,1.46,0.609c0.561,0,1.039-0.203,1.437-0.609s0.597-0.893,0.597-1.46s-0.197-1.051-0.591-1.449
		c-0.394-0.397-0.874-0.596-1.442-0.596c-0.576,0-1.064,0.199-1.466,0.596C81.893,34.675,81.692,35.158,81.692,35.726z"/>
</g>
<g>
	<g>
		<path d="M1.713,39.736c2.873-0.125,5.682,0.238,8.299,1.48c3.771,1.791,6.328,7.545,0.453,8.214
			c-1.527,0.174-3.184-0.24-4.348-1.255c-2.068-1.803,0.541-5.083,2.01-6.177c2.361-1.761,5.706-2.056,8.542-2.163
			c1.446-0.055,1.452-2.305,0-2.25c-4.731,0.179-9.833,1.158-12.484,5.487c-2.876,4.693,0.925,8.347,5.556,8.624
			c5.152,0.308,8.059-4.067,5.662-8.541c-2.506-4.68-8.893-5.878-13.689-5.67C0.268,37.549,0.262,39.799,1.713,39.736L1.713,39.736z
			"/>
	</g>
</g>
<g>
	<g>
		<path d="M16.669,39.848c2.229-0.053,4.315,0.157,6.467,0.75c2.667,0.735,9.12,7.034,3.003,8.656
			c-3.226,0.855-8.266-1.066-4.16-6.267c0.701-0.887,1.862-1.586,2.746-2.276c5.557-4.338,11.249-8.561,17.27-12.236
			c1.236-0.754,0.107-2.701-1.135-1.942c-6.455,3.94-12.509,8.514-18.464,13.164c-3.583,2.798-6.778,8.837-1.067,11.316
			c3.504,1.521,8.602,0.528,9.822-3.408c2.289-7.373-9.906-10.115-14.481-10.007C15.221,37.632,15.217,39.882,16.669,39.848
			L16.669,39.848z"/>
	</g>
</g>
<g>
	<g>
		<path d="M1.713,13.736c2.873-0.125,5.682,0.238,8.299,1.48c3.771,1.791,6.328,7.545,0.453,8.214
			c-1.527,0.174-3.184-0.24-4.348-1.255c-2.068-1.803,0.541-5.083,2.01-6.177c2.361-1.761,5.706-2.056,8.542-2.163
			c1.446-0.055,1.452-2.305,0-2.25c-4.731,0.179-9.833,1.158-12.484,5.487c-2.876,4.693,0.925,8.347,5.556,8.624
			c5.152,0.308,8.059-4.067,5.662-8.541c-2.506-4.68-8.893-5.878-13.689-5.67C0.268,11.549,0.262,13.799,1.713,13.736L1.713,13.736z
			"/>
	</g>
</g>
<g>
	<g>
		<path d="M16.669,13.848c2.229-0.053,4.315,0.157,6.467,0.75c2.667,0.735,9.12,7.034,3.003,8.656
			c-3.226,0.855-8.266-1.066-4.16-6.267c0.701-0.887,1.862-1.586,2.746-2.276c5.557-4.338,11.249-8.561,17.27-12.236
			c1.236-0.754,0.107-2.701-1.135-1.942c-6.455,3.94-12.509,8.514-18.464,13.164c-3.583,2.798-6.778,8.837-1.067,11.316
			c3.504,1.521,8.602,0.528,9.822-3.408c2.289-7.373-9.906-10.115-14.481-10.007C15.221,11.632,15.217,13.882,16.669,13.848
			L16.669,13.848z"/>
	</g>
</g>
<rect id="_x3C_Slice_x3E__119_" fill="none" width="87.963" height="26"/>
<rect id="_x3C_Slice_x3E__118_" y="26" fill="none" width="87.963" height="26.333"/>
</svg>
