<?xml version="1.0" encoding="utf-8"?>
<!-- Generator: Adobe Illustrator 15.1.0, SVG Export Plug-In  -->
<!DOCTYPE svg PUBLIC "-//W3C//DTD SVG 1.1//EN" "http://www.w3.org/Graphics/SVG/1.1/DTD/svg11.dtd" [
	<!ENTITY ns_flows "http://ns.adobe.com/Flows/1.0/">
]>
<svg version="1.1"
	 xmlns="http://www.w3.org/2000/svg" xmlns:xlink="http://www.w3.org/1999/xlink" xmlns:a="http://ns.adobe.com/AdobeSVGViewerExtensions/3.0/"
	 x="0px" y="0px" width="123px" height="24px" viewBox="-0.418 0.164 123 24" enable-background="new -0.418 0.164 123 24"
	 xml:space="preserve">
<defs>
</defs>
<g>
	<g>
		<path d="M1.545,3.474C7.442,3.227,12.76,4.443,17.137,8.583c4.899,4.633,4.052,11.605-3.095,12.164
			c-1.851,0.145-3.694-0.317-5.321-1.171c-4.451-2.338-1.455-8.437,0.688-11.09c3.873-4.794,11.268-4.83,16.842-4.894
			c1.449-0.017,1.451-2.267,0-2.25c-7.752,0.09-17.639,1.067-20.943,9.456C2.627,17.601,6.096,22.508,13.127,23
			c6.064,0.424,10.157-3.714,9.299-9.625C21.084,4.12,9.184,0.904,1.545,1.224C0.1,1.285,0.094,3.535,1.545,3.474L1.545,3.474z"/>
	</g>
</g>
<g>
	<g>
		<path d="M22.445,3.665c5.898-0.248,11.214,0.969,15.591,5.108c4.899,4.634,4.052,11.605-3.095,12.164
			c-1.852,0.145-3.693-0.317-5.32-1.172c-4.451-2.34-1.457-8.437,0.687-11.09c3.873-4.794,11.268-4.829,16.842-4.893
			c1.45-0.017,1.452-2.267,0-2.25c-7.752,0.09-17.639,1.065-20.943,9.455c-2.679,6.802,0.792,11.711,7.819,12.203
			c6.064,0.425,10.159-3.714,9.301-9.625C41.984,4.312,30.085,1.094,22.445,1.415C21,1.476,20.994,3.726,22.445,3.665L22.445,3.665z
			"/>
	</g>
</g>
<g>
	<g>
		<path d="M43.399,3.873C49.297,3.625,54.613,4.84,58.991,8.98c4.899,4.634,4.052,11.605-3.095,12.165
			c-1.852,0.145-3.694-0.317-5.32-1.171c-4.453-2.338-1.455-8.438,0.688-11.091c3.871-4.794,11.268-4.829,16.841-4.893
			c1.45-0.017,1.452-2.267,0-2.25c-7.753,0.089-17.638,1.066-20.942,9.456c-2.68,6.804,0.788,11.711,7.818,12.203
			c6.066,0.424,10.157-3.715,9.301-9.626C62.939,4.517,51.038,1.303,43.399,1.623C41.954,1.683,41.948,3.934,43.399,3.873
			L43.399,3.873z"/>
	</g>
</g>
<g>
	<path d="M80.584,3.96h2.435v17.004h-2.435V3.96z"/>
	<path d="M89.201,8.521c0-1.33,0.5-2.459,1.498-3.387c0.998-0.929,2.219-1.393,3.663-1.393c1.42,0,2.619,0.46,3.598,1.381
		c0.978,0.92,1.466,2.054,1.466,3.399c0,1.517-0.705,2.77-2.117,3.759c1.574,0.909,2.361,2.249,2.361,4.019
		c0,1.405-0.512,2.566-1.534,3.484s-2.313,1.376-3.87,1.376c-1.542,0-2.837-0.469-3.883-1.407c-1.047-0.938-1.57-2.097-1.57-3.478
		c0-1.73,0.803-3.062,2.41-3.995c-0.723-0.584-1.24-1.166-1.553-1.746S89.201,9.283,89.201,8.521z M97.211,16.4v-0.244
		c0-0.779-0.278-1.414-0.834-1.905c-0.556-0.491-1.276-0.736-2.16-0.736c-0.868,0-1.576,0.248-2.124,0.742
		c-0.548,0.495-0.822,1.136-0.822,1.923s0.28,1.428,0.84,1.923c0.561,0.495,1.286,0.742,2.18,0.742c0.852,0,1.552-0.227,2.1-0.682
		C96.938,17.71,97.211,17.122,97.211,16.4z M97.004,8.598c0-0.738-0.254-1.347-0.761-1.826c-0.507-0.479-1.15-0.718-1.93-0.718
		c-0.787,0-1.432,0.235-1.935,0.706c-0.504,0.471-0.755,1.076-0.755,1.814c0,0.706,0.266,1.311,0.797,1.813
		c0.531,0.503,1.171,0.755,1.917,0.755c0.738,0,1.367-0.25,1.887-0.749S97.004,9.295,97.004,8.598z"/>
	<path d="M106.803,3.741c1.559,0,2.847,0.818,3.865,2.453c1.019,1.635,1.527,3.711,1.527,6.226c0,2.581-0.509,4.678-1.527,6.293
		c-1.019,1.615-2.339,2.422-3.962,2.422c-1.647,0-2.971-0.791-3.969-2.374s-1.497-3.68-1.497-6.293c0-2.581,0.516-4.68,1.546-6.299
		C103.816,4.55,105.155,3.741,106.803,3.741z M106.827,6.054h-0.121c-0.934,0-1.674,0.574-2.222,1.722
		c-0.548,1.148-0.821,2.704-0.821,4.668c0,2.013,0.268,3.591,0.803,4.735c0.536,1.145,1.274,1.716,2.216,1.716
		s1.684-0.572,2.228-1.716c0.543-1.144,0.815-2.698,0.815-4.662c0-1.972-0.262-3.542-0.785-4.711S107.712,6.054,106.827,6.054z"/>
	<path d="M114.483,6.188c0-0.925,0.333-1.718,0.998-2.38c0.665-0.661,1.465-0.992,2.397-0.992c0.926,0,1.717,0.331,2.374,0.992
		c0.657,0.662,0.986,1.455,0.986,2.38c0,0.933-0.329,1.73-0.986,2.392c-0.657,0.662-1.448,0.992-2.374,0.992
		c-0.933,0-1.732-0.331-2.397-0.992C114.816,7.918,114.483,7.121,114.483,6.188z M115.811,6.188c0,0.568,0.202,1.055,0.608,1.46
		c0.405,0.406,0.893,0.609,1.46,0.609c0.561,0,1.039-0.203,1.437-0.609s0.597-0.893,0.597-1.46s-0.197-1.051-0.591-1.449
		c-0.394-0.397-0.874-0.596-1.442-0.596c-0.576,0-1.064,0.199-1.466,0.596C116.011,5.137,115.811,5.62,115.811,6.188z"/>
</g>
<rect id="_x3C_Slice_x3E__118_" y="0.748" fill="none" width="122.332" height="22.917"/>
</svg>
