<?xml version="1.0" encoding="utf-8"?>
<!-- Generator: Adobe Illustrator 15.1.0, SVG Export Plug-In  -->
<!DOCTYPE svg PUBLIC "-//W3C//DTD SVG 1.1//EN" "http://www.w3.org/Graphics/SVG/1.1/DTD/svg11.dtd" [
	<!ENTITY ns_flows "http://ns.adobe.com/Flows/1.0/">
]>
<svg version="1.1"
	 xmlns="http://www.w3.org/2000/svg" xmlns:xlink="http://www.w3.org/1999/xlink" xmlns:a="http://ns.adobe.com/AdobeSVGViewerExtensions/3.0/"
	 x="0px" y="0px" width="124px" height="24px" viewBox="0 -0.5 124 24" enable-background="new 0 -0.5 124 24" xml:space="preserve"
	>
<defs>
</defs>
<g>
	<g>
		<path d="M1.766,2.685C7.663,2.438,12.98,3.654,17.357,7.793c4.899,4.633,4.052,11.605-3.095,12.164
			c-1.851,0.145-3.694-0.317-5.321-1.171c-4.451-2.338-1.455-8.437,0.688-11.09c3.873-4.794,11.268-4.83,16.842-4.894
			c1.449-0.017,1.451-2.267,0-2.25c-7.752,0.09-17.639,1.067-20.943,9.456c-2.68,6.804,0.789,11.711,7.82,12.203
			c6.064,0.424,10.157-3.714,9.299-9.625C21.305,3.331,9.404,0.115,1.766,0.435C0.32,0.496,0.314,2.746,1.766,2.685L1.766,2.685z"/>
	</g>
</g>
<g>
	<g>
		<path d="M22.666,2.876c5.898-0.248,11.214,0.969,15.591,5.108c4.899,4.634,4.052,11.605-3.095,12.164
			c-1.852,0.145-3.693-0.317-5.32-1.172c-4.451-2.34-1.457-8.437,0.687-11.09c3.873-4.794,11.268-4.829,16.842-4.893
			c1.45-0.017,1.452-2.267,0-2.25c-7.752,0.09-17.639,1.065-20.943,9.455C23.748,17,27.219,21.91,34.246,22.401
			c6.064,0.425,10.159-3.714,9.301-9.625C42.205,3.522,30.306,0.305,22.666,0.626C21.221,0.687,21.215,2.937,22.666,2.876
			L22.666,2.876z"/>
	</g>
</g>
<g>
	<g>
		<path d="M43.62,3.083c5.897-0.247,11.214,0.968,15.592,5.107c4.899,4.634,4.052,11.605-3.095,12.165
			c-1.852,0.145-3.694-0.317-5.32-1.171c-4.453-2.338-1.455-8.438,0.688-11.091C55.355,3.299,62.752,3.264,68.325,3.2
			c1.45-0.017,1.452-2.267,0-2.25c-7.753,0.089-17.638,1.066-20.942,9.456c-2.68,6.804,0.788,11.711,7.818,12.203
			c6.066,0.424,10.157-3.715,9.301-9.626C63.16,3.728,51.259,0.513,43.62,0.833C42.175,0.894,42.169,3.145,43.62,3.083L43.62,3.083z
			"/>
	</g>
</g>
<g>
	<path d="M80.233,4.088h7.547v2.167h-5.331v4.297c0.17-0.016,0.345-0.024,0.523-0.024c1.646,0,3.002,0.501,4.065,1.503
		c1.063,1.002,1.594,2.278,1.594,3.828c0,1.599-0.525,2.899-1.576,3.901c-1.051,1.002-2.412,1.503-4.083,1.503
		c-1.38,0-2.719-0.333-4.018-0.998v-2.507c1.226,0.795,2.423,1.193,3.591,1.193c1.022,0,1.881-0.298,2.574-0.895
		c0.694-0.596,1.041-1.329,1.041-2.197c0-0.901-0.377-1.653-1.132-2.258s-1.696-0.907-2.824-0.907c-0.966,0-1.623,0.082-1.972,0.244
		V4.088z"/>
	<path d="M99.026,3.869h0.999v9.543h1.898v2.069h-1.898v5.611h-2.374v-5.611h-7.193v-1.047L99.026,3.869z M97.651,13.412V8.483
		l-3.935,4.929H97.651z"/>
	<path d="M108.972,3.869c1.559,0,2.847,0.818,3.865,2.453c1.019,1.635,1.527,3.711,1.527,6.226c0,2.581-0.509,4.678-1.527,6.293
		c-1.019,1.615-2.339,2.422-3.962,2.422c-1.647,0-2.971-0.791-3.969-2.374s-1.497-3.68-1.497-6.293c0-2.581,0.516-4.68,1.546-6.299
		C105.985,4.679,107.324,3.869,108.972,3.869z M108.996,6.182h-0.121c-0.934,0-1.674,0.574-2.222,1.722
		c-0.548,1.148-0.821,2.704-0.821,4.668c0,2.013,0.268,3.591,0.803,4.735c0.536,1.145,1.274,1.716,2.216,1.716
		s1.684-0.572,2.228-1.716c0.543-1.144,0.815-2.698,0.815-4.662c0-1.972-0.262-3.542-0.785-4.711S109.881,6.182,108.996,6.182z"/>
	<path d="M116.652,6.316c0-0.925,0.333-1.718,0.998-2.38c0.665-0.661,1.465-0.992,2.397-0.992c0.926,0,1.717,0.331,2.374,0.992
		c0.657,0.662,0.986,1.455,0.986,2.38c0,0.933-0.329,1.73-0.986,2.392c-0.657,0.662-1.448,0.992-2.374,0.992
		c-0.933,0-1.732-0.331-2.397-0.992C116.985,8.046,116.652,7.249,116.652,6.316z M117.979,6.316c0,0.568,0.202,1.055,0.608,1.46
		c0.405,0.406,0.893,0.609,1.46,0.609c0.561,0,1.039-0.203,1.437-0.609s0.597-0.893,0.597-1.46s-0.197-1.051-0.591-1.449
		c-0.394-0.397-0.874-0.596-1.442-0.596c-0.576,0-1.064,0.199-1.466,0.596C118.18,5.265,117.979,5.748,117.979,6.316z"/>
</g>
<rect id="_x3C_Slice_x3E__118_" fill="none" width="123.833" height="23.167"/>
</svg>
