<?xml version="1.0" encoding="utf-8"?>
<!-- Generator: Adobe Illustrator 15.1.0, SVG Export Plug-In  -->
<!DOCTYPE svg PUBLIC "-//W3C//DTD SVG 1.1//EN" "http://www.w3.org/Graphics/SVG/1.1/DTD/svg11.dtd" [
	<!ENTITY ns_flows "http://ns.adobe.com/Flows/1.0/">
]>
<svg version="1.1"
	 xmlns="http://www.w3.org/2000/svg" xmlns:xlink="http://www.w3.org/1999/xlink" xmlns:a="http://ns.adobe.com/AdobeSVGViewerExtensions/3.0/"
	 x="0px" y="0px" width="112px" height="20px" viewBox="-0.25 23.816 112 20" enable-background="new -0.25 23.816 112 20"
	 xml:space="preserve">
<defs>
</defs>
<g>
	<path d="M1.139,3.936h14.205v2.167H9.416v14.862H6.97V6.102H1.139V3.936z"/>
	<path d="M21.855,13.84l-1.85-1.124c-1.161-0.709-1.986-1.406-2.478-2.092c-0.491-0.686-0.736-1.475-0.736-2.367
		c0-1.339,0.465-2.426,1.394-3.262c0.93-0.836,2.137-1.254,3.621-1.254c1.42,0,2.723,0.399,3.907,1.196V7.7
		c-1.226-1.179-2.544-1.768-3.956-1.768c-0.795,0-1.448,0.184-1.959,0.552c-0.512,0.368-0.768,0.839-0.768,1.413
		c0,0.509,0.188,0.986,0.565,1.431c0.376,0.445,0.982,0.912,1.816,1.4l1.859,1.1c2.074,1.239,3.111,2.816,3.111,4.731
		c0,1.363-0.457,2.471-1.369,3.323c-0.913,0.852-2.1,1.278-3.561,1.278c-1.68,0-3.21-0.516-4.589-1.549v-3.092
		c1.314,1.666,2.836,2.498,4.564,2.498c0.763,0,1.397-0.212,1.905-0.637c0.507-0.424,0.761-0.956,0.761-1.595
		C24.096,15.75,23.349,14.769,21.855,13.84z"/>
	<path d="M40.894,3.96h2.446v9.652c0,1.307-0.096,2.292-0.286,2.958s-0.426,1.219-0.706,1.662c-0.279,0.442-0.623,0.838-1.028,1.187
		c-1.347,1.161-3.108,1.741-5.283,1.741c-2.215,0-3.992-0.576-5.331-1.729c-0.405-0.357-0.748-0.756-1.028-1.199
		s-0.512-0.984-0.694-1.625c-0.182-0.641-0.273-1.647-0.273-3.019V3.96h2.446v9.652c0,1.599,0.183,2.71,0.548,3.335
		s0.921,1.125,1.668,1.503c0.746,0.377,1.627,0.566,2.642,0.566c1.444,0,2.62-0.377,3.529-1.132
		c0.479-0.406,0.823-0.884,1.035-1.436c0.211-0.552,0.316-1.498,0.316-2.836V3.96z"/>
	<path d="M51.82,21.184l4.896-17.467h1.757L53.59,21.184H51.82z"/>
</g>
<g>
	<path d="M1.139,25.686h14.205v2.167H9.416v14.862H6.97V27.852H1.139V25.686z"/>
	<path d="M21.855,35.59l-1.85-1.124c-1.161-0.709-1.986-1.406-2.478-2.092c-0.491-0.686-0.736-1.475-0.736-2.367
		c0-1.339,0.465-2.426,1.394-3.262c0.93-0.836,2.137-1.254,3.621-1.254c1.42,0,2.723,0.399,3.907,1.196v2.763
		c-1.226-1.179-2.544-1.768-3.956-1.768c-0.795,0-1.448,0.184-1.959,0.552c-0.512,0.368-0.768,0.839-0.768,1.413
		c0,0.509,0.188,0.986,0.565,1.431c0.376,0.445,0.982,0.912,1.816,1.4l1.859,1.1c2.074,1.239,3.111,2.816,3.111,4.731
		c0,1.363-0.457,2.471-1.369,3.323c-0.913,0.852-2.1,1.278-3.561,1.278c-1.68,0-3.21-0.516-4.589-1.549v-3.092
		c1.314,1.666,2.836,2.498,4.564,2.498c0.763,0,1.397-0.212,1.905-0.637c0.507-0.424,0.761-0.956,0.761-1.595
		C24.096,37.5,23.349,36.519,21.855,35.59z"/>
	<path d="M40.894,25.71h2.446v9.652c0,1.307-0.096,2.292-0.286,2.958s-0.426,1.219-0.706,1.662
		c-0.279,0.442-0.623,0.838-1.028,1.187c-1.347,1.161-3.108,1.741-5.283,1.741c-2.215,0-3.992-0.576-5.331-1.729
		c-0.405-0.357-0.748-0.756-1.028-1.199s-0.512-0.984-0.694-1.625c-0.182-0.641-0.273-1.647-0.273-3.019V25.71h2.446v9.652
		c0,1.599,0.183,2.71,0.548,3.335s0.921,1.125,1.668,1.503c0.746,0.377,1.627,0.566,2.642,0.566c1.444,0,2.62-0.377,3.529-1.132
		c0.479-0.406,0.823-0.884,1.035-1.436c0.211-0.552,0.316-1.498,0.316-2.836V25.71z"/>
	<path d="M51.82,42.934l4.896-17.467h1.757L53.59,42.934H51.82z"/>
	<path d="M70.179,32.818h0.146c1.063,0,1.872-0.219,2.428-0.657c0.557-0.438,0.834-1.075,0.834-1.911c0-0.754-0.27-1.367-0.81-1.838
		c-0.539-0.471-1.247-0.706-2.124-0.706c-0.884,0-1.866,0.276-2.945,0.828v-2.325c0.99-0.495,2.069-0.743,3.238-0.743
		c1.565,0,2.801,0.41,3.706,1.229c0.904,0.819,1.357,1.938,1.357,3.357c0,0.86-0.175,1.583-0.523,2.171
		c-0.35,0.588-0.905,1.093-1.668,1.514c0.665,0.26,1.152,0.579,1.461,0.956c0.309,0.378,0.548,0.834,0.718,1.371
		c0.171,0.536,0.256,1.104,0.256,1.705c0,1.486-0.495,2.714-1.485,3.685s-2.239,1.456-3.749,1.456c-1.29,0-2.536-0.313-3.736-0.938
		v-2.653c1.282,0.803,2.527,1.205,3.736,1.205c0.82,0,1.479-0.244,1.979-0.73s0.748-1.132,0.748-1.935
		c0-0.674-0.207-1.262-0.62-1.765c-0.244-0.284-0.514-0.493-0.81-0.627c-0.297-0.134-0.936-0.262-1.917-0.383l-0.22-0.024V32.818z"
		/>
	<path d="M85.808,25.661l0.243-0.17l1.473,1.85c-1.298,0.838-2.375,1.752-3.231,2.744c-0.856,0.992-1.516,2.159-1.978,3.5
		c0.9-0.463,1.797-0.694,2.689-0.694c1.339,0,2.467,0.475,3.384,1.424c0.917,0.95,1.376,2.114,1.376,3.494
		c0,1.42-0.499,2.625-1.497,3.615c-0.998,0.99-2.212,1.485-3.64,1.485c-1.599,0-2.891-0.562-3.877-1.686
		c-0.985-1.124-1.479-2.594-1.479-4.412c0-1.363,0.253-2.721,0.761-4.072c0.507-1.351,1.237-2.617,2.19-3.798
		C83.177,27.761,84.371,26.667,85.808,25.661z M81.791,36.105c-0.065,0.381-0.098,0.808-0.098,1.278
		c0,0.958,0.278,1.745,0.834,2.361c0.556,0.617,1.268,0.925,2.136,0.925c0.779,0,1.423-0.264,1.93-0.791s0.761-1.193,0.761-1.997
		c0-0.819-0.27-1.483-0.81-1.99c-0.54-0.507-1.252-0.761-2.136-0.761c-0.455,0-0.866,0.069-1.236,0.207
		C82.803,35.476,82.343,35.732,81.791,36.105z"/>
	<path d="M96.945,25.491c1.559,0,2.847,0.818,3.865,2.453c1.019,1.635,1.527,3.711,1.527,6.226c0,2.581-0.509,4.678-1.527,6.293
		c-1.019,1.615-2.339,2.422-3.962,2.422c-1.647,0-2.971-0.791-3.969-2.374s-1.497-3.68-1.497-6.293c0-2.581,0.516-4.68,1.546-6.299
		C93.959,26.3,95.298,25.491,96.945,25.491z M96.97,27.804h-0.121c-0.934,0-1.674,0.574-2.222,1.722
		c-0.548,1.148-0.821,2.704-0.821,4.668c0,2.013,0.268,3.591,0.803,4.735c0.536,1.145,1.274,1.716,2.216,1.716
		s1.684-0.572,2.228-1.716c0.543-1.144,0.815-2.698,0.815-4.662c0-1.972-0.262-3.542-0.785-4.711S97.854,27.804,96.97,27.804z"/>
	<path d="M104.626,27.938c0-0.925,0.333-1.718,0.998-2.38c0.665-0.661,1.465-0.992,2.397-0.992c0.926,0,1.717,0.331,2.374,0.992
		c0.657,0.662,0.986,1.455,0.986,2.38c0,0.933-0.329,1.73-0.986,2.392c-0.657,0.662-1.448,0.992-2.374,0.992
		c-0.933,0-1.732-0.331-2.397-0.992C104.959,29.668,104.626,28.871,104.626,27.938z M105.953,27.938c0,0.568,0.202,1.055,0.608,1.46
		c0.405,0.406,0.893,0.609,1.46,0.609c0.561,0,1.039-0.203,1.437-0.609s0.597-0.893,0.597-1.46s-0.197-1.051-0.591-1.449
		c-0.394-0.397-0.874-0.596-1.442-0.596c-0.576,0-1.064,0.199-1.466,0.596C106.153,26.887,105.953,27.37,105.953,27.938z"/>
</g>
<g>
	<path d="M1.139,47.686h14.205v2.167H9.416v14.862H6.97V49.852H1.139V47.686z"/>
	<path d="M21.855,57.59l-1.85-1.124c-1.161-0.709-1.986-1.406-2.478-2.092c-0.491-0.686-0.736-1.475-0.736-2.367
		c0-1.339,0.465-2.426,1.394-3.262c0.93-0.836,2.137-1.254,3.621-1.254c1.42,0,2.723,0.399,3.907,1.196v2.763
		c-1.226-1.179-2.544-1.768-3.956-1.768c-0.795,0-1.448,0.184-1.959,0.552c-0.512,0.368-0.768,0.839-0.768,1.413
		c0,0.509,0.188,0.986,0.565,1.431c0.376,0.445,0.982,0.912,1.816,1.4l1.859,1.1c2.074,1.239,3.111,2.816,3.111,4.731
		c0,1.363-0.457,2.471-1.369,3.323c-0.913,0.852-2.1,1.278-3.561,1.278c-1.68,0-3.21-0.516-4.589-1.549v-3.092
		c1.314,1.666,2.836,2.498,4.564,2.498c0.763,0,1.397-0.212,1.905-0.637c0.507-0.424,0.761-0.956,0.761-1.595
		C24.096,59.5,23.349,58.519,21.855,57.59z"/>
	<path d="M40.894,47.71h2.446v9.652c0,1.307-0.096,2.292-0.286,2.958s-0.426,1.219-0.706,1.662
		c-0.279,0.442-0.623,0.838-1.028,1.187c-1.347,1.161-3.108,1.741-5.283,1.741c-2.215,0-3.992-0.576-5.331-1.729
		c-0.405-0.357-0.748-0.756-1.028-1.199s-0.512-0.984-0.694-1.625c-0.182-0.641-0.273-1.647-0.273-3.019V47.71h2.446v9.652
		c0,1.599,0.183,2.71,0.548,3.335s0.921,1.125,1.668,1.503c0.746,0.377,1.627,0.566,2.642,0.566c1.444,0,2.62-0.377,3.529-1.132
		c0.479-0.406,0.823-0.884,1.035-1.436c0.211-0.552,0.316-1.498,0.316-2.836V47.71z"/>
	<path d="M51.82,64.934l4.896-17.467h1.757L53.59,64.934H51.82z"/>
	<path d="M66.904,47.71h11.004l-7.695,17.204l-2.176-0.917l6.218-13.961h-7.351V47.71z"/>
	<path d="M83.29,62.365h6.474v2.349H79.003v-0.17l1.022-1.205c1.599-1.98,2.871-3.66,3.816-5.039s1.563-2.422,1.851-3.128
		c0.287-0.706,0.432-1.404,0.432-2.094c0-0.957-0.271-1.726-0.815-2.307c-0.544-0.58-1.266-0.87-2.167-0.87
		c-0.682,0-1.353,0.201-2.014,0.603c-0.662,0.402-1.256,0.968-1.784,1.698V49.11c1.323-1.079,2.687-1.619,4.09-1.619
		c1.485,0,2.709,0.495,3.67,1.485c0.962,0.99,1.442,2.248,1.442,3.773c0,0.682-0.119,1.411-0.358,2.186s-0.663,1.668-1.271,2.678
		s-1.643,2.388-3.103,4.133L83.29,62.365z"/>
	<path d="M96.945,47.491c1.559,0,2.847,0.818,3.865,2.453c1.019,1.635,1.527,3.711,1.527,6.226c0,2.581-0.509,4.678-1.527,6.293
		c-1.019,1.615-2.339,2.422-3.962,2.422c-1.647,0-2.971-0.791-3.969-2.374s-1.497-3.68-1.497-6.293c0-2.581,0.516-4.68,1.546-6.299
		C93.959,48.3,95.298,47.491,96.945,47.491z M96.97,49.804h-0.121c-0.934,0-1.674,0.574-2.222,1.722
		c-0.548,1.148-0.821,2.704-0.821,4.668c0,2.013,0.268,3.591,0.803,4.735c0.536,1.145,1.274,1.716,2.216,1.716
		s1.684-0.572,2.228-1.716c0.543-1.144,0.815-2.698,0.815-4.662c0-1.972-0.262-3.542-0.785-4.711S97.854,49.804,96.97,49.804z"/>
	<path d="M104.626,49.938c0-0.925,0.333-1.718,0.998-2.38c0.665-0.661,1.465-0.992,2.397-0.992c0.926,0,1.717,0.331,2.374,0.992
		c0.657,0.662,0.986,1.455,0.986,2.38c0,0.933-0.329,1.73-0.986,2.392c-0.657,0.662-1.448,0.992-2.374,0.992
		c-0.933,0-1.732-0.331-2.397-0.992C104.959,51.668,104.626,50.871,104.626,49.938z M105.953,49.938c0,0.568,0.202,1.055,0.608,1.46
		c0.405,0.406,0.893,0.609,1.46,0.609c0.561,0,1.039-0.203,1.437-0.609s0.597-0.893,0.597-1.46s-0.197-1.051-0.591-1.449
		c-0.394-0.397-0.874-0.596-1.442-0.596c-0.576,0-1.064,0.199-1.466,0.596C106.153,48.887,105.953,49.37,105.953,49.938z"/>
</g>
<rect id="_x3C_Slice_x3E__118_" y="24.066" fill="none" width="111.625" height="19.75"/>
</svg>
