<?xml version="1.0" encoding="utf-8"?>
<!-- Generator: Adobe Illustrator 15.1.0, SVG Export Plug-In  -->
<!DOCTYPE svg PUBLIC "-//W3C//DTD SVG 1.1//EN" "http://www.w3.org/Graphics/SVG/1.1/DTD/svg11.dtd" [
	<!ENTITY ns_flows "http://ns.adobe.com/Flows/1.0/">
]>
<svg version="1.1"
	 xmlns="http://www.w3.org/2000/svg" xmlns:xlink="http://www.w3.org/1999/xlink" xmlns:a="http://ns.adobe.com/AdobeSVGViewerExtensions/3.0/"
	 x="0px" y="0px" width="106px" height="26px" viewBox="0 2 106 26" enable-background="new 0 2 106 26" xml:space="preserve">
<defs>
</defs>
<g>
	<path d="M12.097,12.626h5.725v7.227c-2.1,0.912-4.183,1.367-6.25,1.367c-2.824,0-5.08-0.824-6.769-2.472
		c-1.689-1.647-2.533-3.68-2.533-6.097c0-2.547,0.875-4.667,2.624-6.36c1.75-1.692,3.943-2.539,6.58-2.539
		c0.96,0,1.872,0.104,2.734,0.312c0.862,0.207,1.953,0.588,3.271,1.141v2.49c-2.034-1.18-4.053-1.77-6.055-1.77
		c-1.863,0-3.435,0.635-4.712,1.904s-1.917,2.828-1.917,4.675c0,1.937,0.64,3.52,1.917,4.749c1.277,1.229,2.922,1.843,4.932,1.843
		c0.977,0,2.145-0.224,3.503-0.671l0.232-0.073v-3.552h-3.283V12.626z"/>
	<path d="M23.461,9.794v2.576l0.122-0.195c1.074-1.733,2.148-2.6,3.223-2.6c0.838,0,1.713,0.423,2.625,1.27l-1.172,1.953
		c-0.773-0.732-1.49-1.099-2.148-1.099c-0.717,0-1.337,0.342-1.862,1.025c-0.524,0.684-0.787,1.494-0.787,2.429v5.872h-2.233V9.794
		H23.461z"/>
	<path d="M40.05,15.605h-7.897c0.057,1.074,0.417,1.929,1.08,2.563s1.521,0.952,2.569,0.952c1.465,0,2.816-0.456,4.053-1.367v2.173
		c-0.684,0.456-1.36,0.781-2.032,0.977c-0.671,0.195-1.458,0.293-2.362,0.293c-1.236,0-2.237-0.256-3.002-0.769
		c-0.766-0.513-1.378-1.202-1.838-2.069c-0.46-0.866-0.689-1.869-0.689-3.009c0-1.709,0.484-3.099,1.453-4.169
		c0.968-1.07,2.226-1.605,3.771-1.605c1.489,0,2.678,0.521,3.564,1.563c0.887,1.042,1.33,2.438,1.33,4.187V15.605z M32.201,14.274
		h5.651c-0.057-0.887-0.321-1.57-0.793-2.051c-0.472-0.48-1.106-0.72-1.904-0.72s-1.451,0.24-1.959,0.72
		C32.688,12.704,32.355,13.388,32.201,14.274z"/>
	<path d="M44.677,9.794v1.428c0.992-1.099,2.119-1.648,3.381-1.648c0.7,0,1.351,0.181,1.953,0.543
		c0.603,0.362,1.06,0.858,1.373,1.489c0.313,0.63,0.471,1.629,0.471,2.997v6.421h-2.223v-6.396c0-1.147-0.175-1.967-0.524-2.459
		c-0.35-0.493-0.936-0.739-1.758-0.739c-1.05,0-1.94,0.525-2.673,1.575v8.02h-2.271V9.794H44.677z"/>
	<path d="M54.905,3.972h2.223v7.3c0.928-1.131,2.079-1.697,3.454-1.697c0.749,0,1.42,0.188,2.015,0.562
		c0.594,0.375,1.035,0.891,1.324,1.55c0.288,0.659,0.434,1.64,0.434,2.942v6.396h-2.223v-6.946c0-0.822-0.201-1.483-0.604-1.983
		c-0.403-0.501-0.934-0.751-1.594-0.751c-0.488,0-0.947,0.126-1.379,0.378c-0.432,0.252-0.907,0.671-1.428,1.257v8.044h-2.223V3.972
		z"/>
	<path d="M72.825,9.77c1.709,0,3.13,0.551,4.261,1.654c1.131,1.103,1.696,2.489,1.696,4.157c0,1.62-0.573,2.964-1.721,4.035
		c-1.147,1.07-2.592,1.605-4.334,1.605c-1.684,0-3.092-0.543-4.223-1.629c-1.132-1.087-1.697-2.443-1.697-4.071
		c0-1.644,0.571-3.013,1.715-4.107C69.666,10.317,71.101,9.77,72.825,9.77z M72.704,11.772c-1.066,0-1.941,0.35-2.625,1.05
		c-0.684,0.7-1.025,1.591-1.025,2.673c0,1.074,0.35,1.951,1.05,2.631c0.7,0.679,1.599,1.019,2.698,1.019
		c1.09,0,1.983-0.344,2.679-1.032c0.696-0.688,1.044-1.568,1.044-2.643c0-1.066-0.362-1.949-1.086-2.649
		C74.714,12.122,73.802,11.772,72.704,11.772z"/>
	<path d="M81.103,26.75V9.794h3.89c1.991,0,3.542,0.497,4.651,1.489c1.109,0.993,1.664,2.38,1.664,4.163
		c0,1.685-0.521,3.068-1.565,4.15c-1.045,1.083-2.375,1.624-3.992,1.624c-0.715,0-1.507-0.159-2.376-0.476v6.006H81.103z
		 M84.944,11.87h-1.57v6.909c0.682,0.35,1.396,0.525,2.144,0.525c1.039,0,1.89-0.362,2.552-1.086
		c0.662-0.724,0.992-1.656,0.992-2.795c0-0.732-0.156-1.379-0.469-1.941s-0.738-0.97-1.278-1.227
		C86.774,11.998,85.984,11.87,84.944,11.87z"/>
	<path d="M93.603,26.75V9.794h3.89c1.991,0,3.542,0.497,4.651,1.489c1.109,0.993,1.664,2.38,1.664,4.163
		c0,1.685-0.521,3.068-1.565,4.15c-1.045,1.083-2.375,1.624-3.992,1.624c-0.715,0-1.507-0.159-2.376-0.476v6.006H93.603z
		 M97.444,11.87h-1.57v6.909c0.682,0.35,1.396,0.525,2.144,0.525c1.039,0,1.89-0.362,2.552-1.086
		c0.662-0.724,0.992-1.656,0.992-2.795c0-0.732-0.156-1.379-0.469-1.941s-0.738-0.97-1.278-1.227
		C99.274,11.998,98.484,11.87,97.444,11.87z"/>
</g>
<rect id="_x3C_Slice_x3E__135_" y="2.92" fill="none" width="106" height="25"/>
</svg>
