<?xml version="1.0" encoding="utf-8"?>
<!-- Generator: Adobe Illustrator 15.1.0, SVG Export Plug-In  -->
<!DOCTYPE svg PUBLIC "-//W3C//DTD SVG 1.1//EN" "http://www.w3.org/Graphics/SVG/1.1/DTD/svg11.dtd" [
	<!ENTITY ns_flows "http://ns.adobe.com/Flows/1.0/">
]>
<svg version="1.1"
	 xmlns="http://www.w3.org/2000/svg" xmlns:xlink="http://www.w3.org/1999/xlink" xmlns:a="http://ns.adobe.com/AdobeSVGViewerExtensions/3.0/"
	 x="0px" y="0px" width="123px" height="24px" viewBox="0 28 123 24" enable-background="new 0 28 123 24" xml:space="preserve">
<defs>
</defs>
<g>
	<path d="M2.745,21.025V3.947h5.408c1.628,0,2.926,0.439,3.895,1.318c0.968,0.879,1.452,2.059,1.452,3.54
		c0,0.993-0.248,1.872-0.745,2.637c-0.496,0.765-1.176,1.32-2.038,1.666c-0.862,0.346-2.1,0.519-3.711,0.519H5.199v7.397H2.745z
		 M7.726,6.12H5.199v5.334h2.673c0.993,0,1.758-0.234,2.295-0.702c0.537-0.468,0.807-1.137,0.807-2.008
		C10.974,6.995,9.891,6.12,7.726,6.12z"/>
	<path d="M16.466,5.07c0.367,0,0.68,0.126,0.94,0.378c0.261,0.252,0.391,0.562,0.391,0.928c0,0.358-0.13,0.667-0.391,0.928
		c-0.261,0.261-0.573,0.391-0.94,0.391c-0.342,0-0.643-0.132-0.902-0.397c-0.261-0.264-0.391-0.571-0.391-0.921
		c0-0.342,0.13-0.645,0.391-0.91C15.823,5.203,16.124,5.07,16.466,5.07z M15.368,9.794h2.221v11.23h-2.221V9.794z"/>
	<path d="M20.8,3.972h2.223v17.053H20.8V3.972z M28.111,9.794h2.638l-4.792,5.493l5.769,5.737h-2.98l-5.625-5.731L28.111,9.794z"/>
	<path d="M41.601,15.605h-7.897c0.057,1.074,0.417,1.929,1.08,2.563s1.521,0.952,2.569,0.952c1.465,0,2.816-0.456,4.053-1.367v2.173
		c-0.684,0.456-1.36,0.781-2.032,0.977c-0.671,0.195-1.458,0.293-2.362,0.293c-1.236,0-2.237-0.256-3.002-0.769
		c-0.766-0.513-1.378-1.202-1.838-2.069c-0.46-0.866-0.689-1.869-0.689-3.009c0-1.709,0.484-3.099,1.453-4.169
		c0.968-1.07,2.226-1.605,3.771-1.605c1.489,0,2.678,0.521,3.564,1.563c0.887,1.042,1.33,2.438,1.33,4.187V15.605z M33.752,14.274
		h5.651c-0.057-0.887-0.321-1.57-0.793-2.051c-0.472-0.48-1.106-0.72-1.904-0.72s-1.451,0.24-1.959,0.72
		C34.238,12.704,33.906,13.388,33.752,14.274z"/>
	<path d="M46.386,9.794v2.576l0.122-0.195c1.074-1.733,2.148-2.6,3.223-2.6c0.838,0,1.713,0.423,2.624,1.27l-1.172,1.953
		c-0.772-0.732-1.488-1.099-2.148-1.099c-0.716,0-1.336,0.342-1.861,1.025c-0.524,0.684-0.787,1.494-0.787,2.429v5.872h-2.234V9.794
		H46.386z"/>
	<path d="M60.962,14.274v4.773c0,0.383,0.13,0.574,0.391,0.574c0.268,0,0.688-0.199,1.257-0.598v1.355
		c-0.505,0.326-0.909,0.547-1.215,0.665c-0.305,0.118-0.624,0.177-0.958,0.177c-0.952,0-1.514-0.374-1.685-1.123
		c-0.944,0.732-1.949,1.099-3.015,1.099c-0.781,0-1.433-0.258-1.953-0.775c-0.521-0.517-0.781-1.166-0.781-1.947
		c0-0.708,0.254-1.341,0.763-1.898c0.508-0.557,1.23-0.999,2.167-1.324l2.844-0.977v-0.598c0-1.351-0.676-2.026-2.026-2.026
		c-1.213,0-2.393,0.627-3.54,1.88v-2.429c0.862-1.017,2.104-1.526,3.723-1.526c1.213,0,2.186,0.317,2.918,0.952
		c0.244,0.204,0.464,0.474,0.659,0.812c0.195,0.337,0.319,0.675,0.372,1.013C60.935,12.689,60.962,13.331,60.962,14.274z
		 M58.776,18.803v-3.333l-1.489,0.574c-0.757,0.301-1.292,0.604-1.605,0.91c-0.313,0.305-0.47,0.686-0.47,1.141
		c0,0.464,0.148,0.842,0.445,1.135s0.682,0.439,1.154,0.439C57.519,19.67,58.174,19.381,58.776,18.803z"/>
	<path d="M62.999,11.577l4.175-4.102v2.319h3.552v2.002h-3.552v5.497c0,1.284,0.533,1.925,1.599,1.925
		c0.798,0,1.641-0.264,2.527-0.793V20.5c-0.854,0.48-1.786,0.72-2.795,0.72c-1.018,0-1.864-0.297-2.539-0.891
		c-0.212-0.179-0.387-0.38-0.525-0.604c-0.139-0.224-0.255-0.517-0.348-0.879c-0.094-0.362-0.141-1.051-0.141-2.069v-4.98h-1.953
		V11.577z"/>
	<path d="M79.894,3.972h2.223v17.053h-2.223V3.972z"/>
	<path d="M85.302,9.794h2.221v12.83c0,1.945-0.746,3.32-2.239,4.126l-1.654-1.624c0.513-0.179,0.92-0.493,1.221-0.94
		c0.301-0.448,0.452-0.969,0.452-1.563V9.794z M86.351,5.07c0.367,0,0.68,0.128,0.94,0.385c0.261,0.256,0.391,0.563,0.391,0.921
		c0,0.375-0.124,0.688-0.372,0.94c-0.249,0.252-0.56,0.378-0.934,0.378c-0.351,0-0.66-0.13-0.928-0.391
		c-0.27-0.26-0.403-0.569-0.403-0.928c0-0.342,0.132-0.645,0.396-0.91C85.706,5.203,86.009,5.07,86.351,5.07z"/>
	<path d="M97.96,21.025v-1.44c-0.472,0.517-1.011,0.918-1.617,1.205c-0.606,0.287-1.21,0.431-1.813,0.431
		c-0.708,0-1.361-0.177-1.959-0.531c-0.599-0.354-1.05-0.834-1.355-1.44c-0.305-0.606-0.457-1.613-0.457-3.021V9.794h2.221v6.4
		c0,1.179,0.169,2.001,0.507,2.469s0.93,0.701,1.776,0.701c1.058,0,1.957-0.517,2.697-1.55v-8.02h2.223v11.23H97.96z"/>
	<path d="M102.758,20.219v-2.393c0.627,0.439,1.268,0.795,1.923,1.068c0.654,0.273,1.206,0.409,1.654,0.409
		c0.463,0,0.862-0.114,1.195-0.342c0.334-0.228,0.501-0.5,0.501-0.818c0-0.325-0.108-0.596-0.323-0.812
		c-0.216-0.215-0.682-0.526-1.398-0.934c-1.432-0.797-2.37-1.479-2.813-2.045c-0.443-0.565-0.665-1.182-0.665-1.849
		c0-0.862,0.336-1.566,1.007-2.112c0.672-0.545,1.536-0.818,2.595-0.818c1.098,0,2.226,0.31,3.381,0.928V12.7
		c-1.318-0.797-2.396-1.196-3.234-1.196c-0.432,0-0.78,0.092-1.044,0.275c-0.265,0.184-0.397,0.426-0.397,0.727
		c0,0.261,0.12,0.51,0.359,0.746c0.24,0.236,0.661,0.521,1.264,0.854l0.794,0.452c1.872,1.058,2.808,2.229,2.808,3.515
		c0,0.919-0.359,1.674-1.08,2.264c-0.72,0.59-1.646,0.885-2.777,0.885c-0.667,0-1.261-0.071-1.781-0.213
		C104.202,20.864,103.547,20.602,102.758,20.219z"/>
	<path d="M112.878,3.972h2.221v7.3c0.928-1.131,2.08-1.697,3.455-1.697c0.749,0,1.42,0.188,2.014,0.562
		c0.595,0.375,1.036,0.891,1.325,1.55c0.288,0.659,0.433,1.64,0.433,2.942v6.396h-2.221v-6.946c0-0.822-0.202-1.483-0.604-1.983
		c-0.403-0.501-0.935-0.751-1.593-0.751c-0.488,0-0.948,0.126-1.38,0.378c-0.432,0.252-0.907,0.671-1.429,1.257v8.044h-2.221V3.972z
		"/>
	<path d="M130.798,9.77c1.709,0,3.129,0.551,4.26,1.654c1.131,1.103,1.697,2.489,1.697,4.157c0,1.62-0.574,2.964-1.722,4.035
		c-1.147,1.07-2.592,1.605-4.333,1.605c-1.686,0-3.093-0.543-4.225-1.629c-1.131-1.087-1.696-2.443-1.696-4.071
		c0-1.644,0.571-3.013,1.715-4.107C127.638,10.317,129.072,9.77,130.798,9.77z M130.675,11.772c-1.065,0-1.94,0.35-2.624,1.05
		c-0.684,0.7-1.025,1.591-1.025,2.673c0,1.074,0.35,1.951,1.05,2.631c0.7,0.679,1.6,1.019,2.697,1.019
		c1.091,0,1.984-0.344,2.68-1.032c0.696-0.688,1.044-1.568,1.044-2.643c0-1.066-0.362-1.949-1.087-2.649
		C132.686,12.122,131.774,11.772,130.675,11.772z"/>
	<path d="M139.073,26.75V9.794h3.89c1.991,0,3.542,0.497,4.651,1.489c1.109,0.993,1.664,2.38,1.664,4.163
		c0,1.685-0.521,3.068-1.565,4.15c-1.045,1.083-2.375,1.624-3.992,1.624c-0.715,0-1.507-0.159-2.376-0.476v6.006H139.073z
		 M142.915,11.87h-1.57v6.909c0.682,0.35,1.396,0.525,2.144,0.525c1.039,0,1.89-0.362,2.552-1.086
		c0.662-0.724,0.992-1.656,0.992-2.795c0-0.732-0.156-1.379-0.469-1.941s-0.738-0.97-1.278-1.227
		C144.745,11.998,143.955,11.87,142.915,11.87z"/>
	<path d="M151.573,26.75V9.794h3.89c1.991,0,3.542,0.497,4.651,1.489c1.109,0.993,1.664,2.38,1.664,4.163
		c0,1.685-0.521,3.068-1.565,4.15c-1.045,1.083-2.375,1.624-3.992,1.624c-0.715,0-1.507-0.159-2.376-0.476v6.006H151.573z
		 M155.415,11.87h-1.57v6.909c0.682,0.35,1.396,0.525,2.144,0.525c1.039,0,1.89-0.362,2.552-1.086
		c0.662-0.724,0.992-1.656,0.992-2.795c0-0.732-0.156-1.379-0.469-1.941s-0.738-0.97-1.278-1.227
		C157.245,11.998,156.455,11.87,155.415,11.87z"/>
</g>
<g>
	<path d="M2.904,28.972h9.095v2.173H5.346v4.761h6.653v2.173H5.346v7.947H2.904V28.972z"/>
	<path d="M14.354,28.972h2.223v17.053h-2.223V28.972z"/>
	<path d="M26.437,34.794h2.493L20.973,51.75h-2.479l3.812-8.137l-4.337-8.819h2.531l3.033,6.344L26.437,34.794z"/>
	<path d="M37.372,34.794h2.409l-4.96,11.426h-0.752L28.99,34.794h2.432l3.031,6.909L37.372,34.794z"/>
	<path d="M50.511,40.605h-7.897c0.057,1.074,0.417,1.929,1.08,2.563s1.521,0.952,2.569,0.952c1.465,0,2.816-0.456,4.053-1.367v2.173
		c-0.684,0.456-1.36,0.781-2.032,0.977c-0.671,0.195-1.458,0.293-2.362,0.293c-1.236,0-2.237-0.256-3.002-0.769
		c-0.766-0.513-1.378-1.202-1.838-2.069c-0.46-0.866-0.689-1.869-0.689-3.009c0-1.709,0.484-3.099,1.453-4.169
		c0.968-1.07,2.226-1.605,3.771-1.605c1.489,0,2.678,0.521,3.564,1.563c0.887,1.042,1.33,2.438,1.33,4.187V40.605z M42.662,39.274
		h5.651c-0.057-0.887-0.321-1.57-0.793-2.051c-0.472-0.48-1.106-0.72-1.904-0.72s-1.451,0.24-1.959,0.72
		C43.148,37.704,42.816,38.388,42.662,39.274z"/>
	<path d="M55.297,34.794v2.576l0.122-0.195c1.074-1.733,2.148-2.6,3.223-2.6c0.838,0,1.713,0.423,2.625,1.27l-1.172,1.953
		c-0.773-0.732-1.49-1.099-2.148-1.099c-0.717,0-1.337,0.342-1.862,1.025c-0.524,0.684-0.787,1.494-0.787,2.429v5.872h-2.233v-11.23
		H55.297z"/>
	<path d="M62.267,45.219v-2.393c0.627,0.439,1.268,0.795,1.923,1.068c0.654,0.273,1.206,0.409,1.653,0.409
		c0.465,0,0.863-0.114,1.197-0.342c0.333-0.228,0.5-0.5,0.5-0.818c0-0.325-0.108-0.596-0.323-0.812
		c-0.216-0.215-0.682-0.526-1.397-0.934c-1.433-0.797-2.371-1.479-2.814-2.045c-0.443-0.565-0.665-1.182-0.665-1.849
		c0-0.862,0.336-1.566,1.007-2.112c0.672-0.545,1.536-0.818,2.594-0.818c1.1,0,2.227,0.31,3.382,0.928V37.7
		c-1.318-0.797-2.396-1.196-3.235-1.196c-0.431,0-0.779,0.092-1.043,0.275c-0.265,0.184-0.396,0.426-0.396,0.727
		c0,0.261,0.119,0.51,0.358,0.746c0.24,0.236,0.661,0.521,1.264,0.854l0.794,0.452c1.872,1.058,2.809,2.229,2.809,3.515
		c0,0.919-0.36,1.674-1.081,2.264c-0.72,0.59-1.646,0.885-2.776,0.885c-0.668,0-1.262-0.071-1.783-0.213
		C63.711,45.864,63.056,45.602,62.267,45.219z"/>
	<path d="M72.288,51.75V34.794h3.89c1.991,0,3.542,0.497,4.651,1.489c1.109,0.993,1.664,2.38,1.664,4.163
		c0,1.685-0.521,3.068-1.565,4.15c-1.045,1.083-2.375,1.624-3.992,1.624c-0.715,0-1.507-0.159-2.376-0.476v6.006H72.288z
		 M76.13,36.87h-1.57v6.909c0.682,0.35,1.396,0.525,2.144,0.525c1.039,0,1.89-0.362,2.552-1.086
		c0.662-0.724,0.992-1.656,0.992-2.795c0-0.732-0.156-1.379-0.469-1.941s-0.738-0.97-1.278-1.227
		C77.96,36.998,77.17,36.87,76.13,36.87z"/>
	<path d="M87.315,34.794v2.576l0.122-0.195c1.074-1.733,2.148-2.6,3.223-2.6c0.838,0,1.713,0.423,2.624,1.27l-1.172,1.953
		c-0.772-0.732-1.488-1.099-2.148-1.099c-0.716,0-1.336,0.342-1.861,1.025c-0.524,0.684-0.787,1.494-0.787,2.429v5.872h-2.234
		v-11.23H87.315z"/>
	<path d="M95.983,30.07c0.365,0,0.679,0.126,0.939,0.378c0.261,0.252,0.391,0.562,0.391,0.928c0,0.358-0.13,0.667-0.391,0.928
		c-0.261,0.261-0.574,0.391-0.939,0.391c-0.342,0-0.644-0.132-0.904-0.397c-0.26-0.264-0.391-0.571-0.391-0.921
		c0-0.342,0.131-0.645,0.391-0.91C95.34,30.203,95.642,30.07,95.983,30.07z M94.884,34.794h2.223v11.23h-2.223V34.794z"/>
	<path d="M102.538,34.794v1.428c0.992-1.099,2.119-1.648,3.381-1.648c0.7,0,1.351,0.181,1.953,0.543
		c0.603,0.362,1.06,0.858,1.373,1.489c0.313,0.63,0.471,1.629,0.471,2.997v6.421h-2.223v-6.396c0-1.147-0.175-1.967-0.524-2.459
		c-0.35-0.493-0.936-0.739-1.758-0.739c-1.05,0-1.94,0.525-2.673,1.575v8.02h-2.271v-11.23H102.538z"/>
	<path d="M112.242,38.676c0-1.196,0.438-2.142,1.313-2.838c0.874-0.695,2.069-1.043,3.583-1.043h4.626v1.733h-2.271
		c0.439,0.448,0.744,0.854,0.916,1.221c0.17,0.366,0.256,0.786,0.256,1.257c0,0.586-0.167,1.162-0.5,1.728
		c-0.334,0.565-0.764,0.999-1.288,1.3c-0.525,0.301-1.386,0.542-2.582,0.72c-0.838,0.122-1.257,0.411-1.257,0.867
		c0,0.261,0.156,0.474,0.47,0.641c0.313,0.167,0.881,0.34,1.702,0.519c1.376,0.301,2.261,0.537,2.655,0.708s0.751,0.415,1.068,0.732
		c0.537,0.537,0.806,1.212,0.806,2.026c0,1.066-0.475,1.917-1.422,2.551c-0.948,0.635-2.216,0.952-3.803,0.952
		c-1.604,0-2.883-0.319-3.839-0.958c-0.957-0.639-1.435-1.496-1.435-2.57c0-1.522,0.939-2.502,2.82-2.942
		c-0.749-0.48-1.123-0.956-1.123-1.428c0-0.358,0.16-0.684,0.481-0.977s0.755-0.508,1.3-0.647
		C113.068,41.496,112.242,40.312,112.242,38.676z M115.892,46.55c-0.748,0-1.36,0.159-1.837,0.476
		c-0.476,0.317-0.714,0.724-0.714,1.221c0,1.155,1.042,1.733,3.125,1.733c0.984,0,1.747-0.145,2.289-0.433
		c0.541-0.289,0.812-0.698,0.812-1.227c0-0.521-0.342-0.946-1.025-1.276C117.857,46.715,116.975,46.55,115.892,46.55z
		 M116.417,36.723c-0.603,0-1.115,0.204-1.538,0.61c-0.423,0.407-0.635,0.896-0.635,1.465c0,0.578,0.208,1.056,0.622,1.434
		c0.416,0.379,0.94,0.568,1.575,0.568c0.627,0,1.149-0.193,1.568-0.58c0.419-0.387,0.629-0.869,0.629-1.447
		c0-0.586-0.212-1.074-0.635-1.465S117.052,36.723,116.417,36.723z"/>
</g>
<g>
	<path d="M12.097,61.667h5.725v7.227c-2.1,0.912-4.183,1.367-6.25,1.367c-2.824,0-5.08-0.824-6.769-2.472
		c-1.689-1.647-2.533-3.68-2.533-6.097c0-2.547,0.875-4.667,2.624-6.36c1.75-1.692,3.943-2.539,6.58-2.539
		c0.96,0,1.872,0.104,2.734,0.312c0.862,0.207,1.953,0.588,3.271,1.141v2.49c-2.034-1.18-4.053-1.77-6.055-1.77
		c-1.863,0-3.435,0.635-4.712,1.904s-1.917,2.828-1.917,4.675c0,1.937,0.64,3.52,1.917,4.749c1.277,1.229,2.922,1.843,4.932,1.843
		c0.977,0,2.145-0.224,3.503-0.671l0.232-0.073v-3.552h-3.283V61.667z"/>
	<path d="M23.461,58.834v2.576l0.122-0.195c1.074-1.733,2.148-2.6,3.223-2.6c0.838,0,1.713,0.423,2.625,1.27l-1.172,1.953
		c-0.773-0.732-1.49-1.099-2.148-1.099c-0.717,0-1.337,0.342-1.862,1.025c-0.524,0.684-0.787,1.494-0.787,2.429v5.872h-2.233v-11.23
		H23.461z"/>
	<path d="M40.05,64.645h-7.897c0.057,1.074,0.417,1.929,1.08,2.563s1.521,0.952,2.569,0.952c1.465,0,2.816-0.456,4.053-1.367v2.173
		c-0.684,0.456-1.36,0.781-2.032,0.977c-0.671,0.195-1.458,0.293-2.362,0.293c-1.236,0-2.237-0.256-3.002-0.769
		c-0.766-0.513-1.378-1.202-1.838-2.069c-0.46-0.866-0.689-1.869-0.689-3.009c0-1.709,0.484-3.099,1.453-4.169
		c0.968-1.07,2.226-1.605,3.771-1.605c1.489,0,2.678,0.521,3.564,1.563c0.887,1.042,1.33,2.438,1.33,4.187V64.645z M32.201,63.314
		h5.651c-0.057-0.887-0.321-1.57-0.793-2.051c-0.472-0.48-1.106-0.72-1.904-0.72s-1.451,0.24-1.959,0.72
		C32.688,61.744,32.355,62.428,32.201,63.314z"/>
	<path d="M44.677,58.834v1.428c0.992-1.099,2.119-1.648,3.381-1.648c0.7,0,1.351,0.181,1.953,0.543
		c0.603,0.362,1.06,0.858,1.373,1.489c0.313,0.63,0.471,1.629,0.471,2.997v6.421h-2.223v-6.396c0-1.147-0.175-1.967-0.524-2.459
		c-0.35-0.493-0.936-0.739-1.758-0.739c-1.05,0-1.94,0.525-2.673,1.575v8.02h-2.271v-11.23H44.677z"/>
	<path d="M62.011,63.314v4.773c0,0.383,0.13,0.574,0.391,0.574c0.268,0,0.688-0.199,1.257-0.598v1.355
		c-0.505,0.326-0.909,0.547-1.215,0.665c-0.305,0.118-0.624,0.177-0.958,0.177c-0.952,0-1.514-0.374-1.685-1.123
		c-0.944,0.732-1.949,1.099-3.015,1.099c-0.781,0-1.433-0.258-1.953-0.775c-0.521-0.517-0.781-1.166-0.781-1.947
		c0-0.708,0.254-1.341,0.763-1.898c0.508-0.557,1.23-0.999,2.167-1.324l2.844-0.977v-0.598c0-1.351-0.676-2.026-2.026-2.026
		c-1.213,0-2.393,0.627-3.54,1.88v-2.429c0.862-1.017,2.104-1.526,3.723-1.526c1.213,0,2.186,0.317,2.918,0.952
		c0.244,0.204,0.464,0.474,0.659,0.812c0.195,0.337,0.319,0.675,0.372,1.013C61.983,61.729,62.011,62.371,62.011,63.314z
		 M59.825,67.843v-3.333l-1.489,0.574c-0.757,0.301-1.292,0.604-1.605,0.91c-0.313,0.305-0.47,0.686-0.47,1.141
		c0,0.464,0.148,0.842,0.445,1.135s0.682,0.439,1.154,0.439C58.567,68.71,59.223,68.421,59.825,67.843z"/>
	<path d="M67.847,58.834v1.428c0.992-1.099,2.119-1.648,3.381-1.648c0.7,0,1.351,0.181,1.953,0.543
		c0.603,0.362,1.06,0.858,1.373,1.489c0.313,0.63,0.471,1.629,0.471,2.997v6.421h-2.223v-6.396c0-1.147-0.175-1.967-0.524-2.459
		c-0.35-0.493-0.936-0.739-1.758-0.739c-1.05,0-1.94,0.525-2.673,1.575v8.02h-2.271v-11.23H67.847z"/>
	<path d="M85.62,53.012h2.233v17.053h-4.749c-1.66,0-2.984-0.525-3.973-1.575c-0.989-1.05-1.483-2.458-1.483-4.224
		c0-1.652,0.519-3.011,1.557-4.077c1.037-1.066,2.362-1.599,3.974-1.599c0.748,0,1.563,0.159,2.441,0.476V53.012z M85.62,68.161
		v-7.117c-0.692-0.35-1.393-0.525-2.1-0.525c-1.107,0-1.988,0.362-2.644,1.086c-0.655,0.725-0.982,1.701-0.982,2.93
		c0,1.156,0.285,2.047,0.854,2.673c0.342,0.375,0.704,0.627,1.086,0.757c0.383,0.13,1.07,0.195,2.063,0.195H85.62z"/>
	<path d="M100.438,64.645h-7.897c0.057,1.074,0.417,1.929,1.08,2.563s1.521,0.952,2.569,0.952c1.465,0,2.816-0.456,4.053-1.367
		v2.173c-0.684,0.456-1.36,0.781-2.032,0.977c-0.671,0.195-1.458,0.293-2.362,0.293c-1.236,0-2.237-0.256-3.002-0.769
		c-0.766-0.513-1.378-1.202-1.838-2.069c-0.46-0.866-0.689-1.869-0.689-3.009c0-1.709,0.484-3.099,1.453-4.169
		c0.968-1.07,2.226-1.605,3.771-1.605c1.489,0,2.678,0.521,3.564,1.563c0.887,1.042,1.33,2.438,1.33,4.187V64.645z M92.59,63.314
		h5.651c-0.057-0.887-0.321-1.57-0.793-2.051c-0.472-0.48-1.106-0.72-1.904-0.72s-1.451,0.24-1.959,0.72
		C93.076,61.744,92.744,62.428,92.59,63.314z"/>
	<path d="M105.224,58.834v2.576l0.122-0.195c1.074-1.733,2.148-2.6,3.223-2.6c0.838,0,1.713,0.423,2.624,1.27l-1.172,1.953
		c-0.772-0.732-1.488-1.099-2.148-1.099c-0.716,0-1.336,0.342-1.861,1.025c-0.524,0.684-0.787,1.494-0.787,2.429v5.872h-2.234
		v-11.23H105.224z"/>
</g>
<rect id="_x3C_Slice_x3E__134_" y="28" fill="none" width="123" height="24"/>
</svg>
