<?xml version="1.0" encoding="utf-8"?>
<!-- Generator: Adobe Illustrator 15.1.0, SVG Export Plug-In  -->
<!DOCTYPE svg PUBLIC "-//W3C//DTD SVG 1.1//EN" "http://www.w3.org/Graphics/SVG/1.1/DTD/svg11.dtd" [
	<!ENTITY ns_flows "http://ns.adobe.com/Flows/1.0/">
]>
<svg version="1.1"
	 xmlns="http://www.w3.org/2000/svg" xmlns:xlink="http://www.w3.org/1999/xlink" xmlns:a="http://ns.adobe.com/AdobeSVGViewerExtensions/3.0/"
	 x="0px" y="0px" width="93px" height="26px" viewBox="0 1.04 93 26" enable-background="new 0 1.04 93 26" xml:space="preserve">
<defs>
</defs>
<g>
	<path d="M2.88,3.972h2.441v14.832h7.678v2.222H2.88V3.972z"/>
	<path d="M14.806,9.794h2.223v12.83c0,1.945-0.747,3.32-2.24,4.126l-1.654-1.624c0.513-0.179,0.92-0.493,1.221-0.94
		c0.301-0.448,0.451-0.969,0.451-1.563V9.794z M15.856,5.07c0.365,0,0.679,0.128,0.939,0.385c0.261,0.256,0.391,0.563,0.391,0.921
		c0,0.375-0.124,0.688-0.372,0.94c-0.249,0.252-0.56,0.378-0.935,0.378c-0.35,0-0.658-0.13-0.928-0.391
		c-0.268-0.26-0.402-0.569-0.402-0.928c0-0.342,0.132-0.645,0.396-0.91C15.211,5.203,15.515,5.07,15.856,5.07z"/>
	<path d="M27.466,21.025v-1.44c-0.473,0.517-1.012,0.918-1.618,1.205c-0.606,0.287-1.21,0.431-1.813,0.431
		c-0.708,0-1.361-0.177-1.959-0.531c-0.599-0.354-1.05-0.834-1.355-1.44c-0.305-0.606-0.458-1.613-0.458-3.021V9.794h2.223v6.4
		c0,1.179,0.168,2.001,0.506,2.469s0.93,0.701,1.776,0.701c1.058,0,1.957-0.517,2.698-1.55v-8.02h2.221v11.23H27.466z"/>
	<path d="M32.263,20.219v-2.393c0.627,0.439,1.268,0.795,1.923,1.068c0.654,0.273,1.206,0.409,1.653,0.409
		c0.465,0,0.863-0.114,1.197-0.342c0.333-0.228,0.5-0.5,0.5-0.818c0-0.325-0.108-0.596-0.323-0.812
		c-0.216-0.215-0.682-0.526-1.397-0.934c-1.433-0.797-2.371-1.479-2.814-2.045c-0.443-0.565-0.665-1.182-0.665-1.849
		c0-0.862,0.336-1.566,1.007-2.112c0.672-0.545,1.536-0.818,2.594-0.818c1.1,0,2.227,0.31,3.382,0.928V12.7
		c-1.318-0.797-2.396-1.196-3.235-1.196c-0.431,0-0.779,0.092-1.043,0.275c-0.265,0.184-0.396,0.426-0.396,0.727
		c0,0.261,0.119,0.51,0.358,0.746c0.24,0.236,0.661,0.521,1.264,0.854l0.794,0.452c1.872,1.058,2.809,2.229,2.809,3.515
		c0,0.919-0.36,1.674-1.081,2.264c-0.72,0.59-1.646,0.885-2.776,0.885c-0.668,0-1.262-0.071-1.783-0.213
		C33.707,20.864,33.052,20.602,32.263,20.219z"/>
	<path d="M42.382,3.972h2.223v7.3c0.928-1.131,2.079-1.697,3.454-1.697c0.749,0,1.42,0.188,2.015,0.562
		c0.594,0.375,1.035,0.891,1.324,1.55c0.288,0.659,0.434,1.64,0.434,2.942v6.396h-2.223v-6.946c0-0.822-0.201-1.483-0.604-1.983
		c-0.403-0.501-0.934-0.751-1.594-0.751c-0.488,0-0.947,0.126-1.379,0.378c-0.432,0.252-0.907,0.671-1.428,1.257v8.044h-2.223V3.972
		z"/>
	<path d="M60.302,9.77c1.709,0,3.13,0.551,4.261,1.654c1.131,1.103,1.696,2.489,1.696,4.157c0,1.62-0.573,2.964-1.721,4.035
		c-1.147,1.07-2.592,1.605-4.334,1.605c-1.684,0-3.092-0.543-4.223-1.629c-1.132-1.087-1.697-2.443-1.697-4.071
		c0-1.644,0.571-3.013,1.715-4.107C57.143,10.317,58.577,9.77,60.302,9.77z M60.181,11.772c-1.066,0-1.941,0.35-2.625,1.05
		c-0.684,0.7-1.025,1.591-1.025,2.673c0,1.074,0.35,1.951,1.05,2.631c0.7,0.679,1.599,1.019,2.698,1.019
		c1.09,0,1.983-0.344,2.679-1.032c0.696-0.688,1.044-1.568,1.044-2.643c0-1.066-0.362-1.949-1.086-2.649
		C62.19,12.122,61.278,11.772,60.181,11.772z"/>
	<path d="M68.577,26.75V9.794h3.89c1.991,0,3.542,0.497,4.651,1.489c1.109,0.993,1.664,2.38,1.664,4.163
		c0,1.685-0.521,3.068-1.565,4.15c-1.045,1.083-2.375,1.624-3.992,1.624c-0.715,0-1.507-0.159-2.376-0.476v6.006H68.577z
		 M72.419,11.87h-1.57v6.909c0.682,0.35,1.396,0.525,2.144,0.525c1.039,0,1.89-0.362,2.552-1.086
		c0.662-0.724,0.992-1.656,0.992-2.795c0-0.732-0.156-1.379-0.469-1.941s-0.738-0.97-1.278-1.227
		C74.249,11.998,73.459,11.87,72.419,11.87z"/>
	<path d="M81.077,26.75V9.794h3.89c1.991,0,3.542,0.497,4.651,1.489c1.109,0.993,1.664,2.38,1.664,4.163
		c0,1.685-0.521,3.068-1.565,4.15c-1.045,1.083-2.375,1.624-3.992,1.624c-0.715,0-1.507-0.159-2.376-0.476v6.006H81.077z
		 M84.919,11.87h-1.57v6.909c0.682,0.35,1.396,0.525,2.144,0.525c1.039,0,1.89-0.362,2.552-1.086
		c0.662-0.724,0.992-1.656,0.992-2.795c0-0.732-0.156-1.379-0.469-1.941s-0.738-0.97-1.278-1.227
		C86.749,11.998,85.959,11.87,84.919,11.87z"/>
</g>
<g>
	<path d="M12.097,37.626h5.725v7.227c-2.1,0.912-4.183,1.367-6.25,1.367c-2.824,0-5.08-0.824-6.769-2.472
		c-1.689-1.647-2.533-3.68-2.533-6.097c0-2.547,0.875-4.667,2.624-6.36c1.75-1.692,3.943-2.539,6.58-2.539
		c0.96,0,1.872,0.104,2.734,0.312c0.862,0.207,1.953,0.588,3.271,1.141v2.49c-2.034-1.18-4.053-1.77-6.055-1.77
		c-1.863,0-3.435,0.635-4.712,1.904s-1.917,2.828-1.917,4.675c0,1.937,0.64,3.52,1.917,4.749c1.277,1.229,2.922,1.843,4.932,1.843
		c0.977,0,2.145-0.224,3.503-0.671l0.232-0.073v-3.552h-3.283V37.626z"/>
	<path d="M23.461,34.794v2.576l0.122-0.195c1.074-1.733,2.148-2.6,3.223-2.6c0.838,0,1.713,0.423,2.625,1.27l-1.172,1.953
		c-0.773-0.732-1.49-1.099-2.148-1.099c-0.717,0-1.337,0.342-1.862,1.025c-0.524,0.684-0.787,1.494-0.787,2.429v5.872h-2.233v-11.23
		H23.461z"/>
	<path d="M38.134,46.025v-1.44c-0.473,0.517-1.012,0.918-1.618,1.205c-0.606,0.287-1.21,0.431-1.813,0.431
		c-0.708,0-1.361-0.177-1.959-0.531c-0.599-0.354-1.05-0.834-1.355-1.44c-0.305-0.606-0.458-1.613-0.458-3.021v-6.433h2.223v6.4
		c0,1.179,0.168,2.001,0.506,2.469s0.93,0.701,1.776,0.701c1.058,0,1.957-0.517,2.698-1.55v-8.02h2.221v11.23H38.134z"/>
	<path d="M43.333,51.75V34.794h3.89c1.991,0,3.542,0.497,4.651,1.489c1.109,0.993,1.664,2.38,1.664,4.163
		c0,1.685-0.521,3.068-1.565,4.15c-1.045,1.083-2.375,1.624-3.992,1.624c-0.715,0-1.507-0.159-2.376-0.476v6.006H43.333z
		 M47.175,36.87h-1.57v6.909c0.682,0.35,1.396,0.525,2.144,0.525c1.039,0,1.89-0.362,2.552-1.086
		c0.662-0.724,0.992-1.656,0.992-2.795c0-0.732-0.156-1.379-0.469-1.941s-0.738-0.97-1.278-1.227
		C49.005,36.998,48.215,36.87,47.175,36.87z"/>
	<path d="M55.833,51.75V34.794h3.89c1.991,0,3.542,0.497,4.651,1.489c1.109,0.993,1.664,2.38,1.664,4.163
		c0,1.685-0.521,3.068-1.565,4.15c-1.045,1.083-2.375,1.624-3.992,1.624c-0.715,0-1.507-0.159-2.376-0.476v6.006H55.833z
		 M59.675,36.87h-1.57v6.909c0.682,0.35,1.396,0.525,2.144,0.525c1.039,0,1.89-0.362,2.552-1.086
		c0.662-0.724,0.992-1.656,0.992-2.795c0-0.732-0.156-1.379-0.469-1.941s-0.738-0.97-1.278-1.227
		C61.505,36.998,60.715,36.87,59.675,36.87z"/>
	<path d="M78.05,40.605h-7.897c0.057,1.074,0.417,1.929,1.08,2.563s1.521,0.952,2.569,0.952c1.465,0,2.816-0.456,4.053-1.367v2.173
		c-0.684,0.456-1.36,0.781-2.032,0.977c-0.671,0.195-1.458,0.293-2.362,0.293c-1.236,0-2.237-0.256-3.002-0.769
		c-0.766-0.513-1.378-1.202-1.838-2.069c-0.46-0.866-0.689-1.869-0.689-3.009c0-1.709,0.484-3.099,1.453-4.169
		c0.968-1.07,2.226-1.605,3.771-1.605c1.489,0,2.678,0.521,3.564,1.563c0.887,1.042,1.33,2.438,1.33,4.187V40.605z M70.201,39.274
		h5.651c-0.057-0.887-0.321-1.57-0.793-2.051c-0.472-0.48-1.106-0.72-1.904-0.72s-1.451,0.24-1.959,0.72
		C70.688,37.704,70.355,38.388,70.201,39.274z"/>
	<path d="M82.836,34.794v2.576l0.122-0.195c1.074-1.733,2.148-2.6,3.223-2.6c0.838,0,1.713,0.423,2.625,1.27l-1.172,1.953
		c-0.773-0.732-1.49-1.099-2.148-1.099c-0.717,0-1.337,0.342-1.862,1.025c-0.524,0.684-0.787,1.494-0.787,2.429v5.872h-2.233v-11.23
		H82.836z"/>
	<path d="M97.411,39.274v4.773c0,0.383,0.13,0.574,0.391,0.574c0.268,0,0.688-0.199,1.257-0.598v1.355
		c-0.505,0.326-0.909,0.547-1.215,0.665c-0.305,0.118-0.624,0.177-0.958,0.177c-0.952,0-1.514-0.374-1.685-1.123
		c-0.944,0.732-1.949,1.099-3.015,1.099c-0.781,0-1.433-0.258-1.953-0.775c-0.521-0.517-0.781-1.166-0.781-1.947
		c0-0.708,0.254-1.341,0.763-1.898c0.508-0.557,1.23-0.999,2.167-1.324l2.844-0.977v-0.598c0-1.351-0.676-2.026-2.026-2.026
		c-1.213,0-2.393,0.627-3.54,1.88v-2.429c0.862-1.017,2.104-1.526,3.723-1.526c1.213,0,2.186,0.317,2.918,0.952
		c0.244,0.204,0.464,0.474,0.659,0.812c0.195,0.337,0.319,0.675,0.372,1.013C97.384,37.689,97.411,38.331,97.411,39.274z
		 M95.226,43.803v-3.333l-1.489,0.574c-0.757,0.301-1.292,0.604-1.605,0.91c-0.313,0.305-0.47,0.686-0.47,1.141
		c0,0.464,0.148,0.842,0.445,1.135s0.682,0.439,1.154,0.439C93.968,44.67,94.623,44.381,95.226,43.803z"/>
	<path d="M99.45,36.577l4.175-4.102v2.319h3.552v2.002h-3.552v5.497c0,1.284,0.533,1.925,1.599,1.925
		c0.798,0,1.641-0.264,2.527-0.793V45.5c-0.854,0.48-1.786,0.72-2.795,0.72c-1.018,0-1.864-0.297-2.539-0.891
		c-0.212-0.179-0.387-0.38-0.525-0.604c-0.139-0.224-0.255-0.517-0.348-0.879c-0.094-0.362-0.141-1.051-0.141-2.069v-4.98H99.45
		V36.577z"/>
	<path d="M116.345,28.972h2.221v17.053h-2.221V28.972z"/>
	<path d="M121.753,34.794h2.221v12.83c0,1.945-0.746,3.32-2.239,4.126l-1.654-1.624c0.513-0.179,0.92-0.493,1.221-0.94
		c0.301-0.448,0.452-0.969,0.452-1.563V34.794z M122.802,30.07c0.367,0,0.68,0.128,0.94,0.385c0.261,0.256,0.391,0.563,0.391,0.921
		c0,0.375-0.124,0.688-0.372,0.94c-0.249,0.252-0.56,0.378-0.934,0.378c-0.351,0-0.66-0.13-0.928-0.391
		c-0.27-0.26-0.403-0.569-0.403-0.928c0-0.342,0.132-0.645,0.396-0.91C122.157,30.203,122.46,30.07,122.802,30.07z"/>
	<path d="M134.411,46.025v-1.44c-0.473,0.517-1.012,0.918-1.618,1.205c-0.606,0.287-1.21,0.431-1.813,0.431
		c-0.708,0-1.361-0.177-1.959-0.531c-0.599-0.354-1.05-0.834-1.355-1.44c-0.305-0.606-0.458-1.613-0.458-3.021v-6.433h2.223v6.4
		c0,1.179,0.168,2.001,0.506,2.469s0.93,0.701,1.776,0.701c1.058,0,1.957-0.517,2.698-1.55v-8.02h2.221v11.23H134.411z"/>
	<path d="M139.208,45.219v-2.393c0.627,0.439,1.268,0.795,1.923,1.068c0.654,0.273,1.206,0.409,1.653,0.409
		c0.465,0,0.863-0.114,1.197-0.342c0.333-0.228,0.5-0.5,0.5-0.818c0-0.325-0.108-0.596-0.323-0.812
		c-0.216-0.215-0.682-0.526-1.397-0.934c-1.433-0.797-2.371-1.479-2.814-2.045c-0.443-0.565-0.665-1.182-0.665-1.849
		c0-0.862,0.336-1.566,1.007-2.112c0.672-0.545,1.536-0.818,2.594-0.818c1.1,0,2.227,0.31,3.382,0.928V37.7
		c-1.318-0.797-2.396-1.196-3.235-1.196c-0.431,0-0.779,0.092-1.043,0.275c-0.265,0.184-0.396,0.426-0.396,0.727
		c0,0.261,0.119,0.51,0.358,0.746c0.24,0.236,0.661,0.521,1.264,0.854l0.794,0.452c1.872,1.058,2.809,2.229,2.809,3.515
		c0,0.919-0.36,1.674-1.081,2.264c-0.72,0.59-1.646,0.885-2.776,0.885c-0.668,0-1.262-0.071-1.783-0.213
		C140.652,45.864,139.997,45.602,139.208,45.219z"/>
	<path d="M149.327,28.972h2.223v7.3c0.928-1.131,2.079-1.697,3.454-1.697c0.749,0,1.42,0.188,2.015,0.562
		c0.594,0.375,1.035,0.891,1.324,1.55c0.288,0.659,0.434,1.64,0.434,2.942v6.396h-2.223v-6.946c0-0.822-0.201-1.483-0.604-1.983
		c-0.403-0.501-0.934-0.751-1.594-0.751c-0.488,0-0.947,0.126-1.379,0.378c-0.432,0.252-0.907,0.671-1.428,1.257v8.044h-2.223
		V28.972z"/>
	<path d="M167.247,34.77c1.709,0,3.13,0.551,4.261,1.654c1.131,1.103,1.696,2.489,1.696,4.157c0,1.62-0.573,2.964-1.721,4.035
		c-1.147,1.07-2.592,1.605-4.334,1.605c-1.684,0-3.092-0.543-4.223-1.629c-1.132-1.087-1.697-2.443-1.697-4.071
		c0-1.644,0.571-3.013,1.715-4.107C164.088,35.317,165.522,34.77,167.247,34.77z M167.126,36.772c-1.066,0-1.941,0.35-2.625,1.05
		c-0.684,0.7-1.025,1.591-1.025,2.673c0,1.074,0.35,1.951,1.05,2.631c0.7,0.679,1.599,1.019,2.698,1.019
		c1.09,0,1.983-0.344,2.679-1.032c0.696-0.688,1.044-1.568,1.044-2.643c0-1.066-0.362-1.949-1.086-2.649
		C169.136,37.122,168.224,36.772,167.126,36.772z"/>
	<path d="M175.524,51.75V34.794h3.889c1.991,0,3.542,0.497,4.651,1.489c1.109,0.993,1.665,2.38,1.665,4.163
		c0,1.685-0.522,3.068-1.566,4.15c-1.045,1.083-2.375,1.624-3.992,1.624c-0.715,0-1.507-0.159-2.377-0.476v6.006H175.524z
		 M179.365,36.87h-1.571v6.909c0.683,0.35,1.397,0.525,2.145,0.525c1.039,0,1.89-0.362,2.552-1.086
		c0.662-0.724,0.993-1.656,0.993-2.795c0-0.732-0.157-1.379-0.47-1.941s-0.738-0.97-1.278-1.227
		C181.195,36.998,180.405,36.87,179.365,36.87z"/>
	<path d="M188.024,51.75V34.794h3.889c1.991,0,3.542,0.497,4.651,1.489c1.109,0.993,1.665,2.38,1.665,4.163
		c0,1.685-0.522,3.068-1.566,4.15c-1.045,1.083-2.375,1.624-3.992,1.624c-0.715,0-1.507-0.159-2.377-0.476v6.006H188.024z
		 M191.865,36.87h-1.571v6.909c0.683,0.35,1.397,0.525,2.145,0.525c1.039,0,1.89-0.362,2.552-1.086
		c0.662-0.724,0.993-1.656,0.993-2.795c0-0.732-0.157-1.379-0.47-1.941s-0.738-0.97-1.278-1.227
		C193.695,36.998,192.905,36.87,191.865,36.87z"/>
</g>
<rect id="_x3C_Slice_x3E__134_" y="1.04" fill="none" width="93" height="26"/>
</svg>
