<?xml version="1.0" encoding="utf-8"?>
<!-- Generator: Adobe Illustrator 15.1.0, SVG Export Plug-In  -->
<!DOCTYPE svg PUBLIC "-//W3C//DTD SVG 1.1//EN" "http://www.w3.org/Graphics/SVG/1.1/DTD/svg11.dtd" [
	<!ENTITY ns_flows "http://ns.adobe.com/Flows/1.0/">
]>
<svg version="1.1"
	 xmlns="http://www.w3.org/2000/svg" xmlns:xlink="http://www.w3.org/1999/xlink" xmlns:a="http://ns.adobe.com/AdobeSVGViewerExtensions/3.0/"
	 x="0px" y="0px" width="97px" height="25px" viewBox="0 27 97 25" enable-background="new 0 27 97 25" xml:space="preserve">
<defs>
</defs>
<g>
	<path d="M14.903,3.972h2.441v17.053h-2.441v-7.422H5.321v7.422H2.88V3.972h2.441v7.373h9.582V3.972z"/>
	<path d="M27.954,21.025v-1.44c-0.473,0.517-1.012,0.918-1.618,1.205c-0.606,0.287-1.21,0.431-1.813,0.431
		c-0.708,0-1.361-0.177-1.959-0.531c-0.599-0.354-1.05-0.834-1.355-1.44c-0.305-0.606-0.458-1.613-0.458-3.021V9.794h2.223v6.4
		c0,1.179,0.168,2.001,0.506,2.469s0.93,0.701,1.776,0.701c1.058,0,1.957-0.517,2.698-1.55v-8.02h2.221v11.23H27.954z"/>
	<path d="M40.181,9.794h2.409L37.63,21.22h-0.752L31.799,9.794h2.432l3.031,6.909L40.181,9.794z"/>
	<path d="M51.403,21.025v-1.44c-0.473,0.517-1.012,0.918-1.618,1.205c-0.606,0.287-1.21,0.431-1.813,0.431
		c-0.708,0-1.361-0.177-1.959-0.531c-0.599-0.354-1.05-0.834-1.355-1.44c-0.305-0.606-0.458-1.613-0.458-3.021V9.794h2.223v6.4
		c0,1.179,0.168,2.001,0.506,2.469s0.93,0.701,1.776,0.701c1.058,0,1.957-0.517,2.698-1.55v-8.02h2.221v11.23H51.403z"/>
	<path d="M64.245,3.972h2.233v17.053h-4.749c-1.66,0-2.984-0.525-3.973-1.575c-0.989-1.05-1.483-2.458-1.483-4.224
		c0-1.652,0.519-3.011,1.557-4.077c1.037-1.066,2.362-1.599,3.974-1.599c0.748,0,1.563,0.159,2.441,0.476V3.972z M64.245,19.121
		v-7.117c-0.692-0.35-1.393-0.525-2.1-0.525c-1.107,0-1.988,0.362-2.644,1.086c-0.655,0.725-0.982,1.701-0.982,2.93
		c0,1.156,0.285,2.047,0.854,2.673c0.342,0.375,0.704,0.627,1.086,0.757c0.383,0.13,1.07,0.195,2.063,0.195H64.245z"/>
	<path d="M74.864,9.77c1.709,0,3.13,0.551,4.261,1.654c1.131,1.103,1.696,2.489,1.696,4.157c0,1.62-0.573,2.964-1.721,4.035
		c-1.147,1.07-2.592,1.605-4.334,1.605c-1.684,0-3.092-0.543-4.223-1.629c-1.132-1.087-1.697-2.443-1.697-4.071
		c0-1.644,0.571-3.013,1.715-4.107C71.705,10.317,73.14,9.77,74.864,9.77z M72.13,4.35c0.318,0,0.593,0.114,0.824,0.342
		c0.232,0.228,0.348,0.505,0.348,0.83c0,0.326-0.109,0.6-0.329,0.824c-0.22,0.224-0.488,0.336-0.806,0.336
		c-0.325,0-0.603-0.116-0.83-0.348c-0.228-0.232-0.342-0.507-0.342-0.824c0-0.325,0.111-0.6,0.336-0.824
		C71.555,4.462,71.821,4.35,72.13,4.35z M74.743,11.772c-1.066,0-1.941,0.35-2.625,1.05c-0.684,0.7-1.025,1.591-1.025,2.673
		c0,1.074,0.35,1.951,1.05,2.631c0.7,0.679,1.599,1.019,2.698,1.019c1.09,0,1.983-0.344,2.679-1.032
		c0.696-0.688,1.044-1.568,1.044-2.643c0-1.066-0.362-1.949-1.086-2.649C76.753,12.122,75.841,11.772,74.743,11.772z M76.83,4.35
		c0.317,0,0.592,0.114,0.824,0.342c0.231,0.228,0.348,0.505,0.348,0.83c0,0.326-0.11,0.6-0.329,0.824
		c-0.221,0.224-0.488,0.336-0.807,0.336c-0.325,0-0.602-0.116-0.83-0.348c-0.228-0.232-0.342-0.507-0.342-0.824
		c0-0.325,0.112-0.6,0.336-0.824C76.254,4.462,76.521,4.35,76.83,4.35z"/>
	<path d="M90.168,9.794h2.409l-4.96,11.426h-0.752L81.786,9.794h2.432l3.031,6.909L90.168,9.794z"/>
	<path d="M103.308,15.605h-7.898c0.057,1.074,0.417,1.929,1.08,2.563s1.52,0.952,2.57,0.952c1.465,0,2.815-0.456,4.053-1.367v2.173
		c-0.684,0.456-1.361,0.781-2.033,0.977c-0.671,0.195-1.459,0.293-2.361,0.293c-1.237,0-2.238-0.256-3.004-0.769
		c-0.765-0.513-1.377-1.202-1.837-2.069c-0.46-0.866-0.689-1.869-0.689-3.009c0-1.709,0.484-3.099,1.452-4.169
		c0.969-1.07,2.227-1.605,3.772-1.605c1.489,0,2.678,0.521,3.564,1.563c0.887,1.042,1.331,2.438,1.331,4.187V15.605z M95.458,14.274
		h5.652c-0.058-0.887-0.322-1.57-0.794-2.051c-0.472-0.48-1.106-0.72-1.904-0.72s-1.451,0.24-1.959,0.72
		C95.944,12.704,95.612,13.388,95.458,14.274z"/>
	<path d="M108.093,9.794v2.576l0.122-0.195c1.074-1.733,2.148-2.6,3.223-2.6c0.838,0,1.713,0.423,2.624,1.27l-1.172,1.953
		c-0.772-0.732-1.488-1.099-2.148-1.099c-0.716,0-1.336,0.342-1.861,1.025c-0.524,0.684-0.787,1.494-0.787,2.429v5.872h-2.234V9.794
		H108.093z"/>
	<path d="M115.063,20.219v-2.393c0.627,0.439,1.268,0.795,1.923,1.068c0.654,0.273,1.206,0.409,1.654,0.409
		c0.463,0,0.862-0.114,1.195-0.342c0.334-0.228,0.501-0.5,0.501-0.818c0-0.325-0.108-0.596-0.323-0.812
		c-0.216-0.215-0.682-0.526-1.398-0.934c-1.432-0.797-2.37-1.479-2.813-2.045c-0.443-0.565-0.665-1.182-0.665-1.849
		c0-0.862,0.336-1.566,1.007-2.112c0.672-0.545,1.536-0.818,2.595-0.818c1.098,0,2.226,0.31,3.381,0.928V12.7
		c-1.318-0.797-2.396-1.196-3.234-1.196c-0.432,0-0.78,0.092-1.044,0.275c-0.265,0.184-0.397,0.426-0.397,0.727
		c0,0.261,0.12,0.51,0.359,0.746c0.24,0.236,0.661,0.521,1.264,0.854l0.794,0.452c1.872,1.058,2.808,2.229,2.808,3.515
		c0,0.919-0.359,1.674-1.08,2.264c-0.72,0.59-1.646,0.885-2.777,0.885c-0.667,0-1.261-0.071-1.781-0.213
		C116.507,20.864,115.852,20.602,115.063,20.219z"/>
	<path d="M125.28,3.972h2.221v17.053h-2.221V3.972z"/>
	<path d="M137.769,14.274v4.773c0,0.383,0.13,0.574,0.391,0.574c0.268,0,0.688-0.199,1.257-0.598v1.355
		c-0.505,0.326-0.909,0.547-1.215,0.665c-0.305,0.118-0.624,0.177-0.958,0.177c-0.952,0-1.514-0.374-1.685-1.123
		c-0.944,0.732-1.949,1.099-3.015,1.099c-0.781,0-1.433-0.258-1.953-0.775c-0.521-0.517-0.781-1.166-0.781-1.947
		c0-0.708,0.254-1.341,0.763-1.898c0.508-0.557,1.23-0.999,2.167-1.324l2.844-0.977v-0.598c0-1.351-0.676-2.026-2.026-2.026
		c-1.213,0-2.393,0.627-3.54,1.88v-2.429c0.862-1.017,2.104-1.526,3.723-1.526c1.213,0,2.186,0.317,2.918,0.952
		c0.244,0.204,0.464,0.474,0.659,0.812c0.195,0.337,0.319,0.675,0.372,1.013C137.741,12.689,137.769,13.331,137.769,14.274z
		 M135.583,18.803v-3.333l-1.489,0.574c-0.757,0.301-1.292,0.604-1.605,0.91c-0.313,0.305-0.47,0.686-0.47,1.141
		c0,0.464,0.148,0.842,0.445,1.135s0.682,0.439,1.154,0.439C134.325,19.67,134.98,19.381,135.583,18.803z"/>
	<path d="M140.807,13.676c0-1.196,0.438-2.142,1.313-2.838c0.874-0.695,2.069-1.043,3.583-1.043h4.626v1.733h-2.271
		c0.439,0.448,0.744,0.854,0.916,1.221c0.17,0.366,0.256,0.786,0.256,1.257c0,0.586-0.167,1.162-0.5,1.728
		c-0.334,0.565-0.764,0.999-1.288,1.3c-0.525,0.301-1.386,0.542-2.582,0.72c-0.838,0.122-1.257,0.411-1.257,0.867
		c0,0.261,0.156,0.474,0.47,0.641c0.313,0.167,0.881,0.34,1.702,0.519c1.376,0.301,2.261,0.537,2.655,0.708s0.751,0.415,1.068,0.732
		c0.537,0.537,0.806,1.212,0.806,2.026c0,1.066-0.475,1.917-1.422,2.551c-0.948,0.635-2.216,0.952-3.803,0.952
		c-1.604,0-2.883-0.319-3.839-0.958c-0.957-0.639-1.435-1.496-1.435-2.57c0-1.522,0.939-2.502,2.82-2.942
		c-0.749-0.48-1.123-0.956-1.123-1.428c0-0.358,0.16-0.684,0.481-0.977s0.755-0.508,1.3-0.647
		C141.633,16.496,140.807,15.312,140.807,13.676z M144.456,21.55c-0.748,0-1.36,0.159-1.837,0.476
		c-0.476,0.317-0.714,0.724-0.714,1.221c0,1.155,1.042,1.733,3.125,1.733c0.984,0,1.747-0.145,2.289-0.433
		c0.541-0.289,0.812-0.698,0.812-1.227c0-0.521-0.342-0.946-1.025-1.276C146.422,21.715,145.539,21.55,144.456,21.55z
		 M144.981,11.723c-0.603,0-1.115,0.204-1.538,0.61c-0.423,0.407-0.635,0.896-0.635,1.465c0,0.578,0.208,1.056,0.622,1.434
		c0.416,0.379,0.94,0.568,1.575,0.568c0.627,0,1.149-0.193,1.568-0.58c0.419-0.387,0.629-0.869,0.629-1.447
		c0-0.586-0.212-1.074-0.635-1.465S145.616,11.723,144.981,11.723z"/>
</g>
<g>
	<path d="M12.524,28.972h3.051l-7.396,8.093l9.215,8.96h-3.332l-8.716-8.423v8.423H2.904V28.972h2.441v7.8L12.524,28.972z"/>
	<path d="M26.024,39.274v4.773c0,0.383,0.13,0.574,0.391,0.574c0.268,0,0.688-0.199,1.257-0.598v1.355
		c-0.505,0.326-0.909,0.547-1.215,0.665c-0.305,0.118-0.624,0.177-0.958,0.177c-0.952,0-1.514-0.374-1.685-1.123
		c-0.944,0.732-1.949,1.099-3.015,1.099c-0.781,0-1.433-0.258-1.953-0.775c-0.521-0.517-0.781-1.166-0.781-1.947
		c0-0.708,0.254-1.341,0.763-1.898c0.508-0.557,1.23-0.999,2.167-1.324l2.844-0.977v-0.598c0-1.351-0.676-2.026-2.026-2.026
		c-1.213,0-2.393,0.627-3.54,1.88v-2.429c0.862-1.017,2.104-1.526,3.723-1.526c1.213,0,2.186,0.317,2.918,0.952
		c0.244,0.204,0.464,0.474,0.659,0.812c0.195,0.337,0.319,0.675,0.372,1.013C25.997,37.689,26.024,38.331,26.024,39.274z
		 M23.839,43.803v-3.333l-1.489,0.574c-0.757,0.301-1.292,0.604-1.605,0.91c-0.313,0.305-0.47,0.686-0.47,1.141
		c0,0.464,0.148,0.842,0.445,1.135s0.682,0.439,1.154,0.439C22.581,44.67,23.236,44.381,23.839,43.803z"/>
	<path d="M28.063,36.577l4.175-4.102v2.319h3.552v2.002h-3.552v5.497c0,1.284,0.533,1.925,1.599,1.925
		c0.798,0,1.641-0.264,2.527-0.793V45.5c-0.854,0.48-1.786,0.72-2.795,0.72c-1.018,0-1.864-0.297-2.539-0.891
		c-0.212-0.179-0.387-0.38-0.525-0.604c-0.139-0.224-0.255-0.517-0.348-0.879c-0.094-0.362-0.141-1.051-0.141-2.069v-4.98h-1.953
		V36.577z"/>
	<path d="M36.388,36.577l4.175-4.102v2.319h3.552v2.002h-3.552v5.497c0,1.284,0.533,1.925,1.599,1.925
		c0.798,0,1.641-0.264,2.527-0.793V45.5c-0.854,0.48-1.786,0.72-2.795,0.72c-1.018,0-1.864-0.297-2.539-0.891
		c-0.212-0.179-0.387-0.38-0.525-0.604c-0.139-0.224-0.255-0.517-0.348-0.879c-0.094-0.362-0.141-1.051-0.141-2.069v-4.98h-1.953
		V36.577z"/>
	<path d="M46.239,28.972h2.223v7.3c0.928-1.131,2.079-1.697,3.454-1.697c0.749,0,1.42,0.188,2.015,0.562
		c0.594,0.375,1.035,0.891,1.324,1.55c0.288,0.659,0.434,1.64,0.434,2.942v6.396h-2.223v-6.946c0-0.822-0.201-1.483-0.604-1.983
		c-0.403-0.501-0.934-0.751-1.594-0.751c-0.488,0-0.947,0.126-1.379,0.378c-0.432,0.252-0.907,0.671-1.428,1.257v8.044h-2.223
		V28.972z"/>
	<path d="M64.159,34.77c1.709,0,3.13,0.551,4.261,1.654c1.131,1.103,1.696,2.489,1.696,4.157c0,1.62-0.573,2.964-1.721,4.035
		c-1.147,1.07-2.592,1.605-4.334,1.605c-1.684,0-3.092-0.543-4.223-1.629c-1.132-1.087-1.697-2.443-1.697-4.071
		c0-1.644,0.571-3.013,1.715-4.107C61,35.317,62.435,34.77,64.159,34.77z M64.038,36.772c-1.066,0-1.941,0.35-2.625,1.05
		c-0.684,0.7-1.025,1.591-1.025,2.673c0,1.074,0.35,1.951,1.05,2.631c0.7,0.679,1.599,1.019,2.698,1.019
		c1.09,0,1.983-0.344,2.679-1.032c0.696-0.688,1.044-1.568,1.044-2.643c0-1.066-0.362-1.949-1.086-2.649
		C66.048,37.122,65.136,36.772,64.038,36.772z"/>
	<path d="M72.435,51.75V34.794h3.89c1.991,0,3.542,0.497,4.651,1.489c1.109,0.993,1.664,2.38,1.664,4.163
		c0,1.685-0.521,3.068-1.565,4.15c-1.045,1.083-2.375,1.624-3.992,1.624c-0.715,0-1.507-0.159-2.376-0.476v6.006H72.435z
		 M76.276,36.87h-1.57v6.909c0.682,0.35,1.396,0.525,2.144,0.525c1.039,0,1.89-0.362,2.552-1.086
		c0.662-0.724,0.992-1.656,0.992-2.795c0-0.732-0.156-1.379-0.469-1.941s-0.738-0.97-1.278-1.227
		C78.106,36.998,77.316,36.87,76.276,36.87z"/>
	<path d="M84.935,51.75V34.794h3.89c1.991,0,3.542,0.497,4.651,1.489c1.109,0.993,1.664,2.38,1.664,4.163
		c0,1.685-0.521,3.068-1.565,4.15c-1.045,1.083-2.375,1.624-3.992,1.624c-0.715,0-1.507-0.159-2.376-0.476v6.006H84.935z
		 M88.776,36.87h-1.57v6.909c0.682,0.35,1.396,0.525,2.144,0.525c1.039,0,1.89-0.362,2.552-1.086
		c0.662-0.724,0.992-1.656,0.992-2.795c0-0.732-0.156-1.379-0.469-1.941s-0.738-0.97-1.278-1.227
		C90.606,36.998,89.816,36.87,88.776,36.87z"/>
</g>
<g>
	<path d="M12.524,53.012h3.051l-7.396,8.093l9.215,8.96h-3.332l-8.716-8.423v8.423H2.904V53.012h2.441v7.8L12.524,53.012z"/>
	<path d="M24.878,70.065v-1.44c-0.473,0.517-1.012,0.918-1.618,1.205c-0.606,0.287-1.21,0.431-1.813,0.431
		c-0.708,0-1.361-0.177-1.959-0.531c-0.599-0.354-1.05-0.834-1.355-1.44c-0.305-0.606-0.458-1.613-0.458-3.021v-6.433h2.223v6.4
		c0,1.179,0.168,2.001,0.506,2.469s0.93,0.701,1.776,0.701c1.058,0,1.957-0.517,2.698-1.55v-8.02h2.221v11.23H24.878z"/>
	<path d="M30.272,53.012h2.223v17.053h-2.223V53.012z"/>
	<path d="M35.753,53.012h2.223v17.053h-2.223V53.012z"/>
	<path d="M50.755,64.645h-7.897c0.057,1.074,0.417,1.929,1.08,2.563s1.521,0.952,2.569,0.952c1.465,0,2.816-0.456,4.053-1.367v2.173
		c-0.684,0.456-1.36,0.781-2.032,0.977c-0.671,0.195-1.458,0.293-2.362,0.293c-1.236,0-2.237-0.256-3.002-0.769
		c-0.766-0.513-1.378-1.202-1.838-2.069c-0.46-0.866-0.689-1.869-0.689-3.009c0-1.709,0.484-3.099,1.453-4.169
		c0.968-1.07,2.226-1.605,3.771-1.605c1.489,0,2.678,0.521,3.564,1.563c0.887,1.042,1.33,2.438,1.33,4.187V64.645z M42.906,63.314
		h5.651c-0.057-0.887-0.321-1.57-0.793-2.051c-0.472-0.48-1.106-0.72-1.904-0.72s-1.451,0.24-1.959,0.72
		C43.393,61.744,43.061,62.428,42.906,63.314z"/>
	<path d="M55.541,58.834v2.576l0.122-0.195c1.074-1.733,2.148-2.6,3.223-2.6c0.838,0,1.713,0.423,2.625,1.27l-1.172,1.953
		c-0.773-0.732-1.49-1.099-2.148-1.099c-0.717,0-1.337,0.342-1.862,1.025c-0.524,0.684-0.787,1.494-0.787,2.429v5.872h-2.233v-11.23
		H55.541z"/>
	<path d="M62.962,53.012h2.223v6.628c0.96-0.7,1.985-1.05,3.076-1.05c1.424,0,2.588,0.537,3.49,1.611
		c0.904,1.074,1.355,2.454,1.355,4.138c0,1.807-0.539,3.245-1.617,4.315c-1.079,1.07-2.521,1.605-4.328,1.605
		c-0.724,0-1.487-0.078-2.288-0.232c-0.802-0.154-1.438-0.35-1.911-0.586V53.012z M65.185,61.764v6.079
		c0.756,0.228,1.533,0.342,2.331,0.342c0.984,0,1.788-0.35,2.411-1.05c0.622-0.7,0.934-1.599,0.934-2.698
		c0-1.115-0.291-2.022-0.873-2.722c-0.582-0.7-1.341-1.05-2.276-1.05C66.881,60.666,66.038,61.032,65.185,61.764z"/>
	<path d="M82.21,58.834h2.493L76.746,75.79h-2.479l3.812-8.137l-4.337-8.819h2.531l3.033,6.344L82.21,58.834z"/>
	<path d="M84.691,60.617l4.175-4.102v2.319h3.553v2.002h-3.553v5.497c0,1.284,0.533,1.925,1.6,1.925c0.797,0,1.64-0.264,2.526-0.793
		v2.075c-0.854,0.48-1.786,0.72-2.796,0.72c-1.017,0-1.863-0.297-2.539-0.891c-0.211-0.179-0.386-0.38-0.524-0.604
		c-0.139-0.224-0.255-0.517-0.348-0.879c-0.094-0.362-0.141-1.051-0.141-2.069v-4.98h-1.953V60.617z"/>
	<path d="M93.017,60.617l4.175-4.102v2.319h3.552v2.002h-3.552v5.497c0,1.284,0.533,1.925,1.599,1.925
		c0.798,0,1.641-0.264,2.527-0.793v2.075c-0.854,0.48-1.786,0.72-2.795,0.72c-1.018,0-1.864-0.297-2.539-0.891
		c-0.212-0.179-0.387-0.38-0.525-0.604c-0.139-0.224-0.255-0.517-0.348-0.879c-0.094-0.362-0.141-1.051-0.141-2.069v-4.98h-1.953
		V60.617z"/>
	<path d="M109.972,63.314v4.773c0,0.383,0.131,0.574,0.391,0.574c0.27,0,0.688-0.199,1.258-0.598v1.355
		c-0.505,0.326-0.909,0.547-1.215,0.665c-0.305,0.118-0.624,0.177-0.958,0.177c-0.952,0-1.514-0.374-1.685-1.123
		c-0.944,0.732-1.949,1.099-3.016,1.099c-0.781,0-1.432-0.258-1.953-0.775c-0.521-0.517-0.781-1.166-0.781-1.947
		c0-0.708,0.255-1.341,0.764-1.898c0.508-0.557,1.23-0.999,2.166-1.324l2.845-0.977v-0.598c0-1.351-0.676-2.026-2.026-2.026
		c-1.213,0-2.393,0.627-3.54,1.88v-2.429c0.862-1.017,2.104-1.526,3.724-1.526c1.212,0,2.185,0.317,2.917,0.952
		c0.244,0.204,0.464,0.474,0.659,0.812c0.195,0.337,0.319,0.675,0.372,1.013C109.945,61.729,109.972,62.371,109.972,63.314z
		 M107.787,67.843v-3.333l-1.489,0.574c-0.757,0.301-1.292,0.604-1.605,0.91c-0.313,0.305-0.47,0.686-0.47,1.141
		c0,0.464,0.148,0.842,0.445,1.135s0.682,0.439,1.153,0.439C106.53,68.71,107.185,68.421,107.787,67.843z"/>
</g>
<rect id="_x3C_Slice_x3E__134_" y="27" fill="none" width="97" height="25"/>
</svg>
