<?xml version="1.0" encoding="utf-8"?>
<!-- Generator: Adobe Illustrator 15.1.0, SVG Export Plug-In  -->
<!DOCTYPE svg PUBLIC "-//W3C//DTD SVG 1.1//EN" "http://www.w3.org/Graphics/SVG/1.1/DTD/svg11.dtd" [
	<!ENTITY ns_flows "http://ns.adobe.com/Flows/1.0/">
]>
<svg version="1.1"
	 xmlns="http://www.w3.org/2000/svg" xmlns:xlink="http://www.w3.org/1999/xlink" xmlns:a="http://ns.adobe.com/AdobeSVGViewerExtensions/3.0/"
	 x="0px" y="0px" width="106px" height="25px" viewBox="0 27.92 106 25" enable-background="new 0 27.92 106 25"
	 xml:space="preserve">
<defs>
</defs>
<g>
	<path d="M7.104,13.88l-1.855-1.127c-1.164-0.71-1.992-1.41-2.484-2.097C2.271,9.967,2.025,9.176,2.025,8.281
		c0-1.343,0.466-2.433,1.397-3.271c0.932-0.838,2.143-1.257,3.632-1.257c1.424,0,2.73,0.4,3.919,1.199v2.771
		C9.744,6.541,8.422,5.949,7.006,5.949c-0.798,0-1.452,0.185-1.966,0.553C4.528,6.872,4.271,7.343,4.271,7.919
		c0,0.511,0.188,0.989,0.566,1.435s0.985,0.914,1.822,1.404l1.864,1.104c2.08,1.242,3.12,2.824,3.12,4.744
		c0,1.367-0.458,2.478-1.373,3.333C9.355,20.793,8.165,21.22,6.7,21.22c-1.684,0-3.218-0.518-4.602-1.553v-3.101
		c1.318,1.67,2.844,2.505,4.578,2.505c0.765,0,1.401-0.213,1.91-0.639c0.508-0.426,0.763-0.958,0.763-1.6
		C9.35,15.796,8.601,14.811,7.104,13.88z"/>
	<path d="M15.173,5.07c0.365,0,0.679,0.126,0.939,0.378c0.261,0.252,0.391,0.562,0.391,0.928c0,0.358-0.13,0.667-0.391,0.928
		c-0.261,0.261-0.574,0.391-0.939,0.391c-0.342,0-0.644-0.132-0.904-0.397c-0.26-0.264-0.391-0.571-0.391-0.921
		c0-0.342,0.131-0.645,0.391-0.91C14.529,5.203,14.831,5.07,15.173,5.07z M14.073,9.794h2.223v11.23h-2.223V9.794z"/>
	<path d="M27.001,3.972h2.233v17.053h-4.749c-1.66,0-2.984-0.525-3.973-1.575c-0.989-1.05-1.483-2.458-1.483-4.224
		c0-1.652,0.519-3.011,1.557-4.077c1.037-1.066,2.362-1.599,3.974-1.599c0.748,0,1.563,0.159,2.441,0.476V3.972z M27.001,19.121
		v-7.117c-0.692-0.35-1.393-0.525-2.1-0.525c-1.107,0-1.988,0.362-2.644,1.086c-0.655,0.725-0.982,1.701-0.982,2.93
		c0,1.156,0.285,2.047,0.854,2.673c0.342,0.375,0.704,0.627,1.086,0.757c0.383,0.13,1.07,0.195,2.063,0.195H27.001z"/>
	<path d="M32.2,3.972h2.223v7.3c0.928-1.131,2.079-1.697,3.454-1.697c0.749,0,1.42,0.188,2.015,0.562
		c0.594,0.375,1.035,0.891,1.324,1.55c0.288,0.659,0.434,1.64,0.434,2.942v6.396h-2.223v-6.946c0-0.822-0.201-1.483-0.604-1.983
		c-0.403-0.501-0.934-0.751-1.594-0.751c-0.488,0-0.947,0.126-1.379,0.378c-0.432,0.252-0.907,0.671-1.428,1.257v8.044H32.2V3.972z"
		/>
	<path d="M50.12,9.77c1.709,0,3.13,0.551,4.261,1.654c1.131,1.103,1.696,2.489,1.696,4.157c0,1.62-0.573,2.964-1.721,4.035
		c-1.147,1.07-2.592,1.605-4.334,1.605c-1.684,0-3.092-0.543-4.223-1.629c-1.132-1.087-1.697-2.443-1.697-4.071
		c0-1.644,0.571-3.013,1.715-4.107C46.961,10.317,48.396,9.77,50.12,9.77z M49.999,11.772c-1.066,0-1.941,0.35-2.625,1.05
		c-0.684,0.7-1.025,1.591-1.025,2.673c0,1.074,0.35,1.951,1.05,2.631c0.7,0.679,1.599,1.019,2.698,1.019
		c1.09,0,1.983-0.344,2.679-1.032c0.696-0.688,1.044-1.568,1.044-2.643c0-1.066-0.362-1.949-1.086-2.649
		C52.009,12.122,51.097,11.772,49.999,11.772z"/>
	<path d="M58.397,26.75V9.794h3.89c1.991,0,3.542,0.497,4.651,1.489c1.109,0.993,1.664,2.38,1.664,4.163
		c0,1.685-0.521,3.068-1.565,4.15c-1.045,1.083-2.375,1.624-3.992,1.624c-0.715,0-1.507-0.159-2.376-0.476v6.006H58.397z
		 M62.239,11.87h-1.57v6.909c0.682,0.35,1.396,0.525,2.144,0.525c1.039,0,1.89-0.362,2.552-1.086
		c0.662-0.724,0.992-1.656,0.992-2.795c0-0.732-0.156-1.379-0.469-1.941s-0.738-0.97-1.278-1.227
		C64.069,11.998,63.279,11.87,62.239,11.87z"/>
	<path d="M70.897,26.75V9.794h3.89c1.991,0,3.542,0.497,4.651,1.489c1.109,0.993,1.664,2.38,1.664,4.163
		c0,1.685-0.521,3.068-1.565,4.15c-1.045,1.083-2.375,1.624-3.992,1.624c-0.715,0-1.507-0.159-2.376-0.476v6.006H70.897z
		 M74.739,11.87h-1.57v6.909c0.682,0.35,1.396,0.525,2.144,0.525c1.039,0,1.89-0.362,2.552-1.086
		c0.662-0.724,0.992-1.656,0.992-2.795c0-0.732-0.156-1.379-0.469-1.941s-0.738-0.97-1.278-1.227
		C76.569,11.998,75.779,11.87,74.739,11.87z"/>
</g>
<g>
	<path d="M13.137,28.972h2.964l-6.299,8.032v9.021H7.299v-9.021L1,28.972h2.947l4.563,5.879L13.137,28.972z"/>
	<path d="M16.101,36.577l4.175-4.102v2.319h3.552v2.002h-3.552v5.497c0,1.284,0.533,1.925,1.599,1.925
		c0.798,0,1.641-0.264,2.527-0.793V45.5c-0.854,0.48-1.786,0.72-2.795,0.72c-1.018,0-1.864-0.297-2.539-0.891
		c-0.212-0.179-0.387-0.38-0.525-0.604c-0.139-0.224-0.255-0.517-0.348-0.879c-0.094-0.362-0.141-1.051-0.141-2.069v-4.98h-1.953
		V36.577z"/>
	<path d="M24.425,36.577l4.175-4.102v2.319h3.552v2.002H28.6v5.497c0,1.284,0.533,1.925,1.599,1.925
		c0.798,0,1.641-0.264,2.527-0.793V45.5c-0.854,0.48-1.786,0.72-2.795,0.72c-1.018,0-1.864-0.297-2.539-0.891
		c-0.212-0.179-0.387-0.38-0.525-0.604c-0.139-0.224-0.255-0.517-0.348-0.879c-0.094-0.362-0.141-1.051-0.141-2.069v-4.98h-1.953
		V36.577z"/>
	<path d="M43.896,40.605h-7.897c0.057,1.074,0.417,1.929,1.08,2.563s1.521,0.952,2.569,0.952c1.465,0,2.816-0.456,4.053-1.367v2.173
		c-0.684,0.456-1.36,0.781-2.032,0.977c-0.671,0.195-1.458,0.293-2.362,0.293c-1.236,0-2.237-0.256-3.002-0.769
		c-0.766-0.513-1.378-1.202-1.838-2.069c-0.46-0.866-0.689-1.869-0.689-3.009c0-1.709,0.484-3.099,1.453-4.169
		c0.968-1.07,2.226-1.605,3.771-1.605c1.489,0,2.678,0.521,3.564,1.563c0.887,1.042,1.33,2.438,1.33,4.187V40.605z M36.047,39.274
		h5.651c-0.057-0.887-0.321-1.57-0.793-2.051c-0.472-0.48-1.106-0.72-1.904-0.72s-1.451,0.24-1.959,0.72
		C36.533,37.704,36.201,38.388,36.047,39.274z"/>
	<path d="M48.681,34.794v2.576l0.122-0.195c1.074-1.733,2.148-2.6,3.223-2.6c0.838,0,1.713,0.423,2.624,1.27l-1.172,1.953
		c-0.772-0.732-1.488-1.099-2.148-1.099c-0.716,0-1.336,0.342-1.861,1.025c-0.524,0.684-0.787,1.494-0.787,2.429v5.872h-2.234
		v-11.23H48.681z"/>
	<path d="M56.151,28.972h2.223v7.3c0.928-1.131,2.079-1.697,3.454-1.697c0.749,0,1.42,0.188,2.015,0.562
		c0.594,0.375,1.035,0.891,1.324,1.55c0.288,0.659,0.434,1.64,0.434,2.942v6.396h-2.223v-6.946c0-0.822-0.201-1.483-0.604-1.983
		c-0.403-0.501-0.934-0.751-1.594-0.751c-0.488,0-0.947,0.126-1.379,0.378c-0.432,0.252-0.907,0.671-1.428,1.257v8.044h-2.223
		V28.972z"/>
	<path d="M74.071,34.77c1.709,0,3.13,0.551,4.261,1.654c1.131,1.103,1.696,2.489,1.696,4.157c0,1.62-0.573,2.964-1.721,4.035
		c-1.147,1.07-2.592,1.605-4.334,1.605c-1.684,0-3.092-0.543-4.223-1.629c-1.132-1.087-1.697-2.443-1.697-4.071
		c0-1.644,0.571-3.013,1.715-4.107C70.912,35.317,72.347,34.77,74.071,34.77z M73.95,36.772c-1.066,0-1.941,0.35-2.625,1.05
		c-0.684,0.7-1.025,1.591-1.025,2.673c0,1.074,0.35,1.951,1.05,2.631c0.7,0.679,1.599,1.019,2.698,1.019
		c1.09,0,1.983-0.344,2.679-1.032c0.696-0.688,1.044-1.568,1.044-2.643c0-1.066-0.362-1.949-1.086-2.649
		C75.96,37.122,75.048,36.772,73.95,36.772z"/>
	<path d="M82.347,51.75V34.794h3.89c1.991,0,3.542,0.497,4.651,1.489c1.109,0.993,1.664,2.38,1.664,4.163
		c0,1.685-0.521,3.068-1.565,4.15c-1.045,1.083-2.375,1.624-3.992,1.624c-0.715,0-1.507-0.159-2.376-0.476v6.006H82.347z
		 M86.188,36.87h-1.57v6.909c0.682,0.35,1.396,0.525,2.144,0.525c1.039,0,1.89-0.362,2.552-1.086
		c0.662-0.724,0.992-1.656,0.992-2.795c0-0.732-0.156-1.379-0.469-1.941s-0.738-0.97-1.278-1.227
		C88.019,36.998,87.229,36.87,86.188,36.87z"/>
	<path d="M94.847,51.75V34.794h3.89c1.991,0,3.542,0.497,4.651,1.489c1.109,0.993,1.664,2.38,1.664,4.163
		c0,1.685-0.521,3.068-1.565,4.15c-1.045,1.083-2.375,1.624-3.992,1.624c-0.715,0-1.507-0.159-2.376-0.476v6.006H94.847z
		 M98.688,36.87h-1.57v6.909c0.682,0.35,1.396,0.525,2.144,0.525c1.039,0,1.89-0.362,2.552-1.086
		c0.662-0.724,0.992-1.656,0.992-2.795c0-0.732-0.156-1.379-0.469-1.941s-0.738-0.97-1.278-1.227
		C100.519,36.998,99.729,36.87,98.688,36.87z"/>
</g>
<rect id="_x3C_Slice_x3E__134_" y="27.92" fill="none" width="106" height="25"/>
</svg>
