<?xml version="1.0" encoding="utf-8"?>
<!-- Generator: Adobe Illustrator 15.1.0, SVG Export Plug-In  -->
<!DOCTYPE svg PUBLIC "-//W3C//DTD SVG 1.1//EN" "http://www.w3.org/Graphics/SVG/1.1/DTD/svg11.dtd" [
	<!ENTITY ns_flows "http://ns.adobe.com/Flows/1.0/">
]>
<svg version="1.1"
	 xmlns="http://www.w3.org/2000/svg" xmlns:xlink="http://www.w3.org/1999/xlink" xmlns:a="http://ns.adobe.com/AdobeSVGViewerExtensions/3.0/"
	 x="0px" y="0px" width="77px" height="24px" viewBox="0 27.04 77 24" enable-background="new 0 27.04 77 24" xml:space="preserve">
<defs>
</defs>
<g>
	<path d="M11.097,12.626h5.725v7.227c-2.1,0.912-4.183,1.367-6.25,1.367c-2.824,0-5.08-0.824-6.769-2.472
		c-1.689-1.647-2.533-3.68-2.533-6.097c0-2.547,0.875-4.667,2.624-6.36c1.75-1.692,3.943-2.539,6.58-2.539
		c0.96,0,1.872,0.104,2.734,0.312c0.862,0.207,1.953,0.588,3.271,1.141v2.49c-2.034-1.18-4.053-1.77-6.055-1.77
		c-1.863,0-3.435,0.635-4.712,1.904s-1.917,2.828-1.917,4.675c0,1.937,0.64,3.52,1.917,4.749c1.277,1.229,2.922,1.843,4.932,1.843
		c0.977,0,2.145-0.224,3.503-0.671l0.232-0.073v-3.552h-3.283V12.626z"/>
	<path d="M22.461,9.794v2.576l0.122-0.195c1.074-1.733,2.148-2.6,3.223-2.6c0.838,0,1.713,0.423,2.625,1.27l-1.172,1.953
		c-0.773-0.732-1.49-1.099-2.148-1.099c-0.717,0-1.337,0.342-1.862,1.025c-0.524,0.684-0.787,1.494-0.787,2.429v5.872h-2.233V9.794
		H22.461z"/>
	<path d="M37.134,21.025v-1.44c-0.473,0.517-1.012,0.918-1.618,1.205c-0.606,0.287-1.21,0.431-1.813,0.431
		c-0.708,0-1.361-0.177-1.959-0.531c-0.599-0.354-1.05-0.834-1.355-1.44c-0.305-0.606-0.458-1.613-0.458-3.021V9.794h2.223v6.4
		c0,1.179,0.168,2.001,0.506,2.469s0.93,0.701,1.776,0.701c1.058,0,1.957-0.517,2.698-1.55v-8.02h2.221v11.23H37.134z"/>
	<path d="M42.333,26.75V9.794h3.89c1.991,0,3.542,0.497,4.651,1.489c1.109,0.993,1.664,2.38,1.664,4.163
		c0,1.685-0.521,3.068-1.565,4.15c-1.045,1.083-2.375,1.624-3.992,1.624c-0.715,0-1.507-0.159-2.376-0.476v6.006H42.333z
		 M46.175,11.87h-1.57v6.909c0.682,0.35,1.396,0.525,2.144,0.525c1.039,0,1.89-0.362,2.552-1.086
		c0.662-0.724,0.992-1.656,0.992-2.795c0-0.732-0.156-1.379-0.469-1.941s-0.738-0.97-1.278-1.227
		C48.005,11.998,47.215,11.87,46.175,11.87z"/>
	<path d="M54.833,26.75V9.794h3.89c1.991,0,3.542,0.497,4.651,1.489c1.109,0.993,1.664,2.38,1.664,4.163
		c0,1.685-0.521,3.068-1.565,4.15c-1.045,1.083-2.375,1.624-3.992,1.624c-0.715,0-1.507-0.159-2.376-0.476v6.006H54.833z
		 M58.675,11.87h-1.57v6.909c0.682,0.35,1.396,0.525,2.144,0.525c1.039,0,1.89-0.362,2.552-1.086
		c0.662-0.724,0.992-1.656,0.992-2.795c0-0.732-0.156-1.379-0.469-1.941s-0.738-0.97-1.278-1.227
		C60.505,11.998,59.715,11.87,58.675,11.87z"/>
	<path d="M77.05,15.605h-7.897c0.057,1.074,0.417,1.929,1.08,2.563s1.521,0.952,2.569,0.952c1.465,0,2.816-0.456,4.053-1.367v2.173
		c-0.684,0.456-1.36,0.781-2.032,0.977c-0.671,0.195-1.458,0.293-2.362,0.293c-1.236,0-2.237-0.256-3.002-0.769
		c-0.766-0.513-1.378-1.202-1.838-2.069c-0.46-0.866-0.689-1.869-0.689-3.009c0-1.709,0.484-3.099,1.453-4.169
		c0.968-1.07,2.226-1.605,3.771-1.605c1.489,0,2.678,0.521,3.564,1.563c0.887,1.042,1.33,2.438,1.33,4.187V15.605z M69.201,14.274
		h5.651c-0.057-0.887-0.321-1.57-0.793-2.051c-0.472-0.48-1.106-0.72-1.904-0.72s-1.451,0.24-1.959,0.72
		C69.688,12.704,69.355,13.388,69.201,14.274z"/>
	<path d="M81.836,9.794v2.576l0.122-0.195c1.074-1.733,2.148-2.6,3.223-2.6c0.838,0,1.713,0.423,2.625,1.27l-1.172,1.953
		c-0.773-0.732-1.49-1.099-2.148-1.099c-0.717,0-1.337,0.342-1.862,1.025c-0.524,0.684-0.787,1.494-0.787,2.429v5.872h-2.233V9.794
		H81.836z"/>
	<path d="M96.411,14.274v4.773c0,0.383,0.13,0.574,0.391,0.574c0.268,0,0.688-0.199,1.257-0.598v1.355
		c-0.505,0.326-0.909,0.547-1.215,0.665c-0.305,0.118-0.624,0.177-0.958,0.177c-0.952,0-1.514-0.374-1.685-1.123
		c-0.944,0.732-1.949,1.099-3.015,1.099c-0.781,0-1.433-0.258-1.953-0.775c-0.521-0.517-0.781-1.166-0.781-1.947
		c0-0.708,0.254-1.341,0.763-1.898c0.508-0.557,1.23-0.999,2.167-1.324l2.844-0.977v-0.598c0-1.351-0.676-2.026-2.026-2.026
		c-1.213,0-2.393,0.627-3.54,1.88v-2.429c0.862-1.017,2.104-1.526,3.723-1.526c1.213,0,2.186,0.317,2.918,0.952
		c0.244,0.204,0.464,0.474,0.659,0.812c0.195,0.337,0.319,0.675,0.372,1.013C96.384,12.689,96.411,13.331,96.411,14.274z
		 M94.226,18.803v-3.333l-1.489,0.574c-0.757,0.301-1.292,0.604-1.605,0.91c-0.313,0.305-0.47,0.686-0.47,1.141
		c0,0.464,0.148,0.842,0.445,1.135s0.682,0.439,1.154,0.439C92.968,19.67,93.623,19.381,94.226,18.803z"/>
	<path d="M98.45,11.577l4.175-4.102v2.319h3.552v2.002h-3.552v5.497c0,1.284,0.533,1.925,1.599,1.925
		c0.798,0,1.641-0.264,2.527-0.793V20.5c-0.854,0.48-1.786,0.72-2.795,0.72c-1.018,0-1.864-0.297-2.539-0.891
		c-0.212-0.179-0.387-0.38-0.525-0.604c-0.139-0.224-0.255-0.517-0.348-0.879c-0.094-0.362-0.141-1.051-0.141-2.069v-4.98H98.45
		V11.577z"/>
	<path d="M115.345,3.972h2.221v17.053h-2.221V3.972z"/>
	<path d="M120.753,9.794h2.221v12.83c0,1.945-0.746,3.32-2.239,4.126l-1.654-1.624c0.513-0.179,0.92-0.493,1.221-0.94
		c0.301-0.448,0.452-0.969,0.452-1.563V9.794z M121.802,5.07c0.367,0,0.68,0.128,0.94,0.385c0.261,0.256,0.391,0.563,0.391,0.921
		c0,0.375-0.124,0.688-0.372,0.94c-0.249,0.252-0.56,0.378-0.934,0.378c-0.351,0-0.66-0.13-0.928-0.391
		c-0.27-0.26-0.403-0.569-0.403-0.928c0-0.342,0.132-0.645,0.396-0.91C121.157,5.203,121.46,5.07,121.802,5.07z"/>
	<path d="M133.411,21.025v-1.44c-0.473,0.517-1.012,0.918-1.618,1.205c-0.606,0.287-1.21,0.431-1.813,0.431
		c-0.708,0-1.361-0.177-1.959-0.531c-0.599-0.354-1.05-0.834-1.355-1.44c-0.305-0.606-0.458-1.613-0.458-3.021V9.794h2.223v6.4
		c0,1.179,0.168,2.001,0.506,2.469s0.93,0.701,1.776,0.701c1.058,0,1.957-0.517,2.698-1.55v-8.02h2.221v11.23H133.411z"/>
	<path d="M138.208,20.219v-2.393c0.627,0.439,1.268,0.795,1.923,1.068c0.654,0.273,1.206,0.409,1.653,0.409
		c0.465,0,0.863-0.114,1.197-0.342c0.333-0.228,0.5-0.5,0.5-0.818c0-0.325-0.108-0.596-0.323-0.812
		c-0.216-0.215-0.682-0.526-1.397-0.934c-1.433-0.797-2.371-1.479-2.814-2.045c-0.443-0.565-0.665-1.182-0.665-1.849
		c0-0.862,0.336-1.566,1.007-2.112c0.672-0.545,1.536-0.818,2.594-0.818c1.1,0,2.227,0.31,3.382,0.928V12.7
		c-1.318-0.797-2.396-1.196-3.235-1.196c-0.431,0-0.779,0.092-1.043,0.275c-0.265,0.184-0.396,0.426-0.396,0.727
		c0,0.261,0.119,0.51,0.358,0.746c0.24,0.236,0.661,0.521,1.264,0.854l0.794,0.452c1.872,1.058,2.809,2.229,2.809,3.515
		c0,0.919-0.36,1.674-1.081,2.264c-0.72,0.59-1.646,0.885-2.776,0.885c-0.668,0-1.262-0.071-1.783-0.213
		C139.652,20.864,138.997,20.602,138.208,20.219z"/>
	<path d="M148.327,3.972h2.223v7.3c0.928-1.131,2.079-1.697,3.454-1.697c0.749,0,1.42,0.188,2.015,0.562
		c0.594,0.375,1.035,0.891,1.324,1.55c0.288,0.659,0.434,1.64,0.434,2.942v6.396h-2.223v-6.946c0-0.822-0.201-1.483-0.604-1.983
		c-0.403-0.501-0.934-0.751-1.594-0.751c-0.488,0-0.947,0.126-1.379,0.378c-0.432,0.252-0.907,0.671-1.428,1.257v8.044h-2.223V3.972
		z"/>
	<path d="M166.247,9.77c1.709,0,3.13,0.551,4.261,1.654c1.131,1.103,1.696,2.489,1.696,4.157c0,1.62-0.573,2.964-1.721,4.035
		c-1.147,1.07-2.592,1.605-4.334,1.605c-1.684,0-3.092-0.543-4.223-1.629c-1.132-1.087-1.697-2.443-1.697-4.071
		c0-1.644,0.571-3.013,1.715-4.107C163.088,10.317,164.522,9.77,166.247,9.77z M166.126,11.772c-1.066,0-1.941,0.35-2.625,1.05
		c-0.684,0.7-1.025,1.591-1.025,2.673c0,1.074,0.35,1.951,1.05,2.631c0.7,0.679,1.599,1.019,2.698,1.019
		c1.09,0,1.983-0.344,2.679-1.032c0.696-0.688,1.044-1.568,1.044-2.643c0-1.066-0.362-1.949-1.086-2.649
		C168.136,12.122,167.224,11.772,166.126,11.772z"/>
	<path d="M174.524,26.75V9.794h3.889c1.991,0,3.542,0.497,4.651,1.489c1.109,0.993,1.665,2.38,1.665,4.163
		c0,1.685-0.522,3.068-1.566,4.15c-1.045,1.083-2.375,1.624-3.992,1.624c-0.715,0-1.507-0.159-2.377-0.476v6.006H174.524z
		 M178.365,11.87h-1.571v6.909c0.683,0.35,1.397,0.525,2.145,0.525c1.039,0,1.89-0.362,2.552-1.086
		c0.662-0.724,0.993-1.656,0.993-2.795c0-0.732-0.157-1.379-0.47-1.941s-0.738-0.97-1.278-1.227
		C180.195,11.998,179.405,11.87,178.365,11.87z"/>
	<path d="M187.024,26.75V9.794h3.889c1.991,0,3.542,0.497,4.651,1.489c1.109,0.993,1.665,2.38,1.665,4.163
		c0,1.685-0.522,3.068-1.566,4.15c-1.045,1.083-2.375,1.624-3.992,1.624c-0.715,0-1.507-0.159-2.377-0.476v6.006H187.024z
		 M190.865,11.87h-1.571v6.909c0.683,0.35,1.397,0.525,2.145,0.525c1.039,0,1.89-0.362,2.552-1.086
		c0.662-0.724,0.993-1.656,0.993-2.795c0-0.732-0.157-1.379-0.47-1.941s-0.738-0.97-1.278-1.227
		C192.695,11.998,191.905,11.87,190.865,11.87z"/>
</g>
<g>
	<path d="M14.225,28.012h2.95l-6.822,8.225l7.299,8.828h-2.949l-5.808-7.069l-5.863,7.069H0.049l7.339-8.829l-6.814-8.224h2.98
		l5.352,6.513L14.225,28.012z"/>
	<path d="M18.701,38.339h6.079v2.38h-6.079V38.339z"/>
	<path d="M27.308,28.012h2.221v7.3c0.928-1.131,2.08-1.697,3.455-1.697c0.749,0,1.42,0.188,2.014,0.562
		c0.595,0.375,1.036,0.891,1.325,1.55c0.288,0.659,0.433,1.64,0.433,2.942v6.396h-2.221v-6.946c0-0.822-0.202-1.483-0.604-1.983
		c-0.403-0.501-0.935-0.751-1.593-0.751c-0.488,0-0.948,0.126-1.38,0.378c-0.432,0.252-0.907,0.671-1.429,1.257v8.044h-2.221V28.012
		z"/>
	<path d="M45.228,33.81c1.709,0,3.129,0.551,4.26,1.654c1.131,1.103,1.697,2.489,1.697,4.157c0,1.62-0.574,2.964-1.722,4.035
		c-1.147,1.07-2.592,1.605-4.333,1.605c-1.686,0-3.093-0.543-4.225-1.629c-1.131-1.087-1.696-2.443-1.696-4.071
		c0-1.644,0.571-3.013,1.715-4.107C42.067,34.357,43.502,33.81,45.228,33.81z M45.104,35.812c-1.065,0-1.94,0.35-2.624,1.05
		c-0.684,0.7-1.025,1.591-1.025,2.673c0,1.074,0.35,1.951,1.05,2.631c0.7,0.679,1.6,1.019,2.697,1.019
		c1.091,0,1.984-0.344,2.68-1.032c0.696-0.688,1.044-1.568,1.044-2.643c0-1.066-0.362-1.949-1.087-2.649
		C47.115,36.162,46.204,35.812,45.104,35.812z"/>
	<path d="M53.503,50.79V33.834h3.89c1.991,0,3.542,0.497,4.651,1.489c1.109,0.993,1.664,2.38,1.664,4.163
		c0,1.685-0.521,3.068-1.565,4.15c-1.045,1.083-2.375,1.624-3.992,1.624c-0.715,0-1.507-0.159-2.376-0.476v6.006H53.503z
		 M57.345,35.91h-1.57v6.909c0.682,0.35,1.396,0.525,2.144,0.525c1.039,0,1.89-0.362,2.552-1.086
		c0.662-0.724,0.992-1.656,0.992-2.795c0-0.732-0.156-1.379-0.469-1.941s-0.738-0.97-1.278-1.227
		C59.175,36.038,58.385,35.91,57.345,35.91z"/>
	<path d="M66.003,50.79V33.834h3.89c1.991,0,3.542,0.497,4.651,1.489c1.109,0.993,1.664,2.38,1.664,4.163
		c0,1.685-0.521,3.068-1.565,4.15c-1.045,1.083-2.375,1.624-3.992,1.624c-0.715,0-1.507-0.159-2.376-0.476v6.006H66.003z
		 M69.845,35.91h-1.57v6.909c0.682,0.35,1.396,0.525,2.144,0.525c1.039,0,1.89-0.362,2.552-1.086
		c0.662-0.724,0.992-1.656,0.992-2.795c0-0.732-0.156-1.379-0.469-1.941s-0.738-0.97-1.278-1.227
		C71.675,36.038,70.885,35.91,69.845,35.91z"/>
</g>
<g>
	<path d="M1.745,70.065V52.987h5.408c1.628,0,2.926,0.439,3.895,1.318c0.968,0.879,1.452,2.059,1.452,3.54
		c0,0.993-0.248,1.872-0.745,2.637c-0.496,0.765-1.176,1.32-2.038,1.666c-0.862,0.346-2.1,0.519-3.711,0.519H4.199v7.397H1.745z
		 M6.726,55.16H4.199v5.334h2.673c0.993,0,1.758-0.234,2.295-0.702c0.537-0.468,0.807-1.137,0.807-2.008
		C9.974,56.035,8.891,55.16,6.726,55.16z"/>
	<path d="M15.466,54.11c0.367,0,0.68,0.126,0.94,0.378c0.261,0.252,0.391,0.562,0.391,0.928c0,0.358-0.13,0.667-0.391,0.928
		c-0.261,0.261-0.573,0.391-0.94,0.391c-0.342,0-0.643-0.132-0.902-0.397c-0.261-0.264-0.391-0.571-0.391-0.921
		c0-0.342,0.13-0.645,0.391-0.91C14.823,54.243,15.124,54.11,15.466,54.11z M14.368,58.834h2.221v11.23h-2.221V58.834z"/>
	<path d="M19.8,53.012h2.223v17.053H19.8V53.012z M27.111,58.834h2.638l-4.792,5.493l5.769,5.737h-2.98l-5.625-5.731L27.111,58.834z
		"/>
	<path d="M40.601,64.645h-7.897c0.057,1.074,0.417,1.929,1.08,2.563s1.521,0.952,2.569,0.952c1.465,0,2.816-0.456,4.053-1.367v2.173
		c-0.684,0.456-1.36,0.781-2.032,0.977c-0.671,0.195-1.458,0.293-2.362,0.293c-1.236,0-2.237-0.256-3.002-0.769
		c-0.766-0.513-1.378-1.202-1.838-2.069c-0.46-0.866-0.689-1.869-0.689-3.009c0-1.709,0.484-3.099,1.453-4.169
		c0.968-1.07,2.226-1.605,3.771-1.605c1.489,0,2.678,0.521,3.564,1.563c0.887,1.042,1.33,2.438,1.33,4.187V64.645z M32.752,63.314
		h5.651c-0.057-0.887-0.321-1.57-0.793-2.051c-0.472-0.48-1.106-0.72-1.904-0.72s-1.451,0.24-1.959,0.72
		C33.238,61.744,32.906,62.428,32.752,63.314z"/>
	<path d="M45.386,58.834v2.576l0.122-0.195c1.074-1.733,2.148-2.6,3.223-2.6c0.838,0,1.713,0.423,2.624,1.27l-1.172,1.953
		c-0.772-0.732-1.488-1.099-2.148-1.099c-0.716,0-1.336,0.342-1.861,1.025c-0.524,0.684-0.787,1.494-0.787,2.429v5.872h-2.234
		v-11.23H45.386z"/>
	<path d="M59.962,63.314v4.773c0,0.383,0.13,0.574,0.391,0.574c0.268,0,0.688-0.199,1.257-0.598v1.355
		c-0.505,0.326-0.909,0.547-1.215,0.665c-0.305,0.118-0.624,0.177-0.958,0.177c-0.952,0-1.514-0.374-1.685-1.123
		c-0.944,0.732-1.949,1.099-3.015,1.099c-0.781,0-1.433-0.258-1.953-0.775c-0.521-0.517-0.781-1.166-0.781-1.947
		c0-0.708,0.254-1.341,0.763-1.898c0.508-0.557,1.23-0.999,2.167-1.324l2.844-0.977v-0.598c0-1.351-0.676-2.026-2.026-2.026
		c-1.213,0-2.393,0.627-3.54,1.88v-2.429c0.862-1.017,2.104-1.526,3.723-1.526c1.213,0,2.186,0.317,2.918,0.952
		c0.244,0.204,0.464,0.474,0.659,0.812c0.195,0.337,0.319,0.675,0.372,1.013C59.935,61.729,59.962,62.371,59.962,63.314z
		 M57.776,67.843v-3.333l-1.489,0.574c-0.757,0.301-1.292,0.604-1.605,0.91c-0.313,0.305-0.47,0.686-0.47,1.141
		c0,0.464,0.148,0.842,0.445,1.135s0.682,0.439,1.154,0.439C56.519,68.71,57.174,68.421,57.776,67.843z"/>
	<path d="M61.999,60.617l4.175-4.102v2.319h3.552v2.002h-3.552v5.497c0,1.284,0.533,1.925,1.599,1.925
		c0.798,0,1.641-0.264,2.527-0.793v2.075c-0.854,0.48-1.786,0.72-2.795,0.72c-1.018,0-1.864-0.297-2.539-0.891
		c-0.212-0.179-0.387-0.38-0.525-0.604c-0.139-0.224-0.255-0.517-0.348-0.879c-0.094-0.362-0.141-1.051-0.141-2.069v-4.98h-1.953
		V60.617z"/>
	<path d="M78.271,62.716c0-1.196,0.438-2.142,1.313-2.838c0.874-0.695,2.069-1.043,3.583-1.043h4.626v1.733h-2.271
		c0.439,0.448,0.744,0.854,0.916,1.221c0.17,0.366,0.256,0.786,0.256,1.257c0,0.586-0.167,1.162-0.5,1.728
		c-0.334,0.565-0.764,0.999-1.288,1.3c-0.525,0.301-1.386,0.542-2.582,0.72c-0.838,0.122-1.257,0.411-1.257,0.867
		c0,0.261,0.156,0.474,0.47,0.641c0.313,0.167,0.881,0.34,1.702,0.519c1.376,0.301,2.261,0.537,2.655,0.708s0.751,0.415,1.068,0.732
		c0.537,0.537,0.806,1.212,0.806,2.026c0,1.066-0.475,1.917-1.422,2.551c-0.948,0.635-2.216,0.952-3.803,0.952
		c-1.604,0-2.883-0.319-3.839-0.958c-0.957-0.639-1.435-1.496-1.435-2.57c0-1.522,0.939-2.502,2.82-2.942
		c-0.749-0.48-1.123-0.956-1.123-1.428c0-0.358,0.16-0.684,0.481-0.977s0.755-0.508,1.3-0.647
		C79.098,65.536,78.271,64.352,78.271,62.716z M81.921,70.59c-0.748,0-1.36,0.159-1.837,0.476c-0.476,0.317-0.714,0.724-0.714,1.221
		c0,1.155,1.042,1.733,3.125,1.733c0.984,0,1.747-0.145,2.289-0.433c0.541-0.289,0.812-0.698,0.812-1.227
		c0-0.521-0.342-0.946-1.025-1.276C83.887,70.755,83.004,70.59,81.921,70.59z M82.446,60.763c-0.603,0-1.115,0.204-1.538,0.61
		c-0.423,0.407-0.635,0.896-0.635,1.465c0,0.578,0.208,1.056,0.622,1.434c0.416,0.379,0.94,0.568,1.575,0.568
		c0.627,0,1.149-0.193,1.568-0.58c0.419-0.387,0.629-0.869,0.629-1.447c0-0.586-0.212-1.074-0.635-1.465
		S83.081,60.763,82.446,60.763z"/>
	<path d="M91.895,58.834v2.576l0.122-0.195c1.074-1.733,2.148-2.6,3.223-2.6c0.838,0,1.713,0.423,2.625,1.27l-1.172,1.953
		c-0.773-0.732-1.49-1.099-2.148-1.099c-0.717,0-1.337,0.342-1.862,1.025c-0.524,0.684-0.787,1.494-0.787,2.429v5.872h-2.233v-11.23
		H91.895z"/>
	<path d="M108.483,64.645h-7.897c0.057,1.074,0.417,1.929,1.08,2.563s1.521,0.952,2.569,0.952c1.465,0,2.816-0.456,4.053-1.367
		v2.173c-0.684,0.456-1.36,0.781-2.032,0.977c-0.671,0.195-1.458,0.293-2.362,0.293c-1.236,0-2.237-0.256-3.002-0.769
		c-0.766-0.513-1.378-1.202-1.838-2.069c-0.46-0.866-0.689-1.869-0.689-3.009c0-1.709,0.484-3.099,1.453-4.169
		c0.968-1.07,2.226-1.605,3.771-1.605c1.489,0,2.678,0.521,3.564,1.563c0.887,1.042,1.33,2.438,1.33,4.187V64.645z M100.635,63.314
		h5.651c-0.057-0.887-0.321-1.57-0.793-2.051c-0.472-0.48-1.106-0.72-1.904-0.72s-1.451,0.24-1.959,0.72
		C101.121,61.744,100.789,62.428,100.635,63.314z"/>
	<path d="M113.11,58.834v1.428c0.992-1.099,2.119-1.648,3.381-1.648c0.7,0,1.351,0.181,1.953,0.543
		c0.603,0.362,1.06,0.858,1.373,1.489c0.313,0.63,0.471,1.629,0.471,2.997v6.421h-2.223v-6.396c0-1.147-0.175-1.967-0.524-2.459
		c-0.35-0.493-0.936-0.739-1.758-0.739c-1.05,0-1.94,0.525-2.673,1.575v8.02h-2.271v-11.23H113.11z"/>
	<path d="M123.339,53.012h2.223v7.3c0.928-1.131,2.079-1.697,3.454-1.697c0.749,0,1.42,0.188,2.015,0.562
		c0.594,0.375,1.035,0.891,1.324,1.55c0.288,0.659,0.434,1.64,0.434,2.942v6.396h-2.223v-6.946c0-0.822-0.201-1.483-0.604-1.983
		c-0.403-0.501-0.934-0.751-1.594-0.751c-0.488,0-0.947,0.126-1.379,0.378c-0.432,0.252-0.907,0.671-1.428,1.257v8.044h-2.223
		V53.012z"/>
	<path d="M141.259,58.81c1.709,0,3.13,0.551,4.261,1.654c1.131,1.103,1.696,2.489,1.696,4.157c0,1.62-0.573,2.964-1.721,4.035
		c-1.147,1.07-2.592,1.605-4.334,1.605c-1.684,0-3.092-0.543-4.223-1.629c-1.132-1.087-1.697-2.443-1.697-4.071
		c0-1.644,0.571-3.013,1.715-4.107C138.1,59.357,139.534,58.81,141.259,58.81z M141.138,60.812c-1.066,0-1.941,0.35-2.625,1.05
		c-0.684,0.7-1.025,1.591-1.025,2.673c0,1.074,0.35,1.951,1.05,2.631c0.7,0.679,1.599,1.019,2.698,1.019
		c1.09,0,1.983-0.344,2.679-1.032c0.696-0.688,1.044-1.568,1.044-2.643c0-1.066-0.362-1.949-1.086-2.649
		C143.147,61.162,142.235,60.812,141.138,60.812z"/>
	<path d="M149.536,75.79V58.834h3.89c1.991,0,3.542,0.497,4.651,1.489c1.109,0.993,1.664,2.38,1.664,4.163
		c0,1.685-0.521,3.068-1.565,4.15c-1.045,1.083-2.375,1.624-3.992,1.624c-0.715,0-1.507-0.159-2.376-0.476v6.006H149.536z
		 M153.378,60.91h-1.57v6.909c0.682,0.35,1.396,0.525,2.144,0.525c1.039,0,1.89-0.362,2.552-1.086
		c0.662-0.724,0.992-1.656,0.992-2.795c0-0.732-0.156-1.379-0.469-1.941s-0.738-0.97-1.278-1.227
		C155.208,61.038,154.418,60.91,153.378,60.91z"/>
	<path d="M162.036,75.79V58.834h3.89c1.991,0,3.542,0.497,4.651,1.489c1.109,0.993,1.664,2.38,1.664,4.163
		c0,1.685-0.521,3.068-1.565,4.15c-1.045,1.083-2.375,1.624-3.992,1.624c-0.715,0-1.507-0.159-2.376-0.476v6.006H162.036z
		 M165.878,60.91h-1.57v6.909c0.682,0.35,1.396,0.525,2.144,0.525c1.039,0,1.89-0.362,2.552-1.086
		c0.662-0.724,0.992-1.656,0.992-2.795c0-0.732-0.156-1.379-0.469-1.941s-0.738-0.97-1.278-1.227
		C167.708,61.038,166.918,60.91,165.878,60.91z"/>
</g>
<rect id="_x3C_Slice_x3E__135_" y="27.04" fill="none" width="76.5" height="24.167"/>
</svg>
