<?xml version="1.0" encoding="utf-8"?>
<!-- Generator: Adobe Illustrator 15.1.0, SVG Export Plug-In  -->
<!DOCTYPE svg PUBLIC "-//W3C//DTD SVG 1.1//EN" "http://www.w3.org/Graphics/SVG/1.1/DTD/svg11.dtd" [
	<!ENTITY ns_flows "http://ns.adobe.com/Flows/1.0/">
]>
<svg version="1.1"
	 xmlns="http://www.w3.org/2000/svg" xmlns:xlink="http://www.w3.org/1999/xlink" xmlns:a="http://ns.adobe.com/AdobeSVGViewerExtensions/3.0/"
	 x="0px" y="0px" width="24px" height="24px" viewBox="-0.402 -0.333 24 24" enable-background="new -0.402 -0.333 24 24"
	 xml:space="preserve">
<defs>
</defs>
<g>
	<g>
		<path d="M2.393,22.256C8.334,15.669,14.51,9.314,21.578,3.922c1.138-0.867,0.02-2.823-1.135-1.942
			C13.213,7.495,6.881,13.925,0.803,20.665C-0.166,21.739,1.42,23.335,2.393,22.256L2.393,22.256z"/>
	</g>
</g>
<g>
	<g>
		<path d="M3.15,2.315C9.5,8.517,15.588,14.938,20.699,22.219c0.826,1.178,2.777,0.055,1.941-1.136
			C17.42,13.646,11.229,7.061,4.74,0.724C3.703-0.29,2.11,1.3,3.15,2.315L3.15,2.315z"/>
	</g>
</g>
<rect id="_x3C_Slice_x3E__118_" fill="none" width="23.098" height="22.833"/>
</svg>
