<?xml version="1.0" encoding="utf-8"?>
<!-- Generator: Adobe Illustrator 15.1.0, SVG Export Plug-In  -->
<!DOCTYPE svg PUBLIC "-//W3C//DTD SVG 1.1//EN" "http://www.w3.org/Graphics/SVG/1.1/DTD/svg11.dtd" [
	<!ENTITY ns_flows "http://ns.adobe.com/Flows/1.0/">
]>
<svg version="1.1"
	 xmlns="http://www.w3.org/2000/svg" xmlns:xlink="http://www.w3.org/1999/xlink" xmlns:a="http://ns.adobe.com/AdobeSVGViewerExtensions/3.0/"
	 x="0px" y="0px" width="45px" height="19px" viewBox="-0.735 0 45 19" enable-background="new -0.735 0 45 19"
	 xml:space="preserve">
<defs>
</defs>
<g>
	<g>
		<path d="M2.653,17.551C3.005,9.288,9.08,3.212,17.344,2.86c8.255-0.351,14.361,6.958,14.69,14.691c0.062,1.445,2.312,1.451,2.25,0
			C33.88,8.036,26.859,1.015,17.344,0.61C7.838,0.206,0.782,8.643,0.403,17.551C0.342,19.002,2.592,18.997,2.653,17.551
			L2.653,17.551z"/>
	</g>
</g>
<g>
	<g>
		<path d="M34.094,17.935c0.294-1,1.269-2.017,2.215-0.793c0.493,0.638,1.082,1.055,1.872,1.216c1.99,0.405,3.244-1.19,4.433-2.452
			c0.663-0.703-0.396-1.766-1.061-1.061c-0.869,0.922-1.945,2.608-3.491,1.921c-1.008-0.448-1.231-1.631-2.423-1.951
			c-1.728-0.463-2.614,1.436-2.992,2.721C32.373,18.466,33.821,18.861,34.094,17.935L34.094,17.935z"/>
	</g>
</g>
<rect id="_x3C_Slice_x3E__146_" fill="none" width="43.591" height="18.833"/>
</svg>
