<?xml version="1.0" encoding="utf-8"?>
<!-- Generator: Adobe Illustrator 15.1.0, SVG Export Plug-In  -->
<!DOCTYPE svg PUBLIC "-//W3C//DTD SVG 1.1//EN" "http://www.w3.org/Graphics/SVG/1.1/DTD/svg11.dtd" [
	<!ENTITY ns_flows "http://ns.adobe.com/Flows/1.0/">
]>
<svg version="1.1"
	 xmlns="http://www.w3.org/2000/svg" xmlns:xlink="http://www.w3.org/1999/xlink" xmlns:a="http://ns.adobe.com/AdobeSVGViewerExtensions/3.0/"
	 x="0px" y="0px" width="15px" height="26px" viewBox="17.561 0 15 26" enable-background="new 17.561 0 15 26"
	 xml:space="preserve">
<defs>
</defs>
<g>
	<g>
		<path d="M21.021,5.59c0,6.097,0,12.194,0,18.291c0,0.967,1.5,0.967,1.5,0c0-6.097,0-12.194,0-18.291
			C22.521,4.623,21.021,4.623,21.021,5.59L21.021,5.59z"/>
	</g>
</g>
<g>
	<g>
		<path d="M22.368,15.399c3.094-3.093,6.187-6.186,9.28-9.279c0.685-0.685-0.376-1.745-1.061-1.061
			c-3.094,3.093-6.187,6.186-9.28,9.279C20.623,15.023,21.684,16.084,22.368,15.399L22.368,15.399z"/>
	</g>
</g>
<g>
	<g>
		<path d="M23.021,3.59c-0.087,1.612-2.413,1.612-2.5,0C20.435,1.977,22.936,1.986,23.021,3.59c0.052,0.962,1.552,0.967,1.5,0
			c-0.084-1.554-1.195-2.667-2.75-2.75c-1.551-0.083-2.673,1.322-2.75,2.75c-0.084,1.551,1.321,2.673,2.75,2.75
			c1.551,0.083,2.673-1.322,2.75-2.75C24.573,2.624,23.073,2.628,23.021,3.59z"/>
	</g>
</g>
<g>
	<g>
		<path d="M22.562,24.08c0.281-0.96,1.202-1.938,2.113-0.76c0.481,0.622,1.059,1.029,1.829,1.186
			c1.941,0.395,3.163-1.154,4.323-2.386c0.662-0.704-0.396-1.766-1.061-1.061c-0.835,0.886-1.876,2.522-3.362,1.862
			c-0.979-0.435-1.198-1.584-2.358-1.896c-1.69-0.454-2.562,1.396-2.932,2.657C20.842,24.612,22.289,25.006,22.562,24.08
			L22.562,24.08z"/>
	</g>
</g>
<rect id="_x3C_Slice_x3E__129_" fill="none" width="17.584" height="32"/>
<rect id="_x3C_Slice_x3E__128_" x="18" fill="none" width="15" height="26"/>
</svg>
