<?xml version="1.0" encoding="utf-8"?>
<!-- Generator: Adobe Illustrator 15.1.0, SVG Export Plug-In  -->
<!DOCTYPE svg PUBLIC "-//W3C//DTD SVG 1.1//EN" "http://www.w3.org/Graphics/SVG/1.1/DTD/svg11.dtd" [
	<!ENTITY ns_flows "http://ns.adobe.com/Flows/1.0/">
]>
<svg version="1.1"
	 xmlns="http://www.w3.org/2000/svg" xmlns:xlink="http://www.w3.org/1999/xlink" xmlns:a="http://ns.adobe.com/AdobeSVGViewerExtensions/3.0/"
	 x="0px" y="0px" width="17px" height="41px" viewBox="15.561 31 17 41" enable-background="new 15.561 31 17 41"
	 xml:space="preserve">
<defs>
</defs>
<g>
	<g>
		<path d="M28.028,43.168c-0.041,2.613-0.452,10.19-4.277,10.491c-1.659,0.13-2.701-2.381-3.168-3.576
			c-0.855-2.185-1.071-4.592-1.107-6.915c-0.015-0.966-1.516-0.968-1.5,0c0.058,3.69,0.765,11.597,5.775,11.991
			c1.743,0.137,3.063-1.599,3.829-2.908c1.563-2.669,1.9-6.058,1.948-9.083C29.544,42.2,28.043,42.202,28.028,43.168L28.028,43.168z
			"/>
	</g>
</g>
<g>
	<g>
		<path d="M30.028,41.168c-0.087,1.612-2.413,1.612-2.5,0C27.441,39.555,29.941,39.563,30.028,41.168c0.052,0.962,1.552,0.967,1.5,0
			c-0.084-1.554-1.196-2.667-2.75-2.75c-1.551-0.083-2.673,1.322-2.75,2.75c-0.083,1.551,1.321,2.673,2.75,2.75
			c1.551,0.083,2.673-1.322,2.75-2.75C31.58,40.201,30.08,40.206,30.028,41.168z"/>
	</g>
</g>
<g>
	<g>
		<path d="M23.002,54.408c0,3.197,0,6.395,0,9.592c0,0.967,1.5,0.967,1.5,0c0-3.197,0-6.395,0-9.592
			C24.502,53.441,23.002,53.441,23.002,54.408L23.002,54.408z"/>
	</g>
</g>
<g>
	<g>
		<path d="M28.028,32.543c0,2.208,0,4.417,0,6.625c0,0.967,1.5,0.967,1.5,0c0-2.208,0-4.417,0-6.625
			C29.528,31.576,28.028,31.576,28.028,32.543L28.028,32.543z"/>
	</g>
</g>
<g>
	<g>
		<path d="M23.584,64.723c0.295,0.1,0.59,0.202,0.877,0.323c1.057,0.446-0.347,1.143-0.682,1.343
			c-0.713,0.424-1.021,1.094-1.057,1.896c-0.092,2.052,1.732,2.849,3.485,2.809c0.966-0.022,0.968-1.522,0-1.5
			c-1.075,0.024-1.874-0.129-1.985-1.309c-0.057-0.602,0.727-0.839,1.154-1.047c0.44-0.215,0.742-0.529,0.986-0.945
			c0.939-1.604-1.242-2.633-2.381-3.017C23.063,62.967,22.672,64.416,23.584,64.723L23.584,64.723z"/>
	</g>
</g>
<rect id="_x3C_Slice_x3E__131_" fill="none" width="15.875" height="31.625"/>
<rect id="_x3C_Slice_x3E__130_" y="32" fill="none" width="16" height="41"/>
<rect id="_x3C_Slice_x3E__129_" x="16" y="31" fill="none" width="17" height="41"/>
</svg>
