<?xml version="1.0" encoding="utf-8"?>
<!-- Generator: Adobe Illustrator 15.1.0, SVG Export Plug-In  -->
<!DOCTYPE svg PUBLIC "-//W3C//DTD SVG 1.1//EN" "http://www.w3.org/Graphics/SVG/1.1/DTD/svg11.dtd" [
	<!ENTITY ns_flows "http://ns.adobe.com/Flows/1.0/">
]>
<svg version="1.1"
	 xmlns="http://www.w3.org/2000/svg" xmlns:xlink="http://www.w3.org/1999/xlink" xmlns:a="http://ns.adobe.com/AdobeSVGViewerExtensions/3.0/"
	 x="0px" y="0px" width="9px" height="25px" viewBox="-0.439 0 9 25" enable-background="new -0.439 0 9 25" xml:space="preserve">
<defs>
</defs>
<g>
	<g>
		<path d="M0.667,1.715c0,7.055,0,14.111,0,21.166c0,0.967,1.5,0.967,1.5,0c0-7.055,0-14.111,0-21.166
			C2.167,0.748,0.667,0.748,0.667,1.715L0.667,1.715z"/>
	</g>
</g>
<g>
	<g>
		<path d="M2.131,17.462c1.437-2.536,2.873-5.071,4.309-7.607c0.478-0.843-0.818-1.598-1.295-0.757
			c-1.437,2.536-2.873,5.071-4.309,7.607C0.358,17.548,1.654,18.304,2.131,17.462L2.131,17.462z"/>
	</g>
</g>
<g>
	<g>
		<path d="M2.207,22.69c0.151-0.518,0.457-1.052,0.969-0.389c0.341,0.44,0.774,0.737,1.32,0.848c1.388,0.282,2.262-0.748,3.102-1.64
			c0.662-0.704-0.396-1.766-1.061-1.061c-0.441,0.469-1.108,1.545-1.91,1.188c-0.31-0.137-0.567-0.628-0.793-0.868
			c-0.216-0.229-0.533-0.33-0.825-0.409c-1.264-0.339-1.962,0.957-2.249,1.932C0.487,23.222,1.935,23.617,2.207,22.69L2.207,22.69z"
			/>
	</g>
</g>
<g>
	<g>
		<path d="M1.683,11.15c1.389-0.325,2.777-0.65,4.166-0.975c0.942-0.22,0.542-1.667-0.398-1.446
			c-1.389,0.325-2.777,0.65-4.166,0.975C0.342,9.924,0.742,11.371,1.683,11.15L1.683,11.15z"/>
	</g>
</g>
<rect id="_x3C_Slice_x3E__128_" fill="none" width="8.584" height="25"/>
</svg>
