<?xml version="1.0" encoding="utf-8"?>
<!-- Generator: Adobe Illustrator 15.1.0, SVG Export Plug-In  -->
<!DOCTYPE svg PUBLIC "-//W3C//DTD SVG 1.1//EN" "http://www.w3.org/Graphics/SVG/1.1/DTD/svg11.dtd" [
	<!ENTITY ns_flows "http://ns.adobe.com/Flows/1.0/">
]>
<svg version="1.1"
	 xmlns="http://www.w3.org/2000/svg" xmlns:xlink="http://www.w3.org/1999/xlink" xmlns:a="http://ns.adobe.com/AdobeSVGViewerExtensions/3.0/"
	 x="0px" y="0px" width="20px" height="26px" viewBox="-0.439 -0.667 20 26" enable-background="new -0.439 -0.667 20 26"
	 xml:space="preserve">
<defs>
</defs>
<g>
	<g>
		<path d="M8.318,9.202c0,3.333,0,6.667,0,10c0,0.967,1.5,0.967,1.5,0c0-3.333,0-6.667,0-10C9.818,8.234,8.318,8.234,8.318,9.202
			L8.318,9.202z"/>
	</g>
</g>
<g>
	<g>
		<path d="M9.599,8.671C8.128,7.2,6.658,5.729,5.188,4.258C4.503,3.573,3.442,4.634,4.127,5.318c1.471,1.471,2.94,2.942,4.411,4.414
			C9.223,10.417,10.283,9.356,9.599,8.671L9.599,8.671z"/>
	</g>
</g>
<g>
	<g>
		<path d="M6.146,22.295c1.948,0,3.897,0,5.846,0c0.967,0,0.967-1.5,0-1.5c-1.948,0-3.897,0-5.846,0
			C5.179,20.795,5.179,22.295,6.146,22.295L6.146,22.295z"/>
	</g>
</g>
<g>
	<g>
		<path d="M6.146,24.581c1.948,0,3.897,0,5.846,0c0.967,0,0.967-1.5,0-1.5c-1.948,0-3.897,0-5.846,0
			C5.179,23.081,5.179,24.581,6.146,24.581L6.146,24.581z"/>
	</g>
</g>
<g>
	<g>
		<path d="M4.569,3.163c-0.087,1.612-2.413,1.612-2.5,0C1.982,1.549,4.482,1.558,4.569,3.163c0.052,0.962,1.552,0.967,1.5,0
			c-0.084-1.554-1.196-2.667-2.75-2.75c-1.551-0.083-2.673,1.322-2.75,2.75c-0.083,1.551,1.321,2.673,2.75,2.75
			c1.551,0.083,2.673-1.322,2.75-2.75C6.121,2.196,4.621,2.201,4.569,3.163z"/>
	</g>
</g>
<g>
	<g>
		<path d="M9.068,9.952c3.333,0,6.667,0,10,0c0.967,0,0.967-1.5,0-1.5c-3.333,0-6.667,0-10,0C8.102,8.452,8.102,9.952,9.068,9.952
			L9.068,9.952z"/>
	</g>
</g>
<rect id="_x3C_Slice_x3E__129_" fill="none" width="19.935" height="24.522"/>
</svg>
