<?xml version="1.0" encoding="utf-8"?>
<!-- Generator: Adobe Illustrator 15.1.0, SVG Export Plug-In  -->
<!DOCTYPE svg PUBLIC "-//W3C//DTD SVG 1.1//EN" "http://www.w3.org/Graphics/SVG/1.1/DTD/svg11.dtd" [
	<!ENTITY ns_flows "http://ns.adobe.com/Flows/1.0/">
]>
<svg version="1.1"
	 xmlns="http://www.w3.org/2000/svg" xmlns:xlink="http://www.w3.org/1999/xlink" xmlns:a="http://ns.adobe.com/AdobeSVGViewerExtensions/3.0/"
	 x="0px" y="0px" width="9px" height="25px" viewBox="16.561 0 9 25" enable-background="new 16.561 0 9 25" xml:space="preserve">
<defs>
</defs>
<g>
	<g>
		<path d="M18.39,22.153c1.948,0,3.897,0,5.846,0c0.968,0,0.968-1.5,0-1.5c-1.948,0-3.897,0-5.846,0
			C17.422,20.653,17.422,22.153,18.39,22.153L18.39,22.153z"/>
	</g>
</g>
<g>
	<g>
		<path d="M18.39,24.438c1.948,0,3.897,0,5.846,0c0.968,0,0.968-1.5,0-1.5c-1.948,0-3.897,0-5.846,0
			C17.422,22.938,17.422,24.438,18.39,24.438L18.39,24.438z"/>
	</g>
</g>
<g>
	<g>
		<path d="M22.063,14.42c0-4.306,0-8.612,0-12.918c0-0.967-1.5-0.967-1.5,0c0,4.306,0,8.612,0,12.918
			C20.563,15.388,22.063,15.388,22.063,14.42L22.063,14.42z"/>
	</g>
</g>
<g>
	<circle cx="21.313" cy="17.716" r="1.096"/>
	<g>
		<path d="M20.967,17.716c0.027-0.45,0.663-0.449,0.691,0S20.994,18.162,20.967,17.716c-0.06-0.96-1.561-0.966-1.5,0
			c0.065,1.048,0.797,1.78,1.846,1.845c1.045,0.065,1.787-0.895,1.846-1.845c0.065-1.045-0.896-1.787-1.846-1.846
			c-1.045-0.065-1.787,0.895-1.846,1.846C19.407,18.682,20.907,18.677,20.967,17.716z"/>
	</g>
</g>
<rect id="_x3C_Slice_x3E__130_" fill="none" width="17" height="25.583"/>
<rect id="_x3C_Slice_x3E__129_" x="17" fill="none" width="8.584" height="24.983"/>
</svg>
