<?xml version="1.0" encoding="utf-8"?>
<!-- Generator: Adobe Illustrator 15.1.0, SVG Export Plug-In  -->
<!DOCTYPE svg PUBLIC "-//W3C//DTD SVG 1.1//EN" "http://www.w3.org/Graphics/SVG/1.1/DTD/svg11.dtd" [
	<!ENTITY ns_flows "http://ns.adobe.com/Flows/1.0/">
]>
<svg version="1.1"
	 xmlns="http://www.w3.org/2000/svg" xmlns:xlink="http://www.w3.org/1999/xlink" xmlns:a="http://ns.adobe.com/AdobeSVGViewerExtensions/3.0/"
	 x="0px" y="0px" width="16px" height="25px" viewBox="-0.439 0 16 25" enable-background="new -0.439 0 16 25"
	 xml:space="preserve">
<defs>
</defs>
<g>
	<g>
		<path d="M7.722,17.153c-0.387,0.605-0.984,1.288-1.784,1.122c-0.979-0.203-1.235-1.636-1.282-2.438
			c-0.056-0.961-1.557-0.967-1.5,0c0.086,1.465,0.632,3.301,2.192,3.821c1.549,0.516,2.869-0.495,3.669-1.748
			C9.539,17.092,8.24,16.34,7.722,17.153L7.722,17.153z"/>
	</g>
</g>
<g>
	<g>
		<path d="M8.916,18.043c2.01-2.938,4.021-5.875,6.03-8.813c0.548-0.801-0.753-1.55-1.295-0.757
			c-2.011,2.938-4.021,5.875-6.03,8.813C7.073,18.087,8.374,18.836,8.916,18.043L8.916,18.043z"/>
	</g>
</g>
<g>
	<g>
		<path d="M3.155,5.836c0,3.333,0,6.667,0,10c0,0.967,1.5,0.967,1.5,0c0-3.333,0-6.667,0-10C4.655,4.869,3.155,4.869,3.155,5.836
			L3.155,5.836z"/>
	</g>
</g>
<g>
	<g>
		<path d="M5.155,3.836c-0.087,1.612-2.413,1.612-2.5,0C2.568,2.223,5.069,2.232,5.155,3.836c0.052,0.962,1.552,0.967,1.5,0
			C6.571,2.282,5.46,1.17,3.905,1.086c-1.551-0.083-2.673,1.322-2.75,2.75c-0.084,1.551,1.321,2.673,2.75,2.75
			c1.551,0.083,2.673-1.322,2.75-2.75C6.707,2.87,5.207,2.875,5.155,3.836z"/>
	</g>
</g>
<g>
	<g>
		<path d="M11.171,8.258c0,5.171,0,10.343,0,15.515c0,0.967,1.5,0.967,1.5,0c0-5.171,0-10.343,0-15.515
			C12.671,7.291,11.171,7.291,11.171,8.258L11.171,8.258z"/>
	</g>
</g>
<g>
	<g>
		<path d="M9.696,22.178c1.732-0.891,3.466-1.782,5.199-2.673c0.86-0.442,0.102-1.736-0.758-1.295
			c-1.732,0.891-3.466,1.782-5.199,2.673C8.078,21.325,8.837,22.619,9.696,22.178L9.696,22.178z"/>
	</g>
</g>
<g>
	<g>
		<path d="M12.671,8.258c-0.014-0.785-0.03-1.692,0.354-2.405c0.065-0.122,0.069-0.118,0.126-0.179
			c0.013-0.013,0.152-0.103,0.06-0.065c0.19-0.077-0.043-0.03,0.159-0.026c-0.229-0.004,0.219,0.081,0.042,0.005
			c0.34,0.146,0.51,0.372,0.694,0.771c0.287,0.62-0.184,1.766-0.636,2.365c-0.584,0.772,0.72,1.519,1.295,0.757
			c1.202-1.591,1.357-4.475-0.834-5.289c-0.697-0.259-1.474-0.03-1.942,0.539c-0.786,0.955-0.839,2.351-0.818,3.528
			C11.188,9.225,12.688,9.226,12.671,8.258L12.671,8.258z"/>
	</g>
</g>
<rect id="_x3C_Slice_x3E__129_" fill="none" width="16" height="24.78"/>
</svg>
