<?xml version="1.0" encoding="utf-8"?>
<!-- Generator: Adobe Illustrator 15.1.0, SVG Export Plug-In  -->
<!DOCTYPE svg PUBLIC "-//W3C//DTD SVG 1.1//EN" "http://www.w3.org/Graphics/SVG/1.1/DTD/svg11.dtd" [
	<!ENTITY ns_flows "http://ns.adobe.com/Flows/1.0/">
]>
<svg version="1.1"
	 xmlns="http://www.w3.org/2000/svg" xmlns:xlink="http://www.w3.org/1999/xlink" xmlns:a="http://ns.adobe.com/AdobeSVGViewerExtensions/3.0/"
	 x="0px" y="0px" width="14px" height="27px" viewBox="14.561 0 14 27" enable-background="new 14.561 0 14 27"
	 xml:space="preserve">
<defs>
</defs>
<g>
	<g>
		<path d="M21.411,17.102c1.948,0,3.897,0,5.846,0c0.968,0,0.968-1.5,0-1.5c-1.948,0-3.897,0-5.846,0
			C20.443,15.602,20.443,17.102,21.411,17.102L21.411,17.102z"/>
	</g>
</g>
<g>
	<g>
		<path d="M21.411,19.387c1.948,0,3.897,0,5.846,0c0.968,0,0.968-1.5,0-1.5c-1.948,0-3.897,0-5.846,0
			C20.443,17.887,20.443,19.387,21.411,19.387L21.411,19.387z"/>
	</g>
</g>
<g>
	<g>
		<path d="M18.391,21.758c0-4.306,0-8.612,0-12.918c0-0.967-1.5-0.967-1.5,0c0,4.306,0,8.612,0,12.918
			C16.891,22.725,18.391,22.725,18.391,21.758L18.391,21.758z"/>
	</g>
</g>
<g>
	<circle cx="17.641" cy="25.053" r="1.096"/>
	<g>
		<path d="M17.295,25.053c0.027-0.45,0.663-0.449,0.691,0S17.322,25.499,17.295,25.053c-0.06-0.96-1.561-0.966-1.5,0
			c0.065,1.048,0.797,1.78,1.846,1.845c1.045,0.065,1.787-0.895,1.846-1.845c0.065-1.045-0.896-1.787-1.846-1.846
			c-1.045-0.065-1.787,0.895-1.846,1.846C15.735,26.02,17.235,26.014,17.295,25.053z"/>
	</g>
</g>
<g>
	<g>
		<path d="M25.251,14.243c0-4.306,0-8.612,0-12.918c0-0.967-1.5-0.967-1.5,0c0,4.306,0,8.612,0,12.918
			C23.751,15.21,25.251,15.21,25.251,14.243L25.251,14.243z"/>
	</g>
</g>
<g>
	<g>
		<path d="M17.11,9.37c2.231,1.801,4.462,3.602,6.693,5.403c0.745,0.602,1.813-0.453,1.061-1.061
			c-2.231-1.801-4.462-3.602-6.693-5.403C17.426,7.708,16.357,8.762,17.11,9.37L17.11,9.37z"/>
	</g>
</g>
<rect id="_x3C_Slice_x3E__130_" fill="none" width="14.75" height="21.609"/>
<rect id="_x3C_Slice_x3E__129_" x="15" fill="none" width="13.584" height="26.917"/>
</svg>
