<?xml version="1.0" encoding="utf-8"?>
<!-- Generator: Adobe Illustrator 15.1.0, SVG Export Plug-In  -->
<!DOCTYPE svg PUBLIC "-//W3C//DTD SVG 1.1//EN" "http://www.w3.org/Graphics/SVG/1.1/DTD/svg11.dtd" [
	<!ENTITY ns_flows "http://ns.adobe.com/Flows/1.0/">
]>
<svg version="1.1"
	 xmlns="http://www.w3.org/2000/svg" xmlns:xlink="http://www.w3.org/1999/xlink" xmlns:a="http://ns.adobe.com/AdobeSVGViewerExtensions/3.0/"
	 x="0px" y="0px" width="19px" height="24px" viewBox="19.561 31 19 24" enable-background="new 19.561 31 19 24"
	 xml:space="preserve">
<defs>
</defs>
<g>
	<g>
		<path d="M27.692,40.308c-1.147,2.526-2.294,5.053-3.44,7.58c-0.396,0.874,0.896,1.637,1.295,0.757
			c1.146-2.526,2.294-5.053,3.44-7.58C29.384,40.191,28.092,39.428,27.692,40.308L27.692,40.308z"/>
	</g>
</g>
<g>
	<g>
		<path d="M20.744,41.064c1.146,2.527,2.293,5.054,3.44,7.58c0.399,0.88,1.691,0.117,1.295-0.757
			c-1.146-2.527-2.294-5.054-3.44-7.58C21.64,39.428,20.348,40.191,20.744,41.064L20.744,41.064z"/>
	</g>
</g>
<g>
	<g>
		<path d="M37.167,31.831c-2.003,5.412-4.006,10.824-6.01,16.236c-0.336,0.909,1.114,1.297,1.447,0.398
			c2.003-5.412,4.006-10.824,6.01-16.236C38.95,31.32,37.5,30.932,37.167,31.831L37.167,31.831z"/>
	</g>
</g>
<g>
	<g>
		<path d="M27.726,41.064c1.146,2.527,2.294,5.054,3.44,7.58c0.399,0.88,1.691,0.117,1.295-0.757
			c-1.146-2.527-2.293-5.054-3.44-7.58C28.621,39.428,27.329,40.191,27.726,41.064L27.726,41.064z"/>
	</g>
</g>
<g>
	<g>
		<path d="M24.678,52.36c2.464,0,4.927,0,7.391,0c0.967,0,0.967-1.5,0-1.5c-2.464,0-4.927,0-7.391,0
			C23.711,50.86,23.711,52.36,24.678,52.36L24.678,52.36z"/>
	</g>
</g>
<g>
	<g>
		<path d="M24.629,54.665c2.464,0,4.927,0,7.391,0c0.967,0,0.967-1.5,0-1.5c-2.464,0-4.927,0-7.391,0
			C23.662,53.165,23.662,54.665,24.629,54.665L24.629,54.665z"/>
	</g>
</g>
<rect id="_x3C_Slice_x3E__130_" x="3" fill="none" width="17.584" height="32"/>
<rect id="_x3C_Slice_x3E__129_" y="31" fill="none" width="20" height="31"/>
<rect id="_x3C_Slice_x3E__128_" x="20" y="31" fill="none" width="18.625" height="23.403"/>
</svg>
