<?xml version="1.0" encoding="utf-8"?>
<!-- Generator: Adobe Illustrator 15.1.0, SVG Export Plug-In  -->
<!DOCTYPE svg PUBLIC "-//W3C//DTD SVG 1.1//EN" "http://www.w3.org/Graphics/SVG/1.1/DTD/svg11.dtd" [
	<!ENTITY ns_flows "http://ns.adobe.com/Flows/1.0/">
]>
<svg version="1.1"
	 xmlns="http://www.w3.org/2000/svg" xmlns:xlink="http://www.w3.org/1999/xlink" xmlns:a="http://ns.adobe.com/AdobeSVGViewerExtensions/3.0/"
	 x="0px" y="0px" width="16px" height="28px" viewBox="16.561 0 16 28" enable-background="new 16.561 0 16 28"
	 xml:space="preserve">
<defs>
</defs>
<g>
	<g>
		<path d="M22.107,12.667c0,3.663,0,7.325,0,10.988c0,0.967,1.5,0.967,1.5,0c0-3.663,0-7.325,0-10.988
			C23.607,11.7,22.107,11.7,22.107,12.667L22.107,12.667z"/>
	</g>
</g>
<g>
	<g>
		<path d="M19.935,24.405c1.948,0,3.897,0,5.846,0c0.968,0,0.968-1.5,0-1.5c-1.948,0-3.897,0-5.846,0
			C18.967,22.905,18.967,24.405,19.935,24.405L19.935,24.405z"/>
	</g>
</g>
<g>
	<g>
		<path d="M19.935,26.917c1.948,0,3.897,0,5.846,0c0.968,0,0.968-1.5,0-1.5c-1.948,0-3.897,0-5.846,0
			C18.967,25.417,18.967,26.917,19.935,26.917L19.935,26.917z"/>
	</g>
</g>
<g>
	<g>
		<path d="M23.597,10.167c-0.121,2.256-3.379,2.256-3.5,0C19.975,7.91,23.476,7.922,23.597,10.167c0.052,0.962,1.552,0.967,1.5,0
			c-0.099-1.837-1.413-3.151-3.25-3.25c-1.833-0.099-3.159,1.562-3.25,3.25c-0.099,1.833,1.562,3.159,3.25,3.25
			c1.833,0.099,3.159-1.562,3.25-3.25C25.148,9.201,23.648,9.206,23.597,10.167z"/>
	</g>
</g>
<g>
	<g>
		<path d="M24.877,9.57c2.356-2.357,4.714-4.714,7.07-7.071c0.685-0.685-0.376-1.745-1.061-1.061
			c-2.356,2.357-4.714,4.714-7.07,7.071C23.132,9.194,24.192,10.255,24.877,9.57L24.877,9.57z"/>
	</g>
</g>
<rect id="_x3C_Slice_x3E__130_" y="1" fill="none" width="17" height="21.158"/>
<rect id="_x3C_Slice_x3E__129_" x="17" fill="none" width="15.959" height="27.667"/>
</svg>
