<?xml version="1.0" encoding="utf-8"?>
<!-- Generator: Adobe Illustrator 15.1.0, SVG Export Plug-In  -->
<!DOCTYPE svg PUBLIC "-//W3C//DTD SVG 1.1//EN" "http://www.w3.org/Graphics/SVG/1.1/DTD/svg11.dtd" [
	<!ENTITY ns_flows "http://ns.adobe.com/Flows/1.0/">
]>
<svg version="1.1"
	 xmlns="http://www.w3.org/2000/svg" xmlns:xlink="http://www.w3.org/1999/xlink" xmlns:a="http://ns.adobe.com/AdobeSVGViewerExtensions/3.0/"
	 x="0px" y="0px" width="19px" height="26px" viewBox="16.225 0 19 26" enable-background="new 16.225 0 19 26"
	 xml:space="preserve">
<defs>
</defs>
<g>
	<g>
		<path d="M0.725,1.79c5,0,10,0,15,0c0.967,0,0.967-1.5,0-1.5c-5,0-10,0-15,0C-0.242,0.29-0.242,1.79,0.725,1.79L0.725,1.79z"/>
	</g>
</g>
<g>
	<g>
		<path d="M24.574,9.648c-1.675,1.773-4.952,1.825-5.241-1.165c-0.093-0.954-1.593-0.963-1.5,0c0.406,4.203,5.125,5.059,7.802,2.225
			C26.299,10.006,25.239,8.944,24.574,9.648L24.574,9.648z"/>
	</g>
</g>
<g>
	<g>
		<path d="M25.488,10.843c2.938-2.938,5.874-5.875,8.812-8.813c0.685-0.685-0.376-1.745-1.061-1.061
			c-2.938,2.938-5.874,5.875-8.812,8.813C23.743,10.467,24.804,11.527,25.488,10.843L25.488,10.843z"/>
	</g>
</g>
<g>
	<g>
		<path d="M21.369,11.704c0,2.813,0,5.626,0,8.439c0,0.967,1.5,0.967,1.5,0c0-2.813,0-5.626,0-8.439
			C22.869,10.736,21.369,10.736,21.369,11.704L21.369,11.704z"/>
	</g>
</g>
<g>
	<g>
		<path d="M19.196,23.001c1.948,0,3.897,0,5.846,0c0.968,0,0.968-1.5,0-1.5c-1.948,0-3.897,0-5.846,0
			C18.229,21.501,18.229,23.001,19.196,23.001L19.196,23.001z"/>
	</g>
</g>
<g>
	<g>
		<path d="M19.196,25.512c1.948,0,3.897,0,5.846,0c0.968,0,0.968-1.5,0-1.5c-1.948,0-3.897,0-5.846,0
			C18.229,24.012,18.229,25.512,19.196,25.512L19.196,25.512z"/>
	</g>
</g>
<rect id="_x3C_Slice_x3E__129_" x="16.664" fill="none" width="19" height="25.167"/>
</svg>
