<?xml version="1.0" encoding="utf-8"?>
<!-- Generator: Adobe Illustrator 15.1.0, SVG Export Plug-In  -->
<!DOCTYPE svg PUBLIC "-//W3C//DTD SVG 1.1//EN" "http://www.w3.org/Graphics/SVG/1.1/DTD/svg11.dtd" [
	<!ENTITY ns_flows "http://ns.adobe.com/Flows/1.0/">
]>
<svg version="1.1"
	 xmlns="http://www.w3.org/2000/svg" xmlns:xlink="http://www.w3.org/1999/xlink" xmlns:a="http://ns.adobe.com/AdobeSVGViewerExtensions/3.0/"
	 x="0px" y="0px" width="10px" height="24px" viewBox="8.561 0 10 24" enable-background="new 8.561 0 10 24" xml:space="preserve">
<defs>
</defs>
<g>
	<g>
		<path d="M10.107,21.448c1.948,0,3.897,0,5.846,0c0.967,0,0.967-1.5,0-1.5c-1.948,0-3.897,0-5.846,0
			C9.141,19.948,9.141,21.448,10.107,21.448L10.107,21.448z"/>
	</g>
</g>
<g>
	<g>
		<path d="M10.107,23.733c1.948,0,3.897,0,5.846,0c0.967,0,0.967-1.5,0-1.5c-1.948,0-3.897,0-5.846,0
			C9.141,22.233,9.141,23.733,10.107,23.733L10.107,23.733z"/>
	</g>
</g>
<g>
	<g>
		<path d="M16.703,20.492c0-1.068,0-2.137,0-3.205c0-0.967-1.5-0.967-1.5,0c0,1.068,0,2.137,0,3.205
			C15.203,21.459,16.703,21.459,16.703,20.492L16.703,20.492z"/>
	</g>
</g>
<g>
	<g>
		<path d="M16.97,15.378c-0.071,1.311-1.963,1.312-2.034,0C14.865,14.067,16.899,14.074,16.97,15.378
			c0.041,0.77,1.241,0.773,1.199,0c-0.067-1.253-0.964-2.149-2.217-2.216c-1.25-0.067-2.154,1.065-2.216,2.216
			c-0.067,1.25,1.064,2.155,2.216,2.217c1.25,0.067,2.155-1.065,2.217-2.217C18.211,14.605,17.011,14.609,16.97,15.378z"/>
	</g>
</g>
<g>
	<g>
		<path d="M16.703,13.582c0-4.005,0-8.011,0-12.016c0-0.967-1.5-0.967-1.5,0c0,4.005,0,8.011,0,12.016
			C15.203,14.549,16.703,14.549,16.703,13.582L16.703,13.582z"/>
	</g>
</g>
<rect id="_x3C_Slice_x3E__130_" fill="none" width="8.584" height="24.983"/>
<rect id="_x3C_Slice_x3E__129_" x="9" fill="none" width="10" height="23.688"/>
</svg>
