<?xml version="1.0" encoding="utf-8"?>
<!-- Generator: Adobe Illustrator 15.1.0, SVG Export Plug-In  -->
<!DOCTYPE svg PUBLIC "-//W3C//DTD SVG 1.1//EN" "http://www.w3.org/Graphics/SVG/1.1/DTD/svg11.dtd" [
	<!ENTITY ns_flows "http://ns.adobe.com/Flows/1.0/">
]>
<svg version="1.1"
	 xmlns="http://www.w3.org/2000/svg" xmlns:xlink="http://www.w3.org/1999/xlink" xmlns:a="http://ns.adobe.com/AdobeSVGViewerExtensions/3.0/"
	 x="0px" y="0px" width="20px" height="31px" viewBox="11.561 31 20 31" enable-background="new 11.561 31 20 31"
	 xml:space="preserve">
<defs>
</defs>
<g>
	<g>
		<path d="M18.291,33.237c0,7.055,0,14.111,0,21.166c0,0.967,1.5,0.967,1.5,0c0-7.055,0-14.111,0-21.166
			C19.791,32.27,18.291,32.27,18.291,33.237L18.291,33.237z"/>
	</g>
</g>
<g>
	<g>
		<path d="M19.57,45.458c3.824-3.825,7.648-7.649,11.473-11.474c0.686-0.685-0.375-1.745-1.061-1.061
			c-3.824,3.825-7.648,7.649-11.473,11.474C17.826,45.083,18.887,46.143,19.57,45.458L19.57,45.458z"/>
	</g>
</g>
<g>
	<g>
		<path d="M13.184,58.987c1.949,0,3.897,0,5.846,0c0.968,0,0.968-1.5,0-1.5c-1.948,0-3.896,0-5.846,0
			C12.217,57.487,12.217,58.987,13.184,58.987L13.184,58.987z"/>
	</g>
</g>
<g>
	<g>
		<path d="M13.184,61.272c1.949,0,3.897,0,5.846,0c0.968,0,0.968-1.5,0-1.5c-1.948,0-3.896,0-5.846,0
			C12.217,59.772,12.217,61.272,13.184,61.272L13.184,61.272z"/>
	</g>
</g>
<g>
	<g>
		<path d="M13.079,55.153c1.948,0,3.897,0,5.846,0c0.967,0,0.967-1.5,0-1.5c-1.948,0-3.897,0-5.846,0
			C12.112,53.653,12.112,55.153,13.079,55.153L13.079,55.153z"/>
	</g>
</g>
<g>
	<g>
		<path d="M4.932,36.874c2.146-0.867,4.29-1.734,6.435-2.601c0.885-0.357,0.499-1.809-0.398-1.446
			c-2.145,0.867-4.29,1.734-6.435,2.601C3.648,35.785,4.034,37.237,4.932,36.874L4.932,36.874z"/>
	</g>
</g>
<rect id="_x3C_Slice_x3E__130_" fill="none" width="14.584" height="32"/>
<rect id="_x3C_Slice_x3E__129_" x="15" fill="none" width="17.584" height="32"/>
<rect id="_x3C_Slice_x3E__128_" x="12" y="31" fill="none" width="20" height="31"/>
</svg>
