<?xml version="1.0" encoding="utf-8"?>
<!-- Generator: Adobe Illustrator 15.1.0, SVG Export Plug-In  -->
<!DOCTYPE svg PUBLIC "-//W3C//DTD SVG 1.1//EN" "http://www.w3.org/Graphics/SVG/1.1/DTD/svg11.dtd" [
	<!ENTITY ns_flows "http://ns.adobe.com/Flows/1.0/">
]>
<svg version="1.1"
	 xmlns="http://www.w3.org/2000/svg" xmlns:xlink="http://www.w3.org/1999/xlink" xmlns:a="http://ns.adobe.com/AdobeSVGViewerExtensions/3.0/"
	 x="0px" y="0px" width="17px" height="31px" viewBox="15.561 0 17 31" enable-background="new 15.561 0 17 31"
	 xml:space="preserve">
<defs>
</defs>
<g>
	<g>
		<path d="M19.796,2.045c0,7.055,0,14.111,0,21.166c0,0.967,1.5,0.967,1.5,0c0-7.055,0-14.111,0-21.166
			C21.296,1.078,19.796,1.078,19.796,2.045L19.796,2.045z"/>
	</g>
</g>
<g>
	<g>
		<path d="M21.076,14.266c3.824-3.825,7.648-7.649,11.473-11.474c0.685-0.685-0.376-1.745-1.061-1.061
			c-3.824,3.825-7.648,7.649-11.473,11.474C19.331,13.89,20.392,14.951,21.076,14.266L21.076,14.266z"/>
	</g>
</g>
<g>
	<g>
		<path d="M17.689,27.795c1.948,0,3.897,0,5.846,0c0.968,0,0.968-1.5,0-1.5c-1.948,0-3.897,0-5.846,0
			C16.722,26.295,16.722,27.795,17.689,27.795L17.689,27.795z"/>
	</g>
</g>
<g>
	<g>
		<path d="M17.689,30.08c1.948,0,3.897,0,5.846,0c0.968,0,0.968-1.5,0-1.5c-1.948,0-3.897,0-5.846,0
			C16.722,28.58,16.722,30.08,17.689,30.08L17.689,30.08z"/>
	</g>
</g>
<g>
	<g>
		<path d="M24.855,7.813c1.948,0,3.897,0,5.846,0c0.968,0,0.968-1.5,0-1.5c-1.948,0-3.897,0-5.846,0
			C23.888,6.313,23.888,7.813,24.855,7.813L24.855,7.813z"/>
	</g>
</g>
<rect id="_x3C_Slice_x3E__129_" fill="none" width="15.875" height="31.625"/>
<rect id="_x3C_Slice_x3E__128_" x="16" fill="none" width="17" height="31"/>
</svg>
