<?xml version="1.0" encoding="utf-8"?>
<!-- Generator: Adobe Illustrator 15.1.0, SVG Export Plug-In  -->
<!DOCTYPE svg PUBLIC "-//W3C//DTD SVG 1.1//EN" "http://www.w3.org/Graphics/SVG/1.1/DTD/svg11.dtd" [
	<!ENTITY ns_flows "http://ns.adobe.com/Flows/1.0/">
]>
<svg version="1.1"
	 xmlns="http://www.w3.org/2000/svg" xmlns:xlink="http://www.w3.org/1999/xlink" xmlns:a="http://ns.adobe.com/AdobeSVGViewerExtensions/3.0/"
	 x="0px" y="0px" width="20px" height="26px" viewBox="19.561 0 20 26" enable-background="new 19.561 0 20 26"
	 xml:space="preserve">
<defs>
</defs>
<g>
	<g>
		<path d="M9.068,10.619c3.333,0,6.667,0,10,0c0.967,0,0.967-1.5,0-1.5c-3.333,0-6.667,0-10,0
			C8.102,9.119,8.102,10.619,9.068,10.619L9.068,10.619z"/>
	</g>
</g>
<g>
	<g>
		<path d="M28.912,9.869c0,3.333,0,6.667,0,10c0,0.967,1.5,0.967,1.5,0c0-3.333,0-6.667,0-10
			C30.412,8.901,28.912,8.901,28.912,9.869L28.912,9.869z"/>
	</g>
</g>
<g>
	<g>
		<path d="M30.192,9.338c-1.471-1.471-2.94-2.942-4.411-4.414c-0.685-0.685-1.745,0.376-1.061,1.061
			c1.471,1.471,2.94,2.942,4.411,4.414C29.816,11.083,30.877,10.023,30.192,9.338L30.192,9.338z"/>
	</g>
</g>
<g>
	<g>
		<path d="M26.739,22.962c1.948,0,3.897,0,5.846,0c0.967,0,0.967-1.5,0-1.5c-1.948,0-3.897,0-5.846,0
			C25.772,21.462,25.772,22.962,26.739,22.962L26.739,22.962z"/>
	</g>
</g>
<g>
	<g>
		<path d="M26.739,25.248c1.948,0,3.897,0,5.846,0c0.967,0,0.967-1.5,0-1.5c-1.948,0-3.897,0-5.846,0
			C25.772,23.748,25.772,25.248,26.739,25.248L26.739,25.248z"/>
	</g>
</g>
<g>
	<g>
		<path d="M25.163,3.83c-0.087,1.612-2.413,1.612-2.5,0C22.576,2.216,25.077,2.225,25.163,3.83c0.052,0.962,1.552,0.967,1.5,0
			c-0.084-1.554-1.195-2.667-2.75-2.75c-1.551-0.083-2.673,1.322-2.75,2.75c-0.084,1.551,1.321,2.673,2.75,2.75
			c1.551,0.083,2.673-1.322,2.75-2.75C26.715,2.863,25.215,2.868,25.163,3.83z"/>
	</g>
</g>
<g>
	<g>
		<path d="M30.192,10.399c2.357-2.357,4.714-4.714,7.071-7.071c0.685-0.685-0.376-1.745-1.061-1.061
			c-2.357,2.357-4.714,4.714-7.071,7.071C28.447,10.023,29.508,11.083,30.192,10.399L30.192,10.399z"/>
	</g>
</g>
<g>
	<g>
		<path d="M31.561,6.205c1.948,0,3.897,0,5.846,0c0.967,0,0.967-1.5,0-1.5c-1.948,0-3.897,0-5.846,0
			C30.594,4.705,30.594,6.205,31.561,6.205L31.561,6.205z"/>
	</g>
</g>
<rect id="_x3C_Slice_x3E__130_" y="0.667" fill="none" width="19.935" height="24.522"/>
<rect id="_x3C_Slice_x3E__129_" x="20" fill="none" width="19.149" height="26"/>
</svg>
