<?xml version="1.0" encoding="utf-8"?>
<!-- Generator: Adobe Illustrator 15.1.0, SVG Export Plug-In  -->
<!DOCTYPE svg PUBLIC "-//W3C//DTD SVG 1.1//EN" "http://www.w3.org/Graphics/SVG/1.1/DTD/svg11.dtd" [
	<!ENTITY ns_flows "http://ns.adobe.com/Flows/1.0/">
]>
<svg version="1.1"
	 xmlns="http://www.w3.org/2000/svg" xmlns:xlink="http://www.w3.org/1999/xlink" xmlns:a="http://ns.adobe.com/AdobeSVGViewerExtensions/3.0/"
	 x="0px" y="0px" width="19px" height="24px" viewBox="21.561 0 19 24" enable-background="new 21.561 0 19 24"
	 xml:space="preserve">
<defs>
</defs>
<g>
	<g>
		<path d="M35.382,13.112c-0.313,0.654-0.923,1.667-1.527,0.729c-0.521-0.81-1.82-0.059-1.295,0.757
			c0.477,0.74,1.185,1.279,2.104,1.135c0.966-0.151,1.62-1.041,2.014-1.864C37.092,13.001,35.799,12.24,35.382,13.112L35.382,13.112
			z"/>
	</g>
</g>
<g>
	<g>
		<path d="M36.684,13.938c1.04-1.985,2.08-3.971,3.119-5.956c0.448-0.856-0.846-1.614-1.295-0.757
			c-1.04,1.985-2.08,3.971-3.119,5.956C34.94,14.038,36.234,14.796,36.684,13.938L36.684,13.938z"/>
	</g>
</g>
<g>
	<g>
		<path d="M36.586,7.01c0,5.171,0,10.343,0,15.515c0,0.967,1.5,0.967,1.5,0c0-5.171,0-10.343,0-15.515
			C38.086,6.042,36.586,6.042,36.586,7.01L36.586,7.01z"/>
	</g>
</g>
<g>
	<g>
		<path d="M35.723,20.929c1.326-0.891,2.652-1.782,3.979-2.673c0.798-0.536,0.048-1.836-0.758-1.295
			c-1.326,0.891-2.652,1.782-3.979,2.673C34.167,20.17,34.917,21.471,35.723,20.929L35.723,20.929z"/>
	</g>
</g>
<g>
	<g>
		<path d="M38.086,7.01c-0.01-0.77-0.035-1.739,0.257-2.428c0.041-0.096,0.095-0.186,0.151-0.272
			c-0.027,0.041,0.047-0.022,0.03-0.013c-0.049,0.028-0.159,0.037-0.101,0.036c-0.121-0.021-0.141-0.023-0.059-0.006
			c0.163,0.037-0.146-0.08,0.008,0.002c0.063,0.034,0.159,0.139,0.198,0.194c0.156,0.226,0.162,0.261,0.231,0.476
			c0.254,0.777-0.037,1.791-0.433,2.476c-0.485,0.839,0.812,1.594,1.295,0.757c0.846-1.464,1.244-4.25-0.582-5.222
			c-0.723-0.385-1.431-0.075-1.884,0.543c-0.67,0.912-0.627,2.395-0.613,3.458C36.599,7.976,38.099,7.978,38.086,7.01L38.086,7.01z"
			/>
	</g>
</g>
<g>
	<g>
		<path d="M33.854,13.875c-1.595-3.028-3.19-6.056-4.785-9.083c-0.451-0.856-1.745-0.098-1.295,0.757
			c1.595,3.028,3.19,6.056,4.785,9.083C33.011,15.487,34.305,14.729,33.854,13.875L33.854,13.875z"/>
	</g>
</g>
<g>
	<g>
		<path d="M29.491,4.576c0,3.226,0,6.452,0,9.677c0,0.967,1.5,0.967,1.5,0c0-3.226,0-6.452,0-9.677
			C30.991,3.608,29.491,3.608,29.491,4.576L29.491,4.576z"/>
	</g>
</g>
<g>
	<g>
		<path d="M30.991,4.576c0.017-1.263-0.181-5.061-2.45-4.021c-0.611,0.279-0.975,0.937-1.189,1.54
			c-0.415,1.162-0.038,2.669,0.562,3.704c0.484,0.837,1.78,0.082,1.295-0.757c-0.389-0.671-0.66-1.635-0.456-2.402
			c0.071-0.267,0.079-0.263,0.218-0.492c0.098-0.162,0.012-0.034,0.078-0.111c0.027-0.031,0.056-0.06,0.085-0.088
			c0.138-0.136-0.125,0.079,0.026-0.025c0.171-0.116-0.052,0.002,0.053-0.03c0.08-0.024-0.149-0.016-0.071,0.006
			c-0.07-0.02-0.118-0.073-0.063-0.022c0.054,0.061,0.056,0.06,0.007-0.002c0.044,0.061,0.079,0.129,0.114,0.196
			c0.354,0.672,0.303,1.736,0.293,2.504C29.479,5.543,30.979,5.542,30.991,4.576L30.991,4.576z"/>
	</g>
</g>
<g>
	<g>
		<path d="M23.427,15.003c2.272,0,4.545,0,6.817,0c0.967,0,0.967-1.5,0-1.5c-2.272,0-4.545,0-6.817,0
			C22.459,13.503,22.459,15.003,23.427,15.003L23.427,15.003z"/>
	</g>
</g>
<rect id="_x3C_Slice_x3E__130_" fill="none" width="22" height="21.609"/>
<rect id="_x3C_Slice_x3E__129_" x="22" fill="none" width="19" height="23.773"/>
</svg>
