<?xml version="1.0" encoding="utf-8"?>
<!-- Generator: Adobe Illustrator 15.1.0, SVG Export Plug-In  -->
<!DOCTYPE svg PUBLIC "-//W3C//DTD SVG 1.1//EN" "http://www.w3.org/Graphics/SVG/1.1/DTD/svg11.dtd" [
	<!ENTITY ns_flows "http://ns.adobe.com/Flows/1.0/">
]>
<svg version="1.1"
	 xmlns="http://www.w3.org/2000/svg" xmlns:xlink="http://www.w3.org/1999/xlink" xmlns:a="http://ns.adobe.com/AdobeSVGViewerExtensions/3.0/"
	 x="0px" y="0px" width="16px" height="26px" viewBox="16.561 0 16 26" enable-background="new 16.561 0 16 26"
	 xml:space="preserve">
<defs>
</defs>
<g>
	<g>
		<path d="M5.076,14.266C8.9,10.441,12.725,6.617,16.549,2.792c0.685-0.685-0.376-1.745-1.061-1.061
			C11.664,5.557,7.84,9.381,4.016,13.206C3.331,13.89,4.392,14.951,5.076,14.266L5.076,14.266z"/>
	</g>
</g>
<g>
	<g>
		<path d="M20.073,5.92c0,6.097,0,12.194,0,18.291c0,0.967,1.5,0.967,1.5,0c0-6.097,0-12.194,0-18.291
			C21.573,4.953,20.073,4.953,20.073,5.92L20.073,5.92z"/>
	</g>
</g>
<g>
	<g>
		<path d="M21.42,15.729c3.094-3.093,6.187-6.186,9.28-9.279c0.685-0.685-0.376-1.745-1.061-1.061
			c-3.094,3.093-6.187,6.186-9.28,9.279C19.675,15.354,20.735,16.414,21.42,15.729L21.42,15.729z"/>
	</g>
</g>
<g>
	<g>
		<path d="M22.073,3.92c-0.087,1.612-2.413,1.612-2.5,0C19.486,2.307,21.987,2.316,22.073,3.92c0.052,0.962,1.552,0.967,1.5,0
			c-0.084-1.554-1.195-2.667-2.75-2.75c-1.551-0.083-2.673,1.322-2.75,2.75c-0.084,1.551,1.321,2.673,2.75,2.75
			c1.551,0.083,2.673-1.322,2.75-2.75C23.625,2.954,22.125,2.958,22.073,3.92z"/>
	</g>
</g>
<g>
	<g>
		<path d="M21.613,24.41c0.281-0.96,1.202-1.938,2.113-0.76c0.481,0.622,1.059,1.029,1.829,1.186
			c1.941,0.395,3.163-1.154,4.323-2.386c0.662-0.704-0.396-1.766-1.061-1.061c-0.835,0.886-1.876,2.522-3.362,1.862
			c-0.979-0.435-1.198-1.584-2.358-1.896c-1.69-0.454-2.562,1.396-2.932,2.657C19.894,24.942,21.341,25.336,21.613,24.41
			L21.613,24.41z"/>
	</g>
</g>
<g>
	<g>
		<path d="M25.529,9.015c1.948,0,3.897,0,5.846,0c0.968,0,0.968-1.5,0-1.5c-1.948,0-3.897,0-5.846,0
			C24.562,7.515,24.562,9.015,25.529,9.015L25.529,9.015z"/>
	</g>
</g>
<rect id="_x3C_Slice_x3E__129_" fill="none" width="17" height="31"/>
<rect id="_x3C_Slice_x3E__128_" x="17" fill="none" width="15.625" height="25.5"/>
</svg>
