<?xml version="1.0" encoding="utf-8"?>
<!-- Generator: Adobe Illustrator 15.1.0, SVG Export Plug-In  -->
<!DOCTYPE svg PUBLIC "-//W3C//DTD SVG 1.1//EN" "http://www.w3.org/Graphics/SVG/1.1/DTD/svg11.dtd" [
	<!ENTITY ns_flows "http://ns.adobe.com/Flows/1.0/">
]>
<svg version="1.1"
	 xmlns="http://www.w3.org/2000/svg" xmlns:xlink="http://www.w3.org/1999/xlink" xmlns:a="http://ns.adobe.com/AdobeSVGViewerExtensions/3.0/"
	 x="0px" y="0px" width="17px" height="25px" viewBox="18.561 0 17 25" enable-background="new 18.561 0 17 25"
	 xml:space="preserve">
<defs>
</defs>
<g>
	<g>
		<path d="M25.9,9.148c-1.675,1.773-4.952,1.825-5.241-1.165c-0.093-0.954-1.593-0.963-1.5,0c0.406,4.203,5.125,5.059,7.802,2.225
			C27.625,9.506,26.565,8.444,25.9,9.148L25.9,9.148z"/>
	</g>
</g>
<g>
	<g>
		<path d="M26.814,10.343c2.938-2.938,5.874-5.875,8.812-8.813c0.685-0.685-0.376-1.745-1.061-1.061
			c-2.938,2.938-5.874,5.875-8.812,8.813C25.069,9.967,26.13,11.027,26.814,10.343L26.814,10.343z"/>
	</g>
</g>
<g>
	<g>
		<path d="M22.695,11.204c0,4.023,0,8.046,0,12.07c0,0.967,1.5,0.967,1.5,0c0-4.023,0-8.046,0-12.07
			C24.195,10.236,22.695,10.236,22.695,11.204L22.695,11.204z"/>
	</g>
</g>
<g>
	<g>
		<path d="M24.169,23.473c0.281-0.96,1.202-1.938,2.113-0.76c0.481,0.622,1.059,1.029,1.829,1.186
			c1.941,0.395,3.163-1.154,4.323-2.386c0.662-0.704-0.396-1.766-1.061-1.061c-0.835,0.886-1.876,2.522-3.362,1.862
			c-0.979-0.435-1.198-1.584-2.358-1.896c-1.69-0.454-2.562,1.396-2.932,2.657C22.449,24.004,23.896,24.399,24.169,23.473
			L24.169,23.473z"/>
	</g>
</g>
<rect id="_x3C_Slice_x3E__130_" fill="none" width="19" height="25.167"/>
<rect id="_x3C_Slice_x3E__129_" x="19" fill="none" width="16.501" height="24.762"/>
</svg>
