<?xml version="1.0" encoding="utf-8"?>
<!-- Generator: Adobe Illustrator 15.1.0, SVG Export Plug-In  -->
<!DOCTYPE svg PUBLIC "-//W3C//DTD SVG 1.1//EN" "http://www.w3.org/Graphics/SVG/1.1/DTD/svg11.dtd" [
	<!ENTITY ns_flows "http://ns.adobe.com/Flows/1.0/">
]>
<svg version="1.1"
	 xmlns="http://www.w3.org/2000/svg" xmlns:xlink="http://www.w3.org/1999/xlink" xmlns:a="http://ns.adobe.com/AdobeSVGViewerExtensions/3.0/"
	 x="0px" y="0px" width="5px" height="23px" viewBox="9.561 0 5 23" enable-background="new 9.561 0 5 23" xml:space="preserve">
<defs>
</defs>
<g>
	<g>
		<path d="M13.206,17.452c0-5.417,0-10.834,0-16.251c0-0.967-1.5-0.967-1.5,0c0,5.417,0,10.834,0,16.251
			C11.706,18.419,13.206,18.419,13.206,17.452L13.206,17.452z"/>
	</g>
</g>
<g>
	<circle cx="12.456" cy="20.747" r="1.096"/>
	<g>
		<path d="M12.11,20.747c0.028-0.45,0.663-0.449,0.691,0S12.138,21.193,12.11,20.747c-0.06-0.96-1.56-0.966-1.5,0
			c0.065,1.048,0.798,1.78,1.846,1.845c1.045,0.065,1.786-0.895,1.846-1.845c0.065-1.045-0.896-1.787-1.846-1.846
			c-1.045-0.065-1.787,0.895-1.846,1.846C10.551,21.713,12.051,21.708,12.11,20.747z"/>
	</g>
</g>
<rect id="_x3C_Slice_x3E__130_" fill="none" width="10" height="23.688"/>
<rect id="_x3C_Slice_x3E__129_" x="10" fill="none" width="5" height="22.983"/>
</svg>
