<?xml version="1.0" encoding="utf-8"?>
<!-- Generator: Adobe Illustrator 15.1.0, SVG Export Plug-In  -->
<!DOCTYPE svg PUBLIC "-//W3C//DTD SVG 1.1//EN" "http://www.w3.org/Graphics/SVG/1.1/DTD/svg11.dtd" [
	<!ENTITY ns_flows "http://ns.adobe.com/Flows/1.0/">
]>
<svg version="1.1"
	 xmlns="http://www.w3.org/2000/svg" xmlns:xlink="http://www.w3.org/1999/xlink" xmlns:a="http://ns.adobe.com/AdobeSVGViewerExtensions/3.0/"
	 x="0px" y="0px" width="36px" height="26px" viewBox="-0.149 0 36 26" enable-background="new -0.149 0 36 26"
	 xml:space="preserve">
<defs>
</defs>
<g>
	<g>
		<path d="M8.295,13.936c2.969,0,5.938,0,8.908,0c0.967,0,0.967-1.5,0-1.5c-2.969,0-5.938,0-8.908,0
			C7.328,12.436,7.328,13.936,8.295,13.936L8.295,13.936z"/>
	</g>
</g>
<g>
	<g>
		<path d="M12.219,2.614c5.242,6.067,10.483,12.135,15.725,18.202c0.633,0.733,1.689-0.333,1.061-1.061
			C23.763,13.688,18.521,7.621,13.279,1.554C12.646,0.82,11.59,1.886,12.219,2.614L12.219,2.614z"/>
	</g>
</g>
<g>
	<g>
		<path d="M3.688,13.716c3.197-3.701,6.394-7.401,9.591-11.102c0.629-0.728-0.427-1.794-1.061-1.061
			C9.021,5.254,5.825,8.955,2.628,12.656C1.999,13.384,3.055,14.45,3.688,13.716L3.688,13.716z"/>
	</g>
</g>
<g>
	<g>
		<path d="M29.004,20.816c0.904-0.867,1.809-1.734,2.713-2.602c0.699-0.67-0.363-1.73-1.061-1.061
			c-0.904,0.867-1.809,1.734-2.713,2.602C27.245,20.426,28.307,21.486,29.004,20.816L29.004,20.816z"/>
	</g>
</g>
<g>
	<g>
		<path d="M30.361,22.614c0.904-0.867,1.808-1.733,2.712-2.6c0.699-0.67-0.363-1.729-1.061-1.061
			c-0.904,0.867-1.809,1.733-2.712,2.6C28.601,22.224,29.663,23.283,30.361,22.614L30.361,22.614z"/>
	</g>
</g>
<g>
	<g>
		<path d="M8.386,7.105C7.832,6.527,7.278,5.949,6.724,5.371c-0.67-0.7-1.729,0.363-1.061,1.061C6.217,7.01,6.771,7.587,7.325,8.166
			C7.996,8.865,9.055,7.803,8.386,7.105L8.386,7.105z"/>
	</g>
</g>
<rect id="_x3C_Slice_x3E__86_" fill="none" width="35.57" height="26"/>
</svg>
