<?xml version="1.0" encoding="utf-8"?>
<!-- Generator: Adobe Illustrator 15.1.0, SVG Export Plug-In  -->
<!DOCTYPE svg PUBLIC "-//W3C//DTD SVG 1.1//EN" "http://www.w3.org/Graphics/SVG/1.1/DTD/svg11.dtd" [
	<!ENTITY ns_flows "http://ns.adobe.com/Flows/1.0/">
]>
<svg version="1.1"
	 xmlns="http://www.w3.org/2000/svg" xmlns:xlink="http://www.w3.org/1999/xlink" xmlns:a="http://ns.adobe.com/AdobeSVGViewerExtensions/3.0/"
	 x="0px" y="0px" width="25px" height="17px" viewBox="0 0 25 17" enable-background="new 0 0 25 17" xml:space="preserve">
<defs>
</defs>
<g>
	<g>
		<path d="M21.25,2C20.608,13.92,3.392,13.92,2.75,2c-0.052-0.962-1.552-0.967-1.5,0C1.578,8.089,5.911,12.422,12,12.75
			C18.077,13.077,22.449,7.596,22.75,2C22.802,1.033,21.302,1.038,21.25,2L21.25,2z"/>
	</g>
</g>
<g>
	<g>
		<path d="M4,16.125c5.333,0,10.667,0,16,0c0.967,0,0.967-1.5,0-1.5c-5.333,0-10.667,0-16,0C3.033,14.625,3.033,16.125,4,16.125
			L4,16.125z"/>
	</g>
</g>
<rect id="_x3C_Slice_x3E__86_" fill="none" width="24" height="17"/>
</svg>
