<?xml version="1.0" encoding="utf-8"?>
<!-- Generator: Adobe Illustrator 15.1.0, SVG Export Plug-In  -->
<!DOCTYPE svg PUBLIC "-//W3C//DTD SVG 1.1//EN" "http://www.w3.org/Graphics/SVG/1.1/DTD/svg11.dtd" [
	<!ENTITY ns_flows "http://ns.adobe.com/Flows/1.0/">
]>
<svg version="1.1"
	 xmlns="http://www.w3.org/2000/svg" xmlns:xlink="http://www.w3.org/1999/xlink" xmlns:a="http://ns.adobe.com/AdobeSVGViewerExtensions/3.0/"
	 x="0px" y="0px" width="41px" height="26px" viewBox="0.28 -0.646 41 26" enable-background="new 0.28 -0.646 41 26"
	 xml:space="preserve">
<defs>
</defs>
<g>
	<g>
		<path d="M13.946,2.955C10.811-0.978,1.134-0.891,1.188,5.477C1.23,10.47,9.477,13.47,12.613,9.623c0.261-0.32,0.307-0.745,0-1.061
			C9.06,4.905-0.207,7.656,1.94,13.557c1.484,4.082,10.419,5.7,12.994,2.018c0.556-0.795-0.745-1.543-1.295-0.757
			c-1.854,2.651-8.047,0.846-9.798-0.976c-3.684-3.832,4.883-7.13,7.711-4.22c0-0.354,0-0.707,0-1.061
			c-2.46,3.017-8.399,0.521-8.864-3.085c-0.668-5.175,8.153-4.024,10.197-1.461C13.488,4.772,14.542,3.703,13.946,2.955
			L13.946,2.955z"/>
	</g>
</g>
<g>
	<g>
		<path d="M3.62,19.411c5.819-3.953,11.637-7.905,17.456-11.858c0.795-0.54,0.046-1.84-0.757-1.295
			C14.5,10.211,8.681,14.164,2.863,18.116C2.067,18.656,2.817,19.957,3.62,19.411L3.62,19.411z"/>
	</g>
</g>
<g>
	<g>
		<path d="M26.992,11.678c3.926-2.667,7.852-5.333,11.777-8c0.795-0.54,0.046-1.84-0.757-1.295c-3.926,2.667-7.852,5.333-11.777,8
			C25.439,10.923,26.189,12.223,26.992,11.678L26.992,11.678z"/>
	</g>
</g>
<g>
	<g>
		<path d="M25.346,22.206c1.362-0.925,2.724-1.85,4.086-2.775c0.795-0.54,0.045-1.84-0.757-1.295
			c-1.362,0.925-2.724,1.85-4.086,2.775C23.794,21.451,24.544,22.751,25.346,22.206L25.346,22.206z"/>
	</g>
</g>
<g>
	<g>
		<path d="M25.846,24.431c1.362-0.925,2.724-1.851,4.086-2.776c0.795-0.54,0.046-1.84-0.757-1.295
			c-1.362,0.925-2.724,1.851-4.086,2.776C24.294,23.676,25.043,24.976,25.846,24.431L25.846,24.431z"/>
	</g>
</g>
<g>
	<g>
		<path d="M26.318,10.347c-2.659,1.958-4.797-0.881-4.872-3.441c-0.028-0.965-1.528-0.968-1.5,0c0.052,1.78,0.67,3.627,2.141,4.737
			c1.53,1.155,3.448,1.132,4.988-0.001C27.845,11.075,27.099,9.772,26.318,10.347L26.318,10.347z"/>
	</g>
</g>
<g>
	<g>
		<path d="M25.863,11.03c0,2.333,0,4.667,0,7c0,0.967,1.5,0.967,1.5,0c0-2.333,0-4.667,0-7
			C27.363,10.063,25.863,10.063,25.863,11.03L25.863,11.03z"/>
	</g>
</g>
<rect id="_x3C_Slice_x3E__86_" fill="none" width="40.125" height="25.354"/>
</svg>
