<?xml version="1.0" encoding="utf-8"?>
<!-- Generator: Adobe Illustrator 15.1.0, SVG Export Plug-In  -->
<!DOCTYPE svg PUBLIC "-//W3C//DTD SVG 1.1//EN" "http://www.w3.org/Graphics/SVG/1.1/DTD/svg11.dtd" [
	<!ENTITY ns_flows "http://ns.adobe.com/Flows/1.0/">
]>
<svg version="1.1"
	 xmlns="http://www.w3.org/2000/svg" xmlns:xlink="http://www.w3.org/1999/xlink" xmlns:a="http://ns.adobe.com/AdobeSVGViewerExtensions/3.0/"
	 x="0px" y="0px" width="18px" height="23px" viewBox="0.28 0 18 23" enable-background="new 0.28 0 18 23" xml:space="preserve">
<defs>
</defs>
<g>
	<g>
		<path d="M1,1.204c0,5.464,0,10.928,0,16.393c0,0.967,1.5,0.967,1.5,0c0-5.464,0-10.928,0-16.393C2.5,0.237,1,0.237,1,1.204
			L1,1.204z"/>
	</g>
</g>
<g>
	<g>
		<path d="M2.28,18.127c4.667-5.511,9.333-11.022,14-16.533c0.621-0.733-0.435-1.8-1.061-1.061c-4.667,5.511-9.333,11.022-14,16.533
			C0.599,17.8,1.654,18.866,2.28,18.127L2.28,18.127z"/>
	</g>
</g>
<g>
	<g>
		<path d="M1.75,21.814c4.667,0,9.333,0,14,0c0.967,0,0.967-1.5,0-1.5c-4.667,0-9.333,0-14,0C0.783,20.314,0.783,21.814,1.75,21.814
			L1.75,21.814z"/>
	</g>
</g>
<g>
	<g>
		<path d="M15,1.064c0,5.464,0,10.929,0,16.394c0,0.967,1.5,0.967,1.5,0c0-5.464,0-10.929,0-16.394C16.5,0.097,15,0.097,15,1.064
			L15,1.064z"/>
	</g>
</g>
<rect id="_x3C_Slice_x3E__86_" fill="none" width="17.7" height="22.985"/>
</svg>
