<?xml version="1.0" encoding="utf-8"?>
<!-- Generator: Adobe Illustrator 15.1.0, SVG Export Plug-In  -->
<!DOCTYPE svg PUBLIC "-//W3C//DTD SVG 1.1//EN" "http://www.w3.org/Graphics/SVG/1.1/DTD/svg11.dtd" [
	<!ENTITY ns_flows "http://ns.adobe.com/Flows/1.0/">
]>
<svg version="1.1"
	 xmlns="http://www.w3.org/2000/svg" xmlns:xlink="http://www.w3.org/1999/xlink" xmlns:a="http://ns.adobe.com/AdobeSVGViewerExtensions/3.0/"
	 x="0px" y="0px" width="30px" height="35px" viewBox="0.28 0 30 35" enable-background="new 0.28 0 30 35" xml:space="preserve">
<defs>
</defs>
<g>
	<g>
		<path d="M12.633,15.286c-1.816,4-3.632,8-5.447,12c-0.396,0.874,0.896,1.637,1.295,0.757c1.816-4,3.632-8,5.447-12
			C14.324,15.169,13.032,14.406,12.633,15.286L12.633,15.286z"/>
	</g>
</g>
<g>
	<g>
		<path d="M1.633,16.043c1.815,4,3.631,8,5.447,12c0.399,0.88,1.692,0.117,1.295-0.757c-1.815-4-3.631-8-5.447-12
			C2.528,14.406,1.236,15.169,1.633,16.043L1.633,16.043z"/>
	</g>
</g>
<g>
	<g>
		<path d="M27.677,1.762c-3.171,8.567-6.343,17.135-9.514,25.703c-0.336,0.909,1.114,1.297,1.446,0.398
			c3.171-8.567,6.343-17.135,9.514-25.703C29.459,1.251,28.009,0.863,27.677,1.762L27.677,1.762z"/>
	</g>
</g>
<g>
	<g>
		<path d="M12.685,16.043c1.815,4,3.631,8,5.447,12c0.399,0.88,1.691,0.117,1.295-0.757c-1.815-4-3.631-8-5.447-12
			C13.581,14.406,12.288,15.169,12.685,16.043L12.685,16.043z"/>
	</g>
</g>
<g>
	<g>
		<path d="M7.482,33.708c3.9,0,7.801,0,11.701,0c0.967,0,0.967-1.5,0-1.5c-3.9,0-7.801,0-11.701,0
			C6.515,32.208,6.515,33.708,7.482,33.708L7.482,33.708z"/>
	</g>
</g>
<rect id="_x3C_Slice_x3E__86_" fill="none" width="30" height="35"/>
</svg>
