<?xml version="1.0" encoding="utf-8"?>
<!-- Generator: Adobe Illustrator 15.1.0, SVG Export Plug-In  -->
<!DOCTYPE svg PUBLIC "-//W3C//DTD SVG 1.1//EN" "http://www.w3.org/Graphics/SVG/1.1/DTD/svg11.dtd" [
	<!ENTITY ns_flows "http://ns.adobe.com/Flows/1.0/">
]>
<svg version="1.1"
	 xmlns="http://www.w3.org/2000/svg" xmlns:xlink="http://www.w3.org/1999/xlink" xmlns:a="http://ns.adobe.com/AdobeSVGViewerExtensions/3.0/"
	 x="0px" y="0px" width="40px" height="23px" viewBox="0.28 0 40 23" enable-background="new 0.28 0 40 23" xml:space="preserve">
<defs>
</defs>
<g>
	<g>
		<path d="M14.18,21.928c4.042,0,8.083,0,12.125,0c0.967,0,0.967-1.5,0-1.5c-4.042,0-8.083,0-12.125,0
			C13.212,20.428,13.212,21.928,14.18,21.928L14.18,21.928z"/>
	</g>
</g>
<g>
	<g>
		<path d="M20.242,8.595c6.048,0.333,12.095,0.667,18.143,1c0.967,0.053,0.962-1.447,0-1.5c-6.048-0.333-12.095-0.667-18.143-1
			C19.275,7.042,19.28,8.542,20.242,8.595L20.242,8.595z"/>
	</g>
</g>
<g>
	<g>
		<path d="M2.099,9.595c6.048-0.333,12.095-0.667,18.143-1c0.962-0.053,0.967-1.553,0-1.5c-6.048,0.333-12.095,0.667-18.143,1
			C1.137,8.148,1.132,9.648,2.099,9.595L2.099,9.595z"/>
	</g>
</g>
<g>
	<g>
		<path d="M22.617,4.683c-0.165,3.062-4.585,3.062-4.75,0C17.702,1.62,22.453,1.636,22.617,4.683c0.052,0.962,1.552,0.967,1.5,0
			c-0.118-2.191-1.684-3.757-3.875-3.875c-2.187-0.118-3.767,1.861-3.875,3.875C16.25,6.87,18.229,8.45,20.242,8.558
			c2.187,0.118,3.767-1.861,3.875-3.875C24.169,3.716,22.669,3.721,22.617,4.683z"/>
	</g>
</g>
<g>
	<g>
		<path d="M30.664,14.85c2.7-1.786,5.4-3.571,8.1-5.357c0.803-0.531,0.053-1.831-0.757-1.295c-2.7,1.786-5.4,3.571-8.1,5.357
			C29.104,14.085,29.854,15.385,30.664,14.85L30.664,14.85z"/>
	</g>
</g>
<rect id="_x3C_Slice_x3E__88_" fill="none" width="40" height="23"/>
</svg>
