<?xml version="1.0" encoding="utf-8"?>
<!-- Generator: Adobe Illustrator 15.1.0, SVG Export Plug-In  -->
<!DOCTYPE svg PUBLIC "-//W3C//DTD SVG 1.1//EN" "http://www.w3.org/Graphics/SVG/1.1/DTD/svg11.dtd" [
	<!ENTITY ns_flows "http://ns.adobe.com/Flows/1.0/">
]>
<svg version="1.1"
	 xmlns="http://www.w3.org/2000/svg" xmlns:xlink="http://www.w3.org/1999/xlink" xmlns:a="http://ns.adobe.com/AdobeSVGViewerExtensions/3.0/"
	 x="0px" y="0px" width="38px" height="21px" viewBox="0.28 0 38 21" enable-background="new 0.28 0 38 21" xml:space="preserve">
<defs>
</defs>
<g>
	<g>
		<path d="M8.099,13.583c3,0,6,0,9,0c0.967,0,0.967-1.5,0-1.5c-3,0-6,0-9,0C7.131,12.083,7.131,13.583,8.099,13.583L8.099,13.583z"
			/>
	</g>
</g>
<g>
	<g>
		<path d="M16.437,7.741c3.034,1.81,6.067,3.62,9.102,5.43c0.833,0.497,1.586-0.8,0.757-1.295c-3.034-1.81-6.067-3.62-9.102-5.43
			C16.361,5.949,15.607,7.246,16.437,7.741L16.437,7.741z"/>
	</g>
</g>
<g>
	<g>
		<path d="M1.201,9.001c5.205-0.287,10.41-0.574,15.614-0.86c0.962-0.053,0.967-1.553,0-1.5c-5.205,0.287-10.41,0.574-15.614,0.86
			C0.239,7.555,0.234,9.055,1.201,9.001L1.201,9.001z"/>
	</g>
</g>
<g>
	<g>
		<path d="M18.065,4.67c-0.087,1.613-2.413,1.613-2.5,0C15.479,3.058,17.979,3.066,18.065,4.67c0.052,0.962,1.552,0.967,1.5,0
			c-0.084-1.554-1.196-2.666-2.75-2.75c-1.55-0.083-2.673,1.321-2.75,2.75c-0.083,1.551,1.322,2.673,2.75,2.75
			c1.551,0.083,2.673-1.322,2.75-2.75C19.618,3.703,18.117,3.708,18.065,4.67z"/>
	</g>
</g>
<g>
	<g>
		<path d="M18.195,18.528c2.7-1.786,5.4-3.571,8.1-5.357c0.803-0.531,0.053-1.831-0.757-1.295c-2.7,1.786-5.4,3.571-8.1,5.357
			C16.635,17.764,17.386,19.064,18.195,18.528L18.195,18.528z"/>
	</g>
</g>
<g>
	<g>
		<path d="M22.317,18.162c4.518,1.436,10.174,1.083,12.729-3.478c0.474-0.845-0.822-1.601-1.295-0.757
			c-2.227,3.974-7.173,4.016-11.036,2.788C21.792,16.422,21.399,17.87,22.317,18.162L22.317,18.162z"/>
	</g>
</g>
<polygon stroke="#000000" stroke-miterlimit="10" points="32.807,13.483 35.768,11.364 35.991,14.998 "/>
<rect id="_x3C_Slice_x3E__88_" fill="none" width="38" height="21"/>
</svg>
