<?xml version="1.0" encoding="utf-8"?>
<!-- Generator: Adobe Illustrator 15.1.0, SVG Export Plug-In  -->
<!DOCTYPE svg PUBLIC "-//W3C//DTD SVG 1.1//EN" "http://www.w3.org/Graphics/SVG/1.1/DTD/svg11.dtd" [
	<!ENTITY ns_flows "http://ns.adobe.com/Flows/1.0/">
]>
<svg version="1.1"
	 xmlns="http://www.w3.org/2000/svg" xmlns:xlink="http://www.w3.org/1999/xlink" xmlns:a="http://ns.adobe.com/AdobeSVGViewerExtensions/3.0/"
	 x="0px" y="0px" width="24px" height="29px" viewBox="0.28 -0.496 24 29" enable-background="new 0.28 -0.496 24 29"
	 xml:space="preserve">
<defs>
</defs>
<g>
	<g>
		<path d="M3.745,1.681c0,7.055,0,14.111,0,21.166c0,0.967,1.5,0.967,1.5,0c0-7.055,0-14.111,0-21.166
			C5.245,0.714,3.745,0.714,3.745,1.681L3.745,1.681z"/>
	</g>
</g>
<g>
	<g>
		<path d="M5.025,13.515C8.713,9.827,12.401,6.14,16.088,2.452c0.685-0.685-0.376-1.745-1.061-1.061
			C11.34,5.079,7.652,8.767,3.965,12.455C3.28,13.139,4.341,14.2,5.025,13.515L5.025,13.515z"/>
	</g>
</g>
<g>
	<g>
		<path d="M1.573,27.431c1.948,0,3.896,0,5.845,0c0.967,0,0.967-1.5,0-1.5c-1.948,0-3.896,0-5.845,0
			C0.605,25.931,0.605,27.431,1.573,27.431L1.573,27.431z"/>
	</g>
</g>
<g>
	<g>
		<path d="M21.287,1.921c-0.043,1.511-0.592,4.003-2.489,4.125c-1.88,0.12-2.452-2.803-2.49-4.125c-0.027-0.965-1.527-0.968-1.5,0
			c0.069,2.437,1.175,5.445,3.99,5.625c2.803,0.179,3.929-3.478,3.989-5.625C22.814,0.954,21.314,0.956,21.287,1.921L21.287,1.921z"
			/>
	</g>
</g>
<rect id="_x3C_Slice_x3E__86_" fill="none" width="23.602" height="28.228"/>
</svg>
