<?xml version="1.0" encoding="utf-8"?>
<!-- Generator: Adobe Illustrator 15.1.0, SVG Export Plug-In  -->
<!DOCTYPE svg PUBLIC "-//W3C//DTD SVG 1.1//EN" "http://www.w3.org/Graphics/SVG/1.1/DTD/svg11.dtd" [
	<!ENTITY ns_flows "http://ns.adobe.com/Flows/1.0/">
]>
<svg version="1.1"
	 xmlns="http://www.w3.org/2000/svg" xmlns:xlink="http://www.w3.org/1999/xlink" xmlns:a="http://ns.adobe.com/AdobeSVGViewerExtensions/3.0/"
	 x="0px" y="0px" width="32px" height="30px" viewBox="0.28 -0.5 32 30" enable-background="new 0.28 -0.5 32 30"
	 xml:space="preserve">
<defs>
</defs>
<g>
	<g>
		<path d="M13.449,4.305C10.314,0.373,0.638,0.459,0.691,6.827c0.043,4.993,8.289,7.994,11.425,4.146
			c0.261-0.32,0.307-0.745,0-1.061C8.563,6.256-0.703,9.006,1.443,14.907c1.485,4.082,10.42,5.7,12.994,2.018
			c0.556-0.795-0.745-1.543-1.295-0.757c-1.854,2.651-8.047,0.846-9.798-0.976c-3.684-3.832,4.883-7.13,7.711-4.22
			c0-0.354,0-0.707,0-1.061c-2.46,3.017-8.399,0.521-8.865-3.085c-0.667-5.175,8.153-4.024,10.197-1.461
			C12.992,6.122,14.046,5.053,13.449,4.305L13.449,4.305z"/>
	</g>
</g>
<g>
	<g>
		<path d="M6.989,22.563c4.087-6.667,8.175-13.333,12.262-20c0.507-0.827-0.791-1.58-1.295-0.757
			c-4.087,6.667-8.175,13.333-12.262,20C5.187,22.633,6.484,23.386,6.989,22.563L6.989,22.563z"/>
	</g>
</g>
<g>
	<g>
		<path d="M17.854,2.402c0,7.741,0,15.482,0,23.223c0,0.967,1.5,0.967,1.5,0c0-7.741,0-15.482,0-23.223
			C19.354,1.435,17.854,1.435,17.854,2.402L17.854,2.402z"/>
	</g>
</g>
<g>
	<g>
		<path d="M15.697,29.083c2,0,4,0,6,0c0.967,0,0.967-1.5,0-1.5c-2,0-4,0-6,0C14.729,27.583,14.729,29.083,15.697,29.083
			L15.697,29.083z"/>
	</g>
</g>
<g>
	<g>
		<path d="M19.013,14.764c2.969,0,5.938,0,8.908,0c0.967,0,0.967-1.5,0-1.5c-2.969,0-5.938,0-8.908,0
			C18.046,13.264,18.046,14.764,19.013,14.764L19.013,14.764z"/>
	</g>
</g>
<g>
	<g>
		<path d="M25.651,9.813c5.316,0.286,5.316,7.964,0,8.25c-0.962,0.052-0.967,1.552,0,1.5c3.184-0.171,5.454-2.441,5.625-5.625
			c0.171-3.177-2.699-5.467-5.625-5.625C24.685,8.261,24.689,9.761,25.651,9.813L25.651,9.813z"/>
	</g>
</g>
<polygon stroke="#000000" stroke-miterlimit="10" points="27.504,20.771 23.237,20.331 25.752,16.855 "/>
<rect id="_x3C_Slice_x3E__86_" fill="none" width="32" height="29.5"/>
</svg>
