<?xml version="1.0" encoding="utf-8"?>
<!-- Generator: Adobe Illustrator 15.1.0, SVG Export Plug-In  -->
<!DOCTYPE svg PUBLIC "-//W3C//DTD SVG 1.1//EN" "http://www.w3.org/Graphics/SVG/1.1/DTD/svg11.dtd" [
	<!ENTITY ns_flows "http://ns.adobe.com/Flows/1.0/">
]>
<svg version="1.1"
	 xmlns="http://www.w3.org/2000/svg" xmlns:xlink="http://www.w3.org/1999/xlink" xmlns:a="http://ns.adobe.com/AdobeSVGViewerExtensions/3.0/"
	 x="0px" y="0px" width="18px" height="30px" viewBox="0.28 0 18 30" enable-background="new 0.28 0 18 30" xml:space="preserve">
<defs>
</defs>
<g>
	<g>
		<path d="M0.801,7.62c0,5.464,0,10.928,0,16.393c0,0.967,1.5,0.967,1.5,0c0-5.464,0-10.928,0-16.393
			C2.301,6.653,0.801,6.653,0.801,7.62L0.801,7.62z"/>
	</g>
</g>
<g>
	<g>
		<path d="M2.081,24.543c4.667-5.511,9.333-11.022,14-16.533c0.621-0.733-0.435-1.8-1.061-1.061
			c-4.667,5.511-9.333,11.022-14,16.533C0.399,24.216,1.455,25.282,2.081,24.543L2.081,24.543z"/>
	</g>
</g>
<g>
	<g>
		<path d="M1.551,28.23c4.667,0,9.333,0,14,0c0.967,0,0.967-1.5,0-1.5c-4.667,0-9.333,0-14,0C0.583,26.73,0.583,28.23,1.551,28.23
			L1.551,28.23z"/>
	</g>
</g>
<g>
	<g>
		<path d="M14.801,7.48c0,5.464,0,10.929,0,16.394c0,0.967,1.5,0.967,1.5,0c0-5.464,0-10.929,0-16.394
			C16.301,6.513,14.801,6.513,14.801,7.48L14.801,7.48z"/>
	</g>
</g>
<g>
	<g>
		<path d="M11.801,1.697c-0.226,4.189-6.274,4.189-6.5,0c-0.052-0.962-1.552-0.967-1.5,0c0.145,2.688,2.063,4.605,4.75,4.75
			c2.682,0.145,4.617-2.28,4.75-4.75C13.353,0.73,11.853,0.735,11.801,1.697L11.801,1.697z"/>
	</g>
</g>
<rect id="_x3C_Slice_x3E__86_" fill="none" width="17.7" height="29.724"/>
</svg>
