<?xml version="1.0" encoding="utf-8"?>
<!-- Generator: Adobe Illustrator 15.1.0, SVG Export Plug-In  -->
<!DOCTYPE svg PUBLIC "-//W3C//DTD SVG 1.1//EN" "http://www.w3.org/Graphics/SVG/1.1/DTD/svg11.dtd" [
	<!ENTITY ns_flows "http://ns.adobe.com/Flows/1.0/">
]>
<svg version="1.1"
	 xmlns="http://www.w3.org/2000/svg" xmlns:xlink="http://www.w3.org/1999/xlink" xmlns:a="http://ns.adobe.com/AdobeSVGViewerExtensions/3.0/"
	 x="0px" y="0px" width="18px" height="24px" viewBox="0.28 6 18 24" enable-background="new 0.28 6 18 24" xml:space="preserve">
<defs>
</defs>
<g>
	<g>
		<path d="M4.325,28.624c3,0,6,0,9,0c0.967,0,0.967-1.5,0-1.5c-3,0-6,0-9,0C3.358,27.124,3.358,28.624,4.325,28.624L4.325,28.624z"
			/>
	</g>
</g>
<g>
	<g>
		<path d="M1.4,16.052c4.589,3.051,9.178,6.102,13.767,9.152c0.808,0.538,1.558-0.762,0.757-1.295
			c-4.589-3.051-9.178-6.102-13.767-9.152C1.349,14.219,0.599,15.519,1.4,16.052L1.4,16.052z"/>
	</g>
</g>
<g>
	<g>
		<path d="M1.779,16.154c4.667,0,9.333,0,14,0c0.967,0,0.967-1.5,0-1.5c-4.667,0-9.333,0-14,0
			C0.812,14.654,0.812,16.154,1.779,16.154L1.779,16.154z"/>
	</g>
</g>
<g>
	<g>
		<path d="M12.029,8.064c-0.226,4.189-6.274,4.189-6.5,0c-0.052-0.962-1.552-0.967-1.5,0c0.145,2.688,2.063,4.605,4.75,4.75
			c2.682,0.145,4.617-2.28,4.75-4.75C13.581,7.097,12.081,7.102,12.029,8.064L12.029,8.064z"/>
	</g>
</g>
<rect id="_x3C_Slice_x3E__87_" y="6" fill="none" width="18" height="24"/>
<rect id="_x3C_Slice_x3E__86_" x="18" fill="none" width="21" height="31"/>
</svg>
