<?xml version="1.0" encoding="utf-8"?>
<!-- Generator: Adobe Illustrator 15.1.0, SVG Export Plug-In  -->
<!DOCTYPE svg PUBLIC "-//W3C//DTD SVG 1.1//EN" "http://www.w3.org/Graphics/SVG/1.1/DTD/svg11.dtd" [
	<!ENTITY ns_flows "http://ns.adobe.com/Flows/1.0/">
]>
<svg version="1.1"
	 xmlns="http://www.w3.org/2000/svg" xmlns:xlink="http://www.w3.org/1999/xlink" xmlns:a="http://ns.adobe.com/AdobeSVGViewerExtensions/3.0/"
	 x="0px" y="0px" width="36px" height="36px" viewBox="0.28 -0.816 36 36" enable-background="new 0.28 -0.816 36 36"
	 xml:space="preserve">
<defs>
</defs>
<g>
	<g>
		<path d="M12.633,15.978c-1.816,4-3.632,8-5.447,12c-0.396,0.874,0.896,1.637,1.295,0.757c1.816-4,3.632-8,5.447-12
			C14.324,15.861,13.032,15.098,12.633,15.978L12.633,15.978z"/>
	</g>
</g>
<g>
	<g>
		<path d="M1.633,17.735c1.815,4,3.631,8,5.447,12c0.399,0.88,1.692,0.117,1.295-0.757c-1.815-4-3.631-8-5.447-12
			C2.528,16.098,1.236,16.861,1.633,17.735L1.633,17.735z"/>
	</g>
</g>
<g>
	<g>
		<path d="M27.677,2.454c-3.171,8.567-6.343,17.135-9.514,25.703c-0.336,0.909,1.114,1.297,1.446,0.398
			c3.171-8.567,6.343-17.135,9.514-25.703C29.459,1.943,28.009,1.555,27.677,2.454L27.677,2.454z"/>
	</g>
</g>
<g>
	<g>
		<path d="M12.685,16.735c1.815,4,3.631,8,5.447,12c0.399,0.88,1.691,0.117,1.295-0.757c-1.815-4-3.631-8-5.447-12
			C13.581,15.098,12.288,15.861,12.685,16.735L12.685,16.735z"/>
	</g>
</g>
<g>
	<g>
		<path d="M7.482,34.4c3.9,0,7.801,0,11.701,0c0.967,0,0.967-1.5,0-1.5c-3.9,0-7.801,0-11.701,0C6.515,32.9,6.515,34.4,7.482,34.4
			L7.482,34.4z"/>
	</g>
</g>
<g>
	<g>
		<path d="M34.129,2.653c-0.043,1.511-0.592,4.003-2.489,4.125c-1.88,0.12-2.452-2.803-2.49-4.125c-0.027-0.965-1.527-0.968-1.5,0
			c0.069,2.437,1.175,5.445,3.99,5.625c2.803,0.179,3.929-3.478,3.989-5.625C35.656,1.686,34.156,1.688,34.129,2.653L34.129,2.653z"
			/>
	</g>
</g>
<rect id="_x3C_Slice_x3E__86_" fill="none" width="36" height="35.184"/>
</svg>
