<?xml version="1.0" encoding="utf-8"?>
<!-- Generator: Adobe Illustrator 15.1.0, SVG Export Plug-In  -->
<!DOCTYPE svg PUBLIC "-//W3C//DTD SVG 1.1//EN" "http://www.w3.org/Graphics/SVG/1.1/DTD/svg11.dtd" [
	<!ENTITY ns_flows "http://ns.adobe.com/Flows/1.0/">
]>
<svg version="1.1"
	 xmlns="http://www.w3.org/2000/svg" xmlns:xlink="http://www.w3.org/1999/xlink" xmlns:a="http://ns.adobe.com/AdobeSVGViewerExtensions/3.0/"
	 x="0px" y="0px" width="40px" height="31px" viewBox="0.28 18 40 31" enable-background="new 0.28 18 40 31" xml:space="preserve">
<defs>
</defs>
<g>
	<g>
		<path d="M14.18,47.623c4.042,0,8.083,0,12.125,0c0.967,0,0.967-1.5,0-1.5c-4.042,0-8.083,0-12.125,0
			C13.212,46.123,13.212,47.623,14.18,47.623L14.18,47.623z"/>
	</g>
</g>
<g>
	<g>
		<path d="M20.242,34.29c6.048,0.333,12.095,0.667,18.143,1c0.967,0.053,0.962-1.447,0-1.5c-6.048-0.333-12.095-0.667-18.143-1
			C19.275,32.736,19.28,34.236,20.242,34.29L20.242,34.29z"/>
	</g>
</g>
<g>
	<g>
		<path d="M2.099,35.29c6.048-0.333,12.095-0.667,18.143-1c0.962-0.053,0.967-1.553,0-1.5c-6.048,0.333-12.095,0.667-18.143,1
			C1.137,33.843,1.132,35.343,2.099,35.29L2.099,35.29z"/>
	</g>
</g>
<g>
	<g>
		<path d="M22.617,30.378c-0.165,3.062-4.585,3.062-4.75,0C17.702,27.315,22.453,27.331,22.617,30.378
			c0.052,0.962,1.552,0.967,1.5,0c-0.118-2.191-1.684-3.757-3.875-3.875c-2.187-0.118-3.767,1.861-3.875,3.875
			c-0.118,2.187,1.861,3.767,3.875,3.875c2.187,0.118,3.767-1.861,3.875-3.875C24.169,29.411,22.669,29.416,22.617,30.378z"/>
	</g>
</g>
<g>
	<g>
		<path d="M30.664,40.544c2.7-1.786,5.4-3.571,8.1-5.357c0.803-0.531,0.053-1.831-0.757-1.295c-2.7,1.786-5.4,3.571-8.1,5.357
			C29.104,39.78,29.854,41.08,30.664,40.544L30.664,40.544z"/>
	</g>
</g>
<g>
	<g>
		<path d="M2.478,35.163c2.7-1.786,5.4-3.571,8.1-5.357c0.803-0.531,0.052-1.831-0.757-1.295c-2.7,1.786-5.4,3.571-8.1,5.357
			C0.918,34.399,1.668,35.699,2.478,35.163L2.478,35.163z"/>
	</g>
</g>
<g>
	<g>
		<path d="M23.492,19.624c-0.226,4.189-6.274,4.189-6.5,0c-0.052-0.962-1.552-0.967-1.5,0c0.145,2.688,2.063,4.605,4.75,4.75
			c2.682,0.145,4.617-2.28,4.75-4.75C25.044,18.657,23.544,18.662,23.492,19.624L23.492,19.624z"/>
	</g>
</g>
<rect id="_x3C_Slice_x3E__91_" y="18" fill="none" width="40" height="30.686"/>
<rect id="_x3C_Slice_x3E__90_" x="40" fill="none" width="36.58" height="18.815"/>
<rect id="_x3C_Slice_x3E__89_" x="40" y="19" fill="none" width="37" height="13"/>
<rect id="_x3C_Slice_x3E__88_" x="40" y="32" fill="none" width="37" height="18.76"/>
</svg>
