<?xml version="1.0" encoding="utf-8"?>
<!-- Generator: Adobe Illustrator 15.1.0, SVG Export Plug-In  -->
<!DOCTYPE svg PUBLIC "-//W3C//DTD SVG 1.1//EN" "http://www.w3.org/Graphics/SVG/1.1/DTD/svg11.dtd" [
	<!ENTITY ns_flows "http://ns.adobe.com/Flows/1.0/">
]>
<svg version="1.1"
	 xmlns="http://www.w3.org/2000/svg" xmlns:xlink="http://www.w3.org/1999/xlink" xmlns:a="http://ns.adobe.com/AdobeSVGViewerExtensions/3.0/"
	 x="0px" y="0px" width="37px" height="19px" viewBox="0.28 0 37 19" enable-background="new 0.28 0 37 19" xml:space="preserve">
<defs>
</defs>
<g>
	<g>
		<path d="M34.369,13.477c-5.423-2.815-10.846-5.63-16.27-8.444c-0.857-0.445-1.616,0.849-0.757,1.295
			c5.423,2.815,10.846,5.63,16.27,8.444C34.469,15.217,35.228,13.923,34.369,13.477L34.369,13.477z"/>
	</g>
</g>
<g>
	<g>
		<path d="M2.369,14.679c5.364-2.784,10.727-5.567,16.091-8.352c0.859-0.446,0.1-1.74-0.757-1.295
			C12.339,7.816,6.976,10.6,1.612,13.384C0.753,13.83,1.512,15.124,2.369,14.679L2.369,14.679z"/>
	</g>
</g>
<g>
	<g>
		<path d="M13.599,17.468c3,0,6,0,9,0c0.967,0,0.967-1.5,0-1.5c-3,0-6,0-9,0C12.631,15.968,12.631,17.468,13.599,17.468
			L13.599,17.468z"/>
	</g>
</g>
<g>
	<g>
		<path d="M18.785,3.547c-0.057,1.063-1.589,1.062-1.646,0C17.082,2.486,18.729,2.492,18.785,3.547c0.052,0.962,1.552,0.967,1.5,0
			c-0.071-1.312-1.011-2.251-2.322-2.322c-1.309-0.071-2.259,1.115-2.324,2.322c-0.071,1.311,1.118,2.258,2.324,2.323
			c1.31,0.07,2.257-1.117,2.322-2.323C20.337,2.581,18.837,2.585,18.785,3.547z"/>
	</g>
</g>
<rect id="_x3C_Slice_x3E__88_" fill="none" width="36.58" height="18.815"/>
</svg>
