<?xml version="1.0" encoding="utf-8"?>
<!-- Generator: Adobe Illustrator 15.1.0, SVG Export Plug-In  -->
<!DOCTYPE svg PUBLIC "-//W3C//DTD SVG 1.1//EN" "http://www.w3.org/Graphics/SVG/1.1/DTD/svg11.dtd" [
	<!ENTITY ns_flows "http://ns.adobe.com/Flows/1.0/">
]>
<svg version="1.1"
	 xmlns="http://www.w3.org/2000/svg" xmlns:xlink="http://www.w3.org/1999/xlink" xmlns:a="http://ns.adobe.com/AdobeSVGViewerExtensions/3.0/"
	 x="0px" y="0px" width="44px" height="16px" viewBox="0.28 0 44 16" enable-background="new 0.28 0 44 16" xml:space="preserve">
<defs>
</defs>
<g>
	<g>
		<path d="M12.315,14.468c3,0,6,0,9,0c0.967,0,0.967-1.5,0-1.5c-3,0-6,0-9,0C11.348,12.968,11.348,14.468,12.315,14.468
			L12.315,14.468z"/>
	</g>
</g>
<g>
	<g>
		<path d="M16.815,7.497c5.205,0.287,10.41,0.574,15.614,0.86c0.967,0.053,0.962-1.447,0-1.5c-5.205-0.287-10.41-0.574-15.614-0.86
			C15.848,5.943,15.853,7.443,16.815,7.497L16.815,7.497z"/>
	</g>
</g>
<g>
	<g>
		<path d="M1.201,8.357c5.205-0.287,10.41-0.574,15.614-0.86c0.962-0.053,0.967-1.553,0-1.5C11.61,6.283,6.405,6.57,1.201,6.857
			C0.239,6.91,0.234,8.41,1.201,8.357L1.201,8.357z"/>
	</g>
</g>
<g>
	<g>
		<path d="M18.065,4.025c-0.087,1.613-2.413,1.613-2.5,0C15.478,2.413,17.979,2.421,18.065,4.025c0.052,0.962,1.552,0.967,1.5,0
			c-0.084-1.554-1.196-2.666-2.75-2.75c-1.55-0.083-2.673,1.321-2.75,2.75c-0.083,1.551,1.322,2.673,2.75,2.75
			c1.551,0.083,2.673-1.322,2.75-2.75C19.617,3.059,18.117,3.063,18.065,4.025z"/>
	</g>
</g>
<g>
	<g>
		<path d="M24.708,13.772c2.7-1.786,5.4-3.571,8.1-5.357c0.803-0.531,0.053-1.831-0.757-1.295c-2.7,1.786-5.4,3.571-8.1,5.357
			C23.148,13.008,23.898,14.308,24.708,13.772L24.708,13.772z"/>
	</g>
</g>
<g>
	<g>
		<path d="M28.18,13.828c4.518,1.436,10.174,1.083,12.729-3.478c0.474-0.845-0.822-1.601-1.295-0.757
			c-2.227,3.974-7.173,4.016-11.036,2.788C27.654,12.087,27.261,13.536,28.18,13.828L28.18,13.828z"/>
	</g>
</g>
<polygon stroke="#000000" stroke-miterlimit="10" points="38.24,10.011 41.2,7.892 41.424,11.526 "/>
<rect id="_x3C_Slice_x3E__88_" fill="none" width="43.25" height="15.894"/>
</svg>
