<?xml version="1.0" encoding="utf-8"?>
<!-- Generator: Adobe Illustrator 15.1.0, SVG Export Plug-In  -->
<!DOCTYPE svg PUBLIC "-//W3C//DTD SVG 1.1//EN" "http://www.w3.org/Graphics/SVG/1.1/DTD/svg11.dtd" [
	<!ENTITY ns_flows "http://ns.adobe.com/Flows/1.0/">
]>
<svg version="1.1"
	 xmlns="http://www.w3.org/2000/svg" xmlns:xlink="http://www.w3.org/1999/xlink" xmlns:a="http://ns.adobe.com/AdobeSVGViewerExtensions/3.0/"
	 x="0px" y="0px" width="25px" height="28px" viewBox="0.28 26.313 25 28" enable-background="new 0.28 26.313 25 28"
	 xml:space="preserve">
<defs>
</defs>
<g>
	<g>
		<path d="M21.53,39.037c-0.642,11.92-17.858,11.92-18.5,0c-0.282-5.23,4.43-8.99,9.25-9.25
			C17.512,29.505,21.271,34.216,21.53,39.037c0.052,0.962,1.552,0.967,1.5,0c-0.328-6.09-4.66-10.422-10.75-10.75
			c-6.077-0.327-10.449,5.155-10.75,10.75c-0.327,6.077,5.155,10.449,10.75,10.75c6.077,0.327,10.449-5.154,10.75-10.75
			C23.083,38.07,21.582,38.075,21.53,39.037z"/>
	</g>
</g>
<g>
	<g>
		<path d="M4.28,53.162c5.333,0,10.667,0,16,0c0.967,0,0.967-1.5,0-1.5c-5.333,0-10.667,0-16,0
			C3.313,51.662,3.313,53.162,4.28,53.162L4.28,53.162z"/>
	</g>
</g>
<g>
	<g>
		<path d="M20.428,29.667C14.535,35.56,8.643,41.453,2.75,47.345c-0.685,0.685,0.376,1.745,1.061,1.061
			c5.893-5.893,11.785-11.785,17.678-17.678C22.173,30.043,21.112,28.983,20.428,29.667L20.428,29.667z"/>
	</g>
</g>
<rect id="_x3C_Slice_x3E__87_" x="0.28" fill="none" width="24" height="26.675"/>
<rect id="_x3C_Slice_x3E__86_" y="26.313" fill="none" width="25" height="28"/>
</svg>
