<?xml version="1.0" encoding="utf-8"?>
<!-- Generator: Adobe Illustrator 15.1.0, SVG Export Plug-In  -->
<!DOCTYPE svg PUBLIC "-//W3C//DTD SVG 1.1//EN" "http://www.w3.org/Graphics/SVG/1.1/DTD/svg11.dtd" [
	<!ENTITY ns_flows "http://ns.adobe.com/Flows/1.0/">
]>
<svg version="1.1"
	 xmlns="http://www.w3.org/2000/svg" xmlns:xlink="http://www.w3.org/1999/xlink" xmlns:a="http://ns.adobe.com/AdobeSVGViewerExtensions/3.0/"
	 x="0px" y="0px" width="22px" height="33px" viewBox="0.28 30 22 33" enable-background="new 0.28 30 22 33" xml:space="preserve">
<defs>
</defs>
<g>
	<g>
		<path d="M1.117,40.579c0,5.464,0,10.928,0,16.393c0,0.967,1.5,0.967,1.5,0c0-5.464,0-10.928,0-16.393
			C2.617,39.612,1.117,39.612,1.117,40.579L1.117,40.579z"/>
	</g>
</g>
<g>
	<g>
		<path d="M2.397,57.502c4.667-5.511,9.333-11.022,14-16.533c0.621-0.733-0.435-1.8-1.061-1.061
			c-4.667,5.511-9.333,11.022-14,16.533C0.716,57.175,1.771,58.241,2.397,57.502L2.397,57.502z"/>
	</g>
</g>
<g>
	<g>
		<path d="M1.867,61.189c4.667,0,9.333,0,14,0c0.967,0,0.967-1.5,0-1.5c-4.667,0-9.333,0-14,0C0.9,59.689,0.9,61.189,1.867,61.189
			L1.867,61.189z"/>
	</g>
</g>
<g>
	<g>
		<path d="M15.117,40.439c0,5.464,0,10.929,0,16.394c0,0.967,1.5,0.967,1.5,0c0-5.464,0-10.929,0-16.394
			C16.617,39.472,15.117,39.472,15.117,40.439L15.117,40.439z"/>
	</g>
</g>
<circle fill="none" stroke="#000000" stroke-width="1.5" stroke-miterlimit="10" cx="7.75" cy="35.31" r="3"/>
<g>
	<g>
		<path d="M16.397,57.363c1.222-1.371,2.443-2.742,3.665-4.112c0.642-0.719-0.416-1.784-1.061-1.061
			c-1.222,1.371-2.443,2.742-3.665,4.112C14.695,57.021,15.753,58.086,16.397,57.363L16.397,57.363z"/>
	</g>
</g>
<rect id="_x3C_Slice_x3E__87_" fill="none" width="19" height="31"/>
<rect id="_x3C_Slice_x3E__86_" y="30" fill="none" width="21.125" height="33"/>
</svg>
