<?xml version="1.0" encoding="utf-8"?>
<!-- Generator: Adobe Illustrator 15.1.0, SVG Export Plug-In  -->
<!DOCTYPE svg PUBLIC "-//W3C//DTD SVG 1.1//EN" "http://www.w3.org/Graphics/SVG/1.1/DTD/svg11.dtd" [
	<!ENTITY ns_flows "http://ns.adobe.com/Flows/1.0/">
]>
<svg version="1.1"
	 xmlns="http://www.w3.org/2000/svg" xmlns:xlink="http://www.w3.org/1999/xlink" xmlns:a="http://ns.adobe.com/AdobeSVGViewerExtensions/3.0/"
	 x="0px" y="0px" width="18px" height="33px" viewBox="0.28 0 18 33" enable-background="new 0.28 0 18 33" xml:space="preserve">
<defs>
</defs>
<g>
	<g>
		<path d="M0.801,11.344c0,5.464,0,10.928,0,16.393c0,0.967,1.5,0.967,1.5,0c0-5.464,0-10.928,0-16.393
			C2.301,10.377,0.801,10.377,0.801,11.344L0.801,11.344z"/>
	</g>
</g>
<g>
	<g>
		<path d="M2.081,28.267c4.667-5.511,9.333-11.022,14-16.533c0.621-0.733-0.435-1.8-1.061-1.061
			c-4.667,5.511-9.333,11.022-14,16.533C0.399,27.94,1.455,29.006,2.081,28.267L2.081,28.267z"/>
	</g>
</g>
<g>
	<g>
		<path d="M1.551,31.954c4.667,0,9.333,0,14,0c0.967,0,0.967-1.5,0-1.5c-4.667,0-9.333,0-14,0
			C0.583,30.454,0.583,31.954,1.551,31.954L1.551,31.954z"/>
	</g>
</g>
<g>
	<g>
		<path d="M14.801,11.204c0,5.464,0,10.929,0,16.394c0,0.967,1.5,0.967,1.5,0c0-5.464,0-10.929,0-16.394
			C16.301,10.237,14.801,10.237,14.801,11.204L14.801,11.204z"/>
	</g>
</g>
<circle fill="none" stroke="#000000" stroke-width="1.5" stroke-miterlimit="10" cx="8.551" cy="5.685" r="4"/>
<rect id="_x3C_Slice_x3E__86_" fill="none" width="17.7" height="32.375"/>
</svg>
