<?xml version="1.0" encoding="utf-8"?>
<!-- Generator: Adobe Illustrator 15.1.0, SVG Export Plug-In  -->
<!DOCTYPE svg PUBLIC "-//W3C//DTD SVG 1.1//EN" "http://www.w3.org/Graphics/SVG/1.1/DTD/svg11.dtd" [
	<!ENTITY ns_flows "http://ns.adobe.com/Flows/1.0/">
]>
<svg version="1.1"
	 xmlns="http://www.w3.org/2000/svg" xmlns:xlink="http://www.w3.org/1999/xlink" xmlns:a="http://ns.adobe.com/AdobeSVGViewerExtensions/3.0/"
	 x="0px" y="0px" width="20px" height="28px" viewBox="0.28 0 20 28" enable-background="new 0.28 0 20 28" xml:space="preserve">
<defs>
</defs>
<g>
	<g>
		<path d="M3.5,11.656c0,3.856,0,7.712,0,11.568c0,0.967,1.5,0.967,1.5,0c0-3.856,0-7.712,0-11.568C5,10.688,3.5,10.688,3.5,11.656
			L3.5,11.656z"/>
	</g>
</g>
<g>
	<g>
		<path d="M4.898,23.602c2.353-3.89,4.706-7.779,7.058-11.669c0.502-0.83-0.795-1.583-1.295-0.757
			c-2.353,3.89-4.706,7.779-7.058,11.669C3.101,23.675,4.398,24.428,4.898,23.602L4.898,23.602z"/>
	</g>
</g>
<g>
	<g>
		<path d="M5.256,27.73c3,0,6,0,9,0c0.967,0,0.967-1.5,0-1.5c-3,0-6,0-9,0C4.289,26.23,4.289,27.73,5.256,27.73L5.256,27.73z"/>
	</g>
</g>
<g>
	<g>
		<path d="M10.615,11.656c0,3.856,0,7.712,0,11.568c0,0.967,1.5,0.967,1.5,0c0-3.856,0-7.712,0-11.568
			C12.115,10.688,10.615,10.688,10.615,11.656L10.615,11.656z"/>
	</g>
</g>
<g>
	<g>
		<path d="M12.012,23.602c1.719-3.186,3.438-6.371,5.156-9.557c0.459-0.851-0.835-1.608-1.295-0.757
			c-1.719,3.186-3.438,6.371-5.156,9.557C10.258,23.696,11.553,24.454,12.012,23.602L12.012,23.602z"/>
	</g>
</g>
<g>
	<g>
		<path d="M3.218,9.358c1.359-3.846,5.422-7.095,9.542-4.94c2.638,1.38,4.545,5.956,3.184,8.696
			c-0.429,0.863,0.865,1.624,1.295,0.757c1.923-3.871-0.658-9.146-4.269-11.034C8.2,0.342,3.271,4.716,1.772,8.96
			C1.449,9.874,2.898,10.264,3.218,9.358L3.218,9.358z"/>
	</g>
</g>
<rect id="_x3C_Slice_x3E__88_" fill="none" width="19.02" height="29"/>
</svg>
