<?xml version="1.0" encoding="utf-8"?>
<!-- Generator: Adobe Illustrator 15.1.0, SVG Export Plug-In  -->
<!DOCTYPE svg PUBLIC "-//W3C//DTD SVG 1.1//EN" "http://www.w3.org/Graphics/SVG/1.1/DTD/svg11.dtd" [
	<!ENTITY ns_flows "http://ns.adobe.com/Flows/1.0/">
]>
<svg version="1.1"
	 xmlns="http://www.w3.org/2000/svg" xmlns:xlink="http://www.w3.org/1999/xlink" xmlns:a="http://ns.adobe.com/AdobeSVGViewerExtensions/3.0/"
	 x="0px" y="0px" width="35px" height="17px" viewBox="0.28 0 35 17" enable-background="new 0.28 0 35 17" xml:space="preserve">
<defs>
</defs>
<g>
	<g>
		<path d="M1.815,1.924c5.464,0,10.928,0,16.393,0c0.967,0,0.967-1.5,0-1.5c-5.464,0-10.928,0-16.393,0
			C0.848,0.424,0.848,1.924,1.815,1.924L1.815,1.924z"/>
	</g>
</g>
<g>
	<g>
		<path d="M17.678,0.644c-5.511,4.667-11.022,9.333-16.533,14c-0.739,0.626,0.327,1.682,1.061,1.061
			c5.511-4.667,11.022-9.333,16.533-14C19.478,1.079,18.411,0.023,17.678,0.644L17.678,0.644z"/>
	</g>
</g>
<g>
	<g>
		<path d="M1.675,15.924c10.664,0,21.328,0,31.991,0c0.967,0,0.967-1.5,0-1.5c-10.664,0-21.328,0-31.991,0
			C0.708,14.424,0.708,15.924,1.675,15.924L1.675,15.924z"/>
	</g>
</g>
<g>
	<g>
		<path d="M23.833,15.174c0-1.221,0-2.442,0-3.663c0-0.967-1.5-0.967-1.5,0c0,1.221,0,2.442,0,3.663
			C22.333,16.142,23.833,16.142,23.833,15.174L23.833,15.174z"/>
	</g>
</g>
<rect id="_x3C_Slice_x3E__91_" fill="none" width="34.667" height="16.261"/>
<rect id="_x3C_Slice_x3E__90_" x="35" fill="none" width="17" height="21"/>
</svg>
