<?xml version="1.0" encoding="utf-8"?>
<!-- Generator: Adobe Illustrator 15.1.0, SVG Export Plug-In  -->
<!DOCTYPE svg PUBLIC "-//W3C//DTD SVG 1.1//EN" "http://www.w3.org/Graphics/SVG/1.1/DTD/svg11.dtd" [
	<!ENTITY ns_flows "http://ns.adobe.com/Flows/1.0/">
]>
<svg version="1.1"
	 xmlns="http://www.w3.org/2000/svg" xmlns:xlink="http://www.w3.org/1999/xlink" xmlns:a="http://ns.adobe.com/AdobeSVGViewerExtensions/3.0/"
	 x="0px" y="0px" width="17px" height="21px" viewBox="0.28 0 17 21" enable-background="new 0.28 0 17 21" xml:space="preserve">
<defs>
</defs>
<g>
	<g>
		<path d="M2.764,19.76c2.167-5.854,4.333-11.707,6.5-17.561C9.6,1.29,8.15,0.902,7.817,1.801c-2.167,5.854-4.333,11.707-6.5,17.561
			C0.981,20.271,2.431,20.659,2.764,19.76L2.764,19.76z"/>
	</g>
</g>
<g>
	<g>
		<path d="M15.89,19.361c-2.167-5.854-4.333-11.707-6.5-17.561C9.057,0.902,7.607,1.29,7.943,2.199
			c2.167,5.854,4.333,11.707,6.5,17.561C14.776,20.659,16.226,20.271,15.89,19.361L15.89,19.361z"/>
	</g>
</g>
<g>
	<g>
		<path d="M13.79,6.638c-2.705,3.171-7.372,3.285-10.246,0.26c-0.667-0.703-1.727,0.36-1.061,1.061
			c3.401,3.58,9.141,3.523,12.367-0.26C15.474,6.967,14.418,5.9,13.79,6.638L13.79,6.638z"/>
	</g>
</g>
<rect id="_x3C_Slice_x3E__90_" fill="none" width="17" height="21"/>
</svg>
