<?xml version="1.0" encoding="utf-8"?>
<!-- Generator: Adobe Illustrator 15.1.0, SVG Export Plug-In  -->
<!DOCTYPE svg PUBLIC "-//W3C//DTD SVG 1.1//EN" "http://www.w3.org/Graphics/SVG/1.1/DTD/svg11.dtd" [
	<!ENTITY ns_flows "http://ns.adobe.com/Flows/1.0/">
]>
<svg version="1.1"
	 xmlns="http://www.w3.org/2000/svg" xmlns:xlink="http://www.w3.org/1999/xlink" xmlns:a="http://ns.adobe.com/AdobeSVGViewerExtensions/3.0/"
	 x="0px" y="0px" width="32px" height="22px" viewBox="-0.159 0 32 22" enable-background="new -0.159 0 32 22"
	 xml:space="preserve">
<defs>
</defs>
<g>
	<g>
		<path d="M8.491,20.294C14.747,14.04,21.002,7.785,27.258,1.53c0.685-0.685-0.376-1.745-1.061-1.061
			C19.941,6.725,13.687,12.979,7.431,19.234C6.746,19.918,7.807,20.979,8.491,20.294L8.491,20.294z"/>
	</g>
</g>
<g>
	<g>
		<path d="M8.68,16.666c-0.229,4.246-6.36,4.246-6.589,0C1.862,12.417,8.452,12.439,8.68,16.666c0.052,0.962,1.552,0.967,1.5,0
			c-0.146-2.712-2.081-4.648-4.794-4.794c-2.707-0.146-4.661,2.301-4.795,4.794c-0.146,2.707,2.302,4.66,4.795,4.794
			c2.707,0.146,4.659-2.302,4.794-4.794C10.231,15.699,8.731,15.704,8.68,16.666z"/>
	</g>
</g>
<g>
	<g>
		<path d="M24.638,19.234C18.382,12.979,12.127,6.725,5.871,0.47C5.187-0.215,4.126,0.846,4.811,1.53
			c6.256,6.255,12.511,12.509,18.767,18.764C24.262,20.979,25.322,19.918,24.638,19.234L24.638,19.234z"/>
	</g>
</g>
<g>
	<g>
		<path d="M21.889,16.666c0.146,2.712,2.081,4.648,4.794,4.794c2.707,0.146,4.661-2.301,4.795-4.794
			c0.146-2.707-2.302-4.66-4.795-4.794C23.976,11.725,22.023,14.173,21.889,16.666c-0.052,0.967,1.448,0.962,1.5,0
			c0.229-4.246,6.36-4.246,6.589,0c0.229,4.248-6.361,4.226-6.589,0C23.337,15.704,21.837,15.699,21.889,16.666z"/>
	</g>
</g>
<rect id="_x3C_Slice_x3E__143_" fill="none" width="31.305" height="22"/>
</svg>
