<?xml version="1.0" encoding="utf-8"?>
<!-- Generator: Adobe Illustrator 15.1.0, SVG Export Plug-In  -->
<!DOCTYPE svg PUBLIC "-//W3C//DTD SVG 1.1//EN" "http://www.w3.org/Graphics/SVG/1.1/DTD/svg11.dtd" [
	<!ENTITY ns_flows "http://ns.adobe.com/Flows/1.0/">
]>
<svg version="1.1"
	 xmlns="http://www.w3.org/2000/svg" xmlns:xlink="http://www.w3.org/1999/xlink" xmlns:a="http://ns.adobe.com/AdobeSVGViewerExtensions/3.0/"
	 x="0px" y="0px" width="23px" height="23px" viewBox="24.841 0 23 23" enable-background="new 24.841 0 23 23"
	 xml:space="preserve">
<defs>
</defs>
<g>
	<g>
		<path d="M33.486,15.065c-0.387,0.605-0.984,1.288-1.783,1.122c-0.979-0.203-1.236-1.636-1.283-2.438
			c-0.057-0.961-1.557-0.967-1.5,0c0.086,1.465,0.632,3.301,2.193,3.821c1.548,0.516,2.868-0.495,3.668-1.748
			C35.304,15.004,34.005,14.253,33.486,15.065L33.486,15.065z"/>
	</g>
</g>
<g>
	<g>
		<path d="M34.681,15.956c2.011-2.938,4.021-5.875,6.03-8.813c0.548-0.801-0.753-1.55-1.295-0.757
			c-2.01,2.938-4.021,5.875-6.03,8.813C32.838,16,34.139,16.749,34.681,15.956L34.681,15.956z"/>
	</g>
</g>
<g>
	<g>
		<path d="M36.936,6.171c0,5.171,0,10.343,0,15.515c0,0.967,1.5,0.967,1.5,0c0-5.171,0-10.343,0-15.515
			C38.436,5.204,36.936,5.204,36.936,6.171L36.936,6.171z"/>
	</g>
</g>
<g>
	<g>
		<path d="M38.436,6.171c-0.014-0.785-0.03-1.692,0.354-2.405c0.065-0.122,0.069-0.118,0.126-0.179
			c0.013-0.013,0.152-0.103,0.059-0.065c0.191-0.077-0.043-0.03,0.16-0.026c-0.23-0.004,0.219,0.081,0.042,0.005
			c0.34,0.146,0.509,0.372,0.694,0.771c0.287,0.62-0.184,1.766-0.636,2.365c-0.584,0.772,0.72,1.519,1.295,0.757
			c1.202-1.591,1.358-4.475-0.835-5.289c-0.696-0.259-1.473-0.03-1.941,0.539c-0.786,0.955-0.838,2.351-0.818,3.528
			C36.952,7.137,38.452,7.139,38.436,6.171L38.436,6.171z"/>
	</g>
</g>
<g>
	<g>
		<path d="M27.091,17.877c0-5.626,0-11.251,0-16.877c0-0.967-1.5-0.967-1.5,0c0,5.626,0,11.251,0,16.877
			C25.591,18.845,27.091,18.845,27.091,17.877L27.091,17.877z"/>
	</g>
</g>
<g>
	<g>
		<path d="M29.022,13.197c-1.079,1.47-2.157,2.941-3.235,4.412c-0.573,0.781,0.729,1.528,1.295,0.757
			c1.078-1.47,2.157-2.941,3.235-4.412C30.891,13.172,29.588,12.425,29.022,13.197L29.022,13.197z"/>
	</g>
</g>
<g>
	<g>
		<path d="M47.36,12.296c0-3.309,0-6.618,0-9.927c0-0.967-1.5-0.967-1.5,0c0,3.309,0,6.618,0,9.927
			C45.86,13.263,47.36,13.263,47.36,12.296L47.36,12.296z"/>
	</g>
</g>
<g>
	<circle cx="46.611" cy="15.07" r="0.5"/>
	<g>
		<path d="M47.861,15.07c-0.08-0.598-0.399-1.136-1.051-1.224c-0.718-0.097-1.335,0.373-1.432,1.091
			c-0.208,1.552,2.247,1.882,2.456,0.332c0.054-0.405-0.091-0.803-0.524-0.922c-0.354-0.097-0.868,0.118-0.923,0.524
			c0.286-0.143,0.427-0.002,0.423,0.422c-0.133,0-0.266,0-0.398,0c-0.018-0.074-0.034-0.148-0.051-0.223
			c0.055,0.405,0.3,0.75,0.75,0.75C47.479,15.82,47.916,15.476,47.861,15.07z"/>
	</g>
</g>
<g>
	<g>
		<path d="M45.964,2.098c-4.112,5.737-8.226,11.475-12.338,17.213c-0.565,0.788,0.737,1.536,1.295,0.757
			c4.112-5.737,8.226-11.475,12.338-17.213C47.824,2.067,46.521,1.319,45.964,2.098L45.964,2.098z"/>
	</g>
</g>
<rect id="_x3C_Slice_x3E__144_" fill="none" width="25" height="20.813"/>
<rect id="_x3C_Slice_x3E__143_" x="25" fill="none" width="23" height="22.563"/>
</svg>
