<?xml version="1.0" encoding="utf-8"?>
<!-- Generator: Adobe Illustrator 15.1.0, SVG Export Plug-In  -->
<!DOCTYPE svg PUBLIC "-//W3C//DTD SVG 1.1//EN" "http://www.w3.org/Graphics/SVG/1.1/DTD/svg11.dtd" [
	<!ENTITY ns_flows "http://ns.adobe.com/Flows/1.0/">
]>
<svg version="1.1"
	 xmlns="http://www.w3.org/2000/svg" xmlns:xlink="http://www.w3.org/1999/xlink" xmlns:a="http://ns.adobe.com/AdobeSVGViewerExtensions/3.0/"
	 x="0px" y="0px" width="12px" height="20px" viewBox="-0.159 -0.625 12 20" enable-background="new -0.159 -0.625 12 20"
	 xml:space="preserve">
<defs>
</defs>
<g>
	<g>
		<path d="M10.532,14.348c0-4.306,0-8.612,0-12.918c0-0.967-1.5-0.967-1.5,0c0,4.306,0,8.612,0,12.918
			C9.032,15.315,10.532,15.315,10.532,14.348L10.532,14.348z"/>
	</g>
</g>
<g>
	<circle cx="9.782" cy="17.644" r="0.5"/>
	<g>
		<path d="M10.032,17.644c-0.017,0.074-0.034,0.148-0.051,0.223c-0.133,0-0.266,0-0.398,0c-0.005-0.424,0.137-0.564,0.423-0.422
			c-0.055-0.406-0.569-0.621-0.923-0.524c-0.434,0.119-0.578,0.518-0.524,0.922c0.088,0.651,0.627,0.97,1.224,1.05
			c0.607,0.082,1.331-0.642,1.25-1.25c-0.09-0.667-0.509-1.25-1.25-1.25s-1.16,0.583-1.25,1.25c-0.055,0.406,0.383,0.75,0.75,0.75
			C9.732,18.394,9.978,18.049,10.032,17.644z"/>
	</g>
</g>
<g>
	<g>
		<path d="M9.016,1.176C8.496,2.461,6.928,3.39,5.728,3.938C4.765,4.376,4.014,4.979,3.211,5.669
			c-1.41,1.212-2.044,2.858-2.652,4.581c-0.322,0.915,1.127,1.304,1.447,0.398c0.789-2.237,1.7-3.837,3.768-5.082
			c1.816-1.094,3.828-1.866,4.689-3.993C10.825,0.677,9.374,0.291,9.016,1.176L9.016,1.176z"/>
	</g>
</g>
<rect id="_x3C_Slice_x3E__143_" fill="none" width="11.393" height="19.375"/>
</svg>
