<?xml version="1.0" encoding="utf-8"?>
<!-- Generator: Adobe Illustrator 15.1.0, SVG Export Plug-In  -->
<!DOCTYPE svg PUBLIC "-//W3C//DTD SVG 1.1//EN" "http://www.w3.org/Graphics/SVG/1.1/DTD/svg11.dtd" [
	<!ENTITY ns_flows "http://ns.adobe.com/Flows/1.0/">
]>
<svg version="1.1"
	 xmlns="http://www.w3.org/2000/svg" xmlns:xlink="http://www.w3.org/1999/xlink" xmlns:a="http://ns.adobe.com/AdobeSVGViewerExtensions/3.0/"
	 x="0px" y="0px" width="19px" height="27px" viewBox="-0.159 0 19 27" enable-background="new -0.159 0 19 27"
	 xml:space="preserve">
<defs>
</defs>
<g>
	<g>
		<path d="M11.393,17.574c1.948,0,3.897,0,5.846,0c0.968,0,0.968-1.5,0-1.5c-1.948,0-3.897,0-5.846,0
			C10.425,16.074,10.425,17.574,11.393,17.574L11.393,17.574z"/>
	</g>
</g>
<g>
	<g>
		<path d="M11.393,19.859c1.948,0,3.897,0,5.846,0c0.968,0,0.968-1.5,0-1.5c-1.948,0-3.897,0-5.846,0
			C10.425,18.359,10.425,19.859,11.393,19.859L11.393,19.859z"/>
	</g>
</g>
<g>
	<g>
		<path d="M8.372,22.23c0-4.306,0-8.612,0-12.918c0-0.967-1.5-0.967-1.5,0c0,4.306,0,8.612,0,12.918
			C6.872,23.198,8.372,23.198,8.372,22.23L8.372,22.23z"/>
	</g>
</g>
<g>
	<circle cx="7.622" cy="25.526" r="0.5"/>
	<g>
		<path d="M7.872,25.526c-0.017,0.074-0.034,0.148-0.051,0.223c-0.133,0-0.266,0-0.398,0c-0.005-0.424,0.137-0.564,0.423-0.422
			c-0.055-0.406-0.569-0.621-0.923-0.524c-0.434,0.119-0.578,0.518-0.524,0.922c0.088,0.651,0.627,0.97,1.224,1.05
			c0.607,0.082,1.331-0.642,1.25-1.25c-0.09-0.667-0.509-1.25-1.25-1.25s-1.16,0.583-1.25,1.25c-0.055,0.406,0.383,0.75,0.75,0.75
			C7.572,26.276,7.817,25.931,7.872,25.526z"/>
	</g>
</g>
<g>
	<g>
		<path d="M15.232,14.716c0-4.306,0-8.612,0-12.918c0-0.967-1.5-0.967-1.5,0c0,4.306,0,8.612,0,12.918
			C13.732,15.683,15.232,15.683,15.232,14.716L15.232,14.716z"/>
	</g>
</g>
<g>
	<g>
		<path d="M7.092,9.843c2.231,1.801,4.462,3.602,6.693,5.403c0.745,0.602,1.813-0.453,1.061-1.061
			c-2.231-1.801-4.462-3.602-6.693-5.403C7.407,8.181,6.339,9.235,7.092,9.843L7.092,9.843z"/>
	</g>
</g>
<g>
	<g>
		<path d="M2.353,22.23c0-4.306,0-8.612,0-12.918c0-0.967-1.5-0.967-1.5,0c0,4.306,0,8.612,0,12.918
			C0.853,23.198,2.353,23.198,2.353,22.23L2.353,22.23z"/>
	</g>
</g>
<g>
	<circle cx="1.603" cy="25.526" r="0.5"/>
	<g>
		<path d="M1.853,25.526c-0.017,0.074-0.034,0.148-0.051,0.223c-0.133,0-0.266,0-0.398,0c-0.005-0.424,0.137-0.564,0.423-0.422
			c-0.055-0.406-0.569-0.621-0.923-0.524c-0.434,0.119-0.578,0.518-0.524,0.922c0.088,0.651,0.627,0.97,1.224,1.05
			c0.607,0.082,1.331-0.642,1.25-1.25c-0.09-0.667-0.509-1.25-1.25-1.25s-1.16,0.583-1.25,1.25c-0.055,0.406,0.383,0.75,0.75,0.75
			C1.553,26.276,1.798,25.931,1.853,25.526z"/>
	</g>
</g>
<rect id="_x3C_Slice_x3E__143_" fill="none" width="18.417" height="26.75"/>
</svg>
