<?xml version="1.0" encoding="utf-8"?>
<!-- Generator: Adobe Illustrator 15.1.0, SVG Export Plug-In  -->
<!DOCTYPE svg PUBLIC "-//W3C//DTD SVG 1.1//EN" "http://www.w3.org/Graphics/SVG/1.1/DTD/svg11.dtd" [
	<!ENTITY ns_flows "http://ns.adobe.com/Flows/1.0/">
]>
<svg version="1.1"
	 xmlns="http://www.w3.org/2000/svg" xmlns:xlink="http://www.w3.org/1999/xlink" xmlns:a="http://ns.adobe.com/AdobeSVGViewerExtensions/3.0/"
	 x="0px" y="0px" width="29px" height="23px" viewBox="-0.159 0 29 23" enable-background="new -0.159 0 29 23"
	 xml:space="preserve">
<defs>
</defs>
<g>
	<g>
		<path d="M13.463,13.228c-0.617,0.98-1.628,1.615-2.511,0.577c-0.628-0.738-1.684,0.329-1.061,1.061
			c1.544,1.814,3.768,0.863,4.866-0.881C15.275,13.164,13.977,12.412,13.463,13.228L13.463,13.228z"/>
	</g>
</g>
<g>
	<g>
		<path d="M14.657,14.119c2.011-2.938,4.021-5.875,6.03-8.813c0.548-0.801-0.753-1.55-1.295-0.757
			c-2.01,2.938-4.021,5.875-6.03,8.813C12.814,14.163,14.115,14.912,14.657,14.119L14.657,14.119z"/>
	</g>
</g>
<g>
	<g>
		<path d="M16.912,4.333c0,5.82,0,11.64,0,17.46c0,0.967,1.5,0.967,1.5,0c0-5.82,0-11.64,0-17.46
			C18.412,3.366,16.912,3.366,16.912,4.333L16.912,4.333z"/>
	</g>
</g>
<g>
	<g>
		<path d="M18.412,4.333c-0.014-0.785-0.03-1.692,0.354-2.405c0.065-0.122,0.069-0.118,0.126-0.179
			c0.013-0.013,0.152-0.103,0.059-0.065c0.191-0.077-0.043-0.03,0.16-0.026c-0.23-0.004,0.219,0.081,0.042,0.005
			c0.34,0.146,0.509,0.372,0.694,0.771c0.287,0.62-0.184,1.766-0.636,2.365c-0.584,0.772,0.72,1.519,1.295,0.757
			c1.202-1.591,1.358-4.475-0.835-5.289c-0.696-0.259-1.473-0.03-1.941,0.539c-0.786,0.955-0.838,2.351-0.818,3.528
			C16.929,5.3,18.429,5.301,18.412,4.333L18.412,4.333z"/>
	</g>
</g>
<g>
	<g>
		<path d="M1.988,14.747c1.514-2.357,3.027-4.714,4.54-7.071c0.524-0.816-0.774-1.568-1.295-0.757
			c-1.514,2.357-3.026,4.714-4.54,7.071C0.169,14.807,1.468,15.558,1.988,14.747L1.988,14.747z"/>
	</g>
</g>
<g>
	<g>
		<path d="M11.069,13.99c-1.514-2.357-3.027-4.714-4.541-7.071c-0.521-0.811-1.819-0.06-1.295,0.757
			c1.514,2.357,3.027,4.714,4.541,7.071C10.295,15.558,11.594,14.807,11.069,13.99L11.069,13.99z"/>
	</g>
</g>
<g>
	<g>
		<path d="M27.429,10.833c0-3.309,0-6.618,0-9.927c0-0.967-1.5-0.967-1.5,0c0,3.309,0,6.618,0,9.927
			C25.929,11.8,27.429,11.8,27.429,10.833L27.429,10.833z"/>
	</g>
</g>
<g>
	<circle cx="26.68" cy="13.607" r="0.5"/>
	<g>
		<path d="M27.93,13.607c-0.08-0.598-0.399-1.136-1.051-1.224c-0.718-0.097-1.335,0.373-1.432,1.091
			c-0.208,1.552,2.247,1.882,2.456,0.332c0.054-0.405-0.091-0.803-0.524-0.922c-0.354-0.097-0.868,0.118-0.923,0.524
			c0.286-0.143,0.427-0.002,0.423,0.422c-0.133,0-0.266,0-0.398,0c-0.018-0.074-0.034-0.148-0.051-0.223
			c0.055,0.405,0.3,0.75,0.75,0.75C27.547,14.357,27.984,14.013,27.93,13.607z"/>
	</g>
</g>
<g>
	<g>
		<path d="M26.032,0.635C21.92,6.373,17.807,12.11,13.694,17.848c-0.565,0.788,0.737,1.536,1.295,0.757
			c4.112-5.737,8.226-11.475,12.338-17.213C27.893,0.604,26.59-0.144,26.032,0.635L26.032,0.635z"/>
	</g>
</g>
<rect id="_x3C_Slice_x3E__143_" fill="none" width="28.063" height="22.563"/>
</svg>
