<?xml version="1.0" encoding="utf-8"?>
<!-- Generator: Adobe Illustrator 15.1.0, SVG Export Plug-In  -->
<!DOCTYPE svg PUBLIC "-//W3C//DTD SVG 1.1//EN" "http://www.w3.org/Graphics/SVG/1.1/DTD/svg11.dtd" [
	<!ENTITY ns_flows "http://ns.adobe.com/Flows/1.0/">
]>
<svg version="1.1"
	 xmlns="http://www.w3.org/2000/svg" xmlns:xlink="http://www.w3.org/1999/xlink" xmlns:a="http://ns.adobe.com/AdobeSVGViewerExtensions/3.0/"
	 x="0px" y="0px" width="21px" height="24px" viewBox="-0.159 0 21 24" enable-background="new -0.159 0 21 24"
	 xml:space="preserve">
<defs>
</defs>
<g>
	<g>
		<path d="M19.217,15.671c-0.087,1.881-1.263,3.497-3.24,3.606c-1.975,0.109-3.162-1.887-3.241-3.606
			c-0.045-0.963-1.545-0.967-1.5,0c0.126,2.735,1.924,4.951,4.741,5.106c2.811,0.155,4.625-2.61,4.74-5.106
			C20.762,14.704,19.262,14.708,19.217,15.671L19.217,15.671z"/>
	</g>
</g>
<g>
	<g>
		<path d="M8.933,20.027c0-6.075,0-12.149,0-18.224c0-0.967-1.5-0.967-1.5,0c0,6.075,0,12.149,0,18.224
			C7.433,20.995,8.933,20.995,8.933,20.027L8.933,20.027z"/>
	</g>
</g>
<g>
	<g>
		<path d="M11.455,14.745c-1.268,1.588-2.536,3.175-3.804,4.763c-0.597,0.748,0.457,1.816,1.061,1.061
			c1.268-1.588,2.536-3.175,3.804-4.763C13.113,15.058,12.059,13.989,11.455,14.745L11.455,14.745z"/>
	</g>
</g>
<g>
	<g>
		<path d="M2.977,20.021c0-6.075,0-12.149,0-18.224c0-0.967-1.5-0.967-1.5,0c0,6.075,0,12.149,0,18.224
			C1.477,20.989,2.977,20.989,2.977,20.021L2.977,20.021z"/>
	</g>
</g>
<g>
	<g>
		<path d="M3.058,20.233C5.007,14.205,6.956,8.176,8.905,2.147c0.298-0.923-1.15-1.315-1.447-0.398
			C5.509,7.777,3.56,13.806,1.61,19.834C1.313,20.757,2.761,21.149,3.058,20.233L3.058,20.233z"/>
	</g>
</g>
<g>
	<circle cx="2.227" cy="22.6" r="0.5"/>
	<g>
		<path d="M2.477,22.6c-0.126,0.228-0.284,0.294-0.474,0.199c0-0.133,0-0.266,0-0.398c0.146-0.062,0.295-0.062,0.447,0
			c-0.055-0.406-0.569-0.621-0.923-0.524c-0.434,0.119-0.578,0.518-0.524,0.922c0.199,1.476,2.474,1.28,2.474-0.199
			c0-0.605-0.583-1.339-1.25-1.25c-0.74,0.1-1.15,0.509-1.25,1.25c-0.055,0.406,0.383,0.75,0.75,0.75
			C2.177,23.35,2.422,23.005,2.477,22.6z"/>
	</g>
</g>
<rect id="_x3C_Slice_x3E__143_" fill="none" width="20.917" height="24"/>
</svg>
