<?xml version="1.0" encoding="utf-8"?>
<!-- Generator: Adobe Illustrator 15.1.0, SVG Export Plug-In  -->
<!DOCTYPE svg PUBLIC "-//W3C//DTD SVG 1.1//EN" "http://www.w3.org/Graphics/SVG/1.1/DTD/svg11.dtd" [
	<!ENTITY ns_flows "http://ns.adobe.com/Flows/1.0/">
]>
<svg version="1.1"
	 xmlns="http://www.w3.org/2000/svg" xmlns:xlink="http://www.w3.org/1999/xlink" xmlns:a="http://ns.adobe.com/AdobeSVGViewerExtensions/3.0/"
	 x="0px" y="0px" width="24px" height="20px" viewBox="-0.159 0 24 20" enable-background="new -0.159 0 24 20"
	 xml:space="preserve">
<defs>
</defs>
<g>
	<g>
		<path d="M18.205,16.973c-3.576-3.99-7.151-7.98-10.728-11.97C6.831,4.281,5.773,5.346,6.417,6.063
			c3.576,3.99,7.151,7.98,10.728,11.97C17.791,18.755,18.849,17.691,18.205,16.973L18.205,16.973z"/>
	</g>
</g>
<g>
	<g>
		<path d="M9.217,4.873c0,3.226,0,6.452,0,9.677c0,0.967,1.5,0.967,1.5,0c0-3.226,0-6.452,0-9.677
			C10.717,3.906,9.217,3.906,9.217,4.873L9.217,4.873z"/>
	</g>
</g>
<g>
	<g>
		<path d="M10.717,4.873c0.039-1.955-0.738-4.743-3.273-4.077C6.651,1.004,5.948,1.614,5.57,2.33
			C4.882,3.634,5.639,5.278,6.578,6.247C7.252,6.942,8.313,5.88,7.639,5.186C6.76,4.28,6.386,2.702,7.843,2.242
			c1.313-0.414,1.391,1.796,1.374,2.631C9.197,5.841,10.697,5.839,10.717,4.873L10.717,4.873z"/>
	</g>
</g>
<g>
	<g>
		<path d="M1.041,15.3c2.977,0,5.954,0,8.931,0c0.968,0,0.968-1.5,0-1.5c-2.977,0-5.954,0-8.931,0C0.074,13.8,0.074,15.3,1.041,15.3
			L1.041,15.3z"/>
	</g>
</g>
<g>
	<g>
		<path d="M22.938,15.948c0-3.309,0-6.618,0-9.927c0-0.967-1.5-0.967-1.5,0c0,3.309,0,6.618,0,9.927
			C21.438,16.916,22.938,16.916,22.938,15.948L22.938,15.948z"/>
	</g>
</g>
<g>
	<circle cx="22.189" cy="18.722" r="0.5"/>
	<g>
		<path d="M23.439,18.722c-0.08-0.598-0.399-1.136-1.051-1.224c-0.718-0.097-1.335,0.373-1.432,1.091
			c-0.208,1.552,2.247,1.882,2.456,0.332c0.054-0.405-0.091-0.803-0.524-0.922c-0.354-0.097-0.868,0.118-0.923,0.524
			c0.286-0.143,0.427-0.002,0.423,0.422c-0.133,0-0.266,0-0.398,0c-0.018-0.074-0.034-0.148-0.051-0.223
			c0.055,0.405,0.3,0.75,0.75,0.75C23.057,19.472,23.494,19.128,23.439,18.722z"/>
	</g>
</g>
<g>
	<g>
		<path d="M21.542,5.75c-2.685,3.745-5.368,7.489-8.053,11.234c-0.565,0.788,0.737,1.536,1.295,0.757
			c2.685-3.745,5.368-7.489,8.053-11.234C23.402,5.719,22.1,4.972,21.542,5.75L21.542,5.75z"/>
	</g>
</g>
<rect id="_x3C_Slice_x3E__143_" fill="none" width="24" height="20"/>
</svg>
