<?xml version="1.0" encoding="utf-8"?>
<!-- Generator: Adobe Illustrator 15.1.0, SVG Export Plug-In  -->
<!DOCTYPE svg PUBLIC "-//W3C//DTD SVG 1.1//EN" "http://www.w3.org/Graphics/SVG/1.1/DTD/svg11.dtd" [
	<!ENTITY ns_flows "http://ns.adobe.com/Flows/1.0/">
]>
<svg version="1.1"
	 xmlns="http://www.w3.org/2000/svg" xmlns:xlink="http://www.w3.org/1999/xlink" xmlns:a="http://ns.adobe.com/AdobeSVGViewerExtensions/3.0/"
	 x="0px" y="0px" width="59px" height="32px" viewBox="0 -0.247 59 32" enable-background="new 0 -0.247 59 32"
	 xml:space="preserve">
<defs>
</defs>
<g>
	<g>
		<path d="M46.463,20.25c-0.328-6.09-4.661-10.422-10.75-10.75c-6.077-0.327-10.449,5.155-10.75,10.75
			c-0.327,6.077,5.155,10.449,10.75,10.75C41.79,31.327,46.162,25.846,46.463,20.25c0.052-0.967-1.448-0.962-1.5,0
			c-0.642,11.92-17.858,11.92-18.5,0c-0.282-5.23,4.43-8.99,9.25-9.25c5.231-0.282,8.99,4.429,9.25,9.25
			C45.015,21.212,46.515,21.217,46.463,20.25z"/>
	</g>
</g>
<g>
	<g>
		<path d="M45.082,28.559c-5.893-5.893-11.785-11.785-17.678-17.678c-0.685-0.685-1.745,0.376-1.061,1.061
			c5.893,5.893,11.785,11.785,17.678,17.678C44.706,30.304,45.767,29.243,45.082,28.559L45.082,28.559z"/>
	</g>
</g>
<g>
	<g>
		<path d="M27.404,29.619C36.767,20.256,46.13,10.893,55.493,1.53c0.685-0.685-0.376-1.745-1.061-1.061
			C45.07,9.833,35.707,19.196,26.344,28.559C25.659,29.243,26.72,30.304,27.404,29.619L27.404,29.619z"/>
	</g>
</g>
<g>
	<g>
		<path d="M57.446,3.125c-3.333,0-6.667,0-10,0c-0.967,0-0.967,1.5,0,1.5c3.333,0,6.667,0,10,0
			C58.413,4.625,58.413,3.125,57.446,3.125L57.446,3.125z"/>
	</g>
</g>
<rect id="_x3C_Slice_x3E__29_" x="0.704" fill="none" width="57.733" height="31.25"/>
<line stroke="#000000" stroke-width="2" stroke-miterlimit="10" x1="0" y1="20.25" x2="18.169" y2="20.25"/>
<polygon points="13.169,15.631 21.169,20.25 13.169,24.869 "/>
</svg>
