<?xml version="1.0" encoding="utf-8"?>
<!-- Generator: Adobe Illustrator 15.1.0, SVG Export Plug-In  -->
<!DOCTYPE svg PUBLIC "-//W3C//DTD SVG 1.1//EN" "http://www.w3.org/Graphics/SVG/1.1/DTD/svg11.dtd" [
	<!ENTITY ns_flows "http://ns.adobe.com/Flows/1.0/">
]>
<svg version="1.1"
	 xmlns="http://www.w3.org/2000/svg" xmlns:xlink="http://www.w3.org/1999/xlink" xmlns:a="http://ns.adobe.com/AdobeSVGViewerExtensions/3.0/"
	 x="0px" y="0px" width="59px" height="32px" viewBox="-0.15 -0.095 59 32" enable-background="new -0.15 -0.095 59 32"
	 xml:space="preserve">
<defs>
</defs>
<g>
	<g>
		<path d="M46.669,20.083c-0.328-6.09-4.66-10.422-10.75-10.75c-6.077-0.327-10.449,5.155-10.75,10.75
			c-0.327,6.077,5.155,10.449,10.75,10.75C41.996,31.16,46.368,25.679,46.669,20.083c0.052-0.967-1.448-0.962-1.5,0
			c-0.642,11.92-17.858,11.92-18.5,0c-0.282-5.23,4.43-8.99,9.25-9.25c5.231-0.282,8.99,4.429,9.25,9.25
			C45.221,21.045,46.721,21.05,46.669,20.083z"/>
	</g>
</g>
<g>
	<g>
		<path d="M43.521,13.542c4.06-4.06,8.119-8.119,12.179-12.179c0.685-0.685-0.376-1.745-1.061-1.061
			c-4.06,4.06-8.119,8.119-12.179,12.179C41.775,13.166,42.836,14.227,43.521,13.542L43.521,13.542z"/>
	</g>
</g>
<g>
	<g>
		<path d="M57.652,2.625c-3.333,0-6.667,0-10,0c-0.967,0-0.967,1.5,0,1.5c3.333,0,6.667,0,10,0
			C58.619,4.125,58.619,2.625,57.652,2.625L57.652,2.625z"/>
	</g>
</g>
<rect id="_x3C_Slice_x3E__29_" x="0.813" fill="none" width="57.625" height="30.917"/>
<line stroke="#000000" stroke-width="2" stroke-miterlimit="10" x1="21.169" y1="20.083" x2="3" y2="20.083"/>
<polygon points="8,15.464 0,20.083 8,24.702 "/>
</svg>
