<?xml version="1.0" encoding="utf-8"?>
<!-- Generator: Adobe Illustrator 15.1.0, SVG Export Plug-In  -->
<!DOCTYPE svg PUBLIC "-//W3C//DTD SVG 1.1//EN" "http://www.w3.org/Graphics/SVG/1.1/DTD/svg11.dtd" [
	<!ENTITY ns_flows "http://ns.adobe.com/Flows/1.0/">
]>
<svg version="1.1"
	 xmlns="http://www.w3.org/2000/svg" xmlns:xlink="http://www.w3.org/1999/xlink" xmlns:a="http://ns.adobe.com/AdobeSVGViewerExtensions/3.0/"
	 x="0px" y="0px" width="59px" height="32px" viewBox="-0.15 -0.333 59 32" enable-background="new -0.15 -0.333 59 32"
	 xml:space="preserve">
<defs>
</defs>
<g>
	<g>
		<path d="M46.463,20.5c-0.328-6.09-4.66-10.422-10.75-10.75c-6.077-0.327-10.449,5.155-10.75,10.75
			c-0.327,6.077,5.155,10.449,10.75,10.75C41.79,31.577,46.162,26.096,46.463,20.5c0.052-0.967-1.448-0.962-1.5,0
			c-0.642,11.92-17.858,11.92-18.5,0c-0.282-5.23,4.43-8.99,9.25-9.25c5.231-0.282,8.99,4.429,9.25,9.25
			C45.015,21.462,46.515,21.467,46.463,20.5z"/>
	</g>
</g>
<g>
	<g>
		<path d="M43.314,13.959c4.06-4.06,8.119-8.119,12.179-12.179c0.685-0.685-0.376-1.745-1.061-1.061
			c-4.06,4.06-8.119,8.119-12.179,12.179C41.569,13.583,42.63,14.644,43.314,13.959L43.314,13.959z"/>
	</g>
</g>
<rect id="_x3C_Slice_x3E__29_" x="0.704" fill="none" width="57.733" height="31.333"/>
<line stroke="#000000" stroke-width="2" stroke-miterlimit="10" x1="0" y1="20.5" x2="18.169" y2="20.5"/>
<polygon points="13.169,15.881 21.169,20.5 13.169,25.119 "/>
</svg>
