<?xml version="1.0" encoding="utf-8"?>
<!-- Generator: Adobe Illustrator 15.1.0, SVG Export Plug-In  -->
<!DOCTYPE svg PUBLIC "-//W3C//DTD SVG 1.1//EN" "http://www.w3.org/Graphics/SVG/1.1/DTD/svg11.dtd" [
	<!ENTITY ns_flows "http://ns.adobe.com/Flows/1.0/">
]>
<svg version="1.1"
	 xmlns="http://www.w3.org/2000/svg" xmlns:xlink="http://www.w3.org/1999/xlink" xmlns:a="http://ns.adobe.com/AdobeSVGViewerExtensions/3.0/"
	 x="0px" y="0px" width="56px" height="32px" viewBox="-0.388 -0.583 56 32" enable-background="new -0.388 -0.583 56 32"
	 xml:space="preserve">
<defs>
</defs>
<g>
	<g>
		<path d="M44.259,11c-0.642,11.92-17.858,11.92-18.5,0c-0.282-5.23,4.43-8.99,9.25-9.25C40.24,1.468,43.999,6.179,44.259,11
			c0.052,0.962,1.552,0.967,1.5,0c-0.328-6.09-4.66-10.422-10.75-10.75C28.932-0.077,24.56,5.405,24.259,11
			c-0.327,6.077,5.155,10.449,10.75,10.75c6.077,0.327,10.449-5.154,10.75-10.75C45.811,10.033,44.311,10.038,44.259,11z"/>
	</g>
</g>
<g>
	<g>
		<path d="M43.317,1.631C37.425,7.523,31.532,13.416,25.64,19.309c-0.685,0.685,0.376,1.745,1.061,1.061
			c5.893-5.893,11.785-11.785,17.678-17.678C45.063,2.007,44.002,0.946,43.317,1.631L43.317,1.631z"/>
	</g>
</g>
<g>
	<g>
		<path d="M25.64,2.691c9.363,9.363,18.726,18.726,28.089,28.089c0.685,0.685,1.745-0.376,1.061-1.061
			C45.426,20.357,36.063,10.994,26.7,1.631C26.016,0.946,24.955,2.007,25.64,2.691L25.64,2.691z"/>
	</g>
</g>
<rect id="_x3C_Slice_x3E__29_" fill="none" width="55.612" height="31.25"/>
<line stroke="#000000" stroke-width="2" stroke-miterlimit="10" x1="0" y1="11" x2="18.169" y2="11"/>
<polygon points="13.169,6.381 21.169,11 13.169,15.619 "/>
</svg>
