<?xml version="1.0" encoding="utf-8"?>
<!-- Generator: Adobe Illustrator 15.1.0, SVG Export Plug-In  -->
<!DOCTYPE svg PUBLIC "-//W3C//DTD SVG 1.1//EN" "http://www.w3.org/Graphics/SVG/1.1/DTD/svg11.dtd" [
	<!ENTITY ns_flows "http://ns.adobe.com/Flows/1.0/">
]>
<svg version="1.1"
	 xmlns="http://www.w3.org/2000/svg" xmlns:xlink="http://www.w3.org/1999/xlink" xmlns:a="http://ns.adobe.com/AdobeSVGViewerExtensions/3.0/"
	 x="0px" y="0px" width="56px" height="32px" viewBox="0 -0.666 56 32" enable-background="new 0 -0.666 56 32"
	 xml:space="preserve">
<defs>
</defs>
<g>
	<g>
		<path d="M44.812,11c-0.642,11.92-17.858,11.92-18.5,0c-0.282-5.23,4.43-8.99,9.25-9.25C40.793,1.468,44.552,6.179,44.812,11
			c0.052,0.962,1.552,0.967,1.5,0c-0.328-6.09-4.66-10.422-10.75-10.75C29.485-0.077,25.113,5.405,24.812,11
			c-0.327,6.077,5.155,10.449,10.75,10.75c6.077,0.327,10.449-5.154,10.75-10.75C46.364,10.033,44.864,10.038,44.812,11z"/>
	</g>
</g>
<g>
	<g>
		<path d="M43.871,1.631c-5.893,5.893-11.785,11.785-17.678,17.678c-0.685,0.685,0.376,1.745,1.061,1.061
			c5.893-5.893,11.785-11.785,17.678-17.678C45.616,2.007,44.555,0.946,43.871,1.631L43.871,1.631z"/>
	</g>
</g>
<g>
	<g>
		<path d="M26.193,2.691c9.363,9.363,18.726,18.726,28.089,28.089c0.685,0.685,1.745-0.376,1.061-1.061
			c-9.363-9.363-18.726-18.726-28.089-28.089C26.569,0.946,25.508,2.007,26.193,2.691L26.193,2.691z"/>
	</g>
</g>
<rect id="_x3C_Slice_x3E__29_" fill="none" width="56" height="31.25"/>
<line stroke="#000000" stroke-width="2" stroke-miterlimit="10" x1="21.336" y1="11" x2="3.167" y2="11"/>
<polygon points="8.167,6.381 0.167,11 8.167,15.619 "/>
</svg>
