<?xml version="1.0" encoding="utf-8"?>
<!-- Generator: Adobe Illustrator 15.1.0, SVG Export Plug-In  -->
<!DOCTYPE svg PUBLIC "-//W3C//DTD SVG 1.1//EN" "http://www.w3.org/Graphics/SVG/1.1/DTD/svg11.dtd" [
	<!ENTITY ns_flows "http://ns.adobe.com/Flows/1.0/">
]>
<svg version="1.1"
	 xmlns="http://www.w3.org/2000/svg" xmlns:xlink="http://www.w3.org/1999/xlink" xmlns:a="http://ns.adobe.com/AdobeSVGViewerExtensions/3.0/"
	 x="0px" y="0px" width="36px" height="20px" viewBox="-0.159 0 36 20" enable-background="new -0.159 0 36 20"
	 xml:space="preserve">
<defs>
</defs>
<g>
	<g>
		<path d="M3.084,17.471c0.732-17.212,24.759-19.56,28.94-2.873c0.353,1.407,2.522,0.81,2.17-0.598
			C31.979,5.16,24.086-0.327,15.01,0.838C6.676,1.908,1.174,9.472,0.834,17.471C0.772,18.922,3.022,18.916,3.084,17.471
			L3.084,17.471z"/>
	</g>
</g>
<g>
	<circle cx="33.53" cy="17.472" r="0.843"/>
	<g>
		<path d="M35.123,17.472c-0.074-0.917-0.676-1.52-1.593-1.594c-0.911-0.074-1.528,0.788-1.593,1.594
			c-0.073,0.911,0.787,1.527,1.593,1.592C34.441,19.137,35.059,18.277,35.123,17.472c0.078-0.965-1.423-0.957-1.5,0
			c-0.01,0.125-0.175,0.129-0.186,0c-0.011-0.13,0.176-0.127,0.186,0C33.7,18.429,35.201,18.437,35.123,17.472z"/>
	</g>
</g>
<rect id="_x3C_Slice_x3E__146_" fill="none" width="36" height="19.583"/>
</svg>
