<?xml version="1.0" encoding="utf-8"?>
<!-- Generator: Adobe Illustrator 15.1.0, SVG Export Plug-In  -->
<!DOCTYPE svg PUBLIC "-//W3C//DTD SVG 1.1//EN" "http://www.w3.org/Graphics/SVG/1.1/DTD/svg11.dtd" [
	<!ENTITY ns_flows "http://ns.adobe.com/Flows/1.0/">
]>
<svg version="1.1"
	 xmlns="http://www.w3.org/2000/svg" xmlns:xlink="http://www.w3.org/1999/xlink" xmlns:a="http://ns.adobe.com/AdobeSVGViewerExtensions/3.0/"
	 x="0px" y="0px" width="35px" height="20px" viewBox="35.841 0 35 20" enable-background="new 35.841 0 35 20"
	 xml:space="preserve">
<defs>
</defs>
<g>
	<g>
		<path d="M38.398,17.741C39.131,0.529,63.16-1.822,67.338,14.869c0.353,1.407,2.522,0.81,2.17-0.599
			C67.295,5.429,59.401-0.057,50.325,1.108C41.99,2.177,36.488,9.742,36.148,17.741C36.087,19.192,38.337,19.186,38.398,17.741
			L38.398,17.741z"/>
	</g>
</g>
<g>
	<g>
		<path d="M48.726,7.95c0,3.278,0,6.557,0,9.835c0,1.451,2.25,1.451,2.25,0c0-3.278,0-6.557,0-9.835
			C50.976,6.499,48.726,6.499,48.726,7.95L48.726,7.95z"/>
	</g>
</g>
<g>
	<g>
		<path d="M55.041,7.95c0,3.278,0,6.557,0,9.835c0,1.451,2.25,1.451,2.25,0c0-3.278,0-6.557,0-9.835
			C57.291,6.499,55.041,6.499,55.041,7.95L55.041,7.95z"/>
	</g>
</g>
<g>
	<circle cx="68.845" cy="17.741" r="0.842"/>
	<g>
		<path d="M70.438,17.741c-0.074-0.916-0.676-1.519-1.592-1.593c-0.911-0.074-1.528,0.788-1.593,1.593
			c-0.073,0.911,0.787,1.528,1.593,1.593C69.756,19.407,70.373,18.545,70.438,17.741c0.078-0.965-1.423-0.958-1.5,0
			c-0.01,0.128-0.174,0.128-0.185,0c-0.011-0.128,0.175-0.126,0.185,0C69.015,18.698,70.516,18.706,70.438,17.741z"/>
	</g>
</g>
<rect id="_x3C_Slice_x3E__147_" fill="none" width="36" height="19.583"/>
<rect id="_x3C_Slice_x3E__146_" x="36" fill="none" width="34.834" height="19.583"/>
</svg>
