<?xml version="1.0" encoding="utf-8"?>
<!-- Generator: Adobe Illustrator 15.1.0, SVG Export Plug-In  -->
<!DOCTYPE svg PUBLIC "-//W3C//DTD SVG 1.1//EN" "http://www.w3.org/Graphics/SVG/1.1/DTD/svg11.dtd" [
	<!ENTITY ns_flows "http://ns.adobe.com/Flows/1.0/">
]>
<svg version="1.1"
	 xmlns="http://www.w3.org/2000/svg" xmlns:xlink="http://www.w3.org/1999/xlink" xmlns:a="http://ns.adobe.com/AdobeSVGViewerExtensions/3.0/"
	 x="0px" y="0px" width="14px" height="25px" viewBox="15.561 0 14 25" enable-background="new 15.561 0 14 25"
	 xml:space="preserve">
<defs>
</defs>
<g>
	<g>
		<path d="M17.219,2.045c0,7.055,0,14.111,0,21.166c0,0.967,1.5,0.967,1.5,0c0-7.055,0-14.111,0-21.166
			C18.719,1.078,17.219,1.078,17.219,2.045L17.219,2.045z"/>
	</g>
</g>
<g>
	<g>
		<path d="M18.565,14.729c3.094-3.093,6.187-6.186,9.28-9.279c0.685-0.685-0.376-1.745-1.061-1.061
			c-3.094,3.093-6.187,6.186-9.28,9.279C16.82,14.354,17.881,15.414,18.565,14.729L18.565,14.729z"/>
	</g>
</g>
<g>
	<g>
		<path d="M18.759,23.41c0.281-0.96,1.201-1.938,2.113-0.76c0.481,0.622,1.059,1.029,1.829,1.186
			c1.941,0.395,3.163-1.154,4.323-2.386c0.662-0.704-0.396-1.766-1.061-1.061c-0.834,0.886-1.876,2.522-3.362,1.862
			c-0.979-0.435-1.198-1.584-2.358-1.896c-1.69-0.454-2.562,1.396-2.932,2.657C17.039,23.942,18.486,24.336,18.759,23.41
			L18.759,23.41z"/>
	</g>
</g>
<g>
	<g>
		<path d="M22.265,8.015c1.948,0,3.897,0,5.846,0c0.968,0,0.968-1.5,0-1.5c-1.948,0-3.897,0-5.846,0
			C21.297,6.515,21.297,8.015,22.265,8.015L22.265,8.015z"/>
	</g>
</g>
<rect id="_x3C_Slice_x3E__129_" fill="none" width="15.625" height="25.5"/>
<rect id="_x3C_Slice_x3E__128_" x="16" y="0.25" fill="none" width="14" height="24.75"/>
</svg>
