<?xml version="1.0" encoding="utf-8"?>
<!-- Generator: Adobe Illustrator 15.1.0, SVG Export Plug-In  -->
<!DOCTYPE svg PUBLIC "-//W3C//DTD SVG 1.1//EN" "http://www.w3.org/Graphics/SVG/1.1/DTD/svg11.dtd" [
	<!ENTITY ns_flows "http://ns.adobe.com/Flows/1.0/">
]>
<svg version="1.1"
	 xmlns="http://www.w3.org/2000/svg" xmlns:xlink="http://www.w3.org/1999/xlink" xmlns:a="http://ns.adobe.com/AdobeSVGViewerExtensions/3.0/"
	 x="0px" y="0px" width="22px" height="25px" viewBox="10.028 0 22 25" enable-background="new 10.028 0 22 25"
	 xml:space="preserve">
<defs>
</defs>
<g>
	<g>
		<path d="M1.282,10.343C4.22,7.405,7.156,4.468,10.094,1.53c0.685-0.685-0.376-1.745-1.061-1.061
			C6.096,3.407,3.159,6.345,0.222,9.282C-0.463,9.967,0.598,11.027,1.282,10.343L1.282,10.343z"/>
	</g>
</g>
<g>
	<g>
		<path d="M18.173,6.536c2.899-2.102,4.671,0.678,5.271,3.09c0.699,2.814,0.18,5.951-0.491,8.705
			c-0.229,0.939,1.218,1.338,1.447,0.398c0.864-3.551,1.559-8.053-0.16-11.483c-1.323-2.638-4.271-3.856-6.824-2.005
			C16.641,5.803,17.388,7.105,18.173,6.536L18.173,6.536z"/>
	</g>
</g>
<g>
	<g>
		<path d="M17.194,6.573c-0.063,1.169-1.75,1.169-1.813,0C15.318,5.403,17.131,5.41,17.194,6.573c0.041,0.77,1.241,0.773,1.199,0
			c-0.063-1.19-0.916-2.042-2.106-2.106C15.1,4.403,14.24,5.479,14.182,6.573c-0.064,1.188,1.011,2.047,2.105,2.106
			c1.188,0.064,2.048-1.012,2.106-2.106C18.436,5.8,17.235,5.804,17.194,6.573z"/>
	</g>
</g>
<g>
	<g>
		<path d="M12.124,10.409c1.106-0.711,2.214-1.423,3.321-2.135c0.811-0.521,0.059-1.82-0.758-1.295
			c-1.106,0.711-2.214,1.423-3.321,2.135C10.556,9.635,11.308,10.934,12.124,10.409L12.124,10.409z"/>
	</g>
</g>
<g>
	<g>
		<path d="M24.457,8.916c2.212-2.212,4.425-4.425,6.637-6.637c0.685-0.685-0.376-1.745-1.061-1.061
			c-2.212,2.212-4.425,4.425-6.637,6.637C22.712,8.54,23.772,9.601,24.457,8.916L24.457,8.916z"/>
	</g>
</g>
<g>
	<g>
		<path d="M18.829,21.465c1.948,0,3.897,0,5.846,0c0.968,0,0.968-1.5,0-1.5c-1.948,0-3.897,0-5.846,0
			C17.861,19.965,17.861,21.465,18.829,21.465L18.829,21.465z"/>
	</g>
</g>
<g>
	<g>
		<path d="M18.829,23.977c1.948,0,3.897,0,5.846,0c0.968,0,0.968-1.5,0-1.5c-1.948,0-3.897,0-5.846,0
			C17.861,22.477,17.861,23.977,18.829,23.977L18.829,23.977z"/>
	</g>
</g>
<rect id="_x3C_Slice_x3E__129_" x="10.468" fill="none" width="21.251" height="24.417"/>
</svg>
