<?xml version="1.0" encoding="utf-8"?>
<!-- Generator: Adobe Illustrator 15.1.0, SVG Export Plug-In  -->
<!DOCTYPE svg PUBLIC "-//W3C//DTD SVG 1.1//EN" "http://www.w3.org/Graphics/SVG/1.1/DTD/svg11.dtd" [
	<!ENTITY ns_flows "http://ns.adobe.com/Flows/1.0/">
]>
<svg version="1.1"
	 xmlns="http://www.w3.org/2000/svg" xmlns:xlink="http://www.w3.org/1999/xlink" xmlns:a="http://ns.adobe.com/AdobeSVGViewerExtensions/3.0/"
	 x="0px" y="0px" width="14px" height="25px" viewBox="14.561 0 14 25" enable-background="new 14.561 0 14 25"
	 xml:space="preserve">
<defs>
</defs>
<g>
	<g>
		<path d="M16.167,1.715c0,7.055,0,14.111,0,21.166c0,0.967,1.5,0.967,1.5,0c0-7.055,0-14.111,0-21.166
			C17.667,0.748,16.167,0.748,16.167,1.715L16.167,1.715z"/>
	</g>
</g>
<g>
	<g>
		<path d="M17.514,14.399c3.094-3.093,6.187-6.186,9.28-9.279c0.685-0.685-0.376-1.745-1.061-1.061
			c-3.094,3.093-6.187,6.186-9.28,9.279C15.769,14.023,16.829,15.084,17.514,14.399L17.514,14.399z"/>
	</g>
</g>
<g>
	<g>
		<path d="M17.707,23.08c0.281-0.96,1.201-1.938,2.113-0.76c0.481,0.622,1.059,1.029,1.829,1.186
			c1.941,0.395,3.163-1.154,4.323-2.386c0.662-0.704-0.396-1.766-1.061-1.061c-0.834,0.886-1.876,2.522-3.362,1.862
			c-0.979-0.435-1.198-1.584-2.358-1.896c-1.69-0.454-2.562,1.396-2.932,2.657C15.987,23.612,17.435,24.006,17.707,23.08
			L17.707,23.08z"/>
	</g>
</g>
<rect id="_x3C_Slice_x3E__129_" fill="none" width="15" height="26"/>
<rect id="_x3C_Slice_x3E__128_" x="15" fill="none" width="13.084" height="24.75"/>
</svg>
