<?xml version="1.0" encoding="utf-8"?>
<!-- Generator: Adobe Illustrator 15.1.0, SVG Export Plug-In  -->
<!DOCTYPE svg PUBLIC "-//W3C//DTD SVG 1.1//EN" "http://www.w3.org/Graphics/SVG/1.1/DTD/svg11.dtd" [
	<!ENTITY ns_flows "http://ns.adobe.com/Flows/1.0/">
]>
<svg version="1.1"
	 xmlns="http://www.w3.org/2000/svg" xmlns:xlink="http://www.w3.org/1999/xlink" xmlns:a="http://ns.adobe.com/AdobeSVGViewerExtensions/3.0/"
	 x="0px" y="0px" width="15px" height="22px" viewBox="18.561 0 15 22" enable-background="new 18.561 0 15 22"
	 xml:space="preserve">
<defs>
</defs>
<g>
	<g>
		<path d="M26.601,17.833c-3.254,3.36-6.067-0.756-5.33-4.048c0.232-1.034,0.787-1.964,1.349-2.848
			c2.225-3.496,5.8-6.245,8.986-8.795c0.755-0.604-0.313-1.659-1.061-1.061c-4.023,3.22-9.597,7.29-10.806,12.683
			c-1.191,5.318,3.866,9.317,7.922,5.129C28.334,18.198,27.274,17.137,26.601,17.833L26.601,17.833z"/>
	</g>
</g>
<g>
	<g>
		<path d="M32.662,19.96c-1.318-1.132-9.003-7.676-5.108-9.656c0.625-0.318,1.771-0.278,2.172,0.373
			c1.552,2.521-1.341,5.642-3.038,7.098c-0.735,0.63,0.33,1.687,1.061,1.061c2.377-2.037,4.8-5.271,3.436-8.56
			c-0.593-1.429-2.139-1.801-3.548-1.557c-1.679,0.29-2.656,1.832-2.55,3.458c0.234,3.59,4.049,6.728,6.516,8.845
			C32.331,21.647,33.397,20.591,32.662,19.96L32.662,19.96z"/>
	</g>
</g>
<rect id="_x3C_Slice_x3E__130_" fill="none" width="19" height="23.773"/>
<rect id="_x3C_Slice_x3E__129_" x="19" fill="none" width="14.75" height="21.609"/>
</svg>
