<?xml version="1.0" encoding="utf-8"?>
<!-- Generator: Adobe Illustrator 15.1.0, SVG Export Plug-In  -->
<!DOCTYPE svg PUBLIC "-//W3C//DTD SVG 1.1//EN" "http://www.w3.org/Graphics/SVG/1.1/DTD/svg11.dtd" [
	<!ENTITY ns_flows "http://ns.adobe.com/Flows/1.0/">
]>
<svg version="1.1"
	 xmlns="http://www.w3.org/2000/svg" xmlns:xlink="http://www.w3.org/1999/xlink" xmlns:a="http://ns.adobe.com/AdobeSVGViewerExtensions/3.0/"
	 x="0px" y="0px" width="17px" height="23px" viewBox="13.561 0 17 23" enable-background="new 13.561 0 17 23"
	 xml:space="preserve">
<defs>
</defs>
<g>
	<g>
		<path d="M22.706,15.065c-0.387,0.605-0.984,1.288-1.784,1.122c-0.979-0.203-1.235-1.636-1.282-2.438
			c-0.056-0.961-1.557-0.967-1.5,0c0.086,1.465,0.632,3.301,2.192,3.821c1.549,0.516,2.869-0.495,3.669-1.748
			C24.523,15.004,23.225,14.253,22.706,15.065L22.706,15.065z"/>
	</g>
</g>
<g>
	<g>
		<path d="M23.9,15.956c2.01-2.938,4.021-5.875,6.03-8.813c0.548-0.801-0.753-1.55-1.295-0.757c-2.011,2.938-4.021,5.875-6.03,8.813
			C22.058,16,23.358,16.749,23.9,15.956L23.9,15.956z"/>
	</g>
</g>
<g>
	<g>
		<path d="M26.155,6.171c0,5.171,0,10.343,0,15.515c0,0.967,1.5,0.967,1.5,0c0-5.171,0-10.343,0-15.515
			C27.655,5.204,26.155,5.204,26.155,6.171L26.155,6.171z"/>
	</g>
</g>
<g>
	<g>
		<path d="M24.681,20.09c1.732-0.891,3.466-1.782,5.199-2.673c0.86-0.442,0.102-1.736-0.758-1.295
			c-1.732,0.891-3.466,1.782-5.199,2.673C23.063,19.238,23.821,20.532,24.681,20.09L24.681,20.09z"/>
	</g>
</g>
<g>
	<g>
		<path d="M27.655,6.171c-0.014-0.785-0.03-1.692,0.354-2.405c0.065-0.122,0.069-0.118,0.126-0.179
			c0.013-0.013,0.152-0.103,0.06-0.065c0.19-0.077-0.043-0.03,0.159-0.026c-0.229-0.004,0.219,0.081,0.042,0.005
			c0.34,0.146,0.51,0.372,0.694,0.771c0.287,0.62-0.184,1.766-0.636,2.365c-0.584,0.772,0.72,1.519,1.295,0.757
			c1.202-1.591,1.357-4.475-0.834-5.289c-0.697-0.259-1.474-0.03-1.942,0.539c-0.786,0.955-0.839,2.351-0.818,3.528
			C26.172,7.137,27.672,7.139,27.655,6.171L27.655,6.171z"/>
	</g>
</g>
<g>
	<g>
		<path d="M16.311,17.877c0-5.626,0-11.251,0-16.877c0-0.967-1.5-0.967-1.5,0c0,5.626,0,11.251,0,16.877
			C14.811,18.845,16.311,18.845,16.311,17.877L16.311,17.877z"/>
	</g>
</g>
<g>
	<g>
		<path d="M18.242,13.197c-1.078,1.47-2.157,2.941-3.235,4.412c-0.573,0.781,0.729,1.528,1.295,0.757
			c1.079-1.47,2.157-2.941,3.235-4.412C20.11,13.172,18.808,12.425,18.242,13.197L18.242,13.197z"/>
	</g>
</g>
<rect id="_x3C_Slice_x3E__147_" fill="none" width="13.751" height="21"/>
<rect id="_x3C_Slice_x3E__146_" x="14" fill="none" width="16.417" height="22.636"/>
</svg>
