<?xml version="1.0" encoding="utf-8"?>
<!-- Generator: Adobe Illustrator 15.1.0, SVG Export Plug-In  -->
<!DOCTYPE svg PUBLIC "-//W3C//DTD SVG 1.1//EN" "http://www.w3.org/Graphics/SVG/1.1/DTD/svg11.dtd" [
	<!ENTITY ns_flows "http://ns.adobe.com/Flows/1.0/">
]>
<svg version="1.1"
	 xmlns="http://www.w3.org/2000/svg" xmlns:xlink="http://www.w3.org/1999/xlink" xmlns:a="http://ns.adobe.com/AdobeSVGViewerExtensions/3.0/"
	 x="0px" y="0px" width="31px" height="21px" viewBox="-0.439 31 31 21" enable-background="new -0.439 31 31 21"
	 xml:space="preserve">
<defs>
</defs>
<g>
	<g>
		<path d="M21.135,37.329c0,2.424,0,4.848,0,7.272c0,0.967,1.5,0.967,1.5,0c0-2.424,0-4.848,0-7.272
			C22.635,36.362,21.135,36.362,21.135,37.329L21.135,37.329z"/>
	</g>
</g>
<g>
	<g>
		<path d="M1.894,45.493c6.325-2.424,12.65-4.848,18.975-7.272c0.894-0.342,0.506-1.793-0.398-1.446
			c-6.325,2.424-12.65,4.848-18.975,7.272C0.602,44.389,0.989,45.839,1.894,45.493L1.894,45.493z"/>
	</g>
</g>
<g>
	<g>
		<path d="M23.135,35.329c-0.087,1.612-2.413,1.612-2.5,0C20.548,33.716,23.049,33.725,23.135,35.329c0.052,0.962,1.552,0.967,1.5,0
			c-0.084-1.554-1.195-2.667-2.75-2.75c-1.551-0.083-2.673,1.322-2.75,2.75c-0.084,1.551,1.321,2.673,2.75,2.75
			c1.551,0.083,2.673-1.322,2.75-2.75C24.687,34.362,23.187,34.367,23.135,35.329z"/>
	</g>
</g>
<g>
	<g>
		<path d="M23.932,36.874c2.146-0.867,4.29-1.734,6.435-2.601c0.885-0.357,0.499-1.809-0.398-1.446
			c-2.145,0.867-4.29,1.734-6.435,2.601C22.648,35.785,23.034,37.237,23.932,36.874L23.932,36.874z"/>
	</g>
</g>
<g>
	<g>
		<path d="M1.034,35.709c3.949,1.772,7.898,3.544,11.847,5.316c0.875,0.393,1.639-0.899,0.758-1.295
			c-3.949-1.772-7.898-3.544-11.847-5.316C0.917,34.021,0.153,35.313,1.034,35.709L1.034,35.709z"/>
	</g>
</g>
<g>
	<g>
		<path d="M1.413,48.303c6.824,0,13.647,0,20.472,0c0.968,0,0.968-1.5,0-1.5c-6.824,0-13.647,0-20.472,0
			C0.446,46.803,0.446,48.303,1.413,48.303L1.413,48.303z"/>
	</g>
</g>
<g>
	<g>
		<path d="M1.413,50.588c6.824,0,13.647,0,20.472,0c0.968,0,0.968-1.5,0-1.5c-6.824,0-13.647,0-20.472,0
			C0.446,49.088,0.446,50.588,1.413,50.588L1.413,50.588z"/>
	</g>
</g>
<rect id="_x3C_Slice_x3E__129_" x="19" fill="none" width="14.584" height="32"/>
<rect id="_x3C_Slice_x3E__128_" y="31" fill="none" width="30.535" height="21"/>
</svg>
