<?xml version="1.0" encoding="utf-8"?>
<!-- Generator: Adobe Illustrator 15.1.0, SVG Export Plug-In  -->
<!DOCTYPE svg PUBLIC "-//W3C//DTD SVG 1.1//EN" "http://www.w3.org/Graphics/SVG/1.1/DTD/svg11.dtd" [
	<!ENTITY ns_flows "http://ns.adobe.com/Flows/1.0/">
]>
<svg version="1.1"
	 xmlns="http://www.w3.org/2000/svg" xmlns:xlink="http://www.w3.org/1999/xlink" xmlns:a="http://ns.adobe.com/AdobeSVGViewerExtensions/3.0/"
	 x="0px" y="0px" width="17px" height="22px" viewBox="-0.439 0 17 22" enable-background="new -0.439 0 17 22"
	 xml:space="preserve">
<defs>
</defs>
<g>
	<g>
		<path d="M4.049,6.667c0,3.663,0,7.325,0,10.988c0,0.967,1.5,0.967,1.5,0c0-3.663,0-7.325,0-10.988
			C5.549,5.7,4.049,5.7,4.049,6.667L4.049,6.667z"/>
	</g>
</g>
<g>
	<g>
		<path d="M1.876,18.405c1.948,0,3.897,0,5.846,0c0.968,0,0.968-1.5,0-1.5c-1.948,0-3.897,0-5.846,0
			C0.908,16.905,0.908,18.405,1.876,18.405L1.876,18.405z"/>
	</g>
</g>
<g>
	<g>
		<path d="M1.876,20.917c1.948,0,3.897,0,5.846,0c0.968,0,0.968-1.5,0-1.5c-1.948,0-3.897,0-5.846,0
			C0.908,19.417,0.908,20.917,1.876,20.917L1.876,20.917z"/>
	</g>
</g>
<g>
	<g>
		<path d="M5.538,4.167c-0.121,2.256-3.379,2.256-3.5,0C1.916,1.91,5.417,1.922,5.538,4.167c0.052,0.962,1.552,0.967,1.5,0
			c-0.099-1.837-1.413-3.151-3.25-3.25c-1.833-0.099-3.159,1.562-3.25,3.25C0.439,6.001,2.1,7.327,3.788,7.417
			c1.833,0.099,3.159-1.562,3.25-3.25C7.09,3.201,5.59,3.206,5.538,4.167z"/>
	</g>
</g>
<g>
	<g>
		<path d="M5.788,6.73c3.333,0,6.667,0,10,0c0.968,0,0.968-1.5,0-1.5c-3.333,0-6.667,0-10,0C4.82,5.23,4.82,6.73,5.788,6.73
			L5.788,6.73z"/>
	</g>
</g>
<rect id="_x3C_Slice_x3E__129_" fill="none" width="17" height="21.158"/>
</svg>
