<?xml version="1.0" encoding="utf-8"?>
<!-- Generator: Adobe Illustrator 15.1.0, SVG Export Plug-In  -->
<!DOCTYPE svg PUBLIC "-//W3C//DTD SVG 1.1//EN" "http://www.w3.org/Graphics/SVG/1.1/DTD/svg11.dtd" [
	<!ENTITY ns_flows "http://ns.adobe.com/Flows/1.0/">
]>
<svg version="1.1"
	 xmlns="http://www.w3.org/2000/svg" xmlns:xlink="http://www.w3.org/1999/xlink" xmlns:a="http://ns.adobe.com/AdobeSVGViewerExtensions/3.0/"
	 x="0px" y="0px" width="17px" height="20px" viewBox="15.561 0 17 20" enable-background="new 15.561 0 17 20"
	 xml:space="preserve">
<defs>
</defs>
<g>
	<g>
		<path d="M23.811,1.728c0,3.663,0,7.325,0,10.988c0,0.967,1.5,0.967,1.5,0c0-3.663,0-7.325,0-10.988
			C25.311,0.76,23.811,0.76,23.811,1.728L23.811,1.728z"/>
	</g>
</g>
<g>
	<g>
		<path d="M21.638,16.465c1.948,0,3.897,0,5.846,0c0.968,0,0.968-1.5,0-1.5c-1.948,0-3.897,0-5.846,0
			C20.67,14.965,20.67,16.465,21.638,16.465L21.638,16.465z"/>
	</g>
</g>
<g>
	<g>
		<path d="M21.638,18.977c1.948,0,3.897,0,5.846,0c0.968,0,0.968-1.5,0-1.5c-1.948,0-3.897,0-5.846,0
			C20.67,17.477,20.67,18.977,21.638,18.977L21.638,18.977z"/>
	</g>
</g>
<g>
	<g>
		<path d="M17.061,1.79c5,0,10,0,15,0c0.967,0,0.967-1.5,0-1.5c-5,0-10,0-15,0C16.094,0.29,16.094,1.79,17.061,1.79L17.061,1.79z"/>
	</g>
</g>
<rect id="_x3C_Slice_x3E__130_" fill="none" width="15.959" height="27.667"/>
<rect id="_x3C_Slice_x3E__129_" x="16" fill="none" width="16.299" height="19.208"/>
</svg>
