<?xml version="1.0" encoding="utf-8"?>
<!-- Generator: Adobe Illustrator 15.1.0, SVG Export Plug-In  -->
<!DOCTYPE svg PUBLIC "-//W3C//DTD SVG 1.1//EN" "http://www.w3.org/Graphics/SVG/1.1/DTD/svg11.dtd" [
	<!ENTITY ns_flows "http://ns.adobe.com/Flows/1.0/">
]>
<svg version="1.1"
	 xmlns="http://www.w3.org/2000/svg" xmlns:xlink="http://www.w3.org/1999/xlink" xmlns:a="http://ns.adobe.com/AdobeSVGViewerExtensions/3.0/"
	 x="0px" y="0px" width="19px" height="30px" viewBox="-0.439 0 19 30" enable-background="new -0.439 0 19 30"
	 xml:space="preserve">
<defs>
</defs>
<g>
	<g>
		<path d="M4.744,1.715c0,7.055,0,14.111,0,21.166c0,0.967,1.5,0.967,1.5,0c0-7.055,0-14.111,0-21.166
			C6.244,0.748,4.744,0.748,4.744,1.715L4.744,1.715z"/>
	</g>
</g>
<g>
	<g>
		<path d="M5.494,13.049c3.938,0,7.875,0,11.813,0c0.967,0,0.967-1.5,0-1.5c-3.938,0-7.875,0-11.813,0
			C4.527,11.549,4.527,13.049,5.494,13.049L5.494,13.049z"/>
	</g>
</g>
<g>
	<g>
		<path d="M2.638,27.465c1.948,0,3.897,0,5.846,0c0.968,0,0.968-1.5,0-1.5c-1.948,0-3.897,0-5.846,0
			C1.67,25.965,1.67,27.465,2.638,27.465L2.638,27.465z"/>
	</g>
</g>
<g>
	<g>
		<path d="M2.638,29.75c1.948,0,3.897,0,5.846,0c0.968,0,0.968-1.5,0-1.5c-1.948,0-3.897,0-5.846,0
			C1.67,28.25,1.67,29.75,2.638,29.75L2.638,29.75z"/>
	</g>
</g>
<rect id="_x3C_Slice_x3E__128_" fill="none" width="19" height="30"/>
</svg>
