<?xml version="1.0" encoding="utf-8"?>
<!-- Generator: Adobe Illustrator 15.1.0, SVG Export Plug-In  -->
<!DOCTYPE svg PUBLIC "-//W3C//DTD SVG 1.1//EN" "http://www.w3.org/Graphics/SVG/1.1/DTD/svg11.dtd" [
	<!ENTITY ns_flows "http://ns.adobe.com/Flows/1.0/">
]>
<svg version="1.1"
	 xmlns="http://www.w3.org/2000/svg" xmlns:xlink="http://www.w3.org/1999/xlink" xmlns:a="http://ns.adobe.com/AdobeSVGViewerExtensions/3.0/"
	 x="0px" y="0px" width="16px" height="32px" viewBox="-0.439 0 16 32" enable-background="new -0.439 0 16 32"
	 xml:space="preserve">
<defs>
</defs>
<g>
	<g>
		<path d="M3.629,5.92c0,6.097,0,12.194,0,18.291c0,0.967,1.5,0.967,1.5,0c0-6.097,0-12.194,0-18.291
			C5.129,4.953,3.629,4.953,3.629,5.92L3.629,5.92z"/>
	</g>
</g>
<g>
	<g>
		<path d="M4.976,15.729c3.094-3.093,6.187-6.186,9.28-9.279c0.685-0.685-0.376-1.745-1.061-1.061
			c-3.094,3.093-6.187,6.186-9.28,9.279C3.23,15.354,4.291,16.414,4.976,15.729L4.976,15.729z"/>
	</g>
</g>
<g>
	<g>
		<path d="M1.522,28.795c1.948,0,3.897,0,5.846,0c0.967,0,0.967-1.5,0-1.5c-1.948,0-3.897,0-5.846,0
			C0.556,27.295,0.556,28.795,1.522,28.795L1.522,28.795z"/>
	</g>
</g>
<g>
	<g>
		<path d="M1.522,31.08c1.948,0,3.897,0,5.846,0c0.967,0,0.967-1.5,0-1.5c-1.948,0-3.897,0-5.846,0
			C0.556,29.58,0.556,31.08,1.522,31.08L1.522,31.08z"/>
	</g>
</g>
<g>
	<g>
		<path d="M5.629,3.92c-0.087,1.612-2.413,1.612-2.5,0C3.042,2.307,5.542,2.316,5.629,3.92c0.052,0.962,1.552,0.967,1.5,0
			c-0.084-1.554-1.196-2.667-2.75-2.75c-1.551-0.083-2.673,1.322-2.75,2.75C1.546,5.471,2.95,6.593,4.379,6.67
			c1.551,0.083,2.673-1.322,2.75-2.75C7.181,2.954,5.681,2.958,5.629,3.92z"/>
	</g>
</g>
<g>
	<g>
		<path d="M8.612,9.015c1.948,0,3.897,0,5.846,0c0.968,0,0.968-1.5,0-1.5c-1.948,0-3.897,0-5.846,0
			C7.645,7.515,7.645,9.015,8.612,9.015L8.612,9.015z"/>
	</g>
</g>
<rect id="_x3C_Slice_x3E__128_" fill="none" width="15.875" height="31.625"/>
</svg>
