<?xml version="1.0" encoding="utf-8"?>
<!-- Generator: Adobe Illustrator 15.1.0, SVG Export Plug-In  -->
<!DOCTYPE svg PUBLIC "-//W3C//DTD SVG 1.1//EN" "http://www.w3.org/Graphics/SVG/1.1/DTD/svg11.dtd" [
	<!ENTITY ns_flows "http://ns.adobe.com/Flows/1.0/">
]>
<svg version="1.1"
	 xmlns="http://www.w3.org/2000/svg" xmlns:xlink="http://www.w3.org/1999/xlink" xmlns:a="http://ns.adobe.com/AdobeSVGViewerExtensions/3.0/"
	 x="0px" y="0px" width="16px" height="41px" viewBox="-0.439 0 16 41" enable-background="new -0.439 0 16 41"
	 xml:space="preserve">
<defs>
</defs>
<g>
	<g>
		<path d="M11.142,12.543c-0.041,2.613-0.452,10.19-4.277,10.491c-1.659,0.13-2.701-2.381-3.168-3.576
			c-0.855-2.185-1.071-4.592-1.107-6.915c-0.015-0.966-1.516-0.968-1.5,0c0.058,3.69,0.765,11.597,5.775,11.991
			c1.743,0.137,3.063-1.599,3.829-2.908c1.563-2.669,1.9-6.058,1.948-9.083C12.657,11.575,11.156,11.577,11.142,12.543
			L11.142,12.543z"/>
	</g>
</g>
<g>
	<g>
		<path d="M13.142,10.543c-0.087,1.612-2.413,1.612-2.5,0C10.555,8.93,13.056,8.938,13.142,10.543c0.052,0.962,1.552,0.967,1.5,0
			c-0.084-1.554-1.195-2.667-2.75-2.75c-1.551-0.083-2.673,1.322-2.75,2.75c-0.084,1.551,1.321,2.673,2.75,2.75
			c1.551,0.083,2.673-1.322,2.75-2.75C14.693,9.576,13.193,9.581,13.142,10.543z"/>
	</g>
</g>
<g>
	<g>
		<path d="M6.115,23.783c0,3.656,0,7.311,0,10.967c0,0.967,1.5,0.967,1.5,0c0-3.656,0-7.311,0-10.967
			C7.615,22.816,6.115,22.816,6.115,23.783L6.115,23.783z"/>
	</g>
</g>
<g>
	<g>
		<path d="M3.942,37.625c1.948,0,3.897,0,5.846,0c0.967,0,0.967-1.5,0-1.5c-1.948,0-3.897,0-5.846,0
			C2.976,36.125,2.976,37.625,3.942,37.625L3.942,37.625z"/>
	</g>
</g>
<g>
	<g>
		<path d="M3.942,39.91c1.948,0,3.897,0,5.846,0c0.967,0,0.967-1.5,0-1.5c-1.948,0-3.897,0-5.846,0
			C2.976,38.41,2.976,39.91,3.942,39.91L3.942,39.91z"/>
	</g>
</g>
<g>
	<g>
		<path d="M11.142,1.918c0,2.208,0,4.417,0,6.625c0,0.967,1.5,0.967,1.5,0c0-2.208,0-4.417,0-6.625
			C12.642,0.951,11.142,0.951,11.142,1.918L11.142,1.918z"/>
	</g>
</g>
<rect id="_x3C_Slice_x3E__129_" fill="none" width="16" height="41"/>
</svg>
