<?xml version="1.0" encoding="utf-8"?>
<!-- Generator: Adobe Illustrator 15.1.0, SVG Export Plug-In  -->
<!DOCTYPE svg PUBLIC "-//W3C//DTD SVG 1.1//EN" "http://www.w3.org/Graphics/SVG/1.1/DTD/svg11.dtd" [
	<!ENTITY ns_flows "http://ns.adobe.com/Flows/1.0/">
]>
<svg version="1.1"
	 xmlns="http://www.w3.org/2000/svg" xmlns:xlink="http://www.w3.org/1999/xlink" xmlns:a="http://ns.adobe.com/AdobeSVGViewerExtensions/3.0/"
	 x="0px" y="0px" width="15px" height="24px" viewBox="13.561 0 15 24" enable-background="new 13.561 0 15 24"
	 xml:space="preserve">
<defs>
</defs>
<g>
	<g>
		<path d="M16.271,21.101c3.548,0,7.097,0,10.645,0c0.967,0,0.967-1.5,0-1.5c-3.548,0-7.097,0-10.645,0
			C15.305,19.601,15.305,21.101,16.271,21.101L16.271,21.101z"/>
	</g>
</g>
<g>
	<g>
		<path d="M16.271,23.386c3.548,0,7.097,0,10.645,0c0.967,0,0.967-1.5,0-1.5c-3.548,0-7.097,0-10.645,0
			C15.305,21.886,15.305,23.386,16.271,23.386L16.271,23.386z"/>
	</g>
</g>
<g>
	<g>
		<path d="M23.134,15.031c-0.071,1.311-1.963,1.312-2.034,0C21.029,13.719,23.063,13.727,23.134,15.031
			c0.041,0.77,1.241,0.773,1.199,0c-0.067-1.253-0.964-2.149-2.217-2.216c-1.25-0.067-2.154,1.065-2.216,2.216
			c-0.067,1.25,1.064,2.155,2.216,2.217c1.25,0.067,2.155-1.065,2.217-2.217C24.375,14.257,23.175,14.261,23.134,15.031z"/>
	</g>
</g>
<g>
	<g>
		<path d="M22.867,13.234c0-4.005,0-8.011,0-12.016c0-0.967-1.5-0.967-1.5,0c0,4.005,0,8.011,0,12.016
			C21.367,14.202,22.867,14.202,22.867,13.234L22.867,13.234z"/>
	</g>
</g>
<g>
	<g>
		<path d="M19.853,15.585c-0.914,1.216-3.055,1.212-4.385,0.972c-0.945-0.171-1.35,1.274-0.398,1.446
			c2.099,0.379,4.699,0.174,6.078-1.662C21.729,15.568,20.426,14.821,19.853,15.585L19.853,15.585z"/>
	</g>
</g>
<g>
	<g>
		<path d="M23.748,14.267c1.337-1.079,2.674-2.158,4.011-3.237c0.753-0.608-0.315-1.662-1.061-1.061
			c-1.337,1.079-2.674,2.158-4.011,3.237C21.935,13.814,23.003,14.868,23.748,14.267L23.748,14.267z"/>
	</g>
</g>
<g>
	<g>
		<path d="M27.178,16.424c-0.692-1.624-0.003-3.87,0.698-5.375c0.406-0.871-0.887-1.633-1.295-0.757
			c-0.963,2.066-1.634,4.697-0.698,6.888C26.262,18.068,27.554,17.303,27.178,16.424L27.178,16.424z"/>
	</g>
</g>
<rect id="_x3C_Slice_x3E__130_" fill="none" width="13.584" height="26.917"/>
<rect id="_x3C_Slice_x3E__129_" x="14" fill="none" width="14.501" height="23.958"/>
</svg>
