<?xml version="1.0" encoding="utf-8"?>
<!-- Generator: Adobe Illustrator 15.1.0, SVG Export Plug-In  -->
<!DOCTYPE svg PUBLIC "-//W3C//DTD SVG 1.1//EN" "http://www.w3.org/Graphics/SVG/1.1/DTD/svg11.dtd" [
	<!ENTITY ns_flows "http://ns.adobe.com/Flows/1.0/">
]>
<svg version="1.1"
	 xmlns="http://www.w3.org/2000/svg" xmlns:xlink="http://www.w3.org/1999/xlink" xmlns:a="http://ns.adobe.com/AdobeSVGViewerExtensions/3.0/"
	 x="0px" y="0px" width="20px" height="21px" viewBox="-0.439 0 20 21" enable-background="new -0.439 0 20 21"
	 xml:space="preserve">
<defs>
</defs>
<g>
	<g>
		<path d="M2.397,20.033C2.452,16.541,3.013,6.815,8.072,6.417c2.233-0.176,3.616,3.103,4.25,4.723
			c1.099,2.808,1.376,5.907,1.423,8.893c0.016,0.966,1.516,0.968,1.5,0c-0.072-4.569-0.922-14.625-7.173-15.116
			C5.921,4.749,4.301,6.921,3.358,8.531c-1.979,3.38-2.4,7.673-2.461,11.502C0.882,21.001,2.382,21,2.397,20.033L2.397,20.033z"/>
	</g>
</g>
<g>
	<circle cx="8.071" cy="13.453" r="0.5"/>
	<g>
		<path d="M8.321,13.453c-0.126,0.228-0.283,0.294-0.474,0.199c0-0.133,0-0.266,0-0.398c0.146-0.062,0.294-0.062,0.447,0
			c-0.055-0.406-0.569-0.621-0.923-0.524c-0.434,0.119-0.578,0.518-0.524,0.922c0.198,1.476,2.474,1.28,2.474-0.199
			c0-0.605-0.583-1.339-1.25-1.25c-0.74,0.099-1.15,0.509-1.25,1.25c-0.055,0.406,0.383,0.75,0.75,0.75
			C8.021,14.203,8.267,13.858,8.321,13.453z"/>
	</g>
</g>
<g>
	<g>
		<path d="M14.19,1.201c1.214,3.319,2.427,6.638,3.64,9.957c0.33,0.901,1.779,0.512,1.447-0.398
			c-1.214-3.319-2.427-6.638-3.64-9.957C15.308-0.099,13.858,0.29,14.19,1.201L14.19,1.201z"/>
	</g>
</g>
<g>
	<g>
		<path d="M11.796,7.479c1.212-2.017,2.424-4.034,3.636-6.052c0.5-0.831-0.798-1.585-1.295-0.757
			c-1.212,2.017-2.424,4.034-3.636,6.052C10.001,7.553,11.299,8.307,11.796,7.479L11.796,7.479z"/>
	</g>
</g>
<rect id="_x3C_Slice_x3E__129_" fill="none" width="19.418" height="21"/>
</svg>
