<?xml version="1.0" encoding="utf-8"?>
<!-- Generator: Adobe Illustrator 15.1.0, SVG Export Plug-In  -->
<!DOCTYPE svg PUBLIC "-//W3C//DTD SVG 1.1//EN" "http://www.w3.org/Graphics/SVG/1.1/DTD/svg11.dtd" [
	<!ENTITY ns_flows "http://ns.adobe.com/Flows/1.0/">
]>
<svg version="1.1"
	 xmlns="http://www.w3.org/2000/svg" xmlns:xlink="http://www.w3.org/1999/xlink" xmlns:a="http://ns.adobe.com/AdobeSVGViewerExtensions/3.0/"
	 x="0px" y="0px" width="15px" height="31px" viewBox="18.561 0 15 31" enable-background="new 18.561 0 15 31"
	 xml:space="preserve">
<defs>
</defs>
<g>
	<g>
		<path d="M22.577,5.59c0,6.097,0,12.194,0,18.291c0,0.967,1.5,0.967,1.5,0c0-6.097,0-12.194,0-18.291
			C24.077,4.623,22.577,4.623,22.577,5.59L22.577,5.59z"/>
	</g>
</g>
<g>
	<g>
		<path d="M23.924,15.399c3.094-3.093,6.187-6.186,9.28-9.279c0.685-0.685-0.376-1.745-1.061-1.061
			c-3.094,3.093-6.187,6.186-9.28,9.279C22.179,15.023,23.239,16.084,23.924,15.399L23.924,15.399z"/>
	</g>
</g>
<g>
	<g>
		<path d="M20.471,28.465c1.948,0,3.897,0,5.846,0c0.968,0,0.968-1.5,0-1.5c-1.948,0-3.897,0-5.846,0
			C19.503,26.965,19.503,28.465,20.471,28.465L20.471,28.465z"/>
	</g>
</g>
<g>
	<g>
		<path d="M20.471,30.75c1.948,0,3.897,0,5.846,0c0.968,0,0.968-1.5,0-1.5c-1.948,0-3.897,0-5.846,0
			C19.503,29.25,19.503,30.75,20.471,30.75L20.471,30.75z"/>
	</g>
</g>
<g>
	<g>
		<path d="M24.577,3.59c-0.087,1.612-2.413,1.612-2.5,0C21.99,1.977,24.49,1.986,24.577,3.59c0.052,0.962,1.552,0.967,1.5,0
			c-0.084-1.554-1.196-2.667-2.75-2.75c-1.551-0.083-2.673,1.322-2.75,2.75c-0.083,1.551,1.321,2.673,2.75,2.75
			c1.551,0.083,2.673-1.322,2.75-2.75C26.129,2.624,24.629,2.628,24.577,3.59z"/>
	</g>
</g>
<rect id="_x3C_Slice_x3E__129_" fill="none" width="19" height="30"/>
<rect id="_x3C_Slice_x3E__128_" x="19" fill="none" width="14.584" height="32"/>
</svg>
