<?xml version="1.0" encoding="utf-8"?>
<!-- Generator: Adobe Illustrator 15.1.0, SVG Export Plug-In  -->
<!DOCTYPE svg PUBLIC "-//W3C//DTD SVG 1.1//EN" "http://www.w3.org/Graphics/SVG/1.1/DTD/svg11.dtd" [
	<!ENTITY ns_flows "http://ns.adobe.com/Flows/1.0/">
]>
<svg version="1.1"
	 xmlns="http://www.w3.org/2000/svg" xmlns:xlink="http://www.w3.org/1999/xlink" xmlns:a="http://ns.adobe.com/AdobeSVGViewerExtensions/3.0/"
	 x="0px" y="0px" width="18px" height="31px" viewBox="14.561 0 18 31" enable-background="new 14.561 0 18 31"
	 xml:space="preserve">
<defs>
</defs>
<g>
	<g>
		<path d="M18.744,2.715c0,7.055,0,14.111,0,21.166c0,0.967,1.5,0.967,1.5,0c0-7.055,0-14.111,0-21.166
			C20.244,1.748,18.744,1.748,18.744,2.715L18.744,2.715z"/>
	</g>
</g>
<g>
	<g>
		<path d="M20.024,14.936c3.824-3.825,7.648-7.649,11.473-11.474c0.685-0.685-0.376-1.745-1.061-1.061
			c-3.824,3.825-7.648,7.649-11.473,11.474C18.279,14.56,19.34,15.621,20.024,14.936L20.024,14.936z"/>
	</g>
</g>
<g>
	<g>
		<path d="M16.638,28.465c1.948,0,3.897,0,5.846,0c0.968,0,0.968-1.5,0-1.5c-1.948,0-3.897,0-5.846,0
			C15.67,26.965,15.67,28.465,16.638,28.465L16.638,28.465z"/>
	</g>
</g>
<g>
	<g>
		<path d="M16.638,30.75c1.948,0,3.897,0,5.846,0c0.968,0,0.968-1.5,0-1.5c-1.948,0-3.897,0-5.846,0
			C15.67,29.25,15.67,30.75,16.638,30.75L16.638,30.75z"/>
	</g>
</g>
<rect id="_x3C_Slice_x3E__129_" fill="none" width="14.584" height="32"/>
<rect id="_x3C_Slice_x3E__128_" x="15" fill="none" width="17.584" height="32"/>
</svg>
