<?xml version="1.0" encoding="utf-8"?>
<!-- Generator: Adobe Illustrator 15.1.0, SVG Export Plug-In  -->
<!DOCTYPE svg PUBLIC "-//W3C//DTD SVG 1.1//EN" "http://www.w3.org/Graphics/SVG/1.1/DTD/svg11.dtd" [
	<!ENTITY ns_flows "http://ns.adobe.com/Flows/1.0/">
]>
<svg version="1.1"
	 xmlns="http://www.w3.org/2000/svg" xmlns:xlink="http://www.w3.org/1999/xlink" xmlns:a="http://ns.adobe.com/AdobeSVGViewerExtensions/3.0/"
	 x="0px" y="0px" width="17px" height="26px" viewBox="-0.439 0 17 26" enable-background="new -0.439 0 17 26"
	 xml:space="preserve">
<defs>
</defs>
<g>
	<g>
		<path d="M7.909,9.574c0,3.333,0,6.667,0,10c0,0.967,1.5,0.967,1.5,0c0-3.333,0-6.667,0-10C9.409,8.606,7.909,8.606,7.909,9.574
			L7.909,9.574z"/>
	</g>
</g>
<g>
	<g>
		<path d="M9.189,9.043C7.719,7.572,6.249,6.101,4.778,4.63C4.094,3.945,3.033,5.006,3.718,5.69c1.471,1.471,2.94,2.942,4.411,4.414
			C8.813,10.789,9.874,9.728,9.189,9.043L9.189,9.043z"/>
	</g>
</g>
<g>
	<g>
		<path d="M5.736,22.667c1.948,0,3.897,0,5.846,0c0.967,0,0.967-1.5,0-1.5c-1.948,0-3.897,0-5.846,0
			C4.77,21.167,4.77,22.667,5.736,22.667L5.736,22.667z"/>
	</g>
</g>
<g>
	<g>
		<path d="M5.736,24.953c1.948,0,3.897,0,5.846,0c0.967,0,0.967-1.5,0-1.5c-1.948,0-3.897,0-5.846,0
			C4.77,23.453,4.77,24.953,5.736,24.953L5.736,24.953z"/>
	</g>
</g>
<g>
	<g>
		<path d="M4.16,3.535c-0.087,1.612-2.413,1.612-2.5,0C1.573,1.921,4.074,1.93,4.16,3.535c0.052,0.962,1.552,0.967,1.5,0
			C5.576,1.98,4.465,0.868,2.91,0.785c-1.551-0.083-2.673,1.322-2.75,2.75c-0.084,1.551,1.321,2.673,2.75,2.75
			c1.551,0.083,2.673-1.322,2.75-2.75C5.712,2.568,4.212,2.573,4.16,3.535z"/>
	</g>
</g>
<g>
	<g>
		<path d="M9.189,10.104c2.357-2.357,4.714-4.714,7.071-7.071c0.685-0.685-0.376-1.745-1.061-1.061
			c-2.357,2.357-4.714,4.714-7.071,7.071C7.444,9.728,8.505,10.789,9.189,10.104L9.189,10.104z"/>
	</g>
</g>
<rect id="_x3C_Slice_x3E__129_" fill="none" width="17" height="25.583"/>
</svg>
