<?xml version="1.0" encoding="utf-8"?>
<!-- Generator: Adobe Illustrator 15.1.0, SVG Export Plug-In  -->
<!DOCTYPE svg PUBLIC "-//W3C//DTD SVG 1.1//EN" "http://www.w3.org/Graphics/SVG/1.1/DTD/svg11.dtd" [
	<!ENTITY ns_flows "http://ns.adobe.com/Flows/1.0/">
]>
<svg version="1.1"
	 xmlns="http://www.w3.org/2000/svg" xmlns:xlink="http://www.w3.org/1999/xlink" xmlns:a="http://ns.adobe.com/AdobeSVGViewerExtensions/3.0/"
	 x="0px" y="0px" width="14px" height="21px" viewBox="-0.439 0 14 21" enable-background="new -0.439 0 14 21"
	 xml:space="preserve">
<defs>
</defs>
<g>
	<g>
		<path d="M11.951,15.292c-0.087,1.881-1.263,3.497-3.24,3.606c-1.975,0.109-3.162-1.887-3.241-3.606
			c-0.045-0.963-1.545-0.967-1.5,0c0.126,2.735,1.924,4.951,4.741,5.106c2.811,0.155,4.625-2.61,4.74-5.106
			C13.496,14.324,11.996,14.329,11.951,15.292L11.951,15.292z"/>
	</g>
</g>
<g>
	<g>
		<path d="M1.667,19.648c0-6.075,0-12.149,0-18.224c0-0.967-1.5-0.967-1.5,0c0,6.075,0,12.149,0,18.224
			C0.167,20.615,1.667,20.615,1.667,19.648L1.667,19.648z"/>
	</g>
</g>
<g>
	<g>
		<path d="M4.189,14.365c-1.268,1.588-2.536,3.175-3.804,4.763c-0.597,0.748,0.457,1.816,1.061,1.061
			c1.268-1.588,2.536-3.175,3.804-4.763C5.848,14.678,4.793,13.609,4.189,14.365L4.189,14.365z"/>
	</g>
</g>
<rect id="_x3C_Slice_x3E__129_" fill="none" width="13.751" height="21"/>
</svg>
