<?xml version="1.0" encoding="utf-8"?>
<!-- Generator: Adobe Illustrator 15.1.0, SVG Export Plug-In  -->
<!DOCTYPE svg PUBLIC "-//W3C//DTD SVG 1.1//EN" "http://www.w3.org/Graphics/SVG/1.1/DTD/svg11.dtd" [
	<!ENTITY ns_flows "http://ns.adobe.com/Flows/1.0/">
]>
<svg version="1.1"
	 xmlns="http://www.w3.org/2000/svg" xmlns:xlink="http://www.w3.org/1999/xlink" xmlns:a="http://ns.adobe.com/AdobeSVGViewerExtensions/3.0/"
	 x="0px" y="0px" width="16px" height="27px" viewBox="-0.439 0 16 27" enable-background="new -0.439 0 16 27"
	 xml:space="preserve">
<defs>
</defs>
<g>
	<g>
		<path d="M2.193,25.636c0.055-3.492,0.615-13.218,5.675-13.616c2.233-0.176,3.616,3.103,4.25,4.723
			c1.099,2.808,1.376,5.907,1.423,8.893c0.016,0.966,1.516,0.968,1.5,0c-0.072-4.569-0.922-14.625-7.173-15.116
			c-2.151-0.169-3.771,2.003-4.714,3.613c-1.979,3.38-2.4,7.673-2.461,11.502C0.678,26.604,2.178,26.602,2.193,25.636L2.193,25.636z
			"/>
	</g>
</g>
<g>
	<circle cx="7.867" cy="19.056" r="0.5"/>
	<g>
		<path d="M8.117,19.056c-0.126,0.228-0.283,0.294-0.474,0.199c0-0.133,0-0.266,0-0.398c0.146-0.062,0.294-0.062,0.447,0
			c-0.055-0.406-0.569-0.621-0.923-0.524c-0.434,0.119-0.578,0.518-0.524,0.922c0.198,1.476,2.474,1.28,2.474-0.199
			c0-0.605-0.583-1.339-1.25-1.25c-0.74,0.099-1.15,0.509-1.25,1.25c-0.055,0.406,0.383,0.75,0.75,0.75
			C7.817,19.806,8.063,19.461,8.117,19.056z"/>
	</g>
</g>
<g>
	<g>
		<path d="M10.718,1.474c0,3.83,0,7.66,0,11.49c0,0.967,1.5,0.967,1.5,0c0-3.83,0-7.66,0-11.49
			C12.218,0.507,10.718,0.507,10.718,1.474L10.718,1.474z"/>
	</g>
</g>
<rect id="_x3C_Slice_x3E__129_" fill="none" width="16" height="27"/>
</svg>
