<?xml version="1.0" encoding="utf-8"?>
<!-- Generator: Adobe Illustrator 15.1.0, SVG Export Plug-In  -->
<!DOCTYPE svg PUBLIC "-//W3C//DTD SVG 1.1//EN" "http://www.w3.org/Graphics/SVG/1.1/DTD/svg11.dtd" [
	<!ENTITY ns_flows "http://ns.adobe.com/Flows/1.0/">
]>
<svg version="1.1"
	 xmlns="http://www.w3.org/2000/svg" xmlns:xlink="http://www.w3.org/1999/xlink" xmlns:a="http://ns.adobe.com/AdobeSVGViewerExtensions/3.0/"
	 x="0px" y="0px" width="24px" height="28px" viewBox="0.28 -0.557 24 28" enable-background="new 0.28 -0.557 24 28"
	 xml:space="preserve">
<defs>
</defs>
<g>
	<g>
		<path d="M21.53,12.631c-0.642,11.92-17.858,11.92-18.5,0c-0.282-5.23,4.43-8.99,9.25-9.25C17.512,3.1,21.271,7.811,21.53,12.631
			c0.052,0.962,1.552,0.967,1.5,0c-0.328-6.09-4.66-10.422-10.75-10.75C6.204,1.554,1.832,7.036,1.53,12.631
			c-0.327,6.077,5.155,10.449,10.75,10.75c6.077,0.327,10.449-5.154,10.75-10.75C23.083,11.665,21.582,11.669,21.53,12.631z"/>
	</g>
</g>
<g>
	<g>
		<path d="M4.28,26.756c5.333,0,10.667,0,16,0c0.967,0,0.967-1.5,0-1.5c-5.333,0-10.667,0-16,0
			C3.313,25.256,3.313,26.756,4.28,26.756L4.28,26.756z"/>
	</g>
</g>
<g>
	<g>
		<path d="M20.428,3.262C14.535,9.155,8.643,15.047,2.75,20.94C2.065,21.625,3.126,22.685,3.811,22
			c5.893-5.893,11.785-11.785,17.678-17.678C22.173,3.638,21.112,2.578,20.428,3.262L20.428,3.262z"/>
	</g>
</g>
<g>
	<g>
		<path d="M2.75,4.323C8.643,10.215,14.535,16.108,20.428,22c0.685,0.685,1.745-0.376,1.061-1.061
			C15.596,15.047,9.703,9.155,3.811,3.262C3.126,2.578,2.065,3.638,2.75,4.323L2.75,4.323z"/>
	</g>
</g>
<rect id="_x3C_Slice_x3E__86_" fill="none" width="24" height="27.443"/>
</svg>
