<?xml version="1.0" encoding="utf-8"?>
<!-- Generator: Adobe Illustrator 15.1.0, SVG Export Plug-In  -->
<!DOCTYPE svg PUBLIC "-//W3C//DTD SVG 1.1//EN" "http://www.w3.org/Graphics/SVG/1.1/DTD/svg11.dtd" [
	<!ENTITY ns_flows "http://ns.adobe.com/Flows/1.0/">
]>
<svg version="1.1"
	 xmlns="http://www.w3.org/2000/svg" xmlns:xlink="http://www.w3.org/1999/xlink" xmlns:a="http://ns.adobe.com/AdobeSVGViewerExtensions/3.0/"
	 x="0px" y="0px" width="37px" height="19px" viewBox="0.28 0 37 19" enable-background="new 0.28 0 37 19" xml:space="preserve">
<defs>
</defs>
<g>
	<g>
		<path d="M17.99,7.399c5.261,0.29,10.523,0.58,15.784,0.87c0.967,0.053,0.962-1.447,0-1.5c-5.261-0.29-10.523-0.58-15.784-0.87
			C17.023,5.846,17.028,7.346,17.99,7.399L17.99,7.399z"/>
	</g>
</g>
<g>
	<g>
		<path d="M2.206,8.27c5.261-0.29,10.523-0.58,15.784-0.87c0.962-0.053,0.967-1.553,0-1.5c-5.261,0.29-10.523,0.58-15.784,0.87
			C1.244,6.823,1.239,8.323,2.206,8.27L2.206,8.27z"/>
	</g>
</g>
<g>
	<g>
		<path d="M19.24,3.899c-0.087,1.613-2.413,1.613-2.5,0S19.154,2.295,19.24,3.899c0.052,0.962,1.552,0.967,1.5,0
			c-0.084-1.554-1.196-2.666-2.75-2.75c-1.551-0.083-2.673,1.321-2.75,2.75c-0.083,1.551,1.321,2.673,2.75,2.75
			c1.551,0.083,2.673-1.322,2.75-2.75C20.792,2.932,19.292,2.937,19.24,3.899z"/>
	</g>
</g>
<g>
	<g>
		<path d="M28.086,14.547c2.043-2.166,4.086-4.332,6.13-6.498c0.663-0.703-0.396-1.766-1.061-1.061
			c-2.043,2.166-4.086,4.332-6.13,6.498C26.363,14.189,27.421,15.252,28.086,14.547L28.086,14.547z"/>
	</g>
</g>
<g>
	<g>
		<path d="M27.659,14.767c2.084-0.218,4.169-0.436,6.253-0.654c0.952-0.1,0.961-1.601,0-1.5c-2.084,0.218-4.169,0.436-6.253,0.654
			C26.707,13.367,26.697,14.868,27.659,14.767L27.659,14.767z"/>
	</g>
</g>
<g>
	<g>
		<path d="M28.326,17.948c2.084-0.218,4.169-0.436,6.253-0.654c0.952-0.1,0.961-1.601,0-1.5c-2.084,0.218-4.169,0.436-6.253,0.654
			C27.374,16.547,27.364,18.048,28.326,17.948L28.326,17.948z"/>
	</g>
</g>
<rect id="_x3C_Slice_x3E__88_" fill="none" width="37" height="18.76"/>
</svg>
