<?xml version="1.0" encoding="utf-8"?>
<!-- Generator: Adobe Illustrator 15.1.0, SVG Export Plug-In  -->
<!DOCTYPE svg PUBLIC "-//W3C//DTD SVG 1.1//EN" "http://www.w3.org/Graphics/SVG/1.1/DTD/svg11.dtd" [
	<!ENTITY ns_flows "http://ns.adobe.com/Flows/1.0/">
]>
<svg version="1.1"
	 xmlns="http://www.w3.org/2000/svg" xmlns:xlink="http://www.w3.org/1999/xlink" xmlns:a="http://ns.adobe.com/AdobeSVGViewerExtensions/3.0/"
	 x="0px" y="0px" width="20px" height="34px" viewBox="0.28 28 20 34" enable-background="new 0.28 28 20 34" xml:space="preserve">
<defs>
</defs>
<g>
	<g>
		<path d="M10.062,42.533c2.205,1.791,3.779,3.991,4.695,6.689c0.897,2.642,0.531,6.435-2.829,6.869
			c-5.132,0.662-8.411-5.542-9.774-9.464c-0.315-0.908-1.765-0.518-1.446,0.398c1.178,3.389,2.652,6.254,5.517,8.519
			c1.878,1.484,4.857,2.728,7.229,1.72c6.94-2.949,1.491-12.686-2.332-15.791C10.379,40.869,9.311,41.923,10.062,42.533
			L10.062,42.533z"/>
	</g>
</g>
<path fill="none" stroke="#000000" stroke-width="1.5" stroke-miterlimit="10" d="M10.562,38.746c0,1.044-0.854,1.891-1.913,1.891
	c-1.055,0-1.909-0.846-1.909-1.891c0-1.048,0.854-1.895,1.909-1.895C9.708,36.851,10.562,37.697,10.562,38.746z"/>
<g>
	<g>
		<path d="M10.562,42.753c2.486,0,4.972,0,7.458,0c0.967,0,0.967-1.5,0-1.5c-2.486,0-4.972,0-7.458,0
			C9.595,41.253,9.595,42.753,10.562,42.753L10.562,42.753z"/>
	</g>
</g>
<g>
	<g>
		<path d="M4.151,60.745c3,0,6,0,9,0c0.967,0,0.967-1.5,0-1.5c-3,0-6,0-9,0C3.184,59.245,3.184,60.745,4.151,60.745L4.151,60.745z"
			/>
	</g>
</g>
<g>
	<g>
		<path d="M11.901,29.125c-0.226,4.189-6.274,4.189-6.5,0c-0.052-0.962-1.552-0.967-1.5,0c0.145,2.688,2.063,4.605,4.75,4.75
			c2.682,0.145,4.617-2.28,4.75-4.75C13.454,28.159,11.953,28.164,11.901,29.125L11.901,29.125z"/>
	</g>
</g>
<rect id="_x3C_Slice_x3E__89_" fill="none" width="19.02" height="29"/>
<rect id="_x3C_Slice_x3E__88_" y="28" fill="none" width="19.02" height="33.645"/>
</svg>
