<?xml version="1.0" encoding="utf-8"?>
<!-- Generator: Adobe Illustrator 15.1.0, SVG Export Plug-In  -->
<!DOCTYPE svg PUBLIC "-//W3C//DTD SVG 1.1//EN" "http://www.w3.org/Graphics/SVG/1.1/DTD/svg11.dtd" [
	<!ENTITY ns_flows "http://ns.adobe.com/Flows/1.0/">
]>
<svg version="1.1"
	 xmlns="http://www.w3.org/2000/svg" xmlns:xlink="http://www.w3.org/1999/xlink" xmlns:a="http://ns.adobe.com/AdobeSVGViewerExtensions/3.0/"
	 x="0px" y="0px" width="20px" height="34px" viewBox="0.28 -0.186 20 34" enable-background="new 0.28 -0.186 20 34"
	 xml:space="preserve">
<defs>
</defs>
<g>
	<g>
		<path d="M13.331,29.609c1.871-4.397,3.741-8.794,5.611-13.191c0.374-0.879-0.917-1.645-1.295-0.757
			c-1.871,4.397-3.741,8.794-5.611,13.191C11.662,29.732,12.953,30.497,13.331,29.609L13.331,29.609z"/>
	</g>
</g>
<g>
	<g>
		<path d="M12.977,29.954c1.908-0.443,3.816-0.885,5.724-1.328c0.942-0.219,0.542-1.665-0.398-1.446
			c-1.908,0.443-3.816,0.885-5.724,1.328C11.636,28.727,12.036,30.172,12.977,29.954L12.977,29.954z"/>
	</g>
</g>
<g>
	<g>
		<path d="M13.587,33.412c1.908-0.442,3.816-0.885,5.724-1.327c0.942-0.218,0.542-1.665-0.398-1.446
			c-1.908,0.442-3.816,0.885-5.724,1.327C12.246,32.184,12.646,33.63,13.587,33.412L13.587,33.412z"/>
	</g>
</g>
<g>
	<g>
		<path d="M2.075,2.79c5.464,0,10.928,0,16.393,0c0.967,0,0.967-1.5,0-1.5c-5.464,0-10.928,0-16.393,0
			C1.108,1.29,1.108,2.79,2.075,2.79L2.075,2.79z"/>
	</g>
</g>
<g>
	<g>
		<path d="M17.938,1.509c-5.511,4.667-11.022,9.333-16.533,14c-0.739,0.626,0.327,1.682,1.061,1.061
			c5.511-4.667,11.022-9.333,16.533-14C19.737,1.944,18.671,0.888,17.938,1.509L17.938,1.509z"/>
	</g>
</g>
<g>
	<g>
		<path d="M1.935,16.79c5.464,0,10.929,0,16.394,0c0.967,0,0.967-1.5,0-1.5c-5.464,0-10.929,0-16.394,0
			C0.968,15.29,0.968,16.79,1.935,16.79L1.935,16.79z"/>
	</g>
</g>
<rect id="_x3C_Slice_x3E__90_" fill="none" width="19.917" height="33.814"/>
</svg>
