<?xml version="1.0" encoding="utf-8"?>
<!-- Generator: Adobe Illustrator 15.1.0, SVG Export Plug-In  -->
<!DOCTYPE svg PUBLIC "-//W3C//DTD SVG 1.1//EN" "http://www.w3.org/Graphics/SVG/1.1/DTD/svg11.dtd" [
	<!ENTITY ns_flows "http://ns.adobe.com/Flows/1.0/">
]>
<svg version="1.1"
	 xmlns="http://www.w3.org/2000/svg" xmlns:xlink="http://www.w3.org/1999/xlink" xmlns:a="http://ns.adobe.com/AdobeSVGViewerExtensions/3.0/"
	 x="0px" y="0px" width="20px" height="25px" viewBox="0.28 0 20 25" enable-background="new 0.28 0 20 25" xml:space="preserve">
<defs>
</defs>
<g>
	<g>
		<path d="M1.935,9.958c5.464,0,10.928,0,16.393,0c0.967,0,0.967-1.5,0-1.5c-5.464,0-10.928,0-16.393,0
			C0.968,8.458,0.968,9.958,1.935,9.958L1.935,9.958z"/>
	</g>
</g>
<g>
	<g>
		<path d="M17.797,8.678c-5.511,4.667-11.022,9.333-16.533,14c-0.739,0.626,0.327,1.682,1.061,1.061
			c5.511-4.667,11.022-9.333,16.533-14C19.597,9.112,18.531,8.057,17.797,8.678L17.797,8.678z"/>
	</g>
</g>
<g>
	<g>
		<path d="M1.795,23.958c5.464,0,10.929,0,16.394,0c0.967,0,0.967-1.5,0-1.5c-5.464,0-10.929,0-16.394,0
			C0.828,22.458,0.828,23.958,1.795,23.958L1.795,23.958z"/>
	</g>
</g>
<g>
	<g>
		<path d="M13.451,1.542c-0.226,4.189-6.274,4.189-6.5,0c-0.052-0.962-1.552-0.967-1.5,0c0.145,2.688,2.063,4.605,4.75,4.75
			c2.682,0.145,4.617-2.28,4.75-4.75C15.003,0.575,13.503,0.58,13.451,1.542L13.451,1.542z"/>
	</g>
</g>
<rect id="_x3C_Slice_x3E__90_" fill="none" width="19.917" height="24.083"/>
</svg>
