<?xml version="1.0" encoding="utf-8"?>
<!-- Generator: Adobe Illustrator 15.1.0, SVG Export Plug-In  -->
<!DOCTYPE svg PUBLIC "-//W3C//DTD SVG 1.1//EN" "http://www.w3.org/Graphics/SVG/1.1/DTD/svg11.dtd" [
	<!ENTITY ns_flows "http://ns.adobe.com/Flows/1.0/">
]>
<svg version="1.1"
	 xmlns="http://www.w3.org/2000/svg" xmlns:xlink="http://www.w3.org/1999/xlink" xmlns:a="http://ns.adobe.com/AdobeSVGViewerExtensions/3.0/"
	 x="0px" y="0px" width="37px" height="15px" viewBox="0.28 0 37 15" enable-background="new 0.28 0 37 15" xml:space="preserve">
<defs>
</defs>
<g>
	<g>
		<path d="M11.882,13.408c3.478,0,6.956,0,10.434,0c0.967,0,0.967-1.5,0-1.5c-3.478,0-6.956,0-10.434,0
			C10.915,11.908,10.915,13.408,11.882,13.408L11.882,13.408z"/>
	</g>
</g>
<g>
	<g>
		<path d="M17.099,8.818c3.032,0.167,6.064,0.334,9.096,0.501c0.967,0.053,0.962-1.447,0-1.5c-3.032-0.167-6.064-0.334-9.096-0.501
			C16.132,7.265,16.137,8.765,17.099,8.818L17.099,8.818z"/>
	</g>
</g>
<g>
	<g>
		<path d="M1.484,9.679c5.205-0.287,10.41-0.574,15.614-0.86c0.962-0.053,0.967-1.553,0-1.5c-5.205,0.287-10.41,0.574-15.614,0.86
			C0.522,8.232,0.518,9.732,1.484,9.679L1.484,9.679z"/>
	</g>
</g>
<g>
	<g>
		<path d="M18.349,5.347c-0.087,1.613-2.413,1.613-2.5,0C15.762,3.735,18.262,3.743,18.349,5.347c0.052,0.962,1.552,0.967,1.5,0
			c-0.084-1.554-1.196-2.666-2.75-2.75c-1.55-0.083-2.673,1.321-2.75,2.75c-0.083,1.551,1.322,2.673,2.75,2.75
			c1.551,0.083,2.673-1.322,2.75-2.75C19.901,4.38,18.4,4.385,18.349,5.347z"/>
	</g>
</g>
<g>
	<g>
		<path d="M26.319,2.858c1.593,0.021,3.146,0.179,4.692,0.573c0.856,0.218,2.892,0.787,2.995,1.917
			c0.088,0.96-1.934,1.579-2.547,1.785c-1.646,0.553-3.417,0.681-5.141,0.705c-0.967,0.013-0.968,1.513,0,1.5
			c2.627-0.036,8.852-0.328,9.188-3.99c0.118-1.287-1.309-2.212-2.276-2.698c-2.089-1.049-4.614-1.26-6.912-1.292
			C25.352,1.345,25.353,2.845,26.319,2.858L26.319,2.858z"/>
	</g>
</g>
<rect id="_x3C_Slice_x3E__88_" fill="none" width="37" height="15"/>
</svg>
