<?xml version="1.0" encoding="utf-8"?>
<!-- Generator: Adobe Illustrator 15.1.0, SVG Export Plug-In  -->
<!DOCTYPE svg PUBLIC "-//W3C//DTD SVG 1.1//EN" "http://www.w3.org/Graphics/SVG/1.1/DTD/svg11.dtd" [
	<!ENTITY ns_flows "http://ns.adobe.com/Flows/1.0/">
]>
<svg version="1.1"
	 xmlns="http://www.w3.org/2000/svg" xmlns:xlink="http://www.w3.org/1999/xlink" xmlns:a="http://ns.adobe.com/AdobeSVGViewerExtensions/3.0/"
	 x="0px" y="0px" width="34px" height="26px" viewBox="0.28 25 34 26" enable-background="new 0.28 25 34 26" xml:space="preserve">
<defs>
</defs>
<g>
	<g>
		<path d="M3.403,46.308c2.667,0,5.333,0,8,0c0.967,0,0.967-1.5,0-1.5c-2.667,0-5.333,0-8,0C2.436,44.808,2.436,46.308,3.403,46.308
			L3.403,46.308z"/>
	</g>
</g>
<g>
	<g>
		<path d="M12.389,27.529c5.006,6.942,10.012,13.884,15.018,20.826c0.56,0.777,1.862,0.029,1.295-0.757
			c-5.006-6.942-10.012-13.884-15.018-20.826C13.124,25.996,11.821,26.743,12.389,27.529L12.389,27.529z"/>
	</g>
</g>
<g>
	<g>
		<path d="M28.584,48.435c0.889-0.867,1.778-1.734,2.667-2.602c0.693-0.676-0.368-1.736-1.061-1.061
			c-0.889,0.867-1.778,1.734-2.667,2.602C26.831,48.05,27.892,49.11,28.584,48.435L28.584,48.435z"/>
	</g>
</g>
<g>
	<g>
		<path d="M29.918,50.232c0.889-0.867,1.778-1.733,2.667-2.6c0.693-0.676-0.368-1.736-1.061-1.061
			c-0.889,0.867-1.778,1.733-2.667,2.6C28.164,49.848,29.226,50.908,29.918,50.232L29.918,50.232z"/>
	</g>
</g>
<g>
	<g>
		<path d="M12.233,26.952c-1.816,4.905-3.632,9.811-5.447,14.716C6.45,42.577,7.9,42.965,8.232,42.066
			c1.816-4.905,3.632-9.811,5.447-14.716C14.016,26.441,12.566,26.053,12.233,26.952L12.233,26.952z"/>
	</g>
</g>
<g>
	<g>
		<path d="M1.233,27.35c1.815,4.905,3.631,9.811,5.447,14.716c0.333,0.899,1.783,0.511,1.446-0.398
			c-1.815-4.905-3.631-9.811-5.447-14.716C2.347,26.053,0.897,26.441,1.233,27.35L1.233,27.35z"/>
	</g>
</g>
<rect id="_x3C_Slice_x3E__87_" fill="none" width="33.5" height="25.5"/>
<rect id="_x3C_Slice_x3E__86_" y="25.5" fill="none" width="33.5" height="25.5"/>
</svg>
