<?xml version="1.0" encoding="utf-8"?>
<!-- Generator: Adobe Illustrator 15.1.0, SVG Export Plug-In  -->
<!DOCTYPE svg PUBLIC "-//W3C//DTD SVG 1.1//EN" "http://www.w3.org/Graphics/SVG/1.1/DTD/svg11.dtd" [
	<!ENTITY ns_flows "http://ns.adobe.com/Flows/1.0/">
]>
<svg version="1.1"
	 xmlns="http://www.w3.org/2000/svg" xmlns:xlink="http://www.w3.org/1999/xlink" xmlns:a="http://ns.adobe.com/AdobeSVGViewerExtensions/3.0/"
	 x="0px" y="0px" width="44px" height="17px" viewBox="0.28 0 44 17" enable-background="new 0.28 0 44 17" xml:space="preserve">
<defs>
</defs>
<g>
	<g>
		<path d="M13.28,15.06c6,0,12,0,18,0c0.967,0,0.967-1.5,0-1.5c-6,0-12,0-18,0C12.313,13.56,12.313,15.06,13.28,15.06L13.28,15.06z"
			/>
	</g>
</g>
<g>
	<g>
		<path d="M21.902,2.957c6.047,4,12.095,8,18.143,12c0.809,0.536,1.56-0.764,0.757-1.295c-6.047-4-12.095-8-18.143-12
			C21.85,1.126,21.099,2.426,21.902,2.957L21.902,2.957z"/>
	</g>
</g>
<g>
	<g>
		<path d="M4.516,14.957c6.048-4,12.096-8,18.143-12c0.803-0.531,0.052-1.831-0.757-1.295c-6.048,4-12.096,8-18.143,12
			C2.956,14.193,3.707,15.493,4.516,14.957L4.516,14.957z"/>
	</g>
</g>
<rect id="_x3C_Slice_x3E__86_" fill="none" width="44" height="16.476"/>
</svg>
