<?xml version="1.0" encoding="utf-8"?>
<!-- Generator: Adobe Illustrator 15.1.0, SVG Export Plug-In  -->
<!DOCTYPE svg PUBLIC "-//W3C//DTD SVG 1.1//EN" "http://www.w3.org/Graphics/SVG/1.1/DTD/svg11.dtd" [
	<!ENTITY ns_flows "http://ns.adobe.com/Flows/1.0/">
]>
<svg version="1.1"
	 xmlns="http://www.w3.org/2000/svg" xmlns:xlink="http://www.w3.org/1999/xlink" xmlns:a="http://ns.adobe.com/AdobeSVGViewerExtensions/3.0/"
	 x="0px" y="0px" width="19px" height="30px" viewBox="0.28 0 19 30" enable-background="new 0.28 0 19 30" xml:space="preserve">
<defs>
</defs>
<g>
	<g>
		<path d="M4.412,3.496c0,7.055,0,14.111,0,21.166c0,0.967,1.5,0.967,1.5,0c0-7.055,0-14.111,0-21.166
			C5.912,2.529,4.412,2.529,4.412,3.496L4.412,3.496z"/>
	</g>
</g>
<g>
	<g>
		<path d="M5.361,14.907c3.804-1.018,7.607-2.035,11.411-3.052c0.934-0.25,0.537-1.697-0.398-1.446
			c-3.804,1.018-7.607,2.035-11.411,3.052C4.029,13.71,4.425,15.157,5.361,14.907L5.361,14.907z"/>
	</g>
</g>
<g>
	<g>
		<path d="M2.24,29.246c1.948,0,3.896,0,5.845,0c0.967,0,0.967-1.5,0-1.5c-1.948,0-3.896,0-5.845,0
			C1.272,27.746,1.272,29.246,2.24,29.246L2.24,29.246z"/>
	</g>
</g>
<g>
	<g>
		<path d="M12.081,17.543c1.674-1.96,3.348-3.921,5.022-5.881c0.625-0.731-0.432-1.797-1.061-1.061
			c-1.674,1.96-3.348,3.921-5.022,5.881C10.396,17.213,11.452,18.28,12.081,17.543L12.081,17.543z"/>
	</g>
</g>
<polygon stroke="#000000" stroke-miterlimit="10" points="12.052,18.713 9.05,19.513 9.859,16.513 "/>
<rect id="_x3C_Slice_x3E__86_" fill="none" width="19" height="31"/>
</svg>
