<?xml version="1.0" encoding="utf-8"?>
<!-- Generator: Adobe Illustrator 15.1.0, SVG Export Plug-In  -->
<!DOCTYPE svg PUBLIC "-//W3C//DTD SVG 1.1//EN" "http://www.w3.org/Graphics/SVG/1.1/DTD/svg11.dtd" [
	<!ENTITY ns_flows "http://ns.adobe.com/Flows/1.0/">
]>
<svg version="1.1"
	 xmlns="http://www.w3.org/2000/svg" xmlns:xlink="http://www.w3.org/1999/xlink" xmlns:a="http://ns.adobe.com/AdobeSVGViewerExtensions/3.0/"
	 x="0px" y="0px" width="18px" height="22px" viewBox="0.28 0 18 22" enable-background="new 0.28 0 18 22" xml:space="preserve">
<defs>
</defs>
<g>
	<g>
		<path d="M2.019,19.79c4.667,0,9.333,0,14,0c0.967,0,0.967-1.5,0-1.5c-4.667,0-9.333,0-14,0C1.052,18.29,1.052,19.79,2.019,19.79
			L2.019,19.79z"/>
	</g>
</g>
<g>
	<g>
		<path d="M1.489,2.662c4.605,4.605,9.211,9.211,13.816,13.816c0.685,0.685,1.745-0.376,1.061-1.061
			C11.76,10.812,7.155,6.207,2.549,1.601C1.865,0.917,0.804,1.977,1.489,2.662L1.489,2.662z"/>
	</g>
</g>
<g>
	<g>
		<path d="M2.019,2.881c4.667,0,9.333,0,14,0c0.967,0,0.967-1.5,0-1.5c-4.667,0-9.333,0-14,0C1.052,1.381,1.052,2.881,2.019,2.881
			L2.019,2.881z"/>
	</g>
</g>
<rect id="_x3C_Slice_x3E__87_" fill="none" width="18" height="21.178"/>
<rect id="_x3C_Slice_x3E__86_" x="18" fill="none" width="21" height="29"/>
</svg>
