<?xml version="1.0" encoding="utf-8"?>
<!-- Generator: Adobe Illustrator 15.1.0, SVG Export Plug-In  -->
<!DOCTYPE svg PUBLIC "-//W3C//DTD SVG 1.1//EN" "http://www.w3.org/Graphics/SVG/1.1/DTD/svg11.dtd" [
	<!ENTITY ns_flows "http://ns.adobe.com/Flows/1.0/">
]>
<svg version="1.1"
	 xmlns="http://www.w3.org/2000/svg" xmlns:xlink="http://www.w3.org/1999/xlink" xmlns:a="http://ns.adobe.com/AdobeSVGViewerExtensions/3.0/"
	 x="0px" y="0px" width="18px" height="21px" viewBox="0.28 16 18 21" enable-background="new 0.28 16 18 21" xml:space="preserve">
<defs>
</defs>
<g>
	<g>
		<path d="M4.279,35.375c3,0,6,0,9,0c0.967,0,0.967-1.5,0-1.5c-3,0-6,0-9,0C3.312,33.875,3.312,35.375,4.279,35.375L4.279,35.375z"
			/>
	</g>
</g>
<g>
	<g>
		<path d="M1.447,25.803c2.318,1.541,4.636,3.082,6.954,4.623c0.808,0.538,1.558-0.762,0.757-1.295
			c-2.318-1.541-4.636-3.082-6.954-4.623C1.396,23.971,0.646,25.271,1.447,25.803L1.447,25.803z"/>
	</g>
</g>
<g>
	<g>
		<path d="M1.825,25.906c4.667,0,9.333,0,14,0c0.967,0,0.967-1.5,0-1.5c-4.667,0-9.333,0-14,0
			C0.858,24.406,0.858,25.906,1.825,25.906L1.825,25.906z"/>
	</g>
</g>
<g>
	<g>
		<path d="M12.075,17.815c-0.226,4.189-6.274,4.189-6.5,0c-0.052-0.962-1.552-0.967-1.5,0c0.145,2.688,2.063,4.605,4.75,4.75
			c2.682,0.145,4.617-2.28,4.75-4.75C13.627,16.849,12.127,16.854,12.075,17.815L12.075,17.815z"/>
	</g>
</g>
<rect id="_x3C_Slice_x3E__88_" y="16" fill="none" width="18" height="20.649"/>
<rect id="_x3C_Slice_x3E__87_" x="18" fill="none" width="21" height="31"/>
<rect id="_x3C_Slice_x3E__86_" x="18" y="31" fill="none" width="21" height="31"/>
</svg>
