<?xml version="1.0" encoding="utf-8"?>
<!-- Generator: Adobe Illustrator 15.1.0, SVG Export Plug-In  -->
<!DOCTYPE svg PUBLIC "-//W3C//DTD SVG 1.1//EN" "http://www.w3.org/Graphics/SVG/1.1/DTD/svg11.dtd" [
	<!ENTITY ns_flows "http://ns.adobe.com/Flows/1.0/">
]>
<svg version="1.1"
	 xmlns="http://www.w3.org/2000/svg" xmlns:xlink="http://www.w3.org/1999/xlink" xmlns:a="http://ns.adobe.com/AdobeSVGViewerExtensions/3.0/"
	 x="0px" y="0px" width="21px" height="29px" viewBox="0.28 0 21 29" enable-background="new 0.28 0 21 29" xml:space="preserve">
<defs>
</defs>
<g>
	<g>
		<path d="M16.404,2.205c-0.156,2.9-4.344,2.9-4.5,0c-0.052-0.962-1.552-0.967-1.5,0c0.114,2.121,1.629,3.636,3.75,3.75
			c2.116,0.114,3.645-1.801,3.75-3.75C17.957,1.238,16.456,1.243,16.404,2.205L16.404,2.205z"/>
	</g>
</g>
<g>
	<g>
		<path d="M12.803,16.18c0.214-1.985-0.127-6.904,2.74-6.958c2.944-0.056,2.153,5.219,1.981,6.959c-0.095,0.962,1.406,0.954,1.5,0
			c0.301-3.053,0.709-8.137-3.481-8.459c-4.154-0.318-3.953,5.795-4.24,8.458C11.199,17.141,12.7,17.131,12.803,16.18L12.803,16.18z
			"/>
	</g>
</g>
<g>
	<g>
		<path d="M4.833,27.417c0.902-4.414,1.672-8.865,2.855-13.215c0.413-1.516,0.904-3.129,1.933-4.351
			c1.907-2.266,1.957,2.713,1.947,2.913c-0.054,1.139-0.187,2.278-0.265,3.416c-0.066,0.966,1.435,0.959,1.5,0
			c0.142-2.071,1.111-10.42-3.73-7.816c-1.698,0.914-2.34,3.797-2.832,5.439c-1.289,4.305-1.957,8.82-2.855,13.216
			C3.193,27.962,4.639,28.365,4.833,27.417L4.833,27.417z"/>
	</g>
</g>
<g>
	<g>
		<path d="M10.715,19.89c2.333,0,4.667,0,7,0c0.967,0,0.967-1.5,0-1.5c-2.333,0-4.667,0-7,0C9.748,18.39,9.748,19.89,10.715,19.89
			L10.715,19.89z"/>
	</g>
</g>
<rect id="_x3C_Slice_x3E__88_" fill="none" width="21" height="29"/>
<rect id="_x3C_Slice_x3E__87_" x="21" fill="none" width="25" height="25"/>
<rect id="_x3C_Slice_x3E__86_" x="21" y="25" fill="none" width="17" height="22.717"/>
</svg>
