<?xml version="1.0" encoding="utf-8"?>
<!-- Generator: Adobe Illustrator 15.1.0, SVG Export Plug-In  -->
<!DOCTYPE svg PUBLIC "-//W3C//DTD SVG 1.1//EN" "http://www.w3.org/Graphics/SVG/1.1/DTD/svg11.dtd" [
	<!ENTITY ns_flows "http://ns.adobe.com/Flows/1.0/">
]>
<svg version="1.1"
	 xmlns="http://www.w3.org/2000/svg" xmlns:xlink="http://www.w3.org/1999/xlink" xmlns:a="http://ns.adobe.com/AdobeSVGViewerExtensions/3.0/"
	 x="0px" y="0px" width="25px" height="25px" viewBox="0.28 0 25 25" enable-background="new 0.28 0 25 25" xml:space="preserve">
<defs>
</defs>
<g>
	<g>
		<path d="M2.599,21.711c3.9,0,7.801,0,11.701,0c0.967,0,0.967-1.5,0-1.5c-3.9,0-7.801,0-11.701,0
			C1.631,20.211,1.631,21.711,2.599,21.711L2.599,21.711z"/>
	</g>
</g>
<g>
	<g>
		<path d="M9.199,13.663c0-3.9,0-7.801,0-11.701c0-0.967-1.5-0.967-1.5,0c0,3.9,0,7.801,0,11.701
			C7.699,14.63,9.199,14.63,9.199,13.663L9.199,13.663z"/>
	</g>
</g>
<g>
	<g>
		<path d="M8.071,14.31c4.981,2.927,9.963,5.854,14.945,8.78c0.836,0.491,1.59-0.806,0.757-1.295
			c-4.981-2.927-9.963-5.854-14.945-8.78C7.992,12.524,7.237,13.821,8.071,14.31L8.071,14.31z"/>
	</g>
</g>
<rect id="_x3C_Slice_x3E__86_" fill="none" width="25" height="25"/>
</svg>
