<?xml version="1.0" encoding="utf-8"?>
<!-- Generator: Adobe Illustrator 15.1.0, SVG Export Plug-In  -->
<!DOCTYPE svg PUBLIC "-//W3C//DTD SVG 1.1//EN" "http://www.w3.org/Graphics/SVG/1.1/DTD/svg11.dtd" [
	<!ENTITY ns_flows "http://ns.adobe.com/Flows/1.0/">
]>
<svg version="1.1"
	 xmlns="http://www.w3.org/2000/svg" xmlns:xlink="http://www.w3.org/1999/xlink" xmlns:a="http://ns.adobe.com/AdobeSVGViewerExtensions/3.0/"
	 x="0px" y="0px" width="17px" height="24px" viewBox="0.28 0 17 24" enable-background="new 0.28 0 17 24" xml:space="preserve">
<defs>
</defs>
<g>
	<g>
		<path d="M12.958,1.802C9.221,8.408,5.484,15.015,1.747,21.622c-0.477,0.843,0.819,1.599,1.295,0.757
			c3.737-6.606,7.475-13.213,11.211-19.82C14.73,1.716,13.435,0.96,12.958,1.802L12.958,1.802z"/>
	</g>
</g>
<g>
	<g>
		<path d="M7.25,2c0,3.363,0,6.727,0,10.09c0,0.967,1.5,0.967,1.5,0c0-3.363,0-6.727,0-10.09C8.75,1.033,7.25,1.033,7.25,2L7.25,2z"
			/>
	</g>
</g>
<g>
	<g>
		<path d="M8.561,20.295c2.242,0,4.485,0,6.727,0c0.967,0,0.967-1.5,0-1.5c-2.242,0-4.485,0-6.727,0
			C7.593,18.795,7.593,20.295,8.561,20.295L8.561,20.295z"/>
	</g>
</g>
<rect id="_x3C_Slice_x3E__86_" fill="none" width="17" height="24"/>
</svg>
