<?xml version="1.0" encoding="utf-8"?>
<!-- Generator: Adobe Illustrator 15.1.0, SVG Export Plug-In  -->
<!DOCTYPE svg PUBLIC "-//W3C//DTD SVG 1.1//EN" "http://www.w3.org/Graphics/SVG/1.1/DTD/svg11.dtd" [
	<!ENTITY ns_flows "http://ns.adobe.com/Flows/1.0/">
]>
<svg version="1.1"
	 xmlns="http://www.w3.org/2000/svg" xmlns:xlink="http://www.w3.org/1999/xlink" xmlns:a="http://ns.adobe.com/AdobeSVGViewerExtensions/3.0/"
	 x="0px" y="0px" width="16px" height="27px" viewBox="0.28 0 16 27" enable-background="new 0.28 0 16 27" xml:space="preserve">
<defs>
</defs>
<g>
	<g>
		<path d="M6.814,7.455c2.748,2.232,4.739,5.275,5.101,8.852c0.197,1.946-0.55,3.829-2.464,4.564c-2.085,0.802-4.5-0.786-6.062-1.97
			c-0.771-0.585-1.517,0.719-0.757,1.295c3.213,2.436,8.278,3.759,10.318-0.765c2.063-4.574-1.671-10.272-5.076-13.037
			C7.131,5.791,6.063,6.845,6.814,7.455L6.814,7.455z"/>
	</g>
</g>
<path fill="none" stroke="#000000" stroke-width="1.5" stroke-miterlimit="10" d="M7.314,3.667c0,1.044-0.854,1.891-1.913,1.891
	c-1.055,0-1.909-0.846-1.909-1.891c0-1.048,0.854-1.895,1.909-1.895C6.46,1.772,7.314,2.619,7.314,3.667z"/>
<g>
	<g>
		<path d="M7.314,7.675c2.486,0,4.972,0,7.458,0c0.967,0,0.967-1.5,0-1.5c-2.486,0-4.972,0-7.458,0
			C6.347,6.175,6.347,7.675,7.314,7.675L7.314,7.675z"/>
	</g>
</g>
<g>
	<g>
		<path d="M2.904,25.667c3,0,6,0,9,0c0.967,0,0.967-1.5,0-1.5c-3,0-6,0-9,0C1.937,24.167,1.937,25.667,2.904,25.667L2.904,25.667z"
			/>
	</g>
</g>
<rect id="_x3C_Slice_x3E__88_" fill="none" width="16" height="27"/>
</svg>
