<?xml version="1.0" encoding="utf-8"?>
<!-- Generator: Adobe Illustrator 15.1.0, SVG Export Plug-In  -->
<!DOCTYPE svg PUBLIC "-//W3C//DTD SVG 1.1//EN" "http://www.w3.org/Graphics/SVG/1.1/DTD/svg11.dtd" [
	<!ENTITY ns_flows "http://ns.adobe.com/Flows/1.0/">
]>
<svg version="1.1"
	 xmlns="http://www.w3.org/2000/svg" xmlns:xlink="http://www.w3.org/1999/xlink" xmlns:a="http://ns.adobe.com/AdobeSVGViewerExtensions/3.0/"
	 x="0px" y="0px" width="40px" height="25px" viewBox="0.28 0 40 25" enable-background="new 0.28 0 40 25" xml:space="preserve">
<defs>
</defs>
<g>
	<g>
		<path d="M14.18,23.467c4.042,0,8.083,0,12.125,0c0.967,0,0.967-1.5,0-1.5c-4.042,0-8.083,0-12.125,0
			C13.212,21.967,13.212,23.467,14.18,23.467L14.18,23.467z"/>
	</g>
</g>
<g>
	<g>
		<path d="M20.242,10.134c6.048,0.333,12.095,0.667,18.143,1c0.967,0.053,0.962-1.447,0-1.5c-6.048-0.333-12.095-0.667-18.143-1
			C19.275,8.581,19.28,10.081,20.242,10.134L20.242,10.134z"/>
	</g>
</g>
<g>
	<g>
		<path d="M2.099,11.134c6.048-0.333,12.095-0.667,18.143-1c0.962-0.053,0.967-1.553,0-1.5c-6.048,0.333-12.095,0.667-18.143,1
			C1.137,9.687,1.132,11.187,2.099,11.134L2.099,11.134z"/>
	</g>
</g>
<g>
	<g>
		<path d="M22.617,6.222c-0.165,3.062-4.585,3.062-4.75,0C17.702,3.159,22.453,3.175,22.617,6.222c0.052,0.962,1.552,0.967,1.5,0
			c-0.118-2.191-1.684-3.757-3.875-3.875c-2.187-0.118-3.767,1.861-3.875,3.875c-0.118,2.187,1.861,3.767,3.875,3.875
			c2.187,0.118,3.767-1.861,3.875-3.875C24.169,5.255,22.669,5.26,22.617,6.222z"/>
	</g>
</g>
<g>
	<g>
		<path d="M30.664,16.389c2.7-1.786,5.4-3.571,8.1-5.357c0.803-0.531,0.053-1.831-0.757-1.295c-2.7,1.786-5.4,3.571-8.1,5.357
			C29.104,15.625,29.854,16.924,30.664,16.389L30.664,16.389z"/>
	</g>
</g>
<g>
	<g>
		<path d="M2.478,11.007c2.7-1.786,5.4-3.571,8.1-5.357c0.803-0.531,0.053-1.831-0.757-1.295c-2.7,1.786-5.4,3.571-8.1,5.357
			C0.918,10.243,1.668,11.543,2.478,11.007L2.478,11.007z"/>
	</g>
</g>
<rect id="_x3C_Slice_x3E__89_" fill="none" width="40" height="24.267"/>
<rect id="_x3C_Slice_x3E__88_" x="40" y="7" fill="none" width="36.58" height="18.815"/>
</svg>
