<?xml version="1.0" encoding="utf-8"?>
<!-- Generator: Adobe Illustrator 15.1.0, SVG Export Plug-In  -->
<!DOCTYPE svg PUBLIC "-//W3C//DTD SVG 1.1//EN" "http://www.w3.org/Graphics/SVG/1.1/DTD/svg11.dtd" [
	<!ENTITY ns_flows "http://ns.adobe.com/Flows/1.0/">
]>
<svg version="1.1"
	 xmlns="http://www.w3.org/2000/svg" xmlns:xlink="http://www.w3.org/1999/xlink" xmlns:a="http://ns.adobe.com/AdobeSVGViewerExtensions/3.0/"
	 x="0px" y="0px" width="16px" height="30px" viewBox="0.006 0 16 30" enable-background="new 0.006 0 16 30" xml:space="preserve">
<defs>
</defs>
<g>
	<g>
		<path d="M15.027,25.383c-2.673-6.688-5.345-13.376-8.018-20.064c-0.354-0.887-1.806-0.5-1.446,0.398
			c2.672,6.688,5.345,13.376,8.018,20.064C13.935,26.668,15.386,26.282,15.027,25.383L15.027,25.383z"/>
	</g>
</g>
<g>
	<g>
		<path d="M1.917,25.599C4.583,18.927,7.25,12.256,9.916,5.584c0.359-0.899-1.092-1.285-1.446-0.398
			C5.803,11.857,3.137,18.528,0.471,25.2C0.111,26.099,1.563,26.485,1.917,25.599L1.917,25.599z"/>
	</g>
</g>
<g>
	<g>
		<path d="M3.216,29.458c3,0,6,0,9,0c0.967,0,0.967-1.5,0-1.5c-3,0-6,0-9,0C2.249,27.958,2.249,29.458,3.216,29.458L3.216,29.458z"
			/>
	</g>
</g>
<g>
	<g>
		<path d="M6.981,5.229c-0.204-0.6-0.021-1.424,0.735-1.466c0.755-0.042,0.898,0.887,0.753,1.423
			C8.215,6.12,9.662,6.517,9.916,5.584c0.432-1.586-0.475-3.226-2.199-3.321c-1.728-0.096-2.672,1.92-2.182,3.365
			C5.844,6.538,7.293,6.147,6.981,5.229L6.981,5.229z"/>
	</g>
</g>
<rect id="_x3C_Slice_x3E__88_" fill="none" width="15.726" height="30"/>
</svg>
