<?xml version="1.0" encoding="utf-8"?>
<!-- Generator: Adobe Illustrator 15.1.0, SVG Export Plug-In  -->
<!DOCTYPE svg PUBLIC "-//W3C//DTD SVG 1.1//EN" "http://www.w3.org/Graphics/SVG/1.1/DTD/svg11.dtd" [
	<!ENTITY ns_flows "http://ns.adobe.com/Flows/1.0/">
]>
<svg version="1.1"
	 xmlns="http://www.w3.org/2000/svg" xmlns:xlink="http://www.w3.org/1999/xlink" xmlns:a="http://ns.adobe.com/AdobeSVGViewerExtensions/3.0/"
	 x="0px" y="0px" width="25px" height="27px" viewBox="0 -0.688 25 27" enable-background="new 0 -0.688 25 27"
	 xml:space="preserve">
<defs>
</defs>
<g>
	<g>
		<path d="M21.25,11.74c-0.642,11.92-17.858,11.92-18.5,0C2.468,6.509,7.18,2.75,12,2.49C17.231,2.208,20.99,6.919,21.25,11.74
			c0.052,0.962,1.552,0.967,1.5,0C22.422,5.65,18.09,1.318,12,0.99C5.923,0.663,1.551,6.145,1.25,11.74
			C0.923,17.816,6.405,22.188,12,22.49c6.077,0.327,10.449-5.154,10.75-10.75C22.802,10.773,21.302,10.778,21.25,11.74z"/>
	</g>
</g>
<g>
	<g>
		<path d="M4,25.865c5.333,0,10.667,0,16,0c0.967,0,0.967-1.5,0-1.5c-5.333,0-10.667,0-16,0C3.033,24.365,3.033,25.865,4,25.865
			L4,25.865z"/>
	</g>
</g>
<rect id="_x3C_Slice_x3E__86_" fill="none" width="24" height="26.675"/>
</svg>
