<?xml version="1.0" encoding="utf-8"?>
<!-- Generator: Adobe Illustrator 15.1.0, SVG Export Plug-In  -->
<!DOCTYPE svg PUBLIC "-//W3C//DTD SVG 1.1//EN" "http://www.w3.org/Graphics/SVG/1.1/DTD/svg11.dtd" [
	<!ENTITY ns_flows "http://ns.adobe.com/Flows/1.0/">
]>
<svg version="1.1"
	 xmlns="http://www.w3.org/2000/svg" xmlns:xlink="http://www.w3.org/1999/xlink" xmlns:a="http://ns.adobe.com/AdobeSVGViewerExtensions/3.0/"
	 x="0px" y="0px" width="18px" height="23px" viewBox="0.28 22 18 23" enable-background="new 0.28 22 18 23" xml:space="preserve">
<defs>
</defs>
<g>
	<g>
		<path d="M2.019,42.968c4.667,0,9.333,0,14,0c0.967,0,0.967-1.5,0-1.5c-4.667,0-9.333,0-14,0
			C1.052,41.468,1.052,42.968,2.019,42.968L2.019,42.968z"/>
	</g>
</g>
<g>
	<g>
		<path d="M2.549,38.656c4.605-4.605,9.211-9.211,13.816-13.816c0.685-0.685-0.376-1.745-1.061-1.061
			C10.7,28.385,6.094,32.99,1.489,37.596C0.804,38.28,1.865,39.341,2.549,38.656L2.549,38.656z"/>
	</g>
</g>
<g>
	<g>
		<path d="M2.019,38.876c4.667,0,9.333,0,14,0c0.967,0,0.967-1.5,0-1.5c-4.667,0-9.333,0-14,0
			C1.052,37.376,1.052,38.876,2.019,38.876L2.019,38.876z"/>
	</g>
</g>
<rect id="_x3C_Slice_x3E__88_" y="22" fill="none" width="18" height="23"/>
<rect id="_x3C_Slice_x3E__87_" x="18" fill="none" width="21" height="29"/>
<rect id="_x3C_Slice_x3E__86_" x="18" y="29" fill="none" width="21" height="31"/>
</svg>
