<?xml version="1.0" encoding="utf-8"?>
<!-- Generator: Adobe Illustrator 15.1.0, SVG Export Plug-In  -->
<!DOCTYPE svg PUBLIC "-//W3C//DTD SVG 1.1//EN" "http://www.w3.org/Graphics/SVG/1.1/DTD/svg11.dtd" [
	<!ENTITY ns_flows "http://ns.adobe.com/Flows/1.0/">
]>
<svg version="1.1"
	 xmlns="http://www.w3.org/2000/svg" xmlns:xlink="http://www.w3.org/1999/xlink" xmlns:a="http://ns.adobe.com/AdobeSVGViewerExtensions/3.0/"
	 x="0px" y="0px" width="21px" height="31px" viewBox="0.28 4 21 31" enable-background="new 0.28 4 21 31" xml:space="preserve">
<defs>
</defs>
<g>
	<g>
		<path d="M12.803,22.09c0.214-1.985-0.127-6.904,2.74-6.958c2.944-0.056,2.153,5.219,1.981,6.959c-0.095,0.962,1.406,0.954,1.5,0
			c0.301-3.053,0.709-8.137-3.481-8.459c-4.154-0.318-3.953,5.795-4.24,8.458C11.199,23.051,12.7,23.042,12.803,22.09L12.803,22.09z
			"/>
	</g>
</g>
<g>
	<g>
		<path d="M4.833,33.327c0.902-4.414,1.672-8.865,2.855-13.215c0.413-1.516,0.904-3.129,1.933-4.351
			c1.907-2.266,1.957,2.713,1.947,2.913c-0.054,1.139-0.187,2.278-0.265,3.416c-0.066,0.966,1.435,0.959,1.5,0
			c0.142-2.071,1.111-10.42-3.73-7.816c-1.698,0.914-2.34,3.797-2.832,5.439c-1.289,4.305-1.957,8.82-2.855,13.216
			C3.193,33.873,4.639,34.275,4.833,33.327L4.833,33.327z"/>
	</g>
</g>
<g>
	<g>
		<path d="M10.149,25.8c2.333,0,4.667,0,7,0c0.967,0,0.967-1.5,0-1.5c-2.333,0-4.667,0-7,0C9.182,24.3,9.182,25.8,10.149,25.8
			L10.149,25.8z"/>
	</g>
</g>
<path fill="none" stroke="#000000" stroke-width="1.5" stroke-miterlimit="10" d="M17.217,8.211c0,1.639-1.343,2.969-3.002,2.969
	c-1.655,0-2.998-1.33-2.998-2.969c0-1.643,1.343-2.973,2.998-2.973C15.874,5.238,17.217,6.568,17.217,8.211z"/>
<rect id="_x3C_Slice_x3E__88_" y="4" fill="none" width="21" height="31"/>
<rect id="_x3C_Slice_x3E__87_" x="21" fill="none" width="17" height="22.717"/>
<rect id="_x3C_Slice_x3E__86_" x="21" y="23" fill="none" width="33.5" height="25.5"/>
</svg>
