<?xml version="1.0" encoding="utf-8"?>
<!-- Generator: Adobe Illustrator 15.1.0, SVG Export Plug-In  -->
<!DOCTYPE svg PUBLIC "-//W3C//DTD SVG 1.1//EN" "http://www.w3.org/Graphics/SVG/1.1/DTD/svg11.dtd" [
	<!ENTITY ns_flows "http://ns.adobe.com/Flows/1.0/">
]>
<svg version="1.1"
	 xmlns="http://www.w3.org/2000/svg" xmlns:xlink="http://www.w3.org/1999/xlink" xmlns:a="http://ns.adobe.com/AdobeSVGViewerExtensions/3.0/"
	 x="0px" y="0px" width="17px" height="27px" viewBox="0.28 0 17 27" enable-background="new 0.28 0 17 27" xml:space="preserve">
<defs>
</defs>
<g>
	<g>
		<path d="M12.118,3.528C8.38,10.135,4.643,16.741,0.906,23.348c-0.477,0.843,0.819,1.599,1.295,0.757
			c3.737-6.606,7.475-13.213,11.211-19.82C13.89,3.442,12.594,2.687,12.118,3.528L12.118,3.528z"/>
	</g>
</g>
<g>
	<g>
		<path d="M6.409,3.727c0,3.363,0,6.727,0,10.09c0,0.967,1.5,0.967,1.5,0c0-3.363,0-6.727,0-10.09
			C7.909,2.759,6.409,2.759,6.409,3.727L6.409,3.727z"/>
	</g>
</g>
<g>
	<g>
		<path d="M7.72,22.022c2.242,0,4.485,0,6.727,0c0.967,0,0.967-1.5,0-1.5c-2.242,0-4.485,0-6.727,0
			C6.752,20.522,6.752,22.022,7.72,22.022L7.72,22.022z"/>
	</g>
</g>
<rect id="_x3C_Slice_x3E__86_" fill="none" width="17" height="26.05"/>
</svg>
