<?xml version="1.0" encoding="utf-8"?>
<!-- Generator: Adobe Illustrator 15.1.0, SVG Export Plug-In  -->
<!DOCTYPE svg PUBLIC "-//W3C//DTD SVG 1.1//EN" "http://www.w3.org/Graphics/SVG/1.1/DTD/svg11.dtd" [
	<!ENTITY ns_flows "http://ns.adobe.com/Flows/1.0/">
]>
<svg version="1.1"
	 xmlns="http://www.w3.org/2000/svg" xmlns:xlink="http://www.w3.org/1999/xlink" xmlns:a="http://ns.adobe.com/AdobeSVGViewerExtensions/3.0/"
	 x="0px" y="0px" width="17px" height="23px" viewBox="0.28 0 17 23" enable-background="new 0.28 0 17 23" xml:space="preserve">
<defs>
</defs>
<g>
	<g>
		<path d="M2.437,21.986c3.9,0,7.801,0,11.701,0c0.967,0,0.967-1.5,0-1.5c-3.9,0-7.801,0-11.701,0
			C1.47,20.486,1.47,21.986,2.437,21.986L2.437,21.986z"/>
	</g>
</g>
<g>
	<g>
		<path d="M14.064,1.037c-2.167,5.853-4.333,11.707-6.5,17.56c-0.336,0.909,1.114,1.297,1.446,0.398
			c2.167-5.853,4.333-11.707,6.5-17.56C15.847,0.526,14.397,0.138,14.064,1.037L14.064,1.037z"/>
	</g>
</g>
<g>
	<g>
		<path d="M0.938,1.435c2.167,5.854,4.333,11.707,6.5,17.56c0.333,0.899,1.783,0.511,1.446-0.398
			c-2.167-5.854-4.333-11.707-6.5-17.56C2.052,0.138,0.602,0.526,0.938,1.435L0.938,1.435z"/>
	</g>
</g>
<rect id="_x3C_Slice_x3E__86_" fill="none" width="17" height="22.717"/>
</svg>
