<?xml version="1.0" encoding="utf-8"?>
<!-- Generator: Adobe Illustrator 15.1.0, SVG Export Plug-In  -->
<!DOCTYPE svg PUBLIC "-//W3C//DTD SVG 1.1//EN" "http://www.w3.org/Graphics/SVG/1.1/DTD/svg11.dtd" [
	<!ENTITY ns_flows "http://ns.adobe.com/Flows/1.0/">
]>
<svg version="1.1"
	 xmlns="http://www.w3.org/2000/svg" xmlns:xlink="http://www.w3.org/1999/xlink" xmlns:a="http://ns.adobe.com/AdobeSVGViewerExtensions/3.0/"
	 x="0px" y="0px" width="37px" height="13px" viewBox="0.28 0 37 13" enable-background="new 0.28 0 37 13" xml:space="preserve">
<defs>
</defs>
<g>
	<g>
		<path d="M13.864,11.94c3.478,0,6.956,0,10.434,0c0.967,0,0.967-1.5,0-1.5c-3.478,0-6.956,0-10.434,0
			C12.897,10.44,12.897,11.94,13.864,11.94L13.864,11.94z"/>
	</g>
</g>
<g>
	<g>
		<path d="M19.081,7.351c5.205,0.287,10.41,0.574,15.614,0.86c0.967,0.053,0.962-1.447,0-1.5c-5.205-0.287-10.41-0.574-15.614-0.86
			C18.114,5.797,18.119,7.297,19.081,7.351L19.081,7.351z"/>
	</g>
</g>
<g>
	<g>
		<path d="M3.467,8.211c5.205-0.287,10.41-0.574,15.614-0.86c0.962-0.053,0.967-1.553,0-1.5c-5.205,0.287-10.41,0.574-15.614,0.86
			C2.505,6.764,2.5,8.264,3.467,8.211L3.467,8.211z"/>
	</g>
</g>
<g>
	<g>
		<path d="M20.331,3.879c-0.087,1.613-2.413,1.613-2.5,0C17.744,2.267,20.245,2.275,20.331,3.879c0.052,0.962,1.552,0.967,1.5,0
			c-0.084-1.554-1.196-2.666-2.75-2.75c-1.55-0.083-2.673,1.321-2.75,2.75c-0.083,1.551,1.322,2.673,2.75,2.75
			c1.551,0.083,2.673-1.322,2.75-2.75C21.883,2.913,20.383,2.917,20.331,3.879z"/>
	</g>
</g>
<rect id="_x3C_Slice_x3E__88_" fill="none" width="37" height="13"/>
</svg>
