<?xml version="1.0" encoding="utf-8"?>
<!-- Generator: Adobe Illustrator 15.1.0, SVG Export Plug-In  -->
<!DOCTYPE svg PUBLIC "-//W3C//DTD SVG 1.1//EN" "http://www.w3.org/Graphics/SVG/1.1/DTD/svg11.dtd" [
	<!ENTITY ns_flows "http://ns.adobe.com/Flows/1.0/">
]>
<svg version="1.1"
	 xmlns="http://www.w3.org/2000/svg" xmlns:xlink="http://www.w3.org/1999/xlink" xmlns:a="http://ns.adobe.com/AdobeSVGViewerExtensions/3.0/"
	 x="0px" y="0px" width="45px" height="25px" viewBox="-0.236 -0.218 45 25" enable-background="new -0.236 -0.218 45 25"
	 xml:space="preserve">
<defs>
</defs>
<g>
	<g>
		<path d="M16.218,22.724c4.042,0,8.083,0,12.125,0c0.967,0,0.967-1.5,0-1.5c-4.042,0-8.083,0-12.125,0
			C15.25,21.224,15.25,22.724,16.218,22.724L16.218,22.724z"/>
	</g>
</g>
<g>
	<g>
		<path d="M22.28,17.391c6.048,0.333,12.095,0.667,18.143,1c0.967,0.053,0.962-1.447,0-1.5c-6.048-0.333-12.095-0.667-18.143-1
			C21.313,15.838,21.318,17.338,22.28,17.391L22.28,17.391z"/>
	</g>
</g>
<g>
	<g>
		<path d="M4.137,18.391c6.048-0.333,12.095-0.667,18.143-1c0.962-0.053,0.967-1.553,0-1.5c-6.048,0.333-12.095,0.667-18.143,1
			C3.175,16.944,3.17,18.444,4.137,18.391L4.137,18.391z"/>
	</g>
</g>
<g>
	<g>
		<path d="M24.655,13.479c-0.165,3.062-4.585,3.062-4.75,0C19.74,10.417,24.491,10.433,24.655,13.479c0.052,0.962,1.552,0.967,1.5,0
			c-0.118-2.191-1.684-3.757-3.875-3.875c-2.187-0.118-3.767,1.861-3.875,3.875c-0.118,2.187,1.861,3.767,3.875,3.875
			c2.187,0.118,3.767-1.861,3.875-3.875C26.208,12.513,24.707,12.518,24.655,13.479z"/>
	</g>
</g>
<g>
	<g>
		<path d="M26.405,1.363c-0.286,5.316-7.964,5.316-8.25,0c-0.052-0.962-1.552-0.967-1.5,0c0.171,3.184,2.441,5.454,5.625,5.625
			c3.177,0.171,5.468-2.699,5.625-5.625C27.958,0.396,26.457,0.401,26.405,1.363L26.405,1.363z"/>
	</g>
</g>
<g>
	<g>
		<path d="M17.305,7.612c1.587-1.521,3.174-3.042,4.761-4.564c0.7-0.67-0.363-1.729-1.061-1.061
			c-1.587,1.521-3.174,3.042-4.761,4.564C15.545,7.222,16.607,8.281,17.305,7.612L17.305,7.612z"/>
	</g>
</g>
<rect id="_x3C_Slice_x3E__90_" fill="none" width="44" height="24"/>
</svg>
