<?xml version="1.0" encoding="utf-8"?>
<!-- Generator: Adobe Illustrator 15.1.0, SVG Export Plug-In  -->
<!DOCTYPE svg PUBLIC "-//W3C//DTD SVG 1.1//EN" "http://www.w3.org/Graphics/SVG/1.1/DTD/svg11.dtd" [
	<!ENTITY ns_flows "http://ns.adobe.com/Flows/1.0/">
]>
<svg version="1.1"
	 xmlns="http://www.w3.org/2000/svg" xmlns:xlink="http://www.w3.org/1999/xlink" xmlns:a="http://ns.adobe.com/AdobeSVGViewerExtensions/3.0/"
	 x="0px" y="0px" width="36px" height="23px" viewBox="0.28 -0.769 36 23" enable-background="new 0.28 -0.769 36 23"
	 xml:space="preserve">
<defs>
</defs>
<g>
	<g>
		<path d="M26.147,4.086C23.012,0.153,13.335,0.24,13.39,6.607c0.042,4.993,8.288,7.994,11.425,4.146
			c0.261-0.32,0.307-0.745,0-1.061c-3.553-3.657-12.82-0.906-10.673,4.995c1.484,4.082,10.419,5.7,12.994,2.018
			c0.556-0.795-0.745-1.543-1.295-0.757c-1.854,2.651-8.047,0.846-9.798-0.976c-3.684-3.832,4.883-7.13,7.711-4.22
			c0-0.354,0-0.707,0-1.061c-2.46,3.017-8.399,0.521-8.864-3.085c-0.668-5.175,8.153-4.024,10.197-1.461
			C25.689,5.903,26.744,4.834,26.147,4.086L26.147,4.086z"/>
	</g>
</g>
<g>
	<g>
		<path d="M13.59,4.632c-3.262,5.012-5.521,10.645-9.238,15.361c-0.592,0.75,0.462,1.82,1.061,1.061
			c3.803-4.825,6.137-10.539,9.472-15.665C15.414,4.575,14.115,3.824,13.59,4.632L13.59,4.632z"/>
	</g>
</g>
<g>
	<g>
		<path d="M27.256,16.538c1.928-3.531,3.855-7.063,5.782-10.595c0.464-0.849-0.832-1.606-1.295-0.757
			c-1.928,3.531-3.855,7.063-5.782,10.595C25.497,16.63,26.792,17.387,27.256,16.538L27.256,16.538z"/>
	</g>
</g>
<g>
	<g>
		<path d="M29.005,18.014c1.957-3.585,3.914-7.171,5.871-10.757c0.464-0.849-0.832-1.606-1.295-0.757
			c-1.957,3.585-3.914,7.171-5.871,10.757C27.247,18.106,28.542,18.863,29.005,18.014L29.005,18.014z"/>
	</g>
</g>
<rect id="_x3C_Slice_x3E__86_" fill="none" width="36" height="21.788"/>
</svg>
