<?xml version="1.0" encoding="utf-8"?>
<!-- Generator: Adobe Illustrator 15.1.0, SVG Export Plug-In  -->
<!DOCTYPE svg PUBLIC "-//W3C//DTD SVG 1.1//EN" "http://www.w3.org/Graphics/SVG/1.1/DTD/svg11.dtd" [
	<!ENTITY ns_flows "http://ns.adobe.com/Flows/1.0/">
]>
<svg version="1.1"
	 xmlns="http://www.w3.org/2000/svg" xmlns:xlink="http://www.w3.org/1999/xlink" xmlns:a="http://ns.adobe.com/AdobeSVGViewerExtensions/3.0/"
	 x="0px" y="0px" width="22px" height="22px" viewBox="0.28 0 22 22" enable-background="new 0.28 0 22 22" xml:space="preserve">
<defs>
</defs>
<g>
	<g>
		<path d="M19.087,1.855C13.195,7.748,7.302,13.64,1.41,19.533c-0.685,0.685,0.376,1.745,1.061,1.061
			C8.363,14.701,14.255,8.808,20.148,2.916C20.833,2.231,19.772,1.17,19.087,1.855L19.087,1.855z"/>
	</g>
</g>
<g>
	<g>
		<path d="M10.029,2.224c-0.226,4.189-6.274,4.189-6.5,0c-0.052-0.962-1.552-0.967-1.5,0c0.145,2.688,2.063,4.605,4.75,4.75
			c2.682,0.145,4.617-2.28,4.75-4.75C11.581,1.257,10.081,1.262,10.029,2.224L10.029,2.224z"/>
	</g>
</g>
<g>
	<g>
		<path d="M10.029,2.224c0,3,0,6,0,9c0,0.967,1.5,0.967,1.5,0c0-3,0-6,0-9C11.529,1.257,10.029,1.257,10.029,2.224L10.029,2.224z"/>
	</g>
</g>
<g>
	<g>
		<path d="M11.279,15.624c2,0,4,0,6,0c0.967,0,0.967-1.5,0-1.5c-2,0-4,0-6,0C10.312,14.124,10.312,15.624,11.279,15.624
			L11.279,15.624z"/>
	</g>
</g>
<rect id="_x3C_Slice_x3E__86_" fill="none" width="22" height="22"/>
</svg>
