<?xml version="1.0" encoding="utf-8"?>
<!-- Generator: Adobe Illustrator 15.1.0, SVG Export Plug-In  -->
<!DOCTYPE svg PUBLIC "-//W3C//DTD SVG 1.1//EN" "http://www.w3.org/Graphics/SVG/1.1/DTD/svg11.dtd" [
	<!ENTITY ns_flows "http://ns.adobe.com/Flows/1.0/">
]>
<svg version="1.1"
	 xmlns="http://www.w3.org/2000/svg" xmlns:xlink="http://www.w3.org/1999/xlink" xmlns:a="http://ns.adobe.com/AdobeSVGViewerExtensions/3.0/"
	 x="0px" y="0px" width="34px" height="25px" viewBox="0.28 0 34 25" enable-background="new 0.28 0 34 25" xml:space="preserve">
<defs>
</defs>
<g>
	<g>
		<path d="M2.171,13.331c0-4.021,0-8.042,0-12.064c0-0.967-1.5-0.967-1.5,0c0,4.021,0,8.042,0,12.064
			C0.671,14.298,2.171,14.298,2.171,13.331L2.171,13.331z"/>
	</g>
</g>
<g>
	<g>
		<path d="M0.891,1.797C4.325,5.853,7.76,9.909,11.194,13.965c0.626,0.739,1.682-0.327,1.061-1.061
			C8.82,8.849,5.386,4.792,1.952,0.737C1.326-0.002,0.27,1.064,0.891,1.797L0.891,1.797z"/>
	</g>
</g>
<g>
	<g>
		<path d="M2,19.007c3.363,0,6.726,0,10.089,0c0.967,0,0.967-1.5,0-1.5c-3.363,0-6.726,0-10.089,0
			C1.033,17.507,1.033,19.007,2,19.007L2,19.007z"/>
	</g>
</g>
<g>
	<g>
		<path d="M12.474,13.435c0-4.021,0-8.043,0-12.065c0-0.967-1.5-0.967-1.5,0c0,4.021,0,8.043,0,12.065
			C10.974,14.402,12.474,14.402,12.474,13.435L12.474,13.435z"/>
	</g>
</g>
<g>
	<g>
		<path d="M11.077,1.646c5.006,6.942,10.012,13.884,15.018,20.826c0.56,0.777,1.862,0.029,1.295-0.757
			C22.384,14.772,17.378,7.831,12.372,0.889C11.812,0.112,10.51,0.859,11.077,1.646L11.077,1.646z"/>
	</g>
</g>
<g>
	<g>
		<path d="M27.272,22.551c0.889-0.867,1.778-1.734,2.667-2.602c0.693-0.676-0.368-1.736-1.061-1.061
			c-0.889,0.867-1.778,1.734-2.667,2.602C25.519,22.167,26.58,23.227,27.272,22.551L27.272,22.551z"/>
	</g>
</g>
<g>
	<g>
		<path d="M28.606,24.349c0.889-0.867,1.778-1.733,2.667-2.6c0.693-0.676-0.368-1.736-1.061-1.061
			c-0.889,0.867-1.778,1.733-2.667,2.6C26.852,23.964,27.914,25.024,28.606,24.349L28.606,24.349z"/>
	</g>
</g>
<rect id="_x3C_Slice_x3E__86_" fill="none" width="33.5" height="25.5"/>
</svg>
