<?xml version="1.0" encoding="utf-8"?>
<!-- Generator: Adobe Illustrator 15.1.0, SVG Export Plug-In  -->
<!DOCTYPE svg PUBLIC "-//W3C//DTD SVG 1.1//EN" "http://www.w3.org/Graphics/SVG/1.1/DTD/svg11.dtd" [
	<!ENTITY ns_flows "http://ns.adobe.com/Flows/1.0/">
]>
<svg version="1.1"
	 xmlns="http://www.w3.org/2000/svg" xmlns:xlink="http://www.w3.org/1999/xlink" xmlns:a="http://ns.adobe.com/AdobeSVGViewerExtensions/3.0/"
	 x="0px" y="0px" width="33px" height="38px" viewBox="0.28 0 33 38" enable-background="new 0.28 0 33 38" xml:space="preserve">
<defs>
</defs>
<g>
	<g>
		<path d="M13.633,16.843c-1.816,4-3.632,8-5.447,12C7.789,29.717,9.081,30.48,9.48,29.6c1.816-4,3.632-8,5.447-12
			C15.324,16.727,14.032,15.963,13.633,16.843L13.633,16.843z"/>
	</g>
</g>
<g>
	<g>
		<path d="M2.633,17.6c1.815,4,3.631,8,5.447,12c0.399,0.88,1.692,0.117,1.295-0.757c-1.815-4-3.631-8-5.447-12
			C3.528,15.963,2.236,16.727,2.633,17.6L2.633,17.6z"/>
	</g>
</g>
<g>
	<g>
		<path d="M28.677,3.319c-3.171,8.567-6.343,17.135-9.514,25.703c-0.336,0.909,1.114,1.297,1.446,0.398
			c3.171-8.567,6.343-17.135,9.514-25.703C30.459,2.809,29.009,2.42,28.677,3.319L28.677,3.319z"/>
	</g>
</g>
<g>
	<g>
		<path d="M13.685,17.6c1.815,4,3.631,8,5.447,12c0.399,0.88,1.691,0.117,1.295-0.757c-1.815-4-3.631-8-5.447-12
			C14.581,15.963,13.288,16.727,13.685,17.6L13.685,17.6z"/>
	</g>
</g>
<g>
	<g>
		<path d="M8.482,35.266c3.9,0,7.801,0,11.701,0c0.967,0,0.967-1.5,0-1.5c-3.9,0-7.801,0-11.701,0
			C7.515,33.766,7.515,35.266,8.482,35.266L8.482,35.266z"/>
	</g>
</g>
<path fill="none" stroke="#000000" stroke-width="1.5" stroke-miterlimit="10" d="M17.333,6.791c0,1.639-1.343,2.969-3.002,2.969
	c-1.655,0-2.998-1.33-2.998-2.969c0-1.643,1.343-2.973,2.998-2.973C15.99,3.818,17.333,5.148,17.333,6.791z"/>
<rect id="_x3C_Slice_x3E__86_" fill="none" width="32.92" height="37.428"/>
</svg>
