<?xml version="1.0" encoding="utf-8"?>
<!-- Generator: Adobe Illustrator 15.1.0, SVG Export Plug-In  -->
<!DOCTYPE svg PUBLIC "-//W3C//DTD SVG 1.1//EN" "http://www.w3.org/Graphics/SVG/1.1/DTD/svg11.dtd" [
	<!ENTITY ns_flows "http://ns.adobe.com/Flows/1.0/">
]>
<svg version="1.1"
	 xmlns="http://www.w3.org/2000/svg" xmlns:xlink="http://www.w3.org/1999/xlink" xmlns:a="http://ns.adobe.com/AdobeSVGViewerExtensions/3.0/"
	 x="0px" y="0px" width="20px" height="25px" viewBox="0.28 0 20 25" enable-background="new 0.28 0 20 25" xml:space="preserve">
<defs>
</defs>
<g>
	<g>
		<path d="M9.9,14.653c1.889-1.692,3.778-3.383,5.667-5.075c0.722-0.646-0.342-1.704-1.061-1.061
			c-1.889,1.692-3.778,3.383-5.667,5.075C8.117,14.239,9.182,15.296,9.9,14.653L9.9,14.653z"/>
	</g>
</g>
<g>
	<g>
		<path d="M1.915,23.569c2.662-2.972,5.323-5.944,7.985-8.917c0.643-0.718-0.414-1.783-1.061-1.061
			c-2.662,2.972-5.323,5.944-7.985,8.917C0.211,23.227,1.269,24.292,1.915,23.569L1.915,23.569z"/>
	</g>
</g>
<g>
	<g>
		<path d="M8.824,11.722c1.142,1.243-0.611,3-1.851,1.851C5.731,12.421,7.584,10.585,8.824,11.722
			c0.711,0.652,1.775-0.406,1.061-1.061c-1.158-1.062-2.814-1.066-3.972,0c-1.156,1.064-1.006,2.888,0,3.972
			c1.07,1.154,2.881,1.006,3.972,0c1.156-1.066,0.999-2.884,0-3.972C9.229,9.947,8.171,11.011,8.824,11.722z"/>
	</g>
</g>
<g>
	<g>
		<path d="M11.52,5.642c0.889-0.862,1.835-1.61,2.918-2.213c0.619-0.345,2.002-1.02,2.674-0.448c0.576,0.49-0.052,1.843-0.281,2.347
			c-0.558,1.229-1.449,2.287-2.38,3.247c-0.674,0.694,0.386,1.756,1.061,1.061c1.613-1.663,4.683-5.338,2.661-7.714
			c-0.726-0.853-2.107-0.669-3.043-0.405c-1.79,0.503-3.363,1.798-4.671,3.066C9.764,5.255,10.826,6.315,11.52,5.642L11.52,5.642z"
			/>
	</g>
</g>
<g>
	<g>
		<path d="M5.768,22.451c1.977,0,3.954,0,5.93,0c0.967,0,0.967-1.5,0-1.5c-1.977,0-3.954,0-5.93,0
			C4.8,20.951,4.8,22.451,5.768,22.451L5.768,22.451z"/>
	</g>
</g>
<rect id="_x3C_Slice_x3E__86_" fill="none" width="19.5" height="24.874"/>
</svg>
