<?xml version="1.0" encoding="utf-8"?>
<!-- Generator: Adobe Illustrator 15.1.0, SVG Export Plug-In  -->
<!DOCTYPE svg PUBLIC "-//W3C//DTD SVG 1.1//EN" "http://www.w3.org/Graphics/SVG/1.1/DTD/svg11.dtd" [
	<!ENTITY ns_flows "http://ns.adobe.com/Flows/1.0/">
]>
<svg version="1.1"
	 xmlns="http://www.w3.org/2000/svg" xmlns:xlink="http://www.w3.org/1999/xlink" xmlns:a="http://ns.adobe.com/AdobeSVGViewerExtensions/3.0/"
	 x="0px" y="0px" width="38px" height="17px" viewBox="0.28 -0.787 38 17" enable-background="new 0.28 -0.787 38 17"
	 xml:space="preserve">
<defs>
</defs>
<g>
	<g>
		<path d="M15.935,14.628c3,0,6,0,9,0c0.967,0,0.967-1.5,0-1.5c-3,0-6,0-9,0C14.967,13.128,14.967,14.628,15.935,14.628
			L15.935,14.628z"/>
	</g>
</g>
<g>
	<g>
		<path d="M20.435,7.656c5.205,0.287,10.41,0.574,15.614,0.86c0.967,0.053,0.962-1.447,0-1.5c-5.205-0.287-10.41-0.574-15.614-0.86
			C19.468,6.103,19.473,7.603,20.435,7.656L20.435,7.656z"/>
	</g>
</g>
<g>
	<g>
		<path d="M8.041,8.339c4.131-0.228,8.262-0.456,12.394-0.683c0.962-0.053,0.967-1.553,0-1.5c-4.131,0.228-8.262,0.456-12.394,0.683
			C7.079,6.893,7.074,8.393,8.041,8.339L8.041,8.339z"/>
	</g>
</g>
<g>
	<g>
		<path d="M21.685,4.185c-0.087,1.613-2.413,1.613-2.5,0C19.098,2.573,21.598,2.581,21.685,4.185c0.052,0.962,1.552,0.967,1.5,0
			c-0.084-1.554-1.196-2.666-2.75-2.75c-1.55-0.083-2.673,1.321-2.75,2.75c-0.083,1.551,1.322,2.673,2.75,2.75
			c1.551,0.083,2.673-1.322,2.75-2.75C23.237,3.218,21.736,3.223,21.685,4.185z"/>
	</g>
</g>
<g>
	<g>
		<path d="M7.31,7.767c-0.067,1.445-0.971,2.684-2.489,2.767c-1.515,0.083-2.428-1.446-2.49-2.767c-0.045-0.963-1.545-0.967-1.5,0
			c0.107,2.296,1.631,4.137,3.99,4.267c2.354,0.129,3.892-2.168,3.989-4.267C8.855,6.799,7.355,6.804,7.31,7.767L7.31,7.767z"/>
	</g>
</g>
<rect id="_x3C_Slice_x3E__90_" fill="none" width="38" height="16.173"/>
</svg>
