<?xml version="1.0" encoding="utf-8"?>
<!-- Generator: Adobe Illustrator 15.1.0, SVG Export Plug-In  -->
<!DOCTYPE svg PUBLIC "-//W3C//DTD SVG 1.1//EN" "http://www.w3.org/Graphics/SVG/1.1/DTD/svg11.dtd" [
	<!ENTITY ns_flows "http://ns.adobe.com/Flows/1.0/">
]>
<svg version="1.1"
	 xmlns="http://www.w3.org/2000/svg" xmlns:xlink="http://www.w3.org/1999/xlink" xmlns:a="http://ns.adobe.com/AdobeSVGViewerExtensions/3.0/"
	 x="0px" y="0px" width="17px" height="20px" viewBox="0.28 0 17 20" enable-background="new 0.28 0 17 20" xml:space="preserve">
<defs>
</defs>
<g>
	<g>
		<path d="M14.506,0.915c-2.167,5.854-4.333,11.707-6.5,17.561c-0.336,0.909,1.114,1.297,1.446,0.398
			c2.167-5.854,4.333-11.707,6.5-17.561C16.289,0.404,14.839,0.016,14.506,0.915L14.506,0.915z"/>
	</g>
</g>
<g>
	<g>
		<path d="M1.38,1.313c2.167,5.854,4.333,11.707,6.5,17.561c0.333,0.899,1.783,0.511,1.446-0.398
			C7.16,12.622,4.993,6.768,2.827,0.915C2.494,0.016,1.044,0.404,1.38,1.313L1.38,1.313z"/>
	</g>
</g>
<g>
	<g>
		<path d="M3.48,14.037c2.705-3.171,7.372-3.285,10.246-0.26c0.667,0.703,1.727-0.36,1.061-1.061
			c-3.401-3.58-9.141-3.523-12.367,0.26C1.796,13.708,2.852,14.774,3.48,14.037L3.48,14.037z"/>
	</g>
</g>
<rect id="_x3C_Slice_x3E__90_" fill="none" width="17" height="20"/>
</svg>
