<?xml version="1.0" encoding="utf-8"?>
<!-- Generator: Adobe Illustrator 15.1.0, SVG Export Plug-In  -->
<!DOCTYPE svg PUBLIC "-//W3C//DTD SVG 1.1//EN" "http://www.w3.org/Graphics/SVG/1.1/DTD/svg11.dtd" [
	<!ENTITY ns_flows "http://ns.adobe.com/Flows/1.0/">
]>
<svg version="1.1"
	 xmlns="http://www.w3.org/2000/svg" xmlns:xlink="http://www.w3.org/1999/xlink" xmlns:a="http://ns.adobe.com/AdobeSVGViewerExtensions/3.0/"
	 x="0px" y="0px" width="23px" height="29px" viewBox="20.841 0 23 29" enable-background="new 20.841 0 23 29"
	 xml:space="preserve">
<defs>
</defs>
<g>
	<g>
		<path d="M35.714,15.904c-0.387,0.605-0.984,1.288-1.784,1.122c-0.979-0.203-1.235-1.636-1.282-2.438
			c-0.056-0.961-1.557-0.967-1.5,0c0.086,1.465,0.632,3.301,2.192,3.821c1.549,0.516,2.869-0.495,3.669-1.748
			C37.531,15.843,36.232,15.091,35.714,15.904L35.714,15.904z"/>
	</g>
</g>
<g>
	<g>
		<path d="M36.908,16.794c2.01-2.938,4.021-5.875,6.03-8.813c0.548-0.801-0.753-1.55-1.295-0.757
			c-2.011,2.938-4.021,5.875-6.03,8.813C35.065,16.838,36.366,17.587,36.908,16.794L36.908,16.794z"/>
	</g>
</g>
<g>
	<g>
		<path d="M39.163,7.009c0,6.934,0,13.868,0,20.802c0,0.967,1.5,0.967,1.5,0c0-6.934,0-13.868,0-20.802
			C40.663,6.042,39.163,6.042,39.163,7.009L39.163,7.009z"/>
	</g>
</g>
<g>
	<g>
		<path d="M37.688,22.929c1.732-0.891,3.466-1.782,5.199-2.673c0.86-0.442,0.102-1.736-0.758-1.295
			c-1.732,0.891-3.466,1.782-5.199,2.673C36.07,22.076,36.829,23.37,37.688,22.929L37.688,22.929z"/>
	</g>
</g>
<g>
	<g>
		<path d="M40.663,7.009c-0.014-0.785-0.03-1.692,0.354-2.405c0.065-0.122,0.069-0.118,0.126-0.179
			c0.013-0.013,0.152-0.103,0.06-0.065c0.19-0.077-0.043-0.03,0.159-0.026c-0.229-0.004,0.219,0.081,0.042,0.005
			c0.34,0.146,0.51,0.372,0.694,0.771c0.287,0.62-0.184,1.766-0.636,2.365c-0.584,0.772,0.72,1.519,1.295,0.757
			c1.202-1.591,1.357-4.475-0.834-5.289c-0.697-0.259-1.474-0.03-1.942,0.539c-0.786,0.955-0.839,2.351-0.818,3.528
			C39.18,7.976,40.68,7.977,40.663,7.009L40.663,7.009z"/>
	</g>
</g>
<g>
	<g>
		<path d="M29.318,18.92c0-4.533,0-9.065,0-13.598c0-0.967-1.5-0.967-1.5,0c0,4.533,0,9.065,0,13.598
			C27.818,19.887,29.318,19.887,29.318,18.92L29.318,18.92z"/>
	</g>
</g>
<g>
	<g>
		<path d="M31.25,14.035c-1.078,1.47-2.157,2.941-3.235,4.412c-0.573,0.781,0.729,1.528,1.295,0.757
			c1.079-1.47,2.157-2.941,3.235-4.412C33.118,14.011,31.815,13.264,31.25,14.035L31.25,14.035z"/>
	</g>
</g>
<g>
	<g>
		<path d="M23.363,19.754c0-6.075,0-12.149,0-18.224c0-0.967-1.5-0.967-1.5,0c0,6.075,0,12.149,0,18.224
			C21.863,20.721,23.363,20.721,23.363,19.754L23.363,19.754z"/>
	</g>
</g>
<g>
	<g>
		<path d="M23.444,19.965c1.949-4.857,3.898-9.714,5.848-14.571c0.36-0.898-1.092-1.285-1.447-0.398
			c-1.949,4.857-3.898,9.714-5.848,14.571C21.637,20.465,23.089,20.852,23.444,19.965L23.444,19.965z"/>
	</g>
</g>
<g>
	<circle cx="22.613" cy="22.332" r="0.5"/>
	<g>
		<path d="M22.863,22.332c-0.126,0.228-0.284,0.294-0.474,0.199c0-0.133,0-0.266,0-0.398c0.146-0.062,0.295-0.062,0.447,0
			c-0.055-0.406-0.569-0.621-0.923-0.524c-0.434,0.119-0.578,0.518-0.524,0.922c0.199,1.476,2.474,1.28,2.474-0.199
			c0-0.605-0.583-1.339-1.25-1.25c-0.74,0.1-1.15,0.509-1.25,1.25c-0.055,0.406,0.383,0.75,0.75,0.75
			C22.563,23.082,22.809,22.737,22.863,22.332z"/>
	</g>
</g>
<rect id="_x3C_Slice_x3E__144_" fill="none" width="20.917" height="24"/>
<rect id="_x3C_Slice_x3E__143_" x="21" fill="none" width="23" height="29"/>
</svg>
