<?xml version="1.0" encoding="utf-8"?>
<!-- Generator: Adobe Illustrator 15.1.0, SVG Export Plug-In  -->
<!DOCTYPE svg PUBLIC "-//W3C//DTD SVG 1.1//EN" "http://www.w3.org/Graphics/SVG/1.1/DTD/svg11.dtd" [
	<!ENTITY ns_flows "http://ns.adobe.com/Flows/1.0/">
]>
<svg version="1.1"
	 xmlns="http://www.w3.org/2000/svg" xmlns:xlink="http://www.w3.org/1999/xlink" xmlns:a="http://ns.adobe.com/AdobeSVGViewerExtensions/3.0/"
	 x="0px" y="0px" width="32px" height="22px" viewBox="-0.159 0 32 22" enable-background="new -0.159 0 32 22"
	 xml:space="preserve">
<defs>
</defs>
<g>
	<g>
		<path d="M6.656,10.699c0,3.476,0,6.952,0,10.427c0,0.967,1.5,0.967,1.5,0c0-3.476,0-6.952,0-10.427
			C8.156,9.732,6.656,9.732,6.656,10.699L6.656,10.699z"/>
	</g>
</g>
<g>
	<g>
		<path d="M8.158,11.14c0.021-2.776,0.03-6.515,2.102-8.674c1.025-1.069,2.549-0.81,3.558,0.115
			c0.854,0.784,0.938,1.726,0.233,2.634c-1.787,2.304-6.077,2.133-8.617,2.154c-0.967,0.008-0.968,1.508,0,1.5
			c3.082-0.026,7.894,0.008,9.911-2.895c1.061-1.526,0.832-3.15-0.467-4.453c-1.327-1.332-3.395-1.662-5.002-0.663
			C6.755,2.797,6.682,7.981,6.658,11.14C6.651,12.108,8.151,12.107,8.158,11.14L8.158,11.14z"/>
	</g>
</g>
<g>
	<g>
		<path d="M5.434,7.363c-1.485,0-2.972,0-4.457,0c-0.967,0-0.967,1.5,0,1.5c1.485,0,2.972,0,4.457,0
			C6.4,8.863,6.4,7.363,5.434,7.363L5.434,7.363z"/>
	</g>
</g>
<g>
	<g>
		<path d="M22.004,10.699c0,3.476,0,6.952,0,10.427c0,0.967,1.5,0.967,1.5,0c0-3.476,0-6.952,0-10.427
			C23.504,9.732,22.004,9.732,22.004,10.699L22.004,10.699z"/>
	</g>
</g>
<g>
	<g>
		<path d="M23.506,11.14c0.021-2.776,0.03-6.515,2.102-8.674c1.025-1.069,2.549-0.81,3.558,0.115
			c0.854,0.784,0.938,1.726,0.233,2.634c-1.787,2.304-6.077,2.133-8.617,2.154c-0.967,0.008-0.968,1.508,0,1.5
			c3.082-0.026,7.894,0.008,9.911-2.895c1.061-1.526,0.832-3.15-0.467-4.453c-1.327-1.332-3.395-1.662-5.002-0.663
			c-3.121,1.94-3.194,7.124-3.218,10.283C21.999,12.108,23.499,12.107,23.506,11.14L23.506,11.14z"/>
	</g>
</g>
<g>
	<g>
		<path d="M20.781,7.363c-1.485,0-2.972,0-4.457,0c-0.967,0-0.967,1.5,0,1.5c1.485,0,2.972,0,4.457,0
			C21.748,8.863,21.748,7.363,20.781,7.363L20.781,7.363z"/>
	</g>
</g>
<rect id="_x3C_Slice_x3E__143_" fill="none" width="31.75" height="22"/>
</svg>
