<?xml version="1.0" encoding="utf-8"?>
<!-- Generator: Adobe Illustrator 15.1.0, SVG Export Plug-In  -->
<!DOCTYPE svg PUBLIC "-//W3C//DTD SVG 1.1//EN" "http://www.w3.org/Graphics/SVG/1.1/DTD/svg11.dtd" [
	<!ENTITY ns_flows "http://ns.adobe.com/Flows/1.0/">
]>
<svg version="1.1"
	 xmlns="http://www.w3.org/2000/svg" xmlns:xlink="http://www.w3.org/1999/xlink" xmlns:a="http://ns.adobe.com/AdobeSVGViewerExtensions/3.0/"
	 x="0px" y="0px" width="21px" height="25px" viewBox="22.841 0 21 25" enable-background="new 22.841 0 21 25"
	 xml:space="preserve">
<defs>
</defs>
<g>
	<g>
		<path d="M37.545,17.313c-4.137,3.732-4.438-4.319-4.318-6.185c0.221-3.451,1.984-6.859,3.899-9.658
			c0.548-0.801-0.753-1.55-1.295-0.757c-3.069,4.487-4.992,9.913-3.734,15.346c0.837,3.613,3.782,4.774,6.509,2.314
			C39.325,17.725,38.261,16.667,37.545,17.313L37.545,17.313z"/>
	</g>
</g>
<g>
	<g>
		<path d="M42.949,19.441c-1.231-1.219-7.862-7.706-4.432-9.669c0.563-0.322,1.409-0.201,1.727,0.386
			c1.316,2.437-1.043,5.533-2.624,7.098c-0.688,0.681,0.372,1.741,1.061,1.061c2.213-2.189,4.151-5.345,3.014-8.551
			c-0.474-1.336-1.815-1.794-3.126-1.584c-1.574,0.253-2.377,1.798-2.381,3.257c-0.009,3.506,3.442,6.828,5.701,9.063
			C42.576,21.183,43.638,20.122,42.949,19.441L42.949,19.441z"/>
	</g>
</g>
<g>
	<g>
		<path d="M25.405,20.168c0-6.075,0-12.149,0-18.224c0-0.967-1.5-0.967-1.5,0c0,6.075,0,12.149,0,18.224
			C23.905,21.136,25.405,21.136,25.405,20.168L25.405,20.168z"/>
	</g>
</g>
<g>
	<g>
		<path d="M25.447,20.401c3.819-6.341,7.639-12.682,11.457-19.023c0.5-0.831-0.797-1.584-1.295-0.757
			c-3.819,6.341-7.639,12.682-11.457,19.023C23.652,20.475,24.949,21.229,25.447,20.401L25.447,20.401z"/>
	</g>
</g>
<g>
	<ellipse cx="24.655" cy="22.747" rx="0.435" ry="0.5"/>
	<g>
		<path d="M24.971,22.747c-0.039,0.074-0.077,0.149-0.116,0.223c-0.133,0-0.266,0-0.398,0c-0.155-0.149-0.155-0.298,0-0.447
			c0.133,0,0.266,0,0.398,0C24.894,22.598,24.932,22.672,24.971,22.747c-0.047-0.406-0.306-0.75-0.75-0.75
			c-0.373,0-0.798,0.343-0.75,0.75c0.075,0.644,0.46,1.25,1.185,1.25s1.109-0.606,1.185-1.25c0.076-0.645-0.572-1.25-1.185-1.25
			c-0.725,0-1.109,0.605-1.185,1.25c-0.048,0.407,0.377,0.75,0.75,0.75C24.665,23.497,24.924,23.152,24.971,22.747z"/>
	</g>
</g>
<rect id="_x3C_Slice_x3E__144_" fill="none" width="23" height="29"/>
<rect id="_x3C_Slice_x3E__143_" x="23" fill="none" width="20.917" height="24.583"/>
</svg>
