<?xml version="1.0" encoding="utf-8"?>
<!-- Generator: Adobe Illustrator 15.1.0, SVG Export Plug-In  -->
<!DOCTYPE svg PUBLIC "-//W3C//DTD SVG 1.1//EN" "http://www.w3.org/Graphics/SVG/1.1/DTD/svg11.dtd" [
	<!ENTITY ns_flows "http://ns.adobe.com/Flows/1.0/">
]>
<svg version="1.1"
	 xmlns="http://www.w3.org/2000/svg" xmlns:xlink="http://www.w3.org/1999/xlink" xmlns:a="http://ns.adobe.com/AdobeSVGViewerExtensions/3.0/"
	 x="0px" y="0px" width="25px" height="21px" viewBox="23.841 0 25 21" enable-background="new 23.841 0 25 21"
	 xml:space="preserve">
<defs>
</defs>
<g>
	<g>
		<path d="M48.229,15.725c0-4.908,0-9.817,0-14.725c0-0.967-1.5-0.967-1.5,0c0,4.908,0,9.817,0,14.725
			C46.729,16.692,48.229,16.692,48.229,15.725L48.229,15.725z"/>
	</g>
</g>
<g>
	<g>
		<path d="M46.722,0.781c-2.685,5.555-5.368,11.109-8.053,16.665c-0.419,0.867,0.874,1.628,1.295,0.757
			c2.685-5.555,5.368-11.109,8.053-16.665C48.436,0.671,47.143-0.09,46.722,0.781L46.722,0.781z"/>
	</g>
</g>
<g>
	<circle cx="47.479" cy="18.943" r="0.5"/>
	<g>
		<path d="M48.729,18.943c-0.08-0.598-0.399-1.136-1.051-1.224c-0.718-0.097-1.335,0.373-1.432,1.091
			c-0.208,1.552,2.247,1.882,2.456,0.332c0.054-0.405-0.091-0.803-0.524-0.922c-0.354-0.097-0.868,0.118-0.923,0.524
			c0.286-0.143,0.427-0.002,0.423,0.422c-0.133,0-0.266,0-0.398,0c-0.018-0.074-0.034-0.148-0.051-0.223
			c0.055,0.405,0.3,0.75,0.75,0.75C48.346,19.693,48.783,19.349,48.729,18.943z"/>
	</g>
</g>
<g>
	<g>
		<path d="M38.669,17.468c-0.341,0.659-1.003,2.048-1.859,1.28c-0.718-0.644-1.782,0.414-1.061,1.061
			c0.671,0.602,1.489,0.913,2.355,0.527c0.878-0.391,1.435-1.291,1.859-2.111C40.408,17.367,39.113,16.608,38.669,17.468
			L38.669,17.468z"/>
	</g>
</g>
<g>
	<g>
		<path d="M31.805,17.548c-3.254,3.36-6.067-0.756-5.33-4.048c0.232-1.034,0.787-1.964,1.349-2.848
			c2.224-3.496,5.8-6.245,8.986-8.795c0.755-0.604-0.313-1.659-1.061-1.061c-4.022,3.22-9.597,7.29-10.806,12.683
			c-1.191,5.318,3.866,9.317,7.922,5.129C33.538,17.914,32.479,16.852,31.805,17.548L31.805,17.548z"/>
	</g>
</g>
<g>
	<g>
		<path d="M36.706,18.663c-1.153-1.062-8.003-7.734-3.468-8.784c0.928-0.214,1.64,0.194,1.902,1.069
			c0.775,2.593-1.466,5.022-3.249,6.541c-0.737,0.628,0.329,1.684,1.061,1.061c2.357-2.008,4.546-4.953,3.57-8.215
			c-0.44-1.472-1.848-2.129-3.313-1.958c-1.663,0.193-2.799,1.389-2.935,3.046c-0.264,3.226,3.297,6.393,5.37,8.301
			C36.355,20.377,37.419,19.319,36.706,18.663L36.706,18.663z"/>
	</g>
</g>
<rect id="_x3C_Slice_x3E__144_" fill="none" width="24" height="20"/>
<rect id="_x3C_Slice_x3E__143_" x="24" fill="none" width="25" height="20.813"/>
</svg>
