<?xml version="1.0" encoding="utf-8"?>
<!-- Generator: Adobe Illustrator 15.1.0, SVG Export Plug-In  -->
<!DOCTYPE svg PUBLIC "-//W3C//DTD SVG 1.1//EN" "http://www.w3.org/Graphics/SVG/1.1/DTD/svg11.dtd" [
	<!ENTITY ns_flows "http://ns.adobe.com/Flows/1.0/">
]>
<svg version="1.1"
	 xmlns="http://www.w3.org/2000/svg" xmlns:xlink="http://www.w3.org/1999/xlink" xmlns:a="http://ns.adobe.com/AdobeSVGViewerExtensions/3.0/"
	 x="0px" y="0px" width="12px" height="20px" viewBox="-0.159 0 12 20" enable-background="new -0.159 0 12 20"
	 xml:space="preserve">
<defs>
</defs>
<g>
	<g>
		<path d="M10.992,14.973c0-4.306,0-8.612,0-12.918c0-0.967-1.5-0.967-1.5,0c0,4.306,0,8.612,0,12.918
			C9.492,15.94,10.992,15.94,10.992,14.973L10.992,14.973z"/>
	</g>
</g>
<g>
	<circle cx="10.242" cy="18.269" r="0.5"/>
	<g>
		<path d="M10.492,18.269c-0.017,0.074-0.034,0.148-0.051,0.223c-0.133,0-0.266,0-0.398,0c-0.005-0.424,0.137-0.564,0.423-0.422
			c-0.055-0.406-0.569-0.621-0.923-0.524c-0.434,0.119-0.578,0.518-0.524,0.922c0.088,0.651,0.627,0.97,1.224,1.05
			c0.607,0.082,1.331-0.642,1.25-1.25c-0.09-0.667-0.509-1.25-1.25-1.25s-1.16,0.583-1.25,1.25c-0.055,0.406,0.383,0.75,0.75,0.75
			C10.192,19.019,10.438,18.674,10.492,18.269z"/>
	</g>
</g>
<g>
	<g>
		<path d="M9.476,1.801c-0.853,2.79-5.003,4.417-6.904,6.694c-2.096,2.508-2.018,6.228-1.752,9.273c0.083,0.956,1.584,0.964,1.5,0
			c-0.278-3.192-0.357-6.851,2.226-9.149c2.165-1.925,5.471-3.455,6.378-6.42C11.206,1.272,9.758,0.878,9.476,1.801L9.476,1.801z"/>
	</g>
</g>
<rect id="_x3C_Slice_x3E__143_" fill="none" width="11.75" height="20"/>
</svg>
