<?xml version="1.0" encoding="utf-8"?>
<!-- Generator: Adobe Illustrator 15.1.0, SVG Export Plug-In  -->
<!DOCTYPE svg PUBLIC "-//W3C//DTD SVG 1.1//EN" "http://www.w3.org/Graphics/SVG/1.1/DTD/svg11.dtd" [
	<!ENTITY ns_flows "http://ns.adobe.com/Flows/1.0/">
]>
<svg version="1.1"
	 xmlns="http://www.w3.org/2000/svg" xmlns:xlink="http://www.w3.org/1999/xlink" xmlns:a="http://ns.adobe.com/AdobeSVGViewerExtensions/3.0/"
	 x="0px" y="0px" width="20px" height="25px" viewBox="-0.242 0 20 25" enable-background="new -0.242 0 20 25"
	 xml:space="preserve">
<defs>
</defs>
<g>
	<g>
		<path d="M13.644,13.562c-0.427,0.533-1.403,1.857-2.08,0.966c-0.576-0.76-1.88-0.014-1.295,0.757
			c0.521,0.687,1.18,1.181,2.085,1.042c0.991-0.153,1.754-0.958,2.351-1.704C15.303,13.875,14.248,12.807,13.644,13.562
			L13.644,13.562z"/>
	</g>
</g>
<g>
	<g>
		<path d="M14.821,14.47c1.208-1.765,2.416-3.531,3.624-5.296c0.548-0.801-0.753-1.55-1.295-0.757
			c-1.208,1.765-2.416,3.531-3.624,5.296C12.979,14.514,14.279,15.263,14.821,14.47L14.821,14.47z"/>
	</g>
</g>
<g>
	<g>
		<path d="M14.675,8.206c0,5.171,0,10.343,0,15.515c0,0.967,1.5,0.967,1.5,0c0-5.171,0-10.343,0-15.515
			C16.175,7.238,14.675,7.238,14.675,8.206L14.675,8.206z"/>
	</g>
</g>
<g>
	<g>
		<path d="M13.2,22.125c1.732-0.891,3.466-1.782,5.199-2.673c0.86-0.442,0.102-1.736-0.758-1.295
			c-1.732,0.891-3.466,1.782-5.199,2.673C11.582,21.272,12.341,22.566,13.2,22.125L13.2,22.125z"/>
	</g>
</g>
<g>
	<g>
		<path d="M16.175,8.206c-0.014-0.785-0.03-1.692,0.354-2.405c0.065-0.122,0.069-0.118,0.126-0.179
			c0.013-0.013,0.152-0.103,0.059-0.065c0.191-0.077-0.043-0.03,0.16-0.026c-0.23-0.004,0.219,0.081,0.042,0.005
			c0.34,0.146,0.509,0.372,0.694,0.771c0.287,0.62-0.184,1.766-0.636,2.365c-0.584,0.772,0.72,1.519,1.295,0.757
			c1.202-1.591,1.358-4.475-0.835-5.289c-0.696-0.259-1.473-0.03-1.941,0.539c-0.786,0.955-0.838,2.351-0.818,3.528
			C14.691,9.172,16.191,9.173,16.175,8.206L16.175,8.206z"/>
	</g>
</g>
<g>
	<g>
		<path d="M2.446,15.976c1.702-2.536,3.403-5.072,5.105-7.609C8.093,7.561,6.793,6.811,6.257,7.61
			c-1.702,2.536-3.403,5.072-5.105,7.609C0.61,16.024,1.91,16.774,2.446,15.976L2.446,15.976z"/>
	</g>
</g>
<g>
	<g>
		<path d="M11.563,14.561c-1.337-2.357-2.675-4.714-4.012-7.071C7.074,6.648,5.778,7.404,6.257,8.246
			c1.337,2.357,2.675,4.714,4.012,7.071C10.746,16.159,12.042,15.403,11.563,14.561L11.563,14.561z"/>
	</g>
</g>
<g>
	<g>
		<path d="M2.549,15.612c0-4.633,0-9.267,0-13.9c0-0.967-1.5-0.967-1.5,0c0,4.633,0,9.267,0,13.9
			C1.049,16.58,2.549,16.58,2.549,15.612L2.549,15.612z"/>
	</g>
</g>
<g>
	<circle cx="1.799" cy="18.805" r="0.5"/>
	<g>
		<path d="M2.049,18.805c-0.126,0.228-0.283,0.294-0.474,0.199c0-0.133,0-0.266,0-0.398c0.146-0.062,0.294-0.062,0.447,0
			C1.968,18.2,1.453,17.985,1.1,18.082c-0.434,0.119-0.578,0.518-0.524,0.922c0.198,1.476,2.474,1.28,2.474-0.199
			c0-0.605-0.583-1.339-1.25-1.25c-0.74,0.1-1.15,0.509-1.25,1.25c-0.055,0.406,0.383,0.75,0.75,0.75
			C1.749,19.555,1.994,19.21,2.049,18.805z"/>
	</g>
</g>
<rect id="_x3C_Slice_x3E__143_" fill="none" width="19.5" height="24.583"/>
</svg>
