<?xml version="1.0" encoding="utf-8"?>
<!-- Generator: Adobe Illustrator 15.1.0, SVG Export Plug-In  -->
<!DOCTYPE svg PUBLIC "-//W3C//DTD SVG 1.1//EN" "http://www.w3.org/Graphics/SVG/1.1/DTD/svg11.dtd" [
	<!ENTITY ns_flows "http://ns.adobe.com/Flows/1.0/">
]>
<svg version="1.1"
	 xmlns="http://www.w3.org/2000/svg" xmlns:xlink="http://www.w3.org/1999/xlink" xmlns:a="http://ns.adobe.com/AdobeSVGViewerExtensions/3.0/"
	 x="0px" y="0px" width="17px" height="22px" viewBox="-0.159 0 17 22" enable-background="new -0.159 0 17 22"
	 xml:space="preserve">
<defs>
</defs>
<g>
	<g>
		<path d="M6.999,10.667c0,3.464,0,6.928,0,10.392c0,0.967,1.5,0.967,1.5,0c0-3.464,0-6.928,0-10.392
			C8.499,9.7,6.999,9.7,6.999,10.667L6.999,10.667z"/>
	</g>
</g>
<g>
	<g>
		<path d="M8.502,11.106c0.02-2.767,0.029-6.492,2.093-8.644c1.021-1.065,2.538-0.807,3.542,0.115
			c0.851,0.78,0.934,1.717,0.232,2.622c-1.78,2.296-6.056,2.125-8.587,2.146c-0.967,0.008-0.968,1.508,0,1.5
			c3.073-0.026,7.869,0.008,9.881-2.887c1.058-1.521,0.829-3.142-0.466-4.442c-1.323-1.328-3.385-1.657-4.987-0.661
			C7.098,2.79,7.024,7.956,7.002,11.106C6.995,12.074,8.495,12.073,8.502,11.106L8.502,11.106z"/>
	</g>
</g>
<g>
	<g>
		<path d="M5.782,7.34c-1.48,0-2.961,0-4.441,0c-0.968,0-0.968,1.5,0,1.5c1.48,0,2.961,0,4.441,0C6.75,8.84,6.75,7.34,5.782,7.34
			L5.782,7.34z"/>
	</g>
</g>
<rect id="_x3C_Slice_x3E__143_" fill="none" width="16.393" height="21.293"/>
</svg>
