<?xml version="1.0" encoding="utf-8"?>
<!-- Generator: Adobe Illustrator 15.1.0, SVG Export Plug-In  -->
<!DOCTYPE svg PUBLIC "-//W3C//DTD SVG 1.1//EN" "http://www.w3.org/Graphics/SVG/1.1/DTD/svg11.dtd" [
	<!ENTITY ns_flows "http://ns.adobe.com/Flows/1.0/">
]>
<svg version="1.1"
	 xmlns="http://www.w3.org/2000/svg" xmlns:xlink="http://www.w3.org/1999/xlink" xmlns:a="http://ns.adobe.com/AdobeSVGViewerExtensions/3.0/"
	 x="0px" y="0px" width="46px" height="27px" viewBox="0 0 46 27" enable-background="new 0 0 46 27" xml:space="preserve">
<defs>
</defs>
<g>
	<g>
		<path d="M44.259,13.5c-0.642,11.92-17.858,11.92-18.5,0c-0.282-5.23,4.43-8.99,9.25-9.25C40.24,3.968,43.999,8.679,44.259,13.5
			c0.052,0.962,1.552,0.967,1.5,0c-0.328-6.09-4.66-10.422-10.75-10.75C28.932,2.423,24.56,7.905,24.259,13.5
			c-0.327,6.077,5.155,10.449,10.75,10.75c6.077,0.327,10.449-5.154,10.75-10.75C45.811,12.533,44.311,12.538,44.259,13.5z"/>
	</g>
</g>
<g>
	<g>
		<path d="M25.147,21.317c6.826-4.78,13.652-9.56,20.479-14.339c0.786-0.55,0.038-1.852-0.757-1.295
			c-6.826,4.78-13.652,9.56-20.479,14.339C23.604,20.572,24.353,21.874,25.147,21.317L25.147,21.317z"/>
	</g>
</g>
<g>
	<g>
		<path d="M45.626,20.022c-6.826-4.78-13.652-9.56-20.479-14.339c-0.794-0.557-1.543,0.745-0.757,1.295
			c6.826,4.78,13.652,9.56,20.479,14.339C45.664,21.874,46.413,20.572,45.626,20.022L45.626,20.022z"/>
	</g>
</g>
<line stroke="#000000" stroke-width="2" stroke-miterlimit="10" x1="21.169" y1="13.5" x2="3" y2="13.5"/>
<polygon points="8,8.881 0,13.5 8,18.119 "/>
<rect id="_x3C_Slice_x3E__29_" fill="none" width="46" height="27"/>
<g>
	<g>
		<path d="M34.259,1c0,8.333,0,16.667,0,25c0,0.967,1.5,0.967,1.5,0c0-8.333,0-16.667,0-25C35.759,0.033,34.259,0.033,34.259,1
			L34.259,1z"/>
	</g>
</g>
</svg>
