<?xml version="1.0" encoding="utf-8"?>
<!-- Generator: Adobe Illustrator 15.1.0, SVG Export Plug-In  -->
<!DOCTYPE svg PUBLIC "-//W3C//DTD SVG 1.1//EN" "http://www.w3.org/Graphics/SVG/1.1/DTD/svg11.dtd" [
	<!ENTITY ns_flows "http://ns.adobe.com/Flows/1.0/">
]>
<svg version="1.1"
	 xmlns="http://www.w3.org/2000/svg" xmlns:xlink="http://www.w3.org/1999/xlink" xmlns:a="http://ns.adobe.com/AdobeSVGViewerExtensions/3.0/"
	 x="0px" y="0px" width="49px" height="27px" viewBox="0 0 49 27" enable-background="new 0 0 49 27" xml:space="preserve">
<defs>
</defs>
<g>
	<g>
		<path d="M44.259,13.5c-0.642,11.92-17.858,11.92-18.5,0c-0.282-5.23,4.43-8.99,9.25-9.25C40.24,3.968,43.999,8.679,44.259,13.5
			c0.052,0.962,1.552,0.967,1.5,0c-0.328-6.09-4.66-10.422-10.75-10.75C28.932,2.423,24.56,7.905,24.259,13.5
			c-0.327,6.077,5.155,10.449,10.75,10.75c6.077,0.327,10.449-5.154,10.75-10.75C45.811,12.533,44.311,12.538,44.259,13.5z"/>
	</g>
</g>
<g>
	<g>
		<path d="M43.317,4.131c-5.893,5.893-11.785,11.785-17.678,17.678c-0.685,0.685,0.376,1.745,1.061,1.061
			c5.893-5.893,11.785-11.785,17.678-17.678C45.063,4.507,44.002,3.446,43.317,4.131L43.317,4.131z"/>
	</g>
</g>
<g>
	<g>
		<path d="M25.64,5.191c5.893,5.893,11.785,11.785,17.678,17.678c0.685,0.685,1.745-0.376,1.061-1.061
			C38.485,15.916,32.593,10.023,26.7,4.131C26.016,3.446,24.955,4.507,25.64,5.191L25.64,5.191z"/>
	</g>
</g>
<g>
	<g>
		<path d="M47.509,12.75c-8.333,0-16.667,0-25,0c-0.967,0-0.967,1.5,0,1.5c8.333,0,16.667,0,25,0
			C48.476,14.25,48.476,12.75,47.509,12.75L47.509,12.75z"/>
	</g>
</g>
<g>
	<g>
		<path d="M34.259,1c0,8.333,0,16.667,0,25c0,0.967,1.5,0.967,1.5,0c0-8.333,0-16.667,0-25C35.759,0.033,34.259,0.033,34.259,1
			L34.259,1z"/>
	</g>
</g>
<line stroke="#000000" stroke-width="2" stroke-miterlimit="10" x1="0" y1="13.667" x2="18.169" y2="13.667"/>
<polygon points="13.169,9.048 21.169,13.667 13.169,18.286 "/>
<rect id="_x3C_Slice_x3E__29_" fill="none" width="48.667" height="27"/>
</svg>
