<?xml version="1.0" encoding="utf-8"?>
<!-- Generator: Adobe Illustrator 15.1.0, SVG Export Plug-In  -->
<!DOCTYPE svg PUBLIC "-//W3C//DTD SVG 1.1//EN" "http://www.w3.org/Graphics/SVG/1.1/DTD/svg11.dtd" [
	<!ENTITY ns_flows "http://ns.adobe.com/Flows/1.0/">
]>
<svg version="1.1"
	 xmlns="http://www.w3.org/2000/svg" xmlns:xlink="http://www.w3.org/1999/xlink" xmlns:a="http://ns.adobe.com/AdobeSVGViewerExtensions/3.0/"
	 x="0px" y="0px" width="59px" height="32px" viewBox="58.85 -0.286 59 32" enable-background="new 58.85 -0.286 59 32"
	 xml:space="preserve">
<defs>
</defs>
<rect id="_x3C_Slice_x3E__30_" y="0.393" fill="none" width="59" height="31.25"/>
<g>
	<g>
		<path d="M105.463,20.25c-0.328-6.09-4.66-10.422-10.75-10.75c-6.077-0.327-10.449,5.155-10.75,10.75
			c-0.327,6.077,5.155,10.449,10.75,10.75C100.79,31.327,105.162,25.846,105.463,20.25c0.052-0.967-1.448-0.962-1.5,0
			c-0.642,11.92-17.858,11.92-18.5,0c-0.282-5.23,4.43-8.99,9.25-9.25c5.231-0.282,8.99,4.429,9.25,9.25
			C104.015,21.212,105.515,21.217,105.463,20.25z"/>
	</g>
</g>
<g>
	<g>
		<path d="M104.082,28.559c-5.893-5.893-11.785-11.785-17.678-17.678c-0.685-0.685-1.745,0.376-1.061,1.061
			c5.893,5.893,11.785,11.785,17.678,17.678C103.706,30.304,104.767,29.243,104.082,28.559L104.082,28.559z"/>
	</g>
</g>
<g>
	<g>
		<path d="M86.404,29.619c9.363-9.363,18.726-18.726,28.089-28.089c0.685-0.685-0.376-1.745-1.061-1.061
			c-9.363,9.363-18.726,18.726-28.089,28.089C84.659,29.243,85.72,30.304,86.404,29.619L86.404,29.619z"/>
	</g>
</g>
<rect id="_x3C_Slice_x3E__29_" x="59.704" fill="none" width="57.733" height="31.25"/>
<line stroke="#000000" stroke-width="2" stroke-miterlimit="10" x1="59" y1="20.25" x2="77.169" y2="20.25"/>
<polygon points="72.169,15.631 80.169,20.25 72.169,24.869 "/>
</svg>
