<?xml version="1.0" encoding="utf-8"?>
<!-- Generator: Adobe Illustrator 15.1.0, SVG Export Plug-In  -->
<!DOCTYPE svg PUBLIC "-//W3C//DTD SVG 1.1//EN" "http://www.w3.org/Graphics/SVG/1.1/DTD/svg11.dtd" [
	<!ENTITY ns_flows "http://ns.adobe.com/Flows/1.0/">
]>
<svg version="1.1"
	 xmlns="http://www.w3.org/2000/svg" xmlns:xlink="http://www.w3.org/1999/xlink" xmlns:a="http://ns.adobe.com/AdobeSVGViewerExtensions/3.0/"
	 x="0px" y="0px" width="59px" height="33px" viewBox="0.213 30.789 59 33" enable-background="new 0.213 30.789 59 33"
	 xml:space="preserve">
<defs>
</defs>
<g>
	<g>
		<path d="M46.463,51.991c-0.328-6.09-4.66-10.422-10.75-10.75c-6.077-0.327-10.449,5.155-10.75,10.75
			c-0.327,6.077,5.155,10.449,10.75,10.75C41.79,63.068,46.162,57.587,46.463,51.991c0.052-0.967-1.448-0.962-1.5,0
			c-0.642,11.92-17.858,11.92-18.5,0c-0.282-5.23,4.43-8.99,9.25-9.25c5.231-0.282,8.99,4.429,9.25,9.25
			C45.015,52.953,46.515,52.958,46.463,51.991z"/>
	</g>
</g>
<g>
	<g>
		<path d="M45.082,60.3c-5.893-5.893-11.785-11.785-17.678-17.678c-0.685-0.685-1.745,0.376-1.061,1.061
			c5.893,5.893,11.785,11.785,17.678,17.678C44.706,62.045,45.767,60.984,45.082,60.3L45.082,60.3z"/>
	</g>
</g>
<g>
	<g>
		<path d="M27.404,61.36c9.363-9.363,18.726-18.726,28.089-28.089c0.685-0.685-0.376-1.745-1.061-1.061
			C45.07,41.574,35.707,50.937,26.344,60.3C25.659,60.984,26.72,62.045,27.404,61.36L27.404,61.36z"/>
	</g>
</g>
<g>
	<g>
		<path d="M46.463,20.125c-0.328-6.09-4.66-10.422-10.75-10.75c-6.077-0.327-10.449,5.155-10.75,10.75
			c-0.327,6.077,5.155,10.449,10.75,10.75C41.79,31.202,46.162,25.721,46.463,20.125c0.052-0.967-1.448-0.962-1.5,0
			c-0.642,11.92-17.858,11.92-18.5,0c-0.282-5.23,4.43-8.99,9.25-9.25c5.231-0.282,8.99,4.429,9.25,9.25
			C45.015,21.087,46.515,21.092,46.463,20.125z"/>
	</g>
</g>
<rect id="_x3C_Slice_x3E__150_" x="0.704" fill="none" width="57.733" height="30.917"/>
<rect id="_x3C_Slice_x3E__149_" x="0.704" y="31.741" fill="none" width="57.733" height="31.25"/>
<line stroke="#000000" stroke-width="2" stroke-miterlimit="10" x1="21.169" y1="51.991" x2="3" y2="51.991"/>
<polygon points="8,47.373 0,51.991 8,56.61 "/>
</svg>
