<?xml version="1.0" encoding="utf-8"?>
<!-- Generator: Adobe Illustrator 15.1.0, SVG Export Plug-In  -->
<!DOCTYPE svg PUBLIC "-//W3C//DTD SVG 1.1//EN" "http://www.w3.org/Graphics/SVG/1.1/DTD/svg11.dtd" [
	<!ENTITY ns_flows "http://ns.adobe.com/Flows/1.0/">
]>
<svg version="1.1"
	 xmlns="http://www.w3.org/2000/svg" xmlns:xlink="http://www.w3.org/1999/xlink" xmlns:a="http://ns.adobe.com/AdobeSVGViewerExtensions/3.0/"
	 x="0px" y="0px" width="56px" height="31px" viewBox="-0.388 0 56 31" enable-background="new -0.388 0 56 31"
	 xml:space="preserve">
<defs>
</defs>
<g>
	<g>
		<path d="M44.259,10.833c-0.642,11.92-17.858,11.92-18.5,0c-0.282-5.23,4.43-8.99,9.25-9.25
			C40.24,1.301,43.999,6.012,44.259,10.833c0.052,0.962,1.552,0.967,1.5,0c-0.328-6.09-4.66-10.422-10.75-10.75
			c-6.077-0.327-10.449,5.155-10.75,10.75c-0.327,6.077,5.155,10.449,10.75,10.75c6.077,0.327,10.449-5.154,10.75-10.75
			C45.811,9.866,44.311,9.871,44.259,10.833z"/>
	</g>
</g>
<g>
	<g>
		<path d="M41.55,18.435c4.06,4.06,8.119,8.119,12.179,12.179c0.685,0.685,1.745-0.376,1.061-1.061
			c-4.06-4.06-8.119-8.119-12.179-12.179C41.926,16.689,40.865,17.75,41.55,18.435L41.55,18.435z"/>
	</g>
</g>
<rect id="_x3C_Slice_x3E__29_" fill="none" width="55.112" height="30.917"/>
<line stroke="#000000" stroke-width="2" stroke-miterlimit="10" x1="0" y1="11.25" x2="18.169" y2="11.25"/>
<polygon points="13.169,6.631 21.169,11.25 13.169,15.869 "/>
</svg>
