<?xml version="1.0" encoding="utf-8"?>
<!-- Generator: Adobe Illustrator 15.1.0, SVG Export Plug-In  -->
<!DOCTYPE svg PUBLIC "-//W3C//DTD SVG 1.1//EN" "http://www.w3.org/Graphics/SVG/1.1/DTD/svg11.dtd" [
	<!ENTITY ns_flows "http://ns.adobe.com/Flows/1.0/">
]>
<svg version="1.1"
	 xmlns="http://www.w3.org/2000/svg" xmlns:xlink="http://www.w3.org/1999/xlink" xmlns:a="http://ns.adobe.com/AdobeSVGViewerExtensions/3.0/"
	 x="0px" y="0px" width="56px" height="31px" viewBox="-0.084 -0.083 56 31" enable-background="new -0.084 -0.083 56 31"
	 xml:space="preserve">
<defs>
</defs>
<g>
	<g>
		<path d="M44.728,10.833c-0.642,11.92-17.858,11.92-18.5,0c-0.282-5.23,4.43-8.99,9.25-9.25
			C40.708,1.301,44.468,6.012,44.728,10.833c0.052,0.962,1.552,0.967,1.5,0c-0.328-6.09-4.66-10.422-10.75-10.75
			c-6.077-0.327-10.449,5.155-10.75,10.75c-0.327,6.077,5.155,10.449,10.75,10.75c6.077,0.327,10.449-5.154,10.75-10.75
			C46.28,9.866,44.779,9.871,44.728,10.833z"/>
	</g>
</g>
<g>
	<g>
		<path d="M42.019,18.435c4.06,4.06,8.119,8.119,12.179,12.179c0.685,0.685,1.745-0.376,1.061-1.061
			c-4.06-4.06-8.119-8.119-12.179-12.179C42.395,16.689,41.334,17.75,42.019,18.435L42.019,18.435z"/>
	</g>
</g>
<rect id="_x3C_Slice_x3E__29_" x="0.083" fill="none" width="55.583" height="30.917"/>
<line stroke="#000000" stroke-width="2" stroke-miterlimit="10" x1="21.169" y1="10.75" x2="3" y2="10.75"/>
<polygon points="8,6.131 0,10.75 8,15.369 "/>
</svg>
