<?xml version="1.0" encoding="utf-8"?>
<!-- Generator: Adobe Illustrator 15.1.0, SVG Export Plug-In  -->
<!DOCTYPE svg PUBLIC "-//W3C//DTD SVG 1.1//EN" "http://www.w3.org/Graphics/SVG/1.1/DTD/svg11.dtd" [
	<!ENTITY ns_flows "http://ns.adobe.com/Flows/1.0/">
]>
<svg version="1.1"
	 xmlns="http://www.w3.org/2000/svg" xmlns:xlink="http://www.w3.org/1999/xlink" xmlns:a="http://ns.adobe.com/AdobeSVGViewerExtensions/3.0/"
	 x="0px" y="0px" width="46px" height="22px" viewBox="0 0 46 22" enable-background="new 0 0 46 22" xml:space="preserve">
<defs>
</defs>
<g>
	<g>
		<path d="M44.259,10.917c-0.642,11.92-17.858,11.92-18.5,0c-0.282-5.23,4.43-8.99,9.25-9.25
			C40.24,1.385,43.999,6.096,44.259,10.917c0.052,0.962,1.552,0.967,1.5,0c-0.328-6.09-4.66-10.422-10.75-10.75
			c-6.077-0.327-10.449,5.155-10.75,10.75c-0.327,6.077,5.155,10.449,10.75,10.75c6.077,0.327,10.449-5.154,10.75-10.75
			C45.811,9.95,44.311,9.955,44.259,10.917z"/>
	</g>
</g>
<g>
	<g>
		<path d="M43.317,1.547C37.425,7.44,31.532,13.333,25.64,19.225c-0.685,0.685,0.376,1.745,1.061,1.061
			C32.593,14.393,38.485,8.5,44.378,2.608C45.063,1.923,44.002,0.863,43.317,1.547L43.317,1.547z"/>
	</g>
</g>
<rect id="_x3C_Slice_x3E__29_" fill="none" width="46" height="21.917"/>
<line stroke="#000000" stroke-width="2" stroke-miterlimit="10" x1="21.169" y1="10.958" x2="3" y2="10.958"/>
<polygon points="8,6.339 0,10.958 8,15.577 "/>
</svg>
