<?xml version="1.0" encoding="utf-8"?>
<!-- Generator: Adobe Illustrator 15.1.0, SVG Export Plug-In  -->
<!DOCTYPE svg PUBLIC "-//W3C//DTD SVG 1.1//EN" "http://www.w3.org/Graphics/SVG/1.1/DTD/svg11.dtd" [
	<!ENTITY ns_flows "http://ns.adobe.com/Flows/1.0/">
]>
<svg version="1.1"
	 xmlns="http://www.w3.org/2000/svg" xmlns:xlink="http://www.w3.org/1999/xlink" xmlns:a="http://ns.adobe.com/AdobeSVGViewerExtensions/3.0/"
	 x="0px" y="0px" width="56px" height="33px" viewBox="-0.388 -0.333 56 33" enable-background="new -0.388 -0.333 56 33"
	 xml:space="preserve">
<defs>
</defs>
<g>
	<g>
		<path d="M44.259,10.875c-0.642,11.92-17.858,11.92-18.5,0c-0.282-5.23,4.43-8.99,9.25-9.25
			C40.24,1.343,43.999,6.054,44.259,10.875c0.052,0.962,1.552,0.967,1.5,0c-0.328-6.09-4.66-10.422-10.75-10.75
			c-6.077-0.327-10.449,5.155-10.75,10.75c-0.327,6.077,5.155,10.449,10.75,10.75c6.077,0.327,10.449-5.154,10.75-10.75
			C45.811,9.908,44.311,9.913,44.259,10.875z"/>
	</g>
</g>
<g>
	<g>
		<path d="M43.317,1.506C37.425,7.398,31.532,13.291,25.64,19.184c-0.685,0.685,0.376,1.745,1.061,1.061
			c5.893-5.893,11.785-11.785,17.678-17.678C45.063,1.882,44.002,0.821,43.317,1.506L43.317,1.506z"/>
	</g>
</g>
<g>
	<g>
		<path d="M41.55,19.477c4.06,4.06,8.119,8.119,12.179,12.179c0.685,0.685,1.745-0.376,1.061-1.061
			c-4.06-4.06-8.119-8.119-12.179-12.179C41.926,17.731,40.865,18.792,41.55,19.477L41.55,19.477z"/>
	</g>
</g>
<rect id="_x3C_Slice_x3E__29_" fill="none" width="55.112" height="32"/>
<line stroke="#000000" stroke-width="2" stroke-miterlimit="10" x1="0" y1="10.422" x2="18.169" y2="10.422"/>
<polygon points="13.169,5.804 21.169,10.422 13.169,15.041 "/>
</svg>
