<?xml version="1.0" encoding="utf-8"?>
<!-- Generator: Adobe Illustrator 15.1.0, SVG Export Plug-In  -->
<!DOCTYPE svg PUBLIC "-//W3C//DTD SVG 1.1//EN" "http://www.w3.org/Graphics/SVG/1.1/DTD/svg11.dtd" [
	<!ENTITY ns_flows "http://ns.adobe.com/Flows/1.0/">
]>
<svg version="1.1"
	 xmlns="http://www.w3.org/2000/svg" xmlns:xlink="http://www.w3.org/1999/xlink" xmlns:a="http://ns.adobe.com/AdobeSVGViewerExtensions/3.0/"
	 x="0px" y="0px" width="126px" height="21px" viewBox="1.023 24.431 126 21" enable-background="new 1.023 24.431 126 21"
	 xml:space="preserve">
<defs>
</defs>
<g>
	<path d="M2.779,3.936h14.205v2.167h-5.928v14.862H8.61V6.102H2.779V3.936z"/>
	<path d="M23.496,13.84l-1.85-1.124c-1.161-0.709-1.986-1.406-2.478-2.092c-0.491-0.686-0.736-1.475-0.736-2.367
		c0-1.339,0.465-2.426,1.394-3.262c0.93-0.836,2.137-1.254,3.621-1.254c1.42,0,2.723,0.399,3.907,1.196V7.7
		c-1.226-1.179-2.544-1.768-3.956-1.768c-0.795,0-1.448,0.184-1.959,0.552c-0.512,0.368-0.768,0.839-0.768,1.413
		c0,0.509,0.188,0.986,0.565,1.431c0.376,0.445,0.982,0.912,1.816,1.4l1.859,1.1c2.074,1.239,3.111,2.816,3.111,4.731
		c0,1.363-0.457,2.471-1.369,3.323c-0.913,0.852-2.1,1.278-3.561,1.278c-1.68,0-3.21-0.516-4.589-1.549v-3.092
		c1.314,1.666,2.836,2.498,4.564,2.498c0.763,0,1.397-0.212,1.905-0.637c0.507-0.424,0.761-0.956,0.761-1.595
		C25.736,15.75,24.989,14.769,23.496,13.84z"/>
	<path d="M42.534,3.96h2.446v9.652c0,1.307-0.096,2.292-0.286,2.958s-0.426,1.219-0.706,1.662c-0.279,0.442-0.623,0.838-1.028,1.187
		c-1.347,1.161-3.108,1.741-5.283,1.741c-2.215,0-3.992-0.576-5.331-1.729c-0.405-0.357-0.748-0.756-1.028-1.199
		s-0.512-0.984-0.694-1.625c-0.182-0.641-0.273-1.647-0.273-3.019V3.96h2.446v9.652c0,1.599,0.183,2.71,0.548,3.335
		s0.921,1.125,1.668,1.503c0.746,0.377,1.627,0.566,2.642,0.566c1.444,0,2.62-0.377,3.529-1.132
		c0.479-0.406,0.823-0.884,1.035-1.436c0.211-0.552,0.316-1.498,0.316-2.836V3.96z"/>
</g>
<g>
	<path d="M3.412,27.051h14.205v2.167h-5.928V44.08H9.243V29.217H3.412V27.051z"/>
	<path d="M24.129,36.955l-1.85-1.124c-1.161-0.709-1.986-1.406-2.478-2.092c-0.491-0.686-0.736-1.475-0.736-2.367
		c0-1.339,0.465-2.426,1.394-3.262c0.93-0.836,2.137-1.254,3.621-1.254c1.42,0,2.723,0.399,3.907,1.196v2.763
		c-1.226-1.179-2.544-1.768-3.956-1.768c-0.795,0-1.448,0.184-1.959,0.552c-0.512,0.368-0.768,0.839-0.768,1.413
		c0,0.509,0.188,0.986,0.565,1.431c0.376,0.445,0.982,0.912,1.816,1.4l1.859,1.1c2.074,1.239,3.111,2.816,3.111,4.731
		c0,1.363-0.457,2.471-1.369,3.323c-0.913,0.852-2.1,1.278-3.561,1.278c-1.68,0-3.21-0.516-4.589-1.549v-3.092
		c1.314,1.666,2.836,2.498,4.564,2.498c0.763,0,1.397-0.212,1.905-0.637c0.507-0.424,0.761-0.956,0.761-1.595
		C26.369,38.865,25.622,37.884,24.129,36.955z"/>
	<path d="M43.167,27.075h2.446v9.652c0,1.307-0.096,2.292-0.286,2.958s-0.426,1.219-0.706,1.662
		c-0.279,0.442-0.623,0.838-1.028,1.187c-1.347,1.161-3.108,1.741-5.283,1.741c-2.215,0-3.992-0.576-5.331-1.729
		c-0.405-0.357-0.748-0.756-1.028-1.199s-0.512-0.984-0.694-1.625c-0.182-0.641-0.273-1.647-0.273-3.019v-9.628h2.446v9.652
		c0,1.599,0.183,2.71,0.548,3.335s0.921,1.125,1.668,1.503c0.746,0.377,1.627,0.566,2.642,0.566c1.444,0,2.62-0.377,3.529-1.132
		c0.479-0.406,0.823-0.884,1.035-1.436c0.211-0.552,0.316-1.498,0.316-2.836V27.075z"/>
	<path d="M54.094,44.299l4.896-17.467h1.757l-4.883,17.467H54.094z"/>
	<path d="M73,27.075h2.435V44.08H73V27.075z"/>
	<path d="M86.754,26.856c1.559,0,2.847,0.818,3.865,2.453c1.019,1.635,1.527,3.711,1.527,6.226c0,2.581-0.509,4.678-1.527,6.293
		c-1.019,1.615-2.339,2.422-3.962,2.422c-1.647,0-2.971-0.791-3.969-2.374s-1.497-3.68-1.497-6.293c0-2.581,0.516-4.68,1.546-6.299
		C83.768,27.666,85.106,26.856,86.754,26.856z M86.778,29.169h-0.121c-0.934,0-1.674,0.574-2.222,1.722
		c-0.548,1.148-0.821,2.704-0.821,4.668c0,2.013,0.268,3.591,0.803,4.735c0.536,1.145,1.274,1.716,2.216,1.716
		s1.684-0.572,2.228-1.716c0.543-1.144,0.815-2.698,0.815-4.662c0-1.972-0.262-3.542-0.785-4.711S87.663,29.169,86.778,29.169z"/>
	<path d="M94.082,31.636c0-1.33,0.5-2.459,1.498-3.387c0.998-0.929,2.219-1.393,3.663-1.393c1.42,0,2.619,0.46,3.598,1.381
		c0.978,0.92,1.466,2.054,1.466,3.399c0,1.517-0.705,2.77-2.117,3.759c1.574,0.909,2.361,2.249,2.361,4.019
		c0,1.405-0.512,2.566-1.534,3.484s-2.313,1.376-3.87,1.376c-1.542,0-2.837-0.469-3.883-1.407c-1.047-0.938-1.57-2.097-1.57-3.478
		c0-1.73,0.803-3.062,2.41-3.995c-0.723-0.584-1.24-1.166-1.553-1.746S94.082,32.398,94.082,31.636z M102.092,39.515v-0.244
		c0-0.779-0.278-1.414-0.834-1.905c-0.556-0.491-1.276-0.736-2.16-0.736c-0.868,0-1.576,0.248-2.124,0.742
		c-0.548,0.495-0.822,1.136-0.822,1.923s0.28,1.428,0.84,1.923c0.561,0.495,1.286,0.742,2.18,0.742c0.852,0,1.552-0.227,2.1-0.682
		C101.818,40.826,102.092,40.237,102.092,39.515z M101.885,31.713c0-0.738-0.254-1.347-0.761-1.826
		c-0.507-0.479-1.15-0.718-1.93-0.718c-0.787,0-1.432,0.235-1.935,0.706c-0.504,0.471-0.755,1.076-0.755,1.814
		c0,0.706,0.266,1.311,0.797,1.813c0.531,0.503,1.171,0.755,1.917,0.755c0.738,0,1.367-0.25,1.887-0.749
		S101.885,32.411,101.885,31.713z"/>
	<path d="M111.683,26.856c1.559,0,2.847,0.818,3.865,2.453c1.019,1.635,1.527,3.711,1.527,6.226c0,2.581-0.509,4.678-1.527,6.293
		c-1.019,1.615-2.339,2.422-3.962,2.422c-1.647,0-2.971-0.791-3.969-2.374s-1.497-3.68-1.497-6.293c0-2.581,0.516-4.68,1.546-6.299
		C108.696,27.666,110.035,26.856,111.683,26.856z M111.707,29.169h-0.121c-0.934,0-1.674,0.574-2.222,1.722
		c-0.548,1.148-0.821,2.704-0.821,4.668c0,2.013,0.268,3.591,0.803,4.735c0.536,1.145,1.274,1.716,2.216,1.716
		s1.684-0.572,2.228-1.716c0.543-1.144,0.815-2.698,0.815-4.662c0-1.972-0.262-3.542-0.785-4.711S112.592,29.169,111.707,29.169z"/>
	<path d="M119.364,29.303c0-0.925,0.333-1.718,0.998-2.38c0.665-0.661,1.465-0.992,2.397-0.992c0.926,0,1.717,0.331,2.374,0.992
		c0.657,0.662,0.986,1.455,0.986,2.38c0,0.933-0.329,1.73-0.986,2.392c-0.657,0.662-1.448,0.992-2.374,0.992
		c-0.933,0-1.732-0.331-2.397-0.992C119.697,31.033,119.364,30.236,119.364,29.303z M120.691,29.303c0,0.568,0.202,1.055,0.608,1.46
		c0.405,0.406,0.893,0.609,1.46,0.609c0.561,0,1.039-0.203,1.437-0.609s0.597-0.893,0.597-1.46s-0.197-1.051-0.591-1.449
		c-0.394-0.397-0.874-0.596-1.442-0.596c-0.576,0-1.064,0.199-1.466,0.596C120.892,28.252,120.691,28.735,120.691,29.303z"/>
</g>
<rect id="_x3C_Slice_x3E__119_" y="45.268" fill="none" width="15" height="3"/>
<rect id="_x3C_Slice_x3E__118_" x="1.986" y="25.306" fill="none" width="124.662" height="19.961"/>
</svg>
