<?xml version="1.0" encoding="utf-8"?>
<!-- Generator: Adobe Illustrator 15.1.0, SVG Export Plug-In  -->
<!DOCTYPE svg PUBLIC "-//W3C//DTD SVG 1.1//EN" "http://www.w3.org/Graphics/SVG/1.1/DTD/svg11.dtd" [
	<!ENTITY ns_flows "http://ns.adobe.com/Flows/1.0/">
]>
<svg version="1.1"
	 xmlns="http://www.w3.org/2000/svg" xmlns:xlink="http://www.w3.org/1999/xlink" xmlns:a="http://ns.adobe.com/AdobeSVGViewerExtensions/3.0/"
	 x="0px" y="0px" width="91px" height="20px" viewBox="0 27.372 91 20" enable-background="new 0 27.372 91 20"
	 xml:space="preserve">
<defs>
</defs>
<g>
	<path d="M80.233,3.96h7.547v2.167h-5.331v4.297c0.17-0.016,0.345-0.024,0.523-0.024c1.646,0,3.002,0.501,4.065,1.503
		c1.063,1.002,1.594,2.278,1.594,3.828c0,1.599-0.525,2.899-1.576,3.901c-1.051,1.002-2.412,1.503-4.083,1.503
		c-1.38,0-2.719-0.333-4.018-0.998v-2.507c1.226,0.795,2.423,1.193,3.591,1.193c1.022,0,1.881-0.298,2.574-0.895
		c0.694-0.596,1.041-1.329,1.041-2.197c0-0.901-0.377-1.653-1.132-2.258s-1.696-0.907-2.824-0.907c-0.966,0-1.623,0.082-1.972,0.244
		V3.96z"/>
	<path d="M99.026,3.741h0.999v9.543h1.898v2.069h-1.898v5.611h-2.374v-5.611h-7.193v-1.047L99.026,3.741z M97.651,13.284V8.355
		l-3.935,4.929H97.651z"/>
	<path d="M108.972,3.741c1.559,0,2.847,0.818,3.865,2.453c1.019,1.635,1.527,3.711,1.527,6.226c0,2.581-0.509,4.678-1.527,6.293
		c-1.019,1.615-2.339,2.422-3.962,2.422c-1.647,0-2.971-0.791-3.969-2.374s-1.497-3.68-1.497-6.293c0-2.581,0.516-4.68,1.546-6.299
		C105.985,4.55,107.324,3.741,108.972,3.741z M108.996,6.054h-0.121c-0.934,0-1.674,0.574-2.222,1.722
		c-0.548,1.148-0.821,2.704-0.821,4.668c0,2.013,0.268,3.591,0.803,4.735c0.536,1.145,1.274,1.716,2.216,1.716
		s1.684-0.572,2.228-1.716c0.543-1.144,0.815-2.698,0.815-4.662c0-1.972-0.262-3.542-0.785-4.711S109.881,6.054,108.996,6.054z"/>
	<path d="M116.652,6.188c0-0.925,0.333-1.718,0.998-2.38c0.665-0.661,1.465-0.992,2.397-0.992c0.926,0,1.717,0.331,2.374,0.992
		c0.657,0.662,0.986,1.455,0.986,2.38c0,0.933-0.329,1.73-0.986,2.392c-0.657,0.662-1.448,0.992-2.374,0.992
		c-0.933,0-1.732-0.331-2.397-0.992C116.985,7.918,116.652,7.121,116.652,6.188z M117.979,6.188c0,0.568,0.202,1.055,0.608,1.46
		c0.405,0.406,0.893,0.609,1.46,0.609c0.561,0,1.039-0.203,1.437-0.609s0.597-0.893,0.597-1.46s-0.197-1.051-0.591-1.449
		c-0.394-0.397-0.874-0.596-1.442-0.596c-0.576,0-1.064,0.199-1.466,0.596C118.18,5.137,117.979,5.62,117.979,6.188z"/>
</g>
<g>
	<g>
		<path d="M56.591,45.872c0.361-8.929,6.962-15.515,15.888-15.875c8.917-0.36,15.544,7.497,15.883,15.875
			c0.059,1.446,2.309,1.451,2.25,0C90.2,35.706,82.643,28.157,72.479,27.747c-10.155-0.41-17.752,8.57-18.138,18.125
			C54.282,47.323,56.532,47.317,56.591,45.872L56.591,45.872z"/>
	</g>
</g>
<rect id="_x3C_Slice_x3E__135_" y="27.372" fill="none" width="91" height="20"/>
<g>
	<path d="M51.062,35.801h-9.186v-1.594h9.186V35.801z M51.062,40.024h-9.186V38.43h9.186V40.024z"/>
</g>
<g>
	<g>
		<path d="M2.455,45.762c0.338-8.354,6.156-14.803,14.492-15.819c8.489-1.034,15.504,6.877,17.548,14.337
			c0.383,1.397,2.554,0.803,2.17-0.599c-2.579-9.414-10.962-17.055-21.082-15.822C6.578,28.956,0.555,37.111,0.205,45.762
			C0.146,47.213,2.396,47.208,2.455,45.762L2.455,45.762z"/>
	</g>
</g>
<g>
	<g>
		<path d="M36.794,45.69c0.052-2.44,0.714-4.749,1.474-7.051c0.304-0.921-1.145-1.313-1.447-0.398
			c-0.803,2.43-1.473,4.875-1.526,7.449C35.273,46.658,36.773,46.656,36.794,45.69L36.794,45.69z"/>
	</g>
</g>
<g>
	<g>
		<path d="M36.574,45.451c-2.141-1.972-3.379-4.63-6.152-5.867c-0.875-0.391-1.639,0.901-0.756,1.295
			c2.635,1.176,3.809,3.755,5.848,5.633C36.224,47.166,37.287,46.108,36.574,45.451L36.574,45.451z"/>
	</g>
</g>
</svg>
