<?xml version="1.0" encoding="utf-8"?>
<!-- Generator: Adobe Illustrator 15.1.0, SVG Export Plug-In  -->
<!DOCTYPE svg PUBLIC "-//W3C//DTD SVG 1.1//EN" "http://www.w3.org/Graphics/SVG/1.1/DTD/svg11.dtd" [
	<!ENTITY ns_flows "http://ns.adobe.com/Flows/1.0/">
]>
<svg version="1.1"
	 xmlns="http://www.w3.org/2000/svg" xmlns:xlink="http://www.w3.org/1999/xlink" xmlns:a="http://ns.adobe.com/AdobeSVGViewerExtensions/3.0/"
	 x="0px" y="0px" width="141px" height="21px" viewBox="0 0.867 141 21" enable-background="new 0 0.867 141 21"
	 xml:space="preserve">
<defs>
</defs>
<g>
	<path d="M98.454,11.068h0.146c1.063,0,1.872-0.219,2.428-0.657c0.557-0.438,0.834-1.075,0.834-1.911c0-0.754-0.27-1.367-0.81-1.838
		c-0.539-0.471-1.247-0.706-2.124-0.706c-0.884,0-1.866,0.276-2.945,0.828V4.459c0.99-0.495,2.069-0.743,3.238-0.743
		c1.565,0,2.801,0.41,3.706,1.229c0.904,0.819,1.357,1.938,1.357,3.357c0,0.86-0.175,1.583-0.523,2.171
		c-0.35,0.588-0.905,1.093-1.668,1.514c0.665,0.26,1.152,0.579,1.461,0.956c0.309,0.378,0.548,0.834,0.718,1.371
		c0.171,0.536,0.256,1.104,0.256,1.705c0,1.486-0.495,2.714-1.485,3.685s-2.239,1.456-3.749,1.456c-1.29,0-2.536-0.313-3.736-0.938
		v-2.653c1.282,0.803,2.527,1.205,3.736,1.205c0.82,0,1.479-0.244,1.979-0.73s0.748-1.132,0.748-1.935
		c0-0.674-0.207-1.262-0.62-1.765c-0.244-0.284-0.514-0.493-0.81-0.627c-0.297-0.134-0.936-0.262-1.917-0.383l-0.22-0.024V11.068z"
		/>
	<path d="M114.083,3.911l0.243-0.17l1.473,1.85c-1.298,0.838-2.375,1.752-3.231,2.744c-0.856,0.992-1.516,2.159-1.978,3.5
		c0.9-0.463,1.797-0.694,2.689-0.694c1.339,0,2.467,0.475,3.384,1.424c0.917,0.95,1.376,2.114,1.376,3.494
		c0,1.42-0.499,2.625-1.497,3.615c-0.998,0.99-2.212,1.485-3.64,1.485c-1.599,0-2.891-0.562-3.877-1.686
		c-0.985-1.124-1.479-2.594-1.479-4.412c0-1.363,0.253-2.721,0.761-4.072c0.507-1.351,1.237-2.617,2.19-3.798
		C111.452,6.011,112.646,4.917,114.083,3.911z M110.066,14.355c-0.065,0.381-0.098,0.808-0.098,1.278
		c0,0.958,0.278,1.745,0.834,2.361c0.556,0.617,1.268,0.925,2.136,0.925c0.779,0,1.423-0.264,1.93-0.791s0.761-1.193,0.761-1.997
		c0-0.819-0.27-1.483-0.81-1.99c-0.54-0.507-1.252-0.761-2.136-0.761c-0.455,0-0.866,0.069-1.236,0.207
		C111.078,13.726,110.618,13.982,110.066,14.355z"/>
	<path d="M125.221,3.741c1.559,0,2.847,0.818,3.865,2.453c1.019,1.635,1.527,3.711,1.527,6.226c0,2.581-0.509,4.678-1.527,6.293
		c-1.019,1.615-2.339,2.422-3.962,2.422c-1.647,0-2.971-0.791-3.969-2.374s-1.497-3.68-1.497-6.293c0-2.581,0.516-4.68,1.546-6.299
		C122.234,4.55,123.573,3.741,125.221,3.741z M125.245,6.054h-0.121c-0.934,0-1.674,0.574-2.222,1.722
		c-0.548,1.148-0.821,2.704-0.821,4.668c0,2.013,0.268,3.591,0.803,4.735c0.536,1.145,1.274,1.716,2.216,1.716
		s1.684-0.572,2.228-1.716c0.543-1.144,0.815-2.698,0.815-4.662c0-1.972-0.262-3.542-0.785-4.711S126.13,6.054,125.245,6.054z"/>
	<path d="M132.901,6.188c0-0.925,0.333-1.718,0.998-2.38c0.665-0.661,1.465-0.992,2.397-0.992c0.926,0,1.717,0.331,2.374,0.992
		c0.657,0.662,0.986,1.455,0.986,2.38c0,0.933-0.329,1.73-0.986,2.392c-0.657,0.662-1.448,0.992-2.374,0.992
		c-0.933,0-1.732-0.331-2.397-0.992C133.234,7.918,132.901,7.121,132.901,6.188z M134.229,6.188c0,0.568,0.202,1.055,0.608,1.46
		c0.405,0.406,0.893,0.609,1.46,0.609c0.561,0,1.039-0.203,1.437-0.609s0.597-0.893,0.597-1.46s-0.197-1.051-0.591-1.449
		c-0.394-0.397-0.874-0.596-1.442-0.596c-0.576,0-1.064,0.199-1.466,0.596C134.429,5.137,134.229,5.62,134.229,6.188z"/>
</g>
<g>
	<g>
		<path d="M56.591,19.795c0.361-8.929,6.962-15.515,15.888-15.875c8.917-0.36,15.544,7.497,15.883,15.875
			c0.059,1.446,2.309,1.451,2.25,0C90.2,9.629,82.643,2.081,72.479,1.67c-10.155-0.41-17.752,8.57-18.138,18.125
			C54.282,21.247,56.532,21.241,56.591,19.795L56.591,19.795z"/>
	</g>
</g>
<rect id="_x3C_Slice_x3E__135_" y="1.2" fill="none" width="140.166" height="20.667"/>
<g>
	<path d="M51.062,10.669h-9.186V9.075h9.186V10.669z M51.062,14.893h-9.186v-1.594h9.186V14.893z"/>
</g>
<g>
	<g>
		<path d="M2.455,20.63C2.793,12.277,8.611,5.827,16.947,4.812c8.489-1.034,15.504,6.877,17.548,14.337
			c0.383,1.397,2.554,0.803,2.17-0.599C34.086,9.136,25.703,1.496,15.583,2.728C6.578,3.825,0.555,11.98,0.205,20.63
			C0.146,22.082,2.396,22.076,2.455,20.63L2.455,20.63z"/>
	</g>
</g>
<g>
	<g>
		<path d="M36.794,20.559c0.052-2.44,0.714-4.749,1.474-7.051c0.304-0.921-1.145-1.313-1.447-0.398
			c-0.803,2.43-1.473,4.875-1.526,7.449C35.273,21.526,36.773,21.524,36.794,20.559L36.794,20.559z"/>
	</g>
</g>
<g>
	<g>
		<path d="M36.574,20.32c-2.141-1.972-3.379-4.63-6.152-5.867c-0.875-0.391-1.639,0.901-0.756,1.295
			c2.635,1.176,3.809,3.755,5.848,5.633C36.224,22.035,37.287,20.977,36.574,20.32L36.574,20.32z"/>
	</g>
</g>
</svg>
