<?xml version="1.0" encoding="utf-8"?>
<!-- Generator: Adobe Illustrator 15.1.0, SVG Export Plug-In  -->
<!DOCTYPE svg PUBLIC "-//W3C//DTD SVG 1.1//EN" "http://www.w3.org/Graphics/SVG/1.1/DTD/svg11.dtd" [
	<!ENTITY ns_flows "http://ns.adobe.com/Flows/1.0/">
]>
<svg version="1.1"
	 xmlns="http://www.w3.org/2000/svg" xmlns:xlink="http://www.w3.org/1999/xlink" xmlns:a="http://ns.adobe.com/AdobeSVGViewerExtensions/3.0/"
	 x="0px" y="0px" width="97px" height="24px" viewBox="-0.252 -0.625 97 24" enable-background="new -0.252 -0.625 97 24"
	 xml:space="preserve">
<defs>
</defs>
<g>
	<g>
		<path d="M80.691,2.015c2.569,6.25,5.139,12.499,7.707,18.749c0.544,1.322,2.722,0.744,2.17-0.599
			C88,13.916,85.43,7.666,82.861,1.416C82.317,0.094,80.14,0.672,80.691,2.015L80.691,2.015z"/>
	</g>
</g>
<g>
	<g>
		<path d="M90.568,20.764c1.852-6.25,3.702-12.5,5.554-18.749c0.413-1.395-1.759-1.986-2.17-0.599
			c-1.851,6.25-3.702,12.5-5.554,18.749C87.985,21.56,90.157,22.151,90.568,20.764L90.568,20.764z"/>
	</g>
</g>
<g>
	<g>
		<path d="M57.725,2.571c5.094-0.207,9.877,0.422,14.455,2.786c4.941,2.551,11.42,11.252,2.879,14.334
			c-2.354,0.849-5.07,0.646-7.455,0.112c-6.101-1.369-4.537-7.966-1.672-11.44c3.749-4.543,10.396-5.322,15.845-5.598
			c1.444-0.073,1.45-2.323,0-2.25c-7.358,0.372-17.327,2.291-20.107,10.396c-2.745,8.004,3.859,12.005,11.165,11.483
			c6.299-0.45,10.995-5.925,7.539-12.063c-4.527-8.039-14.021-10.36-22.648-10.01C56.279,0.379,56.273,2.63,57.725,2.571
			L57.725,2.571z"/>
	</g>
</g>
<rect id="_x3C_Slice_x3E__118_" fill="none" width="96.623" height="22.875"/>
<g>
	<path d="M51.479,11.373h-9.186V9.778h9.186V11.373z M51.479,15.596h-9.186v-1.594h9.186V15.596z"/>
</g>
<g>
	<g>
		<path d="M2.873,21.333C3.211,12.98,9.029,6.53,17.365,5.515c8.489-1.034,15.504,6.877,17.548,14.337
			c0.383,1.397,2.554,0.803,2.17-0.599C34.504,9.839,26.121,2.199,16.001,3.431C6.996,4.528,0.973,12.683,0.623,21.333
			C0.564,22.785,2.814,22.779,2.873,21.333L2.873,21.333z"/>
	</g>
</g>
<g>
	<g>
		<path d="M37.212,21.262c0.052-2.44,0.714-4.749,1.474-7.051c0.304-0.921-1.145-1.313-1.447-0.398
			c-0.803,2.43-1.473,4.875-1.526,7.449C35.691,22.229,37.191,22.228,37.212,21.262L37.212,21.262z"/>
	</g>
</g>
<g>
	<g>
		<path d="M36.992,21.023c-2.141-1.972-3.379-4.63-6.152-5.867c-0.875-0.391-1.639,0.901-0.756,1.295
			c2.635,1.176,3.809,3.755,5.848,5.633C36.642,22.738,37.705,21.68,36.992,21.023L36.992,21.023z"/>
	</g>
</g>
</svg>
