<?xml version="1.0" encoding="utf-8"?>
<!-- Generator: Adobe Illustrator 15.1.0, SVG Export Plug-In  -->
<!DOCTYPE svg PUBLIC "-//W3C//DTD SVG 1.1//EN" "http://www.w3.org/Graphics/SVG/1.1/DTD/svg11.dtd" [
	<!ENTITY ns_flows "http://ns.adobe.com/Flows/1.0/">
]>
<svg version="1.1"
	 xmlns="http://www.w3.org/2000/svg" xmlns:xlink="http://www.w3.org/1999/xlink" xmlns:a="http://ns.adobe.com/AdobeSVGViewerExtensions/3.0/"
	 x="0px" y="0px" width="149px" height="25px" viewBox="-0.252 0.652 149 25" enable-background="new -0.252 0.652 149 25"
	 xml:space="preserve">
<defs>
</defs>
<g>
	<path d="M51.479,11.673h-9.186v-1.594h9.186V11.673z M51.479,15.896h-9.186v-1.594h9.186V15.896z"/>
</g>
<g>
	<g>
		<path d="M2.873,21.634C3.211,13.281,9.029,6.831,17.365,5.815c8.489-1.034,15.504,6.877,17.548,14.337
			c0.383,1.397,2.554,0.803,2.17-0.599C34.504,10.14,26.121,2.5,16.001,3.732C6.996,4.829,0.973,12.984,0.623,21.634
			C0.564,23.085,2.814,23.08,2.873,21.634L2.873,21.634z"/>
	</g>
</g>
<g>
	<g>
		<path d="M78.987,3.515c2.569,6.25,5.139,12.499,7.707,18.749c0.544,1.322,2.722,0.744,2.17-0.599
			c-2.569-6.25-5.139-12.499-7.707-18.749C80.613,1.594,78.436,2.172,78.987,3.515L78.987,3.515z"/>
	</g>
</g>
<g>
	<g>
		<path d="M88.864,22.264c1.852-6.25,3.702-12.5,5.554-18.749c0.413-1.395-1.759-1.986-2.17-0.599
			c-1.851,6.25-3.702,12.5-5.554,18.749C86.281,23.06,88.453,23.651,88.864,22.264L88.864,22.264z"/>
	</g>
</g>
<g>
	<g>
		<path d="M56.021,4.071c5.095-0.207,9.877,0.422,14.455,2.786c4.941,2.551,11.42,11.252,2.879,14.334
			c-2.354,0.849-5.07,0.646-7.455,0.112c-6.101-1.369-4.537-7.966-1.672-11.44c3.749-4.543,10.397-5.322,15.845-5.598
			c1.444-0.073,1.45-2.323,0-2.25c-7.358,0.372-17.327,2.291-20.107,10.396c-2.745,8.004,3.859,12.005,11.164,11.483
			c6.3-0.45,10.996-5.925,7.54-12.063c-4.527-8.039-14.021-10.36-22.648-10.01C54.575,1.879,54.569,4.13,56.021,4.071L56.021,4.071z
			"/>
	</g>
</g>
<g>
	<path d="M107.06,3.96h2.435v17.004h-2.435V3.96z"/>
	<path d="M115.677,8.521c0-1.33,0.5-2.459,1.498-3.387c0.998-0.929,2.219-1.393,3.663-1.393c1.42,0,2.619,0.46,3.598,1.381
		c0.978,0.92,1.466,2.054,1.466,3.399c0,1.517-0.705,2.77-2.117,3.759c1.574,0.909,2.361,2.249,2.361,4.019
		c0,1.405-0.512,2.566-1.534,3.484s-2.313,1.376-3.87,1.376c-1.542,0-2.837-0.469-3.883-1.407c-1.047-0.938-1.57-2.097-1.57-3.478
		c0-1.73,0.803-3.062,2.41-3.995c-0.723-0.584-1.24-1.166-1.553-1.746S115.677,9.283,115.677,8.521z M123.687,16.4v-0.244
		c0-0.779-0.278-1.414-0.834-1.905c-0.556-0.491-1.276-0.736-2.16-0.736c-0.868,0-1.576,0.248-2.124,0.742
		c-0.548,0.495-0.822,1.136-0.822,1.923s0.28,1.428,0.84,1.923c0.561,0.495,1.286,0.742,2.18,0.742c0.852,0,1.552-0.227,2.1-0.682
		C123.413,17.71,123.687,17.122,123.687,16.4z M123.479,8.598c0-0.738-0.254-1.347-0.761-1.826c-0.507-0.479-1.15-0.718-1.93-0.718
		c-0.787,0-1.432,0.235-1.935,0.706c-0.504,0.471-0.755,1.076-0.755,1.814c0,0.706,0.266,1.311,0.797,1.813
		c0.531,0.503,1.171,0.755,1.917,0.755c0.738,0,1.367-0.25,1.887-0.749S123.479,9.295,123.479,8.598z"/>
	<path d="M133.278,3.741c1.559,0,2.847,0.818,3.865,2.453c1.019,1.635,1.527,3.711,1.527,6.226c0,2.581-0.509,4.678-1.527,6.293
		c-1.019,1.615-2.339,2.422-3.962,2.422c-1.647,0-2.971-0.791-3.969-2.374s-1.497-3.68-1.497-6.293c0-2.581,0.516-4.68,1.546-6.299
		C130.292,4.55,131.631,3.741,133.278,3.741z M133.303,6.054h-0.121c-0.934,0-1.674,0.574-2.222,1.722
		c-0.548,1.148-0.821,2.704-0.821,4.668c0,2.013,0.268,3.591,0.803,4.735c0.536,1.145,1.274,1.716,2.216,1.716
		s1.684-0.572,2.228-1.716c0.543-1.144,0.815-2.698,0.815-4.662c0-1.972-0.262-3.542-0.785-4.711S134.188,6.054,133.303,6.054z"/>
	<path d="M140.959,6.188c0-0.925,0.333-1.718,0.998-2.38c0.665-0.661,1.465-0.992,2.397-0.992c0.926,0,1.717,0.331,2.374,0.992
		c0.657,0.662,0.986,1.455,0.986,2.38c0,0.933-0.329,1.73-0.986,2.392c-0.657,0.662-1.448,0.992-2.374,0.992
		c-0.933,0-1.732-0.331-2.397-0.992C141.292,7.918,140.959,7.121,140.959,6.188z M142.286,6.188c0,0.568,0.202,1.055,0.608,1.46
		c0.405,0.406,0.893,0.609,1.46,0.609c0.561,0,1.039-0.203,1.437-0.609s0.597-0.893,0.597-1.46s-0.197-1.051-0.591-1.449
		c-0.394-0.397-0.874-0.596-1.442-0.596c-0.576,0-1.064,0.199-1.466,0.596C142.486,5.137,142.286,5.62,142.286,6.188z"/>
</g>
<rect id="_x3C_Slice_x3E__118_" y="0.818" fill="none" width="148.248" height="24"/>
<g>
	<g>
		<path d="M37.212,21.563c0.052-2.44,0.714-4.749,1.474-7.051c0.304-0.921-1.145-1.313-1.447-0.398
			c-0.803,2.43-1.473,4.875-1.526,7.449C35.691,22.53,37.191,22.528,37.212,21.563L37.212,21.563z"/>
	</g>
</g>
<g>
	<g>
		<path d="M36.992,21.324c-2.141-1.972-3.379-4.63-6.152-5.867c-0.875-0.391-1.639,0.901-0.756,1.295
			c2.635,1.176,3.809,3.755,5.848,5.633C36.642,23.039,37.705,21.98,36.992,21.324L36.992,21.324z"/>
	</g>
</g>
</svg>
