<?xml version="1.0" encoding="utf-8"?>
<!-- Generator: Adobe Illustrator 15.1.0, SVG Export Plug-In  -->
<!DOCTYPE svg PUBLIC "-//W3C//DTD SVG 1.1//EN" "http://www.w3.org/Graphics/SVG/1.1/DTD/svg11.dtd" [
	<!ENTITY ns_flows "http://ns.adobe.com/Flows/1.0/">
]>
<svg version="1.1"
	 xmlns="http://www.w3.org/2000/svg" xmlns:xlink="http://www.w3.org/1999/xlink" xmlns:a="http://ns.adobe.com/AdobeSVGViewerExtensions/3.0/"
	 x="0px" y="0px" width="168px" height="25px" viewBox="0 27.883 168 25" enable-background="new 0 27.883 168 25"
	 xml:space="preserve">
<defs>
</defs>
<g>
	<path d="M114.592,3.96h2.435v17.004h-2.435V3.96z"/>
	<path d="M123.209,8.521c0-1.33,0.5-2.459,1.498-3.387c0.998-0.929,2.219-1.393,3.663-1.393c1.42,0,2.619,0.46,3.598,1.381
		c0.978,0.92,1.466,2.054,1.466,3.399c0,1.517-0.705,2.77-2.117,3.759c1.574,0.909,2.361,2.249,2.361,4.019
		c0,1.405-0.512,2.566-1.534,3.484s-2.313,1.376-3.87,1.376c-1.542,0-2.837-0.469-3.883-1.407c-1.047-0.938-1.57-2.097-1.57-3.478
		c0-1.73,0.803-3.062,2.41-3.995c-0.723-0.584-1.24-1.166-1.553-1.746S123.209,9.283,123.209,8.521z M131.219,16.4v-0.244
		c0-0.779-0.278-1.414-0.834-1.905c-0.556-0.491-1.276-0.736-2.16-0.736c-0.868,0-1.576,0.248-2.124,0.742
		c-0.548,0.495-0.822,1.136-0.822,1.923s0.28,1.428,0.84,1.923c0.561,0.495,1.286,0.742,2.18,0.742c0.852,0,1.552-0.227,2.1-0.682
		C130.945,17.71,131.219,17.122,131.219,16.4z M131.012,8.598c0-0.738-0.254-1.347-0.761-1.826c-0.507-0.479-1.15-0.718-1.93-0.718
		c-0.787,0-1.432,0.235-1.935,0.706c-0.504,0.471-0.755,1.076-0.755,1.814c0,0.706,0.266,1.311,0.797,1.813
		c0.531,0.503,1.171,0.755,1.917,0.755c0.738,0,1.367-0.25,1.887-0.749S131.012,9.295,131.012,8.598z"/>
	<path d="M140.811,3.741c1.559,0,2.847,0.818,3.865,2.453c1.019,1.635,1.527,3.711,1.527,6.226c0,2.581-0.509,4.678-1.527,6.293
		c-1.019,1.615-2.339,2.422-3.962,2.422c-1.647,0-2.971-0.791-3.969-2.374s-1.497-3.68-1.497-6.293c0-2.581,0.516-4.68,1.546-6.299
		C137.824,4.55,139.163,3.741,140.811,3.741z M140.835,6.054h-0.121c-0.934,0-1.674,0.574-2.222,1.722
		c-0.548,1.148-0.821,2.704-0.821,4.668c0,2.013,0.268,3.591,0.803,4.735c0.536,1.145,1.274,1.716,2.216,1.716
		s1.684-0.572,2.228-1.716c0.543-1.144,0.815-2.698,0.815-4.662c0-1.972-0.262-3.542-0.785-4.711S141.72,6.054,140.835,6.054z"/>
	<path d="M148.491,6.188c0-0.925,0.333-1.718,0.998-2.38c0.665-0.661,1.465-0.992,2.397-0.992c0.926,0,1.717,0.331,2.374,0.992
		c0.657,0.662,0.986,1.455,0.986,2.38c0,0.933-0.329,1.73-0.986,2.392c-0.657,0.662-1.448,0.992-2.374,0.992
		c-0.933,0-1.732-0.331-2.397-0.992C148.824,7.918,148.491,7.121,148.491,6.188z M149.818,6.188c0,0.568,0.202,1.055,0.608,1.46
		c0.405,0.406,0.893,0.609,1.46,0.609c0.561,0,1.039-0.203,1.437-0.609s0.597-0.893,0.597-1.46s-0.197-1.051-0.591-1.449
		c-0.394-0.397-0.874-0.596-1.442-0.596c-0.576,0-1.064,0.199-1.466,0.596C150.019,5.137,149.818,5.62,149.818,6.188z"/>
</g>
<g>
	<path d="M126.247,32.466h2.435v17.004h-2.435V32.466z"/>
	<path d="M134.864,37.027c0-1.33,0.5-2.459,1.498-3.387c0.998-0.929,2.219-1.393,3.663-1.393c1.42,0,2.619,0.46,3.598,1.381
		c0.978,0.92,1.466,2.054,1.466,3.399c0,1.517-0.705,2.77-2.117,3.759c1.574,0.909,2.361,2.249,2.361,4.019
		c0,1.405-0.512,2.566-1.534,3.484s-2.313,1.376-3.87,1.376c-1.542,0-2.837-0.469-3.883-1.407c-1.047-0.938-1.57-2.097-1.57-3.478
		c0-1.73,0.803-3.062,2.41-3.995c-0.723-0.584-1.24-1.166-1.553-1.746S134.864,37.79,134.864,37.027z M142.874,44.906v-0.244
		c0-0.779-0.278-1.414-0.834-1.905c-0.556-0.491-1.276-0.736-2.16-0.736c-0.868,0-1.576,0.248-2.124,0.742
		c-0.548,0.495-0.822,1.136-0.822,1.923s0.28,1.428,0.84,1.923c0.561,0.495,1.286,0.742,2.18,0.742c0.852,0,1.552-0.227,2.1-0.682
		C142.601,46.217,142.874,45.628,142.874,44.906z M142.667,37.104c0-0.738-0.254-1.347-0.761-1.826
		c-0.507-0.479-1.15-0.718-1.93-0.718c-0.787,0-1.432,0.235-1.935,0.706c-0.504,0.471-0.755,1.076-0.755,1.814
		c0,0.706,0.266,1.311,0.797,1.813c0.531,0.503,1.171,0.755,1.917,0.755c0.738,0,1.367-0.25,1.887-0.749
		S142.667,37.802,142.667,37.104z"/>
	<path d="M152.466,32.247c1.559,0,2.847,0.818,3.865,2.453c1.019,1.635,1.527,3.711,1.527,6.226c0,2.581-0.509,4.678-1.527,6.293
		c-1.019,1.615-2.339,2.422-3.962,2.422c-1.647,0-2.971-0.791-3.969-2.374s-1.497-3.68-1.497-6.293c0-2.581,0.516-4.68,1.546-6.299
		C149.479,33.057,150.818,32.247,152.466,32.247z M152.49,34.56h-0.121c-0.934,0-1.674,0.574-2.222,1.722
		c-0.548,1.148-0.821,2.704-0.821,4.668c0,2.013,0.268,3.591,0.803,4.735c0.536,1.145,1.274,1.716,2.216,1.716
		s1.684-0.572,2.228-1.716c0.543-1.144,0.815-2.698,0.815-4.662c0-1.972-0.262-3.542-0.785-4.711S153.375,34.56,152.49,34.56z"/>
	<path d="M160.146,34.694c0-0.925,0.333-1.718,0.998-2.38c0.665-0.661,1.465-0.992,2.397-0.992c0.926,0,1.717,0.331,2.374,0.992
		c0.657,0.662,0.986,1.455,0.986,2.38c0,0.933-0.329,1.73-0.986,2.392c-0.657,0.662-1.448,0.992-2.374,0.992
		c-0.933,0-1.732-0.331-2.397-0.992C160.479,36.424,160.146,35.627,160.146,34.694z M161.474,34.694c0,0.568,0.202,1.055,0.608,1.46
		c0.405,0.406,0.893,0.609,1.46,0.609c0.561,0,1.039-0.203,1.437-0.609s0.597-0.893,0.597-1.46s-0.197-1.051-0.591-1.449
		c-0.394-0.397-0.874-0.596-1.442-0.596c-0.576,0-1.064,0.199-1.466,0.596C161.674,33.643,161.474,34.126,161.474,34.694z"/>
</g>
<g>
	<g>
		<path d="M55.605,31.928c4.925-0.213,9.723,0.442,14.205,2.571c7.053,3.35,10.888,13.884,0.377,15.08
			c-2.75,0.313-5.688-0.493-7.772-2.311c-3.903-3.403,0.683-9.369,3.495-11.467c4.035-3.008,9.766-3.522,14.609-3.705
			c1.446-0.055,1.451-2.305,0-2.25c-7.602,0.287-15.883,1.801-20.15,8.769c-4.478,7.313,1.438,12.81,8.611,13.24
			c7.998,0.479,12.523-6.121,8.785-13.102c-4.048-7.562-14.434-9.41-22.16-9.076C54.16,29.741,54.154,31.991,55.605,31.928
			L55.605,31.928z"/>
	</g>
</g>
<g>
	<g>
		<path d="M101.324,31.664c2.569,6.25,5.139,12.5,7.707,18.749c0.544,1.323,2.722,0.744,2.17-0.598
			c-2.569-6.25-5.139-12.5-7.707-18.749C102.95,29.744,100.772,30.322,101.324,31.664L101.324,31.664z"/>
	</g>
</g>
<g>
	<g>
		<path d="M111.201,50.413c1.852-6.25,3.702-12.499,5.554-18.749c0.413-1.395-1.759-1.986-2.169-0.598
			c-1.852,6.25-3.703,12.499-5.555,18.749C108.618,51.21,110.79,51.801,111.201,50.413L111.201,50.413z"/>
	</g>
</g>
<g>
	<g>
		<path d="M78.357,32.221c5.095-0.207,9.877,0.422,14.455,2.786c4.941,2.551,11.42,11.252,2.879,14.334
			c-2.354,0.849-5.07,0.646-7.455,0.112c-6.101-1.369-4.537-7.966-1.672-11.44c3.749-4.543,10.396-5.322,15.845-5.598
			c1.444-0.073,1.45-2.323,0-2.25c-7.358,0.372-17.327,2.292-20.107,10.396c-2.745,8.003,3.859,12.005,11.164,11.483
			c6.3-0.45,10.996-5.925,7.54-12.063c-4.527-8.039-14.021-10.36-22.648-10.01C76.912,30.029,76.906,32.28,78.357,32.221
			L78.357,32.221z"/>
	</g>
</g>
<rect id="_x3C_Slice_x3E__118_" y="28.05" fill="none" width="168" height="24.667"/>
<g>
	<path d="M52.714,39.169h-9.186v-1.594h9.186V39.169z M52.714,43.392h-9.186v-1.594h9.186V43.392z"/>
</g>
<g>
	<g>
		<path d="M4.107,49.13c0.338-8.354,6.156-14.803,14.492-15.819c8.489-1.034,15.504,6.877,17.548,14.337
			c0.383,1.397,2.554,0.803,2.17-0.599c-2.579-9.414-10.962-17.055-21.082-15.822C8.23,32.324,2.207,40.479,1.857,49.13
			C1.799,50.581,4.049,50.576,4.107,49.13L4.107,49.13z"/>
	</g>
</g>
<g>
	<g>
		<path d="M38.446,49.058c0.052-2.44,0.714-4.749,1.474-7.051c0.304-0.921-1.145-1.313-1.447-0.398
			c-0.803,2.43-1.473,4.875-1.526,7.449C36.926,50.026,38.426,50.024,38.446,49.058L38.446,49.058z"/>
	</g>
</g>
<g>
	<g>
		<path d="M38.227,48.819c-2.141-1.972-3.379-4.63-6.152-5.867c-0.875-0.391-1.639,0.901-0.756,1.295
			c2.635,1.176,3.809,3.755,5.848,5.633C37.876,50.534,38.939,49.476,38.227,48.819L38.227,48.819z"/>
	</g>
</g>
</svg>
