<?xml version="1.0" encoding="utf-8"?>
<!-- Generator: Adobe Illustrator 15.1.0, SVG Export Plug-In  -->
<!DOCTYPE svg PUBLIC "-//W3C//DTD SVG 1.1//EN" "http://www.w3.org/Graphics/SVG/1.1/DTD/svg11.dtd" [
	<!ENTITY ns_flows "http://ns.adobe.com/Flows/1.0/">
]>
<svg version="1.1"
	 xmlns="http://www.w3.org/2000/svg" xmlns:xlink="http://www.w3.org/1999/xlink" xmlns:a="http://ns.adobe.com/AdobeSVGViewerExtensions/3.0/"
	 x="0px" y="0px" width="150px" height="29px" viewBox="0 -0.5 150 29" enable-background="new 0 -0.5 150 29" xml:space="preserve"
	>
<defs>
</defs>
<g>
	<path d="M108.035,8.167h2.435v17.004h-2.435V8.167z"/>
	<path d="M116.652,12.729c0-1.33,0.5-2.459,1.498-3.387c0.998-0.929,2.219-1.393,3.663-1.393c1.42,0,2.619,0.46,3.598,1.381
		c0.978,0.92,1.466,2.054,1.466,3.399c0,1.517-0.705,2.77-2.117,3.759c1.574,0.909,2.361,2.249,2.361,4.019
		c0,1.405-0.512,2.566-1.534,3.484s-2.313,1.376-3.87,1.376c-1.542,0-2.837-0.469-3.883-1.407c-1.047-0.938-1.57-2.097-1.57-3.478
		c0-1.73,0.803-3.062,2.41-3.995c-0.723-0.584-1.24-1.166-1.553-1.746S116.652,13.491,116.652,12.729z M124.662,20.607v-0.244
		c0-0.779-0.278-1.414-0.834-1.905c-0.556-0.491-1.276-0.736-2.16-0.736c-0.868,0-1.576,0.248-2.124,0.742
		c-0.548,0.495-0.822,1.136-0.822,1.923s0.28,1.428,0.84,1.923c0.561,0.495,1.286,0.742,2.18,0.742c0.852,0,1.552-0.227,2.1-0.682
		C124.389,21.918,124.662,21.33,124.662,20.607z M124.455,12.805c0-0.738-0.254-1.347-0.761-1.826
		c-0.507-0.479-1.15-0.718-1.93-0.718c-0.787,0-1.432,0.235-1.935,0.706c-0.504,0.471-0.755,1.076-0.755,1.814
		c0,0.706,0.266,1.311,0.797,1.813c0.531,0.503,1.171,0.755,1.917,0.755c0.738,0,1.367-0.25,1.887-0.749
		S124.455,13.503,124.455,12.805z"/>
	<path d="M134.254,7.948c1.559,0,2.847,0.818,3.865,2.453c1.019,1.635,1.527,3.711,1.527,6.226c0,2.581-0.509,4.678-1.527,6.293
		c-1.019,1.615-2.339,2.422-3.962,2.422c-1.647,0-2.971-0.791-3.969-2.374s-1.497-3.68-1.497-6.293c0-2.581,0.516-4.68,1.546-6.299
		C131.268,8.758,132.606,7.948,134.254,7.948z M134.278,10.261h-0.121c-0.934,0-1.674,0.574-2.222,1.722
		c-0.548,1.148-0.821,2.704-0.821,4.668c0,2.013,0.268,3.591,0.803,4.735c0.536,1.145,1.274,1.716,2.216,1.716
		s1.684-0.572,2.228-1.716c0.543-1.144,0.815-2.698,0.815-4.662c0-1.972-0.262-3.542-0.785-4.711S135.163,10.261,134.278,10.261z"/>
	<path d="M141.935,10.395c0-0.925,0.333-1.718,0.998-2.38c0.665-0.661,1.465-0.992,2.397-0.992c0.926,0,1.717,0.331,2.374,0.992
		c0.657,0.662,0.986,1.455,0.986,2.38c0,0.933-0.329,1.73-0.986,2.392c-0.657,0.662-1.448,0.992-2.374,0.992
		c-0.933,0-1.732-0.331-2.397-0.992C142.268,12.125,141.935,11.328,141.935,10.395z M143.262,10.395c0,0.568,0.202,1.055,0.608,1.46
		c0.405,0.406,0.893,0.609,1.46,0.609c0.561,0,1.039-0.203,1.437-0.609s0.597-0.893,0.597-1.46s-0.197-1.051-0.591-1.449
		c-0.394-0.397-0.874-0.596-1.442-0.596c-0.576,0-1.064,0.199-1.466,0.596C143.462,9.344,143.262,9.827,143.262,10.395z"/>
</g>
<g>
	<g>
		<path d="M58.043,14.73c2.872-0.125,5.683,0.238,8.299,1.48c3.771,1.791,6.329,7.545,0.453,8.214
			c-1.528,0.174-3.185-0.24-4.348-1.255c-2.068-1.803,0.542-5.083,2.009-6.177c2.363-1.761,5.707-2.056,8.543-2.163
			c1.446-0.055,1.451-2.305,0-2.25c-4.73,0.179-9.831,1.158-12.484,5.487c-2.875,4.693,0.924,8.347,5.555,8.624
			c5.153,0.308,8.059-4.067,5.664-8.541c-2.506-4.68-8.894-5.878-13.69-5.67C56.598,12.543,56.592,14.793,58.043,14.73L58.043,14.73
			z"/>
	</g>
</g>
<g>
	<g>
		<path d="M72.999,14.842c2.229-0.053,4.314,0.157,6.467,0.75c2.666,0.735,9.121,7.034,3.004,8.656
			c-3.227,0.855-8.266-1.066-4.16-6.267c0.7-0.887,1.861-1.586,2.745-2.276c5.556-4.338,11.249-8.561,17.271-12.236
			c1.235-0.754,0.105-2.701-1.137-1.942c-6.454,3.94-12.508,8.514-18.463,13.164c-3.583,2.798-6.779,8.837-1.067,11.316
			c3.504,1.521,8.601,0.528,9.823-3.408c2.288-7.373-9.908-10.115-14.482-10.007C71.55,12.626,71.548,14.876,72.999,14.842
			L72.999,14.842z"/>
	</g>
</g>
<rect id="_x3C_Slice_x3E__118_" fill="none" width="149.834" height="27.667"/>
<g>
	<path d="M52.327,16.245h-9.186V14.65h9.186V16.245z M52.327,20.468h-9.186v-1.594h9.186V20.468z"/>
</g>
<g>
	<g>
		<path d="M3.721,26.206c0.338-8.354,6.156-14.803,14.492-15.819c8.489-1.034,15.504,6.877,17.548,14.337
			c0.383,1.397,2.554,0.803,2.17-0.599C35.352,14.711,26.969,7.071,16.849,8.303C7.844,9.4,1.82,17.555,1.471,26.206
			C1.412,27.657,3.662,27.651,3.721,26.206L3.721,26.206z"/>
	</g>
</g>
<g>
	<g>
		<path d="M38.06,26.134c0.052-2.44,0.714-4.749,1.474-7.051c0.304-0.921-1.145-1.313-1.447-0.398
			c-0.803,2.43-1.473,4.875-1.526,7.449C36.539,27.102,38.039,27.1,38.06,26.134L38.06,26.134z"/>
	</g>
</g>
<g>
	<g>
		<path d="M37.84,25.895c-2.141-1.972-3.379-4.63-6.152-5.867c-0.875-0.391-1.639,0.901-0.756,1.295
			c2.635,1.176,3.809,3.755,5.848,5.633C37.489,27.61,38.553,26.552,37.84,25.895L37.84,25.895z"/>
	</g>
</g>
</svg>
