<?xml version="1.0" encoding="utf-8"?>
<!-- Generator: Adobe Illustrator 15.1.0, SVG Export Plug-In  -->
<!DOCTYPE svg PUBLIC "-//W3C//DTD SVG 1.1//EN" "http://www.w3.org/Graphics/SVG/1.1/DTD/svg11.dtd" [
	<!ENTITY ns_flows "http://ns.adobe.com/Flows/1.0/">
]>
<svg version="1.1"
	 xmlns="http://www.w3.org/2000/svg" xmlns:xlink="http://www.w3.org/1999/xlink" xmlns:a="http://ns.adobe.com/AdobeSVGViewerExtensions/3.0/"
	 x="0px" y="0px" width="32px" height="23px" viewBox="-0.688 -0.438 32 23" enable-background="new -0.688 -0.438 32 23"
	 xml:space="preserve">
<defs>
</defs>
<g>
	<g>
		<path d="M1.313,2.479c6.813-0.274,13.291,1.007,18.4,5.77c5.588,5.21,2.955,11.362-4.074,11.895
			c-6.904,0.523-10.896-4.52-6.878-10.908c4.13-6.567,13.825-6.568,20.626-6.637c1.45-0.015,1.451-2.265,0-2.25
			C20.905,0.434,8.865,1.188,5.389,10.712c-2.678,7.336,2.414,11.371,9.293,11.694c6.1,0.287,11.227-3.281,10.244-9.67
			C23.379,2.69,9.326-0.094,1.313,0.229C-0.133,0.287-0.139,2.538,1.313,2.479L1.313,2.479z"/>
	</g>
</g>
<rect id="_x3C_Slice_x3E__118_" fill="none" width="30.75" height="22.563"/>
</svg>
