<?xml version="1.0" encoding="utf-8"?>
<!-- Generator: Adobe Illustrator 15.1.0, SVG Export Plug-In  -->
<!DOCTYPE svg PUBLIC "-//W3C//DTD SVG 1.1//EN" "http://www.w3.org/Graphics/SVG/1.1/DTD/svg11.dtd" [
	<!ENTITY ns_flows "http://ns.adobe.com/Flows/1.0/">
]>
<svg version="1.1"
	 xmlns="http://www.w3.org/2000/svg" xmlns:xlink="http://www.w3.org/1999/xlink" xmlns:a="http://ns.adobe.com/AdobeSVGViewerExtensions/3.0/"
	 x="0px" y="0px" width="41px" height="23px" viewBox="-0.688 -0.5 41 23" enable-background="new -0.688 -0.5 41 23"
	 xml:space="preserve">
<defs>
</defs>
<g>
	<g>
		<path d="M24.279,1.845c2.569,6.25,5.139,12.5,7.707,18.749c0.544,1.323,2.722,0.744,2.17-0.598
			c-2.569-6.25-5.139-12.5-7.707-18.749C25.905-0.075,23.728,0.503,24.279,1.845L24.279,1.845z"/>
	</g>
</g>
<g>
	<g>
		<path d="M34.156,20.594c1.852-6.25,3.702-12.499,5.554-18.749c0.413-1.395-1.759-1.986-2.17-0.598
			c-1.851,6.25-3.702,12.499-5.554,18.749C31.573,21.391,33.745,21.982,34.156,20.594L34.156,20.594z"/>
	</g>
</g>
<g>
	<g>
		<path d="M1.313,2.402c5.095-0.207,9.877,0.422,14.455,2.786c4.941,2.551,11.42,11.252,2.879,14.334
			c-2.354,0.849-5.07,0.646-7.455,0.112c-6.101-1.369-4.537-7.966-1.672-11.44c3.749-4.543,10.396-5.322,15.845-5.598
			c1.444-0.073,1.45-2.323,0-2.25C18.006,0.718,8.037,2.637,5.257,10.742c-2.745,8.003,3.859,12.005,11.164,11.483
			c6.3-0.45,10.996-5.925,7.54-12.063C19.434,2.123,9.939-0.198,1.313,0.152C-0.133,0.21-0.139,2.461,1.313,2.402L1.313,2.402z"/>
	</g>
</g>
<rect id="_x3C_Slice_x3E__118_" fill="none" width="39.938" height="22.5"/>
</svg>
