<?xml version="1.0" encoding="utf-8"?>
<!-- Generator: Adobe Illustrator 15.1.0, SVG Export Plug-In  -->
<!DOCTYPE svg PUBLIC "-//W3C//DTD SVG 1.1//EN" "http://www.w3.org/Graphics/SVG/1.1/DTD/svg11.dtd" [
	<!ENTITY ns_flows "http://ns.adobe.com/Flows/1.0/">
]>
<svg version="1.1"
	 xmlns="http://www.w3.org/2000/svg" xmlns:xlink="http://www.w3.org/1999/xlink" xmlns:a="http://ns.adobe.com/AdobeSVGViewerExtensions/3.0/"
	 x="0px" y="0px" width="26px" height="25px" viewBox="0 -0.563 26 25" enable-background="new 0 -0.563 26 25"
	 xml:space="preserve">
<defs>
</defs>
<g>
	<g>
		<path d="M1.697,12.663c2.027-0.047,3.922,0.143,5.879,0.682c2.365,0.652,8.191,6.27,2.742,7.714
			C7.439,21.822,2.96,20.133,6.615,15.5c0.639-0.81,1.699-1.448,2.506-2.078c5.067-3.956,10.259-7.806,15.75-11.157
			c1.235-0.754,0.105-2.701-1.137-1.942c-5.9,3.602-11.434,7.784-16.878,12.035c-3.321,2.593-6.228,8.198-0.954,10.486
			c3.258,1.414,7.977,0.489,9.112-3.17c2.112-6.806-9.071-9.36-13.317-9.261C0.248,10.447,0.246,12.697,1.697,12.663L1.697,12.663z"
			/>
	</g>
</g>
<rect id="_x3C_Slice_x3E__118_" fill="none" width="25.688" height="23.75"/>
</svg>
