<?xml version="1.0" encoding="utf-8"?>
<!-- Generator: Adobe Illustrator 15.1.0, SVG Export Plug-In  -->
<!DOCTYPE svg PUBLIC "-//W3C//DTD SVG 1.1//EN" "http://www.w3.org/Graphics/SVG/1.1/DTD/svg11.dtd" [
	<!ENTITY ns_flows "http://ns.adobe.com/Flows/1.0/">
]>
<svg version="1.1"
	 xmlns="http://www.w3.org/2000/svg" xmlns:xlink="http://www.w3.org/1999/xlink" xmlns:a="http://ns.adobe.com/AdobeSVGViewerExtensions/3.0/"
	 x="0px" y="0px" width="94px" height="23px" viewBox="-0.688 1 94 23" enable-background="new -0.688 1 94 23"
	 xml:space="preserve">
<defs>
</defs>
<g>
	<g>
		<path d="M24.279,3.514c2.569,6.25,5.139,12.5,7.707,18.749c0.544,1.323,2.722,0.744,2.17-0.598
			c-2.569-6.25-5.139-12.5-7.707-18.749C25.905,1.594,23.728,2.172,24.279,3.514L24.279,3.514z"/>
	</g>
</g>
<g>
	<g>
		<path d="M34.156,22.263c1.852-6.25,3.702-12.499,5.554-18.749c0.413-1.395-1.759-1.986-2.17-0.598
			c-1.851,6.25-3.702,12.499-5.554,18.749C31.573,23.06,33.745,23.651,34.156,22.263L34.156,22.263z"/>
	</g>
</g>
<g>
	<g>
		<path d="M1.313,4.071c5.095-0.207,9.877,0.422,14.455,2.786c4.941,2.551,11.42,11.252,2.879,14.334
			c-2.354,0.849-5.07,0.646-7.455,0.112c-6.101-1.369-4.537-7.966-1.672-11.44c3.749-4.543,10.396-5.322,15.845-5.598
			c1.444-0.073,1.45-2.323,0-2.25C18.006,2.387,8.037,4.306,5.257,12.411c-2.745,8.003,3.859,12.005,11.164,11.483
			c6.3-0.45,10.996-5.925,7.54-12.063C19.434,3.792,9.939,1.471,1.313,1.821C-0.133,1.879-0.139,4.13,1.313,4.071L1.313,4.071z"/>
	</g>
</g>
<g>
	<path d="M52.352,3.96h2.435v17.004h-2.435V3.96z"/>
	<path d="M60.969,8.521c0-1.33,0.5-2.459,1.498-3.387c0.998-0.929,2.219-1.393,3.663-1.393c1.42,0,2.619,0.46,3.598,1.381
		c0.978,0.92,1.466,2.054,1.466,3.399c0,1.517-0.705,2.77-2.117,3.759c1.574,0.909,2.361,2.249,2.361,4.019
		c0,1.405-0.512,2.566-1.534,3.484s-2.313,1.376-3.87,1.376c-1.542,0-2.837-0.469-3.883-1.407c-1.047-0.938-1.57-2.097-1.57-3.478
		c0-1.73,0.803-3.062,2.41-3.995c-0.723-0.584-1.24-1.166-1.553-1.746S60.969,9.283,60.969,8.521z M68.979,16.4v-0.244
		c0-0.779-0.278-1.414-0.834-1.905c-0.556-0.491-1.276-0.736-2.16-0.736c-0.868,0-1.576,0.248-2.124,0.742
		c-0.548,0.495-0.822,1.136-0.822,1.923s0.28,1.428,0.84,1.923c0.561,0.495,1.286,0.742,2.18,0.742c0.852,0,1.552-0.227,2.1-0.682
		C68.705,17.71,68.979,17.122,68.979,16.4z M68.771,8.598c0-0.738-0.254-1.347-0.761-1.826c-0.507-0.479-1.15-0.718-1.93-0.718
		c-0.787,0-1.432,0.235-1.935,0.706c-0.504,0.471-0.755,1.076-0.755,1.814c0,0.706,0.266,1.311,0.797,1.813
		c0.531,0.503,1.171,0.755,1.917,0.755c0.738,0,1.367-0.25,1.887-0.749S68.771,9.295,68.771,8.598z"/>
	<path d="M78.57,3.741c1.559,0,2.847,0.818,3.865,2.453c1.019,1.635,1.527,3.711,1.527,6.226c0,2.581-0.509,4.678-1.527,6.293
		c-1.019,1.615-2.339,2.422-3.962,2.422c-1.647,0-2.971-0.791-3.969-2.374s-1.497-3.68-1.497-6.293c0-2.581,0.516-4.68,1.546-6.299
		C75.584,4.55,76.923,3.741,78.57,3.741z M78.595,6.054h-0.121c-0.934,0-1.674,0.574-2.222,1.722
		c-0.548,1.148-0.821,2.704-0.821,4.668c0,2.013,0.268,3.591,0.803,4.735c0.536,1.145,1.274,1.716,2.216,1.716
		s1.684-0.572,2.228-1.716c0.543-1.144,0.815-2.698,0.815-4.662c0-1.972-0.262-3.542-0.785-4.711S79.479,6.054,78.595,6.054z"/>
	<path d="M86.251,6.188c0-0.925,0.333-1.718,0.998-2.38c0.665-0.661,1.465-0.992,2.397-0.992c0.926,0,1.717,0.331,2.374,0.992
		c0.657,0.662,0.986,1.455,0.986,2.38c0,0.933-0.329,1.73-0.986,2.392c-0.657,0.662-1.448,0.992-2.374,0.992
		c-0.933,0-1.732-0.331-2.397-0.992C86.584,7.918,86.251,7.121,86.251,6.188z M87.578,6.188c0,0.568,0.202,1.055,0.608,1.46
		c0.405,0.406,0.893,0.609,1.46,0.609c0.561,0,1.039-0.203,1.437-0.609s0.597-0.893,0.597-1.46s-0.197-1.051-0.591-1.449
		c-0.394-0.397-0.874-0.596-1.442-0.596c-0.576,0-1.064,0.199-1.466,0.596C87.778,5.137,87.578,5.62,87.578,6.188z"/>
</g>
<rect id="_x3C_Slice_x3E__118_" y="1.625" fill="none" width="93.125" height="22.375"/>
</svg>
