<?xml version="1.0" encoding="utf-8"?>
<!-- Generator: Adobe Illustrator 15.1.0, SVG Export Plug-In  -->
<!DOCTYPE svg PUBLIC "-//W3C//DTD SVG 1.1//EN" "http://www.w3.org/Graphics/SVG/1.1/DTD/svg11.dtd" [
	<!ENTITY ns_flows "http://ns.adobe.com/Flows/1.0/">
]>
<svg version="1.1"
	 xmlns="http://www.w3.org/2000/svg" xmlns:xlink="http://www.w3.org/1999/xlink" xmlns:a="http://ns.adobe.com/AdobeSVGViewerExtensions/3.0/"
	 x="0px" y="0px" width="54px" height="24px" viewBox="-0.438 27.111 54 24" enable-background="new -0.438 27.111 54 24"
	 xml:space="preserve">
<defs>
</defs>
<g>
	<path d="M39.602,3.96h2.435v17.004h-2.435V3.96z"/>
	<path d="M55.875,3.741h0.999v9.543h1.898v2.069h-1.898v5.611H54.5v-5.611h-7.193v-1.047L55.875,3.741z M54.5,13.284V8.355
		l-3.935,4.929H54.5z"/>
	<path d="M68.34,3.741h0.999v9.543h1.898v2.069h-1.898v5.611h-2.374v-5.611h-7.193v-1.047L68.34,3.741z M66.965,13.284V8.355
		l-3.935,4.929H66.965z"/>
	<path d="M78.284,3.741c1.559,0,2.847,0.818,3.865,2.453c1.019,1.635,1.527,3.711,1.527,6.226c0,2.581-0.509,4.678-1.527,6.293
		c-1.019,1.615-2.339,2.422-3.962,2.422c-1.647,0-2.971-0.791-3.969-2.374s-1.497-3.68-1.497-6.293c0-2.581,0.516-4.68,1.546-6.299
		C75.298,4.55,76.637,3.741,78.284,3.741z M78.309,6.054h-0.121c-0.934,0-1.674,0.574-2.222,1.722
		c-0.548,1.148-0.821,2.704-0.821,4.668c0,2.013,0.268,3.591,0.803,4.735c0.536,1.145,1.274,1.716,2.216,1.716
		s1.684-0.572,2.228-1.716c0.543-1.144,0.815-2.698,0.815-4.662c0-1.972-0.262-3.542-0.785-4.711S79.193,6.054,78.309,6.054z"/>
	<path d="M85.965,6.188c0-0.925,0.333-1.718,0.998-2.38c0.665-0.661,1.465-0.992,2.397-0.992c0.926,0,1.717,0.331,2.374,0.992
		c0.657,0.662,0.986,1.455,0.986,2.38c0,0.933-0.329,1.73-0.986,2.392c-0.657,0.662-1.448,0.992-2.374,0.992
		c-0.933,0-1.732-0.331-2.397-0.992C86.298,7.918,85.965,7.121,85.965,6.188z M87.292,6.188c0,0.568,0.202,1.055,0.608,1.46
		c0.405,0.406,0.893,0.609,1.46,0.609c0.561,0,1.039-0.203,1.437-0.609s0.597-0.893,0.597-1.46s-0.197-1.051-0.591-1.449
		c-0.394-0.397-0.874-0.596-1.442-0.596c-0.576,0-1.064,0.199-1.466,0.596C87.492,5.137,87.292,5.62,87.292,6.188z"/>
</g>
<g>
	<g>
		<path d="M1.342,30.266c4.925-0.213,9.723,0.442,14.205,2.571c7.053,3.35,10.888,13.884,0.377,15.08
			c-2.75,0.313-5.688-0.493-7.772-2.311c-3.903-3.403,0.683-9.369,3.495-11.467c4.035-3.008,9.766-3.521,14.609-3.705
			c1.446-0.055,1.451-2.305,0-2.25c-7.602,0.287-15.883,1.801-20.15,8.769c-4.478,7.313,1.438,12.81,8.611,13.24
			c7.998,0.48,12.523-6.121,8.785-13.102c-4.048-7.562-14.434-9.41-22.16-9.076C-0.104,28.078-0.109,30.328,1.342,30.266
			L1.342,30.266z"/>
	</g>
</g>
<g>
	<g>
		<path d="M24.215,30.465c6.813-0.274,13.291,1.007,18.4,5.77c5.588,5.21,2.955,11.362-4.074,11.895
			c-6.904,0.523-10.896-4.52-6.878-10.908c4.13-6.567,13.825-6.568,20.626-6.637c1.45-0.015,1.451-2.265,0-2.25
			c-8.481,0.086-20.521,0.839-23.998,10.363c-2.678,7.336,2.414,11.371,9.293,11.694c6.1,0.287,11.227-3.281,10.244-9.67
			c-1.547-10.045-15.6-12.83-23.613-12.507C22.77,28.273,22.764,30.524,24.215,30.465L24.215,30.465z"/>
	</g>
</g>
<rect id="_x3C_Slice_x3E__118_" y="27.673" fill="none" width="53.563" height="23"/>
</svg>
