<?xml version="1.0" encoding="utf-8"?>
<!-- Generator: Adobe Illustrator 15.1.0, SVG Export Plug-In  -->
<!DOCTYPE svg PUBLIC "-//W3C//DTD SVG 1.1//EN" "http://www.w3.org/Graphics/SVG/1.1/DTD/svg11.dtd" [
	<!ENTITY ns_flows "http://ns.adobe.com/Flows/1.0/">
]>
<svg version="1.1"
	 xmlns="http://www.w3.org/2000/svg" xmlns:xlink="http://www.w3.org/1999/xlink" xmlns:a="http://ns.adobe.com/AdobeSVGViewerExtensions/3.0/"
	 x="0px" y="0px" width="99px" height="27px" viewBox="-0.333 24.997 99 27" enable-background="new -0.333 24.997 99 27"
	 xml:space="preserve">
<defs>
</defs>
<g>
	<path d="M69.711,3.96h2.435v17.004h-2.435V3.96z"/>
	<path d="M78.328,8.521c0-1.33,0.5-2.459,1.498-3.387c0.998-0.929,2.219-1.393,3.663-1.393c1.42,0,2.619,0.46,3.598,1.381
		c0.978,0.92,1.466,2.054,1.466,3.399c0,1.517-0.705,2.77-2.117,3.759c1.574,0.909,2.361,2.249,2.361,4.019
		c0,1.405-0.512,2.566-1.534,3.484s-2.313,1.376-3.87,1.376c-1.542,0-2.837-0.469-3.883-1.407c-1.047-0.938-1.57-2.097-1.57-3.478
		c0-1.73,0.803-3.062,2.41-3.995c-0.723-0.584-1.24-1.166-1.553-1.746S78.328,9.283,78.328,8.521z M86.338,16.4v-0.244
		c0-0.779-0.278-1.414-0.834-1.905c-0.556-0.491-1.276-0.736-2.16-0.736c-0.868,0-1.576,0.248-2.124,0.742
		c-0.548,0.495-0.822,1.136-0.822,1.923s0.28,1.428,0.84,1.923c0.561,0.495,1.286,0.742,2.18,0.742c0.852,0,1.552-0.227,2.1-0.682
		C86.064,17.71,86.338,17.122,86.338,16.4z M86.131,8.598c0-0.738-0.254-1.347-0.761-1.826c-0.507-0.479-1.15-0.718-1.93-0.718
		c-0.787,0-1.432,0.235-1.935,0.706c-0.504,0.471-0.755,1.076-0.755,1.814c0,0.706,0.266,1.311,0.797,1.813
		c0.531,0.503,1.171,0.755,1.917,0.755c0.738,0,1.367-0.25,1.887-0.749S86.131,9.295,86.131,8.598z"/>
	<path d="M95.93,3.741c1.559,0,2.847,0.818,3.865,2.453c1.019,1.635,1.527,3.711,1.527,6.226c0,2.581-0.509,4.678-1.527,6.293
		c-1.019,1.615-2.339,2.422-3.962,2.422c-1.647,0-2.971-0.791-3.969-2.374s-1.497-3.68-1.497-6.293c0-2.581,0.516-4.68,1.546-6.299
		C92.943,4.55,94.282,3.741,95.93,3.741z M95.954,6.054h-0.121c-0.934,0-1.674,0.574-2.222,1.722
		c-0.548,1.148-0.821,2.704-0.821,4.668c0,2.013,0.268,3.591,0.803,4.735c0.536,1.145,1.274,1.716,2.216,1.716
		s1.684-0.572,2.228-1.716c0.543-1.144,0.815-2.698,0.815-4.662c0-1.972-0.262-3.542-0.785-4.711S96.839,6.054,95.954,6.054z"/>
	<path d="M103.61,6.188c0-0.925,0.333-1.718,0.998-2.38c0.665-0.661,1.465-0.992,2.397-0.992c0.926,0,1.717,0.331,2.374,0.992
		c0.657,0.662,0.986,1.455,0.986,2.38c0,0.933-0.329,1.73-0.986,2.392c-0.657,0.662-1.448,0.992-2.374,0.992
		c-0.933,0-1.732-0.331-2.397-0.992C103.943,7.918,103.61,7.121,103.61,6.188z M104.938,6.188c0,0.568,0.202,1.055,0.608,1.46
		c0.405,0.406,0.893,0.609,1.46,0.609c0.561,0,1.039-0.203,1.437-0.609s0.597-0.893,0.597-1.46s-0.197-1.051-0.591-1.449
		c-0.394-0.397-0.874-0.596-1.442-0.596c-0.576,0-1.064,0.199-1.466,0.596C105.138,5.137,104.938,5.62,104.938,6.188z"/>
</g>
<g>
	<path d="M55.187,33.308h7.547v2.167h-5.331v4.297c0.17-0.016,0.345-0.024,0.523-0.024c1.646,0,3.002,0.501,4.065,1.503
		c1.063,1.002,1.594,2.278,1.594,3.828c0,1.599-0.525,2.899-1.576,3.901c-1.051,1.002-2.412,1.503-4.083,1.503
		c-1.38,0-2.719-0.333-4.018-0.998v-2.507c1.226,0.795,2.423,1.193,3.591,1.193c1.022,0,1.881-0.298,2.574-0.895
		c0.694-0.596,1.041-1.329,1.041-2.197c0-0.901-0.377-1.653-1.132-2.258s-1.696-0.907-2.824-0.907c-0.966,0-1.623,0.082-1.972,0.244
		V33.308z"/>
	<path d="M73.979,33.089h0.999v9.543h1.898v2.069h-1.898v5.611h-2.374v-5.611h-7.193v-1.047L73.979,33.089z M72.604,42.632v-4.929
		l-3.935,4.929H72.604z"/>
	<path d="M83.925,33.089c1.559,0,2.847,0.818,3.865,2.453c1.019,1.635,1.527,3.711,1.527,6.226c0,2.581-0.509,4.678-1.527,6.293
		c-1.019,1.615-2.339,2.422-3.962,2.422c-1.647,0-2.971-0.791-3.969-2.374s-1.497-3.68-1.497-6.293c0-2.581,0.516-4.68,1.546-6.299
		C80.938,33.898,82.277,33.089,83.925,33.089z M83.949,35.402h-0.121c-0.934,0-1.674,0.574-2.222,1.722
		c-0.548,1.148-0.821,2.704-0.821,4.668c0,2.013,0.268,3.591,0.803,4.735c0.536,1.145,1.274,1.716,2.216,1.716
		s1.684-0.572,2.228-1.716c0.543-1.144,0.815-2.698,0.815-4.662c0-1.972-0.262-3.542-0.785-4.711S84.834,35.402,83.949,35.402z"/>
	<path d="M91.605,35.536c0-0.925,0.333-1.718,0.998-2.38c0.665-0.661,1.465-0.992,2.397-0.992c0.926,0,1.717,0.331,2.374,0.992
		c0.657,0.662,0.986,1.455,0.986,2.38c0,0.933-0.329,1.73-0.986,2.392c-0.657,0.662-1.448,0.992-2.374,0.992
		c-0.933,0-1.732-0.331-2.397-0.992C91.938,37.266,91.605,36.469,91.605,35.536z M92.933,35.536c0,0.568,0.202,1.055,0.608,1.46
		c0.405,0.406,0.893,0.609,1.46,0.609c0.561,0,1.039-0.203,1.437-0.609s0.597-0.893,0.597-1.46s-0.197-1.051-0.591-1.449
		c-0.394-0.397-0.874-0.596-1.442-0.596c-0.576,0-1.064,0.199-1.466,0.596C93.133,34.485,92.933,34.968,92.933,35.536z"/>
</g>
<g>
	<g>
		<path d="M1.667,39.91c2.873-0.125,5.682,0.238,8.299,1.48c3.771,1.791,6.328,7.545,0.453,8.214
			c-1.527,0.174-3.184-0.24-4.348-1.254c-2.068-1.804,0.541-5.083,2.01-6.177c2.361-1.761,5.706-2.056,8.542-2.163
			c1.446-0.055,1.452-2.305,0-2.25c-4.731,0.179-9.833,1.158-12.484,5.487c-2.876,4.693,0.925,8.347,5.556,8.624
			c5.152,0.308,8.059-4.067,5.662-8.541c-2.506-4.68-8.893-5.878-13.689-5.67C0.222,37.723,0.216,39.973,1.667,39.91L1.667,39.91z"
			/>
	</g>
</g>
<g>
	<g>
		<path d="M16.173,39.046c1.585,3.855,3.17,7.71,4.754,11.565c0.544,1.323,2.722,0.744,2.17-0.598
			c-1.585-3.855-3.17-7.71-4.754-11.565C17.799,37.125,15.621,37.704,16.173,39.046L16.173,39.046z"/>
	</g>
</g>
<g>
	<g>
		<path d="M23.097,50.611c1.142-3.855,2.283-7.71,3.426-11.565c0.413-1.395-1.759-1.986-2.17-0.598
			c-1.142,3.855-2.283,7.71-3.426,11.565C20.514,51.408,22.686,52,23.097,50.611L23.097,50.611z"/>
	</g>
</g>
<g>
	<g>
		<path d="M25.949,39.748c2.262-0.053,4.378,0.16,6.561,0.762c1.928,0.532,9.922,6.056,3.934,8.571
			c-1.659,0.697-3.792,0.409-5.393-0.285c-4.71-2.044,0.833-6.426,2.306-7.583c5.871-4.61,11.889-9.102,18.264-12.993
			c1.235-0.754,0.105-2.701-1.137-1.942c-6.543,3.994-12.68,8.631-18.717,13.345c-3.626,2.83-6.866,8.94-1.086,11.449
			c3.05,1.324,9.785,0.692,9.978-3.745c0.326-7.53-8.819-9.966-14.709-9.828C24.501,37.531,24.497,39.782,25.949,39.748
			L25.949,39.748z"/>
	</g>
</g>
<rect id="_x3C_Slice_x3E__118_" y="25.414" fill="none" width="98.667" height="26.583"/>
</svg>
