<?xml version="1.0" encoding="utf-8"?>
<!-- Generator: Adobe Illustrator 15.1.0, SVG Export Plug-In  -->
<!DOCTYPE svg PUBLIC "-//W3C//DTD SVG 1.1//EN" "http://www.w3.org/Graphics/SVG/1.1/DTD/svg11.dtd" [
	<!ENTITY ns_flows "http://ns.adobe.com/Flows/1.0/">
]>
<svg version="1.1"
	 xmlns="http://www.w3.org/2000/svg" xmlns:xlink="http://www.w3.org/1999/xlink" xmlns:a="http://ns.adobe.com/AdobeSVGViewerExtensions/3.0/"
	 x="0px" y="0px" width="99px" height="28px" viewBox="-0.333 22.649 99 28" enable-background="new -0.333 22.649 99 28"
	 xml:space="preserve">
<defs>
</defs>
<g>
	<path d="M55.187,3.96h7.547v2.167h-5.331v4.297c0.17-0.016,0.345-0.024,0.523-0.024c1.646,0,3.002,0.501,4.065,1.503
		c1.063,1.002,1.594,2.278,1.594,3.828c0,1.599-0.525,2.899-1.576,3.901c-1.051,1.002-2.412,1.503-4.083,1.503
		c-1.38,0-2.719-0.333-4.018-0.998v-2.507c1.226,0.795,2.423,1.193,3.591,1.193c1.022,0,1.881-0.298,2.574-0.895
		c0.694-0.596,1.041-1.329,1.041-2.197c0-0.901-0.377-1.653-1.132-2.258s-1.696-0.907-2.824-0.907c-0.966,0-1.623,0.082-1.972,0.244
		V3.96z"/>
	<path d="M73.979,3.741h0.999v9.543h1.898v2.069h-1.898v5.611h-2.374v-5.611h-7.193v-1.047L73.979,3.741z M72.604,13.284V8.355
		l-3.935,4.929H72.604z"/>
	<path d="M83.925,3.741c1.559,0,2.847,0.818,3.865,2.453c1.019,1.635,1.527,3.711,1.527,6.226c0,2.581-0.509,4.678-1.527,6.293
		c-1.019,1.615-2.339,2.422-3.962,2.422c-1.647,0-2.971-0.791-3.969-2.374s-1.497-3.68-1.497-6.293c0-2.581,0.516-4.68,1.546-6.299
		C80.938,4.55,82.277,3.741,83.925,3.741z M83.949,6.054h-0.121c-0.934,0-1.674,0.574-2.222,1.722
		c-0.548,1.148-0.821,2.704-0.821,4.668c0,2.013,0.268,3.591,0.803,4.735c0.536,1.145,1.274,1.716,2.216,1.716
		s1.684-0.572,2.228-1.716c0.543-1.144,0.815-2.698,0.815-4.662c0-1.972-0.262-3.542-0.785-4.711S84.834,6.054,83.949,6.054z"/>
	<path d="M91.605,6.188c0-0.925,0.333-1.718,0.998-2.38c0.665-0.661,1.465-0.992,2.397-0.992c0.926,0,1.717,0.331,2.374,0.992
		c0.657,0.662,0.986,1.455,0.986,2.38c0,0.933-0.329,1.73-0.986,2.392c-0.657,0.662-1.448,0.992-2.374,0.992
		c-0.933,0-1.732-0.331-2.397-0.992C91.938,7.918,91.605,7.121,91.605,6.188z M92.933,6.188c0,0.568,0.202,1.055,0.608,1.46
		c0.405,0.406,0.893,0.609,1.46,0.609c0.561,0,1.039-0.203,1.437-0.609s0.597-0.893,0.597-1.46s-0.197-1.051-0.591-1.449
		c-0.394-0.397-0.874-0.596-1.442-0.596c-0.576,0-1.064,0.199-1.466,0.596C93.133,5.137,92.933,5.62,92.933,6.188z"/>
</g>
<g>
	<path d="M57.329,48.159l-1.497-1.765c1.258-0.795,2.356-1.759,3.299-2.891c0.94-1.132,1.569-2.294,1.886-3.487
		c-0.771,0.479-1.676,0.718-2.714,0.718c-1.299,0-2.412-0.482-3.341-1.448c-0.93-0.966-1.395-2.126-1.395-3.481
		c0-1.412,0.495-2.608,1.485-3.59s2.199-1.473,3.627-1.473c1.607,0,2.922,0.581,3.944,1.741c1.022,1.161,1.533,2.649,1.533,4.467
		c0,2.061-0.641,4.145-1.923,6.25C60.952,45.305,59.317,46.958,57.329,48.159z M61.492,37.594c0.097-0.649,0.146-1.071,0.146-1.266
		c0-0.981-0.273-1.785-0.821-2.41c-0.548-0.625-1.252-0.938-2.112-0.938c-0.787,0-1.438,0.266-1.953,0.797
		c-0.516,0.532-0.773,1.199-0.773,2.002c0,0.738,0.28,1.375,0.84,1.911c0.561,0.536,1.229,0.804,2.009,0.804
		C59.734,38.495,60.623,38.194,61.492,37.594z"/>
	<path d="M71.46,30.741c1.559,0,2.847,0.818,3.865,2.453c1.019,1.635,1.527,3.711,1.527,6.226c0,2.581-0.509,4.678-1.527,6.293
		c-1.019,1.615-2.339,2.422-3.962,2.422c-1.647,0-2.971-0.791-3.969-2.374s-1.497-3.68-1.497-6.293c0-2.581,0.516-4.68,1.546-6.299
		C68.474,31.55,69.813,30.741,71.46,30.741z M71.484,33.054h-0.121c-0.934,0-1.674,0.574-2.222,1.722
		c-0.548,1.148-0.821,2.704-0.821,4.668c0,2.013,0.268,3.591,0.803,4.735c0.536,1.145,1.274,1.716,2.216,1.716
		s1.684-0.572,2.228-1.716c0.543-1.144,0.815-2.698,0.815-4.662c0-1.972-0.262-3.542-0.785-4.711S72.369,33.054,71.484,33.054z"/>
	<path d="M83.925,30.741c1.559,0,2.847,0.818,3.865,2.453c1.019,1.635,1.527,3.711,1.527,6.226c0,2.581-0.509,4.678-1.527,6.293
		c-1.019,1.615-2.339,2.422-3.962,2.422c-1.647,0-2.971-0.791-3.969-2.374s-1.497-3.68-1.497-6.293c0-2.581,0.516-4.68,1.546-6.299
		C80.938,31.55,82.277,30.741,83.925,30.741z M83.949,33.054h-0.121c-0.934,0-1.674,0.574-2.222,1.722
		c-0.548,1.148-0.821,2.704-0.821,4.668c0,2.013,0.268,3.591,0.803,4.735c0.536,1.145,1.274,1.716,2.216,1.716
		s1.684-0.572,2.228-1.716c0.543-1.144,0.815-2.698,0.815-4.662c0-1.972-0.262-3.542-0.785-4.711S84.834,33.054,83.949,33.054z"/>
	<path d="M91.605,33.188c0-0.925,0.333-1.718,0.998-2.38c0.665-0.661,1.465-0.992,2.397-0.992c0.926,0,1.717,0.331,2.374,0.992
		c0.657,0.662,0.986,1.455,0.986,2.38c0,0.933-0.329,1.73-0.986,2.392c-0.657,0.662-1.448,0.992-2.374,0.992
		c-0.933,0-1.732-0.331-2.397-0.992C91.938,34.918,91.605,34.121,91.605,33.188z M92.933,33.188c0,0.568,0.202,1.055,0.608,1.46
		c0.405,0.406,0.893,0.609,1.46,0.609c0.561,0,1.039-0.203,1.437-0.609s0.597-0.893,0.597-1.46s-0.197-1.051-0.591-1.449
		c-0.394-0.397-0.874-0.596-1.442-0.596c-0.576,0-1.064,0.199-1.466,0.596C93.133,32.137,92.933,32.62,92.933,33.188z"/>
</g>
<g>
	<g>
		<path d="M1.667,37.562c2.873-0.125,5.682,0.238,8.299,1.48c3.771,1.791,6.328,7.545,0.453,8.214
			c-1.527,0.174-3.184-0.24-4.348-1.254c-2.068-1.804,0.541-5.083,2.01-6.177c2.361-1.761,5.706-2.056,8.542-2.163
			c1.446-0.055,1.452-2.305,0-2.25c-4.731,0.179-9.833,1.158-12.484,5.487c-2.876,4.693,0.925,8.347,5.556,8.624
			c5.152,0.308,8.059-4.067,5.662-8.541c-2.506-4.68-8.893-5.878-13.689-5.67C0.222,35.375,0.216,37.625,1.667,37.562L1.667,37.562z
			"/>
	</g>
</g>
<g>
	<g>
		<path d="M16.173,36.698c1.585,3.855,3.17,7.71,4.754,11.565c0.544,1.323,2.722,0.744,2.17-0.598
			c-1.585-3.855-3.17-7.71-4.754-11.565C17.799,34.777,15.621,35.356,16.173,36.698L16.173,36.698z"/>
	</g>
</g>
<g>
	<g>
		<path d="M23.097,48.263c1.142-3.855,2.283-7.71,3.426-11.565c0.413-1.395-1.759-1.986-2.17-0.598
			c-1.142,3.855-2.283,7.71-3.426,11.565C20.514,49.06,22.686,49.651,23.097,48.263L23.097,48.263z"/>
	</g>
</g>
<g>
	<g>
		<path d="M25.949,37.399c2.262-0.053,4.378,0.16,6.561,0.762c1.928,0.532,9.922,6.056,3.934,8.571
			c-1.659,0.697-3.792,0.409-5.393-0.285c-4.71-2.044,0.833-6.426,2.306-7.583c5.871-4.61,11.889-9.102,18.264-12.993
			c1.235-0.754,0.105-2.701-1.137-1.942c-6.543,3.994-12.68,8.631-18.717,13.345c-3.626,2.83-6.866,8.94-1.086,11.449
			c3.05,1.324,9.785,0.692,9.978-3.745c0.326-7.53-8.819-9.966-14.709-9.828C24.501,35.183,24.497,37.434,25.949,37.399
			L25.949,37.399z"/>
	</g>
</g>
<rect id="_x3C_Slice_x3E__118_" y="23.315" fill="none" width="98.667" height="26.5"/>
</svg>
