<?xml version="1.0" encoding="utf-8"?>
<!-- Generator: Adobe Illustrator 15.1.0, SVG Export Plug-In  -->
<!DOCTYPE svg PUBLIC "-//W3C//DTD SVG 1.1//EN" "http://www.w3.org/Graphics/SVG/1.1/DTD/svg11.dtd" [
	<!ENTITY ns_flows "http://ns.adobe.com/Flows/1.0/">
]>
<svg version="1.1"
	 xmlns="http://www.w3.org/2000/svg" xmlns:xlink="http://www.w3.org/1999/xlink" xmlns:a="http://ns.adobe.com/AdobeSVGViewerExtensions/3.0/"
	 x="0px" y="0px" width="90px" height="26px" viewBox="3.598 26.649 90 26" enable-background="new 3.598 26.649 90 26"
	 xml:space="preserve">
<defs>
</defs>
<g>
	<path d="M58.26,21.159l-1.497-1.765c1.258-0.795,2.356-1.759,3.299-2.891c0.94-1.132,1.569-2.294,1.886-3.487
		c-0.771,0.479-1.676,0.718-2.714,0.718c-1.299,0-2.412-0.482-3.341-1.448c-0.93-0.966-1.395-2.126-1.395-3.481
		c0-1.412,0.495-2.608,1.485-3.59s2.199-1.473,3.627-1.473c1.607,0,2.922,0.581,3.944,1.741c1.022,1.161,1.533,2.649,1.533,4.467
		c0,2.061-0.641,4.145-1.923,6.25C61.883,18.305,60.248,19.958,58.26,21.159z M62.423,10.594c0.097-0.649,0.146-1.071,0.146-1.266
		c0-0.981-0.273-1.785-0.821-2.41c-0.548-0.625-1.252-0.938-2.112-0.938c-0.787,0-1.438,0.266-1.953,0.797
		c-0.516,0.532-0.773,1.199-0.773,2.002c0,0.738,0.28,1.375,0.84,1.911c0.561,0.536,1.229,0.804,2.009,0.804
		C60.665,11.495,61.554,11.194,62.423,10.594z"/>
	<path d="M72.391,3.741c1.559,0,2.847,0.818,3.865,2.453c1.019,1.635,1.527,3.711,1.527,6.226c0,2.581-0.509,4.678-1.527,6.293
		c-1.019,1.615-2.339,2.422-3.962,2.422c-1.647,0-2.971-0.791-3.969-2.374s-1.497-3.68-1.497-6.293c0-2.581,0.516-4.68,1.546-6.299
		C69.404,4.55,70.743,3.741,72.391,3.741z M72.415,6.054h-0.121c-0.934,0-1.674,0.574-2.222,1.722
		c-0.548,1.148-0.821,2.704-0.821,4.668c0,2.013,0.268,3.591,0.803,4.735c0.536,1.145,1.274,1.716,2.216,1.716
		s1.684-0.572,2.228-1.716c0.543-1.144,0.815-2.698,0.815-4.662c0-1.972-0.262-3.542-0.785-4.711S73.3,6.054,72.415,6.054z"/>
	<path d="M84.855,3.741c1.559,0,2.847,0.818,3.865,2.453c1.019,1.635,1.527,3.711,1.527,6.226c0,2.581-0.509,4.678-1.527,6.293
		c-1.019,1.615-2.339,2.422-3.962,2.422c-1.647,0-2.971-0.791-3.969-2.374s-1.497-3.68-1.497-6.293c0-2.581,0.516-4.68,1.546-6.299
		C81.869,4.55,83.208,3.741,84.855,3.741z M84.88,6.054h-0.121c-0.934,0-1.674,0.574-2.222,1.722
		c-0.548,1.148-0.821,2.704-0.821,4.668c0,2.013,0.268,3.591,0.803,4.735c0.536,1.145,1.274,1.716,2.216,1.716
		s1.684-0.572,2.228-1.716c0.543-1.144,0.815-2.698,0.815-4.662c0-1.972-0.262-3.542-0.785-4.711S85.765,6.054,84.88,6.054z"/>
	<path d="M92.536,6.188c0-0.925,0.333-1.718,0.998-2.38c0.665-0.661,1.465-0.992,2.397-0.992c0.926,0,1.717,0.331,2.374,0.992
		c0.657,0.662,0.986,1.455,0.986,2.38c0,0.933-0.329,1.73-0.986,2.392c-0.657,0.662-1.448,0.992-2.374,0.992
		c-0.933,0-1.732-0.331-2.397-0.992C92.869,7.918,92.536,7.121,92.536,6.188z M93.863,6.188c0,0.568,0.202,1.055,0.608,1.46
		c0.405,0.406,0.893,0.609,1.46,0.609c0.561,0,1.039-0.203,1.437-0.609s0.597-0.893,0.597-1.46s-0.197-1.051-0.591-1.449
		C96.98,4.341,96.5,4.143,95.932,4.143c-0.576,0-1.064,0.199-1.466,0.596C94.063,5.137,93.863,5.62,93.863,6.188z"/>
</g>
<g>
	<path d="M5.039,34.542h2.435v17.004H5.039V34.542z"/>
	<path d="M13.656,39.103c0-1.33,0.5-2.459,1.498-3.387c0.998-0.929,2.219-1.393,3.663-1.393c1.42,0,2.619,0.46,3.598,1.381
		c0.978,0.92,1.466,2.054,1.466,3.399c0,1.517-0.705,2.77-2.117,3.759c1.574,0.909,2.361,2.249,2.361,4.019
		c0,1.405-0.512,2.566-1.534,3.484s-2.313,1.376-3.87,1.376c-1.542,0-2.837-0.469-3.883-1.407c-1.047-0.938-1.57-2.097-1.57-3.478
		c0-1.73,0.803-3.062,2.41-3.995c-0.723-0.584-1.24-1.166-1.553-1.746S13.656,39.865,13.656,39.103z M21.666,46.982v-0.244
		c0-0.779-0.278-1.414-0.834-1.905c-0.556-0.491-1.276-0.736-2.16-0.736c-0.868,0-1.576,0.248-2.124,0.742
		c-0.548,0.495-0.822,1.136-0.822,1.923s0.28,1.428,0.84,1.923c0.561,0.495,1.286,0.742,2.18,0.742c0.852,0,1.552-0.227,2.1-0.682
		C21.393,48.292,21.666,47.704,21.666,46.982z M21.459,39.18c0-0.738-0.254-1.347-0.761-1.826c-0.507-0.479-1.15-0.718-1.93-0.718
		c-0.787,0-1.432,0.235-1.935,0.706c-0.504,0.471-0.755,1.076-0.755,1.814c0,0.706,0.266,1.311,0.797,1.813
		c0.531,0.503,1.171,0.755,1.917,0.755c0.738,0,1.367-0.25,1.887-0.749S21.459,39.877,21.459,39.18z"/>
	<path d="M31.258,34.323c1.559,0,2.847,0.818,3.865,2.453c1.019,1.635,1.527,3.711,1.527,6.226c0,2.581-0.509,4.678-1.527,6.293
		c-1.019,1.615-2.339,2.422-3.962,2.422c-1.647,0-2.971-0.791-3.969-2.374s-1.497-3.68-1.497-6.293c0-2.581,0.516-4.68,1.546-6.299
		C28.271,35.132,29.61,34.323,31.258,34.323z M31.282,36.636h-0.121c-0.934,0-1.674,0.574-2.222,1.722
		c-0.548,1.148-0.821,2.704-0.821,4.668c0,2.013,0.268,3.591,0.803,4.735c0.536,1.145,1.274,1.716,2.216,1.716
		s1.684-0.572,2.228-1.716c0.543-1.144,0.815-2.698,0.815-4.662c0-1.972-0.262-3.542-0.785-4.711S32.167,36.636,31.282,36.636z"/>
	<path d="M38.938,36.77c0-0.925,0.333-1.718,0.998-2.38c0.665-0.661,1.465-0.992,2.397-0.992c0.926,0,1.717,0.331,2.374,0.992
		c0.657,0.662,0.986,1.455,0.986,2.38c0,0.933-0.329,1.73-0.986,2.392c-0.657,0.662-1.448,0.992-2.374,0.992
		c-0.933,0-1.732-0.331-2.397-0.992C39.271,38.5,38.938,37.703,38.938,36.77z M40.266,36.77c0,0.568,0.202,1.055,0.608,1.46
		c0.405,0.406,0.893,0.609,1.46,0.609c0.561,0,1.039-0.203,1.437-0.609s0.597-0.893,0.597-1.46s-0.197-1.051-0.591-1.449
		c-0.394-0.397-0.874-0.596-1.442-0.596c-0.576,0-1.064,0.199-1.466,0.596C40.466,35.719,40.266,36.202,40.266,36.77z"/>
</g>
<g>
	<g>
		<path d="M51.982,40.709c2.872-0.125,5.683,0.238,8.299,1.48c3.771,1.791,6.329,7.545,0.453,8.214
			c-1.528,0.174-3.185-0.24-4.348-1.255c-2.068-1.803,0.542-5.083,2.009-6.177c2.363-1.761,5.707-2.056,8.543-2.163
			c1.446-0.055,1.452-2.305,0-2.25c-4.73,0.179-9.832,1.158-12.484,5.487c-2.875,4.693,0.924,8.347,5.555,8.624
			c5.153,0.308,8.059-4.067,5.664-8.541c-2.506-4.68-8.894-5.878-13.69-5.67C50.537,38.522,50.531,40.772,51.982,40.709
			L51.982,40.709z"/>
	</g>
</g>
<g>
	<g>
		<path d="M66.938,40.821c2.229-0.053,4.314,0.157,6.467,0.75c2.666,0.735,9.121,7.034,3.004,8.656
			c-3.226,0.855-8.266-1.066-4.16-6.267c0.7-0.887,1.861-1.586,2.745-2.276c5.556-4.338,11.249-8.561,17.271-12.236
			c1.234-0.754,0.104-2.701-1.138-1.942c-6.454,3.94-12.508,8.514-18.463,13.164c-3.583,2.798-6.779,8.837-1.067,11.316
			c3.504,1.521,8.601,0.528,9.823-3.408c2.288-7.373-9.908-10.115-14.482-10.007C65.489,38.605,65.487,40.855,66.938,40.821
			L66.938,40.821z"/>
	</g>
</g>
<rect id="_x3C_Slice_x3E__118_" x="4.431" y="27.065" fill="none" width="88.585" height="26.167"/>
</svg>
