<?xml version="1.0" encoding="utf-8"?>
<!-- Generator: Adobe Illustrator 15.1.0, SVG Export Plug-In  -->
<!DOCTYPE svg PUBLIC "-//W3C//DTD SVG 1.1//EN" "http://www.w3.org/Graphics/SVG/1.1/DTD/svg11.dtd" [
	<!ENTITY ns_flows "http://ns.adobe.com/Flows/1.0/">
]>
<svg version="1.1"
	 xmlns="http://www.w3.org/2000/svg" xmlns:xlink="http://www.w3.org/1999/xlink" xmlns:a="http://ns.adobe.com/AdobeSVGViewerExtensions/3.0/"
	 x="0px" y="0px" width="139px" height="27px" viewBox="3.909 24.291 139 27" enable-background="new 3.909 24.291 139 27"
	 xml:space="preserve">
<defs>
</defs>
<g>
	<path d="M54.389,3.96h2.435v17.004h-2.435V3.96z"/>
	<path d="M63.006,8.521c0-1.33,0.5-2.459,1.498-3.387c0.998-0.929,2.219-1.393,3.663-1.393c1.42,0,2.619,0.46,3.598,1.381
		c0.978,0.92,1.466,2.054,1.466,3.399c0,1.517-0.705,2.77-2.117,3.759c1.574,0.909,2.361,2.249,2.361,4.019
		c0,1.405-0.512,2.566-1.534,3.484s-2.313,1.376-3.87,1.376c-1.542,0-2.837-0.469-3.883-1.407c-1.047-0.938-1.57-2.097-1.57-3.478
		c0-1.73,0.803-3.062,2.41-3.995c-0.723-0.584-1.24-1.166-1.553-1.746S63.006,9.283,63.006,8.521z M71.016,16.4v-0.244
		c0-0.779-0.278-1.414-0.834-1.905c-0.556-0.491-1.276-0.736-2.16-0.736c-0.868,0-1.576,0.248-2.124,0.742
		c-0.548,0.495-0.822,1.136-0.822,1.923s0.28,1.428,0.84,1.923c0.561,0.495,1.286,0.742,2.18,0.742c0.852,0,1.552-0.227,2.1-0.682
		C70.742,17.71,71.016,17.122,71.016,16.4z M70.809,8.598c0-0.738-0.254-1.347-0.761-1.826c-0.507-0.479-1.15-0.718-1.93-0.718
		c-0.787,0-1.432,0.235-1.935,0.706c-0.504,0.471-0.755,1.076-0.755,1.814c0,0.706,0.266,1.311,0.797,1.813
		c0.531,0.503,1.171,0.755,1.917,0.755c0.738,0,1.367-0.25,1.887-0.749S70.809,9.295,70.809,8.598z"/>
	<path d="M80.607,3.741c1.559,0,2.847,0.818,3.865,2.453C85.491,7.829,86,9.904,86,12.419c0,2.581-0.509,4.678-1.527,6.293
		c-1.019,1.615-2.339,2.422-3.962,2.422c-1.647,0-2.971-0.791-3.969-2.374s-1.497-3.68-1.497-6.293c0-2.581,0.516-4.68,1.546-6.299
		C77.621,4.55,78.96,3.741,80.607,3.741z M80.632,6.054h-0.121c-0.934,0-1.674,0.574-2.222,1.722
		c-0.548,1.148-0.821,2.704-0.821,4.668c0,2.013,0.268,3.591,0.803,4.735c0.536,1.145,1.274,1.716,2.216,1.716
		s1.684-0.572,2.228-1.716c0.543-1.144,0.815-2.698,0.815-4.662c0-1.972-0.262-3.542-0.785-4.711S81.517,6.054,80.632,6.054z"/>
	<path d="M88.288,6.188c0-0.925,0.333-1.718,0.998-2.38c0.665-0.661,1.465-0.992,2.397-0.992c0.926,0,1.717,0.331,2.374,0.992
		c0.657,0.662,0.986,1.455,0.986,2.38c0,0.933-0.329,1.73-0.986,2.392c-0.657,0.662-1.448,0.992-2.374,0.992
		c-0.933,0-1.732-0.331-2.397-0.992C88.621,7.918,88.288,7.121,88.288,6.188z M89.615,6.188c0,0.568,0.202,1.055,0.608,1.46
		c0.405,0.406,0.893,0.609,1.46,0.609c0.561,0,1.039-0.203,1.437-0.609s0.597-0.893,0.597-1.46s-0.197-1.051-0.591-1.449
		c-0.394-0.397-0.874-0.596-1.442-0.596c-0.576,0-1.064,0.199-1.466,0.596C89.815,5.137,89.615,5.62,89.615,6.188z"/>
</g>
<g>
	<path d="M5.039,31.728h2.435v17.004H5.039V31.728z"/>
	<path d="M13.656,36.289c0-1.33,0.5-2.459,1.498-3.387c0.998-0.929,2.219-1.393,3.663-1.393c1.42,0,2.619,0.46,3.598,1.381
		c0.978,0.92,1.466,2.054,1.466,3.399c0,1.517-0.705,2.77-2.117,3.759c1.574,0.909,2.361,2.249,2.361,4.019
		c0,1.405-0.512,2.566-1.534,3.484s-2.313,1.376-3.87,1.376c-1.542,0-2.837-0.469-3.883-1.407c-1.047-0.938-1.57-2.097-1.57-3.478
		c0-1.73,0.803-3.062,2.41-3.995c-0.723-0.584-1.24-1.166-1.553-1.746S13.656,37.051,13.656,36.289z M21.666,44.168v-0.244
		c0-0.779-0.278-1.414-0.834-1.905c-0.556-0.491-1.276-0.736-2.16-0.736c-0.868,0-1.576,0.248-2.124,0.742
		c-0.548,0.495-0.822,1.136-0.822,1.923s0.28,1.428,0.84,1.923c0.561,0.495,1.286,0.742,2.18,0.742c0.852,0,1.552-0.227,2.1-0.682
		C21.393,45.479,21.666,44.89,21.666,44.168z M21.459,36.366c0-0.738-0.254-1.347-0.761-1.826c-0.507-0.479-1.15-0.718-1.93-0.718
		c-0.787,0-1.432,0.235-1.935,0.706c-0.504,0.471-0.755,1.076-0.755,1.814c0,0.706,0.266,1.311,0.797,1.813
		c0.531,0.503,1.171,0.755,1.917,0.755c0.738,0,1.367-0.25,1.887-0.749S21.459,37.063,21.459,36.366z"/>
	<path d="M31.258,31.509c1.559,0,2.847,0.818,3.865,2.453c1.019,1.635,1.527,3.711,1.527,6.226c0,2.581-0.509,4.678-1.527,6.293
		c-1.019,1.615-2.339,2.422-3.962,2.422c-1.647,0-2.971-0.791-3.969-2.374s-1.497-3.68-1.497-6.293c0-2.581,0.516-4.68,1.546-6.299
		C28.271,32.318,29.61,31.509,31.258,31.509z M31.282,33.822h-0.121c-0.934,0-1.674,0.574-2.222,1.722
		c-0.548,1.148-0.821,2.704-0.821,4.668c0,2.013,0.268,3.591,0.803,4.735c0.536,1.145,1.274,1.716,2.216,1.716
		s1.684-0.572,2.228-1.716c0.543-1.144,0.815-2.698,0.815-4.662c0-1.972-0.262-3.542-0.785-4.711S32.167,33.822,31.282,33.822z"/>
	<path d="M38.938,33.956c0-0.925,0.333-1.718,0.998-2.38c0.665-0.661,1.465-0.992,2.397-0.992c0.926,0,1.717,0.331,2.374,0.992
		c0.657,0.662,0.986,1.455,0.986,2.38c0,0.933-0.329,1.73-0.986,2.392c-0.657,0.662-1.448,0.992-2.374,0.992
		c-0.933,0-1.732-0.331-2.397-0.992C39.271,35.686,38.938,34.889,38.938,33.956z M40.266,33.956c0,0.568,0.202,1.055,0.608,1.46
		c0.405,0.406,0.893,0.609,1.46,0.609c0.561,0,1.039-0.203,1.437-0.609s0.597-0.893,0.597-1.46s-0.197-1.051-0.591-1.449
		c-0.394-0.397-0.874-0.596-1.442-0.596c-0.576,0-1.064,0.199-1.466,0.596C40.466,32.905,40.266,33.388,40.266,33.956z"/>
</g>
<g>
	<path d="M100.901,37.791h0.146c1.063,0,1.872-0.219,2.428-0.657c0.557-0.438,0.834-1.075,0.834-1.911
		c0-0.754-0.27-1.367-0.81-1.838c-0.539-0.471-1.247-0.706-2.124-0.706c-0.884,0-1.866,0.276-2.945,0.828v-2.325
		c0.99-0.495,2.069-0.743,3.238-0.743c1.565,0,2.801,0.41,3.706,1.229c0.904,0.819,1.357,1.938,1.357,3.357
		c0,0.86-0.175,1.583-0.523,2.171c-0.35,0.588-0.905,1.093-1.668,1.514c0.665,0.26,1.152,0.579,1.461,0.956
		c0.309,0.378,0.548,0.834,0.718,1.371c0.171,0.536,0.256,1.104,0.256,1.705c0,1.486-0.495,2.714-1.485,3.685
		s-2.239,1.456-3.749,1.456c-1.29,0-2.536-0.313-3.736-0.938v-2.653c1.282,0.803,2.527,1.205,3.736,1.205
		c0.82,0,1.479-0.244,1.979-0.73s0.748-1.132,0.748-1.935c0-0.674-0.207-1.262-0.62-1.765c-0.244-0.284-0.514-0.493-0.81-0.627
		c-0.297-0.134-0.936-0.262-1.917-0.383l-0.22-0.024V37.791z"/>
	<path d="M116.53,30.634l0.243-0.17l1.473,1.85c-1.298,0.838-2.375,1.752-3.231,2.744c-0.856,0.992-1.516,2.159-1.978,3.5
		c0.9-0.463,1.797-0.694,2.689-0.694c1.339,0,2.467,0.475,3.384,1.424c0.917,0.95,1.376,2.114,1.376,3.494
		c0,1.42-0.499,2.625-1.497,3.615c-0.998,0.99-2.212,1.485-3.64,1.485c-1.599,0-2.891-0.562-3.877-1.686
		c-0.985-1.124-1.479-2.594-1.479-4.412c0-1.363,0.253-2.721,0.761-4.072c0.507-1.351,1.237-2.617,2.19-3.798
		C113.899,32.733,115.094,31.64,116.53,30.634z M112.514,41.078c-0.065,0.381-0.098,0.808-0.098,1.278
		c0,0.958,0.278,1.745,0.834,2.361c0.556,0.617,1.268,0.925,2.136,0.925c0.779,0,1.423-0.264,1.93-0.791s0.761-1.193,0.761-1.997
		c0-0.819-0.27-1.483-0.81-1.99c-0.54-0.507-1.252-0.761-2.136-0.761c-0.455,0-0.866,0.069-1.236,0.207
		C113.525,40.449,113.065,40.705,112.514,41.078z"/>
	<path d="M127.668,30.463c1.559,0,2.847,0.818,3.865,2.453c1.019,1.635,1.527,3.711,1.527,6.226c0,2.581-0.509,4.678-1.527,6.293
		c-1.019,1.615-2.339,2.422-3.962,2.422c-1.647,0-2.971-0.791-3.969-2.374s-1.497-3.68-1.497-6.293c0-2.581,0.516-4.68,1.546-6.299
		C124.682,31.273,126.021,30.463,127.668,30.463z M127.692,32.776h-0.121c-0.934,0-1.674,0.574-2.222,1.722
		c-0.548,1.148-0.821,2.704-0.821,4.668c0,2.013,0.268,3.591,0.803,4.735c0.536,1.145,1.274,1.716,2.216,1.716
		s1.684-0.572,2.228-1.716c0.543-1.144,0.815-2.698,0.815-4.662c0-1.972-0.262-3.542-0.785-4.711S128.577,32.776,127.692,32.776z"/>
	<path d="M135.349,32.91c0-0.925,0.333-1.718,0.998-2.38c0.665-0.661,1.465-0.992,2.397-0.992c0.926,0,1.717,0.331,2.374,0.992
		c0.657,0.662,0.986,1.455,0.986,2.38c0,0.933-0.329,1.73-0.986,2.392c-0.657,0.662-1.448,0.992-2.374,0.992
		c-0.933,0-1.732-0.331-2.397-0.992C135.682,34.641,135.349,33.843,135.349,32.91z M136.676,32.91c0,0.568,0.202,1.055,0.608,1.46
		c0.405,0.406,0.893,0.609,1.46,0.609c0.561,0,1.039-0.203,1.437-0.609s0.597-0.893,0.597-1.46s-0.197-1.051-0.591-1.449
		c-0.394-0.397-0.874-0.596-1.442-0.596c-0.576,0-1.064,0.199-1.466,0.596C136.876,31.859,136.676,32.342,136.676,32.91z"/>
</g>
<g>
	<g>
		<path d="M52.083,38.742c2.872-0.125,5.683,0.238,8.299,1.48c3.771,1.791,6.329,7.545,0.453,8.214
			c-1.528,0.174-3.185-0.24-4.348-1.255c-2.068-1.803,0.542-5.083,2.009-6.177c2.363-1.761,5.707-2.056,8.543-2.163
			c1.446-0.055,1.451-2.305,0-2.25c-4.73,0.179-9.832,1.158-12.484,5.487c-2.875,4.693,0.924,8.347,5.555,8.624
			c5.153,0.308,8.059-4.067,5.664-8.541c-2.506-4.68-8.894-5.878-13.69-5.67C50.638,36.555,50.632,38.805,52.083,38.742
			L52.083,38.742z"/>
	</g>
</g>
<g>
	<g>
		<path d="M67.039,38.854c2.229-0.053,4.314,0.157,6.467,0.75c2.666,0.735,9.121,7.034,3.004,8.656
			c-3.227,0.855-8.265-1.066-4.16-6.267c0.7-0.887,1.861-1.586,2.745-2.276c5.556-4.338,11.249-8.561,17.271-12.236
			c1.235-0.754,0.105-2.701-1.137-1.942c-6.454,3.94-12.508,8.514-18.463,13.164c-3.583,2.798-6.779,8.837-1.067,11.316
			c3.504,1.521,8.601,0.528,9.823-3.408c2.288-7.373-9.908-10.115-14.482-10.007C65.59,36.638,65.588,38.888,67.039,38.854
			L67.039,38.854z"/>
	</g>
</g>
<rect id="_x3C_Slice_x3E__118_" x="4.396" y="24.541" fill="none" width="138.346" height="26.75"/>
</svg>
