<?xml version="1.0" encoding="utf-8"?>
<!-- Generator: Adobe Illustrator 15.1.0, SVG Export Plug-In  -->
<!DOCTYPE svg PUBLIC "-//W3C//DTD SVG 1.1//EN" "http://www.w3.org/Graphics/SVG/1.1/DTD/svg11.dtd" [
	<!ENTITY ns_flows "http://ns.adobe.com/Flows/1.0/">
]>
<svg version="1.1"
	 xmlns="http://www.w3.org/2000/svg" xmlns:xlink="http://www.w3.org/1999/xlink" xmlns:a="http://ns.adobe.com/AdobeSVGViewerExtensions/3.0/"
	 x="0px" y="0px" width="141px" height="24px" viewBox="-0.418 27.164 141 24" enable-background="new -0.418 27.164 141 24"
	 xml:space="preserve">
<defs>
</defs>
<g>
	<path d="M80.584,3.96h2.435v17.004h-2.435V3.96z"/>
	<path d="M89.201,8.521c0-1.33,0.5-2.459,1.498-3.387c0.998-0.929,2.219-1.393,3.663-1.393c1.42,0,2.619,0.46,3.598,1.381
		c0.978,0.92,1.466,2.054,1.466,3.399c0,1.517-0.705,2.77-2.117,3.759c1.574,0.909,2.361,2.249,2.361,4.019
		c0,1.405-0.512,2.566-1.534,3.484s-2.313,1.376-3.87,1.376c-1.542,0-2.837-0.469-3.883-1.407c-1.047-0.938-1.57-2.097-1.57-3.478
		c0-1.73,0.803-3.062,2.41-3.995c-0.723-0.584-1.24-1.166-1.553-1.746S89.201,9.283,89.201,8.521z M97.211,16.4v-0.244
		c0-0.779-0.278-1.414-0.834-1.905c-0.556-0.491-1.276-0.736-2.16-0.736c-0.868,0-1.576,0.248-2.124,0.742
		c-0.548,0.495-0.822,1.136-0.822,1.923s0.28,1.428,0.84,1.923c0.561,0.495,1.286,0.742,2.18,0.742c0.852,0,1.552-0.227,2.1-0.682
		C96.938,17.71,97.211,17.122,97.211,16.4z M97.004,8.598c0-0.738-0.254-1.347-0.761-1.826c-0.507-0.479-1.15-0.718-1.93-0.718
		c-0.787,0-1.432,0.235-1.935,0.706c-0.504,0.471-0.755,1.076-0.755,1.814c0,0.706,0.266,1.311,0.797,1.813
		c0.531,0.503,1.171,0.755,1.917,0.755c0.738,0,1.367-0.25,1.887-0.749S97.004,9.295,97.004,8.598z"/>
	<path d="M106.803,3.741c1.559,0,2.847,0.818,3.865,2.453c1.019,1.635,1.527,3.711,1.527,6.226c0,2.581-0.509,4.678-1.527,6.293
		c-1.019,1.615-2.339,2.422-3.962,2.422c-1.647,0-2.971-0.791-3.969-2.374s-1.497-3.68-1.497-6.293c0-2.581,0.516-4.68,1.546-6.299
		C103.816,4.55,105.155,3.741,106.803,3.741z M106.827,6.054h-0.121c-0.934,0-1.674,0.574-2.222,1.722
		c-0.548,1.148-0.821,2.704-0.821,4.668c0,2.013,0.268,3.591,0.803,4.735c0.536,1.145,1.274,1.716,2.216,1.716
		s1.684-0.572,2.228-1.716c0.543-1.144,0.815-2.698,0.815-4.662c0-1.972-0.262-3.542-0.785-4.711S107.712,6.054,106.827,6.054z"/>
	<path d="M114.483,6.188c0-0.925,0.333-1.718,0.998-2.38c0.665-0.661,1.465-0.992,2.397-0.992c0.926,0,1.717,0.331,2.374,0.992
		c0.657,0.662,0.986,1.455,0.986,2.38c0,0.933-0.329,1.73-0.986,2.392c-0.657,0.662-1.448,0.992-2.374,0.992
		c-0.933,0-1.732-0.331-2.397-0.992C114.816,7.918,114.483,7.121,114.483,6.188z M115.811,6.188c0,0.568,0.202,1.055,0.608,1.46
		c0.405,0.406,0.893,0.609,1.46,0.609c0.561,0,1.039-0.203,1.437-0.609s0.597-0.893,0.597-1.46s-0.197-1.051-0.591-1.449
		c-0.394-0.397-0.874-0.596-1.442-0.596c-0.576,0-1.064,0.199-1.466,0.596C116.011,5.137,115.811,5.62,115.811,6.188z"/>
</g>
<g>
	<path d="M98.584,30.308h2.435v17.004h-2.435V30.308z"/>
	<path d="M107.201,34.869c0-1.33,0.5-2.459,1.498-3.387c0.998-0.929,2.219-1.393,3.663-1.393c1.42,0,2.619,0.46,3.598,1.381
		c0.978,0.92,1.466,2.054,1.466,3.399c0,1.517-0.705,2.77-2.117,3.759c1.574,0.909,2.361,2.249,2.361,4.019
		c0,1.405-0.512,2.566-1.534,3.484s-2.313,1.376-3.87,1.376c-1.542,0-2.837-0.469-3.883-1.407c-1.047-0.938-1.57-2.097-1.57-3.478
		c0-1.73,0.803-3.062,2.41-3.995c-0.723-0.584-1.24-1.166-1.553-1.746S107.201,35.631,107.201,34.869z M115.211,42.748v-0.244
		c0-0.779-0.278-1.414-0.834-1.905c-0.556-0.491-1.276-0.736-2.16-0.736c-0.868,0-1.576,0.248-2.124,0.742
		c-0.548,0.495-0.822,1.136-0.822,1.923s0.28,1.428,0.84,1.923c0.561,0.495,1.286,0.742,2.18,0.742c0.852,0,1.552-0.227,2.1-0.682
		C114.938,44.058,115.211,43.47,115.211,42.748z M115.004,34.945c0-0.738-0.254-1.347-0.761-1.826
		c-0.507-0.479-1.15-0.718-1.93-0.718c-0.787,0-1.432,0.235-1.935,0.706c-0.504,0.471-0.755,1.076-0.755,1.814
		c0,0.706,0.266,1.311,0.797,1.813c0.531,0.503,1.171,0.755,1.917,0.755c0.738,0,1.367-0.25,1.887-0.749
		S115.004,35.643,115.004,34.945z"/>
	<path d="M124.803,30.088c1.559,0,2.847,0.818,3.865,2.453c1.019,1.635,1.527,3.711,1.527,6.226c0,2.581-0.509,4.678-1.527,6.293
		c-1.019,1.615-2.339,2.422-3.962,2.422c-1.647,0-2.971-0.791-3.969-2.374s-1.497-3.68-1.497-6.293c0-2.581,0.516-4.68,1.546-6.299
		C121.816,30.898,123.155,30.088,124.803,30.088z M124.827,32.401h-0.121c-0.934,0-1.674,0.574-2.222,1.722
		c-0.548,1.148-0.821,2.704-0.821,4.668c0,2.013,0.268,3.591,0.803,4.735c0.536,1.145,1.274,1.716,2.216,1.716
		s1.684-0.572,2.228-1.716c0.543-1.144,0.815-2.698,0.815-4.662c0-1.972-0.262-3.542-0.785-4.711S125.712,32.401,124.827,32.401z"/>
	<path d="M132.483,32.535c0-0.925,0.333-1.718,0.998-2.38c0.665-0.661,1.465-0.992,2.397-0.992c0.926,0,1.717,0.331,2.374,0.992
		c0.657,0.662,0.986,1.455,0.986,2.38c0,0.933-0.329,1.73-0.986,2.392c-0.657,0.662-1.448,0.992-2.374,0.992
		c-0.933,0-1.732-0.331-2.397-0.992C132.816,34.266,132.483,33.468,132.483,32.535z M133.811,32.535c0,0.568,0.202,1.055,0.608,1.46
		c0.405,0.406,0.893,0.609,1.46,0.609c0.561,0,1.039-0.203,1.437-0.609s0.597-0.893,0.597-1.46s-0.197-1.051-0.591-1.449
		c-0.394-0.397-0.874-0.596-1.442-0.596c-0.576,0-1.064,0.199-1.466,0.596C134.011,31.484,133.811,31.967,133.811,32.535z"/>
</g>
<g>
	<g>
		<path d="M69.654,29.997c2.52,6.127,5.038,12.255,7.557,18.383c0.544,1.322,2.722,0.744,2.17-0.599
			c-2.52-6.127-5.038-12.255-7.557-18.383C71.28,28.076,69.103,28.654,69.654,29.997L69.654,29.997z"/>
	</g>
</g>
<g>
	<g>
		<path d="M79.381,48.379c1.814-6.128,3.63-12.255,5.445-18.383c0.413-1.395-1.759-1.986-2.17-0.599
			c-1.814,6.128-3.63,12.255-5.445,18.383C76.798,49.176,78.97,49.767,79.381,48.379L79.381,48.379z"/>
	</g>
</g>
<g>
	<g>
		<path d="M47.157,30.558c4.991-0.202,9.675,0.413,14.161,2.728c4.826,2.491,11.182,11.001,2.828,14.015
			c-2.304,0.831-4.963,0.633-7.297,0.109c-5.965-1.338-4.43-7.785-1.629-11.18c3.672-4.45,10.182-5.212,15.519-5.482
			c1.444-0.073,1.45-2.323,0-2.25c-7.225,0.365-17.007,2.252-19.735,10.209c-2.696,7.861,3.791,11.8,10.967,11.287
			c6.194-0.442,10.809-5.827,7.411-11.861c-4.442-7.889-13.759-10.169-22.225-9.826C45.711,28.367,45.705,30.617,47.157,30.558
			L47.157,30.558z"/>
	</g>
</g>
<g>
	<g>
		<path d="M24.021,30.336c4.991-0.202,9.676,0.413,14.161,2.728c4.826,2.492,11.182,11.001,2.828,14.015
			c-2.304,0.831-4.963,0.633-7.297,0.109c-5.965-1.338-4.431-7.786-1.629-11.18c3.672-4.451,10.181-5.212,15.518-5.482
			c1.443-0.073,1.451-2.324,0-2.25c-7.225,0.366-17.006,2.252-19.735,10.209c-2.696,7.861,3.792,11.799,10.968,11.287
			c6.193-0.442,10.809-5.828,7.411-11.861c-4.442-7.889-13.759-10.169-22.225-9.826C22.574,28.145,22.568,30.395,24.021,30.336
			L24.021,30.336z"/>
	</g>
</g>
<g>
	<g>
		<path d="M1.348,30.167c4.99-0.202,9.676,0.412,14.161,2.728c4.825,2.492,11.182,11,2.827,14.014
			c-2.303,0.831-4.963,0.633-7.297,0.109c-5.963-1.337-4.43-7.786-1.629-11.18c3.672-4.45,10.183-5.212,15.52-5.482
			c1.443-0.073,1.451-2.323,0-2.25c-7.225,0.366-17.008,2.252-19.736,10.209c-2.695,7.86,3.792,11.799,10.968,11.287
			c6.193-0.442,10.81-5.827,7.411-11.861c-4.443-7.889-13.758-10.168-22.225-9.825C-0.098,27.976-0.104,30.226,1.348,30.167
			L1.348,30.167z"/>
	</g>
</g>
<rect id="_x3C_Slice_x3E__118_" y="27.498" fill="none" width="139.832" height="23"/>
</svg>
