<?xml version="1.0" encoding="utf-8"?>
<!-- Generator: Adobe Illustrator 15.1.0, SVG Export Plug-In  -->
<!DOCTYPE svg PUBLIC "-//W3C//DTD SVG 1.1//EN" "http://www.w3.org/Graphics/SVG/1.1/DTD/svg11.dtd" [
	<!ENTITY ns_flows "http://ns.adobe.com/Flows/1.0/">
]>
<svg version="1.1"
	 xmlns="http://www.w3.org/2000/svg" xmlns:xlink="http://www.w3.org/1999/xlink" xmlns:a="http://ns.adobe.com/AdobeSVGViewerExtensions/3.0/"
	 x="0px" y="0px" width="118px" height="25px" viewBox="0 26.96 118 25" enable-background="new 0 26.96 118 25"
	 xml:space="preserve">
<defs>
</defs>
<g>
	<path d="M2.88,3.972h2.441v14.832h7.678v2.222H2.88V3.972z"/>
	<path d="M14.806,9.794h2.223v12.83c0,1.945-0.747,3.32-2.24,4.126l-1.654-1.624c0.513-0.179,0.92-0.493,1.221-0.94
		c0.301-0.448,0.451-0.969,0.451-1.563V9.794z M15.856,5.07c0.365,0,0.679,0.128,0.939,0.385c0.261,0.256,0.391,0.563,0.391,0.921
		c0,0.375-0.124,0.688-0.372,0.94c-0.249,0.252-0.56,0.378-0.935,0.378c-0.35,0-0.658-0.13-0.928-0.391
		c-0.268-0.26-0.402-0.569-0.402-0.928c0-0.342,0.132-0.645,0.396-0.91C15.211,5.203,15.515,5.07,15.856,5.07z"/>
	<path d="M27.466,21.025v-1.44c-0.473,0.517-1.012,0.918-1.618,1.205c-0.606,0.287-1.21,0.431-1.813,0.431
		c-0.708,0-1.361-0.177-1.959-0.531c-0.599-0.354-1.05-0.834-1.355-1.44c-0.305-0.606-0.458-1.613-0.458-3.021V9.794h2.223v6.4
		c0,1.179,0.168,2.001,0.506,2.469s0.93,0.701,1.776,0.701c1.058,0,1.957-0.517,2.698-1.55v-8.02h2.221v11.23H27.466z"/>
	<path d="M32.263,20.219v-2.393c0.627,0.439,1.268,0.795,1.923,1.068c0.654,0.273,1.206,0.409,1.653,0.409
		c0.465,0,0.863-0.114,1.197-0.342c0.333-0.228,0.5-0.5,0.5-0.818c0-0.325-0.108-0.596-0.323-0.812
		c-0.216-0.215-0.682-0.526-1.397-0.934c-1.433-0.797-2.371-1.479-2.814-2.045c-0.443-0.565-0.665-1.182-0.665-1.849
		c0-0.862,0.336-1.566,1.007-2.112c0.672-0.545,1.536-0.818,2.594-0.818c1.1,0,2.227,0.31,3.382,0.928V12.7
		c-1.318-0.797-2.396-1.196-3.235-1.196c-0.431,0-0.779,0.092-1.043,0.275c-0.265,0.184-0.396,0.426-0.396,0.727
		c0,0.261,0.119,0.51,0.358,0.746c0.24,0.236,0.661,0.521,1.264,0.854l0.794,0.452c1.872,1.058,2.809,2.229,2.809,3.515
		c0,0.919-0.36,1.674-1.081,2.264c-0.72,0.59-1.646,0.885-2.776,0.885c-0.668,0-1.262-0.071-1.783-0.213
		C33.707,20.864,33.052,20.602,32.263,20.219z"/>
	<path d="M42.382,3.972h2.223v7.3c0.928-1.131,2.079-1.697,3.454-1.697c0.749,0,1.42,0.188,2.015,0.562
		c0.594,0.375,1.035,0.891,1.324,1.55c0.288,0.659,0.434,1.64,0.434,2.942v6.396h-2.223v-6.946c0-0.822-0.201-1.483-0.604-1.983
		c-0.403-0.501-0.934-0.751-1.594-0.751c-0.488,0-0.947,0.126-1.379,0.378c-0.432,0.252-0.907,0.671-1.428,1.257v8.044h-2.223V3.972
		z"/>
	<path d="M60.302,9.77c1.709,0,3.13,0.551,4.261,1.654c1.131,1.103,1.696,2.489,1.696,4.157c0,1.62-0.573,2.964-1.721,4.035
		c-1.147,1.07-2.592,1.605-4.334,1.605c-1.684,0-3.092-0.543-4.223-1.629c-1.132-1.087-1.697-2.443-1.697-4.071
		c0-1.644,0.571-3.013,1.715-4.107C57.143,10.317,58.577,9.77,60.302,9.77z M60.181,11.772c-1.066,0-1.941,0.35-2.625,1.05
		c-0.684,0.7-1.025,1.591-1.025,2.673c0,1.074,0.35,1.951,1.05,2.631c0.7,0.679,1.599,1.019,2.698,1.019
		c1.09,0,1.983-0.344,2.679-1.032c0.696-0.688,1.044-1.568,1.044-2.643c0-1.066-0.362-1.949-1.086-2.649
		C62.19,12.122,61.278,11.772,60.181,11.772z"/>
	<path d="M68.577,26.75V9.794h3.89c1.991,0,3.542,0.497,4.651,1.489c1.109,0.993,1.664,2.38,1.664,4.163
		c0,1.685-0.521,3.068-1.565,4.15c-1.045,1.083-2.375,1.624-3.992,1.624c-0.715,0-1.507-0.159-2.376-0.476v6.006H68.577z
		 M72.419,11.87h-1.57v6.909c0.682,0.35,1.396,0.525,2.144,0.525c1.039,0,1.89-0.362,2.552-1.086
		c0.662-0.724,0.992-1.656,0.992-2.795c0-0.732-0.156-1.379-0.469-1.941s-0.738-0.97-1.278-1.227
		C74.249,11.998,73.459,11.87,72.419,11.87z"/>
	<path d="M81.077,26.75V9.794h3.89c1.991,0,3.542,0.497,4.651,1.489c1.109,0.993,1.664,2.38,1.664,4.163
		c0,1.685-0.521,3.068-1.565,4.15c-1.045,1.083-2.375,1.624-3.992,1.624c-0.715,0-1.507-0.159-2.376-0.476v6.006H81.077z
		 M84.919,11.87h-1.57v6.909c0.682,0.35,1.396,0.525,2.144,0.525c1.039,0,1.89-0.362,2.552-1.086
		c0.662-0.724,0.992-1.656,0.992-2.795c0-0.732-0.156-1.379-0.469-1.941s-0.738-0.97-1.278-1.227
		C86.749,11.998,85.959,11.87,84.919,11.87z"/>
</g>
<g>
	<path d="M16.442,28.972h2.282v17.053h-2.454V32.756l-5.242,6.592h-0.452l-5.304-6.592v13.269H2.831V28.972h2.312l5.666,7.004
		L16.442,28.972z"/>
	<path d="M31.663,40.605h-7.897c0.057,1.074,0.417,1.929,1.08,2.563s1.521,0.952,2.569,0.952c1.465,0,2.816-0.456,4.053-1.367v2.173
		c-0.684,0.456-1.36,0.781-2.032,0.977c-0.671,0.195-1.458,0.293-2.362,0.293c-1.236,0-2.237-0.256-3.002-0.769
		c-0.766-0.513-1.378-1.202-1.838-2.069c-0.46-0.866-0.689-1.869-0.689-3.009c0-1.709,0.484-3.099,1.453-4.169
		c0.968-1.07,2.226-1.605,3.771-1.605c1.489,0,2.678,0.521,3.564,1.563c0.887,1.042,1.33,2.438,1.33,4.187V40.605z M23.814,39.274
		h5.651c-0.057-0.887-0.321-1.57-0.793-2.051c-0.472-0.48-1.106-0.72-1.904-0.72s-1.451,0.24-1.959,0.72
		C24.301,37.704,23.969,38.388,23.814,39.274z"/>
	<path d="M34.118,28.972h2.221v17.053h-2.221V28.972z"/>
	<path d="M39.599,28.972h2.223v17.053h-2.223V28.972z"/>
	<path d="M52.087,39.274v4.773c0,0.383,0.13,0.574,0.391,0.574c0.268,0,0.688-0.199,1.257-0.598v1.355
		c-0.505,0.326-0.909,0.547-1.215,0.665c-0.305,0.118-0.624,0.177-0.958,0.177c-0.952,0-1.514-0.374-1.685-1.123
		c-0.944,0.732-1.949,1.099-3.015,1.099c-0.781,0-1.433-0.258-1.953-0.775c-0.521-0.517-0.781-1.166-0.781-1.947
		c0-0.708,0.254-1.341,0.763-1.898c0.508-0.557,1.23-0.999,2.167-1.324l2.844-0.977v-0.598c0-1.351-0.676-2.026-2.026-2.026
		c-1.213,0-2.393,0.627-3.54,1.88v-2.429c0.862-1.017,2.104-1.526,3.723-1.526c1.213,0,2.186,0.317,2.918,0.952
		c0.244,0.204,0.464,0.474,0.659,0.812c0.195,0.337,0.319,0.675,0.372,1.013C52.06,37.689,52.087,38.331,52.087,39.274z
		 M49.901,43.803v-3.333l-1.489,0.574c-0.757,0.301-1.292,0.604-1.605,0.91c-0.313,0.305-0.47,0.686-0.47,1.141
		c0,0.464,0.148,0.842,0.445,1.135s0.682,0.439,1.154,0.439C48.644,44.67,49.299,44.381,49.901,43.803z"/>
	<path d="M57.921,34.794v1.428c0.993-1.099,2.12-1.648,3.382-1.648c0.7,0,1.351,0.181,1.953,0.543
		c0.603,0.362,1.06,0.858,1.373,1.489c0.313,0.63,0.47,1.629,0.47,2.997v6.421h-2.221v-6.396c0-1.147-0.176-1.967-0.525-2.459
		c-0.35-0.493-0.936-0.739-1.758-0.739c-1.05,0-1.941,0.525-2.674,1.575v8.02h-2.27v-11.23H57.921z"/>
	<path d="M68.151,28.972h2.221v7.3c0.928-1.131,2.08-1.697,3.455-1.697c0.749,0,1.42,0.188,2.014,0.562
		c0.595,0.375,1.036,0.891,1.325,1.55c0.288,0.659,0.433,1.64,0.433,2.942v6.396h-2.221v-6.946c0-0.822-0.202-1.483-0.604-1.983
		c-0.403-0.501-0.935-0.751-1.593-0.751c-0.488,0-0.948,0.126-1.38,0.378c-0.432,0.252-0.907,0.671-1.429,1.257v8.044h-2.221V28.972
		z"/>
	<path d="M86.071,34.77c1.709,0,3.129,0.551,4.26,1.654c1.131,1.103,1.697,2.489,1.697,4.157c0,1.62-0.574,2.964-1.722,4.035
		c-1.147,1.07-2.592,1.605-4.333,1.605c-1.686,0-3.093-0.543-4.225-1.629c-1.131-1.087-1.696-2.443-1.696-4.071
		c0-1.644,0.571-3.013,1.715-4.107C82.911,35.317,84.346,34.77,86.071,34.77z M85.948,36.772c-1.065,0-1.94,0.35-2.624,1.05
		c-0.684,0.7-1.025,1.591-1.025,2.673c0,1.074,0.35,1.951,1.05,2.631c0.7,0.679,1.6,1.019,2.697,1.019
		c1.091,0,1.984-0.344,2.68-1.032c0.696-0.688,1.044-1.568,1.044-2.643c0-1.066-0.362-1.949-1.087-2.649
		C87.959,37.122,87.048,36.772,85.948,36.772z"/>
	<path d="M94.347,51.75V34.794h3.89c1.991,0,3.542,0.497,4.651,1.489c1.109,0.993,1.664,2.38,1.664,4.163
		c0,1.685-0.521,3.068-1.565,4.15c-1.045,1.083-2.375,1.624-3.992,1.624c-0.715,0-1.507-0.159-2.376-0.476v6.006H94.347z
		 M98.188,36.87h-1.57v6.909c0.682,0.35,1.396,0.525,2.144,0.525c1.039,0,1.89-0.362,2.552-1.086
		c0.662-0.724,0.992-1.656,0.992-2.795c0-0.732-0.156-1.379-0.469-1.941s-0.738-0.97-1.278-1.227
		C100.019,36.998,99.229,36.87,98.188,36.87z"/>
	<path d="M106.847,51.75V34.794h3.89c1.991,0,3.542,0.497,4.651,1.489c1.109,0.993,1.664,2.38,1.664,4.163
		c0,1.685-0.521,3.068-1.565,4.15c-1.045,1.083-2.375,1.624-3.992,1.624c-0.715,0-1.507-0.159-2.376-0.476v6.006H106.847z
		 M110.688,36.87h-1.57v6.909c0.682,0.35,1.396,0.525,2.144,0.525c1.039,0,1.89-0.362,2.552-1.086
		c0.662-0.724,0.992-1.656,0.992-2.795c0-0.732-0.156-1.379-0.469-1.941s-0.738-0.97-1.278-1.227
		C112.519,36.998,111.729,36.87,110.688,36.87z"/>
</g>
<g>
	<path d="M2.953,71.025V53.972h4.272c1.726,0,3.095,0.427,4.107,1.282c1.014,0.854,1.52,2.01,1.52,3.467
		c0,0.993-0.248,1.852-0.744,2.576c-0.496,0.725-1.209,1.266-2.137,1.624c0.546,0.358,1.079,0.847,1.6,1.465
		c0.521,0.619,1.253,1.697,2.197,3.235c0.594,0.969,1.07,1.697,1.428,2.185l0.904,1.221h-2.906l-0.743-1.124
		c-0.024-0.041-0.073-0.11-0.146-0.208l-0.476-0.671l-0.756-1.246l-0.816-1.331c-0.504-0.7-0.966-1.257-1.386-1.672
		c-0.419-0.414-0.798-0.713-1.137-0.896c-0.338-0.183-0.906-0.274-1.704-0.274H5.395v7.422H2.953z M6.127,56.047H5.395v5.383h0.928
		c1.237,0,2.085-0.105,2.545-0.317c0.46-0.211,0.818-0.531,1.074-0.958c0.257-0.427,0.385-0.913,0.385-1.458
		c0-0.537-0.143-1.023-0.427-1.458c-0.285-0.436-0.687-0.743-1.203-0.922C8.18,56.137,7.323,56.047,6.127,56.047z"/>
	<path d="M23.046,59.77c1.709,0,3.13,0.551,4.261,1.654c1.131,1.103,1.696,2.489,1.696,4.157c0,1.62-0.573,2.964-1.721,4.035
		c-1.147,1.07-2.592,1.605-4.334,1.605c-1.684,0-3.092-0.543-4.223-1.629c-1.132-1.087-1.697-2.443-1.697-4.071
		c0-1.644,0.571-3.013,1.715-4.107C19.887,60.317,21.321,59.77,23.046,59.77z M22.925,61.772c-1.066,0-1.941,0.35-2.625,1.05
		c-0.684,0.7-1.025,1.591-1.025,2.673c0,1.074,0.35,1.951,1.05,2.631c0.7,0.679,1.599,1.019,2.698,1.019
		c1.09,0,1.983-0.344,2.679-1.032c0.696-0.688,1.044-1.568,1.044-2.643c0-1.066-0.362-1.949-1.086-2.649
		C24.935,62.122,24.022,61.772,22.925,61.772z"/>
	<path d="M33.69,59.794v1.428c0.992-1.099,2.119-1.648,3.381-1.648c0.7,0,1.351,0.181,1.953,0.543
		c0.603,0.362,1.06,0.858,1.373,1.489c0.313,0.63,0.471,1.629,0.471,2.997v6.421h-2.223v-6.396c0-1.147-0.175-1.967-0.524-2.459
		c-0.35-0.493-0.936-0.739-1.758-0.739c-1.05,0-1.94,0.525-2.673,1.575v8.02h-2.271v-11.23H33.69z"/>
	<path d="M51.464,53.972h2.233v17.053h-4.749c-1.66,0-2.984-0.525-3.973-1.575c-0.989-1.05-1.483-2.458-1.483-4.224
		c0-1.652,0.519-3.011,1.557-4.077c1.037-1.066,2.362-1.599,3.974-1.599c0.748,0,1.563,0.159,2.441,0.476V53.972z M51.464,69.121
		v-7.117c-0.692-0.35-1.393-0.525-2.1-0.525c-1.107,0-1.988,0.362-2.644,1.086c-0.655,0.725-0.982,1.701-0.982,2.93
		c0,1.156,0.285,2.047,0.854,2.673c0.342,0.375,0.704,0.627,1.086,0.757c0.383,0.13,1.07,0.195,2.063,0.195H51.464z"/>
	<path d="M63.769,64.274v4.773c0,0.383,0.13,0.574,0.391,0.574c0.268,0,0.688-0.199,1.257-0.598v1.355
		c-0.505,0.326-0.909,0.547-1.215,0.665c-0.305,0.118-0.624,0.177-0.958,0.177c-0.952,0-1.514-0.374-1.685-1.123
		c-0.944,0.732-1.949,1.099-3.015,1.099c-0.781,0-1.433-0.258-1.953-0.775c-0.521-0.517-0.781-1.166-0.781-1.947
		c0-0.708,0.254-1.341,0.763-1.898c0.508-0.557,1.23-0.999,2.167-1.324l2.844-0.977v-0.598c0-1.351-0.676-2.026-2.026-2.026
		c-1.213,0-2.393,0.627-3.54,1.88v-2.429c0.862-1.017,2.104-1.526,3.723-1.526c1.213,0,2.186,0.317,2.918,0.952
		c0.244,0.204,0.464,0.474,0.659,0.812c0.195,0.337,0.319,0.675,0.372,1.013C63.741,62.689,63.769,63.331,63.769,64.274z
		 M61.583,68.803v-3.333l-1.489,0.574c-0.757,0.301-1.292,0.604-1.605,0.91c-0.313,0.305-0.47,0.686-0.47,1.141
		c0,0.464,0.148,0.842,0.445,1.135s0.682,0.439,1.154,0.439C60.325,69.67,60.98,69.381,61.583,68.803z"/>
	<path d="M65.808,61.577l4.175-4.102v2.319h3.552v2.002h-3.552v5.497c0,1.284,0.533,1.925,1.599,1.925
		c0.798,0,1.641-0.264,2.527-0.793V70.5c-0.854,0.48-1.786,0.72-2.795,0.72c-1.018,0-1.864-0.297-2.539-0.891
		c-0.212-0.179-0.387-0.38-0.525-0.604c-0.139-0.224-0.255-0.517-0.348-0.879c-0.094-0.362-0.141-1.051-0.141-2.069v-4.98h-1.953
		V61.577z"/>
</g>
<rect id="_x3C_Slice_x3E__134_" y="26.96" fill="none" width="118" height="25"/>
</svg>
