<?xml version="1.0" encoding="utf-8"?>
<!-- Generator: Adobe Illustrator 15.1.0, SVG Export Plug-In  -->
<!DOCTYPE svg PUBLIC "-//W3C//DTD SVG 1.1//EN" "http://www.w3.org/Graphics/SVG/1.1/DTD/svg11.dtd" [
	<!ENTITY ns_flows "http://ns.adobe.com/Flows/1.0/">
]>
<svg version="1.1"
	 xmlns="http://www.w3.org/2000/svg" xmlns:xlink="http://www.w3.org/1999/xlink" xmlns:a="http://ns.adobe.com/AdobeSVGViewerExtensions/3.0/"
	 x="0px" y="0px" width="24px" height="23px" viewBox="-0.542 -0.125 24 23" enable-background="new -0.542 -0.125 24 23"
	 xml:space="preserve">
<defs>
</defs>
<g>
	<g>
		<path d="M2.058,22C7.999,15.413,14.175,9.058,21.243,3.666c1.138-0.867,0.02-2.823-1.135-1.942
			C12.878,7.238,6.546,13.669,0.468,20.409C-0.501,21.483,1.085,23.079,2.058,22L2.058,22z"/>
	</g>
</g>
<g>
	<g>
		<path d="M2.815,2.059c6.35,6.202,12.438,12.623,17.549,19.904c0.826,1.178,2.777,0.055,1.941-1.136
			c-5.221-7.438-11.411-14.022-17.9-20.359C3.368-0.546,1.775,1.043,2.815,2.059L2.815,2.059z"/>
	</g>
</g>
<rect id="_x3C_Slice_x3E__117_" fill="none" width="22.625" height="22.564"/>
</svg>
