<?xml version="1.0" encoding="utf-8"?>
<!-- Generator: Adobe Illustrator 15.1.0, SVG Export Plug-In  -->
<!DOCTYPE svg PUBLIC "-//W3C//DTD SVG 1.1//EN" "http://www.w3.org/Graphics/SVG/1.1/DTD/svg11.dtd" [
	<!ENTITY ns_flows "http://ns.adobe.com/Flows/1.0/">
]>
<svg version="1.1"
	 xmlns="http://www.w3.org/2000/svg" xmlns:xlink="http://www.w3.org/1999/xlink" xmlns:a="http://ns.adobe.com/AdobeSVGViewerExtensions/3.0/"
	 x="0px" y="0px" width="81px" height="24px" viewBox="-0.25 25.145 81 24" enable-background="new -0.25 25.145 81 24"
	 xml:space="preserve">
<defs>
</defs>
<g>
	<path d="M38.826,11.068h0.146c1.063,0,1.872-0.219,2.428-0.657c0.557-0.438,0.834-1.075,0.834-1.911c0-0.754-0.27-1.367-0.81-1.838
		c-0.539-0.471-1.247-0.706-2.124-0.706c-0.884,0-1.866,0.276-2.945,0.828V4.459c0.99-0.495,2.069-0.743,3.238-0.743
		c1.565,0,2.801,0.41,3.706,1.229c0.904,0.819,1.357,1.938,1.357,3.357c0,0.86-0.175,1.583-0.523,2.171
		c-0.35,0.588-0.905,1.093-1.668,1.514c0.665,0.26,1.152,0.579,1.461,0.956c0.309,0.378,0.548,0.834,0.718,1.371
		c0.171,0.536,0.256,1.104,0.256,1.705c0,1.486-0.495,2.714-1.485,3.685s-2.239,1.456-3.749,1.456c-1.29,0-2.536-0.313-3.736-0.938
		v-2.653c1.282,0.803,2.527,1.205,3.736,1.205c0.82,0,1.479-0.244,1.979-0.73s0.748-1.132,0.748-1.935
		c0-0.674-0.207-1.262-0.62-1.765c-0.244-0.284-0.514-0.493-0.81-0.627c-0.297-0.134-0.936-0.262-1.917-0.383l-0.22-0.024V11.068z"
		/>
	<path d="M54.455,3.911l0.243-0.17l1.473,1.85c-1.298,0.838-2.375,1.752-3.231,2.744c-0.856,0.992-1.516,2.159-1.978,3.5
		c0.9-0.463,1.797-0.694,2.689-0.694c1.339,0,2.467,0.475,3.384,1.424c0.917,0.95,1.376,2.114,1.376,3.494
		c0,1.42-0.499,2.625-1.497,3.615c-0.998,0.99-2.212,1.485-3.64,1.485c-1.599,0-2.891-0.562-3.877-1.686
		c-0.985-1.124-1.479-2.594-1.479-4.412c0-1.363,0.253-2.721,0.761-4.072c0.507-1.351,1.237-2.617,2.19-3.798
		C51.824,6.011,53.019,4.917,54.455,3.911z M50.438,14.355c-0.065,0.381-0.098,0.808-0.098,1.278c0,0.958,0.278,1.745,0.834,2.361
		c0.556,0.617,1.268,0.925,2.136,0.925c0.779,0,1.423-0.264,1.93-0.791s0.761-1.193,0.761-1.997c0-0.819-0.27-1.483-0.81-1.99
		c-0.54-0.507-1.252-0.761-2.136-0.761c-0.455,0-0.866,0.069-1.236,0.207C51.45,13.726,50.99,13.982,50.438,14.355z"/>
	<path d="M65.593,3.741c1.559,0,2.847,0.818,3.865,2.453c1.019,1.635,1.527,3.711,1.527,6.226c0,2.581-0.509,4.678-1.527,6.293
		c-1.019,1.615-2.339,2.422-3.962,2.422c-1.647,0-2.971-0.791-3.969-2.374s-1.497-3.68-1.497-6.293c0-2.581,0.516-4.68,1.546-6.299
		C62.606,4.55,63.945,3.741,65.593,3.741z M65.617,6.054h-0.121c-0.934,0-1.674,0.574-2.222,1.722
		c-0.548,1.148-0.821,2.704-0.821,4.668c0,2.013,0.268,3.591,0.803,4.735c0.536,1.145,1.274,1.716,2.216,1.716
		s1.684-0.572,2.228-1.716c0.543-1.144,0.815-2.698,0.815-4.662c0-1.972-0.262-3.542-0.785-4.711S66.502,6.054,65.617,6.054z"/>
	<path d="M73.273,6.188c0-0.925,0.333-1.718,0.998-2.38c0.665-0.661,1.465-0.992,2.397-0.992c0.926,0,1.717,0.331,2.374,0.992
		c0.657,0.662,0.986,1.455,0.986,2.38c0,0.933-0.329,1.73-0.986,2.392c-0.657,0.662-1.448,0.992-2.374,0.992
		c-0.933,0-1.732-0.331-2.397-0.992C73.606,7.918,73.273,7.121,73.273,6.188z M74.601,6.188c0,0.568,0.202,1.055,0.608,1.46
		c0.405,0.406,0.893,0.609,1.46,0.609c0.561,0,1.039-0.203,1.437-0.609s0.597-0.893,0.597-1.46s-0.197-1.051-0.591-1.449
		c-0.394-0.397-0.874-0.596-1.442-0.596c-0.576,0-1.064,0.199-1.466,0.596C74.801,5.137,74.601,5.62,74.601,6.188z"/>
</g>
<g>
	<path d="M36.854,30.538h7.547v2.167H39.07v4.297c0.17-0.016,0.345-0.024,0.523-0.024c1.646,0,3.002,0.501,4.065,1.503
		c1.063,1.002,1.594,2.278,1.594,3.828c0,1.599-0.525,2.899-1.576,3.901c-1.051,1.002-2.412,1.503-4.083,1.503
		c-1.38,0-2.719-0.333-4.018-0.998v-2.507c1.226,0.795,2.423,1.193,3.591,1.193c1.022,0,1.881-0.298,2.574-0.895
		c0.694-0.596,1.041-1.329,1.041-2.197c0-0.901-0.377-1.653-1.132-2.258s-1.696-0.907-2.824-0.907c-0.966,0-1.623,0.082-1.972,0.244
		V30.538z"/>
	<path d="M55.647,30.318h0.999v9.543h1.898v2.069h-1.898v5.611h-2.374v-5.611h-7.193v-1.047L55.647,30.318z M54.272,39.861v-4.929
		l-3.935,4.929H54.272z"/>
	<path d="M65.593,30.318c1.559,0,2.847,0.818,3.865,2.453c1.019,1.635,1.527,3.711,1.527,6.226c0,2.581-0.509,4.678-1.527,6.293
		c-1.019,1.615-2.339,2.422-3.962,2.422c-1.647,0-2.971-0.791-3.969-2.374s-1.497-3.68-1.497-6.293c0-2.581,0.516-4.68,1.546-6.299
		C62.606,31.128,63.945,30.318,65.593,30.318z M65.617,32.631h-0.121c-0.934,0-1.674,0.574-2.222,1.722
		c-0.548,1.148-0.821,2.704-0.821,4.668c0,2.013,0.268,3.591,0.803,4.735c0.536,1.145,1.274,1.716,2.216,1.716
		s1.684-0.572,2.228-1.716c0.543-1.144,0.815-2.698,0.815-4.662c0-1.972-0.262-3.542-0.785-4.711S66.502,32.631,65.617,32.631z"/>
	<path d="M73.273,32.765c0-0.925,0.333-1.718,0.998-2.38c0.665-0.661,1.465-0.992,2.397-0.992c0.926,0,1.717,0.331,2.374,0.992
		c0.657,0.662,0.986,1.455,0.986,2.38c0,0.933-0.329,1.73-0.986,2.392c-0.657,0.662-1.448,0.992-2.374,0.992
		c-0.933,0-1.732-0.331-2.397-0.992C73.606,34.496,73.273,33.698,73.273,32.765z M74.601,32.765c0,0.568,0.202,1.055,0.608,1.46
		c0.405,0.406,0.893,0.609,1.46,0.609c0.561,0,1.039-0.203,1.437-0.609s0.597-0.893,0.597-1.46s-0.197-1.051-0.591-1.449
		c-0.394-0.397-0.874-0.596-1.442-0.596c-0.576,0-1.064,0.199-1.466,0.596C74.801,31.714,74.601,32.197,74.601,32.765z"/>
</g>
<g>
	<g>
		<path d="M1.447,38.227c2.027-0.047,3.922,0.143,5.879,0.682c2.365,0.652,8.191,6.27,2.742,7.714
			c-2.878,0.763-7.359-0.926-3.704-5.558c0.64-0.81,1.7-1.448,2.507-2.078c5.067-3.956,10.259-7.806,15.75-11.157
			c1.235-0.754,0.105-2.701-1.137-1.942c-5.9,3.602-11.434,7.784-16.878,12.035c-3.321,2.593-6.228,8.197-0.954,10.486
			c3.258,1.414,7.977,0.489,9.112-3.17c2.112-6.806-9.071-9.36-13.317-9.261C-0.002,36.011-0.004,38.261,1.447,38.227L1.447,38.227z
			"/>
	</g>
</g>
<rect id="_x3C_Slice_x3E__117_" y="25.332" fill="none" width="80.313" height="23.813"/>
</svg>
