<?xml version="1.0" encoding="utf-8"?>
<!-- Generator: Adobe Illustrator 15.1.0, SVG Export Plug-In  -->
<!DOCTYPE svg PUBLIC "-//W3C//DTD SVG 1.1//EN" "http://www.w3.org/Graphics/SVG/1.1/DTD/svg11.dtd" [
	<!ENTITY ns_flows "http://ns.adobe.com/Flows/1.0/">
]>
<svg version="1.1"
	 xmlns="http://www.w3.org/2000/svg" xmlns:xlink="http://www.w3.org/1999/xlink" xmlns:a="http://ns.adobe.com/AdobeSVGViewerExtensions/3.0/"
	 x="0px" y="0px" width="81px" height="25px" viewBox="-0.25 22.874 81 25" enable-background="new -0.25 22.874 81 25"
	 xml:space="preserve">
<defs>
</defs>
<g>
	<path d="M35.552,3.96h11.004L38.86,21.164l-2.176-0.917l6.218-13.961h-7.351V3.96z"/>
	<path d="M51.938,18.615h6.474v2.349H47.65v-0.17l1.022-1.205c1.599-1.98,2.871-3.66,3.816-5.039s1.563-2.422,1.851-3.128
		c0.287-0.706,0.432-1.404,0.432-2.094c0-0.957-0.271-1.726-0.815-2.307c-0.544-0.58-1.266-0.87-2.167-0.87
		c-0.682,0-1.353,0.201-2.014,0.603c-0.662,0.402-1.256,0.968-1.784,1.698V5.36c1.323-1.079,2.687-1.619,4.09-1.619
		c1.485,0,2.709,0.495,3.67,1.485c0.962,0.99,1.442,2.248,1.442,3.773c0,0.682-0.119,1.411-0.358,2.186s-0.663,1.668-1.271,2.678
		s-1.643,2.388-3.103,4.133L51.938,18.615z"/>
	<path d="M65.593,3.741c1.559,0,2.847,0.818,3.865,2.453c1.019,1.635,1.527,3.711,1.527,6.226c0,2.581-0.509,4.678-1.527,6.293
		c-1.019,1.615-2.339,2.422-3.962,2.422c-1.647,0-2.971-0.791-3.969-2.374s-1.497-3.68-1.497-6.293c0-2.581,0.516-4.68,1.546-6.299
		C62.606,4.55,63.945,3.741,65.593,3.741z M65.617,6.054h-0.121c-0.934,0-1.674,0.574-2.222,1.722
		c-0.548,1.148-0.821,2.704-0.821,4.668c0,2.013,0.268,3.591,0.803,4.735c0.536,1.145,1.274,1.716,2.216,1.716
		s1.684-0.572,2.228-1.716c0.543-1.144,0.815-2.698,0.815-4.662c0-1.972-0.262-3.542-0.785-4.711S66.502,6.054,65.617,6.054z"/>
	<path d="M73.273,6.188c0-0.925,0.333-1.718,0.998-2.38c0.665-0.661,1.465-0.992,2.397-0.992c0.926,0,1.717,0.331,2.374,0.992
		c0.657,0.662,0.986,1.455,0.986,2.38c0,0.933-0.329,1.73-0.986,2.392c-0.657,0.662-1.448,0.992-2.374,0.992
		c-0.933,0-1.732-0.331-2.397-0.992C73.606,7.918,73.273,7.121,73.273,6.188z M74.601,6.188c0,0.568,0.202,1.055,0.608,1.46
		c0.405,0.406,0.893,0.609,1.46,0.609c0.561,0,1.039-0.203,1.437-0.609s0.597-0.893,0.597-1.46s-0.197-1.051-0.591-1.449
		c-0.394-0.397-0.874-0.596-1.442-0.596c-0.576,0-1.064,0.199-1.466,0.596C74.801,5.137,74.601,5.62,74.601,6.188z"/>
</g>
<g>
	<path d="M38.997,46.195L37.5,44.43c1.258-0.795,2.356-1.759,3.299-2.891c0.94-1.132,1.569-2.294,1.886-3.487
		c-0.771,0.479-1.676,0.718-2.714,0.718c-1.299,0-2.412-0.482-3.341-1.448c-0.93-0.966-1.395-2.126-1.395-3.481
		c0-1.412,0.495-2.608,1.485-3.59s2.199-1.473,3.627-1.473c1.607,0,2.922,0.581,3.944,1.741c1.022,1.161,1.533,2.649,1.533,4.467
		c0,2.061-0.641,4.145-1.923,6.25C42.62,43.34,40.985,44.994,38.997,46.195z M43.16,35.629c0.097-0.649,0.146-1.071,0.146-1.266
		c0-0.981-0.273-1.785-0.821-2.41c-0.548-0.625-1.252-0.938-2.112-0.938c-0.787,0-1.438,0.266-1.953,0.797
		c-0.516,0.532-0.773,1.199-0.773,2.002c0,0.738,0.28,1.375,0.84,1.911c0.561,0.536,1.229,0.804,2.009,0.804
		C41.402,36.53,42.291,36.23,43.16,35.629z"/>
	<path d="M53.128,28.776c1.559,0,2.847,0.818,3.865,2.453c1.019,1.635,1.527,3.711,1.527,6.226c0,2.581-0.509,4.678-1.527,6.293
		c-1.019,1.615-2.339,2.422-3.962,2.422c-1.647,0-2.971-0.791-3.969-2.374s-1.497-3.68-1.497-6.293c0-2.581,0.516-4.68,1.546-6.299
		C50.142,29.586,51.48,28.776,53.128,28.776z M53.152,31.089h-0.121c-0.934,0-1.674,0.574-2.222,1.722
		c-0.548,1.148-0.821,2.704-0.821,4.668c0,2.013,0.268,3.591,0.803,4.735c0.536,1.145,1.274,1.716,2.216,1.716
		s1.684-0.572,2.228-1.716c0.543-1.144,0.815-2.698,0.815-4.662c0-1.972-0.262-3.542-0.785-4.711S54.037,31.089,53.152,31.089z"/>
	<path d="M65.593,28.776c1.559,0,2.847,0.818,3.865,2.453c1.019,1.635,1.527,3.711,1.527,6.226c0,2.581-0.509,4.678-1.527,6.293
		c-1.019,1.615-2.339,2.422-3.962,2.422c-1.647,0-2.971-0.791-3.969-2.374s-1.497-3.68-1.497-6.293c0-2.581,0.516-4.68,1.546-6.299
		C62.606,29.586,63.945,28.776,65.593,28.776z M65.617,31.089h-0.121c-0.934,0-1.674,0.574-2.222,1.722
		c-0.548,1.148-0.821,2.704-0.821,4.668c0,2.013,0.268,3.591,0.803,4.735c0.536,1.145,1.274,1.716,2.216,1.716
		s1.684-0.572,2.228-1.716c0.543-1.144,0.815-2.698,0.815-4.662c0-1.972-0.262-3.542-0.785-4.711S66.502,31.089,65.617,31.089z"/>
	<path d="M73.273,31.223c0-0.925,0.333-1.718,0.998-2.38c0.665-0.661,1.465-0.992,2.397-0.992c0.926,0,1.717,0.331,2.374,0.992
		c0.657,0.662,0.986,1.455,0.986,2.38c0,0.933-0.329,1.73-0.986,2.392c-0.657,0.662-1.448,0.992-2.374,0.992
		c-0.933,0-1.732-0.331-2.397-0.992C73.606,32.954,73.273,32.156,73.273,31.223z M74.601,31.223c0,0.568,0.202,1.055,0.608,1.46
		c0.405,0.406,0.893,0.609,1.46,0.609c0.561,0,1.039-0.203,1.437-0.609s0.597-0.893,0.597-1.46s-0.197-1.051-0.591-1.449
		c-0.394-0.397-0.874-0.596-1.442-0.596c-0.576,0-1.064,0.199-1.466,0.596C74.801,30.172,74.601,30.655,74.601,31.223z"/>
</g>
<g>
	<g>
		<path d="M1.447,35.805c2.027-0.047,3.922,0.143,5.879,0.682c2.365,0.652,8.191,6.27,2.742,7.714
			c-2.878,0.763-7.359-0.926-3.704-5.558c0.64-0.81,1.7-1.448,2.507-2.078c5.067-3.956,10.259-7.806,15.75-11.157
			c1.235-0.754,0.105-2.701-1.137-1.942c-5.9,3.602-11.434,7.784-16.878,12.035c-3.321,2.593-6.228,8.197-0.954,10.486
			c3.258,1.414,7.977,0.489,9.112-3.17c2.112-6.806-9.071-9.36-13.317-9.261C-0.002,33.589-0.004,35.839,1.447,35.805L1.447,35.805z
			"/>
	</g>
</g>
<rect id="_x3C_Slice_x3E__117_" y="22.874" fill="none" width="80.313" height="24.063"/>
</svg>
