<?xml version="1.0" encoding="utf-8"?>
<!-- Generator: Adobe Illustrator 15.1.0, SVG Export Plug-In  -->
<!DOCTYPE svg PUBLIC "-//W3C//DTD SVG 1.1//EN" "http://www.w3.org/Graphics/SVG/1.1/DTD/svg11.dtd" [
	<!ENTITY ns_flows "http://ns.adobe.com/Flows/1.0/">
]>
<svg version="1.1"
	 xmlns="http://www.w3.org/2000/svg" xmlns:xlink="http://www.w3.org/1999/xlink" xmlns:a="http://ns.adobe.com/AdobeSVGViewerExtensions/3.0/"
	 x="0px" y="0px" width="42px" height="21px" viewBox="-0.583 -0.917 42 21" enable-background="new -0.583 -0.917 42 21"
	 xml:space="preserve">
<defs>
</defs>
<g>
	<g>
		<path d="M2.563,18.396C2.925,9.472,9.515,2.882,18.438,2.521c8.915-0.36,15.535,7.501,15.874,15.875
			c0.059,1.446,2.309,1.452,2.25,0C36.151,8.235,28.601,0.682,18.438,0.271C8.285-0.139,0.699,8.848,0.313,18.396
			C0.255,19.848,2.505,19.842,2.563,18.396L2.563,18.396z"/>
	</g>
</g>
<g>
	<g>
		<path d="M31.381,19.521c2.731,0,5.464,0,8.196,0c1.451,0,1.451-2.25,0-2.25c-2.732,0-5.465,0-8.196,0
			C29.93,17.271,29.93,19.521,31.381,19.521L31.381,19.521z"/>
	</g>
</g>
<rect id="_x3C_Slice_x3E__117_" fill="none" width="40.835" height="19.75"/>
</svg>
