<?xml version="1.0" encoding="utf-8"?>
<!-- Generator: Adobe Illustrator 15.1.0, SVG Export Plug-In  -->
<!DOCTYPE svg PUBLIC "-//W3C//DTD SVG 1.1//EN" "http://www.w3.org/Graphics/SVG/1.1/DTD/svg11.dtd" [
	<!ENTITY ns_flows "http://ns.adobe.com/Flows/1.0/">
]>
<svg version="1.1"
	 xmlns="http://www.w3.org/2000/svg" xmlns:xlink="http://www.w3.org/1999/xlink" xmlns:a="http://ns.adobe.com/AdobeSVGViewerExtensions/3.0/"
	 x="0px" y="0px" width="103px" height="26px" viewBox="-0.334 24.314 103 26" enable-background="new -0.334 24.314 103 26"
	 xml:space="preserve">
<defs>
</defs>
<g>
	<path d="M68.308,3.96h2.435v17.004h-2.435V3.96z"/>
	<path d="M76.925,8.521c0-1.33,0.5-2.459,1.498-3.387c0.998-0.929,2.219-1.393,3.663-1.393c1.42,0,2.619,0.46,3.598,1.381
		c0.978,0.92,1.466,2.054,1.466,3.399c0,1.517-0.705,2.77-2.117,3.759c1.574,0.909,2.361,2.249,2.361,4.019
		c0,1.405-0.512,2.566-1.534,3.484s-2.313,1.376-3.87,1.376c-1.542,0-2.837-0.469-3.883-1.407c-1.047-0.938-1.57-2.097-1.57-3.478
		c0-1.73,0.803-3.062,2.41-3.995c-0.723-0.584-1.24-1.166-1.553-1.746S76.925,9.283,76.925,8.521z M84.935,16.4v-0.244
		c0-0.779-0.278-1.414-0.834-1.905c-0.556-0.491-1.276-0.736-2.16-0.736c-0.868,0-1.576,0.248-2.124,0.742
		c-0.548,0.495-0.822,1.136-0.822,1.923s0.28,1.428,0.84,1.923c0.561,0.495,1.286,0.742,2.18,0.742c0.852,0,1.552-0.227,2.1-0.682
		C84.661,17.71,84.935,17.122,84.935,16.4z M84.728,8.598c0-0.738-0.254-1.347-0.761-1.826c-0.507-0.479-1.15-0.718-1.93-0.718
		c-0.787,0-1.432,0.235-1.935,0.706c-0.504,0.471-0.755,1.076-0.755,1.814c0,0.706,0.266,1.311,0.797,1.813
		c0.531,0.503,1.171,0.755,1.917,0.755c0.738,0,1.367-0.25,1.887-0.749S84.728,9.295,84.728,8.598z"/>
	<path d="M94.526,3.741c1.559,0,2.847,0.818,3.865,2.453c1.019,1.635,1.527,3.711,1.527,6.226c0,2.581-0.509,4.678-1.527,6.293
		c-1.019,1.615-2.339,2.422-3.962,2.422c-1.647,0-2.971-0.791-3.969-2.374s-1.497-3.68-1.497-6.293c0-2.581,0.516-4.68,1.546-6.299
		C91.54,4.55,92.879,3.741,94.526,3.741z M94.551,6.054H94.43c-0.934,0-1.674,0.574-2.222,1.722
		c-0.548,1.148-0.821,2.704-0.821,4.668c0,2.013,0.268,3.591,0.803,4.735c0.536,1.145,1.274,1.716,2.216,1.716
		s1.684-0.572,2.228-1.716c0.543-1.144,0.815-2.698,0.815-4.662c0-1.972-0.262-3.542-0.785-4.711S95.436,6.054,94.551,6.054z"/>
	<path d="M102.207,6.188c0-0.925,0.333-1.718,0.998-2.38c0.665-0.661,1.465-0.992,2.397-0.992c0.926,0,1.717,0.331,2.374,0.992
		c0.657,0.662,0.986,1.455,0.986,2.38c0,0.933-0.329,1.73-0.986,2.392c-0.657,0.662-1.448,0.992-2.374,0.992
		c-0.933,0-1.732-0.331-2.397-0.992C102.54,7.918,102.207,7.121,102.207,6.188z M103.534,6.188c0,0.568,0.202,1.055,0.608,1.46
		c0.405,0.406,0.893,0.609,1.46,0.609c0.561,0,1.039-0.203,1.437-0.609s0.597-0.893,0.597-1.46s-0.197-1.051-0.591-1.449
		c-0.394-0.397-0.874-0.596-1.442-0.596c-0.576,0-1.064,0.199-1.466,0.596C103.734,5.137,103.534,5.62,103.534,6.188z"/>
</g>
<g>
	<g>
		<path d="M1.666,38.308c2.873-0.125,5.682,0.238,8.299,1.48c3.771,1.791,6.328,7.545,0.453,8.214
			c-1.527,0.174-3.184-0.24-4.348-1.254c-2.068-1.804,0.541-5.083,2.01-6.177c2.361-1.761,5.706-2.056,8.542-2.163
			c1.446-0.055,1.452-2.305,0-2.25c-4.731,0.179-9.833,1.158-12.484,5.487c-2.876,4.693,0.925,8.347,5.556,8.624
			c5.152,0.308,8.059-4.067,5.662-8.541c-2.506-4.68-8.893-5.878-13.689-5.67C0.221,36.121,0.215,38.371,1.666,38.308L1.666,38.308z
			"/>
	</g>
</g>
<g>
	<g>
		<path d="M16.172,37.444c1.585,3.855,3.17,7.71,4.754,11.565c0.544,1.323,2.722,0.744,2.17-0.598
			c-1.585-3.855-3.17-7.71-4.754-11.565C17.798,35.524,15.62,36.103,16.172,37.444L16.172,37.444z"/>
	</g>
</g>
<g>
	<g>
		<path d="M23.096,49.01c1.142-3.855,2.283-7.71,3.426-11.565c0.413-1.395-1.759-1.986-2.17-0.598
			c-1.142,3.855-2.283,7.71-3.426,11.565C20.513,49.807,22.685,50.398,23.096,49.01L23.096,49.01z"/>
	</g>
</g>
<g>
	<path d="M60.335,39.911h0.146c1.063,0,1.872-0.219,2.428-0.657c0.557-0.438,0.834-1.075,0.834-1.911c0-0.754-0.27-1.367-0.81-1.838
		c-0.539-0.471-1.247-0.706-2.124-0.706c-0.884,0-1.866,0.276-2.945,0.828v-2.325c0.99-0.495,2.069-0.743,3.238-0.743
		c1.565,0,2.801,0.41,3.706,1.229c0.904,0.819,1.357,1.938,1.357,3.357c0,0.86-0.175,1.583-0.523,2.171
		c-0.35,0.588-0.905,1.093-1.668,1.514c0.665,0.26,1.152,0.579,1.461,0.956c0.309,0.378,0.548,0.834,0.718,1.371
		c0.171,0.536,0.256,1.104,0.256,1.705c0,1.486-0.495,2.714-1.485,3.685s-2.239,1.456-3.749,1.456c-1.29,0-2.536-0.313-3.736-0.938
		v-2.653c1.282,0.803,2.527,1.205,3.736,1.205c0.82,0,1.479-0.244,1.979-0.73s0.748-1.132,0.748-1.935
		c0-0.674-0.207-1.262-0.62-1.765c-0.244-0.284-0.514-0.493-0.81-0.627c-0.297-0.134-0.936-0.262-1.917-0.383l-0.22-0.024V39.911z"
		/>
	<path d="M75.964,32.754l0.243-0.17l1.473,1.85c-1.298,0.838-2.375,1.752-3.231,2.744c-0.856,0.992-1.516,2.159-1.978,3.5
		c0.9-0.463,1.797-0.694,2.689-0.694c1.339,0,2.467,0.475,3.384,1.424c0.917,0.95,1.376,2.114,1.376,3.494
		c0,1.42-0.499,2.625-1.497,3.615c-0.998,0.99-2.212,1.485-3.64,1.485c-1.599,0-2.891-0.562-3.877-1.686
		c-0.985-1.124-1.479-2.594-1.479-4.412c0-1.363,0.253-2.721,0.761-4.072c0.507-1.351,1.237-2.617,2.19-3.798
		C73.333,34.854,74.527,33.76,75.964,32.754z M71.947,43.198c-0.065,0.381-0.098,0.808-0.098,1.278c0,0.958,0.278,1.745,0.834,2.361
		c0.556,0.617,1.268,0.925,2.136,0.925c0.779,0,1.423-0.264,1.93-0.791s0.761-1.193,0.761-1.997c0-0.819-0.27-1.483-0.81-1.99
		c-0.54-0.507-1.252-0.761-2.136-0.761c-0.455,0-0.866,0.069-1.236,0.207C72.959,42.569,72.499,42.825,71.947,43.198z"/>
	<path d="M87.102,32.583c1.559,0,2.847,0.818,3.865,2.453c1.019,1.635,1.527,3.711,1.527,6.226c0,2.581-0.509,4.678-1.527,6.293
		c-1.019,1.615-2.339,2.422-3.962,2.422c-1.647,0-2.971-0.791-3.969-2.374s-1.497-3.68-1.497-6.293c0-2.581,0.516-4.68,1.546-6.299
		C84.115,33.393,85.454,32.583,87.102,32.583z M87.126,34.896h-0.121c-0.934,0-1.674,0.574-2.222,1.722
		c-0.548,1.148-0.821,2.704-0.821,4.668c0,2.013,0.268,3.591,0.803,4.735c0.536,1.145,1.274,1.716,2.216,1.716
		s1.684-0.572,2.228-1.716c0.543-1.144,0.815-2.698,0.815-4.662c0-1.972-0.262-3.542-0.785-4.711S88.011,34.896,87.126,34.896z"/>
	<path d="M94.782,35.03c0-0.925,0.333-1.718,0.998-2.38c0.665-0.661,1.465-0.992,2.397-0.992c0.926,0,1.717,0.331,2.374,0.992
		c0.657,0.662,0.986,1.455,0.986,2.38c0,0.933-0.329,1.73-0.986,2.392c-0.657,0.662-1.448,0.992-2.374,0.992
		c-0.933,0-1.732-0.331-2.397-0.992C95.115,36.761,94.782,35.963,94.782,35.03z M96.109,35.03c0,0.568,0.202,1.055,0.608,1.46
		c0.405,0.406,0.893,0.609,1.46,0.609c0.561,0,1.039-0.203,1.437-0.609s0.597-0.893,0.597-1.46s-0.197-1.051-0.591-1.449
		c-0.394-0.397-0.874-0.596-1.442-0.596c-0.576,0-1.064,0.199-1.466,0.596C96.31,33.979,96.109,34.462,96.109,35.03z"/>
</g>
<g>
	<g>
		<path d="M25.948,38.146c2.262-0.053,4.378,0.16,6.561,0.762c1.928,0.532,9.922,6.056,3.934,8.571
			c-1.659,0.697-3.792,0.409-5.393-0.285c-4.71-2.044,0.833-6.426,2.306-7.583c5.871-4.61,11.889-9.102,18.264-12.993
			c1.235-0.754,0.105-2.701-1.137-1.942c-6.543,3.994-12.68,8.631-18.717,13.345c-3.626,2.83-6.866,8.94-1.086,11.449
			c3.05,1.324,9.785,0.692,9.978-3.745c0.326-7.53-8.819-9.966-14.709-9.828C24.5,35.93,24.496,38.18,25.948,38.146L25.948,38.146z"
			/>
	</g>
</g>
<rect id="_x3C_Slice_x3E__117_" y="24.314" fill="none" width="101.999" height="26.25"/>
</svg>
