<?xml version="1.0" encoding="utf-8"?>
<!-- Generator: Adobe Illustrator 15.1.0, SVG Export Plug-In  -->
<!DOCTYPE svg PUBLIC "-//W3C//DTD SVG 1.1//EN" "http://www.w3.org/Graphics/SVG/1.1/DTD/svg11.dtd" [
	<!ENTITY ns_flows "http://ns.adobe.com/Flows/1.0/">
]>
<svg version="1.1"
	 xmlns="http://www.w3.org/2000/svg" xmlns:xlink="http://www.w3.org/1999/xlink" xmlns:a="http://ns.adobe.com/AdobeSVGViewerExtensions/3.0/"
	 x="0px" y="0px" width="25px" height="25px" viewBox="-0.334 -0.25 25 25" enable-background="new -0.334 -0.25 25 25"
	 xml:space="preserve">
<defs>
</defs>
<g>
	<g>
		<path d="M2.266,23.912C7.901,16.683,13.537,9.453,19.17,2.222c0.881-1.13-0.699-2.734-1.59-1.591
			c-5.635,7.231-11.27,14.46-16.904,21.69C-0.205,23.451,1.375,25.056,2.266,23.912L2.266,23.912z"/>
	</g>
</g>
<g>
	<g>
		<path d="M10.201,11.76c3.871,4.061,7.746,8.121,11.617,12.182c1.004,1.052,2.592-0.542,1.592-1.591
			c-3.873-4.061-7.746-8.121-11.619-12.182C10.789,9.117,9.199,10.71,10.201,11.76L10.201,11.76z"/>
	</g>
</g>
<rect id="_x3C_Slice_x3E__117_" fill="none" width="23.918" height="24.75"/>
</svg>
