<?xml version="1.0" encoding="utf-8"?>
<!-- Generator: Adobe Illustrator 15.1.0, SVG Export Plug-In  -->
<!DOCTYPE svg PUBLIC "-//W3C//DTD SVG 1.1//EN" "http://www.w3.org/Graphics/SVG/1.1/DTD/svg11.dtd" [
	<!ENTITY ns_flows "http://ns.adobe.com/Flows/1.0/">
]>
<svg version="1.1"
	 xmlns="http://www.w3.org/2000/svg" xmlns:xlink="http://www.w3.org/1999/xlink" xmlns:a="http://ns.adobe.com/AdobeSVGViewerExtensions/3.0/"
	 x="0px" y="0px" width="42px" height="23px" viewBox="-0.918 -0.667 42 23" enable-background="new -0.918 -0.667 42 23"
	 xml:space="preserve">
<defs>
</defs>
<g>
	<g>
		<path d="M2.759,20.167C3.12,10.333,10.467,2.987,20.3,2.625c9.826-0.361,17.2,8.259,17.541,17.542c0.054,1.446,2.304,1.452,2.25,0
			C39.684,9.099,31.367,0.782,20.3,0.375C9.238-0.031,0.893,9.707,0.509,20.167C0.455,21.619,2.705,21.613,2.759,20.167
			L2.759,20.167z"/>
	</g>
</g>
<g>
	<g>
		<path d="M15.429,8.553c0,3.889,0,7.778,0,11.667c0,1.451,2.25,1.451,2.25,0c0-3.889,0-7.778,0-11.667
			C17.679,7.102,15.429,7.102,15.429,8.553L15.429,8.553z"/>
	</g>
</g>
<g>
	<g>
		<path d="M22.921,8.553c0,3.889,0,7.778,0,11.667c0,1.451,2.25,1.451,2.25,0c0-3.889,0-7.778,0-11.667
			C25.171,7.102,22.921,7.102,22.921,8.553L22.921,8.553z"/>
	</g>
</g>
<rect id="_x3C_Slice_x3E__117_" fill="none" width="40.416" height="21.667"/>
</svg>
