<?xml version="1.0" encoding="utf-8"?>
<!-- Generator: Adobe Illustrator 15.1.0, SVG Export Plug-In  -->
<!DOCTYPE svg PUBLIC "-//W3C//DTD SVG 1.1//EN" "http://www.w3.org/Graphics/SVG/1.1/DTD/svg11.dtd" [
	<!ENTITY ns_flows "http://ns.adobe.com/Flows/1.0/">
]>
<svg version="1.1"
	 xmlns="http://www.w3.org/2000/svg" xmlns:xlink="http://www.w3.org/1999/xlink" xmlns:a="http://ns.adobe.com/AdobeSVGViewerExtensions/3.0/"
	 x="0px" y="0px" width="43px" height="28px" viewBox="-0.502 -0.126 43 28" enable-background="new -0.502 -0.126 43 28"
	 xml:space="preserve">
<defs>
</defs>
<g>
	<g>
		<path d="M39.888,0.902c-4.114,7.491-8.482,15.385-14.833,21.245c-2.401,2.215-5.659,4.104-8.905,2.629
			c-4.17-1.896-13.267-8.269-7.482-12.537c4.809-3.548,13.396,0.088,9.848,6.822c-3.069,5.825-11.359,5.846-17.003,5.906
			c-1.45,0.016-1.452,2.266,0,2.25c6.489-0.069,13.466-0.464,18.021-5.705c3.112-3.58,3.459-9.091-1.003-11.55
			c-3.198-1.762-9.202-1.746-11.907,1.013c-3.804,3.879-1.041,8.924,2.379,12.011c2.931,2.645,7.645,5.28,11.685,4.325
			c3.357-0.793,6.146-3.586,8.394-6.018c5.212-5.638,9.082-12.574,12.752-19.255C42.53,0.766,40.587-0.37,39.888,0.902L39.888,0.902
			z"/>
	</g>
</g>
<rect id="_x3C_Slice_x3E__117_" fill="none" width="42.332" height="27.874"/>
</svg>
