<?xml version="1.0" encoding="utf-8"?>
<!-- Generator: Adobe Illustrator 15.1.0, SVG Export Plug-In  -->
<!DOCTYPE svg PUBLIC "-//W3C//DTD SVG 1.1//EN" "http://www.w3.org/Graphics/SVG/1.1/DTD/svg11.dtd" [
	<!ENTITY ns_flows "http://ns.adobe.com/Flows/1.0/">
]>
<svg version="1.1"
	 xmlns="http://www.w3.org/2000/svg" xmlns:xlink="http://www.w3.org/1999/xlink" xmlns:a="http://ns.adobe.com/AdobeSVGViewerExtensions/3.0/"
	 x="0px" y="0px" width="55px" height="24px" viewBox="0 -0.083 55 24" enable-background="new 0 -0.083 55 24"
	 xml:space="preserve">
<defs>
</defs>
<g>
	<g>
		<path d="M52.365,20.549c-4.925,0.213-9.723-0.442-14.205-2.571c-7.053-3.35-10.888-13.884-0.377-15.08
			c2.75-0.313,5.688,0.493,7.772,2.311c3.903,3.403-0.683,9.369-3.495,11.467c-4.035,3.008-9.766,3.522-14.609,3.705
			c-1.446,0.055-1.451,2.305,0,2.25c7.602-0.287,15.883-1.801,20.15-8.769c4.478-7.313-1.438-12.81-8.611-13.24
			c-7.998-0.479-12.523,6.121-8.785,13.102c4.048,7.562,14.434,9.41,22.16,9.076C53.811,22.736,53.816,20.486,52.365,20.549
			L52.365,20.549z"/>
	</g>
</g>
<g>
	<g>
		<path d="M29.492,20.349c-6.813,0.274-13.291-1.007-18.4-5.77C5.504,9.37,8.137,3.217,15.166,2.685
			c6.904-0.523,10.896,4.52,6.878,10.908c-4.13,6.567-13.825,6.568-20.626,6.637c-1.45,0.015-1.451,2.265,0,2.25
			c8.481-0.085,20.521-0.839,23.998-10.363c2.678-7.336-2.414-11.371-9.293-11.694c-6.1-0.287-11.227,3.281-10.244,9.67
			c1.547,10.045,15.6,12.83,23.613,12.507C30.938,22.541,30.943,20.291,29.492,20.349L29.492,20.349z"/>
	</g>
</g>
<rect id="_x3C_Slice_x3E__117_" fill="none" width="54.002" height="23.167"/>
</svg>
