<?xml version="1.0" encoding="utf-8"?>
<!-- Generator: Adobe Illustrator 15.1.0, SVG Export Plug-In  -->
<!DOCTYPE svg PUBLIC "-//W3C//DTD SVG 1.1//EN" "http://www.w3.org/Graphics/SVG/1.1/DTD/svg11.dtd" [
	<!ENTITY ns_flows "http://ns.adobe.com/Flows/1.0/">
]>
<svg version="1.1"
	 xmlns="http://www.w3.org/2000/svg" xmlns:xlink="http://www.w3.org/1999/xlink" xmlns:a="http://ns.adobe.com/AdobeSVGViewerExtensions/3.0/"
	 x="0px" y="0px" width="74px" height="24px" viewBox="-0.084 26.361 74 24" enable-background="new -0.084 26.361 74 24"
	 xml:space="preserve">
<defs>
</defs>
<g>
	<path d="M56.557,3.96h11.004l-7.695,17.204l-2.176-0.917l6.218-13.961h-7.351V3.96z"/>
	<path d="M72.942,18.615h6.474v2.349H68.655v-0.17l1.022-1.205c1.599-1.98,2.871-3.66,3.816-5.039s1.563-2.422,1.851-3.128
		c0.287-0.706,0.432-1.404,0.432-2.094c0-0.957-0.271-1.726-0.815-2.307c-0.544-0.58-1.266-0.87-2.167-0.87
		c-0.682,0-1.353,0.201-2.014,0.603c-0.662,0.402-1.256,0.968-1.784,1.698V5.36c1.323-1.079,2.687-1.619,4.09-1.619
		c1.485,0,2.709,0.495,3.67,1.485c0.962,0.99,1.442,2.248,1.442,3.773c0,0.682-0.119,1.411-0.358,2.186s-0.663,1.668-1.271,2.678
		s-1.643,2.388-3.103,4.133L72.942,18.615z"/>
	<path d="M86.598,3.741c1.559,0,2.847,0.818,3.865,2.453c1.019,1.635,1.527,3.711,1.527,6.226c0,2.581-0.509,4.678-1.527,6.293
		c-1.019,1.615-2.339,2.422-3.962,2.422c-1.647,0-2.971-0.791-3.969-2.374s-1.497-3.68-1.497-6.293c0-2.581,0.516-4.68,1.546-6.299
		C83.611,4.55,84.95,3.741,86.598,3.741z M86.622,6.054h-0.121c-0.934,0-1.674,0.574-2.222,1.722
		c-0.548,1.148-0.821,2.704-0.821,4.668c0,2.013,0.268,3.591,0.803,4.735c0.536,1.145,1.274,1.716,2.216,1.716
		s1.684-0.572,2.228-1.716c0.543-1.144,0.815-2.698,0.815-4.662c0-1.972-0.262-3.542-0.785-4.711S87.507,6.054,86.622,6.054z"/>
	<path d="M94.278,6.188c0-0.925,0.333-1.718,0.998-2.38c0.665-0.661,1.465-0.992,2.397-0.992c0.926,0,1.717,0.331,2.374,0.992
		c0.657,0.662,0.986,1.455,0.986,2.38c0,0.933-0.329,1.73-0.986,2.392c-0.657,0.662-1.448,0.992-2.374,0.992
		c-0.933,0-1.732-0.331-2.397-0.992C94.611,7.918,94.278,7.121,94.278,6.188z M95.605,6.188c0,0.568,0.202,1.055,0.608,1.46
		c0.405,0.406,0.893,0.609,1.46,0.609c0.561,0,1.039-0.203,1.437-0.609s0.597-0.893,0.597-1.46s-0.197-1.051-0.591-1.449
		c-0.394-0.397-0.874-0.596-1.442-0.596c-0.576,0-1.064,0.199-1.466,0.596C95.806,5.137,95.605,5.62,95.605,6.188z"/>
</g>
<g>
	<g>
		<path d="M57.419,29.195c-2.09,5.571-5.051,14.152-11.313,16.424c-3.031,1.1-6.152-0.751-8.734-2.15
			c-3.973-2.151-9.938-8.901-4.748-12.831c2.457-1.86,6.266-1.708,9.096-1.085c6.49,1.429,4.623,8.194,1.234,11.855
			c-3.619,3.912-9.967,4.469-14.919,4.708c-1.444,0.07-1.451,2.32,0,2.25c6.345-0.306,12.823-1.382,17.333-6.256
			c2.721-2.939,4.787-8.729,1.602-12.106c-4.628-4.907-16.08-4.375-18.395,2.642c-2.433,7.375,7.971,14.425,14.245,15.429
			c9.448,1.512,14.27-11.62,16.769-18.282C60.099,28.432,57.924,27.849,57.419,29.195L57.419,29.195z"/>
	</g>
</g>
<g>
	<g>
		<path d="M57.419,30.066c2.501,6.085,5.003,12.17,7.504,18.255c0.544,1.322,2.722,0.744,2.17-0.599
			c-2.501-6.085-5.003-12.17-7.504-18.255C59.045,28.146,56.867,28.724,57.419,30.066L57.419,30.066z"/>
	</g>
</g>
<g>
	<g>
		<path d="M67.194,48.321c1.802-6.085,3.604-12.17,5.407-18.255c0.413-1.395-1.759-1.986-2.17-0.599
			c-1.803,6.085-3.604,12.17-5.407,18.255C64.611,49.118,66.783,49.709,67.194,48.321L67.194,48.321z"/>
	</g>
</g>
<g>
	<g>
		<path d="M28.241,46.089c-6.743,0.253-13.104-1.075-18.002-5.963c-5.445-5.436-1.446-10.591,4.836-10.845
			c1.9-0.077,3.81,0.367,5.509,1.198c4.695,2.296,1.544,8.104-0.817,10.729c-4.347,4.831-12.443,4.707-18.373,4.767
			c-1.45,0.015-1.451,2.265,0,2.25c8.949-0.091,19.065-1.024,23.123-10.275c2.889-6.586-2.732-10.4-8.488-10.896
			c-4.684-0.404-11.549,2.231-10.607,8.05c1.684,10.407,13.865,13.573,22.82,13.236C29.688,48.285,29.692,46.034,28.241,46.089
			L28.241,46.089z"/>
	</g>
</g>
<rect id="_x3C_Slice_x3E__117_" y="26.361" fill="none" width="73.084" height="23.083"/>
</svg>
