<?xml version="1.0" encoding="utf-8"?>
<!-- Generator: Adobe Illustrator 15.1.0, SVG Export Plug-In  -->
<!DOCTYPE svg PUBLIC "-//W3C//DTD SVG 1.1//EN" "http://www.w3.org/Graphics/SVG/1.1/DTD/svg11.dtd" [
	<!ENTITY ns_flows "http://ns.adobe.com/Flows/1.0/">
]>
<svg version="1.1"
	 xmlns="http://www.w3.org/2000/svg" xmlns:xlink="http://www.w3.org/1999/xlink" xmlns:a="http://ns.adobe.com/AdobeSVGViewerExtensions/3.0/"
	 x="0px" y="0px" width="120px" height="29px" viewBox="0 23.164 120 29" enable-background="new 0 23.164 120 29"
	 xml:space="preserve">
<defs>
</defs>
<g>
	<path d="M65.584,21.159l-1.497-1.765c1.258-0.795,2.356-1.759,3.299-2.891c0.94-1.132,1.569-2.294,1.886-3.487
		c-0.771,0.479-1.676,0.718-2.714,0.718c-1.299,0-2.412-0.482-3.341-1.448c-0.93-0.966-1.395-2.126-1.395-3.481
		c0-1.412,0.495-2.608,1.485-3.59s2.199-1.473,3.627-1.473c1.607,0,2.922,0.581,3.944,1.741c1.022,1.161,1.533,2.649,1.533,4.467
		c0,2.061-0.641,4.145-1.923,6.25C69.207,18.305,67.572,19.958,65.584,21.159z M69.747,10.594c0.097-0.649,0.146-1.071,0.146-1.266
		c0-0.981-0.273-1.785-0.821-2.41c-0.548-0.625-1.252-0.938-2.112-0.938c-0.787,0-1.438,0.266-1.953,0.797
		C64.49,7.31,64.232,7.977,64.232,8.78c0,0.738,0.28,1.375,0.84,1.911c0.561,0.536,1.229,0.804,2.009,0.804
		C67.989,11.495,68.878,11.194,69.747,10.594z"/>
	<path d="M79.715,3.741c1.559,0,2.847,0.818,3.865,2.453c1.019,1.635,1.527,3.711,1.527,6.226c0,2.581-0.509,4.678-1.527,6.293
		c-1.019,1.615-2.339,2.422-3.962,2.422c-1.647,0-2.971-0.791-3.969-2.374s-1.497-3.68-1.497-6.293c0-2.581,0.516-4.68,1.546-6.299
		C76.729,4.55,78.067,3.741,79.715,3.741z M79.739,6.054h-0.121c-0.934,0-1.674,0.574-2.222,1.722
		c-0.548,1.148-0.821,2.704-0.821,4.668c0,2.013,0.268,3.591,0.803,4.735c0.536,1.145,1.274,1.716,2.216,1.716
		s1.684-0.572,2.228-1.716c0.543-1.144,0.815-2.698,0.815-4.662c0-1.972-0.262-3.542-0.785-4.711S80.624,6.054,79.739,6.054z"/>
	<path d="M92.18,3.741c1.559,0,2.847,0.818,3.865,2.453c1.019,1.635,1.527,3.711,1.527,6.226c0,2.581-0.509,4.678-1.527,6.293
		c-1.019,1.615-2.339,2.422-3.962,2.422c-1.647,0-2.971-0.791-3.969-2.374s-1.497-3.68-1.497-6.293c0-2.581,0.516-4.68,1.546-6.299
		C89.193,4.55,90.532,3.741,92.18,3.741z M92.204,6.054h-0.121c-0.934,0-1.674,0.574-2.222,1.722
		c-0.548,1.148-0.821,2.704-0.821,4.668c0,2.013,0.268,3.591,0.803,4.735c0.536,1.145,1.274,1.716,2.216,1.716
		s1.684-0.572,2.228-1.716c0.543-1.144,0.815-2.698,0.815-4.662c0-1.972-0.262-3.542-0.785-4.711S93.089,6.054,92.204,6.054z"/>
	<path d="M99.86,6.188c0-0.925,0.333-1.718,0.998-2.38c0.665-0.661,1.465-0.992,2.397-0.992c0.926,0,1.717,0.331,2.374,0.992
		c0.657,0.662,0.986,1.455,0.986,2.38c0,0.933-0.329,1.73-0.986,2.392c-0.657,0.662-1.448,0.992-2.374,0.992
		c-0.933,0-1.732-0.331-2.397-0.992C100.193,7.918,99.86,7.121,99.86,6.188z M101.188,6.188c0,0.568,0.202,1.055,0.608,1.46
		c0.405,0.406,0.893,0.609,1.46,0.609c0.561,0,1.039-0.203,1.437-0.609s0.597-0.893,0.597-1.46s-0.197-1.051-0.591-1.449
		c-0.394-0.397-0.874-0.596-1.442-0.596c-0.576,0-1.064,0.199-1.466,0.596C101.388,5.137,101.188,5.62,101.188,6.188z"/>
</g>
<g>
	<g>
		<path d="M59.951,24.76c-4.115,7.491-8.483,15.385-14.834,21.245c-2.354,2.172-5.395,3.942-8.609,2.76
			c-4.246-1.561-11.172-6.399-9.094-11.301c1.543-3.638,8.135-2.752,10.754-1.31c6.213,3.424-3.037,10.306-5.469,11.31
			c-2.773,1.146-5.945,1.227-8.9,1.33c-1.447,0.051-1.451,2.301,0,2.25c6.473-0.227,12.834-1.344,16.722-6.99
			c2.841-4.124,1.459-8.837-2.991-10.676c-3.633-1.501-8.658-0.774-11.422,2.043c-3.445,3.514,0.133,9.274,3.184,11.598
			c3.344,2.546,7.529,5.308,11.886,4.022c3.178-0.938,5.787-3.535,7.966-5.892c5.211-5.638,9.08-12.574,12.75-19.255
			C62.592,24.624,60.648,23.488,59.951,24.76L59.951,24.76z"/>
	</g>
</g>
<g>
	<g>
		<path d="M24.406,48.783c-5.402,0.202-10.466-0.792-14.57-4.496c-4.895-4.418-1.957-9.117,3.635-9.294
			c1.455-0.046,2.922,0.301,4.24,0.898c4.079,1.849,1.371,6.687-0.563,8.836c-3.624,4.026-10.4,3.908-15.335,3.96
			c-1.45,0.015-1.451,2.265,0,2.25c7.59-0.08,16.174-0.899,19.613-8.736c2.442-5.567-2.152-8.9-7.082-9.426
			c-4.08-0.435-10.188,1.888-9.315,6.987c1.513,8.834,11.696,11.559,19.378,11.271C25.853,50.979,25.857,48.729,24.406,48.783
			L24.406,48.783z"/>
	</g>
</g>
<g>
	<path d="M65.961,32.96h2.435v17.004h-2.435V32.96z"/>
	<path d="M79.715,32.741c1.559,0,2.847,0.818,3.865,2.453c1.019,1.635,1.527,3.711,1.527,6.226c0,2.581-0.509,4.678-1.527,6.293
		c-1.019,1.615-2.339,2.422-3.962,2.422c-1.647,0-2.971-0.791-3.969-2.374s-1.497-3.68-1.497-6.293c0-2.581,0.516-4.68,1.546-6.299
		C76.729,33.55,78.067,32.741,79.715,32.741z M79.739,35.054h-0.121c-0.934,0-1.674,0.574-2.222,1.722
		c-0.548,1.148-0.821,2.704-0.821,4.668c0,2.013,0.268,3.591,0.803,4.735c0.536,1.145,1.274,1.716,2.216,1.716
		s1.684-0.572,2.228-1.716c0.543-1.144,0.815-2.698,0.815-4.662c0-1.972-0.262-3.542-0.785-4.711S80.624,35.054,79.739,35.054z"/>
	<path d="M87.043,37.521c0-1.33,0.5-2.459,1.498-3.387c0.998-0.929,2.219-1.393,3.663-1.393c1.42,0,2.619,0.46,3.598,1.381
		c0.978,0.92,1.466,2.054,1.466,3.399c0,1.517-0.705,2.77-2.117,3.759c1.574,0.909,2.361,2.249,2.361,4.019
		c0,1.405-0.512,2.566-1.534,3.484s-2.313,1.376-3.87,1.376c-1.542,0-2.837-0.469-3.883-1.407c-1.047-0.938-1.57-2.097-1.57-3.478
		c0-1.73,0.803-3.062,2.41-3.995c-0.723-0.584-1.24-1.166-1.553-1.746S87.043,38.283,87.043,37.521z M95.053,45.4v-0.244
		c0-0.779-0.278-1.414-0.834-1.905c-0.556-0.491-1.276-0.736-2.16-0.736c-0.868,0-1.576,0.248-2.124,0.742
		c-0.548,0.495-0.822,1.136-0.822,1.923s0.28,1.428,0.84,1.923c0.561,0.495,1.286,0.742,2.18,0.742c0.852,0,1.552-0.227,2.1-0.682
		C94.779,46.71,95.053,46.122,95.053,45.4z M94.846,37.598c0-0.738-0.254-1.347-0.761-1.826c-0.507-0.479-1.15-0.718-1.93-0.718
		c-0.787,0-1.432,0.235-1.935,0.706c-0.504,0.471-0.755,1.076-0.755,1.814c0,0.706,0.266,1.311,0.797,1.813
		c0.531,0.503,1.171,0.755,1.917,0.755c0.738,0,1.367-0.25,1.887-0.749S94.846,38.295,94.846,37.598z"/>
	<path d="M104.644,32.741c1.559,0,2.847,0.818,3.865,2.453c1.019,1.635,1.527,3.711,1.527,6.226c0,2.581-0.509,4.678-1.527,6.293
		c-1.019,1.615-2.339,2.422-3.962,2.422c-1.647,0-2.971-0.791-3.969-2.374s-1.497-3.68-1.497-6.293c0-2.581,0.516-4.68,1.546-6.299
		C101.657,33.55,102.996,32.741,104.644,32.741z M104.668,35.054h-0.121c-0.934,0-1.674,0.574-2.222,1.722
		c-0.548,1.148-0.821,2.704-0.821,4.668c0,2.013,0.268,3.591,0.803,4.735c0.536,1.145,1.274,1.716,2.216,1.716
		s1.684-0.572,2.228-1.716c0.543-1.144,0.815-2.698,0.815-4.662c0-1.972-0.262-3.542-0.785-4.711S105.553,35.054,104.668,35.054z"/>
	<path d="M112.324,35.188c0-0.925,0.333-1.718,0.998-2.38c0.665-0.661,1.465-0.992,2.397-0.992c0.926,0,1.717,0.331,2.374,0.992
		c0.657,0.662,0.986,1.455,0.986,2.38c0,0.933-0.329,1.73-0.986,2.392c-0.657,0.662-1.448,0.992-2.374,0.992
		c-0.933,0-1.732-0.331-2.397-0.992C112.657,36.918,112.324,36.121,112.324,35.188z M113.651,35.188c0,0.568,0.202,1.055,0.608,1.46
		c0.405,0.406,0.893,0.609,1.46,0.609c0.561,0,1.039-0.203,1.437-0.609s0.597-0.893,0.597-1.46s-0.197-1.051-0.591-1.449
		c-0.394-0.397-0.874-0.596-1.442-0.596c-0.576,0-1.064,0.199-1.466,0.596C113.852,34.137,113.651,34.62,113.651,35.188z"/>
</g>
<rect id="_x3C_Slice_x3E__117_" y="23.928" fill="none" width="119.834" height="28.236"/>
</svg>
