<?xml version="1.0" encoding="utf-8"?>
<!-- Generator: Adobe Illustrator 15.1.0, SVG Export Plug-In  -->
<!DOCTYPE svg PUBLIC "-//W3C//DTD SVG 1.1//EN" "http://www.w3.org/Graphics/SVG/1.1/DTD/svg11.dtd" [
	<!ENTITY ns_flows "http://ns.adobe.com/Flows/1.0/">
]>
<svg version="1.1"
	 xmlns="http://www.w3.org/2000/svg" xmlns:xlink="http://www.w3.org/1999/xlink" xmlns:a="http://ns.adobe.com/AdobeSVGViewerExtensions/3.0/"
	 x="0px" y="0px" width="41px" height="23px" viewBox="-0.313 0 41 23" enable-background="new -0.313 0 41 23"
	 xml:space="preserve">
<defs>
</defs>
<g>
	<g>
		<path d="M24.459,1.881c2.569,6.25,5.139,12.499,7.707,18.749c0.544,1.322,2.722,0.744,2.17-0.599
			c-2.569-6.25-5.139-12.499-7.707-18.749C26.085-0.04,23.907,0.539,24.459,1.881L24.459,1.881z"/>
	</g>
</g>
<g>
	<g>
		<path d="M34.336,20.63c1.852-6.25,3.702-12.5,5.554-18.749c0.413-1.395-1.759-1.986-2.17-0.599
			c-1.851,6.25-3.702,12.5-5.554,18.749C31.753,21.426,33.925,22.018,34.336,20.63L34.336,20.63z"/>
	</g>
</g>
<g>
	<g>
		<path d="M1.492,2.437c5.095-0.207,9.877,0.422,14.455,2.786c4.941,2.551,11.42,11.252,2.879,14.334
			c-2.354,0.849-5.07,0.646-7.455,0.112C5.271,18.3,6.834,11.703,9.699,8.229c3.749-4.543,10.396-5.322,15.845-5.598
			c1.444-0.073,1.45-2.323,0-2.25C18.186,0.753,8.217,2.672,5.437,10.777c-2.745,8.003,3.859,12.005,11.164,11.483
			c6.3-0.45,10.996-5.925,7.54-12.063C19.613,2.158,10.119-0.163,1.492,0.187C0.047,0.246,0.041,2.496,1.492,2.437L1.492,2.437z"/>
	</g>
</g>
<rect id="_x3C_Slice_x3E__117_" fill="none" width="40.125" height="22.563"/>
</svg>
