<?xml version="1.0" encoding="utf-8"?>
<!-- Generator: Adobe Illustrator 15.1.0, SVG Export Plug-In  -->
<!DOCTYPE svg PUBLIC "-//W3C//DTD SVG 1.1//EN" "http://www.w3.org/Graphics/SVG/1.1/DTD/svg11.dtd" [
	<!ENTITY ns_flows "http://ns.adobe.com/Flows/1.0/">
]>
<svg version="1.1"
	 xmlns="http://www.w3.org/2000/svg" xmlns:xlink="http://www.w3.org/1999/xlink" xmlns:a="http://ns.adobe.com/AdobeSVGViewerExtensions/3.0/"
	 x="0px" y="0px" width="250px" height="26px" viewBox="1.078 1.164 250 26" enable-background="new 1.078 1.164 250 26"
	 xml:space="preserve">
<defs>
</defs>
<g>
	<path d="M13.864,3.96h2.435v17.004h-2.435v-7.401H4.309v7.401H1.874V3.96h2.435v7.352h9.556V3.96z"/>
	<path d="M26.778,14.233v4.759c0,0.381,0.13,0.572,0.39,0.572c0.268,0,0.686-0.199,1.254-0.596v1.351
		c-0.503,0.325-0.907,0.546-1.211,0.663c-0.305,0.118-0.623,0.177-0.956,0.177c-0.949,0-1.509-0.373-1.68-1.12
		c-0.941,0.73-1.943,1.096-3.006,1.096c-0.779,0-1.429-0.257-1.948-0.773c-0.52-0.515-0.778-1.163-0.778-1.941
		c0-0.706,0.253-1.337,0.761-1.893c0.507-0.556,1.227-0.996,2.16-1.321l2.836-0.974v-0.597c0-1.347-0.674-2.021-2.021-2.021
		c-1.209,0-2.386,0.625-3.53,1.875v-2.422c0.86-1.014,2.098-1.521,3.713-1.521c1.209,0,2.179,0.316,2.909,0.95
		c0.243,0.203,0.463,0.473,0.657,0.809c0.194,0.337,0.318,0.674,0.371,1.01C26.752,12.653,26.778,13.292,26.778,14.233z
		 M24.6,18.749v-3.323l-1.485,0.572c-0.754,0.3-1.288,0.603-1.601,0.907c-0.313,0.305-0.468,0.684-0.468,1.138
		c0,0.462,0.147,0.84,0.444,1.132c0.296,0.292,0.679,0.438,1.149,0.438C23.346,19.613,23.999,19.325,24.6,18.749z"/>
	<path d="M32.597,9.766v1.424c0.99-1.095,2.114-1.643,3.372-1.643c0.698,0,1.347,0.181,1.947,0.542
		c0.601,0.361,1.057,0.856,1.369,1.485s0.469,1.625,0.469,2.988v6.402h-2.215v-6.378c0-1.144-0.175-1.961-0.523-2.453
		c-0.349-0.491-0.934-0.736-1.753-0.736c-1.047,0-1.936,0.523-2.666,1.57v7.997h-2.264V9.766H32.597z"/>
	<path d="M50.319,3.96h2.228v17.004h-4.735c-1.655,0-2.976-0.523-3.962-1.57c-0.985-1.047-1.479-2.451-1.479-4.211
		c0-1.647,0.518-3.002,1.552-4.065s2.355-1.595,3.962-1.595c0.746,0,1.558,0.158,2.435,0.475V3.96z M50.319,19.065v-7.096
		c-0.689-0.349-1.388-0.523-2.094-0.523c-1.104,0-1.982,0.361-2.635,1.083c-0.653,0.722-0.98,1.696-0.98,2.921
		c0,1.152,0.284,2.041,0.853,2.666c0.341,0.373,0.701,0.625,1.083,0.754c0.381,0.13,1.067,0.195,2.057,0.195H50.319z"/>
	<path d="M55.006,20.161v-2.386c0.625,0.438,1.264,0.793,1.917,1.065s1.203,0.408,1.649,0.408c0.463,0,0.86-0.113,1.193-0.341
		c0.332-0.227,0.499-0.499,0.499-0.815c0-0.325-0.108-0.594-0.323-0.81c-0.215-0.215-0.68-0.525-1.394-0.931
		c-1.429-0.795-2.363-1.475-2.806-2.039s-0.663-1.179-0.663-1.844c0-0.86,0.335-1.562,1.004-2.106
		c0.67-0.543,1.531-0.815,2.587-0.815c1.096,0,2.219,0.309,3.371,0.925v2.191c-1.314-0.795-2.39-1.193-3.226-1.193
		c-0.43,0-0.776,0.091-1.04,0.274c-0.265,0.183-0.396,0.425-0.396,0.725c0,0.26,0.119,0.508,0.357,0.744
		c0.239,0.235,0.659,0.52,1.26,0.852l0.791,0.45c1.867,1.055,2.801,2.223,2.801,3.504c0,0.917-0.358,1.669-1.077,2.257
		c-0.718,0.588-1.642,0.882-2.769,0.882c-0.666,0-1.259-0.071-1.777-0.213C56.446,20.804,55.793,20.542,55.006,20.161z"/>
	<path d="M63.575,11.543l4.163-4.09v2.313h3.542v1.996h-3.542v5.481c0,1.28,0.531,1.92,1.595,1.92c0.795,0,1.635-0.264,2.52-0.792
		v2.069c-0.853,0.479-1.781,0.718-2.788,0.718c-1.014,0-1.858-0.296-2.531-0.889c-0.211-0.178-0.386-0.379-0.523-0.603
		c-0.139-0.223-0.254-0.515-0.347-0.876c-0.094-0.361-0.141-1.048-0.141-2.063v-4.966h-1.947V11.543z"/>
	<path d="M80.481,14.233v4.759c0,0.381,0.13,0.572,0.39,0.572c0.268,0,0.686-0.199,1.254-0.596v1.351
		c-0.503,0.325-0.907,0.546-1.211,0.663c-0.305,0.118-0.623,0.177-0.956,0.177c-0.949,0-1.509-0.373-1.68-1.12
		c-0.941,0.73-1.943,1.096-3.006,1.096c-0.779,0-1.429-0.257-1.948-0.773c-0.52-0.515-0.778-1.163-0.778-1.941
		c0-0.706,0.253-1.337,0.761-1.893c0.507-0.556,1.227-0.996,2.16-1.321l2.836-0.974v-0.597c0-1.347-0.674-2.021-2.021-2.021
		c-1.209,0-2.386,0.625-3.53,1.875v-2.422c0.86-1.014,2.098-1.521,3.713-1.521c1.209,0,2.179,0.316,2.909,0.95
		c0.243,0.203,0.463,0.473,0.657,0.809c0.194,0.337,0.318,0.674,0.371,1.01C80.455,12.653,80.481,13.292,80.481,14.233z
		 M78.303,18.749v-3.323l-1.485,0.572c-0.754,0.3-1.288,0.603-1.601,0.907c-0.313,0.305-0.468,0.684-0.468,1.138
		c0,0.462,0.147,0.84,0.444,1.132c0.296,0.292,0.679,0.438,1.149,0.438C77.049,19.613,77.702,19.325,78.303,18.749z M77.207,2.743
		c0.625,0,1.163,0.223,1.613,0.669s0.676,0.99,0.676,1.631s-0.226,1.188-0.676,1.643s-0.996,0.682-1.638,0.682
		c-0.633,0-1.174-0.225-1.625-0.676c-0.45-0.45-0.675-0.992-0.675-1.625c0-0.649,0.229-1.199,0.688-1.649
		C76.028,2.968,76.574,2.743,77.207,2.743z M77.146,3.729c-0.414,0-0.744,0.124-0.992,0.372c-0.247,0.248-0.371,0.57-0.371,0.967
		c0,0.39,0.136,0.72,0.408,0.992c0.271,0.272,0.603,0.408,0.991,0.408c0.39,0,0.723-0.134,0.998-0.401
		c0.276-0.268,0.414-0.592,0.414-0.974c0-0.381-0.138-0.704-0.414-0.968C77.905,3.861,77.561,3.729,77.146,3.729z"/>
	<path d="M93.628,15.56h-7.876c0.058,1.071,0.416,1.923,1.078,2.556c0.661,0.633,1.515,0.949,2.562,0.949
		c1.461,0,2.808-0.454,4.041-1.363v2.167c-0.682,0.455-1.356,0.779-2.026,0.974c-0.669,0.195-1.454,0.292-2.355,0.292
		c-1.233,0-2.231-0.255-2.994-0.767s-1.373-1.199-1.832-2.063c-0.458-0.864-0.688-1.864-0.688-3c0-1.704,0.482-3.089,1.448-4.157
		c0.966-1.067,2.22-1.601,3.762-1.601c1.484,0,2.669,0.52,3.554,1.558s1.327,2.43,1.327,4.175V15.56z M85.801,14.233h5.636
		c-0.057-0.885-0.32-1.566-0.791-2.045c-0.471-0.479-1.104-0.718-1.898-0.718c-0.796,0-1.447,0.239-1.954,0.718
		C86.286,12.667,85.955,13.349,85.801,14.233z"/>
	<path d="M98.24,9.766v1.424c0.99-1.095,2.114-1.643,3.372-1.643c0.698,0,1.347,0.181,1.947,0.542
		c0.601,0.361,1.057,0.856,1.369,1.485s0.469,1.625,0.469,2.988v6.402h-2.215v-6.378c0-1.144-0.175-1.961-0.523-2.453
		c-0.349-0.491-0.934-0.736-1.753-0.736c-1.047,0-1.936,0.523-2.666,1.57v7.997h-2.264V9.766H98.24z"/>
	<path d="M115.964,3.96h2.228v17.004h-4.735c-1.655,0-2.976-0.523-3.962-1.57c-0.985-1.047-1.479-2.451-1.479-4.211
		c0-1.647,0.518-3.002,1.552-4.065s2.355-1.595,3.962-1.595c0.746,0,1.558,0.158,2.435,0.475V3.96z M115.964,19.065v-7.096
		c-0.689-0.349-1.388-0.523-2.094-0.523c-1.104,0-1.982,0.361-2.635,1.083c-0.653,0.722-0.98,1.696-0.98,2.921
		c0,1.152,0.284,2.041,0.853,2.666c0.341,0.373,0.701,0.625,1.083,0.754c0.381,0.13,1.067,0.195,2.057,0.195H115.964z"/>
	<path d="M130.74,15.56h-7.876c0.058,1.071,0.416,1.923,1.078,2.556c0.661,0.633,1.515,0.949,2.562,0.949
		c1.461,0,2.808-0.454,4.041-1.363v2.167c-0.682,0.455-1.356,0.779-2.026,0.974c-0.669,0.195-1.454,0.292-2.355,0.292
		c-1.233,0-2.231-0.255-2.994-0.767s-1.373-1.199-1.832-2.063c-0.458-0.864-0.688-1.864-0.688-3c0-1.704,0.482-3.089,1.448-4.157
		c0.966-1.067,2.22-1.601,3.762-1.601c1.484,0,2.669,0.52,3.554,1.558s1.327,2.43,1.327,4.175V15.56z M122.913,14.233h5.636
		c-0.057-0.885-0.32-1.566-0.791-2.045c-0.471-0.479-1.104-0.718-1.898-0.718c-0.796,0-1.447,0.239-1.954,0.718
		C123.398,12.667,123.067,13.349,122.913,14.233z"/>
	<path d="M142.279,9.766v1.424c0.99-1.095,2.114-1.643,3.372-1.643c0.698,0,1.347,0.181,1.947,0.542
		c0.601,0.361,1.057,0.856,1.369,1.485s0.469,1.625,0.469,2.988v6.402h-2.215v-6.378c0-1.144-0.175-1.961-0.523-2.453
		c-0.349-0.491-0.934-0.736-1.753-0.736c-1.047,0-1.936,0.523-2.666,1.57v7.997h-2.264V9.766H142.279z"/>
	<path d="M162.071,15.56h-7.876c0.058,1.071,0.416,1.923,1.078,2.556c0.661,0.633,1.515,0.949,2.562,0.949
		c1.461,0,2.808-0.454,4.041-1.363v2.167c-0.682,0.455-1.356,0.779-2.026,0.974c-0.669,0.195-1.454,0.292-2.355,0.292
		c-1.233,0-2.231-0.255-2.994-0.767s-1.373-1.199-1.832-2.063c-0.458-0.864-0.688-1.864-0.688-3c0-1.704,0.482-3.089,1.448-4.157
		c0.966-1.067,2.22-1.601,3.762-1.601c1.484,0,2.669,0.52,3.554,1.558s1.327,2.43,1.327,4.175V15.56z M154.244,14.233h5.636
		c-0.057-0.885-0.32-1.566-0.791-2.045c-0.471-0.479-1.104-0.718-1.898-0.718c-0.796,0-1.447,0.239-1.954,0.718
		C154.729,12.667,154.398,13.349,154.244,14.233z"/>
	<path d="M171.943,3.96h2.228v17.004h-4.735c-1.655,0-2.976-0.523-3.962-1.57c-0.985-1.047-1.479-2.451-1.479-4.211
		c0-1.647,0.518-3.002,1.552-4.065s2.355-1.595,3.962-1.595c0.746,0,1.558,0.158,2.435,0.475V3.96z M171.943,19.065v-7.096
		c-0.689-0.349-1.388-0.523-2.094-0.523c-1.104,0-1.982,0.361-2.635,1.083c-0.653,0.722-0.98,1.696-0.98,2.921
		c0,1.152,0.284,2.041,0.853,2.666c0.341,0.373,0.701,0.625,1.083,0.754c0.381,0.13,1.067,0.195,2.057,0.195H171.943z"/>
	<path d="M179.55,9.766v2.568l0.122-0.195c1.071-1.729,2.143-2.593,3.214-2.593c0.835,0,1.708,0.422,2.616,1.266l-1.168,1.947
		c-0.771-0.73-1.485-1.095-2.143-1.095c-0.714,0-1.333,0.341-1.856,1.022s-0.785,1.489-0.785,2.422v5.855h-2.228V9.766H179.55z"/>
	<path d="M194.182,20.964v-1.437c-0.471,0.515-1.009,0.916-1.613,1.202s-1.207,0.429-1.808,0.429c-0.705,0-1.356-0.177-1.953-0.53
		c-0.597-0.353-1.047-0.832-1.352-1.436c-0.304-0.604-0.456-1.609-0.456-3.013V9.766h2.216v6.382c0,1.175,0.168,1.996,0.505,2.461
		c0.336,0.466,0.927,0.699,1.771,0.699c1.055,0,1.952-0.515,2.69-1.546V9.766h2.215v11.198H194.182z"/>
	<path d="M199.562,3.96h2.215v17.004h-2.215V3.96z"/>
	<path d="M205.027,3.96h2.215v17.004h-2.215V3.96z"/>
	<path d="M212.658,9.766v1.424c0.99-1.095,2.114-1.643,3.372-1.643c0.698,0,1.347,0.181,1.947,0.542
		c0.601,0.361,1.057,0.856,1.369,1.485s0.469,1.625,0.469,2.988v6.402h-2.215v-6.378c0-1.144-0.175-1.961-0.523-2.453
		c-0.349-0.491-0.934-0.736-1.753-0.736c-1.047,0-1.936,0.523-2.666,1.57v7.997h-2.264V9.766H212.658z"/>
	<path d="M224.053,5.056c0.364,0,0.677,0.125,0.937,0.377c0.26,0.252,0.39,0.56,0.39,0.925c0,0.357-0.13,0.666-0.39,0.925
		c-0.26,0.26-0.572,0.39-0.937,0.39c-0.341,0-0.642-0.132-0.901-0.396s-0.39-0.57-0.39-0.919c0-0.341,0.13-0.643,0.39-0.907
		S223.712,5.056,224.053,5.056z M222.957,9.766h2.215v11.198h-2.215V9.766z"/>
	<path d="M230.588,9.766v1.424c0.99-1.095,2.114-1.643,3.372-1.643c0.698,0,1.347,0.181,1.947,0.542
		c0.601,0.361,1.057,0.856,1.369,1.485s0.469,1.625,0.469,2.988v6.402h-2.215v-6.378c0-1.144-0.175-1.961-0.523-2.453
		c-0.349-0.491-0.934-0.736-1.753-0.736c-1.047,0-1.936,0.523-2.666,1.57v7.997h-2.264V9.766H230.588z"/>
	<path d="M240.265,13.637c0-1.193,0.437-2.136,1.309-2.83s2.063-1.041,3.572-1.041h4.613v1.729h-2.264
		c0.438,0.446,0.742,0.852,0.913,1.217c0.17,0.365,0.255,0.783,0.255,1.253c0,0.584-0.166,1.159-0.499,1.723
		c-0.332,0.564-0.761,0.996-1.284,1.296c-0.523,0.3-1.381,0.54-2.574,0.718c-0.836,0.122-1.254,0.41-1.254,0.864
		c0,0.26,0.156,0.473,0.469,0.639s0.879,0.339,1.698,0.517c1.371,0.3,2.254,0.536,2.647,0.706s0.749,0.414,1.065,0.73
		c0.535,0.536,0.803,1.209,0.803,2.021c0,1.063-0.473,1.911-1.418,2.544s-2.209,0.949-3.791,0.949c-1.6,0-2.875-0.318-3.828-0.955
		c-0.954-0.637-1.431-1.491-1.431-2.563c0-1.518,0.938-2.495,2.812-2.934c-0.746-0.479-1.119-0.953-1.119-1.424
		c0-0.357,0.16-0.682,0.48-0.974c0.32-0.292,0.753-0.507,1.296-0.645C241.088,16.449,240.265,15.268,240.265,13.637z
		 M243.904,21.488c-0.747,0-1.357,0.158-1.832,0.475s-0.712,0.722-0.712,1.217c0,1.152,1.038,1.729,3.116,1.729
		c0.981,0,1.742-0.144,2.282-0.432c0.539-0.288,0.81-0.696,0.81-1.223c0-0.52-0.341-0.943-1.022-1.272
		C245.864,21.652,244.983,21.488,243.904,21.488z M244.428,11.689c-0.601,0-1.112,0.203-1.534,0.608s-0.633,0.893-0.633,1.46
		c0,0.577,0.207,1.053,0.621,1.43c0.414,0.377,0.938,0.566,1.57,0.566c0.625,0,1.146-0.193,1.563-0.578
		c0.418-0.386,0.627-0.866,0.627-1.443c0-0.584-0.211-1.071-0.633-1.46S245.061,11.689,244.428,11.689z"/>
</g>
<rect id="_x3C_Slice_x3E__120_" x="1.078" y="1.664" fill="none" width="250" height="25.5"/>
</svg>
