<?xml version="1.0" encoding="utf-8"?>
<!-- Generator: Adobe Illustrator 15.1.0, SVG Export Plug-In  -->
<!DOCTYPE svg PUBLIC "-//W3C//DTD SVG 1.1//EN" "http://www.w3.org/Graphics/SVG/1.1/DTD/svg11.dtd" [
	<!ENTITY ns_flows "http://ns.adobe.com/Flows/1.0/">
]>
<svg version="1.1"
	 xmlns="http://www.w3.org/2000/svg" xmlns:xlink="http://www.w3.org/1999/xlink" xmlns:a="http://ns.adobe.com/AdobeSVGViewerExtensions/3.0/"
	 x="0px" y="0px" width="150px" height="28px" viewBox="0.078 27.437 150 28" enable-background="new 0.078 27.437 150 28"
	 xml:space="preserve">
<defs>
</defs>
<g>
	<path d="M11.491,3.96h3.042l-7.375,8.07l9.188,8.934h-3.322l-8.691-8.399v8.399H1.898V3.96h2.435v7.778L11.491,3.96z"/>
	<path d="M23.809,20.964v-1.437c-0.471,0.515-1.009,0.916-1.613,1.202s-1.207,0.429-1.808,0.429c-0.705,0-1.356-0.177-1.953-0.53
		c-0.597-0.353-1.047-0.832-1.352-1.436c-0.304-0.604-0.456-1.609-0.456-3.013V9.766h2.216v6.382c0,1.175,0.168,1.996,0.505,2.461
		c0.336,0.466,0.927,0.699,1.771,0.699c1.055,0,1.952-0.515,2.69-1.546V9.766h2.215v11.198H23.809z"/>
	<path d="M29.188,3.96h2.215v17.004h-2.215V3.96z"/>
	<path d="M34.654,3.96h2.215v17.004h-2.215V3.96z"/>
	<path d="M49.613,15.56h-7.876c0.058,1.071,0.416,1.923,1.078,2.556c0.661,0.633,1.515,0.949,2.562,0.949
		c1.461,0,2.808-0.454,4.041-1.363v2.167c-0.682,0.455-1.356,0.779-2.026,0.974c-0.669,0.195-1.454,0.292-2.355,0.292
		c-1.233,0-2.231-0.255-2.994-0.767s-1.373-1.199-1.832-2.063c-0.458-0.864-0.688-1.864-0.688-3c0-1.704,0.482-3.089,1.448-4.157
		c0.966-1.067,2.22-1.601,3.762-1.601c1.484,0,2.669,0.52,3.554,1.558s1.327,2.43,1.327,4.175V15.56z M41.786,14.233h5.636
		c-0.057-0.885-0.32-1.566-0.791-2.045c-0.471-0.479-1.104-0.718-1.898-0.718c-0.796,0-1.447,0.239-1.954,0.718
		C42.271,12.667,41.94,13.349,41.786,14.233z"/>
	<path d="M54.385,9.766v2.568l0.122-0.195c1.071-1.729,2.143-2.593,3.214-2.593c0.835,0,1.708,0.422,2.616,1.266l-1.168,1.947
		c-0.771-0.73-1.485-1.095-2.143-1.095c-0.714,0-1.333,0.341-1.856,1.022s-0.785,1.489-0.785,2.422v5.855h-2.228V9.766H54.385z"/>
	<path d="M61.785,3.96h2.216v6.609c0.957-0.698,1.979-1.047,3.067-1.047c1.42,0,2.58,0.536,3.48,1.607
		c0.901,1.071,1.352,2.446,1.352,4.126c0,1.801-0.538,3.236-1.613,4.303s-2.513,1.601-4.314,1.601c-0.723,0-1.483-0.077-2.282-0.231
		c-0.8-0.154-1.435-0.349-1.905-0.584V3.96z M64.001,12.688v6.062c0.754,0.227,1.529,0.341,2.324,0.341
		c0.982,0,1.783-0.349,2.404-1.047c0.621-0.698,0.932-1.594,0.932-2.69c0-1.112-0.291-2.017-0.871-2.714s-1.337-1.047-2.27-1.047
		C65.692,11.592,64.853,11.957,64.001,12.688z"/>
	<path d="M80.979,9.766h2.485l-7.935,16.907h-2.473l3.802-8.113l-4.325-8.793h2.524l3.024,6.325L80.979,9.766z"/>
	<path d="M83.452,11.543l4.163-4.09v2.313h3.542v1.996h-3.542v5.481c0,1.28,0.531,1.92,1.595,1.92c0.795,0,1.635-0.264,2.52-0.792
		v2.069c-0.853,0.479-1.781,0.718-2.788,0.718c-1.014,0-1.858-0.296-2.531-0.889c-0.211-0.178-0.386-0.379-0.523-0.603
		c-0.139-0.223-0.254-0.515-0.347-0.876c-0.094-0.361-0.141-1.048-0.141-2.063v-4.966h-1.947V11.543z"/>
	<path d="M91.753,11.543l4.163-4.09v2.313h3.542v1.996h-3.542v5.481c0,1.28,0.531,1.92,1.595,1.92c0.795,0,1.635-0.264,2.52-0.792
		v2.069c-0.853,0.479-1.781,0.718-2.788,0.718c-1.014,0-1.858-0.296-2.531-0.889c-0.211-0.178-0.386-0.379-0.523-0.603
		c-0.139-0.223-0.254-0.515-0.347-0.876c-0.094-0.361-0.141-1.048-0.141-2.063v-4.966h-1.947V11.543z"/>
	<path d="M108.66,14.233v4.759c0,0.381,0.13,0.572,0.39,0.572c0.268,0,0.686-0.199,1.254-0.596v1.351
		c-0.503,0.325-0.907,0.546-1.211,0.663c-0.305,0.118-0.623,0.177-0.956,0.177c-0.949,0-1.509-0.373-1.68-1.12
		c-0.941,0.73-1.943,1.096-3.006,1.096c-0.779,0-1.429-0.257-1.948-0.773c-0.52-0.515-0.778-1.163-0.778-1.941
		c0-0.706,0.253-1.337,0.761-1.893c0.507-0.556,1.227-0.996,2.16-1.321l2.836-0.974v-0.597c0-1.347-0.674-2.021-2.021-2.021
		c-1.209,0-2.386,0.625-3.53,1.875v-2.422c0.86-1.014,2.098-1.521,3.713-1.521c1.209,0,2.179,0.316,2.909,0.95
		c0.243,0.203,0.463,0.473,0.657,0.809c0.194,0.337,0.318,0.674,0.371,1.01C108.634,12.653,108.66,13.292,108.66,14.233z
		 M106.481,18.749v-3.323l-1.485,0.572c-0.754,0.3-1.288,0.603-1.601,0.907c-0.313,0.305-0.468,0.684-0.468,1.138
		c0,0.462,0.147,0.84,0.444,1.132c0.296,0.292,0.679,0.438,1.149,0.438C105.228,19.613,105.881,19.325,106.481,18.749z"/>
</g>
<g>
	<path d="M6.086,41.48l-1.85-1.124c-1.161-0.709-1.986-1.406-2.478-2.092c-0.491-0.686-0.736-1.475-0.736-2.367
		c0-1.339,0.465-2.426,1.394-3.262c0.93-0.836,2.137-1.254,3.621-1.254c1.42,0,2.723,0.399,3.907,1.196v2.763
		c-1.226-1.179-2.544-1.768-3.956-1.768c-0.795,0-1.448,0.184-1.959,0.552c-0.512,0.368-0.768,0.839-0.768,1.413
		c0,0.509,0.188,0.986,0.565,1.431c0.376,0.445,0.982,0.912,1.816,1.4l1.859,1.1c2.074,1.239,3.111,2.816,3.111,4.731
		c0,1.363-0.457,2.471-1.369,3.323c-0.913,0.852-2.1,1.278-3.561,1.278c-1.68,0-3.21-0.516-4.589-1.549v-3.092
		c1.314,1.666,2.836,2.498,4.564,2.498c0.763,0,1.397-0.212,1.905-0.637c0.507-0.424,0.761-0.956,0.761-1.595
		C8.326,43.39,7.579,42.409,6.086,41.48z"/>
	<path d="M12.841,54.313V37.406h3.879c1.985,0,3.531,0.495,4.638,1.485c1.106,0.99,1.659,2.374,1.659,4.151
		c0,1.68-0.521,3.059-1.562,4.138c-1.041,1.08-2.368,1.619-3.98,1.619c-0.713,0-1.503-0.158-2.369-0.475v5.988H12.841z
		 M16.672,39.476h-1.566v6.889c0.68,0.349,1.393,0.523,2.138,0.523c1.036,0,1.885-0.361,2.544-1.083
		c0.66-0.722,0.99-1.651,0.99-2.787c0-0.73-0.156-1.375-0.468-1.936c-0.312-0.56-0.736-0.968-1.275-1.223
		C18.496,39.603,17.708,39.476,16.672,39.476z"/>
	<path d="M32.487,41.874v4.759c0,0.381,0.13,0.572,0.39,0.572c0.268,0,0.686-0.199,1.254-0.596v1.351
		c-0.503,0.325-0.907,0.546-1.211,0.663c-0.305,0.118-0.623,0.177-0.956,0.177c-0.949,0-1.509-0.373-1.68-1.12
		c-0.941,0.73-1.943,1.096-3.006,1.096c-0.779,0-1.429-0.257-1.948-0.773c-0.52-0.515-0.778-1.163-0.778-1.941
		c0-0.706,0.253-1.337,0.761-1.893c0.507-0.556,1.227-0.996,2.16-1.321l2.836-0.974v-0.597c0-1.347-0.674-2.021-2.021-2.021
		c-1.209,0-2.386,0.625-3.53,1.875v-2.422c0.86-1.014,2.098-1.521,3.713-1.521c1.209,0,2.179,0.316,2.909,0.95
		c0.243,0.203,0.463,0.473,0.657,0.809c0.194,0.337,0.318,0.674,0.371,1.01C32.461,40.293,32.487,40.932,32.487,41.874z
		 M30.309,46.389v-3.323l-1.485,0.572c-0.754,0.3-1.288,0.603-1.601,0.907c-0.313,0.305-0.468,0.684-0.468,1.138
		c0,0.462,0.147,0.84,0.444,1.132c0.296,0.292,0.679,0.438,1.149,0.438C29.055,47.253,29.708,46.965,30.309,46.389z"/>
	<path d="M35.519,41.277c0-1.193,0.437-2.136,1.309-2.83s2.063-1.041,3.572-1.041h4.613v1.729h-2.264
		c0.438,0.446,0.742,0.852,0.913,1.217c0.17,0.365,0.255,0.783,0.255,1.253c0,0.584-0.166,1.159-0.499,1.723
		c-0.332,0.564-0.761,0.996-1.284,1.296c-0.523,0.3-1.381,0.54-2.574,0.718c-0.836,0.122-1.254,0.41-1.254,0.864
		c0,0.26,0.156,0.473,0.469,0.639s0.879,0.339,1.698,0.517c1.371,0.3,2.254,0.536,2.647,0.706s0.749,0.414,1.065,0.73
		c0.535,0.536,0.803,1.209,0.803,2.021c0,1.063-0.473,1.911-1.418,2.544s-2.209,0.949-3.791,0.949c-1.6,0-2.875-0.318-3.828-0.955
		c-0.954-0.637-1.431-1.491-1.431-2.563c0-1.518,0.938-2.495,2.812-2.934c-0.746-0.479-1.119-0.953-1.119-1.424
		c0-0.357,0.16-0.682,0.48-0.974c0.32-0.292,0.753-0.507,1.296-0.645C36.342,44.089,35.519,42.908,35.519,41.277z M39.158,49.128
		c-0.747,0-1.357,0.158-1.832,0.475s-0.712,0.722-0.712,1.217c0,1.152,1.038,1.729,3.116,1.729c0.981,0,1.742-0.144,2.282-0.432
		c0.539-0.288,0.81-0.696,0.81-1.223c0-0.52-0.341-0.943-1.022-1.272C41.118,49.292,40.237,49.128,39.158,49.128z M39.682,39.33
		c-0.601,0-1.112,0.203-1.534,0.608s-0.633,0.893-0.633,1.46c0,0.577,0.207,1.053,0.621,1.43c0.414,0.377,0.938,0.566,1.57,0.566
		c0.625,0,1.146-0.193,1.563-0.578c0.418-0.386,0.627-0.866,0.627-1.443c0-0.584-0.211-1.071-0.633-1.46S40.314,39.33,39.682,39.33z
		"/>
	<path d="M53.764,41.874v4.759c0,0.381,0.13,0.572,0.39,0.572c0.268,0,0.686-0.199,1.254-0.596v1.351
		c-0.503,0.325-0.907,0.546-1.211,0.663c-0.305,0.118-0.623,0.177-0.956,0.177c-0.949,0-1.509-0.373-1.68-1.12
		c-0.941,0.73-1.943,1.096-3.006,1.096c-0.779,0-1.429-0.257-1.948-0.773c-0.52-0.515-0.778-1.163-0.778-1.941
		c0-0.706,0.253-1.337,0.761-1.893c0.507-0.556,1.227-0.996,2.16-1.321l2.836-0.974v-0.597c0-1.347-0.674-2.021-2.021-2.021
		c-1.209,0-2.386,0.625-3.53,1.875v-2.422c0.86-1.014,2.098-1.521,3.713-1.521c1.209,0,2.179,0.316,2.909,0.95
		c0.243,0.203,0.463,0.473,0.657,0.809c0.194,0.337,0.318,0.674,0.371,1.01C53.737,40.293,53.764,40.932,53.764,41.874z
		 M51.585,46.389v-3.323L50.1,43.638c-0.754,0.3-1.288,0.603-1.601,0.907c-0.313,0.305-0.468,0.684-0.468,1.138
		c0,0.462,0.147,0.84,0.444,1.132c0.296,0.292,0.679,0.438,1.149,0.438C50.331,47.253,50.984,46.965,51.585,46.389z"/>
	<path d="M55.797,39.183l4.163-4.09v2.313h3.542v1.996H59.96v5.481c0,1.28,0.531,1.92,1.595,1.92c0.795,0,1.635-0.264,2.52-0.792
		v2.069c-0.853,0.479-1.781,0.718-2.788,0.718c-1.014,0-1.858-0.296-2.531-0.889c-0.211-0.178-0.386-0.379-0.523-0.603
		c-0.139-0.223-0.254-0.515-0.347-0.876c-0.094-0.361-0.141-1.048-0.141-2.063v-4.966h-1.947V39.183z"/>
	<path d="M65.62,31.6h2.216v7.279c0.925-1.128,2.073-1.692,3.444-1.692c0.746,0,1.416,0.187,2.008,0.56
		c0.593,0.373,1.033,0.889,1.321,1.546s0.432,1.635,0.432,2.933v6.378h-2.215v-6.926c0-0.82-0.201-1.479-0.603-1.978
		s-0.932-0.749-1.589-0.749c-0.486,0-0.945,0.126-1.375,0.377c-0.431,0.251-0.905,0.669-1.424,1.253v8.021H65.62V31.6z"/>
	<path d="M85.168,41.874v4.759c0,0.381,0.13,0.572,0.39,0.572c0.268,0,0.686-0.199,1.254-0.596v1.351
		c-0.503,0.325-0.907,0.546-1.211,0.663c-0.305,0.118-0.623,0.177-0.956,0.177c-0.949,0-1.509-0.373-1.68-1.12
		c-0.941,0.73-1.943,1.096-3.006,1.096c-0.779,0-1.429-0.257-1.948-0.773c-0.52-0.515-0.778-1.163-0.778-1.941
		c0-0.706,0.253-1.337,0.761-1.893c0.507-0.556,1.227-0.996,2.16-1.321l2.836-0.974v-0.597c0-1.347-0.674-2.021-2.021-2.021
		c-1.209,0-2.386,0.625-3.53,1.875v-2.422c0.86-1.014,2.098-1.521,3.713-1.521c1.209,0,2.179,0.316,2.909,0.95
		c0.243,0.203,0.463,0.473,0.657,0.809c0.194,0.337,0.318,0.674,0.371,1.01C85.142,40.293,85.168,40.932,85.168,41.874z
		 M82.989,46.389v-3.323l-1.485,0.572c-0.754,0.3-1.288,0.603-1.601,0.907c-0.313,0.305-0.468,0.684-0.468,1.138
		c0,0.462,0.147,0.84,0.444,1.132c0.296,0.292,0.679,0.438,1.149,0.438C81.735,47.253,82.389,46.965,82.989,46.389z"/>
	<path d="M90.986,37.406v1.424c0.99-1.095,2.114-1.643,3.372-1.643c0.698,0,1.347,0.181,1.947,0.542
		c0.601,0.361,1.057,0.856,1.369,1.485s0.469,1.625,0.469,2.988v6.402h-2.215v-6.378c0-1.144-0.175-1.961-0.523-2.453
		c-0.349-0.491-0.934-0.736-1.753-0.736c-1.047,0-1.936,0.523-2.666,1.57v7.997h-2.264V37.406H90.986z"/>
	<path d="M108.709,31.6h2.228v17.004h-4.735c-1.655,0-2.976-0.523-3.962-1.57c-0.985-1.047-1.479-2.451-1.479-4.211
		c0-1.647,0.518-3.002,1.552-4.065s2.355-1.595,3.962-1.595c0.746,0,1.558,0.158,2.435,0.475V31.6z M108.709,46.706v-7.096
		c-0.689-0.349-1.388-0.523-2.094-0.523c-1.104,0-1.982,0.361-2.635,1.083c-0.653,0.722-0.98,1.696-0.98,2.921
		c0,1.152,0.284,2.041,0.853,2.666c0.341,0.373,0.701,0.625,1.083,0.754c0.381,0.13,1.067,0.195,2.057,0.195H108.709z"/>
	<path d="M120.804,37.406h2.402l-4.946,11.393h-0.749l-5.064-11.393h2.425l3.022,6.889L120.804,37.406z"/>
	<path d="M129.718,37.382c1.704,0,3.12,0.55,4.248,1.649s1.692,2.481,1.692,4.145c0,1.615-0.572,2.956-1.717,4.023
		c-1.144,1.067-2.584,1.601-4.321,1.601c-1.68,0-3.083-0.542-4.211-1.625s-1.692-2.437-1.692-4.06c0-1.639,0.57-3.004,1.711-4.096
		C126.567,37.928,127.997,37.382,129.718,37.382z M129.597,39.378c-1.063,0-1.936,0.349-2.617,1.047
		c-0.682,0.698-1.022,1.586-1.022,2.666c0,1.071,0.349,1.946,1.047,2.623c0.697,0.678,1.594,1.017,2.689,1.017
		c1.088,0,1.979-0.343,2.672-1.028c0.694-0.686,1.041-1.564,1.041-2.635c0-1.063-0.361-1.943-1.084-2.642
		C131.601,39.727,130.691,39.378,129.597,39.378z"/>
	<path d="M138.166,31.6h2.215v17.004h-2.215V31.6z"/>
	<path d="M142.012,39.183l4.163-4.09v2.313h3.542v1.996h-3.542v5.481c0,1.28,0.531,1.92,1.595,1.92c0.795,0,1.635-0.264,2.52-0.792
		v2.069c-0.853,0.479-1.781,0.718-2.788,0.718c-1.014,0-1.858-0.296-2.531-0.889c-0.211-0.178-0.386-0.379-0.523-0.603
		c-0.139-0.223-0.254-0.515-0.347-0.876c-0.094-0.361-0.141-1.048-0.141-2.063v-4.966h-1.947V39.183z"/>
</g>
<rect id="_x3C_Slice_x3E__120_" x="0.078" y="27.437" fill="none" width="150" height="28"/>
</svg>
