<?xml version="1.0" encoding="utf-8"?>
<!-- Generator: Adobe Illustrator 15.1.0, SVG Export Plug-In  -->
<!DOCTYPE svg PUBLIC "-//W3C//DTD SVG 1.1//EN" "http://www.w3.org/Graphics/SVG/1.1/DTD/svg11.dtd" [
	<!ENTITY ns_flows "http://ns.adobe.com/Flows/1.0/">
]>
<svg version="1.1"
	 xmlns="http://www.w3.org/2000/svg" xmlns:xlink="http://www.w3.org/1999/xlink" xmlns:a="http://ns.adobe.com/AdobeSVGViewerExtensions/3.0/"
	 x="0px" y="0px" width="55px" height="24px" viewBox="-0.563 0 55 24" enable-background="new -0.563 0 55 24"
	 xml:space="preserve">
<defs>
</defs>
<g>
	<g>
		<path d="M1.438,2.856c4.925-0.213,9.723,0.442,14.205,2.571c7.053,3.35,10.888,13.884,0.377,15.08
			c-2.75,0.313-5.688-0.493-7.772-2.311C4.344,14.793,8.93,8.827,11.742,6.729c4.035-3.008,9.766-3.521,14.609-3.705
			c1.446-0.055,1.451-2.305,0-2.25C18.75,1.062,10.469,2.576,6.201,9.543c-4.478,7.313,1.438,12.81,8.611,13.24
			c7.998,0.48,12.523-6.121,8.785-13.102C19.55,2.12,9.164,0.272,1.438,0.606C-0.008,0.669-0.014,2.919,1.438,2.856L1.438,2.856z"/>
	</g>
</g>
<g>
	<g>
		<path d="M24.311,3.056c6.813-0.274,13.291,1.007,18.4,5.77c5.588,5.21,2.955,11.362-4.074,11.895
			c-6.904,0.523-10.896-4.52-6.878-10.908c4.13-6.567,13.825-6.568,20.626-6.637c1.45-0.015,1.451-2.265,0-2.25
			c-8.481,0.086-20.521,0.839-23.998,10.363c-2.678,7.336,2.414,11.371,9.293,11.694c6.1,0.287,11.227-3.281,10.244-9.67
			c-1.547-10.045-15.6-12.83-23.613-12.507C22.865,0.864,22.859,3.115,24.311,3.056L24.311,3.056z"/>
	</g>
</g>
<rect id="_x3C_Slice_x3E__117_" fill="none" width="54.063" height="23.375"/>
</svg>
