<?xml version="1.0" encoding="utf-8"?>
<!-- Generator: Adobe Illustrator 15.1.0, SVG Export Plug-In  -->
<!DOCTYPE svg PUBLIC "-//W3C//DTD SVG 1.1//EN" "http://www.w3.org/Graphics/SVG/1.1/DTD/svg11.dtd" [
	<!ENTITY ns_flows "http://ns.adobe.com/Flows/1.0/">
]>
<svg version="1.1"
	 xmlns="http://www.w3.org/2000/svg" xmlns:xlink="http://www.w3.org/1999/xlink" xmlns:a="http://ns.adobe.com/AdobeSVGViewerExtensions/3.0/"
	 x="0px" y="0px" width="64px" height="24px" viewBox="-0.75 26.361 64 24" enable-background="new -0.75 26.361 64 24"
	 xml:space="preserve">
<defs>
</defs>
<g>
	<path d="M57.716,3.96h7.547v2.167h-5.331v4.297c0.17-0.016,0.345-0.024,0.523-0.024c1.646,0,3.002,0.501,4.065,1.503
		c1.063,1.002,1.594,2.278,1.594,3.828c0,1.599-0.525,2.899-1.576,3.901c-1.051,1.002-2.412,1.503-4.083,1.503
		c-1.38,0-2.719-0.333-4.018-0.998v-2.507c1.226,0.795,2.423,1.193,3.591,1.193c1.022,0,1.881-0.298,2.574-0.895
		c0.694-0.596,1.041-1.329,1.041-2.197c0-0.901-0.377-1.653-1.132-2.258s-1.696-0.907-2.824-0.907c-0.966,0-1.623,0.082-1.972,0.244
		V3.96z"/>
	<path d="M76.509,3.741h0.999v9.543h1.898v2.069h-1.898v5.611h-2.374v-5.611H67.94v-1.047L76.509,3.741z M75.134,13.284V8.355
		l-3.935,4.929H75.134z"/>
	<path d="M86.454,3.741c1.559,0,2.847,0.818,3.865,2.453c1.019,1.635,1.527,3.711,1.527,6.226c0,2.581-0.509,4.678-1.527,6.293
		c-1.019,1.615-2.339,2.422-3.962,2.422c-1.647,0-2.971-0.791-3.969-2.374s-1.497-3.68-1.497-6.293c0-2.581,0.516-4.68,1.546-6.299
		C83.468,4.55,84.807,3.741,86.454,3.741z M86.479,6.054h-0.121c-0.934,0-1.674,0.574-2.222,1.722
		c-0.548,1.148-0.821,2.704-0.821,4.668c0,2.013,0.268,3.591,0.803,4.735c0.536,1.145,1.274,1.716,2.216,1.716
		s1.684-0.572,2.228-1.716c0.543-1.144,0.815-2.698,0.815-4.662c0-1.972-0.262-3.542-0.785-4.711S87.363,6.054,86.479,6.054z"/>
	<path d="M94.135,6.188c0-0.925,0.333-1.718,0.998-2.38c0.665-0.661,1.465-0.992,2.397-0.992c0.926,0,1.717,0.331,2.374,0.992
		c0.657,0.662,0.986,1.455,0.986,2.38c0,0.933-0.329,1.73-0.986,2.392c-0.657,0.662-1.448,0.992-2.374,0.992
		c-0.933,0-1.732-0.331-2.397-0.992C94.468,7.918,94.135,7.121,94.135,6.188z M95.462,6.188c0,0.568,0.202,1.055,0.608,1.46
		c0.405,0.406,0.893,0.609,1.46,0.609c0.561,0,1.039-0.203,1.437-0.609s0.597-0.893,0.597-1.46s-0.197-1.051-0.591-1.449
		c-0.394-0.397-0.874-0.596-1.442-0.596c-0.576,0-1.064,0.199-1.466,0.596C95.662,5.137,95.462,5.62,95.462,6.188z"/>
</g>
<g>
	<g>
		<path d="M1.25,30.006c4.925-0.213,9.723,0.442,14.205,2.571c7.053,3.35,10.888,13.884,0.377,15.08
			c-2.75,0.313-5.688-0.493-7.772-2.311c-3.903-3.403,0.683-9.369,3.495-11.467c4.035-3.008,9.766-3.521,14.609-3.705
			c1.446-0.055,1.451-2.305,0-2.25c-7.602,0.287-15.883,1.801-20.15,8.769c-4.478,7.313,1.438,12.81,8.611,13.24
			c7.998,0.48,12.523-6.121,8.785-13.102c-4.048-7.562-14.434-9.41-22.16-9.076C-0.195,27.819-0.201,30.069,1.25,30.006L1.25,30.006
			z"/>
	</g>
</g>
<g>
	<g>
		<path d="M46.969,29.743c2.569,6.25,5.139,12.499,7.707,18.749c0.544,1.322,2.722,0.744,2.17-0.599
			c-2.569-6.25-5.139-12.499-7.707-18.749C48.595,27.822,46.418,28.4,46.969,29.743L46.969,29.743z"/>
	</g>
</g>
<g>
	<g>
		<path d="M56.846,48.492c1.852-6.25,3.702-12.5,5.554-18.749c0.413-1.395-1.759-1.986-2.17-0.599
			c-1.851,6.25-3.702,12.5-5.554,18.749C54.263,49.288,56.435,49.879,56.846,48.492L56.846,48.492z"/>
	</g>
</g>
<g>
	<g>
		<path d="M24.002,30.299c5.095-0.207,9.877,0.422,14.455,2.786c4.941,2.551,11.42,11.252,2.879,14.334
			c-2.354,0.849-5.07,0.646-7.455,0.112c-6.101-1.369-4.537-7.966-1.672-11.44c3.749-4.543,10.396-5.322,15.845-5.598
			c1.444-0.073,1.45-2.323,0-2.25c-7.358,0.372-17.327,2.291-20.107,10.396c-2.745,8.003,3.859,12.005,11.164,11.483
			c6.3-0.45,10.996-5.925,7.54-12.063c-4.527-8.039-14.021-10.36-22.648-10.01C22.557,28.107,22.551,30.358,24.002,30.299
			L24.002,30.299z"/>
	</g>
</g>
<rect id="_x3C_Slice_x3E__117_" y="26.976" fill="none" width="62.75" height="23.385"/>
</svg>
