<?xml version="1.0" encoding="utf-8"?>
<!-- Generator: Adobe Illustrator 15.1.0, SVG Export Plug-In  -->
<!DOCTYPE svg PUBLIC "-//W3C//DTD SVG 1.1//EN" "http://www.w3.org/Graphics/SVG/1.1/DTD/svg11.dtd" [
	<!ENTITY ns_flows "http://ns.adobe.com/Flows/1.0/">
]>
<svg version="1.1"
	 xmlns="http://www.w3.org/2000/svg" xmlns:xlink="http://www.w3.org/1999/xlink" xmlns:a="http://ns.adobe.com/AdobeSVGViewerExtensions/3.0/"
	 x="0px" y="0px" width="114px" height="24px" viewBox="-0.75 0.314 114 24" enable-background="new -0.75 0.314 114 24"
	 xml:space="preserve">
<defs>
</defs>
<g>
	<path d="M71.892,3.96h2.435v17.004h-2.435V3.96z"/>
	<path d="M80.509,8.521c0-1.33,0.5-2.459,1.498-3.387c0.998-0.929,2.219-1.393,3.663-1.393c1.42,0,2.619,0.46,3.598,1.381
		c0.978,0.92,1.466,2.054,1.466,3.399c0,1.517-0.705,2.77-2.117,3.759c1.574,0.909,2.361,2.249,2.361,4.019
		c0,1.405-0.512,2.566-1.534,3.484s-2.313,1.376-3.87,1.376c-1.542,0-2.837-0.469-3.883-1.407c-1.047-0.938-1.57-2.097-1.57-3.478
		c0-1.73,0.803-3.062,2.41-3.995c-0.723-0.584-1.24-1.166-1.553-1.746S80.509,9.283,80.509,8.521z M88.519,16.4v-0.244
		c0-0.779-0.278-1.414-0.834-1.905c-0.556-0.491-1.276-0.736-2.16-0.736c-0.868,0-1.576,0.248-2.124,0.742
		c-0.548,0.495-0.822,1.136-0.822,1.923s0.28,1.428,0.84,1.923c0.561,0.495,1.286,0.742,2.18,0.742c0.852,0,1.552-0.227,2.1-0.682
		C88.245,17.71,88.519,17.122,88.519,16.4z M88.312,8.598c0-0.738-0.254-1.347-0.761-1.826c-0.507-0.479-1.15-0.718-1.93-0.718
		c-0.787,0-1.432,0.235-1.935,0.706c-0.504,0.471-0.755,1.076-0.755,1.814c0,0.706,0.266,1.311,0.797,1.813
		c0.531,0.503,1.171,0.755,1.917,0.755c0.738,0,1.367-0.25,1.887-0.749S88.312,9.295,88.312,8.598z"/>
	<path d="M98.11,3.741c1.559,0,2.847,0.818,3.865,2.453c1.019,1.635,1.527,3.711,1.527,6.226c0,2.581-0.509,4.678-1.527,6.293
		c-1.019,1.615-2.339,2.422-3.962,2.422c-1.647,0-2.971-0.791-3.969-2.374s-1.497-3.68-1.497-6.293c0-2.581,0.516-4.68,1.546-6.299
		C95.124,4.55,96.463,3.741,98.11,3.741z M98.135,6.054h-0.121c-0.934,0-1.674,0.574-2.222,1.722
		c-0.548,1.148-0.821,2.704-0.821,4.668c0,2.013,0.268,3.591,0.803,4.735c0.536,1.145,1.274,1.716,2.216,1.716
		s1.684-0.572,2.228-1.716c0.543-1.144,0.815-2.698,0.815-4.662c0-1.972-0.262-3.542-0.785-4.711S99.02,6.054,98.135,6.054z"/>
	<path d="M105.791,6.188c0-0.925,0.333-1.718,0.998-2.38c0.665-0.661,1.465-0.992,2.397-0.992c0.926,0,1.717,0.331,2.374,0.992
		c0.657,0.662,0.986,1.455,0.986,2.38c0,0.933-0.329,1.73-0.986,2.392c-0.657,0.662-1.448,0.992-2.374,0.992
		c-0.933,0-1.732-0.331-2.397-0.992C106.124,7.918,105.791,7.121,105.791,6.188z M107.118,6.188c0,0.568,0.202,1.055,0.608,1.46
		c0.405,0.406,0.893,0.609,1.46,0.609c0.561,0,1.039-0.203,1.437-0.609s0.597-0.893,0.597-1.46s-0.197-1.051-0.591-1.449
		c-0.394-0.397-0.874-0.596-1.442-0.596c-0.576,0-1.064,0.199-1.466,0.596C107.318,5.137,107.118,5.62,107.118,6.188z"/>
</g>
<g>
	<g>
		<path d="M1.25,3.422c4.925-0.213,9.723,0.442,14.205,2.571c7.053,3.35,10.888,13.884,0.377,15.08
			c-2.75,0.313-5.688-0.493-7.772-2.311c-3.903-3.403,0.683-9.369,3.495-11.467C15.59,4.287,21.32,3.773,26.164,3.59
			c1.446-0.055,1.451-2.305,0-2.25c-7.602,0.287-15.883,1.801-20.15,8.769c-4.478,7.313,1.438,12.81,8.611,13.24
			c7.998,0.48,12.523-6.121,8.785-13.102C19.362,2.686,8.977,0.838,1.25,1.172C-0.195,1.234-0.201,3.484,1.25,3.422L1.25,3.422z"/>
	</g>
</g>
<g>
	<g>
		<path d="M46.969,3.158c2.569,6.25,5.139,12.499,7.707,18.749c0.544,1.322,2.722,0.744,2.17-0.599
			c-2.569-6.25-5.139-12.499-7.707-18.749C48.595,1.237,46.418,1.816,46.969,3.158L46.969,3.158z"/>
	</g>
</g>
<g>
	<g>
		<path d="M56.846,21.907c1.852-6.25,3.702-12.5,5.554-18.749c0.413-1.395-1.759-1.986-2.17-0.599
			c-1.851,6.25-3.702,12.5-5.554,18.749C54.263,22.704,56.435,23.295,56.846,21.907L56.846,21.907z"/>
	</g>
</g>
<g>
	<g>
		<path d="M24.002,3.714c5.095-0.207,9.877,0.422,14.455,2.786c4.941,2.551,11.42,11.252,2.879,14.334
			c-2.354,0.849-5.07,0.646-7.455,0.112c-6.101-1.369-4.537-7.966-1.672-11.44c3.749-4.543,10.396-5.322,15.845-5.598
			c1.444-0.073,1.45-2.323,0-2.25C40.695,2.03,30.727,3.949,27.946,12.055c-2.745,8.003,3.859,12.005,11.164,11.483
			c6.3-0.45,10.996-5.925,7.54-12.063c-4.527-8.039-14.021-10.36-22.648-10.01C22.557,1.523,22.551,3.773,24.002,3.714L24.002,3.714
			z"/>
	</g>
</g>
<rect id="_x3C_Slice_x3E__117_" y="0.814" fill="none" width="112.833" height="22.833"/>
</svg>
