<?xml version="1.0" encoding="utf-8"?>
<!-- Generator: Adobe Illustrator 15.1.0, SVG Export Plug-In  -->
<!DOCTYPE svg PUBLIC "-//W3C//DTD SVG 1.1//EN" "http://www.w3.org/Graphics/SVG/1.1/DTD/svg11.dtd" [
	<!ENTITY ns_flows "http://ns.adobe.com/Flows/1.0/">
]>
<svg version="1.1"
	 xmlns="http://www.w3.org/2000/svg" xmlns:xlink="http://www.w3.org/1999/xlink" xmlns:a="http://ns.adobe.com/AdobeSVGViewerExtensions/3.0/"
	 x="0px" y="0px" width="44px" height="27px" viewBox="-0.834 -0.677 44 27" enable-background="new -0.834 -0.677 44 27"
	 xml:space="preserve">
<defs>
</defs>
<g>
	<g>
		<path d="M1.653,13.663c2.872-0.125,5.683,0.238,8.299,1.48c3.771,1.791,6.329,7.545,0.453,8.214
			c-1.528,0.174-3.185-0.24-4.348-1.255C3.989,20.299,6.6,17.02,8.066,15.925c2.363-1.761,5.707-2.056,8.543-2.163
			c1.446-0.055,1.451-2.305,0-2.25c-4.73,0.179-9.832,1.158-12.484,5.487c-2.875,4.693,0.924,8.347,5.555,8.624
			c5.153,0.308,8.059-4.067,5.664-8.541c-2.506-4.68-8.894-5.878-13.69-5.67C0.208,11.476,0.202,13.726,1.653,13.663L1.653,13.663z"
			/>
	</g>
</g>
<g>
	<g>
		<path d="M16.609,13.774c2.229-0.053,4.314,0.157,6.467,0.75c2.666,0.735,9.121,7.034,3.004,8.656
			c-3.227,0.855-8.266-1.066-4.16-6.267c0.7-0.887,1.861-1.586,2.745-2.276c5.556-4.338,11.249-8.561,17.271-12.236
			c1.235-0.754,0.105-2.701-1.137-1.942c-6.454,3.94-12.508,8.514-18.463,13.164c-3.583,2.798-6.779,8.837-1.067,11.316
			c3.504,1.521,8.601,0.528,9.823-3.408c2.288-7.373-9.908-10.115-14.482-10.007C15.16,11.559,15.158,13.809,16.609,13.774
			L16.609,13.774z"/>
	</g>
</g>
<rect id="_x3C_Slice_x3E__117_" fill="none" width="42.916" height="25.906"/>
</svg>
