<?xml version="1.0" encoding="utf-8"?>
<!-- Generator: Adobe Illustrator 15.1.0, SVG Export Plug-In  -->
<!DOCTYPE svg PUBLIC "-//W3C//DTD SVG 1.1//EN" "http://www.w3.org/Graphics/SVG/1.1/DTD/svg11.dtd" [
	<!ENTITY ns_flows "http://ns.adobe.com/Flows/1.0/">
]>
<svg version="1.1"
	 xmlns="http://www.w3.org/2000/svg" xmlns:xlink="http://www.w3.org/1999/xlink" xmlns:a="http://ns.adobe.com/AdobeSVGViewerExtensions/3.0/"
	 x="0px" y="0px" width="40px" height="24px" viewBox="0 -0.75 40 24" enable-background="new 0 -0.75 40 24" xml:space="preserve">
<defs>
</defs>
<g>
	<g>
		<path d="M2.782,17.729C3.13,9.126,9.482,2.771,18.087,2.423c8.597-0.348,14.98,7.232,15.307,15.307
			c0.059,1.446,2.309,1.452,2.25,0C35.246,7.886,27.93,0.571,18.087,0.173C8.253-0.225,0.906,8.481,0.532,17.729
			C0.474,19.181,2.724,19.175,2.782,17.729L2.782,17.729z"/>
	</g>
</g>
<g>
	<g>
		<path d="M30.558,18.854c2.641,0,5.281,0,7.922,0c1.451,0,1.451-2.25,0-2.25c-2.641,0-5.281,0-7.922,0
			C29.106,16.604,29.106,18.854,30.558,18.854L30.558,18.854z"/>
	</g>
</g>
<g>
	<g>
		<path d="M22.427,22.423c2.94,0,5.88,0,8.82,0c1.451,0,1.451-2.25,0-2.25c-2.94,0-5.88,0-8.82,0
			C20.976,20.173,20.976,22.423,22.427,22.423L22.427,22.423z"/>
	</g>
</g>
<rect id="_x3C_Slice_x3E__117_" fill="none" width="39.833" height="22.625"/>
</svg>
