<?xml version="1.0" encoding="utf-8"?>
<!-- Generator: Adobe Illustrator 15.1.0, SVG Export Plug-In  -->
<!DOCTYPE svg PUBLIC "-//W3C//DTD SVG 1.1//EN" "http://www.w3.org/Graphics/SVG/1.1/DTD/svg11.dtd" [
	<!ENTITY ns_flows "http://ns.adobe.com/Flows/1.0/">
]>
<svg version="1.1"
	 xmlns="http://www.w3.org/2000/svg" xmlns:xlink="http://www.w3.org/1999/xlink" xmlns:a="http://ns.adobe.com/AdobeSVGViewerExtensions/3.0/"
	 x="0px" y="0px" width="32px" height="24px" viewBox="-0.834 -0.5 32 24" enable-background="new -0.834 -0.5 32 24"
	 xml:space="preserve">
<defs>
</defs>
<g>
	<g>
		<path d="M29.658,20.31c-6.813,0.274-13.291-1.007-18.4-5.77C5.67,9.33,8.303,3.178,15.332,2.646
			c6.904-0.523,10.896,4.52,6.878,10.908C18.08,20.12,8.385,20.121,1.584,20.19c-1.45,0.015-1.451,2.265,0,2.25
			c8.481-0.085,20.521-0.839,23.998-10.363c2.678-7.336-2.414-11.371-9.293-11.694c-6.1-0.287-11.227,3.281-10.244,9.67
			c1.547,10.045,15.6,12.83,23.613,12.507C31.104,22.501,31.109,20.251,29.658,20.31L29.658,20.31z"/>
	</g>
</g>
<rect id="_x3C_Slice_x3E__117_" fill="none" width="31.084" height="23.083"/>
</svg>
