<?xml version="1.0" encoding="utf-8"?>
<!-- Generator: Adobe Illustrator 15.1.0, SVG Export Plug-In  -->
<!DOCTYPE svg PUBLIC "-//W3C//DTD SVG 1.1//EN" "http://www.w3.org/Graphics/SVG/1.1/DTD/svg11.dtd" [
	<!ENTITY ns_flows "http://ns.adobe.com/Flows/1.0/">
]>
<svg version="1.1"
	 xmlns="http://www.w3.org/2000/svg" xmlns:xlink="http://www.w3.org/1999/xlink" xmlns:a="http://ns.adobe.com/AdobeSVGViewerExtensions/3.0/"
	 x="0px" y="0px" width="51px" height="25px" viewBox="-0.668 -0.917 51 25" enable-background="new -0.668 -0.917 51 25"
	 xml:space="preserve">
<defs>
</defs>
<g>
	<g>
		<path d="M34.489,2.964c-2.118,5.648-5.235,14.745-11.886,16.583c-3.746,1.036-8.642-2.362-11.217-4.548
			c-4.094-3.477-5.355-9.566,0.458-11.581c2.87-0.995,6.401-0.594,9.091,0.722c6.68,3.267-0.648,11.264-4.082,13.261
			c-4.523,2.632-10.404,2.502-15.465,2.553c-1.45,0.015-1.451,2.265,0,2.25c6.781-0.068,13.467-0.446,19.158-4.514
			c3.277-2.342,6.892-8.6,4.367-12.586C21.452-0.366,8.347-1.774,5.911,5.61c-2.593,7.859,6.979,15.114,13.979,16.234
			c9.448,1.512,14.27-11.62,16.769-18.282C37.17,2.201,34.994,1.619,34.489,2.964L34.489,2.964z"/>
	</g>
</g>
<g>
	<g>
		<path d="M34.641,3.836c2.502,6.085,5.003,12.17,7.504,18.255c0.544,1.322,2.722,0.744,2.17-0.599
			c-2.502-6.085-5.003-12.17-7.504-18.255C36.267,1.915,34.089,2.494,34.641,3.836L34.641,3.836z"/>
	</g>
</g>
<g>
	<g>
		<path d="M44.416,22.091c1.803-6.085,3.604-12.17,5.407-18.255c0.413-1.395-1.759-1.986-2.17-0.599
			c-1.802,6.085-3.604,12.17-5.407,18.255C41.834,22.887,44.005,23.479,44.416,22.091L44.416,22.091z"/>
	</g>
</g>
<rect id="_x3C_Slice_x3E__117_" fill="none" width="50.291" height="23.25"/>
</svg>
