<?xml version="1.0" encoding="utf-8"?>
<!-- Generator: Adobe Illustrator 15.1.0, SVG Export Plug-In  -->
<!DOCTYPE svg PUBLIC "-//W3C//DTD SVG 1.1//EN" "http://www.w3.org/Graphics/SVG/1.1/DTD/svg11.dtd" [
	<!ENTITY ns_flows "http://ns.adobe.com/Flows/1.0/">
]>
<svg version="1.1"
	 xmlns="http://www.w3.org/2000/svg" xmlns:xlink="http://www.w3.org/1999/xlink" xmlns:a="http://ns.adobe.com/AdobeSVGViewerExtensions/3.0/"
	 x="0px" y="0px" width="96px" height="29px" viewBox="0 22.586 96 29" enable-background="new 0 22.586 96 29"
	 xml:space="preserve">
<defs>
</defs>
<g>
	<path d="M50.887,3.96h7.547v2.167h-5.331v4.297c0.17-0.016,0.345-0.024,0.523-0.024c1.646,0,3.002,0.501,4.065,1.503
		c1.063,1.002,1.594,2.278,1.594,3.828c0,1.599-0.525,2.899-1.576,3.901c-1.051,1.002-2.412,1.503-4.083,1.503
		c-1.38,0-2.719-0.333-4.018-0.998v-2.507c1.226,0.795,2.423,1.193,3.591,1.193c1.022,0,1.881-0.298,2.574-0.895
		c0.694-0.596,1.041-1.329,1.041-2.197c0-0.901-0.377-1.653-1.132-2.258s-1.696-0.907-2.824-0.907c-0.966,0-1.623,0.082-1.972,0.244
		V3.96z"/>
	<path d="M69.68,3.741h0.999v9.543h1.898v2.069h-1.898v5.611h-2.374v-5.611h-7.193v-1.047L69.68,3.741z M68.305,13.284V8.355
		l-3.935,4.929H68.305z"/>
	<path d="M79.625,3.741c1.559,0,2.847,0.818,3.865,2.453c1.019,1.635,1.527,3.711,1.527,6.226c0,2.581-0.509,4.678-1.527,6.293
		c-1.019,1.615-2.339,2.422-3.962,2.422c-1.647,0-2.971-0.791-3.969-2.374s-1.497-3.68-1.497-6.293c0-2.581,0.516-4.68,1.546-6.299
		C76.639,4.55,77.978,3.741,79.625,3.741z M79.649,6.054h-0.121c-0.934,0-1.674,0.574-2.222,1.722
		c-0.548,1.148-0.821,2.704-0.821,4.668c0,2.013,0.268,3.591,0.803,4.735c0.536,1.145,1.274,1.716,2.216,1.716
		s1.684-0.572,2.228-1.716c0.543-1.144,0.815-2.698,0.815-4.662c0-1.972-0.262-3.542-0.785-4.711S80.534,6.054,79.649,6.054z"/>
	<path d="M87.306,6.188c0-0.925,0.333-1.718,0.998-2.38c0.665-0.661,1.465-0.992,2.397-0.992c0.926,0,1.717,0.331,2.374,0.992
		c0.657,0.662,0.986,1.455,0.986,2.38c0,0.933-0.329,1.73-0.986,2.392c-0.657,0.662-1.448,0.992-2.374,0.992
		c-0.933,0-1.732-0.331-2.397-0.992C87.639,7.918,87.306,7.121,87.306,6.188z M88.633,6.188c0,0.568,0.202,1.055,0.608,1.46
		c0.405,0.406,0.893,0.609,1.46,0.609c0.561,0,1.039-0.203,1.437-0.609s0.597-0.893,0.597-1.46s-0.197-1.051-0.591-1.449
		c-0.394-0.397-0.874-0.596-1.442-0.596c-0.576,0-1.064,0.199-1.466,0.596C88.833,5.137,88.633,5.62,88.633,6.188z"/>
</g>
<g>
	<path d="M49.584,33.031h11.004l-7.695,17.204l-2.176-0.917l6.218-13.961h-7.351V33.031z"/>
	<path d="M65.97,47.686h6.474v2.349H61.683v-0.17l1.022-1.205c1.599-1.98,2.871-3.66,3.816-5.039s1.563-2.422,1.851-3.128
		c0.287-0.706,0.432-1.404,0.432-2.094c0-0.957-0.271-1.726-0.815-2.307c-0.544-0.58-1.266-0.87-2.167-0.87
		c-0.682,0-1.353,0.201-2.014,0.603c-0.662,0.402-1.256,0.968-1.784,1.698v-3.092c1.323-1.079,2.687-1.619,4.09-1.619
		c1.485,0,2.709,0.495,3.67,1.485c0.962,0.99,1.442,2.248,1.442,3.773c0,0.682-0.119,1.411-0.358,2.186s-0.663,1.668-1.271,2.678
		s-1.643,2.388-3.103,4.133L65.97,47.686z"/>
	<path d="M79.625,32.812c1.559,0,2.847,0.818,3.865,2.453c1.019,1.635,1.527,3.711,1.527,6.226c0,2.581-0.509,4.678-1.527,6.293
		c-1.019,1.615-2.339,2.422-3.962,2.422c-1.647,0-2.971-0.791-3.969-2.374s-1.497-3.68-1.497-6.293c0-2.581,0.516-4.68,1.546-6.299
		C76.639,33.621,77.978,32.812,79.625,32.812z M79.649,35.125h-0.121c-0.934,0-1.674,0.574-2.222,1.722
		c-0.548,1.148-0.821,2.704-0.821,4.668c0,2.013,0.268,3.591,0.803,4.735c0.536,1.145,1.274,1.716,2.216,1.716
		s1.684-0.572,2.228-1.716c0.543-1.144,0.815-2.698,0.815-4.662c0-1.972-0.262-3.542-0.785-4.711S80.534,35.125,79.649,35.125z"/>
	<path d="M87.306,35.258c0-0.925,0.333-1.718,0.998-2.38c0.665-0.661,1.465-0.992,2.397-0.992c0.926,0,1.717,0.331,2.374,0.992
		c0.657,0.662,0.986,1.455,0.986,2.38c0,0.933-0.329,1.73-0.986,2.392c-0.657,0.662-1.448,0.992-2.374,0.992
		c-0.933,0-1.732-0.331-2.397-0.992C87.639,36.989,87.306,36.191,87.306,35.258z M88.633,35.258c0,0.568,0.202,1.055,0.608,1.46
		c0.405,0.406,0.893,0.609,1.46,0.609c0.561,0,1.039-0.203,1.437-0.609s0.597-0.893,0.597-1.46s-0.197-1.051-0.591-1.449
		c-0.394-0.397-0.874-0.596-1.442-0.596c-0.576,0-1.064,0.199-1.466,0.596C88.833,34.208,88.633,34.69,88.633,35.258z"/>
</g>
<g>
	<g>
		<path d="M40.703,24.468c-4.115,7.491-8.483,15.385-14.834,21.245c-2.4,2.215-5.66,4.104-8.904,2.629
			c-4.171-1.896-13.268-8.269-7.483-12.537c4.809-3.548,13.397,0.088,9.849,6.822c-3.07,5.825-11.36,5.846-17.004,5.906
			c-1.449,0.016-1.451,2.266,0,2.25c6.489-0.069,13.467-0.464,18.021-5.705c3.111-3.58,3.459-9.091-1.004-11.55
			c-3.198-1.762-9.201-1.746-11.906,1.013c-3.805,3.879-1.043,8.924,2.379,12.011c2.93,2.645,7.643,5.28,11.684,4.325
			c3.357-0.793,6.146-3.586,8.395-6.018c5.211-5.638,9.08-12.573,12.75-19.255C43.344,24.331,41.4,23.196,40.703,24.468
			L40.703,24.468z"/>
	</g>
</g>
<rect id="_x3C_Slice_x3E__117_" y="23.253" fill="none" width="96" height="28.167"/>
</svg>
