<?xml version="1.0" encoding="utf-8"?>
<!-- Generator: Adobe Illustrator 15.1.0, SVG Export Plug-In  -->
<!DOCTYPE svg PUBLIC "-//W3C//DTD SVG 1.1//EN" "http://www.w3.org/Graphics/SVG/1.1/DTD/svg11.dtd" [
	<!ENTITY ns_flows "http://ns.adobe.com/Flows/1.0/">
]>
<svg version="1.1"
	 xmlns="http://www.w3.org/2000/svg" xmlns:xlink="http://www.w3.org/1999/xlink" xmlns:a="http://ns.adobe.com/AdobeSVGViewerExtensions/3.0/"
	 x="0px" y="0px" width="95px" height="28px" viewBox="-0.918 23.516 95 28" enable-background="new -0.918 23.516 95 28"
	 xml:space="preserve">
<defs>
</defs>
<g>
	<path d="M48.666,3.96H59.67l-7.695,17.204l-2.176-0.917l6.218-13.961h-7.351V3.96z"/>
	<path d="M65.052,18.615h6.474v2.349H60.765v-0.17l1.022-1.205c1.599-1.98,2.871-3.66,3.816-5.039s1.563-2.422,1.851-3.128
		c0.287-0.706,0.432-1.404,0.432-2.094c0-0.957-0.271-1.726-0.815-2.307c-0.544-0.58-1.266-0.87-2.167-0.87
		c-0.682,0-1.353,0.201-2.014,0.603c-0.662,0.402-1.256,0.968-1.784,1.698V5.36c1.323-1.079,2.687-1.619,4.09-1.619
		c1.485,0,2.709,0.495,3.67,1.485c0.962,0.99,1.442,2.248,1.442,3.773c0,0.682-0.119,1.411-0.358,2.186s-0.663,1.668-1.271,2.678
		s-1.643,2.388-3.103,4.133L65.052,18.615z"/>
	<path d="M78.707,3.741c1.559,0,2.847,0.818,3.865,2.453c1.019,1.635,1.527,3.711,1.527,6.226c0,2.581-0.509,4.678-1.527,6.293
		c-1.019,1.615-2.339,2.422-3.962,2.422c-1.647,0-2.971-0.791-3.969-2.374s-1.497-3.68-1.497-6.293c0-2.581,0.516-4.68,1.546-6.299
		C75.721,4.55,77.06,3.741,78.707,3.741z M78.731,6.054H78.61c-0.934,0-1.674,0.574-2.222,1.722
		c-0.548,1.148-0.821,2.704-0.821,4.668c0,2.013,0.268,3.591,0.803,4.735c0.536,1.145,1.274,1.716,2.216,1.716
		s1.684-0.572,2.228-1.716c0.543-1.144,0.815-2.698,0.815-4.662c0-1.972-0.262-3.542-0.785-4.711S79.616,6.054,78.731,6.054z"/>
	<path d="M86.388,6.188c0-0.925,0.333-1.718,0.998-2.38c0.665-0.661,1.465-0.992,2.397-0.992c0.926,0,1.717,0.331,2.374,0.992
		c0.657,0.662,0.986,1.455,0.986,2.38c0,0.933-0.329,1.73-0.986,2.392c-0.657,0.662-1.448,0.992-2.374,0.992
		c-0.933,0-1.732-0.331-2.397-0.992C86.721,7.918,86.388,7.121,86.388,6.188z M87.715,6.188c0,0.568,0.202,1.055,0.608,1.46
		c0.405,0.406,0.893,0.609,1.46,0.609c0.561,0,1.039-0.203,1.437-0.609s0.597-0.893,0.597-1.46s-0.197-1.051-0.591-1.449
		c-0.394-0.397-0.874-0.596-1.442-0.596c-0.576,0-1.064,0.199-1.466,0.596C87.915,5.137,87.715,5.62,87.715,6.188z"/>
</g>
<g>
	<path d="M52.112,50.21l-1.497-1.765c1.258-0.795,2.356-1.759,3.299-2.891c0.94-1.132,1.569-2.294,1.886-3.487
		c-0.771,0.479-1.676,0.718-2.714,0.718c-1.299,0-2.412-0.482-3.341-1.448c-0.93-0.966-1.395-2.126-1.395-3.481
		c0-1.412,0.495-2.608,1.485-3.59s2.199-1.473,3.627-1.473c1.607,0,2.922,0.581,3.944,1.741C58.43,35.693,58.94,37.182,58.94,39
		c0,2.061-0.641,4.145-1.923,6.25C55.735,47.355,54.101,49.009,52.112,50.21z M56.275,39.645c0.097-0.649,0.146-1.071,0.146-1.266
		c0-0.981-0.273-1.785-0.821-2.41c-0.548-0.625-1.252-0.938-2.112-0.938c-0.787,0-1.438,0.266-1.953,0.797
		c-0.516,0.532-0.773,1.199-0.773,2.002c0,0.738,0.28,1.375,0.84,1.911c0.561,0.536,1.229,0.804,2.009,0.804
		C54.518,40.545,55.406,40.245,56.275,39.645z"/>
	<path d="M66.243,32.792c1.559,0,2.847,0.818,3.865,2.453c1.019,1.635,1.527,3.711,1.527,6.226c0,2.581-0.509,4.678-1.527,6.293
		c-1.019,1.615-2.339,2.422-3.962,2.422c-1.647,0-2.971-0.791-3.969-2.374s-1.497-3.68-1.497-6.293c0-2.581,0.516-4.68,1.546-6.299
		C63.257,33.601,64.596,32.792,66.243,32.792z M66.268,35.104h-0.121c-0.934,0-1.674,0.574-2.222,1.722
		c-0.548,1.148-0.821,2.704-0.821,4.668c0,2.013,0.268,3.591,0.803,4.735c0.536,1.145,1.274,1.716,2.216,1.716
		s1.684-0.572,2.228-1.716c0.543-1.144,0.815-2.698,0.815-4.662c0-1.972-0.262-3.542-0.785-4.711S67.152,35.104,66.268,35.104z"/>
	<path d="M78.708,32.792c1.559,0,2.847,0.818,3.865,2.453c1.019,1.635,1.527,3.711,1.527,6.226c0,2.581-0.509,4.678-1.527,6.293
		c-1.019,1.615-2.339,2.422-3.962,2.422c-1.647,0-2.971-0.791-3.969-2.374s-1.497-3.68-1.497-6.293c0-2.581,0.516-4.68,1.546-6.299
		C75.722,33.601,77.061,32.792,78.708,32.792z M78.732,35.104h-0.121c-0.934,0-1.674,0.574-2.222,1.722
		c-0.548,1.148-0.821,2.704-0.821,4.668c0,2.013,0.268,3.591,0.803,4.735c0.536,1.145,1.274,1.716,2.216,1.716
		s1.684-0.572,2.228-1.716c0.543-1.144,0.815-2.698,0.815-4.662c0-1.972-0.262-3.542-0.785-4.711S79.617,35.104,78.732,35.104z"/>
	<path d="M86.389,35.238c0-0.925,0.333-1.718,0.998-2.38c0.665-0.661,1.465-0.992,2.397-0.992c0.926,0,1.717,0.331,2.374,0.992
		c0.657,0.662,0.986,1.455,0.986,2.38c0,0.933-0.329,1.73-0.986,2.392c-0.657,0.662-1.448,0.992-2.374,0.992
		c-0.933,0-1.732-0.331-2.397-0.992C86.722,36.969,86.389,36.171,86.389,35.238z M87.716,35.238c0,0.568,0.202,1.055,0.608,1.46
		c0.405,0.406,0.893,0.609,1.46,0.609c0.561,0,1.039-0.203,1.437-0.609s0.597-0.893,0.597-1.46s-0.197-1.051-0.591-1.449
		c-0.394-0.397-0.874-0.596-1.442-0.596c-0.576,0-1.064,0.199-1.466,0.596C87.916,34.188,87.716,34.67,87.716,35.238z"/>
</g>
<g>
	<g>
		<path d="M39.785,24.448c-4.115,7.491-8.483,15.385-14.834,21.245c-2.4,2.215-5.66,4.104-8.904,2.629
			c-4.171-1.896-13.268-8.269-7.483-12.537c4.809-3.548,13.397,0.088,9.849,6.822c-3.07,5.825-11.36,5.846-17.004,5.906
			c-1.449,0.016-1.451,2.266,0,2.25c6.489-0.069,13.467-0.464,18.021-5.705c3.111-3.58,3.459-9.091-1.004-11.55
			c-3.198-1.762-9.201-1.746-11.906,1.013C2.715,38.4,5.477,43.445,8.898,46.532c2.93,2.645,7.643,5.28,11.684,4.325
			c3.357-0.793,6.146-3.586,8.395-6.018c5.211-5.638,9.08-12.573,12.75-19.255C42.426,24.311,40.482,23.176,39.785,24.448
			L39.785,24.448z"/>
	</g>
</g>
<rect id="_x3C_Slice_x3E__117_" y="23.516" fill="none" width="93.416" height="28"/>
</svg>
