<?xml version="1.0" encoding="utf-8"?>
<!-- Generator: Adobe Illustrator 15.1.0, SVG Export Plug-In  -->
<!DOCTYPE svg PUBLIC "-//W3C//DTD SVG 1.1//EN" "http://www.w3.org/Graphics/SVG/1.1/DTD/svg11.dtd" [
	<!ENTITY ns_flows "http://ns.adobe.com/Flows/1.0/">
]>
<svg version="1.1"
	 xmlns="http://www.w3.org/2000/svg" xmlns:xlink="http://www.w3.org/1999/xlink" xmlns:a="http://ns.adobe.com/AdobeSVGViewerExtensions/3.0/"
	 x="0px" y="0px" width="102px" height="23px" viewBox="-0.168 25.298 102 23" enable-background="new -0.168 25.298 102 23"
	 xml:space="preserve">
<defs>
</defs>
<g>
	<path d="M59.688,11.068h0.146c1.063,0,1.872-0.219,2.428-0.657c0.557-0.438,0.834-1.075,0.834-1.911c0-0.754-0.27-1.367-0.81-1.838
		c-0.539-0.471-1.247-0.706-2.124-0.706c-0.884,0-1.866,0.276-2.945,0.828V4.459c0.99-0.495,2.069-0.743,3.238-0.743
		c1.565,0,2.801,0.41,3.706,1.229c0.904,0.819,1.357,1.938,1.357,3.357c0,0.86-0.175,1.583-0.523,2.171
		c-0.35,0.588-0.905,1.093-1.668,1.514c0.665,0.26,1.152,0.579,1.461,0.956c0.309,0.378,0.548,0.834,0.718,1.371
		c0.171,0.536,0.256,1.104,0.256,1.705c0,1.486-0.495,2.714-1.485,3.685s-2.239,1.456-3.749,1.456c-1.29,0-2.536-0.313-3.736-0.938
		v-2.653c1.282,0.803,2.527,1.205,3.736,1.205c0.82,0,1.479-0.244,1.979-0.73s0.748-1.132,0.748-1.935
		c0-0.674-0.207-1.262-0.62-1.765c-0.244-0.284-0.514-0.493-0.81-0.627c-0.297-0.134-0.936-0.262-1.917-0.383l-0.22-0.024V11.068z"
		/>
	<path d="M75.316,3.911l0.243-0.17l1.473,1.85c-1.298,0.838-2.375,1.752-3.231,2.744c-0.856,0.992-1.516,2.159-1.978,3.5
		c0.9-0.463,1.797-0.694,2.689-0.694c1.339,0,2.467,0.475,3.384,1.424c0.917,0.95,1.376,2.114,1.376,3.494
		c0,1.42-0.499,2.625-1.497,3.615c-0.998,0.99-2.212,1.485-3.64,1.485c-1.599,0-2.891-0.562-3.877-1.686
		c-0.985-1.124-1.479-2.594-1.479-4.412c0-1.363,0.253-2.721,0.761-4.072c0.507-1.351,1.237-2.617,2.19-3.798
		C72.686,6.011,73.88,4.917,75.316,3.911z M71.3,14.355c-0.065,0.381-0.098,0.808-0.098,1.278c0,0.958,0.278,1.745,0.834,2.361
		c0.556,0.617,1.268,0.925,2.136,0.925c0.779,0,1.423-0.264,1.93-0.791s0.761-1.193,0.761-1.997c0-0.819-0.27-1.483-0.81-1.99
		c-0.54-0.507-1.252-0.761-2.136-0.761c-0.455,0-0.866,0.069-1.236,0.207C72.312,13.726,71.852,13.982,71.3,14.355z"/>
	<path d="M86.454,3.741c1.559,0,2.847,0.818,3.865,2.453c1.019,1.635,1.527,3.711,1.527,6.226c0,2.581-0.509,4.678-1.527,6.293
		c-1.019,1.615-2.339,2.422-3.962,2.422c-1.647,0-2.971-0.791-3.969-2.374s-1.497-3.68-1.497-6.293c0-2.581,0.516-4.68,1.546-6.299
		C83.468,4.55,84.807,3.741,86.454,3.741z M86.479,6.054h-0.121c-0.934,0-1.674,0.574-2.222,1.722
		c-0.548,1.148-0.821,2.704-0.821,4.668c0,2.013,0.268,3.591,0.803,4.735c0.536,1.145,1.274,1.716,2.216,1.716
		s1.684-0.572,2.228-1.716c0.543-1.144,0.815-2.698,0.815-4.662c0-1.972-0.262-3.542-0.785-4.711S87.363,6.054,86.479,6.054z"/>
	<path d="M94.135,6.188c0-0.925,0.333-1.718,0.998-2.38c0.665-0.661,1.465-0.992,2.397-0.992c0.926,0,1.717,0.331,2.374,0.992
		c0.657,0.662,0.986,1.455,0.986,2.38c0,0.933-0.329,1.73-0.986,2.392c-0.657,0.662-1.448,0.992-2.374,0.992
		c-0.933,0-1.732-0.331-2.397-0.992C94.468,7.918,94.135,7.121,94.135,6.188z M95.462,6.188c0,0.568,0.202,1.055,0.608,1.46
		c0.405,0.406,0.893,0.609,1.46,0.609c0.561,0,1.039-0.203,1.437-0.609s0.597-0.893,0.597-1.46s-0.197-1.051-0.591-1.449
		c-0.394-0.397-0.874-0.596-1.442-0.596c-0.576,0-1.064,0.199-1.466,0.596C95.662,5.137,95.462,5.62,95.462,6.188z"/>
</g>
<g>
	<g>
		<path d="M52.197,45.873c-4.925,0.213-9.723-0.442-14.205-2.571c-7.053-3.35-10.888-13.884-0.377-15.08
			c2.75-0.313,5.688,0.493,7.772,2.311c3.903,3.403-0.683,9.369-3.495,11.467c-4.035,3.008-9.766,3.522-14.609,3.705
			c-1.446,0.055-1.451,2.305,0,2.25c7.602-0.287,15.883-1.801,20.15-8.769c4.478-7.313-1.438-12.81-8.611-13.24
			c-7.998-0.479-12.523,6.121-8.785,13.101c4.048,7.562,14.434,9.41,22.16,9.076C53.643,48.061,53.648,45.81,52.197,45.873
			L52.197,45.873z"/>
	</g>
</g>
<g>
	<g>
		<path d="M29.324,45.673c-6.813,0.274-13.291-1.006-18.4-5.77c-5.588-5.21-2.955-11.362,4.074-11.895
			c6.904-0.523,10.896,4.52,6.878,10.908c-4.13,6.567-13.825,6.568-20.626,6.637c-1.45,0.015-1.451,2.265,0,2.25
			c8.481-0.085,20.521-0.839,23.998-10.364c2.678-7.336-2.413-11.371-9.293-11.694c-6.1-0.287-11.227,3.281-10.244,9.67
			c1.547,10.046,15.6,12.829,23.613,12.507C30.77,47.865,30.775,45.615,29.324,45.673L29.324,45.673z"/>
	</g>
</g>
<g>
	<path d="M57.716,29.856h7.547v2.167h-5.331v4.297c0.17-0.016,0.345-0.024,0.523-0.024c1.646,0,3.002,0.501,4.065,1.503
		c1.063,1.002,1.594,2.278,1.594,3.828c0,1.599-0.525,2.899-1.576,3.901c-1.051,1.002-2.412,1.503-4.083,1.503
		c-1.38,0-2.719-0.333-4.018-0.998v-2.507c1.226,0.795,2.423,1.193,3.591,1.193c1.022,0,1.881-0.298,2.574-0.895
		c0.694-0.596,1.041-1.329,1.041-2.197c0-0.901-0.377-1.653-1.132-2.258s-1.696-0.907-2.824-0.907c-0.966,0-1.623,0.082-1.972,0.244
		V29.856z"/>
	<path d="M76.509,29.637h0.999v9.543h1.898v2.069h-1.898v5.611h-2.374v-5.611H67.94v-1.047L76.509,29.637z M75.134,39.18v-4.929
		l-3.935,4.929H75.134z"/>
	<path d="M86.454,29.637c1.559,0,2.847,0.818,3.865,2.453c1.019,1.635,1.527,3.711,1.527,6.226c0,2.581-0.509,4.678-1.527,6.293
		c-1.019,1.615-2.339,2.422-3.962,2.422c-1.647,0-2.971-0.791-3.969-2.374s-1.497-3.68-1.497-6.293c0-2.581,0.516-4.68,1.546-6.299
		C83.468,30.446,84.807,29.637,86.454,29.637z M86.479,31.95h-0.121c-0.934,0-1.674,0.574-2.222,1.722
		c-0.548,1.148-0.821,2.704-0.821,4.668c0,2.013,0.268,3.591,0.803,4.735c0.536,1.145,1.274,1.716,2.216,1.716
		s1.684-0.572,2.228-1.716c0.543-1.144,0.815-2.698,0.815-4.662c0-1.972-0.262-3.542-0.785-4.711S87.363,31.95,86.479,31.95z"/>
	<path d="M94.135,32.083c0-0.925,0.333-1.718,0.998-2.38c0.665-0.661,1.465-0.992,2.397-0.992c0.926,0,1.717,0.331,2.374,0.992
		c0.657,0.662,0.986,1.455,0.986,2.38c0,0.933-0.329,1.73-0.986,2.392c-0.657,0.662-1.448,0.992-2.374,0.992
		c-0.933,0-1.732-0.331-2.397-0.992C94.468,33.814,94.135,33.017,94.135,32.083z M95.462,32.083c0,0.568,0.202,1.055,0.608,1.46
		c0.405,0.406,0.893,0.609,1.46,0.609c0.561,0,1.039-0.203,1.437-0.609s0.597-0.893,0.597-1.46s-0.197-1.051-0.591-1.449
		c-0.394-0.397-0.874-0.596-1.442-0.596c-0.576,0-1.064,0.199-1.466,0.596C95.662,31.033,95.462,31.516,95.462,32.083z"/>
</g>
<rect id="_x3C_Slice_x3E__117_" y="25.418" fill="none" width="101.166" height="22.797"/>
</svg>
