<?xml version="1.0" encoding="utf-8"?>
<!-- Generator: Adobe Illustrator 15.1.0, SVG Export Plug-In  -->
<!DOCTYPE svg PUBLIC "-//W3C//DTD SVG 1.1//EN" "http://www.w3.org/Graphics/SVG/1.1/DTD/svg11.dtd" [
	<!ENTITY ns_flows "http://ns.adobe.com/Flows/1.0/">
]>
<svg version="1.1"
	 xmlns="http://www.w3.org/2000/svg" xmlns:xlink="http://www.w3.org/1999/xlink" xmlns:a="http://ns.adobe.com/AdobeSVGViewerExtensions/3.0/"
	 x="0px" y="0px" width="102px" height="24px" viewBox="-0.084 24.402 102 24" enable-background="new -0.084 24.402 102 24"
	 xml:space="preserve">
<defs>
</defs>
<g>
	<path d="M58.8,3.96h7.547v2.167h-5.331v4.297c0.17-0.016,0.345-0.024,0.523-0.024c1.646,0,3.002,0.501,4.065,1.503
		c1.063,1.002,1.594,2.278,1.594,3.828c0,1.599-0.525,2.899-1.576,3.901c-1.051,1.002-2.412,1.503-4.083,1.503
		c-1.38,0-2.719-0.333-4.018-0.998v-2.507c1.226,0.795,2.423,1.193,3.591,1.193c1.022,0,1.881-0.298,2.574-0.895
		c0.694-0.596,1.041-1.329,1.041-2.197c0-0.901-0.377-1.653-1.132-2.258s-1.696-0.907-2.824-0.907c-0.966,0-1.623,0.082-1.972,0.244
		V3.96z"/>
	<path d="M77.593,3.741h0.999v9.543h1.898v2.069h-1.898v5.611h-2.374v-5.611h-7.193v-1.047L77.593,3.741z M76.218,13.284V8.355
		l-3.935,4.929H76.218z"/>
	<path d="M87.538,3.741c1.559,0,2.847,0.818,3.865,2.453c1.019,1.635,1.527,3.711,1.527,6.226c0,2.581-0.509,4.678-1.527,6.293
		c-1.019,1.615-2.339,2.422-3.962,2.422c-1.647,0-2.971-0.791-3.969-2.374s-1.497-3.68-1.497-6.293c0-2.581,0.516-4.68,1.546-6.299
		C84.552,4.55,85.891,3.741,87.538,3.741z M87.563,6.054h-0.121c-0.934,0-1.674,0.574-2.222,1.722
		c-0.548,1.148-0.821,2.704-0.821,4.668c0,2.013,0.268,3.591,0.803,4.735c0.536,1.145,1.274,1.716,2.216,1.716
		s1.684-0.572,2.228-1.716c0.543-1.144,0.815-2.698,0.815-4.662c0-1.972-0.262-3.542-0.785-4.711S88.447,6.054,87.563,6.054z"/>
	<path d="M95.219,6.188c0-0.925,0.333-1.718,0.998-2.38c0.665-0.661,1.465-0.992,2.397-0.992c0.926,0,1.717,0.331,2.374,0.992
		c0.657,0.662,0.986,1.455,0.986,2.38c0,0.933-0.329,1.73-0.986,2.392c-0.657,0.662-1.448,0.992-2.374,0.992
		c-0.933,0-1.732-0.331-2.397-0.992C95.552,7.918,95.219,7.121,95.219,6.188z M96.546,6.188c0,0.568,0.202,1.055,0.608,1.46
		c0.405,0.406,0.893,0.609,1.46,0.609c0.561,0,1.039-0.203,1.437-0.609s0.597-0.893,0.597-1.46s-0.197-1.051-0.591-1.449
		c-0.394-0.397-0.874-0.596-1.442-0.596c-0.576,0-1.064,0.199-1.466,0.596C96.746,5.137,96.546,5.62,96.546,6.188z"/>
</g>
<g>
	<g>
		<path d="M52.341,45.018c-4.925,0.213-9.723-0.442-14.205-2.571c-7.052-3.35-10.888-13.884-0.377-15.08
			c2.75-0.313,5.688,0.493,7.772,2.311c3.903,3.403-0.683,9.369-3.495,11.467c-4.034,3.008-9.766,3.522-14.609,3.705
			c-1.446,0.055-1.451,2.305,0,2.25c7.602-0.287,15.883-1.801,20.15-8.769c4.478-7.313-1.438-12.81-8.611-13.24
			c-7.998-0.479-12.523,6.121-8.785,13.101c4.048,7.562,14.434,9.41,22.16,9.076C53.786,47.206,53.793,44.955,52.341,45.018
			L52.341,45.018z"/>
	</g>
</g>
<g>
	<g>
		<path d="M29.468,44.818c-6.813,0.274-13.291-1.006-18.4-5.77c-5.588-5.21-2.955-11.362,4.074-11.895
			c6.904-0.523,10.896,4.52,6.878,10.908c-4.13,6.567-13.825,6.568-20.626,6.637c-1.45,0.015-1.451,2.265,0,2.25
			c8.481-0.085,20.521-0.839,23.998-10.364c2.678-7.336-2.413-11.371-9.293-11.694c-6.1-0.287-11.227,3.281-10.244,9.67
			c1.547,10.046,15.6,12.829,23.613,12.507C30.913,47.01,30.919,44.76,29.468,44.818L29.468,44.818z"/>
	</g>
</g>
<g>
	<path d="M56.557,29.001h11.004l-7.695,17.204l-2.176-0.917l6.218-13.961h-7.351V29.001z"/>
	<path d="M72.942,43.656h6.474v2.349H68.655v-0.17l1.022-1.205c1.599-1.98,2.871-3.66,3.816-5.039s1.563-2.422,1.851-3.128
		c0.287-0.706,0.432-1.404,0.432-2.094c0-0.957-0.271-1.726-0.815-2.307c-0.544-0.58-1.266-0.87-2.167-0.87
		c-0.682,0-1.353,0.201-2.014,0.603c-0.662,0.402-1.256,0.968-1.784,1.698v-3.092c1.323-1.079,2.687-1.619,4.09-1.619
		c1.485,0,2.709,0.495,3.67,1.485c0.962,0.99,1.442,2.248,1.442,3.773c0,0.682-0.119,1.411-0.358,2.186s-0.663,1.668-1.271,2.678
		s-1.643,2.388-3.103,4.133L72.942,43.656z"/>
	<path d="M86.598,28.782c1.559,0,2.847,0.818,3.865,2.453c1.019,1.635,1.527,3.711,1.527,6.226c0,2.581-0.509,4.678-1.527,6.293
		c-1.019,1.615-2.339,2.422-3.962,2.422c-1.647,0-2.971-0.791-3.969-2.374s-1.497-3.68-1.497-6.293c0-2.581,0.516-4.68,1.546-6.299
		C83.611,29.591,84.95,28.782,86.598,28.782z M86.622,31.095h-0.121c-0.934,0-1.674,0.574-2.222,1.722
		c-0.548,1.148-0.821,2.704-0.821,4.668c0,2.013,0.268,3.591,0.803,4.735c0.536,1.145,1.274,1.716,2.216,1.716
		s1.684-0.572,2.228-1.716c0.543-1.144,0.815-2.698,0.815-4.662c0-1.972-0.262-3.542-0.785-4.711S87.507,31.095,86.622,31.095z"/>
	<path d="M94.278,31.229c0-0.925,0.333-1.718,0.998-2.38c0.665-0.661,1.465-0.992,2.397-0.992c0.926,0,1.717,0.331,2.374,0.992
		c0.657,0.662,0.986,1.455,0.986,2.38c0,0.933-0.329,1.73-0.986,2.392c-0.657,0.662-1.448,0.992-2.374,0.992
		c-0.933,0-1.732-0.331-2.397-0.992C94.611,32.959,94.278,32.162,94.278,31.229z M95.605,31.229c0,0.568,0.202,1.055,0.608,1.46
		c0.405,0.406,0.893,0.609,1.46,0.609c0.561,0,1.039-0.203,1.437-0.609s0.597-0.893,0.597-1.46s-0.197-1.051-0.591-1.449
		c-0.394-0.397-0.874-0.596-1.442-0.596c-0.576,0-1.064,0.199-1.466,0.596C95.806,30.178,95.605,30.661,95.605,31.229z"/>
</g>
<rect id="_x3C_Slice_x3E__117_" y="24.402" fill="none" width="101.5" height="23.333"/>
</svg>
