<?xml version="1.0" encoding="utf-8"?>
<!-- Generator: Adobe Illustrator 15.1.0, SVG Export Plug-In  -->
<!DOCTYPE svg PUBLIC "-//W3C//DTD SVG 1.1//EN" "http://www.w3.org/Graphics/SVG/1.1/DTD/svg11.dtd" [
	<!ENTITY ns_flows "http://ns.adobe.com/Flows/1.0/">
]>
<svg version="1.1"
	 xmlns="http://www.w3.org/2000/svg" xmlns:xlink="http://www.w3.org/1999/xlink" xmlns:a="http://ns.adobe.com/AdobeSVGViewerExtensions/3.0/"
	 x="0px" y="0px" width="108px" height="29px" viewBox="0 24.164 108 29" enable-background="new 0 24.164 108 29"
	 xml:space="preserve">
<defs>
</defs>
<g>
	<path d="M65.961,3.96h2.435v17.004h-2.435V3.96z"/>
	<path d="M74.578,8.521c0-1.33,0.5-2.459,1.498-3.387c0.998-0.929,2.219-1.393,3.663-1.393c1.42,0,2.619,0.46,3.598,1.381
		c0.978,0.92,1.466,2.054,1.466,3.399c0,1.517-0.705,2.77-2.117,3.759c1.574,0.909,2.361,2.249,2.361,4.019
		c0,1.405-0.512,2.566-1.534,3.484s-2.313,1.376-3.87,1.376c-1.542,0-2.837-0.469-3.883-1.407c-1.047-0.938-1.57-2.097-1.57-3.478
		c0-1.73,0.803-3.062,2.41-3.995c-0.723-0.584-1.24-1.166-1.553-1.746S74.578,9.283,74.578,8.521z M82.588,16.4v-0.244
		c0-0.779-0.278-1.414-0.834-1.905c-0.556-0.491-1.276-0.736-2.16-0.736c-0.868,0-1.576,0.248-2.124,0.742
		c-0.548,0.495-0.822,1.136-0.822,1.923s0.28,1.428,0.84,1.923c0.561,0.495,1.286,0.742,2.18,0.742c0.852,0,1.552-0.227,2.1-0.682
		C82.314,17.71,82.588,17.122,82.588,16.4z M82.381,8.598c0-0.738-0.254-1.347-0.761-1.826c-0.507-0.479-1.15-0.718-1.93-0.718
		c-0.787,0-1.432,0.235-1.935,0.706c-0.504,0.471-0.755,1.076-0.755,1.814c0,0.706,0.266,1.311,0.797,1.813
		c0.531,0.503,1.171,0.755,1.917,0.755c0.738,0,1.367-0.25,1.887-0.749S82.381,9.295,82.381,8.598z"/>
	<path d="M92.18,3.741c1.559,0,2.847,0.818,3.865,2.453c1.019,1.635,1.527,3.711,1.527,6.226c0,2.581-0.509,4.678-1.527,6.293
		c-1.019,1.615-2.339,2.422-3.962,2.422c-1.647,0-2.971-0.791-3.969-2.374s-1.497-3.68-1.497-6.293c0-2.581,0.516-4.68,1.546-6.299
		C89.193,4.55,90.532,3.741,92.18,3.741z M92.204,6.054h-0.121c-0.934,0-1.674,0.574-2.222,1.722
		c-0.548,1.148-0.821,2.704-0.821,4.668c0,2.013,0.268,3.591,0.803,4.735c0.536,1.145,1.274,1.716,2.216,1.716
		s1.684-0.572,2.228-1.716c0.543-1.144,0.815-2.698,0.815-4.662c0-1.972-0.262-3.542-0.785-4.711S93.089,6.054,92.204,6.054z"/>
	<path d="M99.86,6.188c0-0.925,0.333-1.718,0.998-2.38c0.665-0.661,1.465-0.992,2.397-0.992c0.926,0,1.717,0.331,2.374,0.992
		c0.657,0.662,0.986,1.455,0.986,2.38c0,0.933-0.329,1.73-0.986,2.392c-0.657,0.662-1.448,0.992-2.374,0.992
		c-0.933,0-1.732-0.331-2.397-0.992C100.193,7.918,99.86,7.121,99.86,6.188z M101.188,6.188c0,0.568,0.202,1.055,0.608,1.46
		c0.405,0.406,0.893,0.609,1.46,0.609c0.561,0,1.039-0.203,1.437-0.609s0.597-0.893,0.597-1.46s-0.197-1.051-0.591-1.449
		c-0.394-0.397-0.874-0.596-1.442-0.596c-0.576,0-1.064,0.199-1.466,0.596C101.388,5.137,101.188,5.62,101.188,6.188z"/>
</g>
<g>
	<g>
		<path d="M59.951,25.76c-4.115,7.491-8.483,15.385-14.834,21.245c-2.354,2.172-5.395,3.942-8.609,2.76
			c-4.246-1.561-11.172-6.399-9.094-11.301c1.543-3.638,8.135-2.752,10.754-1.31c6.213,3.424-3.037,10.306-5.469,11.31
			c-2.773,1.146-5.945,1.227-8.9,1.33c-1.447,0.051-1.451,2.301,0,2.25c6.473-0.227,12.834-1.344,16.722-6.99
			c2.841-4.124,1.459-8.837-2.991-10.676c-3.633-1.501-8.658-0.774-11.422,2.043c-3.445,3.514,0.133,9.274,3.184,11.598
			c3.344,2.546,7.529,5.308,11.886,4.022c3.178-0.938,5.787-3.535,7.966-5.892c5.211-5.638,9.08-12.574,12.75-19.255
			C62.592,25.624,60.648,24.488,59.951,25.76L59.951,25.76z"/>
	</g>
</g>
<g>
	<g>
		<path d="M24.406,49.783c-5.402,0.202-10.466-0.792-14.57-4.496c-4.895-4.418-1.957-9.117,3.635-9.294
			c1.455-0.046,2.922,0.301,4.24,0.898c4.079,1.849,1.371,6.687-0.563,8.836c-3.624,4.026-10.4,3.908-15.335,3.96
			c-1.45,0.015-1.451,2.265,0,2.25c7.59-0.08,16.174-0.899,19.613-8.736c2.442-5.567-2.152-8.9-7.082-9.426
			c-4.08-0.435-10.188,1.888-9.315,6.987c1.513,8.834,11.696,11.559,19.378,11.271C25.853,51.979,25.857,49.729,24.406,49.783
			L24.406,49.783z"/>
	</g>
</g>
<g>
	<path d="M65.413,41.068h0.146c1.063,0,1.872-0.219,2.428-0.657c0.557-0.438,0.834-1.075,0.834-1.911c0-0.754-0.27-1.367-0.81-1.838
		c-0.539-0.471-1.247-0.706-2.124-0.706c-0.884,0-1.866,0.276-2.945,0.828v-2.325c0.99-0.495,2.069-0.743,3.238-0.743
		c1.565,0,2.801,0.41,3.706,1.229c0.904,0.819,1.357,1.938,1.357,3.357c0,0.86-0.175,1.583-0.523,2.171
		c-0.35,0.588-0.905,1.093-1.668,1.514c0.665,0.26,1.152,0.579,1.461,0.956c0.309,0.378,0.548,0.834,0.718,1.371
		c0.171,0.536,0.256,1.104,0.256,1.705c0,1.486-0.495,2.714-1.485,3.685s-2.239,1.456-3.749,1.456c-1.29,0-2.536-0.313-3.736-0.938
		v-2.653c1.282,0.803,2.527,1.205,3.736,1.205c0.82,0,1.479-0.244,1.979-0.73s0.748-1.132,0.748-1.935
		c0-0.674-0.207-1.262-0.62-1.765c-0.244-0.284-0.514-0.493-0.81-0.627c-0.297-0.134-0.936-0.262-1.917-0.383l-0.22-0.024V41.068z"
		/>
	<path d="M81.042,33.911l0.243-0.17l1.473,1.85c-1.298,0.838-2.375,1.752-3.231,2.744c-0.856,0.992-1.516,2.159-1.978,3.5
		c0.9-0.463,1.797-0.694,2.689-0.694c1.339,0,2.467,0.475,3.384,1.424c0.917,0.95,1.376,2.114,1.376,3.494
		c0,1.42-0.499,2.625-1.497,3.615c-0.998,0.99-2.212,1.485-3.64,1.485c-1.599,0-2.891-0.562-3.877-1.686
		c-0.985-1.124-1.479-2.594-1.479-4.412c0-1.363,0.253-2.721,0.761-4.072c0.507-1.351,1.237-2.617,2.19-3.798
		C78.411,36.011,79.605,34.917,81.042,33.911z M77.025,44.355c-0.065,0.381-0.098,0.808-0.098,1.278
		c0,0.958,0.278,1.745,0.834,2.361c0.556,0.617,1.268,0.925,2.136,0.925c0.779,0,1.423-0.264,1.93-0.791s0.761-1.193,0.761-1.997
		c0-0.819-0.27-1.483-0.81-1.99c-0.54-0.507-1.252-0.761-2.136-0.761c-0.455,0-0.866,0.069-1.236,0.207
		C78.037,43.726,77.577,43.982,77.025,44.355z"/>
	<path d="M92.18,33.741c1.559,0,2.847,0.818,3.865,2.453c1.019,1.635,1.527,3.711,1.527,6.226c0,2.581-0.509,4.678-1.527,6.293
		c-1.019,1.615-2.339,2.422-3.962,2.422c-1.647,0-2.971-0.791-3.969-2.374s-1.497-3.68-1.497-6.293c0-2.581,0.516-4.68,1.546-6.299
		C89.193,34.55,90.532,33.741,92.18,33.741z M92.204,36.054h-0.121c-0.934,0-1.674,0.574-2.222,1.722
		c-0.548,1.148-0.821,2.704-0.821,4.668c0,2.013,0.268,3.591,0.803,4.735c0.536,1.145,1.274,1.716,2.216,1.716
		s1.684-0.572,2.228-1.716c0.543-1.144,0.815-2.698,0.815-4.662c0-1.972-0.262-3.542-0.785-4.711S93.089,36.054,92.204,36.054z"/>
	<path d="M99.86,36.188c0-0.925,0.333-1.718,0.998-2.38c0.665-0.661,1.465-0.992,2.397-0.992c0.926,0,1.717,0.331,2.374,0.992
		c0.657,0.662,0.986,1.455,0.986,2.38c0,0.933-0.329,1.73-0.986,2.392c-0.657,0.662-1.448,0.992-2.374,0.992
		c-0.933,0-1.732-0.331-2.397-0.992C100.193,37.918,99.86,37.121,99.86,36.188z M101.188,36.188c0,0.568,0.202,1.055,0.608,1.46
		c0.405,0.406,0.893,0.609,1.46,0.609c0.561,0,1.039-0.203,1.437-0.609s0.597-0.893,0.597-1.46s-0.197-1.051-0.591-1.449
		c-0.394-0.397-0.874-0.596-1.442-0.596c-0.576,0-1.064,0.199-1.466,0.596C101.388,35.137,101.188,35.62,101.188,36.188z"/>
</g>
<rect id="_x3C_Slice_x3E__117_" y="24.498" fill="none" width="107.168" height="28.333"/>
</svg>
