<?xml version="1.0" encoding="utf-8"?>
<!-- Generator: Adobe Illustrator 15.1.0, SVG Export Plug-In  -->
<!DOCTYPE svg PUBLIC "-//W3C//DTD SVG 1.1//EN" "http://www.w3.org/Graphics/SVG/1.1/DTD/svg11.dtd" [
	<!ENTITY ns_flows "http://ns.adobe.com/Flows/1.0/">
]>
<svg version="1.1"
	 xmlns="http://www.w3.org/2000/svg" xmlns:xlink="http://www.w3.org/1999/xlink" xmlns:a="http://ns.adobe.com/AdobeSVGViewerExtensions/3.0/"
	 x="0px" y="0px" width="108px" height="29px" viewBox="0 24.164 108 29" enable-background="new 0 24.164 108 29"
	 xml:space="preserve">
<defs>
</defs>
<g>
	<path d="M63.441,3.96h7.547v2.167h-5.331v4.297c0.17-0.016,0.345-0.024,0.523-0.024c1.646,0,3.002,0.501,4.065,1.503
		c1.063,1.002,1.594,2.278,1.594,3.828c0,1.599-0.525,2.899-1.576,3.901c-1.051,1.002-2.412,1.503-4.083,1.503
		c-1.38,0-2.719-0.333-4.018-0.998v-2.507c1.226,0.795,2.423,1.193,3.591,1.193c1.022,0,1.881-0.298,2.574-0.895
		c0.694-0.596,1.041-1.329,1.041-2.197c0-0.901-0.377-1.653-1.132-2.258s-1.696-0.907-2.824-0.907c-0.966,0-1.623,0.082-1.972,0.244
		V3.96z"/>
	<path d="M82.234,3.741h0.999v9.543h1.898v2.069h-1.898v5.611h-2.374v-5.611h-7.193v-1.047L82.234,3.741z M80.859,13.284V8.355
		l-3.935,4.929H80.859z"/>
	<path d="M92.18,3.741c1.559,0,2.847,0.818,3.865,2.453c1.019,1.635,1.527,3.711,1.527,6.226c0,2.581-0.509,4.678-1.527,6.293
		c-1.019,1.615-2.339,2.422-3.962,2.422c-1.647,0-2.971-0.791-3.969-2.374s-1.497-3.68-1.497-6.293c0-2.581,0.516-4.68,1.546-6.299
		C89.193,4.55,90.532,3.741,92.18,3.741z M92.204,6.054h-0.121c-0.934,0-1.674,0.574-2.222,1.722
		c-0.548,1.148-0.821,2.704-0.821,4.668c0,2.013,0.268,3.591,0.803,4.735c0.536,1.145,1.274,1.716,2.216,1.716
		s1.684-0.572,2.228-1.716c0.543-1.144,0.815-2.698,0.815-4.662c0-1.972-0.262-3.542-0.785-4.711S93.089,6.054,92.204,6.054z"/>
	<path d="M99.86,6.188c0-0.925,0.333-1.718,0.998-2.38c0.665-0.661,1.465-0.992,2.397-0.992c0.926,0,1.717,0.331,2.374,0.992
		c0.657,0.662,0.986,1.455,0.986,2.38c0,0.933-0.329,1.73-0.986,2.392c-0.657,0.662-1.448,0.992-2.374,0.992
		c-0.933,0-1.732-0.331-2.397-0.992C100.193,7.918,99.86,7.121,99.86,6.188z M101.188,6.188c0,0.568,0.202,1.055,0.608,1.46
		c0.405,0.406,0.893,0.609,1.46,0.609c0.561,0,1.039-0.203,1.437-0.609s0.597-0.893,0.597-1.46s-0.197-1.051-0.591-1.449
		c-0.394-0.397-0.874-0.596-1.442-0.596c-0.576,0-1.064,0.199-1.466,0.596C101.388,5.137,101.188,5.62,101.188,6.188z"/>
</g>
<g>
	<g>
		<path d="M59.951,25.76c-4.115,7.491-8.483,15.385-14.834,21.245c-2.354,2.172-5.395,3.942-8.609,2.76
			c-4.246-1.561-11.172-6.399-9.094-11.301c1.543-3.638,8.135-2.752,10.754-1.31c6.213,3.424-3.037,10.306-5.469,11.31
			c-2.773,1.146-5.945,1.227-8.9,1.33c-1.447,0.051-1.451,2.301,0,2.25c6.473-0.227,12.834-1.344,16.722-6.99
			c2.841-4.124,1.459-8.837-2.991-10.676c-3.633-1.501-8.658-0.774-11.422,2.043c-3.445,3.514,0.133,9.274,3.184,11.598
			c3.344,2.546,7.529,5.308,11.886,4.022c3.178-0.938,5.787-3.535,7.966-5.892c5.211-5.638,9.08-12.574,12.75-19.255
			C62.592,25.624,60.648,24.488,59.951,25.76L59.951,25.76z"/>
	</g>
</g>
<g>
	<g>
		<path d="M24.406,49.783c-5.402,0.202-10.466-0.792-14.57-4.496c-4.895-4.418-1.957-9.117,3.635-9.294
			c1.455-0.046,2.922,0.301,4.24,0.898c4.079,1.849,1.371,6.687-0.563,8.836c-3.624,4.026-10.4,3.908-15.335,3.96
			c-1.45,0.015-1.451,2.265,0,2.25c7.59-0.08,16.174-0.899,19.613-8.736c2.442-5.567-2.152-8.9-7.082-9.426
			c-4.08-0.435-10.188,1.888-9.315,6.987c1.513,8.834,11.696,11.559,19.378,11.271C25.853,51.979,25.857,49.729,24.406,49.783
			L24.406,49.783z"/>
	</g>
</g>
<g>
	<path d="M62.139,33.96h11.004l-7.695,17.204l-2.176-0.917l6.218-13.961h-7.351V33.96z"/>
	<path d="M78.524,48.615h6.474v2.349H74.237v-0.17l1.022-1.205c1.599-1.98,2.871-3.66,3.816-5.039s1.563-2.422,1.851-3.128
		c0.287-0.706,0.432-1.404,0.432-2.094c0-0.957-0.271-1.726-0.815-2.307c-0.544-0.58-1.266-0.87-2.167-0.87
		c-0.682,0-1.353,0.201-2.014,0.603c-0.662,0.402-1.256,0.968-1.784,1.698V35.36c1.323-1.079,2.687-1.619,4.09-1.619
		c1.485,0,2.709,0.495,3.67,1.485C83.3,36.216,83.78,37.474,83.78,39c0,0.682-0.119,1.411-0.358,2.186s-0.663,1.668-1.271,2.678
		s-1.643,2.388-3.103,4.133L78.524,48.615z"/>
	<path d="M92.18,33.741c1.559,0,2.847,0.818,3.865,2.453c1.019,1.635,1.527,3.711,1.527,6.226c0,2.581-0.509,4.678-1.527,6.293
		c-1.019,1.615-2.339,2.422-3.962,2.422c-1.647,0-2.971-0.791-3.969-2.374s-1.497-3.68-1.497-6.293c0-2.581,0.516-4.68,1.546-6.299
		C89.193,34.55,90.532,33.741,92.18,33.741z M92.204,36.054h-0.121c-0.934,0-1.674,0.574-2.222,1.722
		c-0.548,1.148-0.821,2.704-0.821,4.668c0,2.013,0.268,3.591,0.803,4.735c0.536,1.145,1.274,1.716,2.216,1.716
		s1.684-0.572,2.228-1.716c0.543-1.144,0.815-2.698,0.815-4.662c0-1.972-0.262-3.542-0.785-4.711S93.089,36.054,92.204,36.054z"/>
	<path d="M99.86,36.188c0-0.925,0.333-1.718,0.998-2.38c0.665-0.661,1.465-0.992,2.397-0.992c0.926,0,1.717,0.331,2.374,0.992
		c0.657,0.662,0.986,1.455,0.986,2.38c0,0.933-0.329,1.73-0.986,2.392c-0.657,0.662-1.448,0.992-2.374,0.992
		c-0.933,0-1.732-0.331-2.397-0.992C100.193,37.918,99.86,37.121,99.86,36.188z M101.188,36.188c0,0.568,0.202,1.055,0.608,1.46
		c0.405,0.406,0.893,0.609,1.46,0.609c0.561,0,1.039-0.203,1.437-0.609s0.597-0.893,0.597-1.46s-0.197-1.051-0.591-1.449
		c-0.394-0.397-0.874-0.596-1.442-0.596c-0.576,0-1.064,0.199-1.466,0.596C101.388,35.137,101.188,35.62,101.188,36.188z"/>
</g>
<rect id="_x3C_Slice_x3E__117_" y="24.331" fill="none" width="108" height="28.667"/>
</svg>
