<?xml version="1.0" encoding="utf-8"?>
<!-- Generator: Adobe Illustrator 15.1.0, SVG Export Plug-In  -->
<!DOCTYPE svg PUBLIC "-//W3C//DTD SVG 1.1//EN" "http://www.w3.org/Graphics/SVG/1.1/DTD/svg11.dtd" [
	<!ENTITY ns_flows "http://ns.adobe.com/Flows/1.0/">
]>
<svg version="1.1"
	 xmlns="http://www.w3.org/2000/svg" xmlns:xlink="http://www.w3.org/1999/xlink" xmlns:a="http://ns.adobe.com/AdobeSVGViewerExtensions/3.0/"
	 x="0px" y="0px" width="79px" height="24px" viewBox="0 26.164 79 24" enable-background="new 0 26.164 79 24"
	 xml:space="preserve">
<defs>
</defs>
<g>
	<path d="M65.961,3.96h2.435v17.004h-2.435V3.96z"/>
	<path d="M79.715,3.741c1.559,0,2.847,0.818,3.865,2.453c1.019,1.635,1.527,3.711,1.527,6.226c0,2.581-0.509,4.678-1.527,6.293
		c-1.019,1.615-2.339,2.422-3.962,2.422c-1.647,0-2.971-0.791-3.969-2.374s-1.497-3.68-1.497-6.293c0-2.581,0.516-4.68,1.546-6.299
		C76.729,4.55,78.067,3.741,79.715,3.741z M79.739,6.054h-0.121c-0.934,0-1.674,0.574-2.222,1.722
		c-0.548,1.148-0.821,2.704-0.821,4.668c0,2.013,0.268,3.591,0.803,4.735c0.536,1.145,1.274,1.716,2.216,1.716
		s1.684-0.572,2.228-1.716c0.543-1.144,0.815-2.698,0.815-4.662c0-1.972-0.262-3.542-0.785-4.711S80.624,6.054,79.739,6.054z"/>
	<path d="M87.043,8.521c0-1.33,0.5-2.459,1.498-3.387c0.998-0.929,2.219-1.393,3.663-1.393c1.42,0,2.619,0.46,3.598,1.381
		c0.978,0.92,1.466,2.054,1.466,3.399c0,1.517-0.705,2.77-2.117,3.759c1.574,0.909,2.361,2.249,2.361,4.019
		c0,1.405-0.512,2.566-1.534,3.484s-2.313,1.376-3.87,1.376c-1.542,0-2.837-0.469-3.883-1.407c-1.047-0.938-1.57-2.097-1.57-3.478
		c0-1.73,0.803-3.062,2.41-3.995c-0.723-0.584-1.24-1.166-1.553-1.746S87.043,9.283,87.043,8.521z M95.053,16.4v-0.244
		c0-0.779-0.278-1.414-0.834-1.905c-0.556-0.491-1.276-0.736-2.16-0.736c-0.868,0-1.576,0.248-2.124,0.742
		c-0.548,0.495-0.822,1.136-0.822,1.923s0.28,1.428,0.84,1.923c0.561,0.495,1.286,0.742,2.18,0.742c0.852,0,1.552-0.227,2.1-0.682
		C94.779,17.71,95.053,17.122,95.053,16.4z M94.846,8.598c0-0.738-0.254-1.347-0.761-1.826c-0.507-0.479-1.15-0.718-1.93-0.718
		c-0.787,0-1.432,0.235-1.935,0.706c-0.504,0.471-0.755,1.076-0.755,1.814c0,0.706,0.266,1.311,0.797,1.813
		c0.531,0.503,1.171,0.755,1.917,0.755c0.738,0,1.367-0.25,1.887-0.749S94.846,9.295,94.846,8.598z"/>
	<path d="M104.644,3.741c1.559,0,2.847,0.818,3.865,2.453c1.019,1.635,1.527,3.711,1.527,6.226c0,2.581-0.509,4.678-1.527,6.293
		c-1.019,1.615-2.339,2.422-3.962,2.422c-1.647,0-2.971-0.791-3.969-2.374s-1.497-3.68-1.497-6.293c0-2.581,0.516-4.68,1.546-6.299
		C101.657,4.55,102.996,3.741,104.644,3.741z M104.668,6.054h-0.121c-0.934,0-1.674,0.574-2.222,1.722
		c-0.548,1.148-0.821,2.704-0.821,4.668c0,2.013,0.268,3.591,0.803,4.735c0.536,1.145,1.274,1.716,2.216,1.716
		s1.684-0.572,2.228-1.716c0.543-1.144,0.815-2.698,0.815-4.662c0-1.972-0.262-3.542-0.785-4.711S105.553,6.054,104.668,6.054z"/>
	<path d="M112.324,6.188c0-0.925,0.333-1.718,0.998-2.38c0.665-0.661,1.465-0.992,2.397-0.992c0.926,0,1.717,0.331,2.374,0.992
		c0.657,0.662,0.986,1.455,0.986,2.38c0,0.933-0.329,1.73-0.986,2.392c-0.657,0.662-1.448,0.992-2.374,0.992
		c-0.933,0-1.732-0.331-2.397-0.992C112.657,7.918,112.324,7.121,112.324,6.188z M113.651,6.188c0,0.568,0.202,1.055,0.608,1.46
		c0.405,0.406,0.893,0.609,1.46,0.609c0.561,0,1.039-0.203,1.437-0.609s0.597-0.893,0.597-1.46s-0.197-1.051-0.591-1.449
		c-0.394-0.397-0.874-0.596-1.442-0.596c-0.576,0-1.064,0.199-1.466,0.596C113.852,5.137,113.651,5.62,113.651,6.188z"/>
</g>
<g>
	<g>
		<path d="M77.434,47.453c-4.925,0.213-9.724-0.442-14.204-2.571c-7.055-3.35-10.889-13.884-0.378-15.08
			c2.751-0.313,5.688,0.493,7.772,2.311c3.902,3.403-0.683,9.369-3.496,11.467c-4.034,3.008-9.765,3.521-14.608,3.705
			c-1.446,0.055-1.452,2.305,0,2.25c7.602-0.287,15.884-1.801,20.149-8.769c4.479-7.313-1.438-12.81-8.609-13.24
			c-7.998-0.48-12.523,6.121-8.787,13.102c4.049,7.562,14.435,9.41,22.161,9.076C78.879,49.641,78.885,47.391,77.434,47.453
			L77.434,47.453z"/>
	</g>
</g>
<g>
	<g>
		<path d="M30.069,47.005c-6.813,0.274-13.291-1.007-18.4-5.77c-5.588-5.21-2.955-11.362,4.074-11.895
			c6.904-0.523,10.896,4.52,6.878,10.908c-4.13,6.567-13.825,6.568-20.626,6.637c-1.45,0.015-1.451,2.265,0,2.25
			c8.481-0.085,20.521-0.839,23.998-10.363c2.678-7.336-2.414-11.371-9.293-11.694c-6.1-0.287-11.227,3.281-10.244,9.67
			c1.547,10.045,15.6,12.83,23.613,12.507C31.515,49.197,31.521,46.947,30.069,47.005L30.069,47.005z"/>
	</g>
</g>
<g>
	<g>
		<path d="M53.972,47.253c-4.925,0.213-9.723-0.442-14.205-2.571c-7.053-3.35-10.888-13.884-0.377-15.08
			c2.75-0.313,5.688,0.493,7.772,2.311c3.903,3.403-0.683,9.369-3.494,11.467c-4.036,3.008-9.767,3.522-14.61,3.705
			c-1.446,0.055-1.451,2.305,0,2.25c7.602-0.287,15.883-1.801,20.151-8.769c4.477-7.313-1.439-12.81-8.612-13.24
			c-7.998-0.48-12.523,6.121-8.785,13.102c4.048,7.562,14.434,9.41,22.16,9.076C55.418,49.441,55.423,47.191,53.972,47.253
			L53.972,47.253z"/>
	</g>
</g>
<rect id="_x3C_Slice_x3E__117_" y="26.914" fill="none" width="79" height="23.25"/>
</svg>
