<?xml version="1.0" encoding="utf-8"?>
<!-- Generator: Adobe Illustrator 15.1.0, SVG Export Plug-In  -->
<!DOCTYPE svg PUBLIC "-//W3C//DTD SVG 1.1//EN" "http://www.w3.org/Graphics/SVG/1.1/DTD/svg11.dtd" [
	<!ENTITY ns_flows "http://ns.adobe.com/Flows/1.0/">
]>
<svg version="1.1"
	 xmlns="http://www.w3.org/2000/svg" xmlns:xlink="http://www.w3.org/1999/xlink" xmlns:a="http://ns.adobe.com/AdobeSVGViewerExtensions/3.0/"
	 x="0px" y="0px" width="97px" height="24px" viewBox="0 -0.417 97 24" enable-background="new 0 -0.417 97 24"
	 xml:space="preserve">
<defs>
</defs>
<g>
	<g>
		<path d="M80.699,3.11c-2.09,5.572-5.052,14.153-11.313,16.425c-3.03,1.1-6.151-0.751-8.734-2.15
			c-3.971-2.151-9.938-8.901-4.747-12.83c2.458-1.861,6.265-1.708,9.095-1.085c6.491,1.429,4.624,8.194,1.236,11.855
			c-3.621,3.912-9.967,4.469-14.92,4.708c-1.444,0.07-1.451,2.32,0,2.25c6.346-0.306,12.823-1.382,17.333-6.256
			c2.72-2.939,4.788-8.729,1.604-12.106c-4.63-4.907-16.081-4.375-18.396,2.642c-2.433,7.375,7.971,14.425,14.245,15.429
			c9.448,1.512,14.27-11.62,16.769-18.282C83.38,2.347,81.204,1.765,80.699,3.11L80.699,3.11z"/>
	</g>
</g>
<g>
	<g>
		<path d="M80.899,3.982c2.501,6.085,5.003,12.17,7.504,18.255c0.544,1.322,2.722,0.744,2.17-0.599
			c-2.501-6.085-5.003-12.17-7.504-18.255C82.525,2.061,80.348,2.64,80.899,3.982L80.899,3.982z"/>
	</g>
</g>
<g>
	<g>
		<path d="M90.675,22.237c1.802-6.085,3.604-12.17,5.407-18.255c0.413-1.395-1.759-1.986-2.17-0.599
			c-1.803,6.085-3.604,12.17-5.407,18.255C88.092,23.033,90.264,23.625,90.675,22.237L90.675,22.237z"/>
	</g>
</g>
<g>
	<g>
		<path d="M51.521,20.004c-6.743,0.253-13.104-1.075-18.001-5.963c-5.445-5.436-1.448-10.591,4.835-10.845
			c1.899-0.077,3.81,0.367,5.509,1.198c4.695,2.297,1.543,8.104-0.818,10.729C38.7,19.955,30.604,19.83,24.674,19.89
			c-1.45,0.015-1.452,2.265,0,2.25c8.95-0.091,19.063-1.024,23.122-10.275c2.891-6.586-2.731-10.4-8.488-10.896
			c-4.683-0.404-11.548,2.231-10.606,8.05c1.685,10.408,13.865,13.573,22.82,13.236C52.968,22.2,52.974,19.95,51.521,20.004
			L51.521,20.004z"/>
	</g>
</g>
<g>
	<g>
		<path d="M25.583,19.874c-6.117,0.074-12.154-2.233-15.939-7.176c-4.426-5.779,0.823-9.513,6.233-9.586
			c1.806-0.025,3.604,0.432,5.209,1.243c4.669,2.361,1.386,8.205-0.983,10.764c-4.391,4.744-12.369,4.625-18.29,4.686
			c-1.45,0.015-1.452,2.265,0,2.25c8.747-0.089,18.532-0.937,22.884-9.678c3.261-6.548-1.916-10.824-7.908-11.471
			C12.009,0.388,4.921,2.96,5.84,8.931c1.376,8.935,11.653,13.29,19.743,13.192C27.032,22.106,27.034,19.856,25.583,19.874
			L25.583,19.874z"/>
	</g>
</g>
<rect id="_x3C_Slice_x3E__117_" fill="none" width="97" height="23.583"/>
</svg>
